<?xml version="1.0" encoding="UTF-8"?>
<svg id="Livello_2" data-name="Livello 2" xmlns="http://www.w3.org/2000/svg" viewBox="0 0 1344.84 1464.1">
  <defs>
    <style>
      .cls-1 {
        fill: #fff;
      }

      .cls-2, .cls-3 {
        fill: #262262;
      }

      .cls-3 {
        font-family: Manrope-Bold, Manrope;
        font-size: 421.97px;
        font-weight: 700;
      }
    </style>
  </defs>
  <g id="Livello_1-2" data-name="Livello 1">
    <g>
      <g>
        <rect class="cls-1" y="13.02" width="1344.84" height="1451.08" rx="81.63" ry="81.63"/>
        <text class="cls-3" transform="translate(552.67 362.89)"><tspan x="0" y="0">9</tspan></text>
      </g>
      <g>
        <path class="cls-2" d="M868.07,1241.96c-3.48,17.53-34.45,22.19-46.3,10.01-11.94-12.28-3.16-35.41,8.84-41.92-8.45-27.59-17.66-52.26-35.19-75.31-29.74,15.2-9.98-14.43-76.17-4.19-17,2.63-33.04-2.72-49.48-1.79-28.82,1.62-56.55,3.24-85.67,2.61-15.19-.33-29.89,2.2-44.86,2.75l-70.34,2.6-147.69,5.57c-13.67.52-25.2,1.6-38.25,3.16l-98.43,11.78c-10.61,1.27-23.06-3-34.55-5.39,11.19-15.46,25.42-29.98,37.27-43.43.95-1.21-1.4-7.18.15-7.29,1.52-.11,7-.07,8.46-1.44,30.5-28.81,52.92-56.72,86.44-85.84,3.85-15.4,4.03-33.55,3.96-50.55-.21-53.17,4.6-104.24,6.77-157.16l3.31-80.49,7.34-106.33c.69-9.98-8.99-46.11,4.58-59.46,8.13-8,24.96-6.32,36.86-9.91,32.9-9.94,65.25-11.76,98.8-18.3,107.35-20.93,304.37-46.64,409.96-35.02l65.75,7.24,168.84,26.28,38.04,5.69c14.95,2.24,29.89,8.79,44.89,9.27,2.19.07,6.8,1.59,6.98,3.35l.86,8.65c10.12,1.63,7.37,11.15,8.92,18.97,1.93,9.74,1.79,17.9,2.12,27.51l1.7,50.08c1.1,32.27-1.51,62.92-1.98,95.23l-1.38,95.08c-.53,36.64-.12,70.6-1.6,107.46l-6.28,156.68,130.77,26.29c1.96,3.28,3.93,8.71,4.11,11.44.23,3.5-6.12,6.34-9.84,5.61l-30.43-5.97c4.46,6.81,8.34,11.2,10.89,17.15,2.24,5.23-4.32,10.16-7.79,11.76-5.19,2.39-8.98-.28-14.89-1.92l-23.81-6.62c-20.37-5.67-36.94-7.94-57.24-9.43l-165.26-12.16c.52,37.98-11.68,72.71-21.05,108.03-1.66,6.28,4.73,15.03-6.06,18.96-5.09,6.9-14.77,10.86-23.09,7.32-7.99-3.39-16.71-9.49-13.78-21.35-12.43-2.03-26.78-.76-40.13-4.06l-45.08-11.17ZM814.42,531.19l-3.78-16.1c-9.97.56-45.92-.42-48.05,6.24-.73,2.27.66,9.3,3.08,9.33l48.75.53ZM757.78,531.57l-4.81-14.32c-7.7.16-14.32.06-20.47,1.78-4.1,1.15-7.6,8.06-8.7,14.13l33.98-1.59ZM847.46,533.79l4.38-14.09-34.49-2.48,4.48,14.27,25.63,2.29ZM720.73,519.03l-24.42.57c-3.54.08-3.61,9.02-2.68,12.47,1.25,4.64,21.66,2.08,22.71.29,1.76-2.99,2.95-7.58,4.39-13.33ZM633.27,539.33l52.68-4.26c2.43-2.57,2.13-10.77-.17-14.14l-41.01,3.52c-5.05,3.41-10.28,7.15-11.5,14.88ZM900.55,537.67c-2.65-17.38-38.83-18.98-41.9-14.03-1.49,2.4-2.87,9.47-.11,11.07l42.01,2.95ZM581.8,543.72l42.91-3.02,3.33-14.63-41.66,5.98c-3.03.44-5.24,8.77-4.58,11.67ZM947.25,546.27c7.82-18.19-31.56-19.96-41.11-20.57l1.48,13.28,39.62,7.28ZM535.41,549.29l37.17-4.57,2.23-12.91-32.45,4.07c-3.1.39-7.09,2.13-8.8,3.75-1.71,1.62-.66,9.96,1.84,9.65ZM1045.9,559.5c18.89,8.36,37.82,10.75,58.3,10.03-2.88-6.74-9.74-16.52-17.15-17.19-43.76-3.95-85.82-10.28-130.03-18.33-3.61-.66-3.45,13.77.22,14.02,10.26.68,21.58.64,29.34.92,14.38,7.67,32.33,9.46,46.66,10.12,1.92-1.46,4.56-4.16,6.44-4.2,1.57-.04,4.59,3.9,6.22,4.63ZM525.51,550.85c2.35-1.79.68-11.38-2.18-11.38-9.24-.02-42.18,1.96-43.71,12.92-1.6,11.49,35.37-.79,45.89-1.54ZM448.01,562.62l24.93-2.87c.95-3.05.66-9.4-1-12.31l-30.39,6.48c-1.28.71-1.78,6.12-.7,7.2,1.09,1.07,4.65,1.79,7.16,1.5ZM496.72,907.39l59.77-.96c6.37-.1,12.99.9,17.21,5.51,2.68,2.93,3.56,9.6,3.11,15.68l-6.09,81.86c-1.65,22.12-3,43.25.41,65.84,31.79-2.03,62.25-3.43,94.19-2.87,22.78.4,44.86-2.97,67.48-1.34l46.37,3.33,11.26,15.02c1.88-15.23.51-27.42,10.83-36.59,20.67-18.36,47.01-25.01,74.48-22.82,16.6,1.32,35.23,1.74,50.76,8.27,25.41,10.68,45.25,29.78,64.73,48.92,17.95-3.59,35.89-.97,54.69-.02,52.71,2.65,64.47,7.98,115.17,15.73l7.97-149.9c1.22-22.92-4.82-44.86-1.81-67.59,5.63-42.55,3.62-83.32,3.99-126.19.18-21.01,5.43-151.11-5.15-159.07-2.35-1.77-17.42-3.84-19.54-1.53-2.24,2.43-3.62,7.86-2.55,10.28,1.27,2.87,5.92,5.32,8.93,7.31,1.47,1.47-3.65,5.59-5.68,5.02-1.69-.47-5.92-1.92-7.32-3.45-4.21-4.58-4.11-13.75-1.86-21.98l-28.77-2.7,7.16,41.28c.35,2.01-1.66,5.51-2.79,6.52-.9.79-4.42-.56-4.63-2l-7.09-47.55c-17.79-1.27-32.1-2.5-49.76-6.78l-.69,44.4c-.03,1.65-2.94,5.57-3.99,6.66-1.05,1.09-3.96-1.21-4.5-2.63s2.13-5.32,2.1-7.26l-.54-43.87-51.91-7.49c-1.22,2.49-2.13,7.51-.15,8.43,2.06.96,6.45,2.7,8.05,3.81,10.1,7.08,3.46,20.5,3.01,30.58l-.39,8.67c-.08,1.9-6.2,1.97-7.38.49-4.75-5.96,8.47-25.01,1.27-32.81-2.79-2.27-11.61-3.03-12.03-6.46l-1.88-15.13-31.6-2.64c8.75,5.14,16.75,4.92,15.93,13.32-13.51-.88-25.8-2.5-25.58-17.14l-36.16-5.51c1.09,9.92,4.68,17.04-4.14,20.48l-5.67-22.53-31.59-1.6-9.84,20.77c-8.8-7-.93-12.12,1.47-21.76l-29.37-3.43c-1.93-.23-5.48,2.96-5.45,4.55.02,1.27.98,3.15,2.44,5.25,1.19,1.73,1.54,6.13.1,7.61.15-.15-18.72,2.34-17.94-1.64,1.15-5.83,4.67-9.23,8.63-15.72l-51.67-.46c-2.77,9.95-3.09,20.03-13.2,23.85-10.4,3.93,9.49-22.65,5.81-23.53-11.37-.12-23.23-.06-33.27.88l-8.26,8.37c-4.5-10.06-9.91-7.59-18.55-7.22-5.98.26-4.87,9.53-6.69,15.76l-2.53,8.68c-.46,1.6-6.1.6-7.31-.63l5.69-22.78-47.37,3.97c.99,7.7,1.74,17.65-6.82,16.33-3.58-.55-1.07-8,1.08-15.1l-48.61,2.65c-2.21,7.86-5.51,14.61-12.43,18.74-1.47.88-6.1-.5-6.35-2.18-.89-5.98,8.03-4.94,9.94-15.66l-40.64,3.81-4.95,20.75c-.91,3.8-9.07,6.94-9.86,3.82-2.84-11.08,9.88-10.21,6.07-23.13l-41.08,7.77c-1.55,17.36-12.24,33.35-28.28,37.42,5.63-15.36,20.25-18.08,21.34-35.34l-30.73,2.78-.17,34.14c0,1.64-4.64,4.22-5.31,2.74-.55-1.2-1.86-5.05-1.7-6.95l2.32-28.74-24.45,3.11c5.13,11.76-.05,54.44-11.26,57.84-13.17,3.99,17.84-32.31,4.47-55.41-7.83-.91-16.35.19-25.95,2.58l3.42,24.82-11.51,29.4c-12.73-13.13,14.32-23.14-.26-55.19l-20.49,4.35c2.33,22.69,7.84,46.62-8.27,64.83,7.9-23.6,8.93-43.84-.6-65.85-13.76,17.53-5.94,34.95-7.32,56.56-10.51-15.91-7.29-35.38-2.05-53.33-4.05-.24-10.5.33-13.61,1.25.02,14.43.29,26.87-.62,40.32l-6.51,96.64-7.45,137.36-3.21,106.95-5.61,111.95,50.1-5.87,4.17-63.17c1.96-29.73,4.67-60.6,8.6-89.74,40.02-25.52,87.59-24.02,134.27-24.78ZM434.37,562.76c5.37-9.02-5.43-8.94-9.73-7.35-3,1.11-5.49,4.48-8.3,10.5,3.65,2.37,15.58.96,18.03-3.15ZM1144.43,574.07c1.23-18.25-27.32-15.73-37.61-17.42,2.3,5.03,3.1,7.9,3.79,14.92,10.28,1.76,21.72,2.46,33.82,2.49ZM405.54,568.34l4.17-8.84c-9.64-2.23-21.45.19-23.64,10.75l19.46-1.91ZM365.63,573.36c8.28.29,12.15-4.3,13.47-11.03l-11.01,2.49c-2.51.57-4.1,7.64-2.47,8.54ZM1164.82,570.67c-1.82-3.7-10.73-4.7-13.15-3.9-2.8,5.42.88,8.97,5.5,9.38,3.95.34,9.81-1.08,7.64-5.48ZM352.36,575.08c1.52-.81,4.7-6.22,3.17-6.83-1.22-.48-4.6-.96-5.89-.62l-8.87,2.32c-1.72.45,2.4,5.24,3.84,6.32,1.44,1.08,4.64.47,7.75-1.19ZM324.18,572.02c-1.21.62-1.39,5.74.03,5.62l6.27-.56c1.38-.12.92-4.21.81-5.6s-5.35-.37-7.11.54ZM483.09,1076.11l66.21-2.34c-1.32-3.14-2.57-4.63-2.05-5.49l2.1-3.49c-.25-42.15,1.99-98.3,12.26-139.78l-89.88-.8c-1.4,11.83,2.64,23.1,5.79,34.74,3.93,14.56,3.29,30.38,4.76,45.36,7.46-.44,35.61-4.46,34.54,8.33-.21,2.51-5.29,6.65-7.84,6.76l-27.77,1.19c-2.56,19.07-2.21,37.13,1.89,55.51ZM463.21,1077.14c-1.71-16.59-2.77-29.15-1.06-43.75.88-23.84,1.19-48.04-2.82-71.71-2.06-12.16-5.42-24.02-4.55-36.08l-35.07,1.68c-12.37.59-24.04,6.49-35.99,10.17l-4.34,38.22-9.36,108.37,93.2-6.9ZM279.41,1088.36l1.81-47.73-53.74,53.66,51.92-5.93ZM995.57,1137.84l-29.52,2.19c-15.55,1.15-34.38,7.12-48.77-2.11-25.28-16.21-30.07-46.04-50.85-61.51l-23.83,71.35c-10.88-4.02,5.34-27.33,1.92-30.18l-5.59-4.66c-1.63-1.36-2.64-6.4-2.61-8.51.02-1.69,4.41-3.64,5.89-2.84l7.15,3.85,8.26-27.61c.46-1.52,3.88-5.11,2.84-6.18l-5.43-5.61c29.72-16.43,53.31,46.98,78.63,63.72l54.48-6.74c-12.3-29.14-36.2-50.23-62.92-67.06-9.03-5.68-18.17-8.17-28.19-11.66-15.72-5.47-80.71,3.33-83.51,32.02-1.42,14.62-2.26,29.51-2.16,44.36.09,13.17,37.55,52.05,34.74,81.92,13.98.17,22.39,9.45,24.27,22.62,15.22,3.61,30.33,9.16,45.77,10.51l60.53,5.28,8.48-26.34c-27.24-7.95-89.95,2.55-100.36-19.12-5.1-10.62,4.21-19.92,7.42-29.34,1.66-4.88,2.59-10.61,5.99-11.94s13.25-.08,12.3,3.48l-8.97,33.58c16.48,7.21,32.77,1.17,49.1,2.8l38.08,3.81c6.29-19.43,8.62-39.59,6.85-60.07ZM439.42,1118.31l77.38-4,100.1-3.31c27.96-.92,53.29.74,81.5.25l61.37-1.08c2.29-5.47,4.51-9.77,7.8-14.24-14.06.25-28.21-2.64-42.49-3.53-50.01-3.11-98.89-.97-148.73,1.43-42.92-1.55-83.91-.06-126.56,3.19s-88.54,4.29-132.63,10.93c-9.43,1.42-14.91.72-23.64-.09-29.69-2.74-59.07,5.89-88.25,8.6l-24.59,22.99,73.3-8.41c61.84-7.09,122.23-9.48,185.45-12.75ZM1249.96,1141.16l-51.6-10.29c-61.52-12.26-121.53-25.58-183.98-27.5-8.85-2.77-13.56-5.47-19.77-12.43l20.89,36.12c66.83,3.61,134.99,6.2,202.42,16.95l38.37,6.11c-1.31-3.87-3.62-8.43-6.33-8.97ZM790.31,1113.38l.12-6.71c.02-1.28-3.8-1.92-5.01-1.54-4.23,1.33-5.63,15.05-.89,18.64,1.64,1.24,5.61-.74,5.64-2.2l.15-8.2ZM844.54,1247.26c7.29-8.15,5.53-21.5-1.11-30.46-5.84,3.69-8.1,10-8.48,15.61-.38,5.64,1.05,14.93,9.59,14.85ZM977.5,1258.69l-14.07-.9c3.18,3.57,6.03,7.95,8.22,7.76,2.19-.19,5.15-4.46,5.85-6.86Z"/>
        <path class="cls-2" d="M90.66,1111.93l-23.62-6.1c-1.32,3.95-4.36,9.95-8.67,10.75-3.34.62-9.04-3.04-13.74-6.17l-11.27-73.41-2.96-79.04c-.73-19.46-3.55-39.07,3.29-57.88.96-2.64,4.26-5.22,2.82-9.39,16.91-17.53,38.47-30.76,60.03-43.34l96.83-56.5c20.59-12.01,38.1-4.05,54.09,11.31,7.71,7.4,15.84,10.09,14.56,25.18-3.78,44.82,3.34,89.47-1.23,136.87-1.38,14.38-7.55,19.12-16.3,27.65-29.84,29.09-60.57,54.62-94.74,78.69-19.95,14.06-36.29,30.57-59.1,41.38ZM87.91,898.04c51.62-36.27,94.67-46.96,142.62-87.77,1.03-15.43-32.34,5.33-39.37,9.45l-72.82,42.71c-17.07,10.01-33.1,18.08-48.5,30.64l18.07,4.97ZM177.64,925.86l-16.75,1.13c3.68,32.15,13.19,64.26,12.64,98.93-11.42-26.79-8.05-54.71-16.11-80.79-3.1-10.04-6.6-19.9-5.84-30.59,11.42,1.53,19.02,2.86,30.51-.07l28.57,80.31c11.18-10.65,21.66-20.04,34.44-27.92,1.66-27.62-.69-54.18.02-81.34l1.61-61.67c-32.57,22.64-63.52,41.83-98.76,57.89-14.88,6.78-28.83,16.24-42.17,25.63-5.8,4.08-8.85,11.51-20.81,8.6,6.16,22.47,5.78,41.34,7.27,62.43l5.65,80.16c.56,8.01,2.37,15.06,4.01,24.81l28.98-23.02c24.71-19.63,49.93-36.76,73.56-58.98-6.13-26.6-16.21-49.48-26.8-75.5ZM84.15,1092.84l-6.53-61.04c-2.31-21.62-1.28-43.22-2.72-65.1-1.25-18.98-3.95-35.6-2.69-55.54l-20.32-7.91c-2.54,17.91-2.14,34.17-1.21,52.2l4.9,95.64,6.39,35.88,22.19,5.87Z"/>
        <path class="cls-2" d="M778.43,777.79l-99.24,11.71-46.95,4.69c-26.8,2.68-52.58,3.64-79.11,8.6-9.29,1.74-16.07,0-24.13-5.99,10.83-9.49.68-20.37.43-30.55-1.03-42-.84-82-7.55-123.29-1.33-8.15-2.57-21.75,2.55-26.81l25.5-6.85c66.05-17.73,134.45-24.67,202.7-22.53l118.54,3.71c31,.97,62.07-1.64,91.64,5.45,11.78,2.82,11.32,10.82,11.36,19.88l.26,67.48,7.88,72.48c6.47.46,10.88,1.74,12.75,4.87,2.33,3.9,3.4,10.63.54,13.54-8.59.87-17.87,1.24-25.48-.29-45.66-9.22-92.33-6.89-138.72-1.86l-53,5.75ZM918.61,631.64l28.67,101.85c.45,1.6.07,6.65-.96,7.94-.82,1.03-2.92,1.14-5.18,1.32l-8.72-36.04-38.27-4.07c-4.42,15.58-5.04,29.47-7.69,46.28,25.02.85,50.71,2.13,77.48,5.49,2.43-14.32-1.52-27.36-3.65-40.87-4.88-30.94-1.3-60.99-2.44-93.89-7.26-6.17-18.65-7.7-29.63-7.88l-133.25-2.12c-19.55-.31-37.47-2.46-56.87-3.9-44.04-3.28-150.87,10.53-197.41,21.73-1.01,17.86,1.69,33.3,3.32,50.52,3.31,35.01,2.04,69.5,2.1,106.22,43.66-6.99,83.46-8,127.9-11.65l54.75-7.55c50.2-6.93,99.52-13.33,150.41-16.04.19-15.73,2.88-29.75,6.47-44.57,6.66-27.46,11.48-54.63,20.41-81.46,4.55-2.86,11.01,3.17,12.56,8.69ZM930.38,697.72c-7.39-22.67-10.66-39.21-19.13-59.56-7.59,19.39-11.33,36.1-14.57,54.97l33.69,4.59ZM529.59,690.39l-.17,4.81c-.23,6.51,2.52-6.18.17-4.81Z"/>
        <path class="cls-2" d="M130.02,1041.41c-7.32.85-.49-18.58,1.86-32.5.35-2.05,3.27-4.59,5.94-6.66-5.28-9.15-10.63-16.98-18.52-26.65l-3.63,21.84c-7.79-1.04-16.59-7.02-18.46-14.97,2.7-2.09,6.89-.26,12.76,2.63l4.89-19.4c-7.81-5.07-14.43-15.18-14.5-24.92-.06-9.03,12.58-12.09,19.18-10.71,15.38,3.22,14.03,27.58,6.08,38.43l19.09,27.81c3.04,4.43,2.85,7.66,1.15,12.96,4.7,12.27,26.16,13.79,20.32,21.56-1.01,1.35-6.24,2.52-7.77,1.46l-17.07-11.79c-11,9.26-3.42,20-11.32,20.91ZM122.24,958.82c5.2-.83,3.8-12.16.82-16.46-3.06-4.4-13.99-5.43-15.77.43-2.37,7.82,7.09,14.3,14.96,16.03Z"/>
        <path class="cls-2" d="M227.56,957.18c-9.36,3.63-5.09,17.08-17.68,20.3,1.94-10.02,6.69-20.83,13.54-30.62l-6.27-23.5c-1.04-3.91-10.6-8.22-13.35-8.03-2.07,6.76-1.55,10.89-7.72,13.55-.1-10.12.52-16.24,2.01-27l15.68,9.01c5.41-15.02-14.16-23.02-11.37-35.79,1.44-6.57,5.86-10.25,13.75-8.37,5.05,1.2,9.49,7.7,10.34,12.39,3.38,18.83-9.35,9.28-5.11,32.91,10.2-2.54,5.14-13.24,16.91-13.05-9.48,22.3,3.57,17.15,3.69,28.92.14,13.65-16.63-14.83-17.86-8.1l3.46,20.74c.2,1.19-4.04,4.85-2.95,5.21l6.78,2.28c2.31.77,5.82,2.39,7.42,3.46,1.6,1.07,1.05,6.9-.81,7.44-2.16.63-7.14-.6-10.45-1.74ZM219.6,887.34c.13-1.3-.71-5.33-1.79-7.51-1.34-2.72-7.46-5.15-10.33-.98l12.12,8.49Z"/>
        <path class="cls-2" d="M739.76,753.07c-13.59.63-23.29-19.05-25.45-30.09-5.56-28.38-11.72-73.96,10.23-94.42,5.97-5.56,13.5-9.56,21.11-9.5,27.64.2,50.26,49.24,34.24,95.44-6.03,17.38-17.95,37.54-40.12,38.56ZM742.27,741.76c28.87-18.32,34.19-47.75,24.24-76.81-3.95-11.55-5.78-23.94-18.7-29.79-41.23-18.68-34.06,124.69-5.54,106.6ZM778.89,677.57c.13-10.18-3.04-16.57-6.04-23.96.47,9.02,2.43,17.16,6.04,23.96ZM765.4,733.28c0-.82-.67-1.49-1.49-1.49s-1.49.67-1.49,1.49.67,1.49,1.49,1.49,1.49-.67,1.49-1.49ZM760.46,737.61c0-.48-.39-.86-.86-.86s-.86.39-.86.86.39.86.86.86.86-.39.86-.86Z"/>
        <path class="cls-2" d="M688.31,729.64c-7.7-9.32-19.57,4.52-31.55,1.26-1.73-.47-3.01-5.6-1.62-6.72,3.64-2.92,34.18-8.56,42.87-6.46,3.37,19.8-8.02,39-27.09,42.04-12.21,1.94-22.31,2.91-32.46-3.93-8.52-5.74-13.19-15.73-16.08-26.52-8.24-30.77-12.03-62.1,3.83-91.2,8.01-14.71,30.91-18.61,44.7-9.25-1.46,13.88-27.28-10.38-37.25,19.54-8.31,24.92-6.73,50.99-2.37,76.95,2.09,12.47,8.2,20.27,20.51,23.67,8.1,2.23,16.73,4,24.31-.51,5.26-3.13,15.79-10.37,12.2-18.87Z"/>
        <path class="cls-2" d="M857.25,747.2c-17.03-17.63-32.6-34.4-52.6-51.06-4.74,10.04,7.16,56.6-3.57,53.93-7.81-1.94-3.76-84.73-3.15-98.05.41-8.92,1.21-18.27,5.82-26.47,14.46-5.35,38.03-8.67,49.92,4.3,9.65,10.52.29,33.5-9.79,40.92l-28.48,20.96c8.73,10.74,41.92,41.53,45.65,46.16,1.27,1.57-1.27,6.99-3.81,9.32ZM829.97,671.45c12.49-5.3,27.31-23.18,16.11-36.5-6.78-8.06-29-6.94-36.56-.7-6.72,16.11-4.11,36.25-5.24,52.52,12.06-1.15,15.27-10.89,25.69-15.32Z"/>
        <path class="cls-2" d="M602.29,722.74c-7.17-6.14-29.27-.81-31.06,8.73l-7.3,38.91c-11.87-3.6-8.38-13.86-6.58-22.29l20.07-94.29c2.06-9.69.45-19.6,7.21-27.94l11.77,6.57c-1.24,12.84,1.52,28.12,5.8,42.79l18.4,63.16c1.04,3.57,4.43,9.32,3,11.99-2.36,4.38-5.52,8.68-9.22,9.43l-12.09-37.07ZM591.77,664.31c1.62-4.97.65-8.95-2.45-12.42.6,4.71,1.38,8.53,2.45,12.42ZM600.18,708.98l-15.7-41.79-9.55,45.59c9.67.05,16.87-.92,25.26-3.8ZM594.43,668.43c0-.48-.39-.86-.86-.86s-.86.39-.86.86.39.86.86.86.86-.39.86-.86Z"/>
      </g>
    </g>
  </g>
</svg>