<?xml version="1.0" encoding="UTF-8"?>
<svg id="Livello_2" data-name="Livello 2" xmlns="http://www.w3.org/2000/svg" viewBox="0 0 1344.84 1464.1">
  <defs>
    <style>
      .cls-1 {
        font-family: Manrope-Bold, Manrope;
        font-size: 421.97px;
        font-weight: 700;
      }

      .cls-1, .cls-2 {
        fill: #006838;
      }

      .cls-3 {
        fill: #fff;
      }
    </style>
  </defs>
  <g id="Livello_1-2" data-name="Livello 1">
    <g>
      <g>
        <rect class="cls-3" y="13.02" width="1344.84" height="1451.08" rx="81.63" ry="81.63"/>
        <text class="cls-1" transform="translate(454.37 362.89)"><tspan x="0" y="0">12</tspan></text>
      </g>
      <g>
        <path class="cls-2" d="M423.27,616.92l.09,6.9c-3.88.24-6.98.82-9.19,3.06,1.88,2.61,3.1,5.5,2.11,7.91l-4.91.96c-.25,1.28-.67,4.07-1.44,5-.62.76-3.78.61-3.96,1.58l-.91,4.92-8.93.63.96,2.98c3.11-1.61,4.91-1.9,8.26-2.25,1.03-.11,3.09-1,3.77-.21.83.96,1.99,2.9,1.73,3.9-.75,2.78-7.2,1.29-9.25,2.68-.99.67-1.06,3.03-1.27,5.29l-11.54,1.65c-1.26.18-2.48,3.06-2.24,4.54l9.11-.62c1.42-.1,2.64,3.73,2.26,5.1-.45,1.62-2.42,3.27-4.39,3.42l-10.63.8-1.79.25c-.52.07-.44,2.68.08,2.64l10.98-.73c1.62-.11,4.31.07,5.1.98.89,1.03.58,3.77-.09,5.99l7.59.63c1.03,1.15,2.4,3.14,2.41,4.25,0,1.48-2.59,2.78-4.05,2.79l-8.07.06-.8,5.29-9.44,1.21.12,7.87c3.68,1.99,5.46,5.26,4.83,9.28,2.22,2.55,2.1,5.97-.07,8.45,2.2,5.15,1.33,11.4-2.45,15.24,5.65-1.24,10.36-2.26,15.6-.11,1.68.7.79,5.53-.96,6.39-2.36,1.15-3.49,2.28-5.14,4.27l-6.41.4.05,8.11c4.15.91,2.66,7.18,5.35,7.44l4.22.42c4.21.41,6.04,1.91,6.48,5.89l.22,1.99c.08.68-3,1.53-2.85,1.92l.63,1.68c.15.4,1.31-.55,1.83-.99l9.1.83,8.04.69c1.21-.24,3.58-.91,4.62-.33s2.02,3.29,1.76,4.45-3.04,2.65-4.25,2.54l-9.37-.87-9.82-.55c0,1.22.49,3.8,1.34,4.61,1.17,1.13,7.59,3.55,10.74,3.77l11.24.78,4.58.08,3.59.28,1.72,5.38c-2.58,1.3-4.75,1.73-8.26,1.99l-.59,6.88-7.48,1.34c4.84.8,10.04.14,14.24,2.7,2.65,1.62,4.74,2.27,7.73,2.67l8.32,1.11c.63.08,2.88.12,2.92.71l.24,3.01.14,2.13c.04.6-1.63,1.11-2.31,1.09-3.91.44-7.28,1.21-10.66,2.43l-23.85.33c1.42,1.25,1.97,1.24,3.2,1.3l12.41.62,11.24.45,5.22.18,10.59-.25c1.12-.03,3.6,1.12,4.24,1.94.73.94,1.08,3.2.96,4.15l5.99,1.53c1.89.48,3.8,1.64,5.08,2.39l13.34,2.34c2.68.47,5.29.54,8.16.4l6.45,2.26c.38-1.04.5-1.93.92-1.8l2.42.75,7.6,2.53c-1.1,4.21,2.62,6.48,1.69,12.21,7.18,2.92,13.51-2.09,20.43-.49l1.88,7.42c.68,2.67-2.92,4.64-5.4,4.83,1.75,1.32,3.51,2.89,3.26,4.09-.35,1.68-2.3,3.14-3.83,3.25l-10.69.8-.96,1.34c6.16.09,12.26.21,17.95,1.66,2.43,3.3,6.9,6.38,10.52,6.61l7.05.45c1.25.08,2.6,3.5,1.86,4.45s-2.31,1.27-4.36,1.38l-.52,5.54-11.5.87c4.18,3.15,10.18.82,10.33,4.95.05,1.33-1.78,3.21-3.03,3.24l-6.29.14-8.28.59c4.4,1.46,8.29,2.32,12.49,4.85,1.33.8-.16,5.31-1.65,5.26-4.23-.14-8.28.08-12.34,1.31l14.7,3.08c1.11.23,3.02,1.84,3.06,2.82.22,4.87-9.74.94-18,2.33l10.21,5.46c1.72.92,3,3.36,2.16,5.28s-3.7,2.24-6.49,2.35l3.84,2.6c-2.46.46-5.67,1.28-7.66,1.05l-25.88-2.92-.27-2.82c-.06-.65-2.02-1.12-2.74-1.28l-5.85-1.35-13.85-2.16.51-5.9c-1.42-.46-4.1-1.53-4.33-2.68s1.33-3.38,2.43-4.73l-19.2-2.48-7.2-.22-7.68-.12-18.84-.3-1.36-6.07-11.11.51-1.03-3.89-6.47.5c-.39-1.03-.59-4.58.42-5.14l4.36-2.41c.22-3.26-4.1-4.76-7.26-4.84l-15.2-.36c-1.29-.03-3.64-1.7-4.81-2.53l-11.36-.84c-1.67-1.14-.67-6.91,1.21-7.16l9.36.65c2.71.19,5.76,2.45,8.16-1.61-3.35-.6-6.15-.68-9.67-.21-2.28.3-4.3-.63-6.41-1.06l-13.57-2.74c-1.28-2.63-.24-6.56,1.87-9.02l-5.18-1.77c-1.49-.51-3.95-3.05-3.32-4.37l1.38-2.89c.35-.73-1.64-1.73-2.54-1.78l-17.94-1.02c-1.56-1.62-1.58-6.53.39-7.46,3.2-1.51,6.04-1.18,10.15-2.45-5.62-1.88-10.51-1.7-15.89-2.16l-7.06-.6c-1.53-.13-1.95-4.18-1.27-5.51l2.31-4.57-9.32-.85c-3.81-.35-8.17.37-11.69-1.7-1.42-.83-.39-5.12.79-6.22,1.77-1.66,3.16-2.54,5.51-2.63l8.56-.31-1.1-4.12c-.22-.82-2.66-.59-3.56-.61l-6.48-.18-10.08-.67c-2.34-.16-4.2-1.57-4.49-3.39-.48-2.98,1.83-4.8,4.61-4.91,1.04-.04,2.85-1.25,3.2-2.12s-.91-3.15-1.9-3.33l-6.95-1.25c-.66-.12-2.12-.9-2.32-1.5-.25-.74.26-2.23.6-3.15l1.45-4.01,6.04-.58c.32-.03,1.58.31,1.89.37s.58-.84.47-1.14c-.16-.45-1.37-1.27-1.91-1.28l-18.61-.2c-2.65-.03-3.46-5.86-1.24-6.62l5.32-1.84,7.55-1.36,10.52-1.97-6.57-2.52c-3.79,1.6-7.26,2.14-11.19,2.07-3.86-.07-8.52.68-11.93-1.39-2.08-1.26-.27-5.25,1.77-5.65l11.62-2.23,9.52-.68,9.51-.8c5.66-.48,10.81-.9,15.85-2.5l-7.14-.55-20.17.31-13.37.93c-2.32-1.07-3.68-7.5-1.06-9.21l3.01-1.95c.61-.4-.1-2.1-.6-3.71l6.87-2c.91-.27,1.91-.69,2.26-1.22.44-.66.13-3.18-.66-3.23l-3.25-.21-20.72-1.29c-2.1-.13-1.63-6.26.52-6.54l13.48-1.77-.23-8.31c-7.07,2.09-13.5,1.93-18.89-1.79-1.2-.83,0-4.71,1.18-5.55s3.73-1.56,5.84-2.24c1.75-.56,2.48-4.84,2.64-6.96,11.92.68,13.56-3.37,10.71-3.22l-14.01.74c-.84-.7-1.76-3.72-1.06-4.41l3.03-2.94c-1.61-.99-2.26-7.07.74-7.71l10.65-2.28,1.74-.72c.42-.17-.41-1.92-.89-1.9l-18.94.91c-1.01-1.2-.52-5.68,1.36-6.99,5.01-.14,10.37.25,14.25-3.24,4.34-3.91,5.71.06,9.07-1.82.4-.22.03-1.61-.43-1.57l-2.27.21c-.87.08-2.67.03-3.48-.17s-.95-2.46-1.14-3.72c-.39-2.61-4.83-.97-6.63-2.67-1.12-1.05,1.23-4.91,1.66-4.96l1.88-.21,6.73-1.7c1.14-.29,3.08-1.02,3.42-1.89s.13-2.9-.24-3.8l-.92-2.24c-.22-.55-2.05.41-2.67.3l-9.77-1.71,1.45-8.31,2.99-2.59c4.14,2.72,7.91-.94,14.5.3l4.71-3.88-10.05-.44c-.57-.02-1.84-.38-2.29-.62-.6-.33-.81-2.43-.53-3.13l1.35-3.4c.37-.92,2.94-.58,4.37-.35,1.18.19,3.44-.35,4.53-.43l15.31-1.18c3.38-.26,6.84.13,9.27-2.71l-23.43.76,1.2-7.56,4.59.71,5.92-.31,16.29-.29c3.27-.06,5.54-.3,6.56-4.96l-11.48.55-21.82,1.44-12.4.41c-1.37-1.23-.61-5.65,1.02-5.93l10.28-1.78-.51-2.48c-.39-1.91,5.77.99,9.85-1.64-5.73-2.76-13.1.91-13.13-1.12l-.05-3.69c0-.34.53-1.52.88-1.6l1.85-.44c2.17-.51,6.24-3.25,8.93-3.65l6.1-.9c-.07-2.32.72-4.99,1.97-4.85l2.49.29c.6.07,1.26-1.14,1.64-1.75l5.41-.71,7.46-.44,12.11-.82,5.57.75,12.85-1.17,8.58-.51c3.47-.21,7.12.1,9.61-2.29l-11.97-.62-6.66.35-6.03-1.01-10.13.31-9.37-.34c-1.51.37-3.65.82-5.34.78l-16.25-.37c-2.24-.36-1.46-7.4.67-7.24l10.09.78,6.07-3.14v-6.09c2.99-.68,6.59-.91,10.01-.81l5.5.16,9.41.47c-1.31-3.98-3.97-4.11-6.63-3.92l-12.4.9-7.51-.66,1.72-6.34,6.38,1.68-.58-5.87c-.13-1.31,3.19-2.34,4.64-2.43.12-.16.1-1.44-.26-1.43l-2.25.06c-1.24.03-4.2-.9-4.41-2.11-.29-1.69,1.04-4.97,2.39-4.64l3.23.8c.52.13.93-1.47,1.19-1.94l8.42.02c.81,0,2.72-1.73,2.27-1.78l-3.3-1.6c-.9-.44-.61-3.97.45-4.07l4.86-.44,2.44-10.04-2.52.09c-.51.02-.91-.79-1.54-2.14-.52-1.13.64-3.5,1.95-4.24,3.06-1.73,7.98,2.08,6.89.52-1.89-2.7-3.48-2.83-3.34-4.91.1-1.53,2.15-2.88,3.79-3.48.31-1.2.69-4.13,1.5-5.1s3.36-1.37,4.77-1.31c5.91.27,10.57-5.33,9.28-10.31.9-3.29,5.52-3.08,8.62-3.3l12.5-.92,8.29,1.31c3.65.58,4.33-5.51,13.78-.41l6.23-.51c1.97-.16,3.69-.52,5.87-.27l12.4,1.4,5.57-.3,13.87.08,5.91.13,10.91.58c1.49.08,4.6.4,6.05.16l7.59-1.23,16.47-2.32c.73-.1,2,1.38,1.62,1.86l-1.71,2.19-.96,1.24c-.22.29-.53-.15-1.31-1.01l-6.46.16c-.72.02-2.57-1.31-3.09-1.7-1.85,1.57-4.25,2.44-6.89,2.46h-1.85c-.48.02-.5,1.39-.5,1.87v2.63c0,.6-1.97.88-2.63.87l-14.82-.15c-3.89-.04-7.27.38-10.91,1.42,2.99,1.62,5.49,1.73,8.39,1.52l2.61.89c1.61-.25,5.3.02,6.98.65.75.28,1.49,2.62,1.11,3.33-1.53,2.85-5.37,2.14-5.35,2.95l.07,2.93-5.89.8c-.32,1.82-1.66,4.67-3.13,4.93-2.79.5-5.66-.68-7.7-.66l-13.15.13c-6.79.07-11.47,1.03-12.49-2.79-.12-.43-1.38-.08-1.52.33l-.77,2.23c-.17.5-1.5-.62-1.87-.84l-2.99.93.43-2.7c.07-.42-2.42-.7-2.52-.29l-1.61,6.23,6.82.98c2.8-1.49,6.27-1.78,8.67-.39,2.99-1.13,6.46-1.28,9.44-.69l2.56,5.39,4.81,1.53-.81,2.49c-.19.57,2.01,1.07,2.15.48.44-1.89,2.93-5.28,5.58-4.01,5.82,2.79,8.7-2.09,11.44,2.56.51-.72,1.7-2.48,2.66-2.4,1.24.1,3.5.79,4.76,1.24l1.95-.93c.46-.22,1.03.79,2,2.09l1.04-2.07c1.17,3.27-2.15,5.8-5,7.63-.51-.63-1.94-2.01-2.93-2.52-.92-.48-2.88.66-4.28.95-4.82,1.03-8.5-1.64-10.5.79-.31.38.48,1.85.97,1.81l5.15-.43c1,3.12.04,4.85-2.99,6.47l3.39,1.14-.29,6.1-4.17-.1c-4.84,2.73-9.58,1.17-9.34,2.15l.44,1.81c.21.84.37,2.7.12,3.47s-2,1.3-2.91,1.49l-5,1.1c2.14,1.72,2.3,4.73.33,6.06-3.72,2.51-7.19.69-10.2,2.44-1.47.85,5.48,1.04,5.1,6.03-.1,1.26-.17,2.67-.63,3.15s-1.99,1.08-2.68,1.17l-17.56,2.42c2.74,3.79,9.15-.81,11.29,4.05.88,1.99.32,5.33-1.66,5.59l-3.76.49c-1.64.21.78,6.4-3.75,6.96l-6.54.39c3.13,1.91,4.13,2.14,4.54,4.32.51,2.67-.76,3.93-3.6,5.51l2.76.57-.03,6.93-7.95.67-6.58.05-10.22.16-19.82.73-2.07-.04c-.46,0-1.04,1.31-.77,1.69,1.16,1.65,4.62.23,13.27.65l5.53.27c2.77-1.51,6.35-.51,8.98.63l15.6-.02ZM280.07,723.81c-.24-.61-1.9-1.61-2.43-1.24l-1.7,1.19,2.66,1.81c.37.25,1.63-1.35,1.47-1.77ZM304.36,650.23c.36-1.12-.12-4.13-1.11-4.04l-3.79.32c-3.16.26-5.32.63-6.31,4.42l4.91-1.24,6.3.55ZM311.37,776.4c1.02.39,2.36.26,2.02-.21l-1.29-1.79c-.26-.35-1.11,1.85-.73,2ZM317.51,605.04c-2.14.29-3.46.57-3.28.88.3.5,2.25,1.14,2.51.62l.77-1.49ZM322.7,779.16c-1.13-1.77-2.11-2.85-3.08-2.99-.83-.12-2.59.61-3.67,1.35l6.75,1.64ZM318.53,757.31l-2.12-.92c-.37-.16-.34,1.66-.08,1.97.97,1.16,5.25,1.41,5.47-.12l-3.27-.93ZM329.65,696.52c-1.89-2.42-4.47-1.61-5.51.28l5.51-.28ZM330.52,775.62c-.43-.54-1.84,1.38-1.25,1.62l2.08.83c.44.18-.25-1.72-.84-2.45ZM329.32,766.61c.21.4,1.39.84,1.75.56s.81-1.52.39-1.68l-1.84-.72c-.29-.11-.44,1.56-.3,1.83ZM334.9,755.68l-5.6,1.91c3.5.97,5.23.89,8.27.44-.47-1.16-2-2.58-2.68-2.35ZM333.89,798.42c-2.12.29-3.45.56-3.27.88.29.51,2.27,1.12,2.53.59l.74-1.47ZM333.27,669.95c-.32.02-.88,1.6-.53,1.6l2.24-.03c2.76-.04,6.07-.43,8.53-2.13l-10.23.56ZM338.62,695.73c-1.55-2.48-3.87-1.56-4.57.32l4.57-.32ZM348.75,753.64l-3.07,2.8,3.1.95-.03-3.74ZM355.37,549.38c-1.56-2.47-4.34-2.62-6.28-.27l6.28.27ZM371.02,666.75c-.88-.9-4.79-.18-5.07,1.32-.11.59,2.1,1.4,2.54.99l2.53-2.31ZM374.46,517.73c-2.7.79-3.3.91-3.64,1.46s.75,2.56,1.33,2.29l2.6-1.17-.29-2.58ZM377.44,780.22c-1.04-1.77-4.57-1.23-5.96.37l3.14,1.79c.72.41,3.2-1.42,2.82-2.16ZM379.31,573.41c-.76.32-3.04,1.86-3.79,1.33l-3.67-2.6c.55,5.03,5.51,4.81,9.74,4.55l9.09-.56c.72-.04,1.98-3.03,1.29-3.18-3.31-.68-6.86,1.79-12.67.46ZM381.52,665.96c-2.69-.04-4.45.4-6.22,1.52,2.5,1.19,4.86.17,6.22-1.52ZM395.42,515.74l-4.11-.49c-2.69,1.74-6,1.42-8.97.16-.44.26-1,.73-1.28.61l-1.32-.56-4.1,3.44c2.63,1.58,5.95,1.63,9.02,1.12l5.88-.99c3.17-.53,5.85-.68,9.13-.23l3.52-2.13-7.77-.92ZM379.8,812.77c.06-.79.13-3-.2-2.7l-1.37,1.24c-.22.2.35.84,1,1.6.28,1.27.51,1.11.57-.14ZM382.81,781.51c.06.65,2.55.16,2.14-.33l-1.52-1.82c-.3-.36-.69,1.37-.62,2.14ZM400.54,601.29c-4.09-2.08-7.57-2.45-11.5-2.27l-3.11.14c-1.4.06-1.18,6.48,14.61,2.13ZM386.62,813.1c.76.55,1.22.92,1.38.55s1.21-1.75.81-1.79l-2.01-.24c-.27-.03-.24,1.25-.19,1.48ZM388.7,557.83l-1.87-.27c-.31-.04-.43.85-.31,1.14s.98,1.12,1.29,1.08l8.22-1.17c-1.99-1.53-5.44-.52-7.32-.78ZM395.41,825.54l-1.63.44c-1.05.28,2.19,1.94,2.16,1.95,1.21-.79,2.31-2.23,1.77-2.43-.38-.14-.85-.35-1.17-.26l-1.13.3ZM397.87,572.76c-.13-.77-3.66-.5-3.39.24.34.95,1.46,1.98,1.98,1.69.4-.22,1.48-1.48,1.41-1.93ZM397.67,848.58l-2.09,2.96,2.04.17c.52.04.3-1.75.05-3.13ZM407.39,556.29l-6.82.99-1.92,1.92c5.84.41,10.56.74,15.97-.11-2.16-1.5-5.53-3-7.23-2.8ZM404.37,824.56l-5.26,1.24,3.38,1.67c.72.36,1.86-1.77,1.88-2.9ZM405.85,572.49l-6.05.11c2.99,1.38,4.58,1.47,6.05-.11ZM405.38,884.3c-.82-.91-2.32-1.91-2.75-1.46l-1.61,1.67,4.36-.2ZM406.87,570.84l-.69,1.9c-.11.31,1.36.8,1.74.77l22.37-2.15c-1.8-2.84-4.16-2.65-6.61-2.98-6.28-.83-5.23,5.19-16.8,2.46ZM415.37,510.95c-1.88-1-3.3-.87-4.96-.24l-3.73,1.43,5.38,1.86,3.31-3.06ZM408.4,543.66l2.28,1.02c.41.18.57-1.98.13-2.09l-1.51-.39c-.29-.08-1.15,1.35-.9,1.46ZM412.77,502.47c-2.06-.79-3-.08-3.22,1.06l3.22-1.06ZM418.53,501.97l-5.58,1.3c2.02,1.91,5.16.73,5.58-1.3ZM425.79,542.35l-9.81-.37.03,1.68,9.78-1.3ZM434.77,868.77l-8.9.36.06,1.11,9.63-.11c.35,0,1.51-.56,1.81-.74s-.08-1.35-.42-1.25-1.7.61-2.18.63ZM450.73,525.68c-3.57-.97-7.68-.84-10.72-.79l-6.15.1-8.08.77c2.16,2.48,4.46,1.92,7.41,1.8l13.22-.56c.86.87,2.14,1.76,2.88,1.52.68-.21,1.76-1.91,1.43-2.84ZM433.96,501.88c-2.45-.99-3.27-1.37-3.95-1.34s-1.81,1.86-1.38,2.39c.65.79,3.08,1.91,3.61,1.22l1.72-2.27ZM442.88,861.74c-.98-.55-4.31.06-4.59.81,1.13,2.11,4.73,1.71,4.59-.81ZM465.78,505.06c.28-1.23-.76-3.49-1.66-4.13-.85-.6-2.96.44-3.96.37-7-.48-13.75-1.64-20.74.37,4.79,2.44,9.52,1.29,14.24,1.39l6.78.14c1.22.03,2.98.94,5.34,1.85ZM447.79,861.51c-2.12.29-3.45.56-3.27.87.29.51,2.27,1.11,2.53.59l.74-1.47ZM507.63,858.67l-8.54-1.95c-2.21-.51-5.17.93-7.2,1.06l-31.54,1.99c-3.54.22-6.79-.3-10.17,2.21l4.86.37,12.49-.25,7.66-.32,21.76-1.55c3.5-.25,7.2,2.81,10.68-1.55ZM459.04,527.16l-3.27-1.7c-.55-.29-1.91,1.23-2.31,2.29,1.59.16,2.94.01,5.57-.6ZM488.61,881.45c-1.43-.14-3.29-.46-4.53-.38l-9.93.7-11.22.49c-2.04.09-3.61.43-4.37,2.72l10.67,1.07,13.26,1.38,11.43-2.18c1.42-.27,2.83-1.4,3.4-2.98l-8.72-.83ZM468.17,527.28l-1.5-.74c-.53-.26-2.57-1.31-2.7-.73s-.31,2.32-.23,2.91l.45,3.16c.07.5,2.17.22,2.47.04l-1.35-1.81c-.29-.39,3.88-2.32,2.86-2.83ZM518.44,891.8l-9.29-1.54c-6.2-.33-12.35.22-18.88,1.67l7.71,1.89c1.48.36,3.66-.12,5.3-.3l15.16-1.72ZM495.61,901.2c-.73-.03-2.5,2.26-1.82,2.46l2.57.76c1.09.32,3.92.27,4.76-.27-.5-1.87-2.62-2.81-5.51-2.95ZM510.76,866.36l-8.8.83.14,1.42,6.11-.93,2.11.11c.28.02.45-1.12.44-1.44ZM508.19,901.75c-.41-.07-1.33,1.64-.9,1.63l9.42-.26-8.52-1.37ZM517.58,896.98l-7.12.1c2.54,2.62,5.68,1.89,7.12-.1ZM535.35,911.68l-11.71-2.39-8.87-1.64c-.5-.09-1.82.03-2.27.11s-.49,1.59-.39,2.01l13.31,1.5c2.83,3.84,6.39.41,10.7,3.49l-.79-3.07ZM519.68,885.43c-2.51-.7-4.94-.73-7.25.47,4.39,1.49,7.96,1.4,11.82.81l-4.57-1.28Z"/>
        <path class="cls-2" d="M1074.48,508.72c2.46.19,5.32,1.52,7.51,1.2,3.54-.51,6.27.93,5.94,4.38-5.58-1.7-10.57-2.92-16.07-3.15l-8.68-.37c.53,2.79,2.69,3.52,5.09,3.38,2.72-.16,6.28,2.96,4.35,5.28-1.25,1.5-2.36,2.95-3.53,4.96-4.8,1.42-10.9.67-16.4.5l-14.28-.42-20.46.98c3.82,5.41,9.58,5.58,14.94,3.33l9.91.75,5.17-.87,8.41-.72c4.17,1.52,7.64-1.64,8.61-.56l2.24,2.49c2.72,3.02,7.44,3,10.99,2.99l5.48,1.23,1.86,1.81c.97.95,5.01-1.47,5.48-.06l.84,2.49c.25.75-2.29,1.22-3.22,1.23l-11.71.09-14.69.68c.55,1.89,1.82,2.99,3.4,3.39,5.09-.36,9.17.56,13.63,2.16,3.63-1.6,7.95-.14,9.59,3.25-2.93,1.06-4.32,1.57-6.66,3.65l5.32,1.29c.25.55.27,2.68-.37,3.17s-2.32.9-3.25.94l-12.57.6-6.84-.59c.15-1.25.34-2.35-.16-2.35l-3.16.05c-.64.01-.27,2.65.06,3.21,2.46,4.13,10.58-.64,11.64,1.91l1.83,4.42,6.78.56c.29,1.09.57,3.72.61,5.38l-5.62-.22-8.78.36,4.96,2.25c1.04,2.15-.11,6.94-2.07,7.91l-11.35,1.6,6.03,3.6c3.95-1.13,9.35-1.38,11.69,2.39l-.34,2.25c-.11.71,5.91,3.66,3.63,5.14-4.72,3.06-10.33,3.4-8.85,6.21.37.7,1.88,1.83,2.66,2l8.91,1.89c.9.19.42,3.21-.43,3.54-1.25.5-3.04.22-4.49-.64l-10.3.62-11.78-.38c-.75-.02-2.19,1.04-2.74,1.75l17.37,1.11,6.21.62c.56,1.3,1.07,4.15,1.17,6.38-5.14,1.6-9.27,1.73-15.35,1.72l1.78,5.97c.86.22,2.24.42,2.39.89l.92,2.87c1.32-2.21,3.26-2.67,6.25-2.55,2.04.08,4.06.19,4.08,3.16l-20.18.71-2.93-.03c-.66,0-.77,2.31-.47,2.55l5.51,1.4c6.73-1,18.81,1.5,20.51,3.59,2.02,2.49-3.57,3.32-5.81,7.49l-11.34.64-6.53.13-18.91-.83-5.8-.05-13.2.59,8.74,1.79,8.48,1.03,16.81.4,6.46.5,9.53.4-1.14,5.21,11.93,1.41c.92.11,1.23,3.51.43,3.87-3.58,1.58-19.7-2.37-30.88-.66l9.95,1.17,6.47.76-1,1.89c-.21.4.2.69,1.07,2.23l-12.99-.3-11.61-.24h-7.53c-.59-.01-1.73.17-2.22.35-.64.23.88,1.88,1.63,1.96l8.07.86,15.92,1.45c2.14.19,2.75.38,4.89-.17,3.33-.85,7.13-.15,10.55.69l-2.03,3.83-36.84-.41-15.44.57c-.04.1,1.5,1.37,2.09,1.39l18.86.48,13.38.33,7.07.51-2,6.1c2.99-.36,6.83-.62,9.61-.4l.27,4.05c.06.9-2.2,1.21-3.14,1.15l-6.67-.47c-1.21-.09-3.85.3-3.98.75,1.15,1.6,2.29,3.18,2.14,4.24s-2.71,2.13-3.83,2.08l-11.75-.55-10.78.57.66,1.25c6.53.39,13.6,1.47,20.55.59l9.53-1.21c1.39-.18,3.51,1.13,3.85,2.31.31,1.08-1.22,3.64-2.37,3.63l-17.33-.08c-.59,0-1.85.31-2.34.51s.03,2.59.5,2.82c2.21,1.08,7.16.56,9.81.51,5.48,2.38,10.81-.08,11.43,2.69l.61,2.74c.11.5,1.14.74,2.28,1.24l-6.42,3.45-7.94,1.29c-3.62.59-8.94-.21-12.05,1.79-1.82,1.17-2.75,1.71-4.7,1.73l-24.5.33c2.38,3.63,6.57.45,8.55.98,2.97,1.7,3.85,1.9,7.05,1.76l9.85-.4c.99-.04,1.78,2.54,1.57,3.63s-2.01,2.83-3.18,2.87l-8.75.3c3.12,2.79,6.45.93,9.67.99l7.41,1.53c-.86,5.47-3.79,6.37-8.02,6.6l-15.25.83.42,6.44c1.53,1.53,1.87,2.73,1.44,4.51-.49,2.03-2.38,3-4.52,3.24l-14.08,1.52,6.92,1.51c.89.7.08,4.12-1.17,5.22l-12.76.18,1,5.33c2.26,1.3,2.9,2.45,2.76,4.83-.09,1.53-2.17,4.12-4.05,4.27l-8.01.62-10.69.63-8.27.6-13.17.12-2.06.69c-.39.13.65,1.69,1.09,1.68l11.45-.18,8.54-.38h8.37c1.76,0,5.24-1.2,7.16-.22,1.14.58,1.8,4.15,1.36,5.25l-8.31,1.75-1.81,5.69c-2.69.16-4.37,1.48-4.6,4.26-.42,5.08-6.04,2.16-7.96,4.84,1.61,1.74,2.65,3.11,2.81,4.84.12,1.31-2.01,3.4-3.46,3.7l-9.33,1.9,7.77,1.16c.62,1.07.42,4.24-.54,4.62-4.45.4-9.03,1.18-13.22,2.38l-.54,4.74-7.39-.41-11.19-.63-11.56-.58-13.89.03-7.44-.08-1.98-.21c-.38-.04-.88,1.3-.52,1.43l2.38.88,2.12,1.08c.53.27-.42,1.22-1.44,2.86l7.52.81c-.29-1.03-.41-1.61-.67-1.6l-1.83.08-1.44.06c-.28.01-.55-.59-.59-.87-.06-.42,1.17-1.52,1.59-1.52l7.06-.02,7.05.5,7.67-.48c1.22.38,2.75.48,3.88.18,3.08,1.29,5.98.68,9.36.96l11.55.94c.92.08,2.44.86,2.99,1.47.65.74.05,3.72-.95,3.87l-13.86-1.56-.1,4.24-13.57-.41-6.69-.26-7.95-.76c-.42-.04-1.82.33-2.2.52-.51.25.34,1.53.9,2.48l6.24-.2c3.24,1.04,6.83.9,10.43.76,3.08,3.38,3.92-.02,10.71.45l5.5.39c.36.71-.19,3.22-1.01,3.75s-2.96.57-4.18.44l-19.61-1.96-7.61-.68-18.75-1.11c-1.48-.09-3.26-.24-4.76-.59l-21.02,2.41c6.31,1.62,12.43,1.23,19.12,1.49l9.27.36,13.4,2.02c3.02-1.06,6.57-.78,10.24.3,3.45-.38,6.63-.22,10.16.83l-3.3,10.03c-1.41,4.29-7.78,3.53-11.22,3.02l-6.62-.99c-.62-.09-2.26.56-2.29,1.18-.14,2.29,4.99,2.19,4.57,4.08-.27,1.22-.95,3.24-1.78,3.78s-3.11.6-4.39.63l-17.88.45-15.79.19c-.61.34-1.11.62-1.17.64-.04.02.36.81.4.92.03.07,1.21-.24,1.51-.34,7.26,2.57,14.91,4.52,22.87,5.8.98,2.03.82,6.15-.21,8.15-.49.95-3.3,1.57-4.41,1.46l-7.04-.74c-2.35-.25-4.84.56-6.6,1.84l-16.94-.04c3.18,1.79,6.1,1.67,9.12,2.23l10.46,1.96c4.3.81,8.5,1.61,8.43,4.93-.01.63-1.83,1.53-2.65,1.44l-14.6-1.64-8.27-.59c-.62-.04-.57,2.67.05,2.6l2.99-.34,6.01,2.55c1.55.65,3.17,3.27,3.12,5.13-.06,2.02-2.47,3.87-4.51,4.41l-7.16,1.9c-3.9,1.03-10.46-3-14.9.2l-14.79-2.39-8.98-1.76-27.3-3.12-10.15-1.61c-.78-.81-1.51-1.55-1-1.03l2.73-2.13c.54-.42-1.28-1.62-1.97-1.82l-7.66-2.18-5.87-.85c-1.93-.28-4.35-.95-6.06-1.58-1.21.17-3.23.28-4.86-.13l-15.98-4.09,1.31-3.3c.3-.75,2.63-.67,3.47-.56l16.09,2.08,1.69.12c.34.02.75-.93.61-1.24-.2-.46-1.26-1.22-1.9-1.32l-16.2-2.53c.33-2.28,2.99-4.29,4.26-3.69l3.41,1.61c.73.34,2.41-.88,3.05-1.53,1.85-1.9,4.15-1.31,6.3-1.7,6.48-1.15,12.88-1.53,19.5-.05l.11,2.75-7.87,1.14,13.44,1.74,9.35.6,12.98.97,17.57,1.73c1.28-.21,1.53-.5.06-.62l-6.9-3.38c1.38-2.19.03-1.62-.69-1.01-.83.76-2.25,2.08-2.98,1.8l-3.27-1.22-2.3.77-2.96-1.67c-.66-.38-2.25,1.07-2.83,1.34l-1.71-3.23-.08,1.89-1.06.36-18.78-.7.57-4.19-9.75-1.35-10.98-1.53c-.73-.1-2.83-.28-2.85-.98l-.11-4-6.18-.69c-.82-.09-2.53-1.89-2.51-2.73s1.27-1.88,2.18-2.53l7.86-.58,3.24,1.92c2.39-4.49,5.93-6.68,10.34-6.96l7.14-.46,6.91-.83,7.48.02c-1.81-2.45-4.47-2.96-7.37-3.72-1.26-1.95.51-7.76,3.24-8.47,2.57-.66,5.01-.57,8.19-.61l1.54-5.59,11.52-.65-3.1-1.9-.25-4.13,9.73-2.64c1.82-.49,5.06-.26,6.63-1.67l1.29-1.16c.57-.51-5.21-.28-5.41-7.54-.03-1.2,2.42-3.2,3.85-3.43,1.3-.2,3.16.76,5.26,1.21,1.93.33,2.88-4.93,1.7-6.06l-3.73.71,6.37-5.55.74,2.85,1.04-3.2c.1-.05,1.27-.29,1.27-.31-.01-.05-.11.78-.32,2.14l25.63-4.43-3.72-1.16-.65-3.3c-.17-.86-2.96-1.4-3.5-.7l-2.39,3.12c-2.15-2.19-2.72-2.71-4.45-3.94l2.89-2.88,2.08-1.68c.57-.46-.06-2.21-.15-3.08-.48-4.39,5.29-3.54,7.04-5s3.56-5.7,6.66-4.68c2.37.78,8.8-3.53,11.24-9.28.53.69.19,2.81-.34,4.11l8.84-1.94-2.88-6.01,3.13-4.36c.29,1.03.58,2.72,1.06,2.62l3.07-.58,3.08.16,2.6-2.01c6.69-.1,16.11.72,23-1.82-5.79.07-12.2.41-17.88-1.32-.9-2.46,1.12-4.49,4.03-6.2-1.41-.48-2.81-.51-5.19-.3l-.88-2.38c-.3-.81,1.36-2.67,2.2-3.08l6.15-3.02c1.17-.87,1.73-.67.8,1.47,5.6,1.91,5.48-8.79,14.96-5.73l2.63-1.61c.68-.41,1.98,1.41,2.29,2.28.98-.79,3.53-2.13,5.17-2.08l9.61.26,2.43,1.1,2.35-1.18,5.41.23c2.95.12,5.56.21,6.94-2.6l-6.85-.3-6.09.49c-4.84.39-10.1.24-14.56-.69.37-2.22.55-3.98.22-4.33l-9.12-1.45c-.76-1.65-.04-5.12,1.43-6.65,1.19-1.23,4.4-1.34,6.23-1.71l5.09-7.17c5.45.54,9.06.56,14.04-1.29-3.53-2.78-8.31-1.02-9.33-2.54-1.54-2.31,2.42-4.48,2.06-10.78l-.28-4.73,1.01-.6c.21-.13.99-.3.91-.07l-.64,1.97c.99.44,4.04-.29,4.52-1.34l1.4-6.53-1.82-2.52c-.53-.74.73-2.62,1.63-3.15,2.69-1.57,3.47-3.59,4.68-6.56.74-1.82,5.21-2.13,7.8-1.86,1.29-.82,1.68-1.48.18-1.05-3.11-.18-6.79-.98-9.24-2.09.04-3.9,2.39-5.13,6.22-5.62l-1.32-1.54c-.35-.58-1.03-2.31-1.16-3.15-.15-.98,2.01-2.36,3.1-2.48,6.86-.72,9.5,1.61,11.2-.81l-7.55-1.96.92-4.47-5.17,1.13-1.19-3.38c-.36-1.03-6.6-.67-5.91-1.84.27-.46,1.24-2.09,1.69-2.39,1.6-1.07,5.41-.48,7.88.09l-.7-3.05c-.17-.73.49-1.57,1.94-3.09l-.65-.86c-6.26,1.7-9.48-1-8.55-2.24l1.33-1.79,19.46-2.01,1.16-5.07c-1.63.33-2.56,1.6-3.05,4.06l-11.67-.09c-3.3,1.17-7.64,1.52-9.31-3.49l11.71-2.46c4.09-.86,6.48,3.97,7.53,1.87l.87-1.75c.29-.58-2.03-1.37-2.76-1.29-2.17.22-5.24-.26-5.26-3.72l-5.96-1.19c-.62-.12-1.49-2.22-1.06-2.71l2.22-2.52c.43-.54.6-2.7.54-3.43-.18-2.02-6.43-.47-6.85-2.24l-.96-4.04c-.34-1.38-4.23-.13-5.06.82l-2.02-1.76c-.93-.81-2.78,1.36-5.45-.38-.56-.37-.18-2.46.51-2.46l5.9.03-1.18-7.96c-.07-.5-2.38-1.27-2.04-1.64l1.58-1.72c.35-.38,1.21.92,1.32,1.51l1.29,6.78c.73,2.46.98,3.01,4.5,3.66.62-.18,1.78-2.12,2.38-3.86l12.84-.25c.92-2.77,2.09-5.57,3.31-7.6l12.94.05,12.01.43c.47.02,1.93-.19,1.76-.5l-.85-1.58-12.39-.34-6.41.02h-6.76c-3.27-.02-7.68-.64-10.3-1.87-1.05-.5-.92-3.63-.24-4.39.83-.95,2.78-1.82,4.12-1.68l9.1.93c1.57.16,4.82-.66,6.67-1.16-2.64-2.33-5.76-.6-8.24-.71l-6.87-.3c-1.58-.07-5.02-1.61-5.28-3.19s.73-4.55,1.29-6.24l-4.18-1.6c-1.02-.39-.29-3.24.3-4.94l-5.66-1.06,1.53-7.63-10.04.12c-.27,0-1.53-.2-1.38-.42l.87-1.27c1.85-.96,3.25-2.1,4.11-3.64l-4.03-1.33c-.9-.3-1.14-2.83-1.34-3.81l-.47-2.34c-.09-.44-4.5,1.41-5.98-.59-.57-.76-.44-2.63-.39-3.64l-4.05-1.96c-.94-.45.64-3.39.78-4.18-.56-1.47-1.33-4-1.1-5.71.35-2.65,5.67-.8,6.78-3.54.26-.64-.67-2.99-1.32-3.01l-10.37-.18c-2.41-.04-4.8-1.38-7.48-2.42l-1.31,5.22c.02-3.75-.57-6.71-4.43-8.23l.49,5.61-3.8-6.33,2.08-.8.75-2.67c.1-.36,4.61.2,4.49.57l-.87,2.66s1.14.74,1.59,1.02l8.31-3.18,2.7.11c.71.03,1.57-2.07,1.39-2.55-2.83.31-6.77.68-9.01.24-.78-.15-1.93-2.7-1.43-3.31s1.9-.93,2.84-.91l6.43.08,6.12.31,13.65-1.3c3.48-.33,7.4-3.36,10.4-.34l4.31-1.43c2.66-.88,5.03-.9,7.95-1.16l16.82-1.54,4.11,1c.12-1.54.27-2.62-.12-2.59l-2.06.16-9.85-.15-14.35.08c-8,.05-15.4.72-23.45,1.51l-17.8,1.76c-.09-1.85-.69-4.43-1.53-4.83-2.75.92-5.94,1.95-8.11,2.18-1.03.11-2.56-3.1-1.85-3.58l12.43-2.64,6.55-3.08,1.43-.63c.25-.11-1.04-.97-1.31-.96l-7.98.27-6.95.61-.19-1.48,7.74-1.78.13-1.31c.03-.26-.97-.42-1.23-.4l-7.23.39-12.17.76c-.34.02-1-1.79-.72-1.82l12.22-1.17,4.42-.7,8.26-.08,16.8-.31h10.1s11.66-.34,11.66-.34l5.85-.28,6.24-.42,17.19-1.8,8.52-.09,8.88-.27,9.82-.35,6.41.03,7.85-.22,16.61-.32c.53-.01,1.58,1.72,1.33,2.16s-1.29,1.14-1.82,1.17l-8.83.55-10.19-.62-6.88.52-15.3.55c-.66.02-1.26,2.03-.52,2.08l19.55,1.33,8.21-.17,21.27.62c1.79,1.83,3.32,3.53,7.19,2.24l.26,5.7-6.79.14-5.49-.16c-.36-.01-1.37,1.61-1,1.66l1.88.26c2.71.37,6.4-.57,6.56,3.64l6.17,2.13,1.32,2.1-8.88-1.64c-2.9-.54-6.84-.47-9.55-.38l6.25,3.61c-4.79,4.31-11.85-.4-18,4.67l10.91.26c2.41.73,4.38.64,7.07.84l9.23.71ZM767.51,892.17c-.17.2-.8.93-.82.96.04-.05,1.86,2.51,2.45,1.78.16-.2.76-1,.85-.97-.47-.11-1.75-2.59-2.47-1.76ZM787.17,894.63l-13.41-1.23,3.37,1.43c3.39,1.44,7.42,2.81,10.04-.2ZM805.68,865.34l-24.45,1.61,28.03,2.7c.35-.77.45-2.31.24-3.06s-2.61-1.33-3.82-1.25ZM797.81,878.55c-.64-.76-1.66-1.8-1.96-1.46l-1.34,1.55,3.3-.09ZM839.02,896.2l-6.16-1.39-14.43-1.72-8.06-.74c-.71-.07-2.08,1.02-2.05,1.54.02.35.34,1.11.68,1.09l1.83-.14c2.14-.16,5.78.14,7.93.59l6.76,1.42,5,.27,16.24,1.84c-2.82-1.24-4.81-2.1-7.75-2.76ZM837.25,871.57c-.31-1.64-.63-2.81-1-2.79l-8.14.47-17.33-.23c1.74,1.06,3.01,1.14,4.94,1.27l12.27.84,9.25.45ZM849.3,843.01l-1.26-2.39c2.25-1.07,4-.85,6.23-.11l6.77-1.65-21.38-1.44c-2.77-.19-4.62.38-6.19,2.73-.7-1.12-1.67-2.72-2.51-2.58l-3.93.64c-2.33.38-5.6-.19-6.49,2.54l8.41-.19c1.67-.04,3.21.23,4.86.77-.05.05,1.72-1.35,2.04-.91l1.78,2.46,1.79-1.98,7.62-.98c-1.58,1.32-2.91,1.76-6.4,3.24l8.64-.13ZM836.44,827.91c-.04.5,2.54.29,2.38-.19l-.6-1.89c-.15-.49-1.59-.23-1.64.27l-.15,1.81ZM868.39,820.32c-4.25-.54-5.72-.97-7.58-3.08l-17.88,2.66-3.03.5c-.51.08-.21,2.11-.01,2.74,5.71-2.35,11.9-2.73,17.87-1.86.43.71,1.2,1.92,1.67,1.66l2.21-1.21c1.4.46,3.09,1.01,4.11.97.88-.04,2.86-2.12,2.64-2.39ZM856.88,857.51c-.05-.44-1.55-1.37-1.93-1.14l-1.16.7,1.95,2.03c.31.32,1.19-1.15,1.14-1.59ZM858.73,903.92c.13,1.23.32,2.9.28,2.55-.03-.23-1.12-.42-1.91-.6-.1,0,.12,1.18.54,1.18h1.65s9.63.87,9.63.87c-2.4-3.83-7.08-4.64-10.19-4ZM863.49,845.04l2.37-.14c.32-.02-.14-1.34-.46-1.34l-1.6-.05c-.32,0-.63,1.55-.31,1.53ZM885.39,881.79l-8.85-.74-8.56-.23c-1.42.78-1.34,1.1-.05.93l8.82,1.39,6.85.72c.87.09,1.8.1,2.26-.16.35-.2-.1-1.88-.47-1.92ZM890,814.84c-2.48-.05-4.49.14-6.13.66,1.67,2.31,4.46,2.61,6.13-.66ZM885.14,830.45c.55.29,2.78-1.83,2.16-1.92l-1.93-.3c-.46-.07-.65,2.01-.24,2.23ZM904.84,781.56l-4.72.63-10.05.13c-.32.56.29,2.44.86,2.29l2.28-.61c6.72-1.78,14.35,1.87,23.73-2.19-3.99-1.01-7.81-.83-12.11-.25ZM897.67,830.4c-1.16-.72-3.6-1.61-4.77-1.49-.87.09-1.98,1.6-2.54,2.61l7.31-1.12ZM902.03,805.81c-2.75-1.21-5.11-1.6-7.3-1.39,1.32,3.18,4.9,3.69,7.3,1.39ZM905.87,806.55c-.58-.83-1.47-1.83-1.81-1.55l-1.87,1.52,3.69.03ZM919.46,770.94c2.2.31,3.58-3.84,2.06-5l-19.41,1.84c6.02,4.36,9.59,2.08,17.35,3.16ZM919.9,798.88l-11.74-1.68c-.43-.06-1.82.68-2.22.84-.27.11,1.15.86,1.44.93l6.24,1.53,6.28-1.62ZM910.21,794.81c-1.11-2.26-3.21-1.08-3.27.36l3.27-.36ZM918.41,811.49c-2.51-2.48-5.08-2.44-7.29-.15l7.29.15ZM916.98,817.76c-1.67-2.4-3.2-1.07-3.59.37l3.59-.37ZM923.26,817.13c-2.09-.81-2.99-.11-3.25,1.07l3.25-1.07ZM929.44,811.3c-1.88-2.57-4.49-1.73-5.48.27l5.48-.27ZM930.57,756.55l.26,5.23,3.86-4.96-4.12-.27ZM935.32,760.35l-3.18,2.5c.1.21,2.26.63,2.42.08l.76-2.58ZM950.58,492.56l-13.77,1.42c-1.25.13-1.52-.03-3.09,1.21l10.85-.5c2.28-.1,4.85.23,6.01-2.13ZM945.59,757.95c1,.08,1.95.26,2.1-.12l.84-1.99c-2.07-.13-4.91.33-6.93,1.01l-3.05-1.21c-.56-.22-1.34,1.87-1.1,2.31l5.92.59-.24,2.2,2.46-2.78ZM939.19,491.91l2.53-.57c.47-.1.17-1.8-.3-1.79l-2.28.05c-.48.01-.41,2.4.05,2.3ZM990.65,510.27c-5.22-1.33-12.13-1.68-18.36-.74l-6.41-1.21-6.34-.7-5.26.59-8.08,1.17c-.78.11-2.81-.33-3.17.27l-1.79,2.96,7.64-.32c3.5-.14,9.67.43,13.1.74.92.08,2.77-2.26,3.59-1.96l2.76,1.02,11.28-.1,6.5-.02c.92,0,2.73-.89,4.54-1.7ZM949.81,488.89l-4.91.14c1.23,2.2,3.71,2.38,4.91-.14ZM960.01,765.47l-10.9,1.98,5.4.63c2.41.28,4.62.48,5.5-2.6ZM971.44,727.52c-1.34-.63-2.34-.09-3.62-.06l-14.11.3h-2.42c-.45,0-.42,2.12.03,2.16l1.93.14,11.49.22c5.21.1,12.97,1.83,19.31-2.15l-12.61-.61ZM956.3,488.48c-2.43-1.32-5.26-.71-5.24,2.82l5.24-2.82ZM959.59,743.2c-1.67-2.4-3.2-1.07-3.59.37l3.59-.37ZM1024.72,487.57c-.23-1-1.25-2.83-1.88-2.63l-2.67.85-12.47-.49-24.11.44-7.15.31c-6.48.28-12.57.12-19.13,2.07,6.65,1.92,13.23.61,19.64-.32,1.44.34,3.49.54,5.17.5l7.4-.18,15.84-.59,4.85.03,14.5.02ZM974.06,766.37l-.45-1.63-11.12,1.07.03,1.37,11.53-.81ZM971.13,788.86l-5.41.91c1.95.85,3.81,1.23,5.41-.91ZM972.05,737.05c-.24-.57-2.78-1.07-2.91-.47l-.68,3.28c1.2.76,4.45-.78,3.59-2.81ZM978.19,707.72c-4.03-.46-5.67-.43-8.75.74l4.39,1.55c1.23.44,3.5-.79,4.36-2.29ZM976.6,644.86l-2.3-.52c-.48-.11-.87.66-1.26,1.88l3.56-1.36ZM977.1,543.11l-2.67-1.15c-.33-.14-.78,1.22-.45,1.34l1.81.65,1.3-.84ZM983.21,734.23c-.83-.64-1.87-1.18-2.5-.84-.58.31-1.77,1.32-2.05,1.68l4.55-.84ZM995.57,683.96l-13.66.91c-.61.04-2.38-1.62-2.49-1.03-.08.43-.69,2.34-.25,2.36l7.91.36c4.35.2,8.13-.1,12.39-.88-.47-1.11-.82-1.99-1.31-1.94l-2.58.23ZM982.99,645.03c-.61-.74-1.66-1.8-1.95-1.46l-1.34,1.56,3.29-.1ZM990.5,528.19l-9.41-.18-1.51,1.65,9.39.15,1.52-1.63ZM994.39,722.03l-7.77,1.45c-2.16-.3-3.15-.46-4.68,1.12l5.45,1.56c4.81-2.46,7.09.69,8.85-2.03.37-.58-1.1-2.24-1.85-2.1ZM1028.21,641.44l-16.14-.12-13.07,1.18c-2.8.25-4.87.92-7.61,1.01l-1.37.38c-.31.09-1.29-1-1.61-1.03-1.08-.1-3.12,1.22-4.08,2.81l11.47-.77,9.65-.77,18.45-.77c4.74-.2,6.58,2.22,7.49-.12.17-.44-.29-1.7-.76-1.72l-2.42-.07ZM997.03,660.75l-8.76.47c-.38.02-1.3.66-1.62.87s1.15,1.09,1.52,1.03c6.77-1.13,8.85.9,11.77-.5.45-.22.29-2.05-.2-2.02l-2.72.15ZM1027.94,575.46c2.39-.04,4.05-.08,5.4-2.86l-19.7-.93-8.94-.2-11.1,1.06c-1.82.17-2.9.44-4.08,2.11h7.27s5.01.74,5.01.74l7.91.44-2.73,5.72c1.46-.61,2.54-2.21,3.38-4.49l12.14-1.48,5.43-.08ZM991.32,670.51l2.36-.13c.32-.02-.14-1.34-.46-1.35l-1.6-.04c-.32,0-.64,1.54-.3,1.52ZM999.26,528.88c-3.15-1.81-5.29-2.75-7.93-.25l7.93.25ZM994.33,655.23c.71.45,2.33-1.55,1.66-1.79l-1.83-.68c-.45-.17-.26,2.2.17,2.47ZM993.79,578.97l2.36.49c.44.09.82-1.26.41-1.48l-1.59-.86c-.4-.21-1.6,1.75-1.18,1.84ZM998.5,648.33c-.87-1.1-3.53-.63-3.88.84.91.24,3.14-.19,3.88-.84ZM996.22,709.03l2.38-.14c.32-.02-.14-1.34-.46-1.34l-1.6-.05c-.32,0-.64,1.55-.32,1.53ZM1015.71,707.54l-9.93-.36c-1.65-.06-4.74.56-6.45,1,15.79,4.67,21.87-.45,16.38-.64ZM1002.45,669.52l-2.25-.15c-.27-.02-.58.81-.81,1.35l6.07-.27c-.83-1.2-1.05-1.51-1.36-1.42l-1.65.49ZM1002.7,577.79l-2.32.06c-.45.01.05,2.23.5,2.21l2.39-.08c.44-.02-.14-2.19-.57-2.18ZM1004.1,510.62l-4.49,1.01,3.32,1c.55.17,1.17-1.49,1.17-2.02ZM1003.82,660.52c-.59-.12-2.84.87-3.23,1.3l5.27,1.76c.56.19,1.67-2.29,1.11-2.41l-3.15-.65ZM1006.74,635.17c-.42-.5-3.34-.45-3.32.05.25,1.46,3.32,1.4,3.32-.05ZM1007.6,527.78c-2.04-.49-3.48-.3-3.63.36l-.61,2.75,4.24-3.11ZM1008.45,723.7c-.82-.91-2.32-1.91-2.76-1.46l-1.61,1.66,4.36-.2ZM1022.16,672.06l-9.99-2.99-5.94.61c1.56,3.27,4.19,2.02,6.77,2.29l6.69.71c.63.07,2.03-.25,2.47-.62ZM1007.31,496.98c.6.08,2.26-.55,2.39-1.05.09-.33-.44-1.48-.77-1.39l-1.87.48c-.33.08-.09,1.92.25,1.97ZM1010.7,688.62c-2.12.29-3.45.56-3.27.87.29.51,2.27,1.12,2.53.6l.75-1.47ZM1012.7,588.39c-1.9-.15-4.24.1-5.4,2.4l6.24-1.66-.85-.74ZM1013.47,553.45c-2.49-.1-4.22.53-4.12,1.39.06.56,2.01,1.16,2.38.72l1.75-2.11ZM1011.75,497.61c.79.73,1.67.92,1.95.4.21-.4,1.69-1.55,1.24-1.65l-2.2-.48c-.44-.1-1.3,1.45-.99,1.73ZM1016.09,557.25l-2.86-.33c-.43-.05-.74,1.84-.31,1.88l2.91.28c.47.04.48-1.58.26-1.83ZM1017.01,689.56c-.18-.57-1.78-2.12-2.18-1.62l-1.55,1.95c-.53.66,2.76.25,3.73-.32ZM1013.36,588.29c.14.54.19.67.33.75l3.57,2.08c1.51-3.55,2.02-3.99,4.27-5.77-2.09-.27-3.88,1.16-5.27,3.07l-.66-1.76c-.12-.33-.58,0-.98.38l-1.25,1.24ZM1019.44,576.65l-5.03,4.49c3.03.54,5.67-.88,5.03-4.49ZM1024.77,553.18l-9.1.03.95,3.54c6.44-3.28,9.68-.99,10.65-2.96.14-.28-.04-1.27-.33-1.19s-1.85.58-2.16.58ZM1022.46,496.96l-5.99.26,3.78,1.55c.59.24,1.59-.95,2.21-1.81ZM1026.04,690.03c-2.39-1.4-6-3.47-9.33-.1,3.35.81,6.75,1.24,9.55,1.17l-.22-1.07ZM1025.14,508.61l-5.45-.04c.74.86,2.34,2.05,3.01,1.62l2.44-1.58ZM1034.41,579.53l-12.62-.45-.36,2.59c-.06.43.88.03,1.29-.2l1.19-.68c3.5.62,7.66,1.85,10.49-1.26ZM1026.42,689.52l.6.87c1.87,1.38,4.13,1.81,6.37.22,3.27,1.25,6.89,1.68,10.48-.71l-5.77-.81-9.14-.12c-.72,0-2.18.34-2.54.56ZM1029.55,605.04c-2.13.29-3.46.57-3.28.88.3.5,2.26,1.13,2.52.6l.76-1.48ZM1030.31,682.09c-.71-.14-2.27.37-2.78.72-.38.27.09,1.7.3,1.8l10.87-.9-8.39-1.62ZM1030.5,555.96l-2.75,2.27,3.32-.26c.46-.04-.23-2.17-.57-2.01ZM1036,661.36c-2.2-2.58-5.1-1.86-6.37.25l6.37-.25ZM1042.58,509.6l-8.8-.99-2.6,1.2,8.9.59,1.91.13c.28.02.83-1.25.59-.92ZM1035.59,605.53l-2.3-.52c-.49-.11-.87.66-1.25,1.88l3.55-1.36ZM1039.58,499.28l-.44-.73-7.01.18.44.73,7.02-.18ZM1041.94,487.02c-3.36-2.24-6.59-1.34-9.85-.03l9.85.03ZM1040.12,571.57c-1.96,1-2.67,1.61-3.13,1.29l-1.9-1.29c-.8-.09-.66,3.75.37,4.03,2.18.41,6.56-.18,8.26-1.1l-3.57-1.06c-.6-.18.11-2.05-.01-1.86ZM1037.43,581.32c.1.48,1.57-.64,1.4-1.11l-.49-1.31c-.12-.31-1.38.14-1.31.46l.4,1.95ZM1051.8,683.25l-8.7.18c-1.19.02-3.18-.78-3.88.7l13.24,1.3c.62-.04,2.25-1.65,1.66-1.8-.47-.12-1.85-.39-2.33-.38ZM1046.14,661.48l-.45-.7-4.56.22.45.7,4.56-.22ZM1046.11,556.08l-3.36,2.15,2.55-.12c.49-.02.8-1.6.81-2.03ZM1046.2,634.46l2.38-.13c.32-.02-.14-1.34-.46-1.35l-1.6-.04c-.32,0-.64,1.54-.32,1.53ZM1046.78,713.73l1.09,1.76,11.02-2.14c-6.57-3.34-13.35-1.62-12.12.38ZM1051.76,500.16c-.29-.27-.32,1.75-.03,2.02,1.38.38,2.49.64,2.53.11l.12-1.68c.02-.35-.91-.36-2.62-.46ZM1056.17,622.31c-.04.49,2.22,1.16,2.39.7l.71-1.86c.17-.44-1.58-.73-2-.49s-1.06,1.16-1.1,1.64Z"/>
        <path class="cls-2" d="M769.84,1170.42l-1.54,20.52-.73,21.34.86,24.35,1.71,18.67c.43,4.73,1.3,9.3,2.63,13.36l-4.09,4.1c-1.29-.15-3.36-2.35-3.62-3.89l-2.31-13.79-1.54.22c-.37.05-.86-.68-1-1.03s.82-.63,2.14-1.05l-.4-6.16-.87-13.46c-.82-12.73-.87-24.97-.04-37.68l1.49-22.88,4.53-26.05,5.05-20.34,4.59-20.01,5.88-19.55-25.35-.87-54.03-.74h-36.28s-35.42-.53-35.42-.53l-35.54-.13c-1.04,0-2.66-.66-3.35-1.19s.13-3.58,1-3.56l21.71.57,39.97-.1,47.78.32,19.64.05,15.91.19,23.37.65,16.13.5c1.46.05,4,1.45,4.72,2.31l4.06-12.7,6.82-18.69,4.46-17.68,15.51-35.17c1.59-3.61,4.71-7.99,7.18-10.56,1.09-.32,3.55,1.26,3.76,2.26.26,1.28-.83,3-1.69,4.57-8.11,14.98-15.02,30.51-20.01,46.96l-3.47,13.92-4.65,12.65-5.53,18.19-2.42,9.15-8.02,30.67-5.05,20.79-3.94,21.5Z"/>
        <path class="cls-2" d="M583.06,1263.54c.16,1.59-.4,3.81-1.08,4.51-.8.82-3.74.86-4.66-.13-1.81-11.6-1.77-24.18-1-36.02l1.7-26.2,2.02-23.7,1.19-16.03c.91-12.27,1.37-24.27-.13-36.56l-3.06-25.03-1.18-6.62-.87-4.73c-1.26-2.6-1.24-3.35-1.25-6.19-.01-7.24-3.05-14.46-4.95-21.34l-1.64-5.96-3.22-11.6-4.66-12.52-2.27-5.93c-3.91-10.23-7.76-19.86-13.6-29.19l-6.18-11.96-4.99-4.25,2.51-1.52c.56-.34.43-1.66.57-2.5,1.29,2.11,1.94,3.29,3.42,4.44,7.15,5.5,6.1,12.01,11.95,16.63-.16.43-.58,2.27-.21,2.2l2.17-.4-.76,2.35c-.13.41,1.55.2,1.52.21.89,3.45,2.47,5.52,3.8,8.85l3.95,9.88c5.34,13.39,10.71,26.4,14.16,40.48,3.11,12.7,6.36,24.9,7.96,37.7l2.45,19.6c3.35,26.86.36,47.77-1.84,73.85l-1.24,14.66-1.14,21.18c-.58,10.66-.56,20.55.57,31.83Z"/>
        <path class="cls-2" d="M661.59,905.56l-1.04-5.86c-1.06.56-2.87,2.37-3.95,3.88-.6.83-2.24-.61-3.45-1.41-6.78-4.5-15.38,1.03-24.52-1.87l-.8,8.44c-.08.85-1.25,2.23-1.89,2.6s-2.94-.51-2.9-1.24c.48-8.08,2.99-13.23-3.82-21.96.54,4.54-1.27,9.38-4.1,10.55-.62.26-2.74-.3-2.97-.49l3.96-17.73c1.12-5.02-.28-10.38,1.79-15.08l10.3.46,19.81,1.82,6.15,1.16.09,10.67,8.97,13.59c.85,1.29,1.13,2.34,1.25,3.75l2.06,10.66-1.67-1.86c-.38-.42-1.02-.29-3.28-.07ZM620.67,881.4l3.6,6.29c4-2.12,9.67-2.68,14.69-1.72l10.67,2.04c.47.09,1.3,1.35,1.42,1.76s-1.24,1.07-1.85,1.04l-13.17-.66-.45,1.13,19.14,3.96,2.72,1.86c.42.29,1.79-1.04,1.63-1.56s-.71-1.89-1.08-2.42l-6.84-9.75c-2.07-2.95-2.52-6.07-2.23-10.07l-10.5-2.14-18.37-1.26.86,7.65,12.47,1.79c1.66.24,2.9.39,4.54-.81-7.54-3.28-16.62-2.08-16.2-4.84.68-4.51,10.3-.84,15.65-.34l6.63.61-4.13,1.17,8.49,2.14c-3.26,3.05-5.84.96-10.02,2.21l9.83,3.08c.46.14,1.6,1.42,1.15,1.55l-2.23.63c-9.14.44-17.41-1.05-26.44-3.34ZM628.27,890.29l-2.54.22c-.31.03.16,1.23.42,1.41l1.31.91c.5.35,2.25-.73,2.07-1.3-.12-.38-.87-1.27-1.26-1.24ZM627.14,893.14l.16,3.75,6.41-2.13-6.57-1.62Z"/>
        <path class="cls-2" d="M792.34,1021.91c-1.1,2.42-3.31,3.1-5.74,3.07l-47.76-.52-25.45.08-36.55.54-45.18,1.4-49.2,1.97-2.42-1.18c-.59-.29-.53-1.69-.04-2.8l48.76-2.32,34.64-1.13,47.29-.63,50.22-.58c10.83-.12,20.9.08,31.42,2.09Z"/>
        <path class="cls-2" d="M771.59,992.01c9.82.03,18.5.94,28.34,2.82l-.36,2.78-50.12-1.67-58.31-3.17-46.26-1.52c-14.86-.49-29.48-.87-44.2,1.09-2.93.39-4.87.57-7.88.4-12.53-.69-28.47,2.49-28.43-1.21,0-.91,1.46-2.56,2.43-2.56l33.73-.21,22.86-1.09,41.69.23,18.03.48,24.34,1.64,35.48,1.68,16.67.13,11.99.19Z"/>
        <path class="cls-2" d="M787.52,1045.54l-52.55.46-46.73.72-43.24-.59-25.01.34-25.24.38c-2.87.04-7.39.38-9.37-.87-.42-.26-.84-2.65-.37-2.8l2.29-.68,79.4-.77c19.05,1.06,37.11.28,55.94.05l41.56-.5c9.02-.11,17.64-.25,26.72,1.04.08,1.71-1.66,3.2-3.43,3.21Z"/>
        <path class="cls-2" d="M740.05,1006.79l21.77.68c12.9.41,25.3,1.49,37.61,3.54l-.19,2.4c-.04.52-1.57.75-2.26.71l-53-3.31-18.36-.45c-27.69-.67-54.67-1.63-82.27-1.2l-34.05.53-28.57.96c-2.94.1-6.4,1.68-8.78-2.3,9.5-2.24,18.77-2.23,28.37-2.36l31.16-.43,35.23-.75,11.45.14,18.99.81,22.73.84,20.17.2Z"/>
        <path class="cls-2" d="M755.18,1061.17l21.88.87-.62,3.11c-.14.73-2.37,1.18-3.29,1.15-42.54-1.41-84.13-.62-126.72.15-19.99.36-40.74-.39-60.37,1.32-.64-.63-1.24-2.46-1.06-3.19s1.99-1.76,2.74-1.78l41.3-1.06,38.51-.21,36.89-.59,50.75.22Z"/>
        <path class="cls-2" d="M731.42,1105.18l31.34,1.64c.49.28,1.45,1.89,1.58,2.67.16.94-2.23,2.21-3.45,2.16l-59.34-2.41-19.29-.51-46.37-.97-42.25-.22c-.7-1.16-.59-3.91.06-4.87l30.11.42c13.58.19,26.75.22,40.42.45l22.55.39,44.63,1.24Z"/>
        <path class="cls-2" d="M754.05,1126.76c1.31.09,1.42,4.61.13,4.72l-22.65-.86-23.06-.96c-1.37.81-2.58.73-3.93-.13l-24.72-.98-26.19-.45c-11.57-.2-22.84-1-34.4-1.35l-23.06-.69c-1.39-.04-2.58-1.36-2.46-2.72.09-.95,2.04-1.96,3.24-1.82,8.83,1.04,16.82.15,25.52.44l52.09,1.76,33.12,1.14,25.48,1.13,12.13.17,8.75.61Z"/>
        <path class="cls-2" d="M754.06,1173.54l-57.32-3.87-40.33-1.44-50.34.24c-3.01.01-5.96-.89-6.38-4.43l49.91-.55c35.07-.39,69.33,2.22,104.3,5.03l.16,5.02Z"/>
        <path class="cls-2" d="M752.67,1230.86l.68,2.99c-2.99.91-6.14.96-9.6.63l-16.47-1.6-49.92-2.5-37.5-.35-36.31.09c-1.33,0-3.19-.99-3.6-2.05-.36-.92.94-3.04,2.02-3.01l15.54.43,19.01-.32,28.63-.21,61.31,2.92,26.21,2.98Z"/>
        <path class="cls-2" d="M755.38,1188.86c.97.09,2.58,1.79,2.5,2.58s-1.71,1.96-2.76,1.88l-21.23-1.67-40.2-2.46-6.42-.1-39.31-.14-37.28-.22c-2.85-.02-5.68-1.02-8.29-2.69.7-1.12,2.48-2.13,3.72-2.12l44.65.36,23.41.02,25.67.12,9.26.57,25.68,1.87,20.61,2Z"/>
        <path class="cls-2" d="M753,1145.43l.24,3.71c.04.67-2.21.85-2.95.83l-63.88-1.8-43.93-.25-11.72-.3-27.28-.7c-1.46-.04-3.06-1-2.96-2.05.14-1.56,1.47-2.81,3.05-2.76l23.86.74,19.57.48,22.54-.17,83.46,2.28Z"/>
        <path class="cls-2" d="M758.36,1256.31c.77.05.89,2.78.22,3.18s-2.54,1.19-3.32,1.15l-21.41-1.25-45.1-3.36-18.01-.7-33.38-.11-27.43-1.39c-.71-.11-1.46-2.55-.99-3.11s2.13-1.6,2.92-1.56l22.94,1.13c26.14-.28,51.47.61,77.4,2.67l22.85,1.82,8.03.58,15.28.97Z"/>
        <path class="cls-2" d="M741.74,1210l-.03,4.41c-23.38-1.85-46.29-3.2-69.88-2.88l-21.53-.68-29.44-1.11c-7.44-.28-14.28-.13-21.5-1.26-.99-.15-2.56-3.02-1.83-3.74s2.47-.84,3.92-.79l25.4.9,41.53,1.74,24.57.05,32.74,1.57,16.06,1.79Z"/>
        <path class="cls-2" d="M775.58,903.29l-3.42,1.76,13.92,3.77c3.21.87,8.57,1.61,11.85,1.24,3.94-.45,5.31-.19,8.75.63l11.37,2.72,12.83,2.18c5.65.96,12.33.31,17.96,1.86.17,1.88.38,3.42.95,4.17s2.75.56,4.03.78l8.52,1.47c1.51-.2,3.25-.15,4.95.73l3.14,1.63c.64.33-.17,2.37-.55,3-.46.75-2.15.97-3.3.67l-11.25-2.89-11.65-2.24-7.54-1.76-7.69-.45,3.99-1.85-6.92-1.14-7.02-.59-4.05-.29-6.06-.56c-2.37-1.08-4.12-.91-6.55-1.26l-32.59-4.6,1.64-7.42-2.49,2.65-8.15-2.01-.1-3.21c-.03-.89,2.27-1.74,3.21-1.6l11.76,1.71.56-.58c2.38-.3,5.24.07,7.75,1.11-2.9,1.46-4.96.47-7.15-.24l-.69.59Z"/>
        <path class="cls-2" d="M696.34,869.72c-.7-.63-1.79-2.42-1.32-3.17l1.94-3.13c-1.68.01-3.42-.74-3.67-2.63-.19-1.44.54-1.93,3.17-3.15-.81-.64-3.08-.92-4.56-.56l-4.26,1.03.2-2.87c.04-.61-2.03.03-2.53.38-.75.52-1.95,1.27-2.59,1.52-.77.3-1.53-1.99-2.06-3.22-.72-1.66-4.97-1.71-6.93-.95l-1.09,4.36c-3.01-.1-4.47.7-5.84,2.6l-3.42,1.27c-.94.35-.98,3.12-.14,3.66,1.16.73,2.25,1.47,2.8,2.02s-1.14,2.76-2,2.54c-1.57-.4-4.73,1.28-3.91,4.14l6,1.01,5.37,3.34c-.02.49-1.92,2.98-3.16,3.18-2.7.43-11.26-2.55-12.33-5.84-.88-2.7.21-6.13,2.37-8.17l-.56-5.82c3.51-.25,4.26-4.08,3.58-6.94,2.87-2.03,7.47-4.56,11.18-4.38l6.89.34,9.5,2.33,7.3,2.38,3.66,1.45c-.34.74-.95,3.55-.25,4.07l2.46,1.79,2.23,4.39c.73,1.43,1.11,4.96.13,6.35-3.02,4.26-7.8,5.82-12.94,5.16-.13-.19-.2-1.46.32-1.71l2.97-1.42-3.81-1.48c4.45.37,7.9-.43,10.32-4.98l-5.04,1.1Z"/>
        <path class="cls-2" d="M597.97,853.89c-.89-1.39-3.11-4.04-4.55-3.84-.8.11-2.71,1.85-2.99,1.26l-1.74-3.65c-4.49,2.25-6.57,7.21-7.69,6.54l-2.67-1.61c-3.8,3.16-.14,5.96-3.74,9.2-.7.63-1.83-.36-3.37-2.02l-2,6.58,1.6,3.12c.4.79-1.73,1.94-2.8,2.6-.7.44-.45,2.72.22,3.21,2.92,2.18,5.61.38,6.62,2.29.37.7-.83,2.37-1.65,3.16s.04,3.18,1.01,3.68c1.15.59,2.91-.15,5.19-1.43-.07,1.05-.89,3.32-1.68,4.39-.9,1.22-5.46,1.86-6.24.49l-4.17-7.32c-.94-1.64-3.66-4.6-3.25-6.31,2.24-9.49.5-14.61,7.37-16.2l3.21-7.52c1.66-.85,4.74-1.53,6.51-1.86,1.71-.39,4.31-4.18,6.12-4.09,2.92.14,7.1.54,9.19,1.26,2.67,1.71,4.52,2.73,7.65,3.18l5.47.78c.62,7.53,7.44,10.36,3.01,16.53-1.87,2.61-4.64,4.69-8.34,3.02.81-2.96,6.03-3.43,5.96-7.35s-5.8-5.87-5.4-6.7l1.63-3.4c-2.49-.44-5.56.47-8.49,2.01Z"/>
        <path class="cls-2" d="M1175.14,1146.5c2.51-.21,5.16.17,6.76,1.94l4.85,5.35c.11.99-1.81,2.99-2.9,3.26s-3.43-1.1-3.98-2.12c-1.93-3.59-5.07-4.16-8.25-2.32-1.37.79-4.34,2.11-5.76,1.89l-9.05-4.9-3.14-15.64,5.12-1.8,3.94,7.68c1.55-2.67,4.9-4.85,7.87-3.7.45,1.48-.12,4.06-.7,5.77l4.39-.59.84,5.19Z"/>
        <path class="cls-2" d="M996.61,1094.86l3.98-3.97c.89-.88,4.38-.64,5.32.19.76.66.77,3.57.39,4.04-2.53.59-4.67,1.53-5.93,3.25-1.98,2.68-5.11,2.61-7.23.48-.35-.35-1.29-1.42-1.64-1.19l-2.16,1.42c-1.1.72-3,1.99-4.09,1.87s-3.19-1.7-3.75-2.86l-7.99-16.58c-.49-1.02.3-3.5,1.29-3.91,1.66-.69,3.37.09,4.2,1.52l3.71,6.42,1.47-3.51c.36-.86,3.34-.85,3.71,0l2.14,4.91,5.61-.96.96,8.87Z"/>
        <path class="cls-2" d="M1070.89,1219.88c.83-.55,3.13-.71,4.34-.52,1.1,3.57-.52,7.25-2.62,10.41,0,.06-1.51.29-1.59-.19l-.59-3.64c-2.62,1.16-6.54,3.03-8.82,2.06-6.48-2.77-7.27,2.66-9.95,1.52-.72-.31-2.1-1.88-2.2-2.66l-2.03-16.43c-.12-.94,1.08-3.3,2.02-3.36l3.74-.24c.09,1.82.07,3.64.79,3.73l3.84.5.58,7.67,4.53-.7,1.54,6.08,6.4-4.24Z"/>
        <path class="cls-2" d="M914.26,1177.73c1.11,1.77,5.23-2.42,8.7,1.72,1.2,1.44,1.23,3.86-.21,5.62l-4.84-2.09-7.65-.13c-2.66,2.92-6.23,2.47-9.22.85-1.71.58-5.56,1.02-5.85-1.19l-1.17-8.9c-.14-1.06-.33-4.14.56-4.67l3.78-2.24c.91,1.32,1.51,2.27,2.1,2.11l3.38-.88,1.9,11.13,2.52-4.16c.57-.94,3.45-1.22,4-.34l1.97,3.17Z"/>
        <path class="cls-2" d="M344.24,1055.13l-.61,1.39c-1.53,3.49,5.45-3.45,11.07-3.2-3.22,7.22-11.78,8.34-16.97,15.44l-2.35-4.67-5.12,3.08-5.03-4.91-6.24-8.58c-.78-1.07,2.7-3.91,3.58-2.97,1.63,1.76,3.22,3.07,5.46,3.94l4.44,6.02,5.03-9.03c1.17-2.09,3.23-3.78,5.21-4.65-.04,3.82-.87,6-2.9,7.76l4.43.37Z"/>
        <path class="cls-2" d="M246.63,858.84c3.34-5.41,4.12-10.6,5.08-17.06,4.14,8.05.63,20.7-8.51,22.09l-1.13-7.01c-1.94,3.07-5.88,4.93-10.05,5.49l-6.73-13.83c.15-.73,2.04-1.89,2.79-1.76,2.87.48,2.18,3.7,4.41,4.17,1.35-1.42,2.67-2.81,3.51-2.53l3.58,1.18,3.15-.86c2.11-.58.74,5.79,3.9,10.13Z"/>
        <path class="cls-2" d="M221.59,516.51c.5,3.67-4.69,3.72-5.17,8.21l-8.93,3.39-1.42,6.1c-.74-.05-2.77.02-2.96.66l-1.73,5.99c-1.57.25-4.62-.58-6.1-1.69l-3.71-19.11,3.86.36,3.71,11.46,5.61-14.22c.42-.27,3.17.29,3.18,1.01l.04,4.85,13.62-7.01Z"/>
        <path class="cls-2" d="M1129.97,1042.11c-.17,1.13-.37,2.6-.09,3.22,1.02,2.28,4.77-1.4,6.18-.6.58.33,1.44,1.65,1.34,1.89-3.14,4.59-8.57,5.37-12.64,2.41l-5.1.53c-1.47-2.04-2.64-2.95-4.97-3.72l-3.87-11.09c.14-1.15,3.55-2.58,4.34-1.84l3.42,3.2c.56-1.89,3.81-3.28,5.77-2.56l.38,5.78,5.82-.99-.58,3.77Z"/>
        <path class="cls-2" d="M385.71,961.83c.37.15.53,2.73-.15,3.31-3.64,3.1-10.83,4.26-15.4-.14-6.69,5.56-4.89,10.93-10.59,7.21-3.02-1.97-4.85-3.6-6.55-6.78l-3.47-3.7c-.43-.46-.44-2.15-.26-2.75.23-.74,2.64-.73,3.26-.23l6.57,5.18c4.27.41,5.85-8.02,8.82-6.14l3.35,2.12c4.46,2.82,9.06,3.98,14.43,1.92Z"/>
        <path class="cls-2" d="M172.8,930.15c5.92,1.89,16.55-4.96,15.07-2.28l-1.03,1.87c-2.69,4.88-9.04,3.48-13.24,5.9-2.34,1.34-4.97,3.96-7.93,3.2l-3.07.15c-.7.03-5.86-6.73-6.42-11.81,2.23-.77,4.66-.28,6.52.66l.53-3.74c.13-.92,2.38-2.25,3.28-1.97s1.75,1.84,2.41,3.14l4.98.22-1.1,4.66Z"/>
        <path class="cls-2" d="M1083.36,780.93c3.51-.39,6.01-1.38,8.8-2.59l1.83-.8c2.65-1.15-2.23,10.02-12.57,7.6-1.16-.27-2.78-2.46-3.7-3.75-2.73.06-5.7,1.43-8.61,3.14l-7.87-10.7c-.48-.65.79-2.72,1.48-2.73.82,0,2.39.42,3.06.95l4.7,3.72c2.77-3.54,5.65-6.4,9.33-7.55l1.72,6.15,1.83,6.55Z"/>
        <path class="cls-2" d="M897.78,1022.15c-2.71,6.53-8.69,11.48-14.05,8.77l-8.23,6.99c-4.62-3.54-6.53-7.85-8.14-13.18-.38-1.26-1.38-3.15-.91-4.08s3.08-1.85,4.09-1.65l3.92,8.22c.96-1.98,1.67-3.28,3.17-4.28,1.18-.78,3.11.36,4.17,1.35,2.59-.34,4.36.11,6.29,2.67l9.69-4.81Z"/>
        <path class="cls-2" d="M364.64,1194.27c1.63-1.67,3.11-3.18,5.52-3.39-.7,6.43-5.96,10.31-11.8,10.53l.12-4.47-4.28,5.39c-.52.66-2.4,1.65-3,.97l-10.26-11.62c-1.4-1.58-.94-3.81,1.01-4.75,1.56-.75,2.44.24,4.1,1.81l5.63,5.29,1.65-3.97c.34-.82,2.49-1.13,3.28-1.08.23,1.03.68,2.98.67,2.92l4.28-1.78c.99-.41,2.18,2.11,3.09,4.16Z"/>
        <path class="cls-2" d="M1158.45,515.7l2.9.76c.74.19-.48,2.88-.83,3.92l9.12-1.34c-2.18,6.1-12.59,9.39-14.88,4.97l-3.29,2.36-6.29-8.06c-1.64-2.1-2.35-4.13-2.06-6.97l4.54.14,3.59,5.33,4.4-7.99c.98-1.79,4.17-2.64,6.04-1.31l-3.26,8.19Z"/>
        <path class="cls-2" d="M1018.8,882.04l11.38-.23c.24,5.99-8.75,5.81-17.23,4.77-3.16-3.23-4.41.9-9.78,1.97l-5.92-8.62c-.65-.95-1.29-3.21-.48-4.05,1.96-2,8.5,1.33,8.53,1.4l1.88,4.35,11.98-6.61c1.55,1.91,1.27,2.9-.37,7.02Z"/>
        <path class="cls-2" d="M409.06,1104.87l4.8-1.85.07,3.43c-2.56,4.8-7.77,7.48-13.11,6.86l-4.47,2.87-7.94-8.32c-.61-.64-1-2.73-.8-3.59s2.57-1.8,3.28-1.19l5.3,4.57,7.79-10.67c.4-.54,2.83.93,2.59,1.55l-1.21,3.14,3.69,3.19Z"/>
        <path class="cls-2" d="M253.31,1131.97l5.87-2.44-1.23,5.24c-1.88,1.64-5.74,4.89-8.09,4.9l-8.11.05-6.63-9.57c-.63-.91-.86-3.57-.37-4.54s3.24-.99,4.09-.18l4.88,4.65c.96-4.48,1.45-6.7,3.99-9.6l-1.31,10.74,7.26-5.07-.36,5.81Z"/>
        <path class="cls-2" d="M1038.5,965c5.24,1.07,9.47.83,14.66-.63.75,6.59-10.81,7.71-18.51,3.61-5.18,3.55-6.77-.11-11.7.6-3.09-3.2-5.16-11.01-3.49-12.58.8-.75,3.47-1.46,4.05-1.22.53,4.3,1.74,5.56,4.69,7.54l2.81,1.89c1.35.91,3.1-5.49,8.44-5.16l-.94,5.96Z"/>
        <path class="cls-2" d="M207.99,648.22c.69-.36,2.01-1.33,2.42-1.67.51-.42,2.18.76,2.11,1.43-.18,1.73-1.77,4.4-3.06,5.2-1.46.91-4.41.65-6.3.72l-2.91.11c-.61.02-1.08-.95-2.1-2.23l-1.17,8.99c-.15,1.17-2.21,2.14-3.84,2.26l-5.6-11.42c.49-.69,1.68-1.84,2.38-1.94.84-.12,2.37.54,3.81,1.16.6-1.98,2.06-5.84,3.77-7.73.8-.88,3.95.33,4.86.86l4.43-.13c-.21,1.14.28,4.88,1.2,4.4Z"/>
        <path class="cls-2" d="M199.87,1050.44l-.13,6.63,8.8-2.69c-1.44,6.1-8.29,8.26-13.72,6.43l-3.3,2.95c-2.05,1.84-10.26-6.02-13.06-12.07,2.65-1.03,6.82.65,8.92,1.73,2.97.14,2.44-5.52,7.38-4.71l-.84,4.54c2.18-1.36,3.55-2.09,5.95-2.8Z"/>
        <path class="cls-2" d="M1195.87,703.05c.26,2.69.33,4.47-.54,7.14l9.76-1.11c.11,6.45-9.68,6.39-18.04,5.14l-7.73-11.36c-.53-.77.71-2.98,1.63-2.87,1.44.17,3.16,1.11,3.88,2.01l1.75,2.19c.64.8,3.33-7.24,8.9-5.22l.4,4.08Z"/>
        <path class="cls-2" d="M202.98,701.78c2.44-1.13,3.26-1.61,6.74-2.11l-5.12,6.46c-1.8,2.27-5.14,4.5-7.8,5.95-1.48.81-4.31,4.76-6.18,1.77l-2.39-11.91c.31-.83,2.86-2.2,3.59-1.65.85.64,1.73,2.44,2.49,4.11l2.99-5.91c.42-.82,1.65-2.47,2.49-2.69s2.59.2,3.53.54l-.34,5.43Z"/>
        <path class="cls-2" d="M1187.85,815.03l7.75-.58c.95,3.45-2.39,6.03-5.76,5.66l-14-1.55-5.28-12.32c-.06-.98,3.04-2.7,3.71-2.05l2.77,2.69c.52.5,2.4-.18,3.01.13s.99,1.36,1.63,2.88c1.35,3.22,6.62.25,6.49,1.63l-.32,3.5Z"/>
        <path class="cls-2" d="M229.58,772.03l6.36-4.52c1.66-1.18,3.45-1.76,6-.81-6.05,7.96-12.74,11.96-22.16,9.31-1.27-1.69-3.04-5.1-3.31-6.98-.13-.89,1.72-2.88,2.59-2.63,1.01.3,2.58,1.49,3.98,2.67,4.55-7.22,11.32-10.86,11.58-7.51.31,3.99-7.9,4.05-5.04,10.46Z"/>
        <path class="cls-2" d="M204.95,582.61l7.63.97c.04,1.57-.36,3.79-1.1,5.25-.6,1.17-3.65,1.69-5.14,1.44-3.73-.64-5.54,2.33-5.4,5.82-.58.36-2.95.85-4.03.79s-2.13-1.94-2.61-3.43l-2.58-7.91c-.17-.52-.04-2.09.12-2.56.21-.62,2.18-.95,2.59-.45l3.53,4.3,1.41-4.37c.47-1.47,1.91-3.06,3.78-2.81,1.14.15,1.89,1.82,1.82,2.95Z"/>
        <path class="cls-2" d="M457.86,1005.84c1.51-.34,4.01-2.03,6.34-4.17,2.14,2.62.5,5.76-2.08,7.68-2.78,2.07-5.6,2.46-9.25,1.73l-5.17-1.04-4.51-5.86c-.94-1.22-2.27-2.06-2.51-2.92-.28-1.01,1.15-3.47,2.12-3.64l5.49,3.3c1.11-1.49,2.39-2.61,3.06-2.42l2.44,4.03,2.74-.72c.61-.16.89,1.28,1.33,4.03Z"/>
        <path class="cls-2" d="M242.34,1200.22c5.93-3.15,4.68-9.89,9.38-7.71-.14,2.42-1.48,7.53-3.48,8.97l-6.07,4.36-3.44-1.74-2.54,1.3c-.62.32-1.41-1.62-1.59-2.37-1.54-6.3-7.01-6.65-5.66-10.24.39-1.04,3.36-1.83,4.26-1.14l5.48,4.19c1.48-1.5,2.85-2.49,5.35-2.88l-1.69,7.26Z"/>
        <path class="cls-2" d="M241.81,986.86c1.16,1.77,4.05,4.6,6.82,5.58.03,1.06-2.81,2.65-4.13,2.23-1.57-.51-2.87-1.67-4.77-3.54-5.12,1.78-8.12,7.49-12.26,2.31l-3.43-4.29c-.78-2.7-1.58-3.78-3.9-6.42,2.26-.75,5.1.32,6.87,2.19l4.31,4.53,4.71-7.53c.22-.36,2.16-.68,2.35-.3s.57,1.55.45,1.96l-.66,2.29c-.18.62,3.28.44,3.63.99Z"/>
        <path class="cls-2" d="M1170.78,913.53l2.17,4.31c-3.02,3.63-6.95,2.19-9.96-.46-1.78.47-4.82,1.2-6.52,1.04l-4.97-8.94c-.88-1.58-1.9-3.33-1.6-4.46.42-1.55,3.72-3.09,4.5-2.06,1.49,1.98,2.79,3.29,5.1,4.52l.76,5.06c.89-1.48,4.67-3.57,5.6-2.23.36.52.76,2.46.98,3.06.27.74,1.66.46,3.94.17Z"/>
        <path class="cls-2" d="M1122.02,656.62l9.36.32c-.25,1.77-1.98,4.09-3.7,4.16l-9.66.39-3.74-5.64-5.73-9.68,3.02-2.29c.8-.6,2.57,1.41,3.15,2.33l5.32,3.02,5.27-.56-3.29,7.96Z"/>
        <path class="cls-2" d="M295.69,904.17c-.98.85.7,4.9,2.15,4.41,1.57-.53,3.28-1.03,4.5-1.09,1.13-.06,1.46,3.48.68,3.86-6.72-.27-5.41,5.97-8.09,6.51-3.95.8-9.08-6.58-12.29-12.21l-1.1-1.93c-.31-.54,1.05-1.87,1.79-2.01l8.69,8.28c.11-3.24.99-7.67,2.59-9.62.47-.57,3.07.72,2.99,1.42l-.41,3.92s-.25-.25-1.51-1.54Z"/>
        <path class="cls-2" d="M174.33,807.17l6.11-2.55c1.99-.83,4.59-1.41,6.58-.66l-16.05,11.49c-.81.58-2.95.47-3.51-.23l-7.97-9.89c1.18-.67,3.39-1.53,4.22-1.06,2.76,1.56,4.12,5.43,4.51,4.88,2.78-3.91,1.36-8.01,6.98-8.02l-.88,6.03Z"/>
        <path class="cls-2" d="M1190.38,593.24l3.03.91c.23,1.94-1.71,5.08-4.2,4.83l-9.28-.93-4.31-9.96c-.36-.84,1.58-2.98,2.41-3.08,1.12-.14,2.01.82,2.76,2.91l6.4,2.14,3.45-.37c.8-.08.16,2.49-.27,3.55Z"/>
        <path class="cls-2" d="M258.82,646.18l4.17-1.64c.84-.33,2.7,1.31,2.68,2.14-.44,1.68-3.47,3.95-5.24,3.64l-9.15-1.59-2.86-8.83c7.25.39,9.78-4.95,14.12-.58l-3.74,6.86Z"/>
        <path class="cls-2" d="M948.85,581.14c.48.9,1.63,2.79,1.29,3.6s-1.35,3.19-1.23,2.9l-2.32-7.56c.4-1.44,1.31-4.28.65-5.64-1.02-2.12-3.02-4.05-4.57-5.32.22-6.55-5-7.67-3.06-12.2l1.26-2.95,1.3,7.57,3.82,7.8c1.87,3.83,3.15,7.65,2.85,11.79Z"/>
        <path class="cls-2" d="M766.17,530.55l.72,3.15c.16.69-1.78,1.83-2.45,2.01l-1.62.44c-.46.13-.3-1.68.04-2l.97-.91c.26-.24-1.24-.72-1.61-.66-2.24,2.03-7.14,3.52-10.18,1.79l-4.81.76-2-.11c-.6-.03-.82-2.08-.28-2.35,2.8-1.4,4.07,1.69,4.79,1.05l2.02-1.8,14.4-1.37Z"/>
        <path class="cls-2" d="M937.12,520.27c-.1,5.63-5.63,1.38-10.31,4.86l-.99-1.81c-.94-1.71,4.72-3.9,11.3-3.06Z"/>
        <path class="cls-2" d="M487.34,516.17c1.51-.81,2.93-1.47,3.52-1.18.74.36,1.3,1.82,1.45,2.92.48,3.65-3.21.5-8.22,1.54l-.85-5.16c1.43,1.14,3.17,2.38,4.1,1.88Z"/>
        <path class="cls-2" d="M935.8,543.61l.84,4.5-1.86,5.12-1.72-4.5c-.19-.49-.56-1.91-.2-2.17l2.01-1.45-1.99-5.04.57-1.25c.79,1.08,2.11,3.51,2.35,4.79Z"/>
        <path class="cls-2" d="M929.6,537.96c-2.33-.41-2.31-2.1-3.05-3.58l-3.3-6.67c-.74-1.5-1.21-3.51-1.21-5.15,3.83,5.27,5.84,9.87,7.56,15.4Z"/>
        <path class="cls-2" d="M589.22,895.92l.19,8.4-1.2-7.75-.34-6.89c-1.56-3.14-2.04-6.17-.89-9.37l2.24,15.61Z"/>
        <path class="cls-2" d="M1092.22,508.53c1.13,1.93,1.87,5.34,2.22,8.51l-4.48-7.59c-1.12-1.88-1.89-3.41-.69-5.94l2.94,5.01Z"/>
        <path class="cls-2" d="M852.97,554.7l-2.13,2.44-.17,2.21c-.03.37-3.96,4.16-7.17,2.84l4.11-2.04c.94-.47.94-2.87.66-4.02l4.7-1.44Z"/>
        <path class="cls-2" d="M775.93,533.57l-2.42.95c-.54.21-1.84-.77-1.7-1.34.18-.72.86-2.48,1.13-2.99l2.29,2.56.3-.26.86-2.55c.23-.68,2.66-.44,3.36-.2,2.08.72,3.64,2.88,3.47,4.52l-4.75-.88.18-2.07-2.37,1.83-.35.44Z"/>
        <path class="cls-2" d="M850.4,570.41l-2.63,2.47-4.77-1.6,1.16-2.86,5.45,1.36c.16.04.36-.23.64-.5.87-.53,2.48-1.03,3.45-.95,1.8.15,3.52,1.11,3.12,3.13l-2.72-1.84c-.71-.48-2.49.04-3.37.26l-.34.52Z"/>
        <path class="cls-2" d="M709.8,744.29c1.17-.87,2.34-.79,1.04.91.83,2.27-.1,2.81-1.36,1.28l-4.85,1.15c-.62-.09-1.79-.15-1.67-.5l.78-2.3,2.31,1.1c.74.35,2.5-.79,3.75-1.63Z"/>
        <path class="cls-2" d="M676.06,879.52c2.14,5.35,2.76,10.26,1.81,15.73l-1.04-7.28-.77-8.45Z"/>
        <polygon class="cls-2" points="758.78 496.16 763.13 500.39 754.81 500.97 758.78 496.16"/>
        <polygon class="cls-2" points="410.5 701.16 408.09 707.81 406.23 699.82 410.5 701.16"/>
        <path class="cls-2" d="M743.26,553.75c.66-.1,2.79-.43,2.91.14l.48,2.29c-2.19.45-5.18.86-6.41.14-.42-.25.02-2.12.51-2.19l2.51-.38Z"/>
        <path class="cls-2" d="M601.78,903.51c-1.24-1.35-2.3-3.92-2.31-5.69l-.04-8.27c1.42,5.17,1.79,8.87,2.35,13.96Z"/>
        <path class="cls-2" d="M824.31,569.07l.92,2.5c.19.51-1.52,1.88-1.72,1.81l.48-4.1-3.99,2.89c-.11-.48.53-3.01,1.35-3.66,1.93-1.54,5.96-.29,5.44-1.62-.13-.34.16.41.66,1.7l-3.14.49Z"/>
        <path class="cls-2" d="M1021.73,895.36l-2.61,6.32.54-6.29c.05-.54-1.31-1.86-1.08-2.35l1.04-2.21,2.11,4.53Z"/>
        <path class="cls-2" d="M731.89,801.12c1.35,1.07,1.19,1.55-.38,1.01l-4.95,4.8,1.07-2.63c.2-.49-.15-.84-.77-1.99l5.02-1.18Z"/>
        <path class="cls-2" d="M862.78,557.56c-2.03,1.03-3.52,1.67-4.37,1.45s-1.92-1.62-2.61-3.29l6.98,1.84Z"/>
        <path class="cls-2" d="M1057.44,724.83c-.53,3.05-2.67,6.09-5.67,8.02.79-3.26,2.91-5.54,5.67-8.02Z"/>
        <path class="cls-2" d="M878.74,570.46l-6.54.81c.25-1.04,1.91-2.94,2.94-2.96,1.14-.03,3.18,1.34,3.61,2.15Z"/>
        <path class="cls-2" d="M939.91,551.85c-1.5,1.11-2.37,1.5-2.38,2.04l-.06,2.86c-1.69-1.91-1.11-4.98.18-7.82l2.26,2.92Z"/>
        <path class="cls-2" d="M921.08,484.41c1.34,2.52-2.46,3.78-4.96,2.34-.1-1.08,3.79-3.26,4.96-2.34Z"/>
        <path class="cls-2" d="M871.07,569.1c-.45,1.12-2.57,3.22-3.36,2.66l-3.57-2.55,6.92-.11Z"/>
        <path class="cls-2" d="M771.72,478.07l-3.05,4.02-1.11-2.14c-.27-.52-1.34-.94-2.82-1.86l6.98-.02Z"/>
        <path class="cls-2" d="M600.34,880.53l-1.5,3.44c.4,1.88.08,3.55-1.41,4.71-.42-3.21-.32-6.36,2.92-8.15Z"/>
        <path class="cls-2" d="M641.42,566.92c.1-1.23,4.59.78,4.55.91l-.79,2.69-2.43-1.41c-.37-.04-1.5-.18-1.47-.52l.14-1.68Z"/>
        <path class="cls-2" d="M1044.38,744.05c-.28,1.55-.25,3.83-3.14,3.7l2.76-4.19.44-.6c1.31-1.79,3.21-5.33,6.37-6.83l-5.8,7.51-.63.41Z"/>
        <path class="cls-2" d="M768.52,855.12c-1.49,3.47-4.55,4.29-7.84,4.47l7.84-4.47Z"/>
        <path class="cls-2" d="M1074.35,862.64l-4.12-3.83c2.55-1.25,5.54.53,4.12,3.83Z"/>
        <path class="cls-2" d="M760.08,860.87c-.6.92-.85,1.41-1.1,1.38-4.52-.49-3.1,3.25-7.65,2.55l4.23-3.11c.98-.72,3.46-1.02,4.53-.83Z"/>
        <path class="cls-2" d="M910.63,493.59c1.04,1.04,2.38,4.16,2.14,5.79-2.75-.04-4.02-3.63-2.14-5.79Z"/>
        <path class="cls-2" d="M532.03,761.06c-.02,1.96-1.28,3.72-3.44,4.61-.44-2.12,1.1-3.98,3.44-4.61Z"/>
        <path class="cls-2" d="M954.27,686.21l-1.17,6.93c-2.5-1.65-1.56-5.72,1.17-6.93Z"/>
        <path class="cls-2" d="M902.36,757.04l-5.31,4.89c-.21-3.04,2.02-5.14,5.31-4.89Z"/>
        <path class="cls-2" d="M1072.87,699.05c-.82,2.5-2.22,5.1-4.32,7.83.16-2.81,1.46-5.58,4.32-7.83Z"/>
        <path class="cls-2" d="M843.73,581.59c.47-.32,1.9-1.07,2.02-.61l.49,1.89c.15.59-1.72,1.18-2.33,1.16l-2.16-.08c-.3-.01-.4-.74-.15-.91l2.13-1.44Z"/>
        <path class="cls-2" d="M713.27,519.3c1.37.47,2.93,1.37,2.76,2l-.8,3.05c-1.8-1.67-2.71-3.88-1.96-5.05Z"/>
        <path class="cls-2" d="M819.47,556.71l.9,2.14-4.25.92c-.08-.23-.46-1.68-.15-1.79l3.5-1.27Z"/>
        <path class="cls-2" d="M1045.1,1001.84c1.29,2.08.12,4.49-1.85,5.48-.22-2.08.2-3.55,1.85-5.48Z"/>
        <path class="cls-2" d="M759.22,485.76l-3.81,3.09.09-3.52c.02-.63,1.08-.5,3.72.43Z"/>
        <path class="cls-2" d="M754.5,656.21c.26-.32.84-1.18,1.11-1.11.4.12,1.7,1.03,1.37,1.29l-1.59,1.24-4.26,2.77,3.37-4.2Z"/>
        <path class="cls-2" d="M495.72,676.57l.61,5.41c-1.72-.85-4.14-3.7-.61-5.41Z"/>
        <path class="cls-2" d="M719.33,805.36l-1.57,1.88-2.39-1.63c-.44-.3.7-2.19,1.16-1.91l2.8,1.66Z"/>
        <path class="cls-2" d="M1075.17,694.21c.22-.22,1.53-.47,1.4-.22l-1.06,1.94-1.51,2.34c-.31.48-2-.28-2.32-.63l3.49-3.42Z"/>
        <path class="cls-2" d="M505.73,680.59l-4.52-4.15,3.81.62c.83.13,1.23,2.92.71,3.53Z"/>
        <path class="cls-2" d="M1102.45,565.67c.09,3.25-.65,5.83-2.08,8.42-.09-3.25.66-5.83,2.08-8.42Z"/>
        <path class="cls-2" d="M769.7,659.05l.8,1.53c.2.39-.65.8-1.23,1.11l-1.92,2.52-.94-.64,3.29-4.51Z"/>
        <path class="cls-2" d="M769.99,532.12v1.97c0,.33-1.2.89-1.3.57l-.72-2.25c-.16-.49-.24-1.52-.21-2.01s1.91-1.28,1.96-.79l.27,2.5Z"/>
        <path class="cls-2" d="M589.54,755.81l-.86,2.97c-.27.93-2.6,1.49-4.26,1.03l5.12-4Z"/>
        <path class="cls-2" d="M776.35,850.13c-1.64,2.58-3.81,4.25-6.52,4.83,2.03-2.09,4.23-3.81,6.52-4.83Z"/>
        <path class="cls-2" d="M955.31,605.97c1.87,1.17,2.77,4.01.1,6.24l-.1-6.24Z"/>
        <path class="cls-2" d="M1101.17,575.52c.98,2.58,1.5,5.85-.8,8.46l.8-8.46Z"/>
        <path class="cls-2" d="M554.98,759.11l2.21.44c.39.08.15,1.36-.1,1.67s-1.64.73-1.92.45l-3.05-3.12,2.86.57Z"/>
        <path class="cls-2" d="M490.85,759.8c1.63.47,3.6,1.33,4.95,3.01l-2.81-1.01c-.76-.27-2.24.74-3.27,1.35l1.13-3.35Z"/>
        <path class="cls-2" d="M946.33,704.79l-4.03,6.96c.07-2.8,1.65-5.4,3.37-7.49l.39-.47,1.31-2.89c.8,1.05,1.14,1.43.87,1.69l-1.69,1.66-.22.53Z"/>
        <path class="cls-2" d="M902.43,478.72l2.93,6.78c-2.66-1.38-3.81-3.69-2.93-6.78Z"/>
        <path class="cls-2" d="M739.46,772.02l-1.7-1.66c-.39-.38-1.06-.15-2.93,0,.2-.5,1.97-1.83,3-1.93,1.31-.12,2.38,2.56,1.63,3.6Z"/>
        <path class="cls-2" d="M898.33,473.24c1.2,1.39,2.1,3.46,2.15,5.57-2.3-.88-3.08-2.59-2.15-5.57Z"/>
        <path class="cls-2" d="M694.47,551.78l-2.4,1.45c-.58.35-2.2-.53-2.42-1.01.89-1.38,2.64-1.99,4.82-.44Z"/>
        <path class="cls-2" d="M735.64,518.12c.63-.01.7,2.3.08,2.27l-2.69-.14-.48-1.65c-.12-.41,1.98-.46,3.09-.48Z"/>
        <polygon class="cls-2" points="1040.72 750.78 1035.9 755.92 1035.14 755.2 1039.58 750.38 1040.72 750.78"/>
        <path class="cls-2" d="M657.42,485.29c-1.81,1.74-3.71,2.28-5.88,2.22,1.56-2.13,3.62-2.67,5.88-2.22Z"/>
        <path class="cls-2" d="M492.86,684.82l.91,1.84c.21.43-2,.48-2.44.27-.25-.12-.84-.85-.78-1.12l.33-1.61c.09-.41,1.79.24,1.98.62Z"/>
        <path class="cls-2" d="M745.56,517.32c2.28.02,1.71,3.79-.87,3.99-.53-.35-.08-3.56.87-3.99Z"/>
        <path class="cls-2" d="M914.73,486.62l-5.62,1.47c.46-2.28,3.03-3.51,5.62-1.47Z"/>
        <path class="cls-2" d="M824.44,593.39c.51.18,2.36,1.09,2.17,1.46l-.9,1.74c-.19.36-.71-.21-1.2-.75l-1.66-.55c-.33-.11-.47-.88-.45-1.23s1.57-.83,2.03-.67Z"/>
        <path class="cls-2" d="M739.44,478.26l1.92,3.37-3.36-1.89c-.3-.17-1.24-.91-1.06-1.2l.74-1.16c.27-.43,1.51.45,1.76.88Z"/>
        <path class="cls-2" d="M906.19,487.36c1.2,1.5,2.52,2.77,2.22,3.47l-1.33,3.03-.88-6.5Z"/>
        <path class="cls-2" d="M645.7,583.57c.6.28-.42,2.15-.99,2.56s-2.44-.48-2.32-1.17c.16-.91,2.1-1.9,3.32-1.39Z"/>
        <path class="cls-2" d="M472.94,517.5l1.11,2.08c.29.54-1.65,1.3-2,.8l-1.31-1.91c-.35-.51,1.91-1.5,2.2-.97Z"/>
        <path class="cls-2" d="M707.59,518.39l-1.04,3.36c-.21.69-1.87.2-2.99-.67l4.03-2.69Z"/>
        <path class="cls-2" d="M774.39,659.84l2.6.96c.41.15.34,1.49-.06,1.67l-2.49,1.11-.05-3.74Z"/>
        <path class="cls-2" d="M600.62,758.28l-1.91.64-.36-2.89c-.07-.56,2.57-1.37,2.52-.81l-.25,3.06Z"/>
        <path class="cls-2" d="M520.57,547.71l.1-2.18c.03-.66,2.03-1.71,2.19-1.07l.54,2.12c.16.64-1.68,1.05-2.84,1.12Z"/>
        <path class="cls-2" d="M648.04,555.6c-.09-.95.47-3.07.87-2.76l1.88,1.48c.4.31-.27,1.13-.8,1.84-.29.39-1.9-.07-1.95-.56Z"/>
        <path class="cls-2" d="M759.58,662.1l-5.03,2.27c.4-1.41.7-2.77,1.32-2.7l3.72.43Z"/>
        <path class="cls-2" d="M689.13,891.9l2.22,7.29c-2.14-1.65-3.11-4.43-2.22-7.29Z"/>
        <path class="cls-2" d="M673.83,825.17l2.31-.5c.36-.08.78,1.13.42,1.22l-1.6.44-4.34,1.19c.08-.6,2.18-2.14,3.21-2.36Z"/>
        <path class="cls-2" d="M706.16,569.9l-1,2.96c-.15.44-1.36.19-1.74-.08-.5-.35-.73-2.2-.13-2.32l2.87-.57Z"/>
        <path class="cls-2" d="M592.18,604.96c.24.17-1.94-.81-2.9-1.3-.48-.25.61-1.69,1.11-1.94s1.26.94,1.78,3.24Z"/>
        <path class="cls-2" d="M730.36,614.91l-2.61-3.34c.42-.32,2.37-1.08,2.39-.59l.21,3.93Z"/>
        <path class="cls-2" d="M1094.82,622.13c2.04,2.09.82,4.76-1.25,5.98l1.25-5.98Z"/>
        <path class="cls-2" d="M761.55,680.15c-.4-.21-.09-1.77.35-1.77h1.89c.45,0,.35,1.37.22,1.8s-1.97.22-2.47-.03Z"/>
        <path class="cls-2" d="M628.63,567.29c.86,2.27-.39,4.5-3.14,3.85l3.14-3.85Z"/>
        <path class="cls-2" d="M721.11,517.62l1.42,5.31c-1.44-.87-4.21-2.23-1.42-5.31Z"/>
        <path class="cls-2" d="M858.39,550.84c-.51-.16-1.04-.39-1.32-.35l-1.79.31c-.09-.31-.23-2.19.3-2.19h2.5c.52,0,.4,1.82.32,2.23Z"/>
        <path class="cls-2" d="M813.13,558.4l.98,3.77c.24.23-1.34-.26-1.78-.56s-1.46-1.14-1.07-1.5l1.87-1.71Z"/>
        <path class="cls-2" d="M476.12,517c.21-.45,1.36.27,1.49.66s.45,1.43.38,1.21l-1.87.75c-.26.1-1.29.2-1.18-.05l1.18-2.57Z"/>
        <path class="cls-2" d="M524.41,667.95c-.32-.32-.34-2.29.1-2.18l1.89.46c.44.11.77,1.19.88,1.64.14.59-2.44.52-2.87.09Z"/>
        <path class="cls-2" d="M667.63,816.26l-5.21,2.7c.89-2.58,2.48-3.2,5.21-2.7Z"/>
        <path class="cls-2" d="M528.76,657.06l-5.5.44c1.03-1.97,3.54-2.59,5.5-.44Z"/>
        <path class="cls-2" d="M940.83,712.34c.78,2.5.06,4.71-2.22,5.88l2.22-5.88Z"/>
        <path class="cls-2" d="M910.47,501.82l3.16,4.64c-1.86-.24-3.89-1.54-3.16-4.64Z"/>
        <path class="cls-2" d="M553.45,777.59c.4-.25-1.41.89-2.13,1.35-.24.15-1.52-.76-1.43-1.02l.48-1.34c.14-.39,1.42.2,3.08,1.02Z"/>
        <path class="cls-2" d="M798.99,591.68l.48,3.2c.1.66-1.55,1.19-2.71,1.42l2.23-4.62Z"/>
        <path class="cls-2" d="M131.56,503.5l-.13,5.85c-2.15-1.68-1.22-4.1.13-5.85Z"/>
        <path class="cls-2" d="M516.07,678.26l-4.32,2.34c.14-1.98,1.55-3.66,4.32-2.34Z"/>
        <path class="cls-2" d="M698.12,481.27l1.24,4.26c-.83.05-2.78-.5-2.52-1.13l1.28-3.13Z"/>
        <path class="cls-2" d="M558.53,791.36c-.02.27-.16,1.08-.47,1.23l-1.55.75-1.69.82c-.35.17-.99-.86-1.22-1.21l4.92-1.59Z"/>
        <path class="cls-2" d="M827.79,978.52c.42,2.12-.35,3.77-2.94,4.37l2.94-4.37Z"/>
        <path class="cls-2" d="M914.67,500.18l1.22,2.89c.17.4-.6,1.31-.84.97l-1.75-2.51,1.36-1.35Z"/>
        <polygon class="cls-2" points="489.99 827.44 482.27 823.64 482.98 822.71 490.66 826.57 489.99 827.44"/>
        <path class="cls-2" d="M495.01,656.1c.56,1.42.99,2.75.49,2.68l-2.6-.42,2.11-2.26Z"/>
        <path class="cls-2" d="M657.49,800.23l-2.05,3.25c-.51-.7-1.24-2.39-.68-2.53l2.73-.71Z"/>
        <path class="cls-2" d="M549.61,530.6c.56-.28.47,1.78-.04,1.7-1.64-.28-2.5-.49-2.42-.38.08.09-.01-1.15-.06-1.75-.04-.42.34-.04,2.52.44Z"/>
        <polygon class="cls-2" points="729.11 783.91 731.42 784.85 727.47 788.28 729.11 783.91"/>
        <path class="cls-2" d="M529.25,747.03l.52-2.33c.1-.46,1.45.07,1.48.54l.15,1.98c.04.47-2.26.28-2.15-.19Z"/>
        <path class="cls-2" d="M722.48,477.99l-1.45,1.83c-.37.47-2.64-.51-2.99-1.16l4.44-.67Z"/>
        <path class="cls-2" d="M767.97,501.66c-.4-.22.14-1.65.47-1.96s1.56-.34,1.72.1l.68,1.82c.16.43-2.38.32-2.88.04Z"/>
        <path class="cls-2" d="M469.5,655.91c-.43-.15.77-1.98,1.15-1.75l1.46.91c.38.24.4,1.91-.02,1.76l-2.58-.92Z"/>
        <path class="cls-2" d="M642.66,828.3l-3.61-3.27-1.17.93c-.43.34-1.48-.16-2.23-.82.82-.74,3.4-1.26,4.54-.65,1.03.54,2.11,2.31,2.47,3.81Z"/>
        <path class="cls-2" d="M715.75,483.35c-.66.07-2.09.21-1.97.2-.77-.94-1.57-1.68-1.32-1.85l1.64-1.16c.37-.26.77.65,1.65,2.81Z"/>
        <path class="cls-2" d="M579.51,604.21c-.44-.13.44-1.79.88-1.69l1.95.47c.43.1-.2,1.97-.63,1.85l-2.2-.63Z"/>
        <path class="cls-2" d="M710.16,552.85l-2.81,1.06c-.46.17-.64-1.91-.19-2.1l1.4-.61c.46-.2,2.06,1.47,1.6,1.65Z"/>
        <path class="cls-2" d="M667.59,790.35l-3.03,4.2c-.89-2.32.76-4.24,3.03-4.2Z"/>
        <path class="cls-2" d="M891.55,572.05c-.4-.15.7-1.81,1-1.53l1.25,1.19c.3.28.72,1.45.33,1.31l-2.59-.97Z"/>
        <path class="cls-2" d="M602.41,826.09c.12.16,0,1.68-.37,1.6l-2.71-.53c-.46-.09-.73-1.75-.25-1.66l3.33.59Z"/>
        <path class="cls-2" d="M465.34,689.31l.83,4.13-1.65-.73c-.4-.18,0-1.45.82-3.4Z"/>
        <path class="cls-2" d="M779.27,660.77l2.25,1.04-.79,1.85c-.12.27-1.36.55-1.37.25l-.09-3.14Z"/>
        <path class="cls-2" d="M695.71,742.79c-.27.38-1.39,1.77-1.54,1.43l-.94-2.04c-.2-.44,1.27-.96,1.76-.94s1.01,1.14.72,1.55Z"/>
        <path class="cls-2" d="M497.1,692.15l-2.71,3.51c-1-1.72.7-3.36,2.71-3.51Z"/>
        <path class="cls-2" d="M688.58,885.06l1.95,2.42c.31.38-.94,1.6-1.19,1.18l-1.36-2.19c.58-1.35.9-2.1.61-1.41Z"/>
        <path class="cls-2" d="M426.49,647.85c.39,1.2.62,2.2.09,2.57-.97.67-2.38,1.04-3.15.65l3.07-3.22Z"/>
        <path class="cls-2" d="M805.8,568.59c.29-.33-.81.92-1.21,1.36-.5.56-2.95-.72-2.54-1.36.19-.31.83-1.28,1.09-1.17l2.67,1.17Z"/>
        <path class="cls-2" d="M687.03,739.73l-3.71,3.16c-.15-.83-.34-2.55.15-2.62l3.56-.53Z"/>
        <path class="cls-2" d="M1062.17,720.64c-.49,1.75-2.32,3.17-4.84,3l4.84-3Z"/>
        <path class="cls-2" d="M628.97,485.5l-.3,4.53c-2.48-1.63-1.51-3.8.3-4.53Z"/>
        <path class="cls-2" d="M683,660.82l-3.49,3.61c-.29-.44-.33-2.29.23-2.56.82-.39,2.35-.85,3.26-1.05Z"/>
        <path class="cls-2" d="M815.34,596.06c-.28-.37-.41-2.52.04-2.42l1.91.4c.45.09,1.03,1.01.64,1.28-.71.49-2.22,1.24-2.59.74Z"/>
        <path class="cls-2" d="M667.36,524.85l-.17,2.5c-.05.8-2.41.71-2.9.4l3.07-2.9Z"/>
        <path class="cls-2" d="M846.44,555.55c-.07.41-1.74,1.71-2.33,1.42l-3.19-1.57,5.51.15Z"/>
        <path class="cls-2" d="M839.01,562.36c-.42.07.19-2.04.63-2.04h1.73c.44,0,.82,1.5.38,1.58l-2.74.47Z"/>
        <path class="cls-2" d="M503.99,653.95l1.41,2.51c.33.59-1.65,1.12-2.52,1.09l1.12-3.6Z"/>
        <path class="cls-2" d="M672.35,815.25l1.38,1.09c.22.17.2,1.02.22,1.31.02.42-1.55.23-1.78-.1l-1.02-1.45c-.21-.29.89-1.11,1.21-.86Z"/>
        <path class="cls-2" d="M753.71,798.47l1.61,2.99c-1.01.02-2.69-.38-2.47-.91l.86-2.07Z"/>
        <path class="cls-2" d="M830.71,581.44l-.62,3.4c-.08.41-2.33-1.32-1.99-1.56l2.61-1.84Z"/>
        <path class="cls-2" d="M632.18,488.3c1.5,1.18.88,3.3-1.46,3.74l1.46-3.74Z"/>
        <path class="cls-2" d="M824.87,558.44l-3.13,4.02c-.64-1.97,1.02-4.08,3.13-4.02Z"/>
        <path class="cls-2" d="M664.47,553.35c-.28-.12.01-1.64.3-1.56l1.99.51c.45.12-.02,2-.44,1.82l-1.85-.77Z"/>
        <path class="cls-2" d="M620.05,578.61l-1.39-.74c-.64-.34-1.58-1.12-1.19-1.34l1.8-1c.51-.28.77,1.7.77,3.08Z"/>
        <path class="cls-2" d="M701.53,535.74h2.84c.43,0,.11,2.02-.31,1.97l-2.59-.34c-.04,1.07.02-.71.05-1.63Z"/>
        <path class="cls-2" d="M710.99,535.47l-2.28,3c-.72-1.17-1.6-2.67-1.1-2.71l3.37-.29Z"/>
        <path class="cls-2" d="M618.42,801.58c-1.15.61-2.9.97-4.02.88.53-1.61,2.8-2,4.02-.88Z"/>
        <path class="cls-2" d="M799.52,556.7c-.75,1.37-.93,1.7-.61,1.05-1.55-.9-2.2-1.23-1.96-1.42l1.46-1.2c.36-.29.95,1.02,1.11,1.57Z"/>
        <polygon class="cls-2" points="799.4 837.21 796.63 840.33 795.43 840.06 798.2 836.95 799.4 837.21"/>
        <path class="cls-2" d="M531.46,654.17l-3.42-2.1,2.08-.71c.71-.24,1.62,2.13,1.34,2.8Z"/>
        <path class="cls-2" d="M547.59,541l.32,3.08c.06.53-1.61.38-2.5.25l2.18-3.32Z"/>
        <path class="cls-2" d="M656.69,818.87c-.3.02-.58-1.58-.29-1.68l1.71-.59c.29-.1.55.98.54,1.28-.02.46-1.29.95-1.96.99Z"/>
        <path class="cls-2" d="M792.46,840.66c-1.49,1.55-2.81,2.4-4.45,2.98.98-1.78,2.55-2.91,4.45-2.98Z"/>
        <polygon class="cls-2" points="660.22 826.12 656.08 825.99 656.06 824.89 659.83 824.65 660.22 826.12"/>
        <path class="cls-2" d="M752.3,765.14l-2.4,1.5c-.52.33-1.67-.97-2.18-1.67l4.58.17Z"/>
        <path class="cls-2" d="M931,529.24c-.6,3.63,3.15,4.76,1.72,8.05l-2.46-4.92-.52-2.09c-.14-.57,1.71-1.43,1.26-1.04Z"/>
        <path class="cls-2" d="M861.64,569.11l-1.75,1.88-.96.7c-.27.2-.87-2.2-.54-2.24l3.25-.34Z"/>
        <path class="cls-2" d="M457.53,576.92l-2.87,1.99.42-3.06c.08-.58,2.18.73,2.46,1.07Z"/>
        <path class="cls-2" d="M1097.41,613.27c.45,1.87.1,3.27-1.02,4.18-.45-1.87-.1-3.27,1.02-4.18Z"/>
        <path class="cls-2" d="M1214.93,1141.59l-4.36.2,1.61-1.66c.44-.45,1.93.55,2.75,1.46Z"/>
        <path class="cls-2" d="M641.35,561.18l-1.69,2.74c-.25.41-.99-.97-1.53-1.92l3.22-.82Z"/>
        <path class="cls-2" d="M601.25,524.6c.29-.29,1.88,1.09,1.54,1.43l-1.32,1.33c-.34.34-1.55-.42-2.13-.83l1.91-1.92Z"/>
        <path class="cls-2" d="M826.85,613.95c-.28.06-.76-1.74-.49-1.9.39-.24,1.38-.44,1.72-.14l1.1.97c.34.3-1.53.9-2.33,1.07Z"/>
        <path class="cls-2" d="M886.2,570.83l-2.85,3.15c-.59-1.4,1.06-3.26,2.85-3.15Z"/>
        <path class="cls-2" d="M634.14,570.41c0,.18-.13-2.12-.16-2.57-.03-.57,2.89.63,2.15,1.15l-2,1.42Z"/>
        <path class="cls-2" d="M782.12,846.13c.11,1.8-1.77,3.46-3.15,2.85l3.15-2.85Z"/>
        <path class="cls-2" d="M587.09,547.62c-.72-.84,1-3.31,1.38-2.37l.58,1.47c.17.42-1.66,1.24-1.96.9Z"/>
        <path class="cls-2" d="M872.15,548.81l-2.75,3.21c-.19-.9-.42-2.45,0-2.55l2.74-.66Z"/>
        <path class="cls-2" d="M768.86,491.86c-.6-.07,1.06-3.54,1.51-2.32l.56,1.52c.16.43-1.31.89-2.06.8Z"/>
        <path class="cls-2" d="M608.89,491.88c-.24-.14-.06-1.64.19-1.56l1.75.53c.4.12-.01,2.12-.37,1.92l-1.58-.89Z"/>
        <path class="cls-2" d="M642.87,484.2l-3.23,1.15.86-2.07c.23-.55,1.77.28,2.37.92Z"/>
        <path class="cls-2" d="M868.02,556.42c-.79.75-2.15,1.6-2.47,1.24l-1.56-1.77,4.03.52Z"/>
        <path class="cls-2" d="M478.95,541.3l-1.02,4.89c-.87-1.45-.9-3.77,1.02-4.89Z"/>
        <path class="cls-2" d="M643.07,545.93c-.26-.14.37-1.17.68-1.13l1.64.18c.45.05-.02,2.21-.42,1.99l-1.9-1.04Z"/>
        <path class="cls-2" d="M571.35,1075.36l1.05,5.08c-1.8-1.09-1.97-3.37-1.05-5.08Z"/>
        <path class="cls-2" d="M644.23,824.64c-.21.13-.42-1.59-.16-1.7l1.63-.71c.25-.11.68,1.12.44,1.27l-1.9,1.15Z"/>
        <path class="cls-2" d="M648.83,574.16l-3.03,2.81.27-2.1c.08-.59,1.54-.81,2.76-.71Z"/>
        <path class="cls-2" d="M759.07,745.8l1.08-1.09c.33-.33,1.58-.39,1.73.05s-.05,2.19-.48,2.01l-2.33-.97Z"/>
        <path class="cls-2" d="M760.82,566.58l-.57,2.19c-.14.52-1.2.71-2.74.45l3.31-2.65Z"/>
        <path class="cls-2" d="M488.59,661.73l1.24,1.91c.19.3-1.23.8-1.37.47l-.71-1.74c-.65-1.31-.3-1.66.84-.64Z"/>
        <path class="cls-2" d="M1091.37,640.86l-1.66,3.62c.04-1.09.33-3.12.86-4.1l.3-.56,1.78-4.61-.86,5.15-.42.5Z"/>
        <path class="cls-2" d="M557.04,744.14l-.1-1.8c-.03-.49,1.47-.5,1.95-.4.32.07.85,1.12.55,1.24l-2.4.95Z"/>
        <path class="cls-2" d="M614.46,826.5l-3.41,1.37c-.49-1.42,2.23-3.09,3.41-1.37Z"/>
        <path class="cls-2" d="M650.62,501.9c.38-.26.18,2.2-.29,2.12l-2.23-.38,2.51-1.74Z"/>
        <path class="cls-2" d="M751.75,652.77c.58,1.77-.77,3.69-2.54,3.69l2.54-3.69Z"/>
        <path class="cls-2" d="M632.22,562.86l-3.23,1.15.86-2.07c.23-.56,1.78.28,2.37.92Z"/>
        <path class="cls-2" d="M448.53,791.94l-2.46-3.83c1.74,0,3.16,2,2.46,3.83Z"/>
        <path class="cls-2" d="M855.17,524.6l1.32-1.48c.28-.31,1.07-.73,1.04-.35s1.19,1.89.81,1.88l-3.17-.04Z"/>
        <path class="cls-2" d="M742.43,736.95l-3.5,2.52.62-2.17c.15-.52,1.27-.69,2.88-.35Z"/>
        <path class="cls-2" d="M858.48,581.31c-.33.68-.94,1.9-1.33,1.71l-2.63-1.3,3.96-.41Z"/>
        <path class="cls-2" d="M534.18,730.15c.32.35.5,2.14.03,2.38l-2.25,1.15,2.22-3.53Z"/>
        <path class="cls-2" d="M661.34,812.84l-3.59.37c.39-1.43,1.92-2.76,3.59-.37Z"/>
        <path class="cls-2" d="M659.58,544.41l.1-1.75c.03-.47,1.27-.75,1.44-.27l.66,1.83c.16.44-2.23.65-2.2.19Z"/>
        <path class="cls-2" d="M795.23,560.06c-.35,1.86-.54,2.85-.41,1.84l-1.93-1.42c-.26-.19.17-1.46.46-1.33l1.88.91Z"/>
        <path class="cls-2" d="M721.48,571.53c-.35,1.86-.54,2.85-.41,1.84l-1.93-1.42c-.26-.19.17-1.47.45-1.33l1.88.91Z"/>
        <path class="cls-2" d="M527.39,728.19c-.23.35-.86,1.33-.79,1.23l-1.76-1.62c-.2-.18.27-1.49.48-1.32l2.07,1.71Z"/>
        <path class="cls-2" d="M957.68,673.29l-1.15,4.05c-1.08-1.21-1.31-1.4-1.05-1.68l2.2-2.37Z"/>
        <path class="cls-2" d="M849.65,940.73c.32.34.47,2.16-.03,2.41l-2.18,1.1,2.22-3.52Z"/>
        <path class="cls-2" d="M524.59,753.17l-.73,3.51c-.23-.02-1.89-1.68-1.4-2.02l2.14-1.49Z"/>
        <path class="cls-2" d="M849.79,537.53l-3.59.37c.39-1.43,1.92-2.76,3.59-.37Z"/>
        <path class="cls-2" d="M806.14,557.14c1.4-1.63,2.28-2.5,2.29-1.67v2.59c0,.36-.46-.08-2.29-.93Z"/>
        <path class="cls-2" d="M618.04,818.57c.64-.21-.12.04-1.48.49-.5.26-1.47.74-1.44.32.04-.55.06-2.32.43-2.13l2.49,1.32Z"/>
        <path class="cls-2" d="M694.78,519.25l-.82,2.95c-.18.66-2.12-.83-2.36-1.24l3.17-1.71Z"/>
        <path class="cls-2" d="M514.78,675.43c-.11-.03-.35-1.53-.1-1.62l1.66-.57c.25-.09.37.95.14,1.09l-1.71,1.09Z"/>
        <path class="cls-2" d="M630.05,756.76l-4.3.77c.79-1.95,2.89-2.37,4.3-.77Z"/>
        <path class="cls-2" d="M618.49,737.86c-.27-.12.12-2.01.37-1.87l1.61.88c.39.21.4,2.05,0,1.87l-1.99-.88Z"/>
        <path class="cls-2" d="M689.53,878.89l-1.02,4.89c-.87-1.45-.9-3.77,1.02-4.89Z"/>
        <path class="cls-2" d="M677.23,801.62l-3.24-.27c.16-1.75,2.86-1.7,3.24.27Z"/>
        <path class="cls-2" d="M673.54,585.09c-.13-1.07.52-2.78.82-2.41l1.21,1.44c.4.48-1.95,1.59-2.03.97Z"/>
        <path class="cls-2" d="M674.19,764.61l-3.37-.83c.06-.22,1.76-1.91,2.07-1.4l1.31,2.24Z"/>
        <path class="cls-2" d="M498.83,688.93l1.3-.29c.46-.1,1.16.8,1.21,1.27s-1.04,1.71-1.26,1.29l-1.25-2.27Z"/>
        <path class="cls-2" d="M667.68,829.48c-.31.02-.03-1.54.28-1.53l1.6.05c.32,0,.78,1.32.47,1.34l-2.35.14Z"/>
        <path class="cls-2" d="M575.95,727.68l-2.43,2.94c-.28-1.51.51-2.63,2.43-2.94Z"/>
        <path class="cls-2" d="M503.65,1272.68l-3.29.09,1.34-1.56c.29-.34,1.33.71,1.95,1.46Z"/>
        <path class="cls-2" d="M500.26,676.21l-.85,2.34c-.21.58-2.45.18-2.46.05l3.31-2.39Z"/>
        <path class="cls-2" d="M500.37,1265.3l-3.29.09,1.34-1.56c.29-.34,1.33.71,1.95,1.46Z"/>
        <path class="cls-2" d="M504.47,740.08l-3.29.1,1.34-1.56c.29-.34,1.34.72,1.95,1.46Z"/>
        <path class="cls-2" d="M508.93,683.95l-2.94-2.43c1.51-.28,2.63.51,2.94,2.43Z"/>
        <path class="cls-2" d="M507.35,739.47l.53-2.17c.1-.4,1.08.52,1.35.82.46.52-.52,1.37-1.88,1.35Z"/>
        <path class="cls-2" d="M496.36,684.73c-.23-.2.39-1.51.69-1.56.45-.08,1.23.1,1.36.53l.4,1.41c.12.44-2.1-.08-2.45-.38Z"/>
        <path class="cls-2" d="M497.83,750.26l-1.51,2.76c-1.49-1.06-.85-2.93,1.51-2.76Z"/>
        <path class="cls-2" d="M518.54,654.13c-.32.02-.03-1.54.29-1.53l1.6.05c.32,0,.78,1.32.46,1.34l-2.36.14Z"/>
        <path class="cls-2" d="M968.12,1215.96c-.25.6-2.33.15-3-.81.24-.59,2.33-.14,3,.81Z"/>
        <path class="cls-2" d="M525.47,777.94c.16,1.06-1.4,2.5-3.06,2.31l3.06-2.31Z"/>
        <path class="cls-2" d="M961.01,1208.85c-.32.02-.02-1.54.29-1.53l1.6.05c.32,0,.78,1.32.46,1.34l-2.36.14Z"/>
        <path class="cls-2" d="M953.64,1105.61c-.3.02-.04-1.54.28-1.53l1.6.05c.32,0,.78,1.32.47,1.34l-2.35.14Z"/>
        <path class="cls-2" d="M532.85,663.05l-.55,1.53c-.14.38-.87-.08-1.22-.41-.3-.28.18-1.11.47-1.38l1.31-1.07c.22-.18.08,1.07-.01,1.33Z"/>
        <path class="cls-2" d="M546.46,779.24c.82-.09,2.03-.05,2.02.38l-.06,2.6-1.96-2.99Z"/>
        <path class="cls-2" d="M551.18,757.67c-.7.86-1.64,1.87-1.93,1.55l-1.51-1.64,3.45.09Z"/>
        <polygon class="cls-2" points="556.11 563.26 551.87 563.04 556.09 561.87 556.11 563.26"/>
        <path class="cls-2" d="M488.23,1278.5c-.31.02-.03-1.54.28-1.53l1.6.05c.32,0,.78,1.32.46,1.34l-2.35.14Z"/>
        <path class="cls-2" d="M562.52,598.96c-.23.61-2.35.15-2.99-.8.2-.6,2.34-.13,2.99.8Z"/>
        <path class="cls-2" d="M563.98,553.43c.16,1.06-1.4,2.5-3.06,2.31l3.06-2.31Z"/>
        <path class="cls-2" d="M569.34,512.38c-.32.02-.02-1.54.3-1.53l1.6.05c.32,0,.78,1.32.46,1.34l-2.36.14Z"/>
        <path class="cls-2" d="M572.3,756.72l4.14,3.18c-.75.05-2.9-.53-4.07-1.12l-1.68-.84c-.3-.15,1.3-1.46,1.61-1.22Z"/>
        <path class="cls-2" d="M667.84,681.09c0,.12-.29-1.58-.34-1.86-.07-.43,1.34-.35,1.94-.26.29.04.44.36.22.55l-1.82,1.57Z"/>
        <path class="cls-2" d="M577.8,788.59c-1.07,1.13-2.69.5-3.67-.71l3.67.71Z"/>
        <polygon class="cls-2" points="602.85 793.35 599.51 792.43 599.55 791.39 602.47 792 602.85 793.35"/>
        <path class="cls-2" d="M467.8,640.77c.82-.09,2.03-.06,2.02.37l-.06,2.6-1.96-2.97Z"/>
        <path class="cls-2" d="M879.47,560.96l-2.21-2.33c.8-.17,2.55-.36,2.48.16l-.27,2.17Z"/>
        <path class="cls-2" d="M604.7,584.43c0,.12-.22-1.6-.27-1.89-.07-.42,1.21-.34,1.93-.26.3.04.43.37.2.56l-1.86,1.58Z"/>
        <path class="cls-2" d="M463.92,565.09c.59.29.16,2.32-.81,3.02-.58-.26-.14-2.31.81-3.02Z"/>
        <path class="cls-2" d="M614.79,868.89c.16,1.06-1.4,2.5-3.06,2.31l3.06-2.31Z"/>
        <path class="cls-2" d="M616.73,594.61c-.7.86-1.63,1.87-1.93,1.55l-1.52-1.64,3.44.09Z"/>
        <path class="cls-2" d="M855.35,613.97l-.14-1.95c-.03-.39.91.15,1.17.44l1.16,1.32c.26.3-2.15.58-2.18.19Z"/>
        <path class="cls-2" d="M852.59,596.51c-.25.59-2.33.14-3.01-.81.26-.59,2.33-.14,3.01.81Z"/>
        <path class="cls-2" d="M849.33,531.49l-.06,3.21c-.42-.25-1.94-1.67-1.51-2l1.57-1.21Z"/>
        <path class="cls-2" d="M845.49,1291.61c-.32.02-.04-1.54.28-1.53l1.6.05c.32,0,.79,1.32.47,1.34l-2.35.14Z"/>
        <path class="cls-2" d="M834.02,541.87c-.33.02-.04-1.54.28-1.53l1.6.05c.32,0,.78,1.32.47,1.34l-2.35.14Z"/>
        <path class="cls-2" d="M831.04,560.48c.62.93-.82,1.34-1.57.66-1.16-1.7.4-2.98,1.57-.66Z"/>
        <path class="cls-2" d="M626.67,577.2c-.66-.86,2.45-1.94,2.24-1.2l-.61,2.07c-.12.4-1.3-.45-1.63-.87Z"/>
        <path class="cls-2" d="M630.77,736.01l-1.17,1.06c-.33.3-1.4.83-1.26.42l.65-1.82c.15-.42,2.12.03,1.79.33Z"/>
        <path class="cls-2" d="M798.81,532.92c.26-.35.8,1.71.35,1.84l-2.16.61,1.81-2.45Z"/>
        <path class="cls-2" d="M782.25,615.53l-3.3.09,1.34-1.55c.29-.34,1.31.7,1.96,1.46Z"/>
        <path class="cls-2" d="M777.84,799.56c-.01-.13.3,1.56.36,1.84.09.42-1.38.35-1.94.26-.26-.04-.44-.36-.22-.55l1.8-1.55Z"/>
        <path class="cls-2" d="M778.23,676.19l-3.24,1.07c.26-1.18,1.15-1.88,3.24-1.07Z"/>
        <path class="cls-2" d="M772.86,555.57c.61.93-.82,1.34-1.57.66-1.15-1.7.4-2.98,1.57-.66Z"/>
        <path class="cls-2" d="M758.66,556.61l-.14-1.95c-.03-.4.91.14,1.17.44l1.16,1.32c.26.3-2.16.58-2.18.19Z"/>
        <path class="cls-2" d="M759,602.59c.16,1.06-1.4,2.5-3.06,2.31l3.06-2.31Z"/>
        <path class="cls-2" d="M755.29,492.45l-3.2,1.3,1.1-1.91c.31-.54,1.65.11,2.1.61Z"/>
        <path class="cls-2" d="M745.86,660.77c-.41-.03.08-1.73.5-1.77l1.51-.13c.57-.05-1.45,1.94-2.01,1.9Z"/>
        <path class="cls-2" d="M729.61,794.42l-1.62,1.96c-.16.2-.36.27-.56.15-.33-.19-.82-1.54-.46-1.61.79-.15,2.72-.52,2.64-.5Z"/>
        <path class="cls-2" d="M1108.44,1199.78l-3.25,1.07c.26-1.17,1.15-1.86,3.25-1.07Z"/>
        <path class="cls-2" d="M719.63,727.46c.04-.14.33,1.55.4,1.82.1.42-1.44.35-1.94.27-.26-.04-.45-.36-.23-.55l1.77-1.54Z"/>
        <path class="cls-2" d="M663.03,518.4c.59.23.13,2.34-.81,3-.6-.25-.16-2.33.81-3Z"/>
        <path class="cls-2" d="M710.12,568.93c.32,1.39.75,3.26.44,1.9-3.19.16-2.18-2.09-.44-1.9Z"/>
        <path class="cls-2" d="M702.15,587.07c-.16-.24-.06-1.81.22-1.72l1.86.58c.41.13-.19,1.39-.47,1.73s-1.37-.22-1.61-.59Z"/>
        <path class="cls-2" d="M702.09,727.88c-.31.02-.04-1.54.28-1.53l1.6.05c.32,0,.78,1.32.47,1.34l-2.35.14Z"/>
        <path class="cls-2" d="M1147.69,1117.81l-3.3.09,1.34-1.55c.29-.34,1.32.71,1.95,1.46Z"/>
        <path class="cls-2" d="M690.67,900.51c.83-.09,2.03-.06,2.02.37l-.06,2.6-1.96-2.97Z"/>
        <path class="cls-2" d="M686.52,483.78c.24-.34.83,1.69.39,1.81l-2.13.6,1.74-2.41Z"/>
        <path class="cls-2" d="M672.56,1203.11c-.32.02,0-1.53.32-1.53l1.6.04c.32,0,.78,1.33.46,1.35l-2.38.13Z"/>
        <path class="cls-2" d="M131.56,499.53l-.06,3.21c-.42-.25-1.94-1.68-1.51-2l1.57-1.21Z"/>
        <path class="cls-2" d="M573.38,564.15c-.25-.11.59-1.57.83-1.44l1.08.6c.35.2.39,1.84.02,1.68l-1.93-.85Z"/>
        <path class="cls-2" d="M499.68,710.67c-.32.02-.02-1.54.3-1.53l1.6.05c.32,0,.78,1.33.46,1.34l-2.37.14Z"/>
        <polygon class="cls-2" points="652.02 892.55 647.46 892.77 647.01 892.07 651.57 891.85 652.02 892.55"/>
      </g>
    </g>
  </g>
</svg>