<?xml version="1.0" encoding="UTF-8"?>
<svg id="Livello_2" data-name="Livello 2" xmlns="http://www.w3.org/2000/svg" viewBox="0 0 1344.84 1464.1">
  <defs>
    <style>
      .cls-1, .cls-2 {
        fill: #f15a29;
      }

      .cls-3 {
        fill: #fff;
      }

      .cls-2 {
        font-family: Manrope-Bold, Manrope;
        font-size: 421.97px;
        font-weight: 700;
      }
    </style>
  </defs>
  <g id="Livello_1-2" data-name="Livello 1">
    <g>
      <g>
        <rect class="cls-3" y="13.02" width="1344.84" height="1451.08" rx="81.63" ry="81.63"/>
        <text class="cls-2" transform="translate(552.67 362.89)"><tspan x="0" y="0">6</tspan></text>
      </g>
      <g>
        <path class="cls-1" d="M386.75,824.48l16.68-.81,12.92.19,47.59-1.4,61.78-.42,28.68-.43,34.14-.12,80.18-1.38,14.05-.17,86.46-1.29,40.76-1.39,38.05-1.21,126.78-3.97,46.36-.36,109.34.41,27.61.61,81.3,2.62,33.26-.1,31.82-.06c5.67-.01,11.21,0,16.72.23l-.1,11.02c-.02,2.04-1.13,4.63-2.42,6.26.56.2,2.2,2.49,2.15,3.69l-.4,8.35c-.06,1.25-3.37,2.28-4.68,2.23-14.31-.5-27.81-.22-41.94.18l-32.81.92-45.92-1-68.25.1c-27.18.04-53.46.59-80.57-.68-16-.74-31.16-.93-47.12-.93h-60.79s-59.53.61-59.53.61l-103.49,1.9-67.84-1.19-32.89-1.53-38.72-1.53c-22.66-.9-44.37-.27-67.1.18l-53.41,1.06-26.75.28-37.87,1.6-25.01-.97-24.33-1.36-18.31,20.69c-1.27,1.44-2.78,3.12-3.88,4.62l-11.07,15.03c-8.09,10.97-17.23,20.81-26.34,31l-9.76,10.92c-15.62,17.48-30.69,34.7-47.04,51.76l-60.9,63.56c-3.08,3.21-6.76,5.81-8.64,9.63-1.84,3.74-1.42,12.91-3.73,11.28-.29-.21-.99-.92-1.07-1.22l-1.52-5.42c-8.05,8.16-16.48,15.02-23.37,24.06l-19,24.92c-16.46,21.6-53.38,58.49-75.09,83.88l-11.37,13.3c-6.15,7.19-12.59,13.58-19.66,20.02l-16.9,15.4-25.22-.12c3.23-4.85,6.27-9.38,9.86-13.97l32.02-40.97c6.95-8.89,13.76-17.02,20.1-26.32,10.86-15.94,23.95-28.95,37.25-42.66,6.91-7.13,12.2-14.95,19.88-21.48,7.18-6.11,13.32-12.92,20.19-19.43,6.94-6.58,12.8-13.9,19.35-20.95l10.4-11.21,24.67-25.29.02-21.89,1.52-8.92c1.19-6.98-5.43-61.3-6.31-74.55-.78-11.78-.6-23.08.53-35.01l-23.32,11.87c-3.61,1.84-6.71,5.03-10.84,3.97-.52-5.16-1.88-9.9-2.99-15.17-3.75-17.86-5.02-35.89-5.75-54.1l-.77-19.5c-.06-1.59,3.9-.81,5.04-1.27,6.03-3.65,13.82-7.95,20.62-11.62l50.66-27.33c7.1-3.83,13.19-7.6,19.88-12.13,4.67-3.17,23.55-15.13,27.71-14.82,1.02.08,1.94,1.85,3.13,2.68.73.51,2.62,1.35,3.39,1.78.92.52,1.13,2.96.93,4.26-1.86,12.34,0,26.16,1.87,38.64.42,2.77.39,4.59.21,7.66,1.32-1.69,1.74-2.04.9,0,2.48,8.61,3.59,17.59,4.67,26.19.32,2.51,2.35,7.9-1.89,8.55-3.92.61-8.34,1.11-12.05,3.64l-19.25,13.11.37,5.97c.35,5.6.8,10.77,2.06,16.28.49,2.14.37,3.87-1.47,5.06-1.62,1.05-3.12.46-5.02-1.21l-1.95,5.16c-.39,1.03-1.95,3.05-3.01,3.36-1.05.32-3.13-.39-4.59-.71l-2.5-.56c-2.28-.51-.95,8.59-7.41,8.43l-6.97-3.98-3.05,6.2c-.82,1.67-3.99,5.66-6.42,3.54-3.77-3.28-5.29-9.36-7.87-14.17-.04-1.92-.2-1.93-.96-.33l-.62,15c-.54,13,.11,25.56,1.65,38.54,1.56,13.12,1.68,25.47,1.41,38.63-.23,11.44.72,22.72,1.32,34.04.69.3,1.74.75,1.54.66l13.22-13.14,4.76-4.59c6.95-6.7,13.46-13.4,19.85-20.61l11.8-13.31,13.64-14.55,30.96-35.84c7.37-8.53,13.83-16.87,21.82-24.84,5.03-5.01,8.64-11.27,13.47-16.51l21.07-22.86c1.95-2.11,4.96-5.76,6.45-7.69.23-.3,2.38-.49,2.46-.86l.54-2.33ZM296.18,818.44c-.84-9.68-2.67-17.98-4.45-26.74-2.93-14.36-4.12-35.07-2.38-50.94-9.16,4.73-17.54,9.37-25.85,14.91-3.7,2.46-7.14,5.69-11.12,7.86l-35.59,19.32-10.58,5.51-4.21,1.9c.71,1.14,1.34,1.96.81,2.23l-2.5,1.3,1.44-3.28-11.33,5.48c-7.38,3.57-14.22,7.69-19.69,13.75l2.31,35.74c.82,12.7,2.77,24.79,6.3,37.1,15.06-6.48,24.1-12.99,38.6-19.56l-8.04-26.82c-.35-1.18-1.93-3.11-1.74-4.13.17-.87,1.91-2.28,2.24-3.17,1.89-5.07,4.83-9.78,9.78-12.6,19.16-10.89.67-2,21.82-9.2,3.29-1.12,8.31-2.47,11.52-1.45,7.41,2.34,10.35,10.04,11.7,16.81l2.45,12.39,10.97-6.89c5.69-3.58,10.97-6.44,17.51-9.52ZM212.31,1053.63c-.78-.18-1.23,2.25-.98,3.83,1.03.28,3.93-3.14.98-3.83ZM215.27,873.35c-2.42,8.68-2.75,21.31-2.03,30.95l.89,12,1.02,12.12c1-4.76.02-9.58-.18-14.68-.64-16.01.14-24.8.29-40.39ZM215.35,984.97c-1.02,7.99-2.64,23.51-.28,29.41,1.5-10.06,1.35-19.7.28-29.41ZM256.79,818.42c-.82-4.04-3.55-7.55-8.58-6.88-7.3.97-13.52,4.89-20.27,7.92-3.25,1.46-6.79,1.61-9.02,4.67-1.79,2.46-3.94,6.81-1.56,9.95,7.93,10.45,31.46-4.67,39.62-10.37.64-.44,1.58-2.14,1.37-2.84-.17-.56-1.42-1.81-1.55-2.45ZM236.93,869.93l.71-6.17c-7.99-5.88-12.45-13.4-18.46-21.09-.14,5.13,3,8.35,5.86,11.81l5.76,6.97,2.99,4.58.95-3.34,2.18,7.23ZM227.1,868.39c.68,3.09,1.95,5.13,3.46,7.55l1.96,6.15c.77-.85,1.91-2.88,1.92-3.95,0,.47-6.45-10.03-7.34-9.74ZM241.28,842.74l1.63,3.31c1.29-1.57,1.15-3.01-.07-4.45-.76-.9-2.74-1.49-3.93-1.15l-11.06,3.1,10.04,12.33,4.81-6.74c.18-.25.47-1.65.52-1.95s-.81-.5-1.08-.37l-1.37.68.5-4.76ZM245.59,871.33c-1.03,2.01-1.2,4.2.26,4.75.71.27,2.25-2.21,1.71-2.75l-1.97-2ZM252.74,858.36c.35-2.05.14-4.75-2.07-5.51l-2.49,4.61-.18-6.55c-1.94,3.77-2.49,7.69-2.39,12.04l.89-4.22,4.84,4.4c-1.19.81-3.23,1.99-2.65,2.53l2.4,2.2,1.64-9.49ZM256.19,832l-4.07,2.27-.89,7.32,3.33,4.86c1.59-5.16,2.44-9.35,1.62-14.45ZM257.73,860.08l-.44,9.44c1.05.15,1.86.34,2.05-.05l1.04-2.17c.45-.93,1.16-3.76.73-4.72s-1.89-1.83-3.38-2.5ZM261.94,843.78c-4.07,4.88-2.14,10,2.55,12.18l-2.55-12.18ZM1011.68,831.94c-6.97-.77-13.55-1.1-20.31.32l20.31-.32ZM1167.48,832.72l-17.26-.37c1,1.61,1.94,1.17,3.67,1.08l13.58-.72Z"/>
        <path class="cls-1" d="M925.1,445.7l-23.75-.18-19.89-.03-67.99,1.61c-29.71.71-58.24,2.23-87.82,4.28-15.29,1.06-29.85,1.14-44.43,4.27l1.11,22.56c3.27-.34,5.48-.98,7.91-1,18.76-.21,36.51-.68,55.25-2.73,38.65-4.22,76.47-4.51,115.29-3.15l62.13,2.17,79.04.69,44.22.85,88.66,1.79c37.71.76,74.31.36,111.9-1.81,10.75-.62,21.05-.46,31.58.12l42.3,2.31c1.79.1,3.69,1.55,3.68,2.77-.03,2.49-1.78,3.34-4.21,3.21l-42.34-2.34c-12.11-.67-23.9-.54-36.01-.02l-42.6,1.83-121.01-1.07-61.09-1.66-36.47-.37-49.93-.3-58.91-1.78-36.78-1.31c-29.64-1.06-58.66.89-88.07,3.88-18,1.83-35.06,2.47-53.18,2.42-3.55,0-7.25,1.15-11.24,1.64l.33,13.33c.09,3.58-.07,7.6-.35,11.25l-1.84,23.98c-.49,6.33-1.94,13.34-.15,19.3,1.02,3.39.64,4.24-.44,7.36-3.03,8.72-2.02,28.65-2.49,31.46-.14.81-2.64,1.56-3.64,1.48l-40.42-3.58-76.69-3.19-92.12-.4c-6-.03-11.41,0-17.33.17l-35.27,1.06-38.31,1.65-52.97.45-50.5.45c-13.8.12-27.01.14-40.86.49l-20.7.53c-6.95.18-13.7-.61-20.53-.01-19.28,1.7-38.09,2.45-57.45,3.36l-21.94,1.03-60.24,4.24c-7.34.52-14.33-.32-21.59,1.02-1.02.19-3.32-.1-4.02-.67-.84-.69-1.13-2.84-1.23-4.77,8.11-1.24,15.96-1.09,24.36-.94,8.93.16,17.49-1.32,26.52-1.92,18.88-1.25,37.12-2.55,56.02-3.6l55.18-3.08,68.9-1.58,69.75-.61,42.15-.34,72.2-2.65,35.64-.33,75.7-.13,41.82,1.41c26.72.57,52.73,2.07,80.39,5.37.18-9.05,1.22-17.49,3.43-26.33l-110.82-5.92c-17.5-.93-33.66-2.54-51.01-2.44l-47.98.28-48.48,1.2-39.94.43-22.07.42-48.35.37-96.34,2.46-25.12,1.5-103.26,3.57-51.73,5.18c-2.54.25-4.51-2.63-3.56-4.85l59.5-6.18,19.05-.54,32.64-1.07,52.55-2.18,27.64-1.64,36.2-.94,68.86-1.3,66.34-.93,45.75-.72c24.97-.39,49.02-1.53,73.99-1.31,17.69.15,34.04,1.31,51.78,2.23l113.28,5.88,3.25-42.43c.95-12.47.83-24.33-.02-36.8l-.45-17.04.93-6.37c15.62-3.62,31.42-4.03,47.53-4.99l60.99-3.66,74.88-1.88c19.06-.48,37.04-.93,56.31-.43,47.39,1.23,93.78,3.92,141.16,7.02,32.04,2.1,62.66,2.71,94.98,1.4,57.51-2.34,115.64-.88,172.61,5.55,1.98.22,2,5.64-.48,5.45l-29.4-2.3c-47.08-3.68-93.11-4.78-140.3-2.83-42.03,1.73-83.03-.31-124.81-2.85l-42.34-2.57-62.39-2.65Z"/>
        <path class="cls-1" d="M1006.62,698.49c-6.05,1.59-6.1,2.23-10.07,8.86-2.04,3.42-4.02,6.61-6.18,9.82l111.67,3.16,74.11,4.19,81.6,1.94,57.98,2.26c2.44.09,4.34.7,4.5,2.74.18,2.23-1.37,4-3.63,3.92l-35.41-1.25-43.03-1.32-53.54-1.43-43.97-2.35c-61.09-3.26-121.55-5.4-182.64-5.2l-19.16.06c-19.84.07-39.1.47-59.02,1.79-17.23,1.14-33.6,1.17-50.77,1.5l-49.56.94-83.99.36-17.64.47-31.57.45-86.69.38-28.75.37-56.8-1.2c-15.85-.33-30.67.66-46.58.22l-66.65-1.84-41.83-.23c-4.32-.02-8.63-.49-13-.4l-87.77,1.84-49.16,1.07c-11.96.26-23.06,2.19-35.06,2.59l-106.99,3.63c-1.75.06-4.69-.57-5.25-1.69s-.79-3.84-.64-5c6.76.43,12.21.62,18.7.51l18.15-.3,41.12-1.26c16-.49,31.47-1.28,47.57-3.05,11.41-1.25,22.18-1.43,33.62-1.64l47.33-.89,32.27-.42,34.98-1.31,35.36.53c26.98.41,53.02.06,80.07,1.45,20.54,1.06,39.82.64,60.29.14,15.5-.37,30.42.94,45.83.92l38.48-.06,91.37-.34,47.52-.89,79.2-.46,67.99-1.34c11.48-.23,22.28-.66,33.63-1.29l17.67-.97,21.73-.58,56.2-.37c.31,0,1.77-.33,1.57-.54l-1.12-1.16c-1.21-1.26-2.53-3.84-2.39-5.75.11-1.52,1.84-3.69,3.39-5.04,11.04-9.6-2.04-10.52,2.99-23.79,3.77-9.93,21.05-12.43,30.13-11.9,2.08.12,5.88,2.23,7.67,3.37,5.37,3.44,6.83,9.4,4.78,15.01-1.83,5-5.27,9.36-10.61,10.76ZM1003.69,674.89c-7.47.46-15.47,1.13-21.47,5.55-3.42,2.52-2.56,8.16-.9,11.36,5.33,10.32-3.02,13.27-6.91,19.44,19.59,5.42,14.14-14.98,29.5-18.81,5.24-1.31,8.53-6.95,7.47-12.31l-7.69-5.23Z"/>
        <path class="cls-1" d="M362.56,628.81c.21,4.06-2.88,8.04-5.56,10.56-10.58,9.97-10.11,18.75-17.39,21.86-10.61,4.53-26.19-5.45-30.29-13.99-6.66-13.86-11.67-9.47-15.86-18.17.27,7.33-2.71,9.67-1.85,14.19,5.25,2.89,8.55,8.83,6.13,14.69-1.84,4.47-9.69,6.64-13.94,7.4l-9.93-1.5c-11.28-1.7-28.35-12.75-29.04-26-.52-9.93,10.57-17.43,18.42-21.01,12.62-5.76,18.79-23.88,23.45-15.61,4.22,7.49-2.14,13.11-1.66,18.42.38,4.2,7.33,3.03,7.73,8.43.02-3.73.63-8.2,3.24-11.06,7.76-8.5,14.41.43,21.66-8.13,8.61-10.18,17.8-14.03,30.37-9.97.66.21,1.83,2.59,2.39,2.25l2.73-1.62c1.02-.61,3.25,1.5,3.81,2.57,1.77,3.35-3.72,8.64-2.57,13.66,3.92,3.7,7.84,7.04,8.15,13.04ZM286.12,633.38c2.43-6.1-10.32-4.98-8.01-18.81-5.05,4.78-9.91,8.02-16.11,11.06-5.14,2.52-10.86,8.27-9.9,14.58.52,3.42,4.56,8.13,7.33,10.13,6.27,4.49,25.07,13.23,31.45,4.93,1.68-2.18.13-5.24-1.94-6.53-5.85-3.68-4.94-7.7-2.82-15.35ZM348.35,617.07l-2.42-11.05c-8.56-6.83-18.65,2.24-24.53,9.17-7.96,9.39-21.28-2.56-21.16,13,17.94,9.85,8.65,18.67,29.54,27.16,2.74,1.11,6.17,1.16,8.01-1.63l7.9-12.03c2.28-3.46,5.32-6.45,8.31-9.7,5.65-6.13-4.48-9.57-5.65-14.92Z"/>
        <path class="cls-1" d="M254.76,693.65c9.7,1.5,7.97,13.03,7.57,13.66-1.48,2.29-5.11,5.8-7.76,6.68-16.38,5.46-16.62,5.98-33.07,1.74-8.22-2.12-16.09-4.63-23.92-7.7-4.05-1.59-7.74-4.9-11.91-6.19-6.33-1.96-12.32-.66-18.68.31-4.93.75-19.99-4.31-23.6-10.51-3.35-5.74.19-11.98,4.3-16.06,10.07-10,22.67-3.64,36.39-.8,11.39,2.36,22.26,3.89,33.21,8.47l20.5-9.92c3.52-1.7,10.27,2.3,12.12,5.15,4.14,6.36-2.33,14.07,4.85,15.17ZM243.93,681.23c-.41-3.69-6.02-1.95-8.24-.63-2.6,1.55-27.61,15.93-27.89,8.95l-.14-3.61c-14.79-4.22-19-2.58-35.02-7.47-6.01-1.83-12.11-3.61-18.15-.5-3.26,1.68-7.82,7.56-5.25,11.32,4.51,6.61,14.44,7.58,21.81,6.24,8.36-1.52,16.36-.37,23.24,4.33,4.27,2.92,8.89,4.51,13.84,6.01,14.21,4.3,30.82,10.48,44.88,1.72,1.22-.76,2.81-2.5,3.06-3.61.24-1.11-.81-3.73-1.53-4.4-4.8,1.03-8.78-2.01-9.31-6.76l-1.29-11.59Z"/>
        <path class="cls-1" d="M869.21,573.68c5.47,1.88,8.18,4.47,9.65,9.35,3.67,12.19-5.05,22.19-14.87,28.69-5.7,3.77-9.63,16.78-22.2,14.61-5.92-1.03-12.02-2.05-17.83-3.62-6.05-1.63-11.74-4.91-18.14-4.8-4.9.09-20.57,1.44-20.88-6.65-.27-6.9,4.01-10.94,7.46-16.05,3.89-5.76-5.62-23,5.66-30.42,12.06-7.94,27.47-6.04,39.1,1.88,2.53,1.72,6.16,3.59,8.54,4.22,2.47-2.54,3.89-3.46,6.83-2.22,2.77,1.16,6.02,1.34,8.99,2.37l7.68,2.65ZM858.39,577.67c-9.42,1.58-16.53-.02-24.32-5.34-9.91-6.76-23.34-8.88-33.34-1.31-5.87,4.45,2.43,21.18-2.52,28.18-2.53,3.58-6.47,5.87-6.82,11.25,4.51,1.23,9.26.87,14.38.81,7.29-.09,14.09,3.56,21.07,5.05l14.45,3.09c7.48,1.6,11.36-8.72,21.75-16.27,4.83-3.5,9.5-8.64,10.23-14.38,1.12-8.86-8.61-9.92-14.87-11.08Z"/>
        <path class="cls-1" d="M436.86,663.56l2.2-3.34c1.04,2.85-1.57,3.53-2.68,5.06-3.48,4.8-7.55,8.35-12.93,11.31l-2.79,8.09c-1.89,5.49-4.38,9.21-10.68,10.36-7.96,1.45-16.3,1.66-24.72,1.1-5.26-.35-4.62-6.51-10.62-14.5-3.03-4.04-7.37-5.57-12.24-7.01-5.24-1.56-8.16-8.86-6.97-13.92,1.27-5.42,6-9.48,11.93-10.04,4.17-.39,6.7-2.62,8.6-6.22,3.15-5.97,9.06-11.16,16.27-10.71,10.15.64,19.5,6.46,27.39-3.29,2.04-2.51,6.04-5.68,9.2-4.67,4.37,1.4,2.54,5.88,1.75,8.51-2.2,7.24.54,14.22,3.66,20.57,1.15,2.33,1.5,5.16,2.64,8.69ZM423.65,668.51c2.32-1.77,5.89-4.96,5.54-7.61-3.04-7.56-5.43-14.25-6.27-22.74-7.05,5.16-15.65,5.28-23.73,2.89-13.98-4.13-15.51,5.68-20.95,12.18-3.38,4.04-13.81,2.18-15.76,8.38-.72,2.29-.18,6.64,2.29,7.2,13.03,2.98,16.42,9.58,21.9,20.77l3.86-.75c2.72,2.35,15.46.9,19.07-.31,1.37-.46,3.51-3.66,3.76-5.06.43-5.96,3.45-12.47,10.3-14.96Z"/>
        <path class="cls-1" d="M1061.44,614.29c7.86,5.89,9.29,16.42,3.38,24.21-7.4,9.75-19.72,11.41-31.59,17.89-11.69,6.38-28.33,1.72-36.05-11.36-2.53-4.29-6.11-8.63-11.08-10.38-8.17-2.88-13.15,3.42-24.15-3.44-3.15-1.96-7.04-4.73-6.47-8.92.76-5.49,6.29-6.67,10.17-8.97,5.61-3.31,10.81-7.62,17.6-6.62,8.1,1.19,15.39,2.62,23.29,5.49,5.54,2.01,11.45,7.72,17.9,6.76,12.01-1.77,32.56-17.06,37-4.67ZM1058.03,637.61c6.06-5.41,5.76-13.42.27-19.02-2.69-2.75-5.86-4.29-10.01-2.6-16.32,6.63-23.74,14.21-38.36,4.67-7.96-5.2-16.41-7.64-25.87-8.26-11.64-.76-14.1,3.51-20.34,12.99,7.88,8.15,19.96-2.91,30.9,7.8,8.91,8.72,6.73,10.85,14.48,17.37l2.33-1.48c4.36,6.81,16.22,3.36,22.48.37,9.68-4.62,18.15-6.51,24.12-11.84Z"/>
        <path class="cls-1" d="M1308.88,570.62c-7.91,2.48-4.05,11.4-7.57,17.46-2.61,4.5-10.22,9.76-15.95,11.43-6.87,2-15.5,2.22-21.94-.59l-11.77-5.12c-2.45-1.07-4.23-4.31-6.98-7.01l-.15,5.68c-.96-.57-2.31-2.27-2.36-3.28s2.1-2.71,2.37-3.73c1.34-5.02,1.44-11.69,1.93-17.04,1.07-11.8-5.06-11.44-5.45-16.09-.08-.91,2.29-2.42,3.2-2.23l4.85,1.05c.63-3.89.69-8.36,1.79-11.79,1.89-5.9,9.24-7.88,14.79-8.28,8.78-.64,15.77,3.07,22.93,7.43,2.63,1.6,5.18,3.39,7.17,5.68,9.65,11.15,18.5-3.52,23.1,4.81,1.04,1.88,2.66,5.71,2.57,7.89-.3,7.18-6.26,11.77-12.53,13.74ZM1288.72,547.1c-9.85-7.17-15.71-11.73-27.72-9.53-7.53,1.38-3.97,10.7-6.61,17.61-1.09,2.86-.74,4.44-.67,7.35l.25,9.92c.1,4-6.22,12.6,2.27,16.38l11.69,5.21c4.74,2.11,12.31,1.2,17.23-.74,5.46-2.16,9.9-7.76,11.42-13.13,2.4-8.48-2.21-9.45,13.91-16.4,4.15-1.79,5.74-7.77,3.41-11.43-12.48,4.27-13.79,3.04-25.18-5.24Z"/>
        <path class="cls-1" d="M644.44,631.07c-4.02,3.46-7.81,6.96-11.88,9.62-3.44.06-5.71,1.47-9.06,2.82-17.98.58-12.55-9.23-29.26,2.33-2.97,2.05-7.04,3.79-10.13,5.22-10.34-2.25-.99,2.36-14.41-2.31-3.51-1.22-8.74-2.95-9.84-7.22-1.45-5.62-.84-13.75,2.94-18.58,3.84-4.9,10.45-8.3,16.31-10.13,4.69-1.47,9.36,1.47,13.63,2.5l12.17,2.95,10.68-6.11c8.27-4.73,33.65-12.65,35.61,3.32.83,6.74-1.78,11.29-6.77,15.59ZM607.9,625.12c-3.91,3.33-9.24,4.84-13.78,1.46.12-1.06,1.54-2.7,3.01-4.26-9.9-1.6-13.95-7.22-22.23-.72l-6.79,5.32c-2.17,1.7-4.39,13.5-1.28,14.23.34.08.91-.06.99-.39l.56-2.32.87,3.42c.62,2.44,11.7,4.69,22.23-2.44,17.31-11.71,21.33,1.33,34.75-4.01,6.77-2.7,12.27-7.29,17.22-12.66,2.1-2.27,2.43-8.63-.75-9.52-11.15-3.12-26.98,5.21-34.8,11.88Z"/>
        <path class="cls-1" d="M780.24,572.15c5.64,14.33-8.02,16.23-5.17,22.1l5,10.3c1.93,3.97-2.57,8.49-6,10.1-7.21,3.4-15.3,4.18-23.13,2.86-8.79-1.48-15.06-8.03-16.89-16.66-.44-2.09-1.97-4.49-3.26-6.22-9.29-12.48-17.62-1.41-26.87-10.38-3.44-3.34-4.47-7.38-3.97-12.49.53-5.41,3.76-7.91,8.44-9.98,32.48-14.36,23.49,3.57,51.54,3.4l10.52-.06c5.09-.03,8.09,2.7,9.79,7.02ZM773.06,583.49c2.84-2.56,4.08-9.75-.75-11.15-5.97-1.73-20.71,1.93-34.24-5.57-4.52-2.51-7.81-5.22-13.45-3.78-6.02,1.55-12.42,3.4-17.27,7.58-1.69,1.45-1.47,6.28-.44,7.96,4.48,7.25,13.17-3.04,25.44,8.71,11.46,10.97,5.6,18.92,17.38,22.96,7.76,2.66,17.05,2.12,23.95-2.86.26-5.77-10.81-14.67-.63-23.86Z"/>
        <path class="cls-1" d="M1235.56,614.2c-1.25,2.21,6.46,3.62,8.33,6.45,2.1,3.18,3.62,7.92,3.46,11.37-.29,6.17-4.75,9.4-8.77,12.53-3.59,2.79-7.51,3.72-11.93,4.99-3.67,1.06-6.84,2.01-10.68.79-14.06-4.49-12.42-1.75-17.75-3.61-3.15-1.1-7.01.58-8.74,3.55l-8.08,1.89c-9.12-3.2-19.49-14.56-17.07-24.73-4.56-8.62,20.48-15.93,25.65-17.02,5.83-1.24,10.84-2.6,15.65-6.05,10.36-1.68,3.03-12.23,11.76-15.84,5.01-2.07,12.05-1.14,16.54,1.86,7.76,5.18,1.36,15.54,2.67,21.98l-1.05,1.85ZM1232.71,598.1c1.02-5.41-11.46-3.87-14.35-3.41l-2.52,10.55c-14.77,12.65-28.48,8.78-43.58,19.06l-1.68,6.45c-1.43,5.52,2.17,9.25,5.92,12.39,8.78,7.34,10.95-7.48,29.74-1.97,4.48,1.31,9.93,2.68,14.52,3.44,7.28-2.06,13.36-5.99,19-10.57,2.64-2.14,2.77-8.27-.32-9.43-7.03-2.63-10.25-7.87-8.85-15.25l2.12-11.25Z"/>
        <path class="cls-1" d="M498.36,629.14c2.73,1.08,2.89,6.87,2.56,10.09-1.28,12.17-11.88,9.63-10.16,17.75.6,2.83.32,5.98-1.54,8.09-4.01,4.55-19.51,6.2-22.82-1.04-3.21-7.02-8.95-12.18-17.46-11.1-1.27.16-4.64-.34-5.45-1.33-4.24-8.24-5.25-18.52-3.09-27.53,2.91-12.11,14.74-9.43,26.72-12.5,4.41-1.13,8.26-4.91,11.69-7.56,6.42-4.96,14.08-3.96,18.91,2.49,2.05,2.73,1.52,6.11.48,9.75-2.42,8.53.01,2.09-2.84,11.6-.23.77,2.25,1,3,1.29ZM492.81,641.29c2.16-2.1.89-5.91-.78-7.7-6.61-7.1-1.1-12.8.51-22.49.26-1.56-2.85-3.89-4.37-3.79-1.35.1-4.34.97-5.31,1.97-13.88,14.26-29.19,7.4-33.41,13.11-5.07,6.86-4.17,16.37-1.34,23.77,25.25.42,19.17,15.53,27.31,16.32,2.99.29,4.87-.61,7.25-2.55,3.64-2.96-.13-8.24,2.17-10.77,2.25-2.48,5.33-5.29,7.98-7.86Z"/>
        <path class="cls-1" d="M238.91,626.05c-3.66,8.14-11.1,11.79-8.03,21.1,1.63,4.97,1.72,11.32-2.41,15.42-3.54,3.52-9.55,7.63-14.8,7.73-20.46.38-31.67-3.8-45.38-19.75-2.13-8.83,1.47-16.55,7.29-22.77,8.35-8.93,17.95-15.25,28.21-21.71,3.4-2.14,4.6-1.8,8.02-2.04,6.75-.47,13.99-4.26,20.79.52,6.16,4.33,9.73,13.88,6.31,21.49ZM229.91,609.96c-4.73-3.52-16.32-1.38-15.8,2.95l-4.74-2.52c-5.34,3.14-11.46,5.99-16.13,10.12l-9.67,8.57c-4.56,4.05-11.77,12.47-8.74,19.46,3.11,7.17,13.32,11.69,20.46,14.01,5.36,1.74,10.54,1.65,16.16,1.76,2.43.05,5.91-1.84,8.08-2.86,4.85-2.27,6.56-6.54,5.11-11.68-3.48-12.38,1.46-15.29,8.41-27.44,2.11-3.69.16-9.89-3.16-12.36Z"/>
        <path class="cls-1" d="M488.75,686.26c7.25.13,14.33-4.22,19.33,1.08,1.76,1.87,2.1,4.93,2.2,7.68.17,4.79-2.02,8.31-7.1,8.6l-8.88.51c-2.55.15-1.06,4.17-1.74,5.54-1.94,3.9-8.72,3.05-11.84.44l-7.16-6.01c-6.4-5.38-12.84,4.74-28.11,1.4-8.56-1.87-13.6-7.76-14.78-16.54-1.09-8.05,3.73-17.42,11.27-21.57,5.78-3.17,10.88,10.18,16.39,10.69,5.67-2.94,13.88-10.64,19.75-3.44l3.02,3.7c1.19,2.84,3.53,7.87,7.66,7.94ZM479.9,688.25l-7.03-9.97c-4.67-2.67-10.85,11.28-20.61,3.95-3.07-2.31-5.56-5.6-8.25-8.83-6.52,5.53-9.05,14.48-4.52,21.85,3.66,5.95,15.32,5.02,22.21,2.26,5.78-2.32,12.26-1.66,16.93,2.37l5.83,5.03c9.62-13.76,19.82-2.59,19.7-10.28-.16-10.09-16.39,4.78-24.26-6.39Z"/>
        <path class="cls-1" d="M877.85,512.9c1.88,4.83.67,7.96-1.85,11.19-4.2,5.38-8.74,11.71-15.96,12.49l-12.45,1.36c-12.14,1.33-40.94,12.1-55.56,1.62-11.05-7.91-12.61-25.23-2.3-34.5,5.13-4.61,12.19-7.42,18.54-9.76,5.47-2.01,11.53-1.46,17.24-1.74,4.74-.23,8.61,1.16,12.98,2.27,12.81,3.23,34.7,5.07,39.36,17.07ZM872.51,513.83c-4.69-7.69-28.68-10.62-37.11-12.24l-3.34-2c-15.4-1.29-24.56-.36-37.54,8.71-7.73,5.4-9.31,17.79-2.46,24.51,10.32,10.12,39.23,2.64,52.63-.55,11.01-2.62,17.12,1.39,24.83-8.81,1.77-2.34,5.18-6.05,3-9.63Z"/>
        <path class="cls-1" d="M931.48,506.94c5.12,18.18-12.71,20.01-9.3,29.37l4.15,11.39c1.13,3.11,1.41,10.15-2.53,11.83-4.69,2-10.41,3.13-15.6,3.98-7.82,1.28-34.82-1.79-34.24-14.36.4-8.61,18.07-13.94,9.93-30.71-4.44-9.14-2.1-20.35,7.45-25.37,2.31-1.21,6.68-2.22,9.43-2.5,6.14-.64,11.8,1.35,17.52,3.17,6.51,2.07,11.59,7.53,13.19,13.2ZM895.96,499.98l-3.92-1.21c-9.61,10.74-3.76,13.18-1.07,24.02,2.01,8.11-2.39,16.17-7.92,21.94-1.66,1.74-3.1,4.01-3.87,6.07,2.67,3.57,6.96,3.74,10.84,4.89,9.13,2.71,17.88,2.62,27.11-.26,1.4-.44,3.89-.51,4.11-1.62,1.18-6.11-3.71-9.58-4.65-19.76-1.16-12.65,9.46-8.7,10.25-22.22.17-2.98-2.11-8.13-5.33-9.83-5.38-2.84-21.67-8.71-25.54-2.01Z"/>
        <path class="cls-1" d="M178.2,610.55c-1.18,7.96-6.73,13.95-12.76,18.3-3.11,2.24-4.25,4.27-5.54,7.62l-3.95,10.25c-1.03,2.67-3.25,4.58-6.2,4.96l-29.98,3.93c-5.38.71-11.4-5.58-12.11-10.7-.48-3.41.2-7.24.58-10.29.71-5.58,4.08-7.74,8.91-9.53,5.19-1.93,9.19-6.95,13.57-10.14,2.12-1.54,3.94-2.8,5.8-4.69,6.55-6.66,14.81-11.79,23.86-14.49,4.56-1.36,9.07.26,12.76,2.98,2.93,2.15,5.83,6.53,5.06,11.8ZM170.95,604.18c-7.39-7.35-18.12.93-24.1,5.56-3.68,2.85-8.35,5.28-9.05,11.3-.91.1-3.72-.13-4.39.47-4.2,3.73-11.3,9.24-17.39,11.02-2.27,4.47-3.61,13.05.54,15.95,3.78,2.65,15.26.02,20.05-2.34,1.6.32,3.8.3,5.49-.19l7.45-1c6.97-22.78,6.5-15.19,19.04-28.23.15-.16,5.12-9.78,2.35-12.54Z"/>
        <path class="cls-1" d="M1226.35,562.74c6.89-2.48,8.25-11.72,7.62-18.68l-6.05-6.2c3.66-1.9,9.08-1.55,10.42,2.82.89,2.9,2.47,10.47.86,13.65l-3.28,6.52c-1.07,2.12-2.42,6.12-4.66,6.85-7.63,2.52-15.04,4.57-21.61,9.01-4.23,2.86-7.83,6.4-12.09,8.95-2.73,1.64-5.21,4.05-7.83,6.22-10.28,8.52-1.48,4.99-14.92,9.47-5.73,1.91-12.33,2.18-17.12-2.08-5.11-11.65,2.18-17.97,8.29-25.68,8.18-10.31,18.62-15.22,31.11-18.4,10.17-2.59,20.06-16.95,28.55-17.23.42,2.3-1.17,4.52-3.12,6.01-7.1,5.45-13.29,12.34-21.73,15.82-13.73,5.67-17.88,4.05-29.05,15.9-4.38,4.65-8.39,9.05-10.45,15.29-.65,1.97,1.82,5.76,3.83,5.83,7.2.26,13.01-2.79,18.19-7.13l9.23-7.73c6.15-5.15,12.06-11.4,19.55-14.09l14.27-5.14Z"/>
        <path class="cls-1" d="M729.54,612.99c13.99,28.88,1.4,29.68-.58,37.88-1.91,7.91-5.79,13.63-11.71,18.73-11.76,10.13-27.54,6.07-34.96-3.42-7.26-9.29-14.95-18.67-9.64-30.03,4.2-8.98,11.39-15.44,20.49-19.55,4.14-1.87,8.8-5.64,13.53-5.42,5.48.25,10.81,2.85,16.25,2.29,1.97-.2,4.72-.72,6.63-.48ZM725.86,620.26c-6.56,1.35-12.31-1.35-18.36-2.15-5.7-.76-10.46,4.54-14.93,6.86-4.2,2.19-7.36,4.81-10.24,7.89-6.23,6.67-6.31,13.99-1.69,21.21,3.99,6.23,8.37,10.64,15.34,13.28,6.41,2.42,12.14,2.46,17.49-2.54,11.17-10.43,6.01-12.64,13.49-23.27,6.49-9.22.75-11.91-1.1-21.29Z"/>
        <path class="cls-1" d="M947.78,582.69c-5.95,10.36-13.66,15.98-15.01,21.71-1.45,6.1-5.06,10.06-9.72,13.76-6.06,4.81-12.67,7.15-21.05,5.72-3.82-.65-8.66-1.94-12.43-3.98-4.29-2.32-8.23-8.54-9.25-13.18-1.84-8.39,4.48-14.53,9.35-20.24-.2-3.68-.85-8.31,3.77-11.17,3.25-2.01,8.62-4.03,12.96-3.58,11.75,1.24,21.71-2.16,33.14-3.7,5.6-.76,10.98,9.92,8.26,14.66ZM941.87,581.07c.87-1.08-.37-5.01-1.46-5.77-.95-.66-2.89-.82-4.47-.39-9.89,2.69-19.16,3.84-29.47,3.25-3.23-.19-7.72.94-9.88,3.01,2.62,12.99-12.27,11.01-9.66,26.35l4.27,5.83c7.02,3.37,14.76,5.4,22.46,2.85,3.73-1.24,8.65-4.08,10.22-7.64l4.92-11.16,13.08-16.34Z"/>
        <path class="cls-1" d="M702.58,679.31c10.76,3.86,5.98,17.89,2.84,25.52-.72,1.75-.41,6.34-2.33,7.18-6.22,2.71-24.42,5.25-29.31,2.83-4.53-2.24-8.67-6.94-14.4-5.68-10.9,2.4-14.19,9.29-22.68,4.74-5.56-2.98-9.24-10.54-4.73-16.03,5.04-6.13,13.29-8.35,21.29-8.59,2.54-6.96,7.78-11.05,14.31-13.57,12.04-4.64,17.51,8.29,25.22,6.23l9.8-2.63ZM700.74,686.08c-14.69,5.91-16.84-1.1-27.02-4.95-4.83-1.83-8.02,3.08-10.81,5.5-2.57,2.22-4.82,4.81-5,8.06-.27.72-2.84,1.67-3.9,1.46-12.11-2.38-21.29,8.33-18.29,9.92l2.55,1.36c6.62,3.51,9.53-2.06,19.24-4.66,6.81-1.82,11.92,2.73,17.34,5.76,3.89,2.17,20.23-.63,25.08-1.78.64-4.55,1.27-7.82,3.37-11.6,1.54-2.77,1.13-9.09-2.56-9.07Z"/>
        <path class="cls-1" d="M602.94,675.61c-2.04,11.42-12.25,15.81-12.6,19.03-.31,2.8,8.45,4.19,4.65,12.06-3.93,8.15-14.79,9.55-21.83,3.96l-6.25-4.96c-2.3-1.82-5.2-3.13-7.82-.2-2.94,3.29-8.62,5.86-12.88,2.57-5.51-4.25-4.91-12.95.42-17.35,1.23-7.66,1.86-15.65,6.77-22.18,2.19-2.91,6.31-6.7,9.44-8.28,5.59-2.81,11.39,1.19,16.29,2.78l11.45,3.73,6.55-.87c3.73,1.19,6.55,5.52,5.8,9.71ZM596.84,672.95c-8.6-.24-16.21-1.56-23.54-5.77-1.61-.92-6.04-2.1-7.64-1.16-10.13,5.92-12.83,17.04-12.41,27.94l-3.88,3.98c-.66.67-.55,3.41.32,3.8,4.29,1.91,10.16-7,17.07-3.8,7.04,3.26,15.32,14.22,21.96,7.51,2.5-2.52-5.58-6.01-5.44-10.77.23-7.86,12.06-8.95,13.56-21.74Z"/>
        <path class="cls-1" d="M1072.69,569.47c-2.41,1.38-3.17,3.45-4.32,5.14-1.95,2.87-2.69,5.12-3.21,9.02-.42,3.11-6.33,4.39-9.3,4.64-8.26.7-15.48-1.06-22.95-4.55-2.51-1.17-6.44-.14-9.11-.52-8.31-1.18-15.54-1.7-24.11-.24l-3.15-10.23c-1.87-6.07-1.59-12.56,3.74-16.83,4.27-3.43,9.55-8.03,15.61-6.64l29.43,6.73c4.19.96,10.24.99,14.25-.23l15.12-4.6c3.67-1.12,9.54,1.44,8.94,5.65-.81,5.7-5.9,9.76-10.93,12.65ZM1076.61,556.48l-16.43,4.54c-12.75,3.52-30.1-4.5-46.17-6.87-5.88-.87-12.54,7.2-13.02,12.3-.33,3.6,1.11,7.18,2.06,10.13,6.45-.6,11.75-.23,17.99.26l12.77,1.02c8.23,3.15,17.43,7.01,25.69,3.14.2-16.93,13.46-13.54,17.1-24.52Z"/>
        <path class="cls-1" d="M436.12,609.09c-8.13,4.16-21.91,9.73-27.38,15.66-.37.4-.65,1.65-.88,2.02-.23.37-1.38.29-1.98.24l-3.28-.26c-.9-.07-1.55-2.09-2.35-3.73l-8.41,2.7c-8.19,2.63-10.16,5.17-19.93,2.1-7.23-2.27-11.38-8.39-11-15.99.24-4.71-.24-10.31,2.04-14.46,2.32-4.22,8.79-3.28,12.27-1.19,8.8,5.28,18.08,5.67,27.03.94,9.14-4.83,22.06-8.58,30.12-.84,2.9,2.79,6.01,8.72,3.74,12.82ZM429.89,603.29c-2.06-4.38-5.74-6.14-10.33-5.56-13.07,1.65-11.45,6.91-28.27,8.53-7.69.74-14.09-2.99-20.79-6.45-3,.08-2.44,4.64-2.44,6.91,0,3.6-1.5,9.89,1.09,12.26,1.79,1.64,6.25,4.02,8.23,3.48,11.58-3.1,17.32-7.29,29.49-6.21l16.68-8.46c2.3-1.17,4.42-2.8,6.33-4.51Z"/>
        <path class="cls-1" d="M1146.31,503.74c3.31,4.67,3.9,10.89,1.65,15.74-2.36,5.09-8.07,7.84-13.6,8.78-3.81.65-7.89,4.38-9.76,6.65-.29.36-2.22.28-2.66.4s-.23,1.32-.26,2.31c-7.42,4.92-17.82,8.15-26.68,3.91-5.66-2.71-9.87-7.94-14.25-12.41l-1.63,2.98c-.7-.43-3.13-2.96-2.89-4.17l2.54-12.94c.84-4.29,2.93-8.81,6.99-10.9,4.55-2.33,11.14-1.83,15.22,1.87l5.18,8.89c.2.34,2.14.74,2.19,1.13l.29,2.29c.1.77,2.45,1.08,2.99.53l2.69-2.73c4.44-4.51,7.25-9.31,10.71-14.42,4.68-6.9,16.69-4.4,21.28,2.07ZM1132.85,503.65c-4.3,0-4.13,2.37-5.63,4.71-3.37,5.26-7.92,10.65-12.6,14.76-7.21,6.34-16.18-6.19-18.78-11.49-1.48-3.01-4.23-4.59-7.83-2.55-3,1.69-6.61,7.57-4.91,11.22,6.92,14.78,23.46,21.75,32.23,13.84,6.87-6.2,13.52-11.13,22.71-13.17,4.22-.94,5.81-4.27,5.17-8.49-.36-2.36-1.34-5.72-2.84-6.9-1.87-1.47-4.95-1.94-7.51-1.94Z"/>
        <path class="cls-1" d="M1316.64,615.27c1.44,8.72-10.84,10.16-8.7,18.9l-2.67-2.52c-2.48,4.54,4.47,12.49,1.63,18.35-4.13,8.52-13.35,11.13-21.92,13.09-5.74,1.31-10.7,1.16-14.18-4.23-5.43-8.4-10.56-3.87-17.39-3.71-4.26.1-4.65-6.04-3.33-9.24,2.14-5.2,5.95-8.55,9.32-13.16,2.11-2.89,2.91-8.13,4.51-11.37,1.88-3.81,6.05-.92,8.46-2.07,8.62-4.09,16.98-7.96,26.96-6.65,2.79-.99,4.02-13.95,9.34-10.78,4.09,2.44,7.18,8.5,7.99,13.38ZM1311.47,616.19c.3-2.19-2.28-6.37-3.62-7.32-1.24,3.47-1.79,8.02-5.79,9.08-6.21,1.64-13.45.64-19.43,2.93l-14.39,5.51c-1.29,2.54-2.09,6.86-3.65,9.11l-8.8,12.67c10.58-.16,10.78-1.14,19.56,6.49,1.04.91,2.02,3.47,3.13,3.31,5.55-.77,14.6-2.57,19.29-6.19,4.37-3.37,5.2-7.46,2.96-12.26-5.02-10.74,4.9-15.18,10.74-23.33Z"/>
        <path class="cls-1" d="M1170.44,654.8c4.65.47,7,5.58,7.43,9.12-5.11,9.06-13.46,13.04-22.92,16.03-3.33,1.05-6.18,2.82-9.1,4.57l-9.16,5.47c-16.26-5.37-9.69.57-30.62-5.66-3.07-.91-7.31-3.48-7.9-6.67-1.77-9.56,1.95-13.72,7.83-19.8,2.94-3.04,6.45-4.54,10.8-3.25,7.45-4.55,13.7-9.89,19.49-16.4,2.98-3.34,8.7-5.39,12.41-2.34,8.22,6.77,1.44,19.82,10.48,19.18,3.35-.23,7.38-.66,11.28-.27ZM1161.03,660.71c-14.77,1.24-11.64-14.69-14.82-20.89-2.5-.22-5.13,1.34-6.83,3.18-5.53,5.98-11.41,10.73-17.72,15.79-2.76,2.21-5.23,1.09-8.16,1.97-6.52,1.97-10.09,11.14-9.53,17.35,11.18,5.63,18.48,1.45,31.47,5.8l12.03-7.15,13.84-5.37c1.32-.51,12.33-7.12,9.59-11.52l-9.88.83Z"/>
        <path class="cls-1" d="M662.82,645.02c.26,1.99.36,5.63.34,7.41l-6.99,14.75c-1.35,2.84-8.52,26.12-18.55,21.24-7.65-3.72-7.3,2.29-14.24,3.66-.64.13-2.47-.54-3.12-.46-.81.1-1.58,2.27-2.35,2.61-4.83,2.1-10.94-1.64-13.31-6.32-1.68-3.32-1.45-4.65.37-7.5,3.59-5.63,7.77-10.66,14.66-13.18,2.43-4.49,4.39-9.48,5.5-14.7,2.49-11.72,14.35.99,20.28-10.99,1.39-2.81,4.8-6.23,8.52-5.13,3.29.97,8.46,5.22,8.9,8.6ZM652.85,642.52c-3.53,2.19-5.67,10.23-10.13,10.36l-11.24.31c-2.02,6.27-3.75,11.02-5.97,16.66-1,2.53-1.81,3.32-4.74,4.34-4.01,1.39-7.92,6.11-9.4,9.82-.33.84.42,3.9,1.25,3.64l3.07-.95,9.05-2.79c4.44-3.49,9.73-3.79,14.7-1.46,2.36-4.39,5.7-3.21,8.03-10.85,1.69-5.53,3.7-10.14,6.49-15.07,5.67-10.03.32-14.89-1.11-14.01Z"/>
        <path class="cls-1" d="M1002.45,503.14c2.61,5.03,3.05,12.14-1.01,16.18-4.18,4.16-9.8,6.37-14.75,9.42-9.31,5.73-11.51,18.39-24.58,22.51-4.36,1.37-10.21.27-14.67-.65-6.13-1.26-9.89-6.76-11.9-11.17-2.81-6.16-1.5-12.62,1.68-17.9,10.37-17.16,7.54-16.42,28.86-27.09l.03-2.8c0-.82,2.09-1.81,2.97-2.03,4.6-1.13,9.11-.18,13.76.77,8.03,1.63,15.47,4.82,19.6,12.76ZM997.25,504.61c-5.01-7.35-20.23-9.73-27.85-8.93l-2.54,4.98c-18.83,9.56-16.58,8.65-26.49,26.26-2.48,4.41-1.62,8.85.58,12.37,2.43,3.9,6.27,5.28,11.11,6.02,17.72,2.7,19.75-13.57,32.4-22.26,3.23-2.22,7.05-3.83,10.36-5.73,4.78-2.75,5.63-8.01,2.42-12.71Z"/>
        <path class="cls-1" d="M761.23,494.05c15.62,11.98,6.12,26.12,2.92,42.27-.48,2.42-2.15,4.8-4.63,5.7-10.36,3.76-20.83,5.55-31.84,5.13-4.65-.17-8.61-2.27-12.27-4.67-9.83-6.45-13.97-17.06-11.6-28.52,1.87-9.02,6.81-10.87,13.65-14.78,9.53-5.44,19.32-10.01,30.56-10.34,5.08-.15,9.32,2.22,13.21,5.2ZM763.54,503.7c-1.99-4.62-8.31-8.67-13.04-8.9-8.68-.43-16.9,2.35-24.14,6.23l-11.41,6.11c-4.85,2.6-9.48,15.63-3.31,24.85,1.99,2.97,7.4,7.53,11.49,8.39,12.16,2.58,24.53-.67,35.63-4.68l2.73-10.82c1.66-6.58,5.18-13.91,2.05-21.19Z"/>
        <path class="cls-1" d="M1292.79,673.14c7.96-.9,15.28,1.99,21.35,7.48,4.93,12.61-4.3,18.75-7.76,30.69-1.53.56-3.25,1.36-4.82,2.09l-11.16,5.23c-9.91,4.64-20.91,3.77-31.48,1.29-3.38-.79-6.66-1.63-9.57-3.36-1.2-.71-2.49-4.79-1.13-5.58,7.97-4.66,16.57-4.52,16.35-16.72-.1-5.57,1.32-10.13,6.18-13.29,11.66-7.59,10.11-6.49,22.04-7.83ZM1287.43,679.27c-5.86.7-11.34,4.1-15.53,8.23-4.44,4.39,4.69,13.67-12.23,25.34,10.43,4.95,21.3,3.09,31.33-1.2,3.57-1.53,8.06-2.67,10.05-6.04l6.46-10.93c1.71-2.9,3.25-7.34.75-10.37-4.27-5.18-15.05-5.72-20.83-5.04Z"/>
        <path class="cls-1" d="M1255.65,681.38c-4.83,8.03-14.02,13.12-22.77,14.84-6.37,1.25-13.18,3.82-17.03,8.35-.64.75-3,1.15-3,1.99v3.85s-9.94,3.69-9.94,3.69c-2.14.8-6.66.63-8.68,0-.54-.17-1.18-2.38-1.74-2.36l-2.21.09c-.4-1.45-.96-3.48-1.65-4.98-6.03-13.04,7.38-19.72,16.74-24.79,15.29-8.28,17.9-3.47,24.5-8.87,4.22-3.46,14.86-12.78,20.7-9.17,5.02,3.11,8.64,11.44,5.08,17.36ZM1245.69,669.53c-10.2,2.88-11.08,11.33-22.88,12.74-7.58.91-14.21,3.68-19.98,8.58-4.09,1.57-8.01,4.33-9.01,8.7-.79,3.45.33,7.05,3.26,8.38,2.05.94,6.57.56,8.37-1.73,16.19-20.59,30.39-10.77,45.48-27.85,1.01-1.14.59-4.36-.03-5.65s-3.12-3.77-5.21-3.18Z"/>
        <path class="cls-1" d="M964.73,680.7c-1.09-.39-2.68,2.3-2.61,3.4.31,4.7-3.76,5.54-5.99,8.03-4.43,4.95-9.76,8.82-17.6,6.79-3.12-.81-7.92-5.02-8.63-8.99-1.18-6.66,2.28-12.89,5.43-18.36l6.41-11.14c-24.51,16.39-10.71,4.46-20.65,20.79-5.09,8.35-14.32,11.3-23.14,6.99-2.23-1.09-4.66-2.31-6.3-3.93l-4.3-4.23-.07-5.39c1.06-5.54,7.74-8.21,9.39-13.02,1.33-3.87,2.13-7.59,4.67-11.18,3.25-4.58,6.29-8.35,11.05-11.43,3.37-2.18,6.62-5.38,10.69-6.38,7.23-1.77,15.68,2.14,19.31,8.27,3.42,5.77,2.74,11.99.54,18.17,8.81-9.09,20.42-14.77,32.62-11.44,8.28,2.26,14.33,10.53,11.33,18.74-2.24,6.12-15.25,3.63-17.34,13.23-.14.62-1.14,2.4-1.7,2.2l-3.12-1.13ZM932.81,640.29c-4.61-3.07-8.46-2.14-12.6.72-20.11,13.89-14.93,21.08-17.04,23.44l-8.04,8.97c-1.55,1.73-.74,5.64,1.32,6.68,3.4,1.71,7.4,3.24,11.01,3.45,7.48.42,7.2-13.36,16.83-19.62,7.95-5.17,15.15-7.11,14.24-16.4-.27-2.73-2.75-5.24-5.72-7.23ZM980.62,663.89c3.66-1.73-1.81-11.57-12.06-10.94-8.41.52-16.23,4.09-21.07,10.94-3.34,4.73-14,20.87-10.84,25.94,1.32,2.12,6.29,3.42,8.41,2.3,3.5-1.86,7.52-4.39,9.62-7.42,2.86-4.13,3.15-10.24,8.4-12.3,2.31-.91,4.43-2.32,6.76-3.42l10.78-5.1Z"/>
        <path class="cls-1" d="M93.98,685.66c3.44,1.23,4.6,5.44,5.59,8.24,5.09,14.29-12.17,11.83-12.86,22.05-8.83,3.84-17.71,3.16-26.8,1.29-4.96-1.02-17.89-2.28-20.4-8.69-2.16-5.53-3.38-11-3.64-16.93-.13-2.99,3.39-12.82,4.71-14.33.76-.87,3.39-.72,4.69-.48l14.02,2.63-.44,3.52c16.46,10.81,19.13-2.99,35.13,2.71ZM90.46,690.7c-6.48-2.78-17.6,7.94-34.43-2.47-2.07-3.61-6.36-5.22-10.49-4.6-5.32,8.44-1.92,14.89.28,24.43,7.45,2.6,28.07,6.9,34.63,2.81,2.66-4.52,6.36-6.91,10.82-9.38,3.27-1.81,3.17-9.08-.8-10.78Z"/>
        <path class="cls-1" d="M1316.46,510.02l3.35,9.92c-1.09,4.64-4.56,11.36-9.83,13.45-9.99,3.95-23.05,2.73-32.04-2.99-7.93-5.04-19.19-12.2-28.52-9.54l-5.89-.98c-2.77-2.29.29-6.61,2.63-8.75,7.44-6.82,16.39-9.27,26.57-7.4,18.82,3.45,15.43,10.99,38.25,3.99,2.21-.68,4.68-.05,5.48,2.31ZM1311.18,513.86l-10.77,2.29c-4.77,1.01-9.66.28-14.08-1.86-9.2-4.45-26.53-9.18-33.74-.94,11.21,1.65,21.29,6.91,30.15,12.93,5.42,3.68,13.69,4,19.99,3.57,5.91-.4,9.53-4.37,9.02-9.93l-.56-6.05Z"/>
        <path class="cls-1" d="M1207.02,525.65l-1.64,2.17c-.55.73.97,4.03,1.57,4.12l1.73-4.23.92,2.9c.23.72-1.98,1.89-2.24,2.59-1.26,3.49-3.54,6.92-7.8,7.71-5.42,1.01-11.08.46-16.37-2.35-5.69-9.79-5.01-14.62-18.97-18.63-4.39-1.26-9.6-3.9-10.6-8.69-1.37-6.55,4.81-10.13,10.3-11.61,3.46-.93,6.72-4.92,10.64-4.96,6.54-.07,12.4,1.25,18.94,2.09,2.73.35,24.16,2.45,23.15,5.99-.18.62-.86,1.72-1.39,2.31l-6.84,7.6c-3.12,3.46-4.6,8.05-1.38,12.98ZM1200.7,513.72l7.11-8.99-26.57-4.14c-4.26-.66-9.03-.88-12.14,2.08l-8.78,8.38c1.17,1.1,3.39,2.37,5.61,2.98,21.12,5.87,17.89,18.73,24.72,21.39,2.83,1.1,7.99.63,9.59-1.2l-1.29-11.24c-.35-3.06-.09-6.92,1.76-9.27Z"/>
        <path class="cls-1" d="M818.01,653.97c3.42,8.52-6.57,17.7-12.67,21-5.32,2.88-10.46,5.39-15.45,8.88-5.67,3.96-12.31,9.36-19.93,8.07-10.84-1.84-16.41-12.28-17.04-22.48-.42-6.79,1.69-12.66,7.88-15.85,10.85-10.51,38.94-20.07,50.65-7.07,1.85,2.06,5.46,4.69,6.57,7.45ZM796.16,646.42c-8.09-.5-15.58,1.55-22.91,5.02-2.3,1.09-11.43,8.31-10.76,11.9l-4.24,1.21c-1.9,7.75,2.27,17.74,10.62,20.71,5.92,2.11,11.49-1.48,15.68-5.13,8.55-7.45,18.49-8.7,27.34-17.46.71-.7,1.78-3.01,1.6-3.99-.5-2.74-7.76-11.67-17.33-12.26Z"/>
        <path class="cls-1" d="M131.44,665.62l4.12,3.78c1.08,6.08.37,13.17-3.25,17.96-6.64,8.79-15.92,5.11-23.46.71-4.65-5.23-6.51-11.78-13.59-8.05-8.98,4.73-14.67-3.21-21.01-9.84-2.71-2.84-2.66-6.77-.48-10.01,4.25-6.32,11.86-9.03,19.54-8.65l12.14.6c12.73.63,10.28,12.61,18.63,15.52,1.88.65,6.13.72,5.94-1.06l-.28-2.57c-.04-.4.96-.39,1.46-.41.41-.02.28,1.04.24,2.02ZM128.83,674.46c-5.15-.09-7.13-1.16-10.4-2.75-3.29-1.59-5.46-3.24-6.35-7.39-.69-3.2-2.99-6.4-6.69-6.35l-14.55.16c-3.85.04-10.36,2.31-11.45,5.81-.3.98.31,3.79,1.02,4.52l5.04,5.21c1.94,2,5.21,2.19,7.52.65,13.52-9.02,19.88,18.38,31.55,11.43,3.59-2.14,4.83-7.97,4.31-11.31Z"/>
        <path class="cls-1" d="M867.21,664.57c4.35.75,6.82,7.04,7,10.49.25,4.66-1.34,9.72-5.45,12.25-8.79,5.41-3.47,10.5-10.09,23.43-.83,1.61-2.59,3.33-3.85,3.86-6.25,2.63-9.05-7.59-17.41-3.22-9.6,5.02-22.23,2.83-27.94-7.24-3.23-5.7-.88-13.5,3.82-17.74,7.23-6.51,23.68-15.4,32.81-19.63,4.28-1.98,9.02-4.28,13.87-3.44l7.24,1.25ZM868.18,673.56c-2.38-4.43-11.09-5.15-14.79-3.91-12.3,4.1-22.68,10.32-33.44,17.45-3.56,2.36-8.53,6.18-6.79,11.36,2.24,6.64,11.34,11.03,18.08,9.17,4.76-1.32,9.14-4.28,14.14-3.14l8.73,4.46c2.1-4.75,3.53-9.45,4.44-14.29,2.89-15.3,14.92-11.25,9.63-21.09Z"/>
        <path class="cls-1" d="M549.97,644.5c-1.6,5.28,6.52,6.14-1.88,14.36l-12.31,12.04-1.61,13.54c-.71,5.98-4.93,7.87-10.16,8.45-5.76.64-10.2-.76-14.22-5.34-6.41-7.32-7.39-17.47-5.03-27.03.71-2.86,1.97-4.95,5.07-4.6,5.99-5.91,34.94-19.4,40.15-11.42ZM533.36,663.72l10.8-10.45c1.04-1-.41-4.89-1.88-4.77-10.63.85-25.17,7.6-31.7,16.11-1.59,12.89-.34,13.34,7.23,20.73,1.87,1.82,8.75-.19,9.63-2.7,3.12-8.91-.43-12.76,5.93-18.91Z"/>
        <path class="cls-1" d="M110.81,620.94l-11.56,6.54c-6.15,3.48-.72,13.32-13.8,15.47-6.05.99-13.73.7-17.45-5.13l-4.19-6.58c-.74-5.19-.79-11.71,1.86-16.71,7.34-13.84,28.35-12.8,42.03-13.4,3.98-.17,7.56-.47,10.17,2.23,2.31,2.39,4.3,6.39,2.5,9.95-1.87,3.7-6.11,5.68-9.56,7.63ZM114.35,610.84c.37-.57.36-2.83-.2-3.23s-2.07-.89-2.82-.84l-14.65.81-7.9.57c-6.4.47-13.42,2.52-16.76,8.45-2.46,4.37-2.64,10.88-.72,15.6,2.07,5.1,10.18,7.03,14.02,3.61,1.69-7.69,9.87-13.65,16.18-17.26l6.07-3.48c2.14-.36,5.51-2.22,6.8-4.23Z"/>
        <path class="cls-1" d="M556.8,604.18c7.06,4.67,2.19,15.69.5,18.98-3.88-.12-6.26,3.47-9.44,4.8-13.73,5.77-8.11,7.87-26.97,12.61-7.39-2.45-13.28-8.85-13.8-16.8-.44-6.62,1.62-14.3,6.11-19.19,8.65-9.43,32.75-7.57,43.6-.4ZM553.24,609.36c-5.29-4.68-11.08-4.22-16.99-4.77-6.22-.58-12.38-.68-17.27,4.26-5.83,5.89-8.21,20.29.74,23.41,2.57.9,6.4-.07,8.58-1.36l23.3-13.77c2.19-1.3,3.29-6.31,1.64-7.78Z"/>
        <path class="cls-1" d="M1179.18,553.93l-3.41,4.56c-12,2.8-14.42,15.71-17.26,4.08-3.44,3.07-7.24,7.29-11.06,10.22-3.94,3.03-9.54-1.15-12.84-2.68-8.78-4.07-12.1-12.48-8.76-21.23,1.96-5.11,3.48-10.69,8.37-14.02,6.72-4.58,15.42-7.44,23.7-5.97,7.07,1.25,14.38,4.04,19.5,8.78,5.08,4.71,4.8,12.59,3.7,18.4l-1.94-2.15ZM1169.17,554.91c5.41-2.41,8.4-7.11,6.08-12.37-8.26-7.85-19.14-9.6-29.84-6.69-8.52,2.32-13.95,8.3-14.67,17.33-.2,2.57-1.66,6.32.98,8.56,2.8,2.38,7.3,5.36,10.94,6.07,6.31-.72,11.49-14.24,19.38-12.04,2.85.79,4.31.38,7.13-.88Z"/>
        <path class="cls-1" d="M1188.9,684.33c.16,12.9-22.3,16.54-27.22,22.81-3.7,4.71-6.38,12.01-12.41,14.19-8.57,2.12-18.28-4.8-21.47-12.25.13-3.8,4.42-5.01,6.76-6.66,7.9-5.59,14.9-11.66,22.25-17.94,5.48-4.68,11.17-8.8,17.89-11.4,7.23-2.8,14.14,5.98,14.21,11.25ZM1180.42,678.84c-4.12-.75-9.6,1.63-12.87,4.3l-23.66,19.34c-2.89,2.36-5.9,4.17-9.35,6.49,1.22,3.67,11.89,10.7,15.72,4.86l6.53-9.96c4.61-7.03,16.9-7.55,24.89-15.98,2.15-2.27,2.72-8.34-1.26-9.06Z"/>
        <path class="cls-1" d="M962.04,568.61c10.96-7.06,21.9-3.57,23.53,2.96.62,2.47-.16,5.46-1.93,7.41-4.02,4.42-7.76,8.74-12.04,12.71-13.91,12.89-9.05,14.65-17.65,23.69-1.67,1.75-6.92,2.62-9.3,2.09-5.16-3.54-6.03-10.93-3.29-16.47,2.86-5.79,5.5-11.3,8.79-16.86l7.94-13.45c.79-.6,3.15-1.55,3.95-2.07ZM980.19,573.54c-9.23-7-13.91,1.37-18.64,3.86-4.08,5.91-7.31,12.14-10.56,18.64-.71,1.42-8.41,14.95-3.52,15.05,3.74.08,7.09-7.22,8.88-10.6,5.41-10.25,16.52-16.43,23.84-26.94Z"/>
        <path class="cls-1" d="M59.37,634.37c.76,1.87,3.64,3.68,5.42,5.17,4.92,4.15,7.86,12.06,5.96,18.51-2.07,7.04-15.54,10.15-21.31,7.37-2.28-1.1-3.85-4.82-4.8-7.82-2.46-7.71-7.31-13.46-11.43-20.55-2.5-4.29-3.26-12.34-1.36-16.95,1.93-4.7,7.74-7.45,11.84-9.29,3.61-1.63,6.74.62,8.21,3.72.89,1.86,1.34,4.67,2.06,6.44l5.42,13.4ZM61.34,644.42c-2.58-2.73-6.44-4.86-7.62-7.64-1.53-3.6-2.63-5.84-5.44-8.48l-1.29-10.85c-3.57-.77-8.39,2.18-9.36,5.52-2.3,7.94,2.05,14.14,6.12,20.1,3.3,4.83,8.2,17.35,8.85,17.29l3.79-.34c2.46-.22,6.76-1.24,7.76-3.97,1.27-3.46-.22-8.89-2.81-11.63Z"/>
        <path class="cls-1" d="M1070.02,657.85c8.39,1.03,3.87,16.71,7.72,22.74l1.97-2.72c.04,4.55-1.12,8.72-3.82,11.67-3.64,3.97-8.88,4.51-13.3,1.97-12.72-7.31-19.73,4.91-31.49.43-5.31-2.03-10.25-9.92-7.08-15.55,4.51-8,14.71-12.64,23.62-12.32,5.13.18,9.61.86,13.87-1.84,2.32-1.47,5.88-4.69,8.5-4.37ZM1070.71,679.44c-1.5-4.5-1.08-9.55-1.52-14.85-5.18,2.45-10.19,6.21-15.97,5.19-8.75-1.55-18.56.41-23.29,8.51-1.17,2,.92,7.56,3.21,7.95,4.25.71,8.95-.23,12.74-1.56,14.5-5.08,20.35,5.75,25.03,1.07,1.59-1.6.65-3.75-.2-6.31Z"/>
        <path class="cls-1" d="M356.16,689.57c3.44,10.71,1.94,7.52-1.31,16.59,2.94-1.05,3.72-3.85,4.3-6.54,1.37.41,1.22,3.89-.39,5.07l-10.51,7.69c-3.6,2.64-12.98-5.73-32.84-2.1-4.9.89-11.69-2.67-11.12-8.37.58-5.84,9.76-22.42,17.86-15.42l.05,1.9c.03,1.37,11.37-.58,15.03-2.55,3.9-2.09,6.5-4.87,11.19-3.47,2.85.85,6.52,3.41,7.74,7.21ZM343.65,689.05c-4.78,3.2-9.14,4.16-14.46,5.27-2.01.42-5.59,2.29-7.08,1.85l-4.79-5.34-5.27,7.77c-.64.95-.2,3.48.46,4.32s3.07,1.43,4.3,1.18c15.93-3.15,28.08,4.08,29.4,2.26l1.95-2.68c5.36-7.38,2.54-13.97-.61-15.56-.76-.38-3.07.37-3.9.92Z"/>
        <path class="cls-1" d="M1129.45,597.72c12.57,1.01,4.51,24.33-4.95,30.18-4.08,2.53-9.1,3.4-8.85,9.67-4.12,4.05-9.21,8.64-15.48,9.09-10.61.76-19.98-16.16-14.1-25.73,10.77-3.5,19.61-9.48,28.1-16.68,4.42-3.75,9.32-7.01,15.27-6.53ZM1130.66,602.86c-4-.17-7.75,1.6-10.96,4.18-8.87,7.14-17.81,13.25-27.83,18.4-3.54,5.49-1.03,14.19,5.32,15.75,5.4,1.32,10.54-3.37,12.78-7.66,7.18-13.75,18.68-8.16,20.69-30.67Z"/>
        <path class="cls-1" d="M1059.2,522.46c.24,7.17-2.89,13.64-8.8,17.42-3.61,2.31-9.02,3.08-13.5,2.94-15.98-.49-25.22-7.77-40.82-3.69-.96.25-3.6-.81-3.78-1.75s.28-2.58.86-3.65l3.4-6.32c22.6-17.25,42.16-6.11,52-6.64,3.85-.21,6.88-.45,10.64,1.69ZM1052.95,526.24c-8.12.59-13.72-.28-20.46-2.04-11.88-3.11-25.1.08-34.55,7.69,10.17-.41,18.3.56,27.16,3.03,7.19,2.01,14.98,3.53,22.09.56,2.91-1.21,4.88-6.32,5.76-9.25Z"/>
        <path class="cls-1" d="M904.31,637.07c.19,9.43-5.39,15.21-14.29,15.47-3.76.11-7.46.12-11.15-1.14-16.58-5.66-5.71-.59-20.69-4.29l-6.65,3.89c-1.37.8-4.55,1.16-5.8.4-1.4-.85-3.07-3.27-3.13-5.26-.27-8.5,5.98-15.85,14.9-17.16,16.65-2.44,25.02-2.41,41.36.57,4.24.77,5.36,3.66,5.44,7.53ZM898.96,643.99c1.3-1.05.8-5.3-.15-6.51-.85-1.08-3.01-2.72-4.57-2.87-6.28-.58-12.52-2.24-18.55-1.72l-17.5,1.51c-5.06.44-10.58,3.57-10.88,9.23-.05.89,2.2,2.66,3.04,2.15l9.36-5.7c.89-.54,3.91-1.01,4.49-.2l2.07,2.87c11.09-1.13,22.41,9.51,32.68,1.24Z"/>
        <path class="cls-1" d="M926.82,713.71l-2.72-1.21c-7.56,5.1-20.52,5.23-28.6,2.32-14.57-5.25-14.2,9.41-21.79.25-3.77-4.55-4.1-8.99-.66-14.24,4.18-6.38,13.92-9.81,21.55-6.88,21.73,8.33,21.33-4.84,29.87,4.57,6.17,6.8.37,7.91,2.36,15.19ZM921.37,706.86c.95-2.82-3.38-6.59-5.88-5.7-18.1,6.43-20.98-5.73-35.14-1.08-2.8.92-4.89,3.2-4.75,5.67.13,2.15,1.78,5.29,3.99,5.56,5.42-3.68,11.62-4.29,17.79-2.2,6.92,2.34,22.45,2.33,23.99-2.23Z"/>
        <path class="cls-1" d="M1115.17,587.59c-3.36,4.18-6.65,8.24-10.06,11.75-6.37,6.57-22.19,8.28-28,.62-3.06-4.04-4.76-8.66-6.07-13.96,10.65-9.63,21.73-20.71,37.03-15.32,3.74,1.32,7.02,2.72,8.33,6.07,1.43,3.66,1.64,7.26-1.23,10.84ZM1110.2,577.74c-2.66-1.09-6.51-2.65-8.88-2.79-6.19-.37-12.42,2.71-16.14,7.13-1.81,2.15-3.34,3.78-5.43,6.02-1.97,2.1.85,8.35,3.65,9.57,5.56,2.43,12.88,1.55,17.2-2.65,1.87-1.82,15.13-15.02,9.61-17.29Z"/>
        <path class="cls-1" d="M148.18,705.17c1.98-.43,5.14.97,5.97,2.42,1.02,1.79.58,4.26-.62,6.19-6.46,10.41-19.81,8.32-30.98,7.54-7.67-.53-16.27-2.29-19.76-10.26-1.1-2.51,2.8-4.92,4.44-6.19,15.85-12.31,24.78,3.82,30.33,2.61l10.63-2.32ZM145.73,712.05c-18.6,5.19-16.93-7.92-28.31-5.72-2.3.44-6.12,2.92-6.31,5.58,1.81,3.79,7.01,2.84,10.55,3.15,4.95.43,22.27,2.64,24.06-3.01Z"/>
        <path class="cls-1" d="M742.55,688.29c7.42,2.75,7.55,11.61,4.17,17.34-1.47,2.49-3.5,4.98-5.48,5.47-7.65,1.91-13.81-5.85-20.94-10.75-6.29-10.06-1.75-22.36,8.3-27.96,2.78-1.55,4.82-3.34,7.74-6.07,5.35,2.72-7.33,16.94,6.21,21.97ZM731.53,677.59c-3.22,2.14-6.32,4.76-8.34,8s-1.09,9.2,2.22,11.2l12.46,7.52c2.63,1.59,5.55-2.46,5.64-4.5.37-8.45-12.27-2.17-11.98-22.22Z"/>
        <path class="cls-1" d="M290.24,693.45l-4.89,6.32,4.32-1.8c-.66,3.37-3.33,2.77-5.72,3.6-2.74.95-6.34,4.3-9.65,2.56-8.11-4.26-13.94-13.18-13.04-21.94.73-7.06,8.86-9.35,14.36-7.51,2.41-.73,5.29-1.48,7.24-1.76-3.68,13.99,6.77,1.9,9.14,22.98-1.1.57-1.39.83-1.43.49l-.32-2.94ZM270.29,679.22c-.96-.26-2.5,2.56-2.51,3.69-.05,5.82,3.09,12.68,8.71,16,3.36-2.05,6.83-5.41,7.96-8.93.93-1.92-15.22-11.04-14.16-10.76Z"/>
        <path class="cls-1" d="M1124.3,493.81c-.78,3.88-4.1,6.27-6.67,8.08-5.85,4.13-12.5,2.64-16.55-3.07-1.45-2.04-2.75-4.89-2.77-7.29-.02-1.87,2.18-5.56,4.27-5.94,6.98-1.26,23.39-.06,21.72,8.22ZM1117.33,492.88c-4.69-1.96-9.28-1.73-13.55-.71,1.47,3.88,4.18,6.37,7.8,6.56,2.84.15,6.77-3.21,5.74-5.86Z"/>
        <path class="cls-1" d="M1094.81,673.71l1.16,8.6c-1.65-2.64-2.1-5.5-1.16-8.6Z"/>
        <path class="cls-1" d="M884.56,676.42l1.32,3.31c-5.05-3.67-3.2-3.83-3.12-4.54.04-.37,1.63.78,1.81,1.23Z"/>
        <path class="cls-1" d="M1072.34,627.24c.4,1.84.4,3.85.03,6.15-.4-1.84-.4-3.85-.03-6.15Z"/>
        <path class="cls-1" d="M420.87,620.07l-2.56,3.09c-.45-1.67.41-2.68,2.56-3.09Z"/>
        <path class="cls-1" d="M184.62,802.64c-1.47,1.15-2.79,1.83-4.34,2.22,1.01-1.73,2.86-2.76,4.34-2.22Z"/>
        <path class="cls-1" d="M190.66,799.21c-1.47,1.15-2.79,1.83-4.34,2.22,1.01-1.73,2.86-2.76,4.34-2.22Z"/>
        <path class="cls-1" d="M197.55,795.78c-1.47,1.15-2.79,1.83-4.34,2.22,1.01-1.73,2.86-2.76,4.34-2.22Z"/>
        <path class="cls-1" d="M175.89,808.46l-2.34,3.23.17-2.61c.04-.66,2.06-.79,2.17-.62Z"/>
        <path class="cls-1" d="M255.51,817.47l-5.52-1.98c2.09-.69,4.38-.45,5.52,1.98Z"/>
        <path class="cls-1" d="M253.66,834.76c2.74.32,1.57,2.25.15,4.16l-.15-4.16Z"/>
        <path class="cls-1" d="M214.99,612.78c.88.71,2.14,2.03,2.63,2.99.72,1.4-.07,2.96-2.62,4.06v-7.04Z"/>
        <path class="cls-1" d="M140.36,621.16c.37,2.6-.36,4.9-3.05,6.4l3.05-6.4Z"/>
      </g>
    </g>
  </g>
</svg>