<?xml version="1.0" encoding="UTF-8"?>
<svg id="Livello_2" data-name="Livello 2" xmlns="http://www.w3.org/2000/svg" viewBox="0 0 1344.84 1464.1">
  <defs>
    <style>
      .cls-1 {
        fill: #fff;
      }

      .cls-2 {
        font-family: Manrope-Bold, Manrope;
        font-size: 421.97px;
        font-weight: 700;
      }

      .cls-2, .cls-3 {
        fill: #894e53;
      }
    </style>
  </defs>
  <g id="Livello_1-2" data-name="Livello 1">
    <g>
      <g>
        <rect class="cls-1" y="13.02" width="1344.84" height="1451.08" rx="81.63" ry="81.63"/>
        <text class="cls-2" transform="translate(441.19 362.89)"><tspan x="0" y="0">10</tspan></text>
      </g>
      <g>
        <path class="cls-3" d="M1239.72,1042.02c-.72,54.7-2.56,108.64-2.2,162.78.13,19.63,1.6,38.01,5.95,57.86,1.36-.05,2.7-.31,4.05-.44-4.82-22.7-6.2-45.32-5.85-68.75l1.75-117.51c.33-22.06,1.67-42.78,2.06-64.75l2.14-122.34c.55-31.7,2.98-62.37,3.05-94.09l.26-116.13c.1-42.98-.68-84.96.1-127.53.27-14.67.27-29.23-1.51-43.94-6.48,16.06-1.61,32.07-2.3,47.81-1.79,40.67-.11,80.5-.49,121.31l-1.63,175.34c-.37,40.18-4.78,79.48-3.27,119.74.9,24.13-1.79,46.7-2.11,70.65Z"/>
        <path class="cls-3" d="M1011.5,576.5c19.75-.42,36.91-9.25,56.52-11.04,4.08,22.85,5.46,46.33,4.63,70.65-1.92,56.77,1.08,112.7,2.46,169.47l2.18,89.68-.05,86.47.23,54.76c.09,20.47,1.21,40.44,2.34,60.89l4.2,75.89,8.03,88.98c1.51.02,3.02.04,4.53.06-1.02-2.26-1.32-5.57-1.45-7.14l-7.71-96.31-4.27-82.91c-1.18-22.8-.79-44.36-.98-67.24l-.57-70.65c-.16-20.28-.35-39.46-.42-59.78-.16-49.29-4.34-97.81-4.44-147.28l-.28-128.47-3.46-38.03,8.14-.96c-1.58-4.2-4.63-2.55-7.96-2.25l-5.83-40.36c25.96-5.24,52.72-8.11,80.74-9.9l88.88-5.68c.73-.05,3.13,1.28,3.04.55l-.53-4.15-97.75,6.67c-26.7,1.82-52.39,3.86-78.45,10.38.33,13.37,5.94,32.42,3.85,42.74-17.49,5.32-37.37,6.49-55.66,14.96Z"/>
        <path class="cls-3" d="M885.24,1014.19c27.95-.99,55.88-.43,84.12.35-.96,70.47,1.87,134.76,9.8,203.13,1.57,13.57-1.66,28.23,7.3,39.72-4.05-55.38-11.44-111.67-11.78-165.55l-.66-103.04c-.23-36.08-1.23-70.86-2.95-107.04l-3.47-73.1c-1.62-34.14-1.38-67.24-3.73-101.46-1.35-19.68-.1-38.07-4.27-57.71-1.69-7.95-3.15-16.27-3.62-24.49,19.55-9.09,40.29-12.8,60.96-16.19l2.79,5.94c-1.35,74.19,5.17,148.09,5.74,222.51l1.08,141.32,1.65,116.58,2.01,71.54c.62,21.97.13,43.35,2.24,65.07l2.81,28.93c1.2,0,2.39-.01,3.59-.03-2.44-30.55-3.52-60.49-4.34-91.09l-2.01-74.45-1.5-110.96-.79-121.77.3-22.01c.47-35.21-8.77-194.51-10.64-238.44-1.72-8.56,3.58-16.76.17-25.74-5.06,8.53-3.69,19.05-3.47,29.09-8.6,2.07-64.81,10.47-63.9,21,.72,8.31.55,17.12,2.22,25.24,4.15,20.18,3.7,39.19,4.47,59.45,1.13,29.52,4.54,58.15,2.88,87.8-.64,11.42,1.18,22.76,1.68,34.15l2.02,45.69c1.38,31.18,2.72,61.5,2.99,92.69l.35,39.24-79.57.43c-4.34.02-11.77.28-12.12,4.69-1.66.21-3.55.25-4.48,1.89,4.48,2.67,7.21-3.24,12.13-3.41Z"/>
        <path class="cls-3" d="M93.68,779.42v-2.38l28.06-11.98c-.54-1.82-1.01-3.27-.61-3.82s2.21-.71,2.43-.07l1.26,3.69,16.3-.31c3-.06,4.86,1.52,5.96,4.16,23.56-3.92,47.93-2.59,71.96-4.14l114.85-7.38c25.76-1.66,51.12-5.56,77.09-2.41,1.45-11.68.53-25.02,6.3-37.93l3.46,3.61,35.92-7.68c30.21-6.46,60.52-7.56,91.41-11.07,43.91-4.98,87.57-10.35,130.35-11l-5.62-61.31c8.9,8.35,4.66,47.66,9.35,61.26l3.78.3c.63.05-.09,2.17-.68,2.36l-2.85.89c-.53.17-1.15,1.78-1.39,2.21,3.45-6.01-53.89-.05-58.95.5l-69.04,7.41c-31.48,3.38-62.6,4.33-93.64,11.06l-41.97,9.1c-2.54,9.91-2.95,18.86-2.57,28.84l4.08,106.9-1.61,33.22c36.73-10.1,73.34-15.93,107.44-20.13-4.08,15.12-1.75,30.06-.68,44.92l8.78,122.09c1.56,21.69,1.18,41.96,1.2,63.51.02,29.95.97,58.6-3.28,88.14-2.7,18.72,3.3,35.27,6.47,54.46-10.35-16.47-11.91-37.85-9.7-56.8,2.7-23.24,2.83-44.94,2.66-68.38-.3-41.91-.47-83-4.5-125.42-3.02,2.81,2.43,7.3-1.53,10.12,2.02-45.2-6.44-83.2-4.64-128.95-30.85,6.01-63.11,7.79-91.6,18.21-4.73.09-11.98,1.01-10.3,4.53-4.02,16.68-.35,53.07,3.09,78.38,7.75,56.98,10.94,114.1,9.15,171.71l-2.64,84.56c-1.54-.14-3.43-.73-4.11-1.48-.58-.64-.76-2.85-.73-3.83l1.81-50.44c2.25-62.68,1.51-126.27-6.65-188.92-5.05-38.81-8.19-75.95-3.52-115.3,2.99-25.22-1.27-50.55-1.32-75.91-.03-13.92-.24-27.47-2.1-41.11-28.15-2.05-54.61,2.08-82.32,3.84l-115.64,7.33c-24.54,1.56-48.04.64-72.15,5.35-1.37.27-3.16-2.66-2.32-3.31l3.36-2.6c-5.82-1.16-11.69-.74-16.27.39-.97,19.15,1.23,36.26,1.5,54.64l1.08,73.27c32.71-3.39,63.98-10.39,95.3-8.36l71.97,4.66c21.27,1.38,42.12-1.35,61.53-.38,19.35,16.23,39.45,27.85,54.19,48.84-16.06,1.67-30.19.24-45.31.25-38.26,0-75.7.24-114.09,1.11-41.87.95-82.97,7.67-124,12.4-3.33,68.75,2.91,135.4,5.36,202.62l2.18,59.94c3.28-.18,2.37,2.54,1.44,4.28-.72,1.35-2.65,2.86-4.08,2.17-2.61-25.69-2.56-50.57-3.55-76.03-2.3-58.84-8.04-116.99-5.58-175.88,1.35-32.12,1.71-63.34.94-95.82l-2.55-108.38c-10.2,5.02-18.62,9.02-27.9,11.67ZM144.13,768.71c0-.28-.22-.5-.5-.5s-.5.22-.5.5.22.5.5.5.5-.22.5-.5ZM403.08,937.03c-10.73-10.65-31.22-32.69-45.52-34.12l5.47-.29c-3.07-2.51-7.32-4.69-11.1-6.26l-58.44.38-75.37-4.56c-30.48,1.26-59.83,5.22-90.15,8.86.91,16.91,1,33.44.11,50.19,38.86-5.13,76.06-10.06,114.29-12.9l116.83-1.45c14.93-.19,28.7,1.32,43.87.16Z"/>
        <path class="cls-3" d="M721.33,1259.69c-2.25,3.26-5.91,5.81-10.25,3.65,14.42-25.93,30.14-49.9,46.02-74.36,3.23-4.98,5.55-9.69,8-15.79-21.41,24.42-40.82,50.23-59.53,77.06-.86,1.24-3.3,2.37-4.41,2.89s-4.42-.54-4.09-2.05c18.05-29.21,37.96-56,53.19-87.02-12.45,13.36-22.47,28.14-31.9,42.83-1.89,2.94-5.08,5.16-8,6.59-1.2,4.65-19.24,58.09-28.92,49.74,14.23-23.64,22.55-48.88,27.84-75.6,2.28-11.51,5.08-21.92,6.15-33.51,2.92-31.53,4.06-62.63,3.71-94.53-.01-1.29,3.62-1.83,4.6-1.15s2.68,2.68,2.63,4.25c-.54,17.32.77,33.74-.83,50.3.46-1.21.93-3.39,1.06-4.41,3.88-4.82,2.78-7.61,1.8-11.09-3.35-11.88,11.23-45.41,14.99-30.22,1.05-1.28,2.29-2.74,3.24-3.23.96-.49,3.37.66,4.12,1.71.25.35-22.87,57.44-24.05,63.97,6.6-12.46,13.51-23.52,18.59-35.89,3.27-7.96,8.86-14.29,13.78-21.27,2.4-3.4-1.4-8.87-.37-12.17.96-3.06,5.2-4.18,2.27-7.85.87,3.45,5.09,4.97,5.31,7.42,2.52,28.32,4.69,62.22,11.23,90.84,5.48,23.98,10.59,47.16,22.22,68.2l3.01.21c-5.09-.35,14.49,31.81,18.19,33.97l-2.71,2.67c-.43.42.97,1.49,1.93,1.98.95.48,2.01-1.69,2.13,1.89-9.44-1.82-14.67-10.98-19.77-19.54-9.89-16.57-19.08-32.48-23.64-51.5l-18.98,30.44,15.6-13.77c1.37-1.21,3.8-1.56,5.35-.69,1.34.74,2.2,4.06,1.2,5.5l-17.47,25.36c7.91-3.91,12.95-11.28,22.01-9.8,1.99,13.26-31.53,50.7-8.74,7.72-9.75,3.17-31.2,33.36-36.93,24.93l29.15-41.52c-13.19,12.65-23.87,27.98-36.03,42.17-2.62,3.06-7.34,4.89-9.56,1.6,12.53-19.22,26.15-36.11,37.48-56.44-14.26,17.44-27.46,36.46-40.63,55.52ZM765.76,1065.86c-.42,2.08-.47,3.18-.13,4l.13-4ZM738.36,1077.56c2.16-3.43,4.83-6.58,3.36-10.32l-3.36,10.32ZM738.34,1079.32c0-.28-.22-.5-.5-.5s-.5.22-.5.5.22.5.5.5.5-.22.5-.5ZM759.48,1091.51c1.91-2.56,2.43-5.67.59-8.12l-19.42,33.34,18.83-25.22ZM731.15,1092.37c-.56.71-1.12,2.51-.23,1.7l1.54-1.4c.41-.37-1.11-.54-1.31-.29ZM762.77,1114.55l-1.17-12.29-29.63,49.22c10.79-12.53,18.42-26.33,30.8-36.93ZM739.82,1118.6c0-.22-.18-.4-.4-.4s-.4.18-.4.4.18.4.4.4.4-.18.4-.4ZM745.23,1186.44c9.04-7.89,14.26-19.53,26.06-24.83-2.6-12.01-5.32-24.36-6.48-39.09l-31.32,51.12c5.33-4.88,19.19-25.07,25.72-19.92,5.03,3.97-11.39,28.02-13.99,32.72ZM723.68,1154.06l-2.12.97c-.39.18.61,1.57.94,1.29l1.44-1.18c.22-.18-.11-1.15-.27-1.08ZM717.62,1158.27c0-.22-.18-.4-.4-.4s-.4.18-.4.4.18.4.4.4.4-.18.4-.4ZM715.82,1191.8l18.48-32.25-15.66,21.23c-1.99,2.7-2.14,7.67-2.83,11.02ZM753.29,1168.58c0-.22-.18-.4-.4-.4s-.4.18-.4.4.18.4.4.4.4-.18.4-.4ZM776.97,1185.13c-.48-3.78-1.95-8.51-3.56-13.24l-21.72,35.93c8.53-7.25,13.57-18.27,25.28-22.68ZM777.87,1187.62c0-.22-.18-.4-.4-.4s-.4.18-.4.4.18.4.4.4.4-.18.4-.4ZM766.77,1197.94c0-.22-.18-.4-.4-.4s-.4.18-.4.4.18.4.4.4.4-.18.4-.4ZM813.15,1246.8l.47,1.87c.06.25.24.14.63.13.26,0-.06-1.05-.26-1.23l-.84-.78ZM687.49,1259.03c0-.22-.18-.4-.4-.4s-.4.18-.4.4.18.4.4.4.4-.18.4-.4Z"/>
        <path class="cls-3" d="M606.75,969.74l-.79-1.48c2.97-2.43,5.98-5.09,10.04-7.42-5.18,4.95,6.29,2.1,7.55.57,2.24-2.73-2.22-2.75-1.95-4.73,3.04-18.29,20.58-26.45,36.9-26.76-4.4-1.68.75-2.84,2.41-2.99,1.01-.09,3.52,1.66,2.7,2.18l-3.92.67,6.21,2.46-17.28.43c5.91,2.71,11.59.52,17.05,3.25-13.12,1.33-23.67,3.13-32.54,11.38-2.3-4.94,4.58-.59,1.48-4.99l-12.83,12.39c2.02,1.04,2.83.62,5.29.31-1.37,3.04,3.25,10.6,7.28,9.86,4.53-.83,8.87-4.39,14.14-3.75-.18,2.8-.79,5.37-3.63,6.26-3.04.96-10.2-1.17-10.28,1.76-.03,1.12,1.46,2.91,3.01,4.95-7.51,3.04-12.19,12.07-8.02,20.17-6.7-1.42-9.78.16-14.08,3.39.84-3.65,4.87-3.4,2.06-3.92l-3.06-.57-5.25,10.66,5.86-5.97c-3.01,5.68-7.17,9.84-4.62,15.16,4.06.18,9.34,1.72,10.96,6.89-3.05,1.81-6.49,1.25-10.45-.25l1.31,6.27c-4.33-1.37-3.26-4.45-4.44-7.61-4.41,1.64,2.46,2.95-.4,2.95-1.18,0-2.69,3.38-2.81,2.64l-.8-5.22c-5.04,8.51-3.04,18.81,6.67,22.61-8.51-4.18-7.3-4.77-8.92-5.87-1.22-.82-4.36,1.53-6.06,1.43-18.93-1.11-37.69-.46-55.79,4.92-.74.22-2.58-.03-3.23-.41-.56-.32-.68-1.38-.42-2.49,21.09-6.84,42.78-7.89,65.03-4.36-2.68-6.64-1.15-12.75,3.04-18.24-8.35-6.66-11.45-18.51-8.19-28.46-.64,10.14-.55,19.88,7.84,26.89,1.86-1.93,4.42-5.62,2.51-8.67l-1.8,6.86c-2.68-2.15,6.06-32.24,7.96-27.32-.42,4.64,4.43-.03,4.99-2.21-1.31.5-2.35,1.38-2.9,2.21-.3.46-2.1-1.65-1.71-2.01,4.46-4.09,10.43-11.02,16.29-14.06.97-2.43-4.64-4.96-8.08-5l3.85,5.33c-2.85-.87-4.01-3.4-5.72-5.8-4.45.76-8.85,3.34-12.51,5.7ZM625.65,957.54c0-.22-.18-.4-.4-.4s-.4.18-.4.4.18.4.4.4.4-.18.4-.4ZM646.74,963.49c0-1.09-.88-1.97-1.97-1.97s-1.97.88-1.97,1.97.88,1.97,1.97,1.97,1.97-.88,1.97-1.97ZM627.64,963.83l5.07,3.5c-1.24-1.65-2.33-3.76-5.07-3.5ZM632.06,970.7c-.32.24-1.05,1.6-.67,1.7l1.71.41c.39.09.21-1.07.12-1.45-.06-.26-.95-.81-1.16-.65ZM618,981.21c.19.22.76,1.53.93,1.34l.83-.97c.16-.19.18-.52-.07-.54-.33-.02-1.87-.04-1.68.17ZM623.83,992.19l-1-9.78-7.67,9.22c2.88.79,6.26,1.23,8.68.56ZM623.96,987.74c-.37.1.67,1.2.89.88l.75-1.08c.15-.21-1.2.08-1.63.2ZM611.49,990.46c0-.28-.22-.5-.5-.5s-.5.22-.5.5.22.5.5.5.5-.22.5-.5ZM626.15,990.07c0-.28-.22-.5-.5-.5s-.5.22-.5.5.22.5.5.5.5-.22.5-.5ZM607.06,1003.96c0-.31-.25-.57-.56-.57s-.56.25-.56.57.25.57.56.57.56-.25.56-.57ZM608.21,1013.08c0-.22-.18-.4-.4-.4s-.4.18-.4.4.18.4.4.4.4-.18.4-.4ZM618.98,1019.6c-.72-1.76-1.99-3.81-3.27-4.75-1.43-1.06-5.98-.67-5.82.76.44,3.9,5.43,4.34,9.08,3.99Z"/>
        <path class="cls-3" d="M606.75,969.74c-6.23,4-6.27,11.11-10.64,17.65-.65-7.65,4.62-13.89,9.85-19.13l.79,1.48Z"/>
        <path class="cls-3" d="M862.1,874.21c-9.24,2.29-17.71,7.48-27.84,4.66l-4.28-58.35c-11.59-8.16,29.27-4.6,36.01-8.93,1.08,20.77.14,39.95-.19,59.91-.08,4.65,3.61,9.47.19,13.85-4.02-1.72-3.09-6.19-3.88-11.15ZM861.34,871.85l.44-54.57-27.17,1.73,3.96,57.4,22.77-4.56Z"/>
        <path class="cls-3" d="M452.34,790.87c3.79-1.17,42.05-7.38,32.87,1.83-11.61-1.17-24.92-.03-36.23,4.29-1.9-7.08,1.76-11.5.68-17.48-2.43-13.47-6.28-26.6-5.64-40.01l-5.46.51c-1.09.1-2.04-3.02-1.5-4.57l48.09-5.91c2.03,8.33,13.55,60.95,4.47,63.04.99-19.78-2.1-38.26-6-57.93l-35.65,3.88c-4.36,15.16,8.98,39.5,4.37,52.34Z"/>
        <path class="cls-3" d="M718.61,830.94c-4.59,1.26-9.86,1.86-14.67,1.96l-.21,5.28c-.04,1.09-1.88,1.41-4.1,1l-1.23-24.08c-.79-15.55.09-30.83-4-46.37l23.97-2c3.55,12.48,3.42,23.92,3.78,36.36l.83,29.07c.02.69-2.22,1.54-2.57,1.09l-1.8-2.31ZM703.72,829.41c4.7-.31,9.1-1.53,14.65-.65l-3.07-57.84-14.95,1.49c-1.17,7.99,2.13,15.03,2.23,22.74.16,11.45-.61,22.65,1.14,34.26Z"/>
        <path class="cls-3" d="M751.59,891.9c4.6,1.33,9.1-1.24,12.78-1.03l6.95,4.11c-.74-7.98-2.45-15.45-1.94-23.59l4.77,33.12c-5.63-2.55-.19-6.78-3.71-8.89-6.33-3.8-14.43.06-18.8,3.93-.45-2.12-2.13-3.54-4.13-4.2l-4.91-35.51c-1.09-7.9.17-15.02-3.72-22.68,7.54-.25,16.55-3.11,22.31,2.01,1.15,1.02,2.82.09,4.17.54,1.84.61.8,4.11.86,5.54l2.08,46.14c-6.32-1.77-2.76-8.48-5.6-12.56-1.57-12.68.41-25.3-5.24-37.9l-12.83-.6c3.03,13.85,1.17,26.91,5.24,40.17,1.24-4.46-.47-8.4.31-12.57,1.43,8.33,1.09,15.41,1.41,24ZM750.61,882.52c0-1.08-.88-1.96-1.96-1.96s-1.96.88-1.96,1.96.88,1.96,1.96,1.96,1.96-.88,1.96-1.96Z"/>
        <path class="cls-3" d="M925.14,768.58c-2.54.77-5.81-.11-6.14,3.49,1.93-8.82-33.03,10.4-32.9-3.57.17-18.56.13-36.69-1.47-55.54l32.75-3.68c5.12,11.01,5.32,21.95,4.71,33.73l-1.14,22.09,4.1.62c.72.11.78,2.58.09,2.86ZM892.78,762.92l.35,7.28,21.32-3.92c2.92-17.23,6.65-35.01.2-52.93l-26.29,3.09c1.28,2.76,2.74,1.36,4.53,2.39l-3.36.1.88,51.24c3.39-1.83-.3-4.81,2.37-7.25ZM920.44,757.23c-.76,2.59-.78,4.2-.14,5.65l.14-5.65ZM919.47,764.34c0-1.08-.88-1.96-1.96-1.96s-1.96.88-1.96,1.96.88,1.96,1.96,1.96,1.96-.88,1.96-1.96Z"/>
        <path class="cls-3" d="M752.48,823.66c-1.84.73-10.16,4.86-14,2.61-5.14-3.01-1.83-45.74-6.48-56.67,8.86-8.9,6.83,43.92,8.92,53.33.17.77,3.05-.13,3.17-.92.14-.95.06-.97-.07-6.24.86,3.71.65,5.22,1.98,5.36,1.78.18,7.31-.94,8.56-2.03,2.29-16.8.27-35.12-3.91-51.92-6.21-2.3-12.88,1.62-18.96-3.4,7.17-3.18,15.99-1.64,23.74,1.05l2.99,19.44c1.88-5.09-2.79-10.09.02-15.66l3.9,61.76c-3.51-5.65.11-12.13-2.28-18.65-2.12,4.9,0,10.42-1.18,15.36-4.62-.14-3.07-4.74-6.4-3.42Z"/>
        <path class="cls-3" d="M710.31,570.3l-5.85-11.76c1.43-1.19,2.94-2.34,3.12-3.26.19-.92-1.51-2.6-2.82-3.4l-2.06-40.65,2.17,2.32c.55,5.66.49,12.59,5.12,16.74-.88,3.09-1.37,7.26,2.04,10.15.13.53.41,1.41.22,1.8s-1.11,1.47-1.28,1.07l-1.2-2.79-.1,14.51c6.31-.24,11.33-.77,17.43-1.77l2.74,3.77c2.62-3.1,5.78-3.15,10.97-1.24l-1.06-53.12c5.57,1.98.61,4,1.65,6.61.76,1.89,3.12,3.38,3.25,5.13.86,11.12,2.29,25.42,3.38,36.2,2.38-.74,3.88.81,6.38-.07-.64,2.44-1.09,2.61-2.94,3.9-1.44,1.01-2.24.23-4.73-.44-.94,5.07-.54,9.13-5.55,9.55l2.78-2.89c.67-.69.8-3.04-.04-3.33-1.31-.45-3.25-.82-4.75-1.01-3.59,3.28-9.77.55-11.64,4.29-1.29.65-4.11,1.69-5.97,2.24l2.35-1.49c-4.22-.58-9.75-.45-13.69,1.94.47,2.11,1.86,2.72,3.16,2.2l4.22-1.69c-3.04,2.13-5.89,3.56-7.35,6.48ZM743.89,514.43c0-.28-.22-.5-.5-.5s-.5.22-.5.5.22.5.5.5.5-.22.5-.5ZM743.77,528.71c0-.58-.47-1.05-1.05-1.05s-1.05.47-1.05,1.05.47,1.05,1.05,1.05,1.05-.47,1.05-1.05ZM742.82,531.99l-1.55,3.43c-.16.35.94,1.56,1.17,1.23.3-.45.65-2.11.59-2.65l-.21-2.01ZM707.42,534.26c0-.28-.22-.5-.5-.5s-.5.22-.5.5.22.5.5.5.5-.22.5-.5ZM715.24,556.08c0-.22-.18-.4-.4-.4s-.4.18-.4.4.18.4.4.4.4-.18.4-.4ZM718.49,555.87c-.3.23-.95,1.57-.58,1.63l1.52.23c.37.06.43-.94.25-1.27-.12-.22-.99-.74-1.19-.59Z"/>
        <path class="cls-3" d="M769.21,748.32c-3.58-21.33-2.87-41.99-5.12-62.24-1.22-.96-3.08-2.09-3.84-3.91l26.26-2.48c5.22,21.43,1.05,41.82,3.61,64.65l-20.9,3.98ZM786.52,740.53c-3.17-20.05-.53-37.75-3.49-56.42l-14.66,1.48,4.39,57.32c5.06.12,10.45-.77,13.75-2.38Z"/>
        <path class="cls-3" d="M801.4,818.01c-.17.26-23.38,8.04-25.08,1.83-4.46-16.32-3.6-35.75-4.1-52.17-1.25-.9-3.56-2.04-3.64-2.98s2.31-2.56,3.28-2.64l21.81-1.71c2.51,18.66,4.12,36.97,3.12,55.45l3.36-.16c.69-.03,1.63,1.79,1.25,2.37ZM792.69,815.81c.19-17.85-.67-33.64-2.63-51.02l-13.73.51c.85,18.24,1.07,35.54,4.03,53.55l12.33-3.03Z"/>
        <path class="cls-3" d="M786.22,901.5c5.23.43,10.14-.46,15.21-4.45l-16.93-1.6-5.1-51.05c-.09-.88-3.09-1.23-3.25-1.9s-.13-1.99.53-2.21,2.8-.36,3.63-.44l28.49-3.01c-3.17,18.92-2.82,39-1.7,57,.05.85-.99,2.9-1.22,3.43s-1.75-.84-2.18-.75c-4.89,2.88-10.75,9.02-17.48,4.98ZM788.77,892.5c5.19.27,9.46.37,14.02.12-1.34-17.65-.38-33.67.04-50.83,2.02-1.33-1.51.49-1.67,1.74-.24,1.81-1.25,13.92-1.07-1.43l-16.47,2.08,5.15,48.33Z"/>
        <path class="cls-3" d="M916.76,811.35c-7.75-1.39-15.28-.72-22.02,1.57.88,19.55,1.8,38.13,3.62,56.62.14,1.38,1.55,1.88-2.91,2.31-1.22.12-1.83-2.81-1.92-4.38l-3.21-54.35c-.11-1.93-3.65-2.53-1.01-4.82.7-.61,27.45-2.88,31.37-.75l5.11,43.74c.75,6.43-.42,14.25-.71,20.82-7.11-2.92-2.77-9.41-3.29-14.21l-5.03-46.55Z"/>
        <path class="cls-3" d="M712.51,718.52c1.66,13,6.41,24.11,2.77,37.27-4.66-4.05-12.73-2.55-17.14,1.92-3.81-5.14-4.92-10.76-5.58-16.64l-5.34-48.03c4.53-3.03,11.37-4.61,18.56-4.08,1.96,6.2,3.22,12,4.38,18.07,1.28-7.08-3.87-13.16.33-19.17,4.69,10.17.75,20.72,2.01,30.66ZM713.09,749.59c.19-12.59-2.96-21.66-5.24-32.03-1.78-8.12-2.22-17.06-5.01-24.87-4.16-1.09-11.5.6-10.97,4.76,2.34,18.37,1.65,35.75,6.11,53.67,5.46-.33,11.17-.73,15.11-1.52Z"/>
        <path class="cls-3" d="M749.41,746.36c-3.78.33-9.63,1.47-13.58,2.65l-.03,4.44c0,.8-2.54,1.01-2.92.3-.44-.85-1.64-2.94-1.73-4.1l-4.55-57.19c-.27-3.45-9.79-6.74,21.22-6.38,1.27,5.09,3.22,10.47,3.62,15.87l3.38,44.89c-2.67-.13-3.33-.63-4.28,2.26-.52,1.59-.89,2.89-1.14-2.75ZM750.29,742.36c-.93-19.38-1.32-36.19-6.48-53.62l-13.38,2.89,4.07,52.62c6.08-.16,10.67-.99,15.79-1.9Z"/>
        <path class="cls-3" d="M536.53,774.05c11.61-.35,25.19-6.2,35.81,1.9-14.47.77-29.29.09-40.43,4.09-1.39.5-3.03-1.93-2.75-2.74.37-1.09,1.93-1.71,4.37-2.08l-8.54-47.6c13.66-4.68,26.68-2.47,40.72-3.41,5.58,12.98,6.87,31.16,6.73,48.54-6.2-15.61-2.18-31.67-7.94-44.56-11.95.48-23.52-.17-35.28,2.39.9,15.17,4.88,28.69,7.33,43.47Z"/>
        <path class="cls-3" d="M712.82,848.68c3.67-3.34,9.48,1.92,11.66-4.4-6.27-.57-11.88,3.43-18.08,3.96l3.07,45.03c.06.88.66,2.62.75,3.19.12.71-1.65,1.19-2.36,1.13s-2.58-1.19-2.65-2.2l-3.34-49.34c8.32-2.79,16.02-5.73,25.9-6.36-1.09,19.31,2.54,38.22,4.36,57.31.08.86-2.1,1.44-2.72.95-2.95-2.33-6.09-42.03-6.02-49.86-3.81.25-7.71.77-11.36,1.76,4.6,5.34-2.85.51-2.2.21l2.99-1.38Z"/>
        <path class="cls-3" d="M579.24,861.32c-5.16-18.37-.38-30.87-5.94-48.89-5-.69-43.57,4.59-42.81,5.51-.44-.54-1.09-1.65-1.32-2.3-1.65-4.53,41.43-7.56,45.81-7.5,8.41,22.82.76,32.26,9,57.8-16.28.86-31.97,5.22-48.4,2.89,13.25-8.07,28.56-1.9,43.67-7.52Z"/>
        <path class="cls-3" d="M629.46,864.56c-2.11.3-3.85,1.37-5.67,1.23-1.62-.12-2.65-2.71-1.93-4.88l35-4.63-2.28-52.32c-13.76-.39-27.29-2.72-40.18.62l-4.06,1.05c-.87.23-1.63-2.71-1.03-3.39,3.94-4.52,38.11-2.56,46.26-2.78,3.52,9.01,2.45,18.12,2.91,27.65l1.58,33.08-30.59,4.37Z"/>
        <path class="cls-3" d="M853.2,972.19l.98-.08c-.52.77-.77.87-.98.08Z"/>
        <path class="cls-3" d="M845.35,926.02c-.18.13-.68.49-.93.63-.37.2.45,1.05.87,1.13,12.9,2.38,17.1,20.08,13.09,14.65l-2.44-3.31c-.08,1.57-.2,2.62.17,3.42.51,1.11,3.51.97,4.45.58,1.18-.5.8-2.41.68-4.33l-.16-2.5c-.94-14.74,3.19,12.59,3.13,16.52-.03,1.51-5.4,15.12-5.75,13.87.48,1.68,2.32,3.51,3.41,4.49-.94,7.68,1.1,18.73-5.56,23.49,3.16-10.21,7.19-22.14-1.77-27.87-1.64,3.22.87,2.07,1.28,2.85.27.52-1.38,2.31-1.63,2.46-.38-1.72-.71-1.85-.98.08-1.29,3.4-4.39,5.75-7.68,5.96,1.2-5.29,5.14-9.47,5.48-14.6-2.23-2.58,2.35-.14,2.76-1l2.19-4.59c.51.31,1.39,1.73.93,2.18-.55.54-1.94,2.39-1.79,3.25.35,1.72,3.12,0,4.02-1.73.59-1.14-1.76-3.02-2.38-4.41,1.74-9.91-5.74-25.05-13.87-23.34-3.95-1.42-3.19-7.56-8.68-10.68l-2.63,1.6c-.63.38-1.37-1.76-1.86-2.72-.32-.64.82-.88,2.78-2.03-4.96-2.23-8.99-4.45-12.09-9.12,10.28-1.17,21.06-2.03,30.15,4.29-8.3-3.12-16.98-4.82-25.9-4.03,4.43,1.28,6.4,5.29,9.68,7.5,3.64,2.45,9.84,2.28,11.04,7.3ZM823.06,911.52c0-.22-.18-.4-.4-.4s-.4.18-.4.4.18.4.4.4.4-.18.4-.4ZM827.82,913.9c0-.22-.18-.4-.4-.4s-.4.18-.4.4.18.4.4.4.4-.18.4-.4ZM829.06,916.19l1.08,1.75c.14.22,1.17-.06.98-.23l-1.23-1.09c-.19-.17-.97-.63-.83-.43ZM837.11,922.6l1.82,2.19c.31.37,2.28.59,2.14.14-.28-.87-1.05-2.16-1.65-2.2l-2.31-.13ZM839.24,926.31l1.01,1.75c.1.18,1.05.35.91.19l-1.08-1.24c-.14-.16-.34-.3-.84-.7ZM860.32,947.22c0-.22-.18-.4-.4-.4s-.4.18-.4.4.18.4.4.4.4-.18.4-.4ZM860.63,950.25c-.41.45-1.57,2.02-1.25,2.32l1.35,1.28c.56.53.7-4.46-.1-3.6Z"/>
        <path class="cls-3" d="M845.29,927.78l.06-1.76,1.12.24c.31.06.71,1.15.4,1.21l-1.58.31Z"/>
        <path class="cls-3" d="M494.87,811.88c-11.42-.43-24.51-.38-35.64,1.28-1.08.16-2.95,1.96-3.81,1.92-1.01-.04-1.82-2.5-1.63-3.5,1.09-5.69,35.97-3.81,44.1-4.05,2.6,17.22,11.21,34.84,7.23,53.5-4.31-16.96-4.24-33-10.25-49.16Z"/>
        <path class="cls-3" d="M647.11,772.23c-11.94,1.86-23.32-1.21-33.85,2.2-1.72-1.85-3.49-1.54-4.06-2.46,1.63,2.65-12.55-47.81-7.16-50.61l10.21,48.71c10.7-.49,23.86-5,34.86,2.15Z"/>
        <path class="cls-3" d="M648.47,769.06c-2.97,10.22-9.01-46.03-9.33-46.96-10.74-3.32-21.58.35-33.38,1.17,9.66-9.07,23.87-6.66,35.74-5.35.05,9.75,8.07,47.34,6.97,51.13Z"/>
        <path class="cls-3" d="M676.99,999.27c.42-.99.94-1.93,1.7-3.39l-6.43,2.58c-.46-4.07,28.38-29.04,32.26-24.97-7.02,12.52-19.6,12.37-21.07,30.26l-3.99,3.62c-2.64-2.87.95-7.6-2.46-8.11ZM690.99,981.97c.21.3,1.07,1.6.92,1.34s.67-1.19.37-1.23-1.47-.38-1.29-.11ZM681.04,991.26c0-.38-.3-.68-.68-.68s-.68.31-.68.68.3.68.68.68.68-.31.68-.68ZM681.13,1001.45c-.04.31-.25,1.46-.17,1.42s1.23-.36,1.55-.44-.42-.91-.72-1.05c-.19-.09-.62-.15-.65.06Z"/>
        <path class="cls-3" d="M676.99,999.27c-2.22,5.25-4.89,10.6-7.31,14.77-1.97-.06-3.9.51-5.01,1.15-.68.4-.28-2.27.02-3.01s1.61-1.47,3.24-1.79c-.93-4.23.84-9.07,4.32-11.93.69,3.2-3.35,3.81-1.16,7.77,1.89-2.39,3.73-5.01,5.89-6.97Z"/>
        <path class="cls-3" d="M840.67,947.01l1.17,2.42c-4.14-1.61-3.31-6.32-7.69-7.94l.02,2.82c.08,10.2-2.04-4.11-2.58-5.15-.66-1.26-2.76-2.18-5.03.81-.62-3.51-1.11-4.43-2.98-5.48-4.4-2.49-7.09-.84-11.24.11-.71-2.77,2.03-3.54,1.81-5.36-5.69-1.44-8.3-7.76-14.96-6.26,3.86-8.74-4.35,4.69-2.92-.66l1.37-5.12c5.2.64,9.96,4.16,14.77,7.01,5.82,3.44,13.76,4.59,19.24,9.02l1.06-1.83c.13-.22.3-.21.54-.05.22.14,1.09.67.86.82l-1.93,1.23c2.61,1.58,5.78,2.26,6.38,4.81l-3.92-.93c-.86-.2-1.83.58-1.66,1.44.31,1.56,3.31,2.05,4.42,2.43,1.43,3.03,1.86-1.19,2.72-.92,1.61.51,3.35,2.73,3.75,3.68.47,1.12-1.93,2.57-3.21,3.13ZM815.93,927.39c0-.22-.18-.4-.4-.4s-.4.18-.4.4.18.4.4.4.4-.18.4-.4ZM816.92,929.55c-.31.45-1.11,1.96-.63,1.98l3.17.11c1.69.06-2.47-2.18-2.54-2.09ZM823.17,930.67c-.31.17.95,1.53,1.05,1.22l.46-1.43c.1-.3-1-.07-1.51.21ZM826.23,932.94c0-.22-.18-.4-.4-.4s-.4.18-.4.4.18.4.4.4.4-.18.4-.4Z"/>
        <path class="cls-3" d="M629.57,1024.66c-.09.16.88-.45.8-.67,3.49.74,6.7,3.51,9.68,5.38l4.51-4.42c1.52-1.49,3.86,1.57,3.37,3.4-.3,1.13-.83,1.18-2.34,3.24,4.52,1.29,7.27,1.44,10.97,1.86l-1.54,2.47c-1.34,2.15,6.43-.99,6.15.94-3.6,3.35-10.69,2.83-13.9.29-1.28,1.29-3.5,1.49-4.65.73-1.81-1.19-1.53-2.41-1.24-4.56-.97.99-2.11,2.1-3.17,2.08-3.77-.06-9.25-8.11-8.64-10.75ZM631.46,1026.56l1.64.39c.32.08,1.45-.25,1.13-.39l-1.24-.54c-.3-.13-1.84.47-1.52.54ZM650.12,1034.89c0-.38-.3-.68-.68-.68s-.68.31-.68.68.3.68.68.68.68-.31.68-.68Z"/>
        <path class="cls-3" d="M630.37,1023.99l-.8.67-1.64-2.49c-2.11-3.53.7-3.02,2.44,1.82Z"/>
        <path class="cls-3" d="M714.9,939.15l-3.38-7.93c-7.75-.97-12.86,5.57-19.98,9.15,3.6-19.01,16.26-5.93,17.12-15.33l5.97,8.94c-.36-3.55-.93-4.2.34-5.9,1.66-2.21,2.2-3.67,3.68-2.73,2.53,1.62,2.62,2.36,3.53,5.17,1.84-4.49,3.24-2.35,7.19-1,2.85.97.92,1.84,1.01,5.54l-4.36-.94c-.11-.02-7.47,7.25-6.25,4.08.33-.85.7-2.59.88-2.13s2.06.42,2.86.14c1.54-3.92-4.06-2.74-2.93-7.46-3.96,1.68-5.32,5.19-5.67,10.38Z"/>
        <path class="cls-3" d="M802.16,957.42c-1.78,3.47-3.11,7.18-7.83,5.37-2.51-.96-11.47-2.24-7.16-5.85-1.56-1.9-4.43-4.67-3.99-7.27,1.21-7.21,16.32-16.33,21.11-13.36-5.91,3.99-15.75,6.43-16.94,13.54-.4,6.5,9.86,7.41,14.81,7.58ZM794.52,940.08c0-.22-.18-.4-.4-.4s-.4.18-.4.4.18.4.4.4.4-.18.4-.4ZM794.62,960.5c.11.57.29,1.46.55,1.17l.9-1.04c.17-.2-1.49-.39-1.45-.13Z"/>
        <path class="cls-3" d="M710.05,1049.25l3.63.34c.66.06,1.69-.14,1.42-.63l-1.87-3.36c-.97,1.63-.79,2.43-1.69,2.68-1.25.35-3.98.55-4.46.42l7.97-7.6c6.67-1.33,2.3.51,1.22.91-.47.17.5,1.88,1.12,2.01,1.06.21,4.77.48-1.86,1.88,6.21,5.39,13.75,2.11,19.53,3.25-.63,3.15,7.34,1.98,8.91-.75l-3.34-1.1c-.61-.2.21-1.21.18-2.29-.06-2.23,15.85,6.75,24.49,1.65,4.95-2.79-1.46-7.41.54-12.52,3.43,8.93,8.43,13.14,18.74,13.01-5.29,5.89-15.23-4.97-15.72-3.22-.24.84-2.48,3.58-1.61,3.63l4.24.26-1.87,1.29c-.37.26.78,1.45,1.07,2.02-8.01,2.59-16.99-2.71-24.86-1.2-8.1,2.65-15.72,7.94-23.15,2.87,1.8,5.64-2.59-.37-5.22-.75-2.23,2.28-5.59-.95-7.41-2.81Z"/>
        <path class="cls-3" d="M786.27,986.92c-.97,5.58-5.85,4.11-9.37,5.53-2.67,1.08-4.8-1.12-6.08-3.75-.73-1.5.09-4.11-.18-6.11-2.38-6.5,3.96-12.6,9.05-18.2-1.5,8.9-6.22,15.34-3.08,23.43l9.66-.91ZM773.62,988.48c0-.28-.22-.5-.5-.5s-.5.22-.5.5.22.5.5.5.5-.22.5-.5Z"/>
        <path class="cls-3" d="M628.03,857.84c-5.86-16.51-8.68-34.4-7.93-52.21,4.17,16.92,7.32,34.29,7.93,52.21Z"/>
        <path class="cls-3" d="M726.34,992.77l3.88,4.31c.64.71.97-2.64,2.33-3.07,2.5,2.4,3.01,4.66,4.41,5.19,1.78.67,3.99-.78,6.27-1.82,1.15.77.3,3.53-.89,4.1-8.82,4.22-17.28-5.29-19.66-13.06-2.78-9.09-2.29-17.74,5.83-22.93-.95,4.01-4.27,4.6-3.11,7.26l2.29,1.93c.53.45-.43,2.9-1.07,3.18-.74.33-1.77-.39-4.22-.98l1.82,11.09c1.34-.9,2.93-1.82,3.32-1.17.53.86,1.42,3.02,1.75,4.13.25.83-1.98.96-2.97,1.86Z"/>
        <path class="cls-3" d="M466.39,872.85c-.76.26-2.39-1.29-2.6-2-1.29-4.2,33.31-9.93,36.65-2.67-11.7,1.11-23.54,1.08-34.04,4.67Z"/>
        <path class="cls-3" d="M636.87,1003.12c-.17-.33-1.6-.99-1.64-.48l-.11,1.43c-1.64.76-3.61,2.01-4.93,3.44-1.47,1.6,3.6,2.76,1.73,5.84-.88.36-3.08.41-3.87.26-.65-.12-.95,1.95-.76,2.57.29.89,2.48,1.94.54,3.15-4.77-5.65,1.06-12.99,4.22-18.79-1.25-1.32-2.85-3.01-3.44-3.71-.59-.7,1.86-2.54,2.75-2.73.8-.17.89,2.49,1.7,2.43l12.55-3.63-2.76,2.8c2.77.94,3.33-3.52,6.54.01l-10.16,4.77c4.94,5.92,5.27-.12,12.1,2.02.56.18.35,1.82-.24,1.91l-2.57.4c-4.77,1.43-8.32-4.83-11.66-1.71Z"/>
        <path class="cls-3" d="M635.11,1004.07l1.76-.95-1.14,1.28c-.13.14-.37-.14-.61-.32Z"/>
        <path class="cls-3" d="M747.61,930.2c-1.76-2.42-2.28-3.45-2.91-3.65-2.61-.81-.7.64.15.83,6.08,1.37-8.98,2.2-11.04,3.72.43-2.96,2.59-6.3,3.96-8.28l4.02,1.28c.88.28,1.22-.32,1.23-.98.01-.99-1.89-4.81,1.83.77l-1.26-5.32c2.56.69,3.09,7.32,4.42,4.27l1.36-3.11c.66-1.51,2.06-3.95,3.35-4.36,1.39-.44,3.48,2.34,5.05,3.65l3.31-2.36c.91-.65,3.91,1.08,3.71,1.94-1.48,1.92-3.52,3.36-5.47,3.2-2.79-.23-3.87-1.09-6.26-3.92-2.44,4.47-4.56,8.15-5.44,12.31ZM745.37,925.01c0-.22-.18-.4-.4-.4s-.4.18-.4.4.18.4.4.4.4-.18.4-.4Z"/>
        <path class="cls-3" d="M654.77,965.81c.36.45.71,2.63,1.47,2.55,1.18-.12,2.44-.21,5.13-.05-6.08,6.06-16.31,9.64-24.72,3.43l12.96-3.07c-.3-6.55,1.49-11.88,4.89-16.55.23,1.46.37,2.46.58,3.11.25.78,2.42-.65,4.16-1.8l-3.41,6.99c-2.06.39-3.55.72-4.56,1.08-.83.29-.15,2.46.1,3.83.17.88,1.72.63,3.38.49ZM654.34,957.7c-.53.37-1.85,1.91-1.46,1.75.79-.31,1.75-.77,2.05-1.08.66-.71,1.18-1.89-.59-.67ZM653.4,971.03c0-.22-.18-.4-.4-.4s-.4.18-.4.4.18.4.4.4.4-.18.4-.4Z"/>
        <path class="cls-3" d="M749.35,1020.95c3.51-1.31,5.95-2.73,9.74-5.44.09,2.34-.84,6.16-3.3,6.75-1.99.48-6.51.04-9.32-1.36-7.4-3.67-5.12-19.13,2.15-23.67,1.72-1.08,2.93,1.49,3.06,2.85.1,1.06-.94,4.22-2.71,1.7-1.46,5.77-2.13,12.23.38,19.17ZM745.87,1003.2l-1.88,3c-.27.43.39,2.05.74,1.69.53-.55,1.37-1.66,1.33-2.15l-.19-2.53Z"/>
        <path class="cls-3" d="M461.53,862.99c-5.27-14.5-5.38-29.94-4.96-44.7,5.22,14.5,5.03,30.22,4.96,44.7Z"/>
        <path class="cls-3" d="M539.39,863.36l-6.17-44.66c6.45,13.56,8.7,30.69,6.17,44.66Z"/>
        <path class="cls-3" d="M776.84,946.17l3.02-2.02c.64-.43,2.24,1.3,2.04,2.07l-1.25,4.92c-1.61-.8-3.63-3.3-4.58-5.01-1.43-2.58.45-6.37,3.02-7.81l17.41-9.78-1.93-2.71c-.37-.52,1.45-2.04,1.62-1.45l.87,2.93c4.2,2.73,7.44-4.21,11.21,1.48-8.08-3.48-9.65,3.75-14.6,6.18-4.64,2.28-14.91.93-16.83,11.21Z"/>
        <path class="cls-3" d="M828.01,1033.12c2.83-1.52,5.69-3.27,8.61-5.68-3.04.65-5.93,1.17-8.62.92l3.88-1.72c.81-.36-1.78-2.3-4.31-1.61-3.69.34-2.16,6.13-6.48,4.61,2.68-5.34,7.23-8.61,5.79-15.09l-19.81,10.21,2.12,1.35c.33.21,1.29.56.94.74-.42.22-1.6.84-1.25.65s-1.62-1.68-2.26-1.5c-8.11,2.22-22.57,7.18-31.35,5.1-7.96-1.89-14.27-11.14-9.76-16.57,5.19.08-.28,2.88,1.38,5.02.85,1.09,9.23,6.47,10.17,6.16.32-.11,9.15-7.06,12.19-6.23,2.26.62,6.48.84,6.88,4.56l8.14-2.18c-3.34-1.84-6.15-2.6-6.72-5.5l20.48-1.45c-.77-6.4,5.7-10.12,8.74-12.71.18-4.48,3.05-11.01,4.73-16.33.59,2.21,1.47,6.81,1.25,8.91-.19,1.89-3.31,2.96-4.58,5.05,3.69.53,1.37,4.03.3,5.12-1.82,1.84-2.94,3.24-5.16,3.11.68.72.84,1.87.43,1.74l-1.87-.59c-.43-.14.31,2.52.34,3.31-1.24,1.33,2.32.19,3.93-.17,1.46-.33,1.19-2.65,1.24-4.73,5.43,1.27,8.97,4.51,14.34.58-3.46.2-6.65,1.03-9.79-3.21l6.5-.91c2.26-.32,2.14,1.62,4.81,3.68l11.72-10.7c-.42,4.61-4.79,6.06-6.82,8.97l1.63,1.73c.24.26.76,1.1.95,1.47.16.32-1.58.43-1.58.08-.08-6.69-10.9,5.53-18.74,2.41l-3.89,13.18,12.39-4.47c.33.56,1.19,2.69,1.57,2.17.62-.87.69-.96,2.6-4.48.15,2.31.14,2.11.21,3.11.05.71,3.29-.31,5.28-.21-.66,2.33-4.33,2.5-6.03,3.54-4.69,2.87-7.79,8.27-14.52,8.55ZM826.23,1005.14c0-.22-.18-.4-.4-.4s-.4.18-.4.4.18.4.4.4.4-.18.4-.4ZM806.41,1019.42c0-.22-.18-.4-.4-.4s-.4.18-.4.4.18.4.4.4.4-.18.4-.4ZM792.69,1028.8c.62-4.05-3.04-4.04-5.24-4.93-1.48-.59-5.75.38-4.58,4.07,3.97-1.01,7.53-2.04,9.82.85ZM793.73,1024.82c.4.99.41,1.11.79.98l2.13-.73c.38-.13-.79-.84-1.18-.73l-1.74.48ZM774.7,1026.56c0-.22-.18-.4-.4-.4s-.4.18-.4.4.18.4.4.4.4-.18.4-.4ZM800.86,1026.56c0-.22-.18-.4-.4-.4s-.4.18-.4.4.18.4.4.4.4-.18.4-.4ZM778.66,1028.15c0-.22-.18-.4-.4-.4s-.4.18-.4.4.18.4.4.4.4-.18.4-.4ZM788.18,1028.94c0-.22-.18-.4-.4-.4s-.4.18-.4.4.18.4.4.4.4-.18.4-.4Z"/>
        <path class="cls-3" d="M802.33,1006.71l-7.74,1.5c4.61-9.52,10.61-19.31,21.33-21.68-5.51,6.15-9.76,12.28-13.59,20.18ZM801.2,1004.16c2.59-2.57,4.2-4.82,5.17-7.04-3.29,1.02-9.55,3.35-5.17,7.04Z"/>
        <path class="cls-3" d="M749.36,510.28c-.65.11-2.59-1.77-3.18-1.95-11.59-3.51,25.24-3.74,19.39-4.15-.28-4.23,1.88-2.17,2.86-.9,1.26,1.64,1.38,3.01.55,3.69-1.46,1.2-3.39.59-5.09.87l-14.54,2.44Z"/>
        <path class="cls-3" d="M683.62,945.39l.98-1.06,2.37-2.74c.62-.72-2.2-1.58-3.03-2.21-.83-.62,2.19-3.23,2.9-2.49l3.15,3.27c-2.56-2.66-9.1,21.69-9.06,22.39-2.04-1.86-2.09-5.47-2.63-9.5-.62-4.56,2.29-3.93,5.32-7.67ZM681.25,950c0-.28-.22-.5-.5-.5s-.5.22-.5.5.22.5.5.5.5-.22.5-.5ZM681.94,955.16c0-.22-.18-.4-.4-.4s-.4.18-.4.4.18.4.4.4.4-.18.4-.4Z"/>
        <path class="cls-3" d="M684.61,944.34l-.98,1.06-1.63-1.78c-.31-.34.34-1.28.73-1.51s1.63.05,1.68.51l.2,1.73Z"/>
        <path class="cls-3" d="M916.78,874c-8.19,1.19-16.76,2.3-25.34,2.37,5.8-5.91,17.69-6.58,25.34-2.37Z"/>
        <path class="cls-3" d="M742.46,961.96l-13.08,8.31c.31-.73.83-1.6,1.67-2.77.74-.98,1.07-1.47,1.56-1.66.76-.28,2.16-.59,1.04-1.08l-2.75-1.22c3.99-5.13,11.67-7.7,17.54-5.74-3.24,4.09-2.57,2.33-2.61,1.21-.03-.81-.38-.8-2.63.68l-1.89-.47c-.45-.11-1.69,2.51-1.24,2.38.72-.22,2.3-2.01,2.38.36Z"/>
        <path class="cls-3" d="M872.06,989.8c6.95-13.44-8.56-1.85.4-23.36,1.16,1.93.99,5.53,1.03,7.76,3.89,5.1,3.77,11.6-1.43,15.6Z"/>
        <path class="cls-3" d="M621.69,1041.9c-3.93,3.87-16.38-16.34-14.67-19.71,1.68,3.38,3.58,5.65,4.18,8.61l.74-3.77c5.59,3.43,4.5,10.26,9.75,14.87Z"/>
        <path class="cls-3" d="M714.56,892.65c-4.22-12.61-4.1-25.87-4.96-39.18,2.74,13.19,4.33,25.77,4.96,39.18Z"/>
        <path class="cls-3" d="M689.58,1016.57c-1.98-1.75-2.6-.8-4.48-.68-1.57.1-3.04-1.65-3.19-3.49,6.65,2.75,10.98-.27,18.3-2.48-.65,4.09-7.96,9.01-10.63,6.65Z"/>
        <path class="cls-3" d="M632.87,954.58c1.42,2.19,4.3,2.94,7.88,3.71-4.12,2.09-9.53-.38-12.99-4.37,5.69-2.36,10.83-3.49,16.86-1.76-3.23,1.43-7.14,1.62-11.75,2.42Z"/>
        <path class="cls-3" d="M687.76,1030.32l.9,2.52-2.61.98c-.64.24-1.32-2.23-.75-2.82l6.8-7.13c3.16,1.83,5.74,2.76,10.22,1.57-3.22,3.95-8.58,4.2-14.56,4.89Z"/>
        <path class="cls-3" d="M766.53,932.12c.46,1.16.9,2,.78,2.79-.19,1.29-1.87,2.72-2.68,2.39-1.22-.51-2.86-2-2.8-2.99.24-3.91,1.46-7.68,4.96-8.7-.69,1.83-1.02,2.16-.88,2.73s.85,2.78,1.29,2.42l2.56-2.1c-.3,1.24-1.08,2.86-3.23,3.46Z"/>
        <path class="cls-3" d="M866.66,980.23c4.67-1.31,2.83,20.02-4.82,21.07,4.42-6.16,6.6-12.32,4.82-21.07Z"/>
        <path class="cls-3" d="M688.05,976.14c-3.4-2.85-4.55-5.8-5.79-9.38l1.9,2.04c.48.51.81,1.05.94.7l1.3-3.4c.76.78,2.58,2.96,3.56,4.39.84,1.23-1.13,4.27-1.92,5.64Z"/>
        <path class="cls-3" d="M764.98,1027.75c-3.67.98-4.52,2.97-6.16,3.15-2.33.25-5.94-1.35-6.71-2.71,5.05.53,8.95-3.14,12.87-.44Z"/>
        <path class="cls-3" d="M523.05,1113.69c-1.09-8.3.16-15.89.79-24.07.29,7.97,1.27,16.14-.79,24.07Z"/>
        <path class="cls-3" d="M758.46,1043.37c.97-2.95.65-6.5,3.82-6.84,1.45-.16,2.26,3.93,1.17,4.84-1.41,1.16-3.73,2.19-4.98,2Z"/>
        <polygon class="cls-3" points="693.04 915.09 693.04 916.68 689.87 915.88 693.04 915.09"/>
        <path class="cls-3" d="M787.11,911.97l-2.07-.56c-3.37-.91-1.85-3.5.33,2.28l.96,2.54c.2.52,2.41.59,2.34.04l-.41-2.8c1.13.67,2.62,1.9,4.03,3.14-.19.4.53-1.11.76-1.59s-.38-2.34-.63-1.86c-.36.7-2.01.75-3.28.24,4.01-6.05,10.43-8.04,16.21-6.83,4.74,1,11.44-5.55,16.03.8-2.18-.34-7.23-3.26-4.3.64-5.89,3.83-14.57,3.67-22.43,1.77-1.1-.27-.95,3.18.48,2.81l3.22-.83c-1.97,1.83-4.37,3.96-5.45,5.24-.93,1.11.66,3.36,1.41,4.66-4.25,1.66-3.68,2.04-7.85.89-1.23-.34-1.67-1.13.29-4.28-7.39,1.49-3.08.57-3.47,3.02-.63,3.88-3.43,1.77-3.91.91-.71-1.29-3.02-4.21-1.82-4.35,3.41-.4,4.75-.38,6.69.3-.29-5.89-5.08-7.69-10.28-9.72-4.16-1.63-8.96,2.82-13.01,1.43-6.77-2.34-12.59,4.71-18.8,6.62-2.16.66-4.7,1.19-5.82,3.85-2.87-1.53-8.32-7.5-9.88-3.02-3.51-3.39-5.82-7.01-10.77-7.55-2.16,2.9-12.82,1.59-7.24,6.04-7.8-5.35-13.79,5.15-23.1,7.72l2.42,1.16c-2.37,1.29-6.02-2.39-5.29,3.19l.36,2.75c-3.6-5.74-2.61,5.04-3.72,7.37-.91-4.88-.64-10.86,3.87-14.1l4.43-10.37c8.69-2.25,14.33-7.9,22.5-6.69,1.34.2,3.1.25,3.49-.64.36-.81,1.03-3.34.23-3.46l-3.87-.6-2.85-.44c-13.93-2.16,19.91-5.58,21.36-1.94-3.31,3.87-8.42.58-12.39,2.25-2.01.85-1.61,4.32.35,4.76,7.52,1.65,12.45-7.37,20.35-1.33-4.21,2.32-16.38-2.5-16.29,5.12,5.31-3.71,4.15-2.59,2.14.54-.7,1.09,4.19,1.61,2.83-1.38,4.12,3.88,9.43,1.42,14.19,3.23,4.46-5.66,9.75-7.62,15.68-6.1-.07-1.09,2.14-2.01,3.27-1.98.62.02.62.76,1.09,2.72,5.36-7.64,19.62-2.62,27.57,4.4ZM810.4,907.41c-.45.05.68,1.79,1,1.46l.91-.93c.21-.22.34-.77.08-.75l-1.99.22ZM808.9,908.74c0-.28-.22-.5-.5-.5s-.5.22-.5.5.22.5.5.5.5-.22.5-.5ZM729.06,913.71c.9.72,1.66,1.45,2.16,1.22l1.88-.88c1.92-.89-3.88-.55-4.05-.34ZM737.44,913.9c0-.22-.18-.4-.4-.4s-.4.18-.4.4.18.4.4.4.4-.18.4-.4ZM689.87,915.88c-1.49,1.23-2.61,2.26-4.17,4.14l7.34-3.35c.38-.17.69-.26.78-.43l.85-1.56c.15-.28-.75.08-1.63.4-.84-.39-2.15-.24-3.17.79ZM789.28,918.53c.21.32.9,1.58.97,1.29l.3-1.23c.07-.29-1.43-.31-1.27-.06Z"/>
        <path class="cls-3" d="M788.27,913.47l-1.16-1.5c.26.3,1.17,1.49,1.16,1.5Z"/>
        <path class="cls-3" d="M692.88,944.55c.49-.3,2.51-.05,2.78-.58l1.23-2.34c.64,2.93,1.26,5,.79,5.92s-2.86,1.04-3.93,1.07-1.67-3.44-.87-4.07Z"/>
        <path class="cls-3" d="M659.99,947.11c3.01-2.03,6.59-5.49,9.96-2.91-3.17,2.06-7.18,6.08-9.96,2.91Z"/>
        <path class="cls-3" d="M824.78,942.23c2.09,1.14,2.7,1.36,3.49,2.06,1.33,1.17.4,3.42-.53,4.3-1.02.96-2.93,1.26-3.21.08-.66-2.73-.56-3.62.25-6.44Z"/>
        <path class="cls-3" d="M733.2,941.88c-1.86,1.1-2.45-4.09.21-4.89,2.46-.74,4.26-3.53,5.02,1.29l-5.23,3.6ZM736.65,937.7c0-.22-.18-.4-.4-.4s-.4.18-.4.4.18.4.4.4.4-.18.4-.4Z"/>
        <path class="cls-3" d="M523.87,1088.28c-1.72-6.36-2.68-12.98-1.34-19.71,1.05,6.74,1.26,12.95,1.34,19.71Z"/>
        <path class="cls-3" d="M705.02,956.25c.25-.66-2.03-2.57-2.78-2.04-.79.56-2.12,1.65-2.86,2.27-.84.07-2.89-1.91-3.01-2.97s3.1-2.39,4.16-2.45c4.31,4.21,9.54,3.17,8.22,8.36-.35,1.38-1.63,1.78-3.86.68-.96-.48-.71-2.11.13-3.85Z"/>
        <path class="cls-3" d="M750.83,769.92c-3.33.42-7.58.13-11.81-.33,3.24-1.91,7.85-4.3,11.81.33Z"/>
        <path class="cls-3" d="M813.55,1029.46l4.03-1.48c.76-.28-.68-2.44-.32-2.75,4.17-1.64,3.55.66,3.53,2.36-.03,1.76-1.51,2.77-2.85,2.72-1.61-.07-4.13-.39-4.39-.84Z"/>
        <path class="cls-3" d="M618.89,962.1c-4.51-4.9.07-11.29,3.29-15.34-2.5,4.73-3.54,9.5-3.29,15.34Z"/>
        <path class="cls-3" d="M734.89,893.53c-2.01-9.01-3.88-17.64-3.96-27.26,1.96,8.99,3.28,17.97,3.96,27.26Z"/>
        <path class="cls-3" d="M743.04,782.21c-1.87-4.35-2.74-7.4.86-10.92l-.41,13.83-.45-2.9Z"/>
        <path class="cls-3" d="M690.09,1053.13l13.99-3.04c-3.59,3.08-8.83,4.35-13.99,3.04Z"/>
        <path class="cls-3" d="M821.57,942.57l-4.09-6.17c2.64-1.21,3.8-.09,4.5,1.76.4,1.08.11,3.07-.41,4.41Z"/>
        <path class="cls-3" d="M624.94,1045.71c-4.63.39-8.88-.38-12-3.86l12,3.86Z"/>
        <path class="cls-3" d="M740.01,562.95c-3.68,1.25-7.75,1.32-10.66-1.68l10.66,1.68Z"/>
        <path class="cls-3" d="M847.22,1013.68c.53-1.73,3.67-3.94,5.71-3.9-.2,1.48-.28,3.14-.9,3.22l-4.82.67Z"/>
        <path class="cls-3" d="M519.82,1027.82c-.58-5.71-.58-11.41-.01-17.58.58,5.71.58,11.41.01,17.58Z"/>
        <path class="cls-3" d="M769,870.8c-.87-5.26-1.36-10.47-1.25-16.06.94,5.1,1.87,10.1,1.25,16.06Z"/>
        <path class="cls-3" d="M649.19,958.01c-6.83,2.16-6.03,2.07-7.27,1.57l7.92-2.95c-7.74-6.41-6.96-6.88.37-.37.8.71-7.91,5.3-1.02,1.75Z"/>
        <path class="cls-3" d="M674.53,932.57c-1.19-2.66-.79-6.15,2.78-7.08l-2.78,7.08Z"/>
        <path class="cls-3" d="M868.44,962.9c-2.54-3.13-3.04-3.72-3.89-4.56-.49-.49.67-1.35,1.62-1.89.67-.38,4.25-1.23,1.41.63-.51,1,.26,3.56.86,5.82Z"/>
        <path class="cls-3" d="M866.53,977.33l-1.98-8.05c2,2.02,3.33,4.28,1.98,8.05Z"/>
        <path class="cls-3" d="M639.5,990.35l-3.04.26c-.6.05-1.56-1.48-.97-1.58l3.24-.55,2.18-.37c.36-.06,1.13.49.85.73-.37.32-1.77,1.47-2.26,1.51Z"/>
        <path class="cls-3" d="M745.67,896.23c.13-.59,2.76.84,2.47,1.37l-1.1,2.02c-.29.52-2.28.81-2.15.21l.79-3.6Z"/>
        <path class="cls-3" d="M689.71,623.32l-3.7,1.23c-1.07.36-2.16-.7-2.62-2.85l6.31,1.63Z"/>
        <path class="cls-3" d="M749.82,866.05c-1.71-4.73-1.78-9.9-1.5-15.48.96,4.98,1.35,10,1.5,15.48Z"/>
        <path class="cls-3" d="M654.57,994.69c.18-.57,2.1.96,2.5,1.4s.66,1.64.15,1.94c-1.05.62-1.73.84-2.05.35-.52-.78-.96-2.56-.6-3.69Z"/>
        <path class="cls-3" d="M784.87,1041.41c.11-1.26,2.63,1.07,1.87,2.27-.41.65-.15.25-1.37,1.96.58-.81-5.02-4.76-.5-4.23Z"/>
        <path class="cls-3" d="M661.96,1003.5l2.53.17c.39.03.91-.48.83-.86l-.5-2.54c.33-.17,1.73.46,2.09,1.11.43.78-.38,3.67-1.22,3.38l-3.72-1.26Z"/>
        <path class="cls-3" d="M679.94,921.08c-.25-.06.16-3.04.78-3.89.71-.95,3.65-2.11,4.2-2.1l-4.98,5.98Z"/>
        <path class="cls-3" d="M525.44,1009.6c.41,4.15.41,8.36-.04,12.76-.6-3.97-.62-7.76.04-12.76Z"/>
        <path class="cls-3" d="M815.51,966.04c-2.27-1.21,1.47.79,2.99,1.58.87.45-3.36.31-4.48-.7-.72-.64,4.58-6.8.37-1.98,3.62-2.58,5.14-3.49,5.06-3-.34,2.12-.31,2.53-3.93,4.1Z"/>
        <path class="cls-3" d="M851.83,989.63l5.88-3.36c-.72,2.3-2.36,5.15-5.88,3.36Z"/>
        <path class="cls-3" d="M790.2,983.15c.34-2.06,1.63-4.07,3.37-5.59.29,2.73-.98,4.52-3.37,5.59Z"/>
        <path class="cls-3" d="M860.19,929.97c-1.99-4.57-4.25-9.23-7.5-13.23,3.15,3.29,8.58,7.49,7.5,13.23Z"/>
        <path class="cls-3" d="M730.48,865.99v-9.71c1.51,3.12,1.15,6.46,0,9.71Z"/>
        <path class="cls-3" d="M519.9,996.89c.37,3.64.38,7.32-.05,11.18-.6-3.43-.61-6.71.05-11.18Z"/>
        <path class="cls-3" d="M813.17,1038.43c.52-3.73,3.36-4.79,6.67-6.36l-6.67,6.36Z"/>
        <path class="cls-3" d="M710.81,925.92c-.23-.53,2.42-.72,2.98-.67s1.53,1.21,1.02,1.43l-2.19.92c-.52.22-1.56-1.12-1.8-1.68Z"/>
        <path class="cls-3" d="M925.85,839.57c-.44-1.11-.62-1.42-.57-1.97l.3-3.2c.05-.56,1.73.72,1.58,1.18l-1.31,3.99Z"/>
        <path class="cls-3" d="M520.72,1038.13c.29,2.87.29,5.76-.06,8.81-.59-2.61-.59-5.13.06-8.81Z"/>
        <path class="cls-3" d="M811.8,915.49c.3-.27,2.52.03,2.34.38l-.91,1.72c-.19.36-1.45.51-1.86.52-.54.01,0-2.24.43-2.62Z"/>
        <path class="cls-3" d="M768.29,841.18c1.29,2.14,1.09,4.93.35,7.39l-.35-7.39Z"/>
        <path class="cls-3" d="M842.27,999.84l-7.93-4.1c3.91-1.44,5.4,1.93,7.93,4.1Z"/>
        <path class="cls-3" d="M707.39,509.9c-.07-.43,2.01.19,2.02.63l.05,2.09c.01.43-1.46,1.14-1.53.72l-.54-3.44Z"/>
        <path class="cls-3" d="M622.93,1006.64c.57-1.68,2.37,2.61,2.52,2.6l-2.09.18c-.52.04-.72-1.91-.43-2.78Z"/>
        <path class="cls-3" d="M855.05,973.98c.19-.33,1.45.53,1.26.85l-.99,1.71c-.19.32-1.7-.03-1.51-.35l1.24-2.21Z"/>
        <path class="cls-3" d="M733.5,1012.79c.59-.83,2.28,1.27,1.75,1.66-.47.35-1.16.73-1.72.92s-.67-1.7-.04-2.58Z"/>
        <path class="cls-3" d="M751.68,1042.04c.65-.27.39,1.1-.07,1.31l-2.28,1.03c-.45.2-1.83-.61-1.35-.81l3.7-1.53Z"/>
        <path class="cls-3" d="M663.54,1019.92c.12,1.33.34,2.12.01,2.52l-1.56,1.92c-.33.41-.61-1.03-.32-1.48l1.86-2.96Z"/>
        <path class="cls-3" d="M707.38,1040.04c.98-.29,2.74,5.31,1.79,4.26l-1.52-1.67c-.37-.41-.84-2.41-.26-2.59Z"/>
        <path class="cls-3" d="M525.15,1041.19c.4,1.3-.07,3.34-.61,4.87-.51-1.17-.45-2.53.61-4.87Z"/>
        <path class="cls-3" d="M951.36,667.42c.7-.1,2.87,1.02,3.43,1.33,8.11,4.35-64.41,6.16-68.7,6.44l-88.37,5.76c-1.2.08-2.68,1.25-3.23,1.45-.69.25-2.5-1.17-2.03-1.74l2.03-2.49c-2.9-13.53-3.12-28.14-3.3-42.41-.09-6.44-3.33-13.83,1.36-19.34l4.28,52,1.24,9.43c2.49-2.74-1.74-4.64.18-8.33l2.24,7.3,66.27-3.85c28.53-1.66,56.01-1.6,84.61-5.55Z"/>
        <path class="cls-3" d="M733.03,1021.66c-.23-.34,1.76-.34,1.93.04l.77,1.72c.16.36-1.24.39-1.47.04l-1.22-1.81Z"/>
        <path class="cls-3" d="M762.15,1008.11c.28-.04.97.16,1.12.39.23.35.29,1.77-.12,1.67l-1.69-.45c-.4-.11.27-1.55.68-1.61Z"/>
        <path class="cls-3" d="M523.24,1127.87l.22,2.01c.06.58-.69,2.16-1.22,1.88-.72-.37-.95-.42-.72-.82l1.72-3.08Z"/>
        <path class="cls-3" d="M683.75,961.25l1.08,1.47c.26.35,1.38,2.2.99,2.03l-1.45-.63c-.4-.17-.61-1.61-.62-2.88Z"/>
        <path class="cls-3" d="M520.79,986.52l-.1,5.62c-.56-1.44-.53-3.03.1-5.62Z"/>
        <path class="cls-3" d="M731.1,985.53c.04-.3,1.51-.62,1.72-.4.31.34.76,1.4.37,1.64l-1,.63c-.38.24-1.15-1.37-1.08-1.87Z"/>
        <path class="cls-3" d="M521.58,975.42l-.1,5.62c-.56-1.44-.53-3.03.1-5.62Z"/>
        <path class="cls-3" d="M850.15,1016.75c.12-.24,1.45.07,1.34.31l-.77,1.63c-.17.37-1.74.32-1.55-.05l.98-1.89Z"/>
        <path class="cls-3" d="M768.5,1017.55c-.02-.32,1.5,0,1.49.31l-.05,1.54c-.01.32-1.3.76-1.31.44l-.12-2.3Z"/>
        <path class="cls-3" d="M679.28,942.85c-2.66-2.48-4.89-5.4-6.98-8.05,3.31,1.91,5.69,4.71,6.98,8.05Z"/>
        <path class="cls-3" d="M854.9,777.54c1.83-1.48,3.03-1.58,3.89-.84l-3.89.84Z"/>
        <path class="cls-3" d="M753.65,547.23c-.21-.16,1.45-.43,1.72-.36.41.1.81.6,1.14,1.21.13.24-1.01.6-1.24.43l-1.63-1.28Z"/>
        <path class="cls-3" d="M731.97,551.83l1.9-.15c.39-.03.06,1.12-.33,1.21l-2.03.46c-.39.09.02-.65.46-1.51Z"/>
        <path class="cls-3" d="M679.01,1028.5c.82-.31,3.08-.84,2.82-.53l-1.13,1.37c-.35.42-2.23-.65-1.69-.85Z"/>
        <path class="cls-3" d="M788.14,989.74c.1-.25,1.6.29,1.5.54l-.56,1.46c-.15.38-1.83.22-1.68-.16l.74-1.84Z"/>
        <path class="cls-3" d="M788.78,604.1l-.11,4.82c-.51-1.13-.47-2.49.11-4.82Z"/>
        <path class="cls-3" d="M662.54,981.86c.57-.57.57,3.46.01,2.94l-1.32-1.22c-.31-.29.88-1.3,1.31-1.73Z"/>
        <path class="cls-3" d="M731.18,1038.2l3.91,4.4c-1.68-.83-3.73-1.64-3.91-4.4Z"/>
        <path class="cls-3" d="M713.95,591.74c-.18-.25,1.64-.69,1.71-.38s.26.82.42,1.16c.13.29-1.03.76-1.21.51l-.92-1.28Z"/>
        <path class="cls-3" d="M735.63,895.28l-.13,4c-.34-.82-.29-1.93.13-4Z"/>
        <path class="cls-3" d="M736.66,1043.29c-.09-.27,1.67-.42,1.62-.15l-.41,2.03c-.08.4-1.07-1.44-1.21-1.88Z"/>
        <path class="cls-3" d="M770.76,1030.92c1.19,1.57,2.92,3.26,1.18,4.82l-1.18-4.82Z"/>
        <path class="cls-3" d="M650.14,1050.02c-.78-.14-.38-.54.29-.86l-.29.86Z"/>
        <path class="cls-3" d="M650.14,1050.02c.66-.54,1.12-.97.29-.86l-5.37-2.65,17.38-2.91c-3.58,3.2-7.93,1.45-11.77,4.53,1.25,1.72,2.31,2.5,3.3,1.97,9.96-5.29.71-.9,17.63-2.32l-11.53-15c2.79-3.49,8.03.47,10.73-4.41.3-.56,3.77-1.82,3.22-1.25-2.02,2.11-2.26,2.62,2.6.76-2.05,3.91.24,5.49,2.34,7.57,3.03,2.98,5.93,1.2,9.19.42-2.31,2.59,1.8,2.8,1.35,3.36l-2.64,3.31c6.01-1.48,14.41-2.14,16.35-8.7,4.19.94-.7-1.39-1.68-.99l-4.36,1.8c4.51-6.65,11.99-11.7,19.97-9.85-1.05-7.95-2.5-13.55,1.26-19.85l6.5.83c-2.45,6.02-6.66,11.78-1.83,16.75,4.72,4.85,12.87,2.09,17.18,3.65,3.07-1.63,1.61,2.71,2.51,2.35,2.16-.86,3.5-1.58-1.36,3.46,2.54-1.45-22.25.08-23-6.64-21.08,12.58-2.45,11.02-17.74,15.6l1.29,1.33c.27.28.43,1.62.11,1.4s-2.35.06-2.56.6c-1.35,3.37-8.21,3.72-11.24,5.27-7.38,3.78-17.49,5.06-26.9,0-2.71,1.95-3.41,4-4.96,3.49-2.53-.83-5.58-1.51-6.24-3.04ZM717.08,1018.21c-.11,1.99.44,3.76,2,4.01-.36-1.21-1.13-2.59-2-4.01ZM708.33,1026.56c.97.93,1.62,1.63,1.72,1.3l.42-1.39c.1-.33-.69-.14-2.15.09ZM723.65,1026.56c0-.49-.39-.88-.88-.88s-.88.4-.88.88.39.88.88.88.88-.4.88-.88ZM670.14,1034.1c0-.49-.39-.88-.88-.88s-.88.4-.88.88.39.88.88.88.88-.4.88-.88ZM677.12,1040.64c-1.86-1.41-3.61-1.93-5.54-2.15,1.48,2.04,3.67,3.59,5.54,2.15ZM679.56,1038.46c0-.22-.18-.4-.4-.4s-.4.18-.4.4.18.4.4.4.4-.18.4-.4ZM680.8,1040.72l1.07,1.77c.13.22,1.19-.04,1-.21l-1.23-1.09c-.19-.17-.96-.66-.84-.46ZM697.45,1040.77c.15.25.74,1.26.72,1.28-.03.02.93-.34,1.19-.4.92-.24-1.68-.51-1.9-.88ZM673.22,1042.43c0-.22-.18-.4-.4-.4s-.4.18-.4.4.18.4.4.4.4-.18.4-.4ZM683.47,1044.39c-3.62-1.98-10.59-3.94-11.72,2.32,3.9.1,8.08-1.04,11.72-2.32ZM692.14,1045.21c0-.38-.3-.68-.68-.68s-.68.31-.68.68.3.68.68.68.68-.31.68-.68ZM681.15,1049.57c0-.22-.18-.4-.4-.4s-.4.18-.4.4.18.4.4.4.4-.18.4-.4ZM676.39,1051.16c0-.22-.18-.4-.4-.4s-.4.18-.4.4.18.4.4.4.4-.18.4-.4Z"/>
        <path class="cls-3" d="M523.16,1140.44l-.13,4c-.34-.82-.29-1.93.13-4Z"/>
        <path class="cls-3" d="M755.93,926.06c.96-.25,2.38-.58,2.2-.35l-1.11,1.46c-.26.35-1.52-1-1.09-1.11Z"/>
        <path class="cls-3" d="M743.83,805.17c-.05-.29,1.46.23,1.38.51l-.48,1.63c-.12.42-.75-1.26-.9-2.15Z"/>
        <path class="cls-3" d="M709.17,524.84c.07-.1,1.86,2.59.98,2.24l-1.81-.71c-.34-.13.5-1.07.83-1.53Z"/>
        <path class="cls-3" d="M760.45,502.8l1.99-.23c.29-.03.13.5-.07.71l-.94,1c-.31.33-1.44-1.43-.98-1.48Z"/>
        <path class="cls-3" d="M714.78,920.91c-.16-.25,1.26-.15,1.35.06l.71,1.66c.1.22-.8.16-.93-.04l-1.14-1.69Z"/>
        <path class="cls-3" d="M753.64,1041.06c.5-.15,2.32-.54,2.14-.31l-1.13,1.44c-.27.35-1.46-.99-1.01-1.13Z"/>
        <path class="cls-3" d="M744.3,800.1c.06.2.22.92.22,1.16v1.64c.01.25-.93-.02-.87-.25l.65-2.56Z"/>
        <path class="cls-3" d="M661.05,1027.82c.04.14.22.9.23,1.15v1.65c.02.25-.92-.02-.86-.27l.63-2.52Z"/>
        <path class="cls-3" d="M520.54,992.97c1.36-1.55-.27,4.1.18,2.18,0,.03-.85-.58-1.06-.73-.3-.23.5-1.02.88-1.45Z"/>
        <path class="cls-3" d="M599.42,984.63l7.06,5.82c-2.76-.54-5.31-2.91-7.06-5.82Z"/>
        <path class="cls-3" d="M697.36,1035.71c.12-.19.6,1,.43,1.18s-.58.61-.77.79c-.18.17-1.05.13-.91-.08l1.25-1.9Z"/>
        <path class="cls-3" d="M744.1,900.88c.14-.21.64.95.48,1.14s-.59.63-.78.79-1.05.15-.91-.06l1.22-1.87Z"/>
        <path class="cls-3" d="M521.52,1051.62c.05.16.23.91.23,1.15v1.65c.01.25-.93-.02-.87-.25l.64-2.54Z"/>
        <circle class="cls-3" cx="739.82" cy="909.54" r=".88"/>
        <path class="cls-3" d="M970.16,1134.26c.05-.25.47.79.45,1.05l-.14,1.57c-.02.25-.85.14-.8-.11l.49-2.51Z"/>
        <path class="cls-3" d="M742.58,506.88c-.15-.16.68.26.89.22.5-.09,1.44-.26,1.13-.15-.2.07-.56,1.52-.7,1.37l-1.32-1.44Z"/>
        <path class="cls-3" d="M842.19,1014.47c-.05-.27,1.61-.09,1.44.1l-.9,1.05c-.25.29-.46-.67-.54-1.15Z"/>
        <circle class="cls-3" cx="631.6" cy="1021.01" r=".88"/>
        <circle class="cls-3" cx="666.48" cy="1022.6" r=".88"/>
        <circle class="cls-3" cx="708.22" cy="942.97" r=".78"/>
        <circle class="cls-3" cx="674.12" cy="555.79" r=".78"/>
        <path class="cls-3" d="M777.18,616.18c-.04-.25,1.61-.09,1.44.11l-.89,1.04c-.26.31-.47-.66-.55-1.15Z"/>
        <circle class="cls-3" cx="729.91" cy="852.02" r=".88"/>
        <circle class="cls-3" cx="753.41" cy="926.31" r=".78"/>
        <circle class="cls-3" cx="855.96" cy="925.8" r=".88"/>
        <path class="cls-3" d="M808.08,933.69c-.11-.25,1.29.24,1.24.49s-.17.6-.27.91c-.07.23-.79-.98-.97-1.4Z"/>
        <circle class="cls-3" cx="806.52" cy="1028.66" r=".78"/>
        <path class="cls-3" d="M845.36,992.26c-.04-.25,1.61-.09,1.44.1l-.89,1.04c-.26.3-.47-.68-.55-1.14Z"/>
        <path class="cls-3" d="M651.64,991.59c-.17.32-.17.43-.37.55l-1.2.69c-.33.19-1.73-.49-1.12-.63l2.69-.61Z"/>
        <path class="cls-3" d="M847.15,951.04c-.16-.25,1.36-.2,1.27.09s-.21.8-.31,1.24c-.06.29-.72-.95-.96-1.33Z"/>
        <circle class="cls-3" cx="756.86" cy="901.21" r=".88"/>
        <circle class="cls-3" cx="735.46" cy="971.03" r=".88"/>
        <path class="cls-3" d="M713.31,601.74l.81.81c.28.28.25,1.54.19,1.99-.03.24-.57-.05-.61-.29l-.39-2.51Z"/>
        <circle class="cls-3" cx="719.6" cy="563.22" r=".88"/>
        <circle class="cls-3" cx="534.08" cy="877.4" r=".88"/>
        <circle class="cls-3" cx="863.89" cy="927.39" r=".88"/>
        <circle class="cls-3" cx="714.84" cy="895.65" r=".88"/>
        <circle class="cls-3" cx="727.53" cy="589.4" r=".88"/>
        <path class="cls-3" d="M700.72,1045.36c.07-.2-.18.46-.31.8l-.55,1.42c-.09.24-1.41-.22-1.22-.39l2.07-1.84Z"/>
        <path class="cls-3" d="M678.53,622.85c1.18,4.39,1.5-.9,1.92-.4.64.77,1.52,1.93,1.83,2.51.56,1.04-3.77.69-3.36,3.19l30.57-5.87-1.16-20.26c-.03-.44,1.76-1.52,2.18-1.62s-.3-1.97-.73-1.91l-2.69.34c.2-1.64.61-3.61,1.32-5.04s3.37-2.4,4.29-1.46l-.71,3.41c-.11.51.84.69,1.36.56l4.32-1.09c.48-2.04-.83-4.1.66-4.59,3.49-1.15,8.41-2.87,6.79,2.14l22.21-3.9c-1.1,6.97-27.16,4.83-33.85,8.89-.25,1.91-3.03,4-2.33,5.74.42,1.03,1.82,1.9,2.73,3.01-5.62,2.67,1.06,10.58-1.46,15.55l43.37-2.06c-4.08-7.32-2.91-15.85-4.34-23.85-.24-1.34-2.75-2.21-2.73-4.95.01-1.92,1.63.9,3.37-1.07,2.61-2.67,3.66-.17,2.73.18-.35.13-2.07.94-1.55,1.2.83.42,4.72,2.35.47.73-.6,10.57,4.44,17.65,3.49,27.38l29.54-.92c-3.72-20.97-2.35-39.92-7.12-60.25-1.52,18.19,3.4,35.14,2.21,52.67l-.22,3.32c-2.44-14.37-1.43-29.57-5-42.7-1.8-6.6-1.12-14.32-1.65-22.25l-1.99-29.66c-.23-3.39,2.53-6.62-.58-10.66,2.04-.13,3.29.16,3.23.91-.2,2.4,1.22-.1,1.02-.56l-1.39-3.13c-2.23.77-3.36.7-3.62-.65-.65-3.4-.67-4.67-.3-6,.65-2.27,5.59-2.85,5.99-.05.91,6.38,2.11,14.33,1.61,21.55-.29,4.19-.71,8.47,2.09,11.84-2.26,10.06.09,22.63,2.34,32.73,3.91,17.52,2.04,38.91,5.11,57.93-1.09-.15-4.58-.66-5.26-.28s1.82,2.71-1.13,1.17c-3.48-4.39-9.5-.35-14.12-.23-18.5.47-36.7-2.02-54.95,2.39-10.96,2.65-23.71.37-35.05,6.6-1.78-19.45-2.55-36.39-5.04-54.56l-5.4-39.31c-.18-1.3-3.22-3.13-3.03-4.3,2.95-17.98-2.5-10.24.43-25.16,11.03-1.26,22.32-2.3,33.38-1.8-6.75,4.49-14.66,1.22-20.87,2.85,5.38,4.87,11.43-1.32,16.8,2.59-4.85,4.82-13.87,3.95-18.04,1.93,3.74-5.39-4.83-4.78-7.63-4.22-3.69.74-3.36,8.44-1.31,10.7l2.8-1.83c.57-.38,1.61,1.44,1.07,1.92-.61.54-2.72,2.46-2.09,2.01,4.84,1.59-1.66,5.34,1.7,8.23.76.65,2.72,1.55,2.69,2.55-.03,1.32-2.01,3.18-3.25,4.32,1.11,1.08,3.11,1.93,2.73,3.19-.47,1.58-1.63,2.89-2.46,3.84-.22,2.28,1.53,2.61,2.57,2.99.93.34-2.15,3.53-1.93,4.69,4.23,21.99,6.37,46.19,7.42,68.89ZM774.01,500.14c0-.28-.22-.5-.5-.5s-.5.22-.5.5.22.5.5.5.5-.22.5-.5ZM777.18,502.52c0-.28-.22-.5-.5-.5s-.5.22-.5.5.22.5.5.5.5-.22.5-.5ZM681.15,515.62c0-.22-.18-.4-.4-.4s-.4.18-.4.4.18.4.4.4.4-.18.4-.4ZM667.26,523.97l-.52,4.08c-.07.58.8,1.45,1.13.97s.76-2.09.52-2.61l-1.13-2.44ZM666.98,534.26c0-.28-.22-.5-.5-.5s-.5.22-.5.5.22.5.5.5.5-.22.5-.5ZM670.12,534.65c-.05.63,1.88,2.55,1.83,2.02l-.12-1.45c-.03-.4-1.68-.98-1.71-.58ZM779.62,558.28c.09-5.43-.77-9.95-1.43-14.54-.28,5.05-.73,10.04,1.43,14.54ZM720.91,590.87c-.44.07.51,1.56.95,1.42l1.28-.42c.3-.1-.03-1.34-.33-1.29l-1.9.3ZM741.51,591.38c0-.28-.22-.5-.5-.5s-.5.22-.5.5.22.5.5.5.5-.22.5-.5ZM785.8,593.37c0-.22-.18-.4-.4-.4s-.4.18-.4.4.18.4.4.4.4-.18.4-.4Z"/>
        <circle class="cls-3" cx="630.81" cy="948.41" r=".5"/>
        <circle class="cls-3" cx="423.49" cy="898.03" r=".5"/>
        <circle class="cls-3" cx="863.56" cy="984.13" r="1.99"/>
        <path class="cls-3" d="M724.91,1042.2c.12-.18,1.58.04,1.38.15l-1.07.57-.95.54c-.29.17.26-.68.64-1.26Z"/>
        <circle class="cls-3" cx="521.8" cy="972.61" r=".5"/>
        <circle class="cls-3" cx="721.58" cy="1040.05" r=".5"/>
        <circle class="cls-3" cx="816.72" cy="1036.88" r=".5"/>
        <circle class="cls-3" cx="702.16" cy="927.79" r=".5"/>
        <circle class="cls-3" cx="736.25" cy="902.4" r=".5"/>
        <circle class="cls-3" cx="689.87" cy="1036.08" r=".5"/>
        <circle class="cls-3" cx="826.23" cy="1033.7" r=".5"/>
        <circle class="cls-3" cx="722.38" cy="903.59" r=".5"/>
        <circle class="cls-3" cx="811.17" cy="1029.74" r=".5"/>
        <circle class="cls-3" cx="807.6" cy="917.47" r=".5"/>
        <circle class="cls-3" cx="1220.65" cy="1171.36" r=".5"/>
        <circle class="cls-3" cx="927.38" cy="841.3" r="1.73"/>
        <path class="cls-3" d="M862.83,965.29l1.06,2.06-1.06-2.06Z"/>
        <circle class="cls-3" cx="674.41" cy="551.71" r=".5"/>
        <circle class="cls-3" cx="625.26" cy="943.65" r=".5"/>
        <circle class="cls-3" cx="702.95" cy="509.66" r=".5"/>
        <circle class="cls-3" cx="718.41" cy="912.31" r=".5"/>
        <circle class="cls-3" cx="846.05" cy="1002.76" r=".5"/>
        <circle class="cls-3" cx="853.19" cy="776.64" r=".5"/>
        <circle class="cls-3" cx="915.82" cy="773.47" r=".5"/>
        <path class="cls-3" d="M860.14,1004.17c-.81,1.03-1.84,2.03-2.95,2.76l2.95-2.76Z"/>
        <circle class="cls-3" cx="860.32" cy="775.45" r=".68"/>
        <circle class="cls-3" cx="853.58" cy="1004.35" r=".4"/>
        <circle class="cls-3" cx="844.86" cy="1013.87" r=".4"/>
        <circle class="cls-3" cx="859.93" cy="1000.38" r=".4"/>
        <circle class="cls-3" cx="668.46" cy="1015.85" r=".68"/>
        <path class="cls-3" d="M847.51,1015.32l-2.17,1.93,2.17-1.93Z"/>
        <circle class="cls-3" cx="664.1" cy="1017.04" r=".4"/>
        <path class="cls-3" d="M722.25,916.15l-2.17,1.93,2.17-1.93Z"/>
        <circle class="cls-3" cx="662.52" cy="999.59" r=".4"/>
        <circle class="cls-3" cx="745.76" cy="812.35" r=".4"/>
        <circle class="cls-3" cx="927.71" cy="831.78" r=".68"/>
        <circle class="cls-3" cx="821.08" cy="682.23" r=".4"/>
        <circle class="cls-3" cx="834.56" cy="916.28" r=".4"/>
        <circle class="cls-3" cx="729.11" cy="847.26" r=".4"/>
        <circle class="cls-3" cx="962.99" cy="856.78" r=".4"/>
        <circle class="cls-3" cx="729.11" cy="993.24" r=".4"/>
        <circle class="cls-3" cx="803.24" cy="1028.55" r=".68"/>
        <circle class="cls-3" cx="720.39" cy="993.24" r=".4"/>
        <circle class="cls-3" cx="607.42" cy="1030.93" r=".68"/>
        <circle class="cls-3" cx="519.81" cy="1031.32" r=".4"/>
        <circle class="cls-3" cx="721.19" cy="991.65" r=".4"/>
        <circle class="cls-3" cx="839.31" cy="932.15" r=".4"/>
        <circle class="cls-3" cx="757.65" cy="609.24" r=".4"/>
        <circle class="cls-3" cx="810.77" cy="931.36" r=".4"/>
        <circle class="cls-3" cx="623.67" cy="945.64" r=".4"/>
        <circle class="cls-3" cx="757.65" cy="599.72" r=".4"/>
        <circle class="cls-3" cx="727.53" cy="1041.64" r=".4"/>
        <circle class="cls-3" cx="809.19" cy="986.89" r=".4"/>
        <circle class="cls-3" cx="854.38" cy="986.1" r=".4"/>
        <circle class="cls-3" cx="758.45" cy="1054.33" r=".4"/>
        <circle class="cls-3" cx="705.33" cy="926.6" r=".4"/>
        <circle class="cls-3" cx="522.99" cy="1139.23" r=".4"/>
        <circle class="cls-3" cx="729.91" cy="555.29" r=".4"/>
        <circle class="cls-3" cx="775.49" cy="1202.3" r=".68"/>
        <circle class="cls-3" cx="862.3" cy="963.89" r=".4"/>
        <circle class="cls-3" cx="677.19" cy="923.82" r=".68"/>
        <circle class="cls-3" cx="668.86" cy="514.03" r=".4"/>
        <circle class="cls-3" cx="758.45" cy="503.71" r=".4"/>
        <path class="cls-3" d="M1032.09,873.89c.04.15.21.9.21,1.14v1.66c.02.24-.92-.19-.86-.41l.65-2.39Z"/>
        <circle class="cls-3" cx="1020.9" cy="597.29" r=".87"/>
        <circle class="cls-3" cx="1027.21" cy="733.8" r=".4"/>
        <circle class="cls-3" cx="1027.21" cy="731.42" r=".4"/>
        <circle class="cls-3" cx="1031.57" cy="860.35" r=".68"/>
        <circle class="cls-3" cx="1031.96" cy="868.68" r=".4"/>
        <circle class="cls-3" cx="361.25" cy="923.42" r=".4"/>
        <circle class="cls-3" cx="762.41" cy="1158.27" r=".88"/>
        <path class="cls-3" d="M705.52,825.82c-1.52-6.49-2.67-13.61-1.84-21.04l1.84,21.04Z"/>
        <circle class="cls-3" cx="702.16" cy="777.83" r=".5"/>
        <path class="cls-3" d="M892.59,758.85c-.52-4.24-2.09-8.38-.02-12.88.28,4.15.29,8.3.02,12.88Z"/>
        <circle class="cls-3" cx="892.15" cy="738.27" r=".78"/>
        <circle class="cls-3" cx="891.64" cy="742.13" r=".5"/>
        <path class="cls-3" d="M834.39,771.5c-2.42-3.69-1.61-7.56-2.09-11.09,1.61,4.01,2.27,7.85,2.09,11.09Z"/>
        <path class="cls-3" d="M852.17,720.86s.19,1.49.25,1.87-1.19.34-1.82.32c-.37-.01-1.37-.25-1.06-.46l2.63-1.74Z"/>
        <path class="cls-3" d="M855.61,773.43c-9.13-.82-16.1,5.38-25.9,5.17-4.87-18.62-5.4-38.32-6.13-57.54l-2.38-1.25c-6-3.15,31.99-5.57,36.59-8.14,4.29,18.37,4.7,37.02,2.89,56.09-.15,1.59,3.81,4.14,1.2,5.17-1.68.67-4.05.68-6.28.48ZM828.09,725.35c.77,16.38.18,32.91,5.49,49.17l23.28-5.79c.23-17.6,1.28-34.99-1.97-52.36l-26.87,4.47c-.74.12-.14,3.32.72,3.03s2.26-.28,3.91.32c.96,1.47-2.32.71-4.56,1.16Z"/>
        <circle class="cls-3" cx="780.11" cy="791.32" r="1.91"/>
        <path class="cls-3" d="M701.08,750.68c-5.46-6.22-5.15-15-3.69-22.14.95,7.73,1.9,14.75,3.69,22.14Z"/>
        <path class="cls-3" d="M708.11,742.09c-.81-5.66-.93-11.83-.52-18.25.43,5.79,2.36,11.37.52,18.25Z"/>
        <path class="cls-3" d="M693.02,695.57l2.86-.21c.36-.03-.53.56-.94.89l-1.18.98c-.4.33-.5-.24-.75-1.66Z"/>
        <path class="cls-3" d="M696.73,723.94c.05.18.22.91.22,1.15v1.64c.02.25-.94,0-.88-.22l.65-2.57Z"/>
        <path class="cls-3" d="M701.19,696.13l1.24-.41-1.24.41Z"/>
        <circle class="cls-3" cx="695.82" cy="718.33" r=".5"/>
        <circle class="cls-3" cx="695.82" cy="729.04" r=".4"/>
      </g>
    </g>
  </g>
</svg>