<?xml version="1.0" encoding="UTF-8"?>
<svg id="Livello_2" data-name="Livello 2" xmlns="http://www.w3.org/2000/svg" viewBox="0 0 1344.84 1467.96">
  <defs>
    <style>
      .cls-1 {
        font-family: Manrope-Bold, Manrope;
        font-size: 424.19px;
        font-weight: 700;
      }

      .cls-1, .cls-2 {
        fill: #1c75bc;
      }

      .cls-3 {
        fill: #fff;
      }
    </style>
  </defs>
  <g id="Livello_1-2" data-name="Livello 1">
    <g>
      <rect class="cls-3" x="0" y="16.75" width="1344.84" height="1451.2" rx="81.63" ry="81.63"/>
      <text class="cls-1" transform="translate(579.52 364.8)"><tspan x="0" y="0">1</tspan></text>
      <g>
        <path class="cls-2" d="M1265.72,1241.95c.31-.09.41.99.27,1.28s-.72.73-1.06.76l-1.34.12c-.22.02-.25.94-.13,1.04h3.65s0,89.18,0,89.18l-6.38-.81c-1.97-.21-3.92-1.5-5.97-1.56l-5.57-.18c-1.54-.05-2.64-.94-4.26-1.25l-6.84-1.32c-.98-.19-2.86-1.84-4.02-1.81l-17.23.5c-1.62.05-2.64-.9-3.14-2.43l-1.92,1.53c-.51-.4-2-.96-2.84-.98l-4.17-.13-1.47-.04c-.81-.02.23,4.15-3.15,4.03l-7.7-.27c-1.24-.04-2.76-.52-3.84-1.17l-14.45-.33-9.69-.42c.14,1.33-.63,3.93-1.63,3.93l-22.64.08-.7,4.4c-2.6.04-4.59-.49-7.03-.97-4.36-.85-9.46-1.5-13.85-1.01-3.09.34-5.43.67-8.52.47-1.86-.12-4.09.41-5.59,1.36l-19.64.31-34.36.44h-10.03s-27.25-.08-27.25-.08l-8.72-.37-17.34.62-4.74.97-16.87,1.09-9.42.25c-.45.01-1.37,1.26-1.71,1.1l-1.97-.92c-3.64-1.7-13.58,2.76-21.18,1.18l-22.35.63-2.47-.41c-.63-.11-.8-1.45-.98-2.71l-7.35.35-1.27-1.76-10.21.3-4.48.87-14.76,1.52c-.49.29-1.8,1.03-2.33,1.08l-10.27.85-3.37.92-9.11.85,1.97-1.66c.92-.11,1.11-.4-.07-.64l-4.55,1.56-9.97.85c-2.28-2.87-4.38-1.7-7.08-.99s-6.38.5-9.39.6l-2.15-1.55-9.82.16-2.1,1.09-21.11.87c-1.76.07-2.99.68-4.01,2.23h-25.15c-1.38,0-2.84.52-3.95,1.15l-24.12.78-3.95-.44-16.4.31-.45-2.22c-.11-.55-1.86-.44-2.44-.38-1.65-1.43-3.41-1.64-4.97-.23l-21.4,1.33c-.76.34-2.43.99-3.25,1.03l-6.68.34c-.16-.06-.32-.21-.21-.33l.75-.84c.14-.16.82-.35,1.05-.37s-.33-.6-.59-.58l-12.14.88-5.36.99-1.95.28c-.43.06-.62-1.33-.9-1.66l-2-2.42-8.86.29c-.74.02-2.16.7-2.8,1.07l-15,.3-18.23,1c-.48.25-1.78.89-2.28.91l-8.91.33-10.39-.19c-.38-.27-1.27-1.44-1.67-1.29l-2.2.86c-.82.32-2.66.76-3.26.81l-1.02-1.53c-.22-.34-1.19.51-1.58,1.05l-25.6.09-65.81.48-4.46.12-13.5.61-5.4,1.08-7.79-.07c-.39,0-1.37-1.55-1.73-1.36l-1.94,1.04-17.26.91c-.47.29-1.81,1.2-2.32,1.25l-6.39.59c-1.05.1-2.69.63-3.44.33-.92-.37-1.97-1.67-2.61-2.54l-2.45-1.09c-1.16-.51-2.3.13-3.67.27l-16.81,1.75c-1.58.16-3.18.96-4.85,1.05l-9.76.51-10.3.45-1.23.04c-.32,0-.39.62-.35.97h-2.7l-.04-.79c-.02-.2-.75-.32-1.02-.32h-4.37c-.27,0-.99.11-1.02.32l-.04.79h-14.05s-.04-3.3-.04-3.3l-12.83-.33-35.66.36c-.96.7-2.14,1.13-3.28,1.17l-18.76.67-7.3.38c-.29.02-.95.04-.98.25l-.04.79h-6.48s-.24-1.18-.24-1.18c-.13-.41-1.31-.66-2.05-.63l-12.57.57c-.26.01-1.22,1.36-.81,1.24h-8.65s-1.79-1.44-1.79-1.44l-1.37-3.94c-1.74,1.24-2.21,1.01-3.88,1.18l-8.41.84c-2.18-2.74-5.58-2.92-8.26-1.01l-23.6.62c-1.45.04-2.12.23-3.1,1.72-2.14-1.96-5.64-1.98-7.9-.07l-12.51,1.05-1.23.1c-.32.03-.39.59-.36.96h-32.42c.31-.09-.7-1.38-1.1-1.37l-4.77.07c-.23,0-1.06.37-1.1.57l-.06.73h-9.19c-2.05-3.19-1.34-7.69,2.6-9.41.43-.19.39-1.3.13-2.08-.85-2.54-.24-6.43.54-7.04l1.7-1.32c1.7-1.32-2.93-2.15-8.7.34l-4.47.2c-.32.01-1.31-.22-1.38-.53l-.37-1.64c-.38-1.72-.45-5.01.98-6.12,3.47-2.7,8.2-2.24,7.36-3.25l-1.16-1.39-1.86-2.23c-1.65-1.98-2.85-6.55-.51-8.26l3.64-2.64c.54-.36.24-1.97-.08-2.71-2.68-6.29,5.64-9.97,4.73-11.26l-2.87-4.06c-1.65-2.33-2.57-4.83-.44-6.98l1.91-1.93,1.43-1.52c.26-.27-.62-1.1-.88-1.37l-5.39-5.41c-1.78-1.79-1.18-4.63.65-6.18l3.4-2.88.99-.53c.18-.1.15-.49-.02-.61l-.77-.54-.59-.52-3.76-3.29-.59-.52c-1.45-1.25-2.44-2.37-2.48-4.06-.05-1.89.65-3.11,2.34-4.26,2.55-1.73-4.05-4.58-.69-7.99l1.95-1.98.88-.9-1.32-.95-3.68-4.39-3.01-2.98c-2.01-1.98.93-5.62,4.52-7.89,1.47-.93,3.51.18,4.42.95l1.21,1.02c.26.22,1.23-.63,1.07-.93l-.72-1.4-.42-.81-3.13-2.04-5.05-4.95-3.51-3.84c-.41-.45-.76-2.4-.34-2.83l3.66-3.76c2.68-2.75,4.29-.85,6.65-1.24l1.22-.2c.22-.04.21-.77,0-.87l-.84-.4-2.38-2.62c-.8-.88-.58-3.9.36-4.64.89-.69,1.8-1.87,1.74-2.66l-.31-3.86,1.14-.84c.17-.13.65-.62.53-.8l-.54-.87-.41-.67-.35-.81c-4.26-2.96-8.03-6.1-11.57-10.44l4.33-4.77c1.7-1.87,4.22.17,4.52-1.01l.44-1.77c-2.92-2.3-2.12-5.12-.71-7.84,1.1-2.12,2.01-4,4.44-5.1l4.11,4.44,5.13,5.6,4.59,5.13,2.27,3.07c1.49,2.01,3.7,3.73,5.45,5.3l2.95,2.66,2.27,2.58,5.83,6.08v3.26s-1.76,1.85-1.76,1.85c.02.26.65,1.5.92,1.74l4.34,3.92c.08.07.82.2,1.54.35l-.48-10.36c-.05-1.13-.81-2.89-1.46-3.89l-2.54-3.91-2.15-2.7-1.94-2.49-4.65-6.75-6.26-6.56-7.36-9.67-10.6-12.01c-.92-1.04-.73-.11-3.31-4.46-.12-.19.05-.3.72-.97l-1.71-3.76-.3-.9c-.17-.51.72-1.56,1.24-1.46,1.68.34,3.18,2.21,4.22,4.21l2.46,4.7c.75,1.44,1.9,2.08,3.82,2.2l3.84,3.69-.5,3.95c-.02.19.85.83.99.98l5.36,5.7,2.85,3.29c1.87,2.16,5.18,4.78,7.21,9.07l2.08,4.4,5.67,5.81c.17.17,1.21.3,1.45.28s.37-.74.37-1.08l-.02-6.43c0-.19-.19-.98-.25-1.08l-.68-.91c-.14-.19.57-.7.7-.89,1.11-1.67-.88-2.75-.99-5.78l-.71-20.4-.25-6.63c-.02-.58-.73-1.94-1.01-2.43l-.54-12.15-.48-9.81-1.01-4.9-.65-6.93-.44-9.36-1.16-4.11-1.29-14.16c-1.04-1.78-1.23-3.76-1.16-5.93l-1.07-11.32c-1.28-2.26-1.37-4.65-.98-7.63l1.1.75,2.65,1.39,1.26,1.66c1.47,1.93.69,3.94,3.27,4.25l-.38-14.94-.23-7.05c-.02-.65-.73-2.11-1.02-2.65l-.37-7.64-.53-10.88-.47-9.45c-.22-.64-1-2.21-1.03-2.93l-.45-11.86-.58-15.59c-.16-.18-1.02-1.15-1.02-1.37l-.05-4.7-.79-29.49-.26-20.23.08-1.26c.08-1.27-.47-2.86-1.3-4.15,1.74-2.3,1.89-5.77.06-8.05l-.26-19.32-.39-36.24-.37-14.76c-.19-.36-.9-1.66-.98-2.22-.33-2.33-1.58-5.74-2.13-8.08l-1.34-5.8c-.48-2.09-1.37-3.64-1.75-5.84-.17-.99-.45-2.47-.89-3.1s-2.31-.84-3.06-1.02l-1.41-4.6-1.73-8.53-.87-3.46-1.53-5.99-1.69-6.03-2.27-6.86c-.14-.42-.7-1.24-1.04-1.68l-1.23-3.31c-.81-.74-1.43-1.42-1.77-2.07l-1.36-2.63c-1.37-6.2-5.74-4.64-4.66-7.63.93-2.58-.81-5.51-1.81-7.89l-1.57-4.53-1.49-4.59-2.58-8.17-1.37-4.35,4.47-.22c1.5-.07,2.54,1.59,2.96,2.94l2,6.33c.39,1.23,1.6,2.89,1.76,4.43.17,1.62.8,2.78,1.29,4.07l2.27,5.9c.28.74.37,1.99.86,2.11l2.48.62c1.05.77,2.94,2.62,3.61,3.63l1.79,3.33,2.11,4.13,1.86,4.91,1.59,6,1.27,4.07,1.28,4.49,2.12,8.36,1.8,9c.36,1.77.78,3.35,1.21,5.21l1.49,6.48,1.85,9.7c.58,3.05,1.27,6.36,1.51,9.66.14,1.85.42,2.69,1.28,4.29,1.17,2.19,1.02,5.57.83,8.16l1.1,3.48.48,11.31.44,29.81.39,19.79,2.06,5.38c.59,1.53,1.1,2.36,1.21,4.22l.71,12.08.2,15.61c.01.82.72,2.27,1.17,3.04l.22,26.34.52,27.56.45,9.14c.19.66.98,2.25,1.01,2.96l.34,8.08.53,9.25c.1,1.75.91,3.19,1.01,4.91l.5,8.41c.14,2.37-.1,3.74-1.21,5.87-1.09,5.29.85,8.39,1.04,12.67l.59,13.56.58,9.95,1,3.41,1.24,4.29c.31,1.07,1.25,2.79,1.25,4.21l.31,77.23.39,21.22c.59,1.02,1.1,2.62,1.11,3.87l.1,12.51.44,9.2.34,8.72,1.01,3.71.45,10.18.1,7.61.43,4.55,1.07,4.71.65,5.4c.39,3.22.14,6.4.97,9.56.31,1.16,1.46,2.99.52,4.05l-2.36,2.66c-.41.47-1.25,1.86-1.21,2.52l.37,5.57.34,15.87,1.45,1.18c2.01,1.63-3.5,1.37-4.14,2.7l-.61,1.27,12.41-.52,8.19-.4c1.21-.06,2.75-.66,3.93-.93,4.16-.93,9.11-.07,13.19-1.51,2.18-.77,3.98-1.5,6.37-1.69,4.05-.31,6.15-2.62,5.73-3.31l-1.03-1.7-1.25-23.56c-.03-.55.94-1.52,1.47-1.65,1.73-.43,1.51-1.87,1.45-3.24l-.62-16.17c-.05-1.36-.64-3.28-.95-4.38l-1.23-16.13-.95-4.28-.63-9.18-.53-9.79-.98-4.77-.66-9.73-.48-9.81-.25-7.21-.99-1.72-.36-7.72-.48-14.88-.28-12.24-1.13-2.13-.24-39.7-.51-16.03-.33-24.64c-.66-.95-1.1-2.17-1.11-3.33l-.21-26.36-.25-9.65,4.66-.58c.61-.08,1.7,1.21,1.98,1.73l1.35,2.47.21,7.1c.03,1-.65,2.83-1.1,3.78l-.03,15.02c.34,1.16,1.49,3.49,1.19,4.69l-1.04,4.24c-1.2,4.89.82,6.9.87,9.32l.26,12.74.36,15.32c.03,1.33,1.29,2.77,2.47,3.67l.12,10.55,1.11,2.1.58,23.28.63,12.45c.39,1.29.97,3.24,1.03,4.73l.26,7.12.44,12.11.3,12.1,1.08,1.36c-.64,1.6-1.12,3.02-1.18,4.63l-.28,7.45c-.01.36-.23,1.45.1,1.42s1.57-.2,1.83-.41l4.64-3.86c4.45-3.71,8.89-6.6,14.15-9.09l4.34-2.06,3.88-1.73,5.8-2.29,7.55-2.22c3.91-1.15,7.28-1.98,11.66-1.72l4.39.25c.21.15.34,1.34.05,1.48l-1.24.58c-1.55,2.9-4.01,1.43-8.46,2.79l-7.09,2.17-3.88,1.4c-.31.11-.99.64-1.22.86s.74.81,1.06.83l1.07.07.87.17,3.14.98c-.48,5.11-7.72,1.76-12.61,4.38l-7.54,4.03-5.49,3.64-6.4,4.5-5.52,4.12c-1.42,1.06-3.48.77-3.44,3.37l.11,8.17.11,1.89c.02.36,1.29.16,1.64-.05,3.31-2.04,5.58-2.27,5.5-2.75l-.27-1.63c-.35-2.14.63-3.84,2.93-4.64l2.71-.95,2.25-1.01c.51-.23,2.06-.62,2.24-1.14.89-2.55-.9-5.9,5.37-8.15l6.75-2.42,3.75-1.62,6.95-2.32,7.29-1.87c.54-.14,1.67-.16,2.15-.09.64.1,1.19,2.27,1.88,1.86l1-.58c.55-.32,1.83-.57,2.69-.87l4.78-1.66,3.21-.76c.32-.08,1.38.09,1.58.36l1.08,1.52-.07-3.69c0-.24-1.08-.57-1.3-.68l-1.17-.62,2.29-2.56-.36-11.56-.39-17.32c-.02-.87-.69-2.56-.95-3.35l-.45-16.33-.49-16.32-.35-11.87-.95-2.43-.47-10.07-.54-8.24-.82-5.33-1.44-16.85c-.09-1.08-.54-2.4-.97-3.32l-1.45-13.76-1-3.35-.85-9.2-.9-2.64-1.68-10.19-.84-3.42-.99-10.84c-.04-.46-.61-1.45-1.02-1.94l-1.15-14.31-.84-3.4-.71-7.83-.43-10.31-.34-11.49c-.48-.68-1-1.84-1.02-2.42l-.29-8.24-.46-13.23v-23.81s.54-10.78.54-10.78l.42-7.91c.21-.41.96-1.77.97-2.21l.34-8.46.11-11.49c0-.7.93-2.51,1.62-2.26,2.12.77,3.32,3.4,3.26,5.51l-.27,9.55-.76,15.91c-.09,1.82-.77,3.17-.87,4.92l-.48,7.96v7.16s.21,21.19.21,21.19c1.22,2.32,1.48,5.03.93,7.63-1.8,1.69-.97,4.03.2,5.6l.35,12.01c.11,3.92.81,7.61,1.26,11.5l1.92,16.42.8,3.33.93,10.42.92,3.86,1.27,10.19.92,3.27,1.27,10.23.88,3.32,1.21,9.64c.15,1.19.47,2.28,1.14,3.3l1.3,14.59.55,1.12.39.79,1.47,14.82.77,4.15.29,7.63.43,10.13.26,13.62c.01.53.75,1.9,1.01,2.41l.38,11.97.35,19.18.41,12.45,1.06,2.09.57,15.2.73,12.44c.21.88,1,2.63.9,3.67l1.11,20.78.66,1.02c.09.14.35.77.36.95l.68,11.17,2.02.51c.41.1.33,1.44.56,1.82,1.16,1.85,1.44,3.7,1.64,5.99l.38,4.36.39,16.97.91,4-.1,18.81c-.74,1.17-1.14,2.57-1.26,3.93l-1.18,13.31-.98,4.5-.39,5.79,2.45,1.76c-.73,2.39-4.43,1.58-4.72,5.94-.09,1.36-.25,2.88-.02,3.99.83,3.92-.11,6.12.46,5.91l1.96-.74c2.17-.82,4.93-1.03,7.47-.95l15.24-.47,1.78-.88,11.91-1.52,2.36-1.04,20.63-.83c1.62.04,3.06-.24,4.47-1.12l56.42-1.21c.2-.17,1.22-1.02,1.51-1.03l6.29-.05,2.01,3.81,13.09.33,64.02-.09,39.57-.86,1.39-.94,17.1-.51,21.75-.55,1.13-.73.83-.42,17.96-1.09c1.18.06,2.58-.35,3.6-.93l19.83-.97,13.62-.6,4.05-.8,68.45-.8h7.32s18.88.81,18.88.81l1.07.67c.14.09.67.26.88.28l13.01,1,9.25.1,37.09-.44c-.04,1.69.79,1.86,1.19,1.05l-.24-1.18-1.56-7.57-.71-8.49-.06-1.1-.54-29.17-.04-1.21c-2.29-6.46-.97-14.52-2.9-21.15-1.34-14.3-1.04-28.85-.44-43.59l.88-2.62,1.2-10.33,1.03-4.3,1.18-8.77.88-3.35,1.56-9.45,1.25-5.12c.58-2.38.77-4.47,1.34-6.72l1.82-7.13,1.26-4.94,1.53-5.43,1.43-5.26,2.12-7.19,2.16-7.5,2.31-8.01,1.46-4.81,1.33-4.51,2.47-7.71,1.93-5.23,2.07-4.85,2.54-5.61,2.15-4.33,2.07-3.94,1.76-3.06,2.34-4.6,2.1-3.98,2.59-4.56,14.69-21.92,5.28-6.68,2.69-3.27,4.43-5.24c3.88-4.58,8.13-8.5,12.96-11.9l8.27-5.83,6.13-4.31,3.88-2.51,3.69-2.25,3.62-2.26,3.51-1.99,4.13-2.23,4.81-2.28,4.78-1.59,5.1-1.38,7.72-1.51,3.88-1.08c7.56-1.2,15.92-.98,23.15,1,5.55,1.52,11.62,1.14,17.38,1.7,3.46,1.61,8.36.39,13.12,2.06l6.21,2.17c2.42,1.79,4.48,3.35,7.27,4.25l6.4,2.06,4.55,2.09,4.2,2.27,2.66,2.11,6.14,4.75,5.44,4.84,7.11,6.51,3.24,2.5,2.75,3.35,3.9,4.79,2.33,3.53,2.49,4.69,1.74,2.95,2.06,4,2.23,4.33,2.55,5.76,5.32,9.42,2.1,3.77,2.22,3.73,2.08,2.65,2.07,4,2.23,4.57,1.89,4.94,1.53,6.04,1,2.84.85,14.66.83,3.98,1.6,13.15.88,2.79.34,10.91.29,48.58.39,8.15c.03.72.72,2.22,1.04,2.85l-.08,13.91c-.27,1.11-.9,2.97-.97,4.23l-1.03,19.58c-.07,1.3-.59,3.09-.93,4.18l-.45,19.61c-.03,1.13-1.04,2.45-2.06,3.2l-.75,8.15c-.12,1.32-.77,3.1-1.21,4.23l-1.06,15.76c-.07,1.11-.47,2.29-1.12,3.31l-.72,22.86-.04,1.38c-.02.5,4.02,1.08,6.24-.39-.86-1.35-1.29-2.31-1.21-2.98.06-.54,1-1.87,1.56-1.92l8.72-.78,8.24-.26,47.53-.12,2.71-1.07c4.06,2.67,5.12-.8,6.86.3.67.43,1.06.72,1.33.63s.99-.81,1.07-1.09l.37-1.3c.07-.25.42-1.19.67-1.25l5.42-1.39c12.31-1.46,25.76-.54,38.8-.41l5.42.95,15.73,1.16c5.68.42,6.09,4.45,10.95,4.02l-.2-6.16c0-.14-.73-.71-.78-.73-.03-.02.47-.54.62-.7-.21-.46-.82-1.69-.84-2.19l-.14-3.76-.47-5.95-.07-.89-.07-.84c-3.04-2.65-1.57-5.85-.01-8.09l.48-13.52.04-21.15.11-5.29-.15-13.21-.43-14.43-.48-9.92c-2.68-2.59,2.58-5.77-.97-10.81l-.03-7.1c2.01-2.2,1.35-5.08.06-7.16l-.52-11.42-.78-7.38c-.19-.66-.88-2.17-.94-2.87-1.35-15.1-1.45-29.75-.01-44.82l1.76-3.58c.73-.22,2.5-1.27,2.5-1.98l-.17-39.05-.55-23.32-.33-9.67c-.01-.38-1.03-1.19-.84-1.46.14-.2.8-.96.81-1.2l.25-6.72.61-9.13-.04-7.73-.47-24.51-.12-34.25.31-5.14c.05-.79.87-1.84,1.61-2.64,2.45-2.66,5.25-.87,5.09-3.08l-.86-11.5c-.42-.78-.82-1.81-.89-2.43l-.88-8.39-.98-3.84-1.26-6.42c-.21-1.07,1.53-2.69,2.44-3.21l-.23-3.76c-.05-.88-.74-2.49-1.16-3.27l-1.09-15.01c-.16-2.18-.97-3.19-1.26-5.27l-1.3-9.09-.83-3.46-.74-3.93-.2-5.42-13.13.12-2.09,1.26-18.41.22-55.61-.13-35.72.1-5.3-1.15-16.51-.55-10.95-.51-52.25.02-37.08.05-24.9.64c-1.27.03-2.8.54-3.91,1.04l-21.44,1-26.49.25-2.16,1.04-31.33.81c-4.91.13-9.25-.18-14.04.84-6.36,1.36-13.21,1.14-20.03,1.55-1.42.08-2.71.41-3.92.97-12.77.91-25.35.86-38.27.12-1.8-1.11-3.75-1.24-5.89-1.02-6.31-2.14-11.76-.07-15.67-2.1l-22.72-.33-10.27.29-2.17,1.04-62.1,1.06c-1.27.77-3.46,1.59-4.83,1.3l-4.9-1.02-18.08-.2c-.85,1.02-2.26,2.14-3.23,2.02-.88-.1-2.29-1.39-3.1-2.31l-11.74-.23-6.72.14-28.52.32c-1.16.01-2.36.4-3.36.99l-40.7,1.04c-.49,1.97-1.32,2.06-2.81,2.5-5.39,1.62-7.3.59-8.25,2.92l-3.39.26.47.29,5.88.5-18.15.09c-37.17-1.24-73.97-1.43-111.13-.17-2.53.09-5.53.67-7.19-1.31-.78-.93-1.49-2.6-3.2-2.67-2.97-.13-6.25-.39-9.11.14-3.16.59-4.2,1.78-10.37-.05-1.9-.56-4.09,1.76-3.94,3.68-1.44-.14-2.96-.34-3.68-.71s-.84-1.96-1.06-3.35c-8.26-.05-16.49-.76-24.54.48l-5.65.87-5.15.45-6.9-.06,2.06,1.39c-5.48,1.89-6.75-.65-10.14-1.03l1.31,1.81-3.94.42-.47.05-5,.02-4.22,1.02-18.31,1.19-4.88.87-10.89.86c-.95.07-2.85-.49-3.38-1.17s-.97-2.29-1.26-3.37l-12.47-.04c-2.45,0-2.37,3.33-3.57,2.93-.48-.16-1.29-.88-1.6-1.31l-3.85-5.51-2.09-2.68c-1.2-1.54-2.47-3.02-4.01-4.17-5.85-4.36-9.39-11.86-12.2-14.67l-9.04-9.06c-1.96,1.84-2.86,3.64-3.91,5.79l-7.43,15.25-1.89,4.07-2.19,4.66-2.44,5.66-2.19,4.97-2.12,4.7c1,2.56,5.33,1.85,3.52,4.24-1.31,1.73-1.76,3.31-2.4,5.37l-2.18,7.02-1.49,5.92-1.36,5.09-1.08,7.01-1.16,3.21-1.6,9.28c-.29,1.69-1.33,3.28-1.32,5.03.01,2.78-.78,5-1.21,7.57l-1.93,11.46c-.52,3.11-.66,5.92-1.35,9.07l-1.05,4.85-1.29,12.6c-.08.8-.83,2.49-1.17,3.28l-1.32,15.92c-.49.93-.91,2.31-1,3.29l-.69,7.95-.61,7.59c-.09,1.11-.82,2.37-.87,3.38l-.41,9.28-.43,6.65-.13,8.49c0,.51-.78,1.86-1.1,2.37l-.33,16.31-.56,15.53-.29,19.17c-.76,1.1-1.26,2.48-1.16,3.94l.07,44.68,1.26,2.02c.41.65-3.39,3.18-5.96.76l-.19-18.93.34-30.47.37-22.27c.47-.81,1.08-2.35,1.09-3.27l.2-15.44.51-12.01.59-10.99.84-5.44,1.17-22.01c.64-1.34.87-2.81,1.01-4.47l1.24-15.01c.3-.95.89-2.74.97-3.82l.85-11.53c.07-.95.59-2.39,1-3.25l1.47-13.85c.34-.81.89-2.35,1-3.26l1.23-10.19,1.17-4.04.55-7.04.97-3.87,1.25-7.97c.46-2.93,2.34-5.87,1.77-10.62l-2.74,5.58-2.33,6.13-1.97,5.7c-1,2.88-3.77,4.83-4.22,9.12-2.35,2.23-3.7,4.99-4.75,7.97-.66.23-1.39.54-1.41.24l-.12-1.5c-.13-1.64,1.03-3.79,1.52-5.5l1.47-5.1,2.09-5.63,2.1-5.34,2.2-5.93,2.52-6.74,2.16-4.82,1.8-4.1,2.53-6.73,1.69-3.59,2.13-5.01,2.47-6.13,2.25-5.27,1.87-4.06,1.99-4.1,2.52-5.55,2.11-4.86,2.07-4.33,2.17-4.38,2.1-4.4,2.27-4.26c1.08-2.03,3.24-4.91,1.12-7-.42-.41-1.75-.94-1.68-1.45l.29-2.01c.68-4.69-2.37-3.56-3-6.53-.21-1,.63-3.33,1.55-3.31l5.48.1-1.77-1.63c-1.09-1,2.62-1.31,4.7-4.79l3.92-6.53,2.2-3.72,2-3.3,8.6-13.05,4.81-6.57c3.03-4.13,5.91-8.27,9.68-11.88l11.04-10.57,4.93-4.38c2.74-2.43,5.98-4.9,9.4-6.65l14.72-7.53,4.92-2.2c2.12-.95,3.59-2.29,6.33-2.22-1,1.24-1.85,2.16-3,3l-3.48,2.57c-.97.71-2.33,1.23-3.62,1.76-3.81,1.57-5.22,5-9.89,7.64l-3.53,2-3.77,2.28c-1.78,1.08-3.62,3.13-5.27,4.29l-1.99,1.4-5.15,4.42-10.3,10.4-2.59,3.19-2.34,3.1-8.13,10.87-7.37,10.48-4.64,6.24c-.94,1.26-1.94,2.43-2.46,4.23,1.62.52,2.77-.49,3.8-2.05l6.89-10.4c.24-.36,1.37-.73,1.7-.73s.98.51.85.82l-.61,1.46-.38,2.15c-.34,1.93-.52,4.02-1.67,5.36-.65.75-1.16,1.67-1.05,2.28s1.79,1.24,2.42,1.15l7.04-1.05,22.24-1.57c1.5-.11,3.14-.9,4.86-.91l40.14-.23,57.62-.11,16.29.42,2.12,1.12c3.53-.09,7.41.43,10.71-.3l5.64-1.25,5.9-1.52c3.42-.88,7.11-1.13,10.63-1.34l3.42-3.19c12.65-1.28,25.01-1.64,37.72-.61l10.69.86,3.33.91,12.34,1.23,3.35.92,35.16.73,20.53-.8,1.75-.89,10.21-.35-5.5-.85-4.08-.86-11.85-1.36c-.53-.06-1.67-.82-2.04-1.09l-21.44-.16c-.57,0-1.8.07-1.9-.34l-.48-2.1-5.29-.47c-.79-.07-2.53-.78-3.3-1.03l-13.98-1.09c-2.3-1.28-4.75-1.78-7.47-1.88-5.58-.55-10.95-.3-16.24,1.48l-3.37,1.13-10.49.18v1.64s-33.79.22-33.79.22l-21.34.37c-1,.59-2.19.98-3.38,1l-35.34.76-17.68.44c-1.03.22-2.99.88-4.26.91l-38.91,1.12c-1.43.04-2.75.35-3.94.95l-18.25.4c-1.59.03-3.49-.61-4.84-1.3-2.61-.1-4.88-1.16-5.36-3.89-3.03-1.93-3.94-5.08-3.2-8.85-.91-.71-2.88-.27-3.93.63l-1.65.14c.1-2.48,1.22-3.66,2.77-5.52l2.67-3.18,12.99-13.46c1.12-1.16,1.7-2.78,2.14-4.52l3.35-.84,3.08-2.53,7.53-7.29c.51-.5.41-2.5,1.05-2.62l2.51-.44,14.1-12.92,7.33-6.69c2.11-1.93,4.51-3.84,6.2-6.12.78-1.06,1.58-2.31,2.65-2.5.83,3.76-2.26,5.64-4.02,7.95-2.4,3.15-4.82,4-6.3,6.12l-3.16,4.52-3.83,4.36-4.5,5.12,18.25-.62,1.36-1.02,45.07-.02c.99.77,2.18,1.2,3.32,1.22l12.72.25,18.39.46,18.74.25c1.98,1.44,4.72,1.65,6.98.61,1.13-1.06,2.81-.71,3.87.52l22.05.06,11.05.37c-3.36-1.87-6.79-2.06-10.78-2.3-1.35-.08-2.9-.9-4.28-1.08l-8.64-1.11-3.29-1.1-8.28-1.47c-1.97-.35-3.59-.89-5.61-1.25l-8.04-1.46-16.61-1.59-1.25-.67c.47.25-3.41,1.6-8.27.49-1.67-.38-1.94-.12-3.5.05-6.85.75-13.72.17-20.39,1.63l-3.9.85-26.73.73-6.01-.35c-.31-.02-1.19-1.17-.9-1.3l1.26-.56,5.48-1.71,6.24-.84c1.15-.16,2.5-2.41,3.06-3.7l-5.06-3.18c-.35-2.01.86-3.5,2.26-4.57l4.07-3.14c-.61-.63-1.42-1.93-1.57-2.8-.12-.73.6-2.4,1.26-2.76l2.85-1.57c2.99.34,4.52-1.91,4.84-4.38l2.59-6.68,1.06-2.96c-1.86-.54-3.67-.94-4.76-1.55-1.81-1.19-2.83-1.69-5.08-2.22l.07-1.55c2.23.04,5.43-.13,7.36.69l5.54,2.34,4.43,1.95,6.45,2.28,7.08,1.84,4.41,1.06,8.18,1.66,4.63,1.25,4.18,1.25,7.02,1.61,6.14,2.11,6.36,2.25,4.27,1.74,6.69,2.48,5.45,2.06,5.5,2.16,6.3,2.26,6.49,2.18,5.8,1.68,4.08,1.23,9.77,1.74c1.78.32,3.18.88,4.97.76l.94-11.22.9-3.85.88-12.09.93-3.28,1.09-8.19,1.09-3.24,1.61-9.25,1.17-4.26,1.42-4.9c.86-2.96,1.41-6.26,2.15-9.28l1.6-6.52,2.08-5.53,2.06-5.56,2.5-6.75,1.84-3.89,2.02-4.55,2.21-4.98,2.23-4.61,2.23-4.37,2.08-3.7,2.16-3.9,2.11-3.8,7.09-11.21c2.66-4.21,5.71-7.81,9.58-10.95l1.74-1.41c.38-.31,1.07.88,1.48,1.72l7.71-7.77c-1.37-1.35-2.91-2.56-4.46-3.46l-10.35-6.04-3.8-2.1-4.66-2.33-4-1.99-4.69-2.33c-1.4-.69-3.2-2.39-5.16-.37l4.02,3.68,4.36,4.72c.3.43-.5,1.26-1.74,2.36l4.02,2.37,5.75,2.44c1.5.64,2.94,1.41,3.97,2.53l1.3,1.41c.78.84-2.79,2.2-5.44-.27-3.42-3.18-8.78-4.74-10.27-6.13-1.11-1.04-2.35-2.81-3.69-3.79l-3.43-2.5-1.72-2.05-3.01-4.56-.57-4.54c-.13-1.02-2.85-1.39-3.92-1.68l-3.47-.95-8.7-1.27c-.49-.07-1.77-.86-2.15-1.05l-10.37-1.23c-2.04-1.69-4.65-1.44-6.57.19l-13.63.88c-1.41.09-2.96.58-4.3,1.03-6.18.76-12.81-.41-18.78,1.44l-7.06,2.2-6.11,1.95-6.7,2.11-4.74,1.51c-1.91.61-3.41,1.17-5.35,1.64l-5.19,1.26c-1.85.45-3.22,1.15-5.09,1.46-1.98.32-3.41,1.18-5.39,1.6l-6.24,1.3-7.06,2.26-6.52,2.12-5.43,2.11-4.53,1.94-6.26,2.42-5.19,1.93c-1.48.55-3,1.34-4.59,1.62-4.47.8-7.75,3.38-13.78,2.11l4.78-1.81,6.2-1.85,6.47-2.2,5.92-2.18,5.8-2.27,4.68-1.98,4.41-1.84,7.35-2.54,6.5-2.06,7.16-2.07,6.74-1.67,4.5-1.29,5-1.35,8.49-2.27c3.39-.9,6.37-1.59,9.8-3.09-4.87-.39-9.59-.42-14.65.77l-3.91.92c-3.93.92-8.09.82-12.05,1.76l-3.88.92-9.13,1.16c-1.16.15-3.15,1.29-4.38,1.41l-5.95.6-5.23,1.2c-3.01.69-5.32.95-8.19,2.03-1.7.64-4.72.57-6.38,1.1l-4.1,1.31c-.57.17-.88-.08-.7-1.18l7.31-1.35,1.06-.91c.24-.21-.82-.85-1.09-.85l-21.24.54-2.25,1.06c-3.53.61-7.66.95-10.99,1.72l-8.61,1.98c-2.17.5-4.75,2.09-6.72-.4-1.65,2.25-5.97.48-11.53,1.41s-7.85-1.78-9.14,1.89c-.3.83-2.56.65-3.31-.08-2.01-1.96,1.31-5.83-2.93-5.89l-9.89-.14-19.15.11c-1.05-1.26-1.37-2.84-1.51-4.87l-15.65.37-23.56.34-5.51.41c-1.05.08-2.59,2.15-3.47,2.9-1.72,1.46-5.99-.09-9.38,2.98,1.46,1.4,1.76,3,1.17,4.13-.78,1.48-2.2,2.13-3.84,2.05-2.67-.13-5.61.06-7.9-.49-7.4-1.81-18.09-1.79-18.1,1.16s4.21,6.42,1.1,10.52l-4.08,1.38c-1.26.42-4.04.67-5.36.74-1.04-1.44-2.02-2.16-3.4-2.26l-4.06-.3c-.92-.07-3.04.45-3.37,1.39-.26.75-.42,2.19-.52,3.05l-3.11,1.82-4.01,1.35c-1.42.88-2.54,1.21-4.07,2.11l-3.31,1.94c-1.65.97-3.29,1.68-5.17,2.5-4.38,1.92-8.7,3.48-11.33.22-.9-1.11-.9-1.84-.95-3.26l-.25-6.8c6.95-3.53,11.33.35,11.12-5.26l-.14-3.66c-.07-1.78-.08-4.35.65-5.71l3.72-1.29,7.9-2.45c1.52-.47,3.81-.85,5.18-1.17-1.68-5.13.42-8.82-1.06-11.82l-7.29-1.05-2.15-6.11c-.51-1.46-.7-1.96-2.3-2.76l-1.35-3.48-1.49-3.82c-1.25-1.04-2.17-2.09-2.79-3.71l-1.01-2.64c-.19-.51.88-1.52,1.23-1.94-1.02-.75-1.56-3.12-.67-3.47l5.58-1.06c3.35-.64,6.86-.61,10.24-.75l12.52-.5,4.38-.96,17.59-1.52c.96-.39,2.66-1.06,3.74-1.21l7.03-.98c.62-.09,2-1.31,2.5-.95l1.94,1.4,7.65-.18c.88-.02,2.87.59,3.1,1.37l1,3.32,6.8-.24c1.18-.04,2.65-.85,3.88-1.03l8.64-1.26,4.09-1.73c3.43-1.45,1.28-2.73,2.21-6.67.11-.46-.01-1.77.45-1.81l1.77-.16,6.33-.24-1.78,1.32c1.34,2.07,3.03-.24,4.16-.31l12.27-.75,11.97-.69c3.95-2.33,7.03.67,8.15-3.61,7.29-.1,14.81.65,21.88-.85l3.94-.83,16.02-1.34,3.87-1.01,8.18-.51,6.01-.36c1.23-.07,2.37-.19,3.22-.53h917.56s-1.36,2.95-1.36,2.95c2.82.4,2.88.8,4.2,2.47.98,1.24,3.72,1.94,5.25,2.66l4.74,2.24c4.47,2.11,7.98,4.26,13.15,4.22l4.28,1.67v8.65c-3.09.04-6.85.16-9.81-.93-2.48-.91-4.61-1.25-7.32-1.38-1.95-.09-3.75-.97-5.59-1.19l-14.33-1.76c-2.27-.28-4.28-1.31-6.7-1.36l-11.9-.25-.16,2.1c-.03.43-1.05.65-1.68.84l-.5,2.41-11.23-.53-7.79-.77c-.59-.06-1.67-.88-2.13-1.07s-1.36,1.59-1.97,1.59l-12.81-.13-5.59-1.04-7.97-.69-17.92-.61-6.21.45-4.68.09,5.58,2.12c3.56-1,6.16.21,9.42,1.26l11.08,1.74,4.37,1.25c.63.18,2.06.12,2.4.56.4.53.53,1.76.73,2.74l.61,2.94-1.45,4.44-3.39,1.19c-.91.32-1.04,2.64-1.05,4.07,0,.95-2.21,1.49-3.37,1.77l-4.32,1.05-11.31,1.44c-.48.06-1.66,1.37-1.91,1.04l-1.14-1.53-3.2-.33c-.69-.93-1.87-1.67-2.65-1.64l-2.11.08c-.47.02-.38-1.52-.36-2.46-1.56-.46-3.84.21-5.49,1.21l-2.64.68,5.42,1.7,2.52.5c.52.1.68,1.44.97,1.91,1.6,2.61,1.19,4.83-.1,7.44-.48.97-.87,2.78-1.69,3.17-.91.42-2.94-.13-3.89-.54-3.73-1.62-7.88-.89-11.81-.77l-9.97.3c.66,1.45,1.41,2.36,2.29,3.8l1.97,3.25,2.35,5.83,2.34,5.82.76,1.74c.21.47,1.43-.83,1.88-1.21l5.12-4.31,9.17-6.66,3.16-2.17,13.11-8.55,3.06-1.74,4.65-2.52,4.06-2.22,4.03-2.03,4.66-2.27,4.57-2.05,4.35-2.15,3.97-1.84,6.01-2.25,4.18-.91-2.75-1.54-3.41-2.26,1.24-1.15c.21-.2-.8-.79-1.24-1.06l3.79-1.26-2.88-1.3c8.08-.63,16.1-.55,24.26.31l-8.74.66-.04.61,16,.5-.83-1.81,2.66-1.82,10.95.08-.03.95c-3.52-.04-6-.26-9.05.34l6.84.59,15.49.57,5.35,1.07,5.09.86c.61.1,1.48.53,2.07,1.1l9.43,1.3,5.13,1.25v9.19s-8.1-.47-8.1-.47c-1.77-.13-3.23-.25-4.8,1.09l4.93.92-3.76.84c-.16.16-.25,1.28.09,1.36l1.81.46c.61.75-1.24,1.52-2.51,1.83l-5.42,1.35-15.79.63-31.18-.59c-.9-.29-2.8-.92-3.84-1l-15.15-1.21c-1.76-.78-2.92-2.53-5.98-.98l-4.39,2.22-4.12,1.99-4.3,2.12-5.2,2.38-6.07,3.47-3.14,1.76-4.64,2.34c-1.61.81-2.97,1.54-4.44,2.61-1.59,1.15-3.02,1.58-4.68,2.56l-3.91,2.3-10.75,7.29-4.5,2.73-5.81,2.87c.44,2.93-.59,4.49-2.29,5.86-1.43,1.15-4.8,1.06-5.81-.11-.27-.31.93-1.54,1.13-1.88l1.9-3.22c2.51-4.25,1.01-9.31-.84-13.35l-1.86-4.07-2.3-4.21c-3.29-6.02-8.77-9.39-14.69-12.49l-3.51-1.83-4.4-2.14-5.25-2.3-5.95-2.21-6.85-2.36-5.79-1.64-4.57-1.2-9.62-.33c-.98-1.59-2.45-2.62-4.46-2.45-2.33-.24-4.49-.73-6.41-1.64l-10.39-.95-3.83-1.08-13.76-1.51c-.89-.42-2.29-1.02-3.37-1.07-12.4-.56-24.4-1.37-36.74.31l-5.44,1.43c-2.26.59-4.28.99-6.35,1.64l-7.42,2.32-5.17,1.82-6.87,2.35-5.53,2.09-4.55,1.97-5.82,1.76c-1.48.45-3.13,1.55-4.01,1.03l-.44-1.47c-.05-.17-.57.94-.74.95l-5.31.56-9.39.35-9.16.31-2.93,2.87,3.07,5.39-1.49,4.56-5.1.18c-5.39,3.35-7.59-.98-10.08-.19l-1.45.46c-.24.07.4.51.91.8,1.16.13.94.47-.05.56-2.44-.68-4.63-.46-6.57.35l-2.5-.37c-.62-.09-1.44,1.05-1.95,1.49l-4.93.91-4.43.96-5.75,1.54-5.45,1.49,6.45.4,1.26-.02c.28,0,.57.87.78,1.33,2.58.38,5.98.64,8.38,1.48l5.8,2.03,6.46,1.66c.72,1.03,1.17,3.35,1.47,4.86,1.1,5.69-3.87,6.96-9.82,8.84-1.83.58-3.52,1.09-5.6,1.27l-6.38.54-2.84,1.74c-.2.12-.34.06-.26.17l.69.96,7.61,1.21,1.55,5.92,3.35-3.18,4.44-4.05,3.77-3.34,4.44-3.78,3.26-2.57,14.9-11.11,15.8-11.84,9.59-6.72c.33-.23,1.35.2,1.11.39l-1.18.94-1.93,1.65-2.92,1.99-3.87,2.97c-.18.14-.89.72-.91.73-.02,0,.33.29,1.13.99l-6.25,5.36-7.74,6.33-4.31,4.32-2.48,1.95-3.61,2.72-4.97,4.22-3.69,3.31-4.45,3.77-3.78,3.21-5.34,4.81-11.31,11.5-2.65,3.23-4.91,5.42-4.01,4.72-2.34,3.07-2.27,2.98-4.37,5.56-4.65,7.07-3.46,5.29-5.78,8.19-1.98,3.87-2.39,4.75-2.07,4.33-2.03,4.49-1.48,4.02c-2.66,2.76-1.27,8.05-6.23,7.4l-.5-1.4c-.11-.31-.71.63-.88.96l-4.26,8.09-1.97,4.51-2.25,5.21-2.03,5.12-2.27,5.71-1.9,4.78-1.43,5.06-1.58,4.89-1.23,4.05-1.73,7.12c-.47,1.94-1.27,3.95-.46,5.82l1,2.3c.23.52-1.64.9-2.11.91l-.24,1.2c-.04.19.52-.25.72-.3l5.63-1.38.35,1.46-4.92,1.83,17.61,17.63,1.45,3.3c.08.19.66.67.84.79s-.9.86-1.05.72l-8.38-7.85-6.85-6.24-2.84-2.54-2.44-2.28c-1.49-.16-3.92.83-5.56,1.43l-5.99,2.21c-1.47.54-2.72.95-4.16,2.05l18.55,1.48.07,10.65c0,1.27-3.34,1.52-4.83,1.69l3.55,1.39,17.51.79c1.37.08,3.85.56,4.68,1.96s.17,4.68-.21,6.38l9.08-.43-.05,1.59c-.02.73,2.95,1.37,5.17-.29l26.85-.65,13.02-.32,5.92-.99,24.69-.22,1.74.92,14.18.09c1.04-.13,2.26-.52,3.3-1.04l28.51.02c1.04.33,2.55.89,3.79.89l66.93.04,2.96-1.33-4.01-1.08-.48-1.15c-.08-.18.8-.28,1.08-.26l7.58.49,3.33.99c2.94.87,12.41.96,15.13-.8l20.78.03c1.14.59,2.57,1.04,3.9,1.06l26.4.44c1.78.03,3.7-.91,5.39-1.17l7.99-1.25,3.49-1.23,6.27-1.14c.13-.02.86.24,1.54.48.55-.25,1.51-.7.02,0-.24,1.25-.3,2.94-.03,4.03l9.79-.54c1.32-.07,2.59-.68,4.02-.71l30.02-.63c.85-1.31,1.19-2.55,1.19-4.16l-21.9-.74-3.48-1.74c-1.32-.66-.81-3.78-.71-5.17.15-2.02.34-3.34,2.02-4.36l.7-.42.99-.43c.2-.09-1.03-.28-1.3-.29l-4.3-.26c-2.88-.17-4.75-1.3-7.23-3.62-.61.38.35-.23.68-.44l16.85.08,12.45-.63,1.77-1.06,15.89.06c2.55,2.08,8.41.71,14.07,2.32l7.28,2.08,6.01,1.96,4.91,1.72c1.05-1.46,1.76-2.14,2.95-3.14l-.42-1.18c-.09-.27.59-.53.87-.46l5.03,1.1c1.53.34,3.99,1.52,5.28,1.12,2.16-1.03,2.54-3.36,2.26-5.54,1.98-1.28,4.74-1.1,6.92-1.11,2.26.57,4.95.96,7.75,1.17l-1.63-1.19,6.19.45-2.39,1.66,6.79,1.02,3.61.94,8.72,1.69,5.01,1.4,5.04,1.37,8.1,2.66c2.69.88,5.54,1.57,7.1,4.39l.95.13v8.11s-6.18.99-6.18.99l1.62,4.14c.49,1.25.41,4.24.09,5.55l-1.17,4.76c-.55,2.24-.86,4.26-1.74,6.23l-2.36,5.25-2.05,2.95-2.46,3.76-1.8,4.24-2.23,5.32-2.17,4.33-2.01,4.01-2.6,4.85-4.05,7.01c-.43,1.2-1.18,3.83-1.06,5.15l.91,10.39c.13,1.43.46,2.55.89,4.05,1.35,4.71-1.29,11.53,2.37,17.86l.22,7.7c1.8.64,2.19,1.85,2.64,3.79l1.3,5.54.37,14.51,1.08,13.58c.88,1.71,1.15,3.74,1.03,5.88l.21,15.4-.3,17.05-1.09,2.11-.19,11.39-1,13.51c-1.26,2.62-1.75,5.54-1.52,8.6-.3,2.93-1.63,7.21-3.58,8.62-.4,1.23-1.11,3.9-1.13,5.43l-.16,14.68c-.99,1.52-1.31,3.35-1.2,5.31.24,3.38-.12,6.53-2.09,9.18l.06,17.31.99,2.23.31,20.75,1.03,38.54c.61,1.09,1.1,2.5.9,3.87l1.3,15.35c.41.66.9,1.67,1,2.2s-1.3.96-2.04,1.16l-.27,3.88-2.97.19c-1.35,1.96.48,3.93.58,5.43l1.5,21.91c.57,1.25,1,2.89,1,4.42l.05,18.15-.09,45.03.35,1.91c.09.47-1.07.88-2.01,1.23l-.05,12.49,6.05-3.58,4.17-2.29,3.74-2.15,3.77-2.08,5.09-2.18M779.11,496.58l8.39-.4c-4.04-.76-8.36-.73-12.61-.36l-7.69.68,11.9.07ZM794.9,495.85l-6.16-.16c.46,1.46,4.04,1.12,6.16.16ZM825.43,495.92h-.35s.35.02.35.02h.72s-.35-.02-.35-.02h-.36ZM890.56,496.82l.09,1.56c.01.21.88-.09.89-.3l.03-1.06c0-.21-1.02-.4-1.01-.2ZM858.29,498.83l15.11-.21,15.7-.28.31-.48-22.53.21-10.77.05-42.37.54c-.4,0-1.37.31-1.68.48s.31,1.31.55,1.51l37.74-.67c.61-.45,1.45-1.04,1.88-.87l1.45.55c1.22-.63,2.77-.81,4.61-.84ZM1185.73,505.29c.35-1.74.53-2.54,1.03-3.5,1.52-2.95-.83-.7-4.47-2.78-4.89-.13-10.36-1-14.93.26l-5.24,1.44c.21.1,1.97,1.17,2.6,1.25l7.91.92,4.53,1.1,8.58,1.31ZM890.4,503.13l-5.35-.87-9.29.08c-1.08,0-2.36-.51-3.29-1.34l-15.9.09-2.35,1.42,2.38,2.7,20.17-1.09c.81-.29,2.51-.88,3.31-.89l10.32-.1ZM1018.92,507.73l15.88-1.21,3.4-.89,16.85-.95,16.86-.52c.75-.23,2.52-.84,3.27-.87l7.71-.31-10.32-.56-21.66-.23c-1.43-.02-2.99-.51-4.29-1.11l-33.88-.04c-1.06.77-2.17,1.12-3.35,1.16l-16.86.59.34.4,7.07.38,5.18,1.03c-.97.14-1.76.07-2.94,1.5l14.35.82-15.08.78,2.15,1.86,11.75-.64,3.55-1.19ZM762.77,531.31c-.4-2.47-.25-4.87.68-6.98l8.73-.85,4.61-1.11,13.6-.96c.91-.37,2.76-1.11,3.81-1.15l14.68-.67c2.33-.11,4.08-.4,6.46-1.46l-.77-3.13c-.62.02-1.9.07-1.82.35l.52,1.77c-1.72.55-3.85.26-5.37-.89l-16.16.1c-1.83,1.51-4.5,1.69-6.28-.14l-16.45.03-1.73,1.18-19.57.04c-2.6-7.07-7.95-2.66-12.27-5.53l-24.61-.34-31.62-.27-4.69-.53c-1.68-1.51-4.15-1.56-5.77.05l-2.23-.98c-2.47-.19-6.28-.62-8.75.14l-3.37,1.03-9.9.11c-.85,0-2.52-.88-3.3-1.24l-15.02-.47,17.31-.65c2.5-.09,4.6-.57,6.94-.76l7.1-.56,7.64-.82-24.37.29-10.96.59c-2.38,1.21-5.35,1.46-7.93.85-1.3-2.2-2.89.07-3.89.1l-16.11.41c-1.99.05-3.79-.29-5.5.13l16.68.43c.95.02,1.98.25,3.06,1.29l-17.46.79c-.47.02-1.69.3-1.67.76l.05,1.88c.03.99-.52,3.61-1.53,3.63l-7.91.17-5.82-.35.12,5.07,22.91-.3,28.4-.44,12.48.04,3.58-.25c3.96,1.14,7.72.42,11.16-1.61,3.14-.17,6.09-.64,8.88-1.82l18.68-.31,25.72-.27-.61-2.28c3.28-.05,5.97.95,9.05,1.58l6.63,1.35,4.6,1.98,5.19,2.37,4.45,2.09,3.62,1.67,4.08,1.71,4.01,1.68c2.24.94,5.53,1.26,8.02,1.46ZM437.34,517.72l7.33-.47c.49-.03,1.78-.66,2.27-.91l26.3-1.33,2.28-.87,19.74-1.42,3.85-.93,9.44-.7,2.38-2.29-1.09-1.1c-.12-.12-.61.77-.78.94l-11.37.73c-2,.13-4.68.17-6.23.64s-2.69,1.05-4.07,1.11l-11.07.47c-1.48.06-3.23.86-4.66,1.21-3.65.89-7.64.2-11.33.39l-9.27.49-9.53.58c-1.41.09-4.14,1.47-5.44,1.49-.43,0-.83,1.38-.48,1.61.27.18,1.2.4,1.73.37ZM338.53,523.71c2.51.77,5.15-.64,7.7-.86l7.06-.61,6.59-.34c2.94-.15,5.32-1.01,7.31-3.43l19.38-.45,13.91-.5,13.73-.53c1.19-.05,2.88-1.12,4.99-1.04-2.7-.85-3.56-3.63-3.07-7.04l-20.86.55-9.54.29-2.12,1.14-9.9.32-2.45,4.04-4.58,2.05-25.66.7c-1.57.04-3.6,1.14-4.05,2.23l1.55,3.47ZM591.59,508.87l2.19.12-2.19-.12ZM800.57,510.63c-1.79-2.41-3.34.17-4.22-.15l-2.34-.85c-.39-.14-.65,1.1-.77,1.98l7.33-.98ZM808.13,510.17c-1.76-.6-3.02-.58-4.51-.02,1.46.95,3.07.95,4.51.02ZM808.35,511.74l-.3-.45-2.46.16.3.45,2.46-.16ZM812.47,511.59h-.35s.35.02.35.02h.72s-.35-.02-.35-.02h-.36ZM317.37,513.86l21.44-.28-.14-1.8c-2.42-.07-5.64-.25-7.75.39s-2.76.69-4.95-.01c-1.69-.48-4.59-.34-6.68-.28l-2.17.91-10.34.98-9.24.23.4-.43,3.17-.25-7.37-1.21c-7.06-1.15-8.11,1.78-11.64.22-1.82-.8-4.71-.95-6.52.55l-25.49.83-10.38.34-3.23.82-6.86.93.22,2.54,9.51-.28,17.64-.44,12.6-.29,2.14-1.19c10.7.06,21.11.3,31.74-.49l8.77-.65c1.4-.1,3.21-1.1,5.13-1.12ZM922.94,515.23c1.96-.05,4.95-.48,5.41-2.93-.53-.84-2.9-.4-3.69.35-.96-.44-2.6-1.01-3.85-.99l-13.08.24-2.1,1-8.55.17.51,2.65,8-.18,4.37.05,12.97-.35ZM1019.85,520.99c2.92.38,5.4.71,8.16,1.4l4.23,1.05,7.31,1.29c1.19-1.41,2.15-3.3,2.46-5.11l25.46-.24c1.04-1.54,1.21-3.24,1.07-4.84l.14-2.74-12.37.08c-1.74,1.1-3.72,1.37-5.89,1.38-2.34-.72-3.92.16-5.21,2.17.27.19,1.22,1.05.96,1.45-.21.32-1.37,1.28-1.76,1.28l-8.31-.06-15.11-.48-17.99-.04c1.49.72,3.09,1.6,4.21,1.75l12.65,1.66ZM802.41,515.57l-.29-.49-4.63.12.29.48,4.63-.11ZM803.73,515.11l-.27.27.27.31.27-.31-.27-.27ZM805.49,515.44l2.29-.07-2.29.07ZM916.07,535.72l3.42-2.21,4.38-2.33,3.23-1.89,5.74-2.52,4.26-2.05,5.61-2.13,5.6-1.89,6.01-2.26,5.16-.58c.49-.06,1.62-1.17,1.24-1.43-.28-.19-1.38-.75-1.72-.65l-3.95,1.12-9.71.34c-.41.01-1.4-1.26-1.71-1.05l-1.44,1.05-28.51,1.09c-1.61.92-3.04,1.25-4.93,1.43s-3.23,1.19-5.09,1.55l-6.3,1.2c-5.23,2.4-7.84,2.05-8.63,3.85l5.65.49c1.59.14,2.87,1.63,3.52,3.17,1.46.79,3.72-.51,5.58-.71l5.39-.58c1.4-.15,4.19,2.48,4.15,4.41-.02.82-1.39,1.87-2.09,2.19l1.81,1.49c.69.57,2.29-.46,3.32-1.12ZM541.18,560.38c2.28,1.39,4.25,2.7,5.84,4.85l2.19-.18c3.1-3.39,6.45-6.54,10.32-9.09l11.98-7.9,5.65-3.18,4.73-1.9,5.36-2.14c1.76-.7,3.49-1.09,5.4-1.52l5.56-1.26,6.58-1.13,3.53-1.17,7.42-1.52c-2.63-2.32-5.1-.18-7.33.09l-5.48.66-5.88,1.46-13.46,1.25c-.79.07-2.25.72-2.86,1.05l-12.33,1.12-2.16,1.22-8.88,1.14-2.49,1.07c-1.56.67-6.29,1.19-9.37,4.53-.32.35-1.58.06-1.58-.4-.03-2.83-2.76-4.8-1.32-7.47,1.55-2.87,7.34-4.18,10.95-5.11l4.22-1.08,11.02-1.57c.84-.12,2.4-.89,3.54-1.5l-15.45.3-4.65,1.25c-4.17,1.12-8.43.46-12.43,1.73-3.19,1.01-6.79,1.25-10.1,1.18l-2.2-1.77-10.99.11-1.95,1.09-3.12-2.36-.97-3.36,1.9-3.97,9.48-1.41c.81-.12,2.43-.94,3.61-1.58l-12.27-.06-2.19-1.88-8.55.12-6.27.62-4.97,1.08c-7.4,1.61-14.5-.27-16.94,2.08l-21.39.69-9.91.25c-1.09.03-2.32.45-3.29,1.13l-19.97.84-15.39.34c-.92.5-2.33,1.03-3.3,1.12l-19.19.39-.34,1.34c-.2.76,3.79-.41,6.28,1.53,1.41,5.34,2.6,8.77-1.05,9.94l-5.66,1.8-7.13,2.14-4.61,1.45,1.36,2.01c.15.23-.62.82-1.15,1.37l7.95-.92,3.88-.97,8.6-1.18,3.89-.94,13.42-1.06c1-.38,2.68-.9,3.88-1.03l10.86-1.16,4.23-.98c3.04-.11,5.38-.87,8.07-1.59l6.5-1.75,5.94-1.49,4.62-1.23c7.63-1.17,15.7-1.26,23.05.19l10.22,2.02,6.94,1.54c1.59.35,3.16-.01,4.71-.4,2.66-.66,5.36,1.23,7.73,1.67,2.49.46,4.46.32,5.7,2.7l3.56,1.71,4.32,2.16,4.71,2.39,3.09,1.69,4.64,2.49,3.75,2.06,4.24,2.33,3.19,1.94ZM546.03,524.05l6.73.13,16.51-.71,5.05-1.3c.5-.04.78-1.99.28-2.3s-1.97.53-2.57.53l-13.34.03-2.17,1.2c-3.78.06-7.84-.18-11.32,1l-4.87,1.64,5.71-.22ZM800.99,528.04l41.73.05,2.17-1.25c.45-.26,1.49.57,2.13,1.1l1.91-2.1c.9-.99-.33-4.14-1.04-4.77l1.73-1.26-7.36.35-4.91,1.09-15.65.93.4.51,6.29.63-15.71,1.49c-1.21,1.52-2.93,2.06-4.9,1.7-2.22.45-4.89-.12-6.78,1.55ZM445.26,750.16l.89,1.54c.1.17-.07.35-.23.44l-1.44.85c2.03.88,4.61,1.41,7.17,1.43l13.37.1c1.22.81,2.44,1.06,3.94,1.14l20.41.99c1.65,2.05,4.63.45,6.06,2,1.32,1.43,1.93,8.11-1.21,8.49-4.06.49-8.35-.92-12.53,1.08l14.21,1.43,2.3,1c2.73.36,5.74.64,8.19,1.6,3.24,1.26,6.57,1.49,10.16,1.51l36.76.13c1.08,0,2.5.56,2.96,1.21.52.73.46,2.6-.19,3.07l-1.5,1.09c-.22.16.12.81.39,1.43-.05.76.15,1.14.79-.02l1.85.91,15.48-.09c1.04-.61,2.24-1.02,3.37-1.11l8.73-.73c.25-.02,1.09-.33,1.05-.57l-.2-1.27-9.35-.88-3.93-.8c-2.64-.05-4.42-.89-6.56-1.88l-3.69-1.69c2.8-2.07,4.78.08,6.98.21l14.08.81,3.97-.38,13.29-.08,11.65,1.09,1.43.58c-.83-.34,6.88-3.1,14.17-1.34l1.4,1.78,9.03-.28,1.74-.97,18.72-1.12c2.48-1.92,7.25-.77,12.45-2.22.86-.24,2.4-1.15,3.32-1.22l15.22-1.15,6.4-1.39,8.84-.26,4.27-1c3.8-.89,7.93-1.22,11.71-2.46l6.5-2.13,6.42-2.18,6.18-2.6c.99-.42,2.75-1.21,3.7-1.48l7.64-2.17,7.06-2.31c3.51-1.15,9.64-1.56,7.94-3.75l-4.19-5.83,4.83.85c-.06-3.8.12-7.36.97-10.8l1.74-7.06,2.16-7.13,2.24-6.34,2-4.99,2.36-5.85,2.1-4.79,2.32-5.25,1.87-4.06,2.01-4.01,2.34-4.67,2.05-3.72,2.54-4.62,1.92-3.48,5.34-8,2-3.49,3.07-4.37,4.02-5.22,3.42-4.84,8.97-12.56,5.25-6.64,2.95-3.54,4.18-4.91,7.34-7.9,6.57-6.89c-.76-.02-2.09.42-3.01.58l-8.77,1.58c-.91,1.41-1.87,1.94-3.51,2.21l-6.92,1.17-7.63,1.14,3.23,3.42,1.18,1.39c.29.34-1.4,1.22-1.8,1.01-.83-.42-1.92-1.33-2.56-1.93l-7.6-7.07-6.94-6.58-6.07-6.92-5.06-7.78-1.71-3.12-2.27-4.34-2.74-5.35-4.67-7.39c-.69-1.09-2.59-2.81-3.62-3.51l-2.98-2.03,1.07-1.17c4.83,2.27,8.74,6.54,11.9,10.89,1.95,2.68,1.9-3.73,3.07-5.06.58-.66,2.58-.75,3.7-.87l-1.69-2.47-.27-5.59.39-4.66,5.17-.59,1.29-4.08,6.58-.27,5.32-.93,18.41-1.52c1.21-.1,3.67-.99,4.7-1.61l3.03-1.8-3.87-.38c-.6.2.51-.17.91-.31l8.27.1.69.06-1.47.98c-.18.12.61,1.27.82,1.26l5.44-.31-1.08-1.99,1.36-.48c.21-.07.02-.94-.06-1.38l-16.68.37-28.49.17c-.32.19-.74,1.08-.41,1.14l1.41.23,15.11-.04,12.1.19-12.52.47h-6.12s-6.97.21-6.97.21l-32.82.02c-.71,4.45,3.91,3.09,4.39,5.71.11.61-.63,2.21-1.18,2.07l-6.11-3.37-6.84-1.2-6.05-2.21-5.4-2.07-5.46-2.2-4.84-2.14-4.35-2.08-4.77-2.31c-2.05-.99-3.74-1.05-6.09-1.05l-53.94.09-2.21,1.17-8.13,1.02-7,2.32-4.79,2.11-6.33,2.43-3.98,1.82-4.47,2.13-4.6,2.42c-.73.39-1.97.76-2.51.56.84-.94,1.75-2.07,2.33-2.47l7.69-5.33c1.14-.79,2.15-1.18,2.55-2.33l-10.04.94c-1.28.12-3.27,1.64-4.65,2.31l1.9,1.06-4.3,2.98c-1.25.87-2.55,1.32-4.2,1.69l-5.18,1.17-6.83,1.96-8.17,2.06-7,1.83-6.6,2.11-4.83,2-3.97,2-7.61,4.37-3.54,2.29-9.75,6.97-6.06,5.42c-1,.9-1.82,3.58-2.43,4.75l-2.63.29-6.53,6.88-4.78,5.02-2.3,1.98-3.95,4.19-2.87,3.22-4.39,5.2-3.65,6.15-2.32,4.26-1.76,3.03-2.06,3.96-2.31,4.65-1.99,4.01-2.12,4.87-2.45,6.12-2.04,5.11-1.94,4.49c-1.1,2.53-2.4,5.19-2.39,7.77.94.24,2.34.51,2.36.99l.06,2.18c.21.15,1.86-.05,1.97-.58l.42-2c.41-1.95,1-3.5,1.69-5.23l1.7-4.27,2.64-7.13,2.07-4.38,2.04-4.44,2.16-4.35,1.88-3.6,6.52-11.94,2.39-3.89,1.85-3.2,4.71-7.13,2.23-3.21c4.7-6.77,12.81-12.53,21.17-10.87,1.39.28,1.78,3.67,1.24,4.39-3.36-.26-5.34.73-7.91,1.87-5.34,2.36-9.21,6.29-12.42,11.11l-1.92,2.89-4.08,6.11-3.7,5.89-2.16,3.86-2.17,3.88-2.25,4.02-2.16,4.36-2.05,3.93-1.92,3.08-1.53,3.89-2.05,4.52-1.79,3.97c-2.28,2.01-3.51,4.25-4.25,7.26l-2.4,3.46c-2.47-.37-3.57.78-4.29,2.8l-2.29,6.4-1.7,6.34-1.17,4.56-1.97,10.13-1.52,9.61-1.33,2.26-.96,11.31-1,2.16c.17,5.7-2.44,6.16-2.9,8.38-.11.52,1.56.85,2.01,1.18.76.56,2.22,1.78,3.12,2.02l3.93,1.07,8.24.95c.51.06,1.61.7,1.97,1.01.29.25.01,1.44-.4,1.45l-10.07.28c1.98,2.42,3.14,3.6,5,5.3l6.26,1.1,5.11,1.94,2.8,1.78-3.8,2.28,29.69-.17c.27.4-.61,1.51-1.17,1.71l-5.62,2c-5.96,2.12-11.96.01-18.83,1.44l8.58,4.76,5.78,2.58,5.93,2.18,5.88,1.85,7.59,1.67,5.13,1.36,4.95,1.29,7.04,2.16,4.16,1.09c.32.08,1.19.93.87,1l-1.36.33c-3.27-1.46-6.68-1.99-10.3-1.95-1.02.01-2.86-.97-3.74-1.12-3.31-.59-6.66-1.02-9.72-1.73l-7.98-1.83-6.67-2.14-4.52-1.84-4.73-2.29-3.65-1.82-7.29-4.62c-1.59-1.01-2.67-1.62-4.71-2.23l-2.78-.83-10.7-1.44c-1.79-.24-4.11-2.46-5.96-.51.49,1.34.84,3.95.29,5.12-.28.6-2.18.9-2.9.85l-19.34-1.18c-.22-.14-1.58-.98-2.06-.98h-12.06ZM330.7,524.72c-2.04-1.76-4.33-1.39-5.57.07l5.57-.07ZM250.07,540.48c.78.57,2.43,1.06,3.81,1.03l25.41-.56,2.22-.95,24.33-.27c.33-.31.65-1.91.19-1.92l-1.88-.06-1.34-.04c-.21,0-.2-.28,0-.33l1.29-.35,1.7-.63c.94-.35-1.97-1.95-.71-5.18,2.61-6.71,9.48-3.48,17.33-5.64-1.47-.76-3.02-1.26-4.24-1.25l-17.02.21-10.62.26c-1.06.03-2.33.45-3.3,1.11l-23.39.78-9.25.61c-.94.06-2.78.88-3.89.94l-13.63.79c-.87.05-2.56.9-3.4,1.01l-9.55,1.17c-1.2.15-2.62.83-3.76,1.09-3.86.88-7.92.57-11.87.77l-9.2.47c-1.73.92-3.77,1.51-5.9,1.53-2.09-.02-3.3.59-5.14,1.45-2.12.99-5.23,1.1-7.66,1.36l-1.79,1.06-20.63,1.14c-4.61,2.18-9.76-.26-10.05,6.39l6.39-.33-.51,2.45,4.38-.36c.74-.06,2,.91,2.64,1.59,1.67.76,4-.75,5.9-1.1l7.45-1.39,6.66-2.02,6.91-2.5.85.84-1.81.93c-.19.1.03.76.24.78l1.36.14c2.14.21,5.04-.05,5.92-1.56-.17-.7.85-1.94,1.47-1.78l2.69.73c3.07.83,7.08.81,10.34.04l4.32-1.01,6.13-.85c.67-.09,2.06-.63,2.68-.97l19.39-1.49,5.13-1.27c3.42-.85,4.72,2.31,4.67,2.33l-.82.35-.42.45ZM607.33,526.91l-.29-.48-4.63.12.29.48,4.63-.12ZM579.7,530.48c-.9-.15-1.63-.27-1.57-.04s.22.87.21.81l1.36-.77ZM1093.52,534.23c.53-.1,1.43-1.66,1.29-2.17s-1.23-1.14-1.86-1.15l-17.04-.3-4.79-.12-5.67.02c1.14,1.59,2.71,1.96,4.77,2.82l5.52,2.29,10.27,5.17c1.15-1.16,1.92-3.18,2.36-5.6l5.14-.95ZM866.59,531.11c-1.26-.12-1.17-.11.23.02.57.06.36.03-.23-.02ZM624.28,532.64c.16-.09.85-.51.85-.5s-.19-.62-.25-.81c-.06-.21-.49,1.24-.6,1.31ZM619.76,533.38l-.29-.47-3.55.14.29.47,3.55-.14ZM328.37,546.88l12.08-1.87,9.59-2.38,8.6-1.64,2.28-.95c1.97-.36,3.72-.75,5.89-1.61-3.04-1.47-5.26-1.09-8.2-.82s-6.16-.06-8.84.51c-1.2.25-2.69.92-3.97.95l-19.46.59-6.97.52c-2.01.15-2.32,3.86-1.55,5.21,2,3.51,6.55,2.12,10.55,1.5ZM250.13,539.7l-1.08.07,1.08-.07ZM247.55,541.26l.04-1.17c0-.2-1.25-.5-1.44-.46l-5.08.91-8.33,1.49c5.1.07,9.65-.33,14.81-.78ZM823.46,588.54c0-1.46-.93-3.52-2.06-3.98l-8.31.9c-1.67-3.24-.05-5.89-1.92-8.43.98-.59,1.78-2.37,1.15-3.21l-11.99-.2-2.57-2.49c-.74-2.7-3.49-3.95-6.2-2.77l1.17,2.12,2.09,3.99,2.25,4.25,1.66,2.72c1.94,3.18,4.08,6.25,6.77,8.86l7.21,7,4.21,3.65.96,1.07c.22.24,1.42.12,1.35-.2l-.36-1.77c-.24-1.17-.37-3.55.33-4.5.58-.79,2.52-1.56,3.54-1.61l7.89-.4c-1.47-3.56-7.16-.68-7.17-5.01ZM427.47,716.91l-3-1.43-4.36-1.76-4.07-1.48-6.48-2.31-6.06-1.95-5.72-1.68-4.16-1.18-8.93-2-8.03-1.91-6.69-1.91-6.39-2.08c-.9-.29-2.82-1.58-3.49-.97-.42.94.21,2.9.91,3.58,2.9.23,6.31.08,8.97.89l6.69,2.01,6.89,2.17,4.6,1.3,6.16,1.76,6.47,2.14,6.4,2.36,4.81,2.08,6.16,2.15c2.54.88,6.26.31,8.78.67l.53-.44ZM420.25,723.87l-5.1-3.15-3.83-2.15-3.97-2.01-4.82-2.18-5.14-1.89-7.42-2.37-7.09-2.08c-1.52-.45-3.45-1.55-5.18-1.58l-15.34-.27c-.78-.01-1.81-.11-2.25.18s-.03,1.74.51,1.95l4.85,1.93c1.73.69,3.26,1.58,4.66,2.63l12.49.4c2.43,1.34,5.12,1.58,7.88,1.31-.79-4.03,1.3-.81,5.1.86l5.05,2.22,6.27,2.25,6.41,2.25c2.31.81,4.37,2.97,6.93,1.7ZM365.21,713.22l-3.74-1.97c-.5-.26-2.45-.23-2.65.3l-.72,1.95,7.11-.28ZM397.22,723.26l8.6.39c-.83-1.76-2.41-1.88-4.16-2.44l-7.81-2.51-4.42-1.43c-9.84-.55-19.22-.45-29.12-.12.13.33.56,1.5.88,1.55l6.78.98c1.15.17,2.37.69,3.32,1.2l21.33,1.41c1.07.27,3.18.9,4.59.97ZM427.71,717.03l-.42.55h1.75s-1.33-.55-1.33-.55ZM360.17,721.6c-1.96-.91-3.38-.87-5.09-.04,1.7.71,3.43.7,5.09.04ZM446.62,728.34c-2.23-2.08-4.5-2.16-6.95-2.97l-6.95-2.29-7.54-2.27c-.01,2.49,1.48,2.06,2.85,2.84l7.21,4.05,11.38.64ZM414.09,731.49l9.18.93c-2.77-2.43-5.98-2.34-9.39-3.02l-4.82-.97-7.15-1.1-4.05-1.16-10.36-1.12-3.91-.93c-7.94-.35-15.74-.84-23.32.55l-5.82,1.06c-1.03.7-2.16,2.17-3.03,4.32l16.62-.32,2.16-1.12,16.69-.22,4.75.98,17.39,1.04,5.06,1.08ZM478.06,731.89l-3.46-.98c.08-.39-.17.84-.24,1.16-.04.21.79.44,1.06.46l4.51.34c-.69-.59-1.19-.79-1.86-.98ZM459.75,734.75c-.3-1.66-1.7-2.31-3.21-2.38-5.72-.25-10.81-.73-16.66-.28,2.29.69,4.19,1.39,6.05,1.54l13.83,1.12ZM485.18,733.77c-.15-1.72-3.96-2.08-4.28-.97-.36,1.92,4.01,2.42,4.28.97ZM495,743.72c-2.73-2.6-5.66-3.21-9.35-3.14-3.32.06-7.13-2.81-11.74-.57l8.59,1.74,4.13,1.09,8.37.87ZM298.72,751.66c-2.48-.78-3.96-.53-5.45.68l5.45-.68ZM400.65,753.59l22.39.36c-1.99-.44-3.47-.9-4.48-2.15l-14.07-.31c-10.48-.23-21.58-.22-31.86.46l-3.95,2.05,15.69-.33,12.14-.07h4.13ZM367.4,753.87l-.29-.48-4.63.12.29.48,4.63-.12ZM436.57,753.91l-.3-.51-10.58.07.3.51,10.58-.07ZM354.22,754.22h-.35s.35.02.35.02h.72s-.35-.02-.35-.02h-.36ZM1183.85,767.55c.83.08,2.68,1.11,3.19,1.44.21.98.4,1.88.87,1.85l2.08-.15-1-3.63-3.92-1.78-4.48-2.02-5.43-2.12-6.49-1.06c-.92-.15-2.42-.71-3.31-1.07-10.92-1.69-21.73-1.02-32.78-.16l-1.61.13c-.21.02.54,1.12.79,1.12,4.98-.01,13.02.19,18.8,1.26l-4.23,1.2,6.28.65,3.89.77,14.83,1.74,3.65,1.02,8.88.83ZM298.62,770.9c.75-.03,2.37-.77,2.98-1.11l18.79-1.3c1.61-.9,3.39-1.18,5.37-1.14l15.7-1.15c1.38-.39,3.16-.85,4.8-.93l21.15-.97,4.75-.92,19.52-.71c7.55-.27,14.92.24,22.36-.39,4.51-.38,8.59.23,13.29-.9l-14.4-.67h-39.06s-34.42.36-34.42.36c-.94.5-2.29.95-3.38.98l-33,.68-11.74.59c-.75.29-2.45.89-3.3.91l-7.43.16-10.64,10.55c-1.27,1.26-4.17,1.57-3.47,4.54l3.08-1.03,5.48-.84c-.15-2.51.24-4.73,1.43-5.89l7.64-.35,14.51-.49ZM1124.98,760.81l-2.19-.12,2.19.12ZM1203.36,761.63c-.56-1.02-2.52-.87-2.8.01.31.51,2.69.49,2.8-.01ZM1143.81,762.4c-1.26-.12-1.17-.11.23.02.57.06.36.03-.23-.02ZM719.45,770.6l19.72.37-.19-7.95-2.98,1.15-6.46,2.21-6.5,2.23c-1.34.46-2.82.31-3.59,1.99ZM405.77,770.67l-.25-1.07-5.73.1v.97s5.99,0,5.99,0ZM1204.96,773.5l-7.56-.8c-2.31-.24-4.8-2.42-7.32-1.2-1.34.64-2.34,2.6-1.73,4.17l13.31-.7c.78-.04,2.44-1.01,3.3-1.47ZM618.68,774.14c-.33.06.43,1.11.74.98l.86-.36c.2-.08-.1-.91-.32-.87l-1.27.25ZM671.65,776.13l-.29-1.24-7.39,1.05,7.68.19ZM1255.19,775.26l-8.02.18c2.97,1.25,5.74.97,8.02-.18ZM312.52,784.77l28.88-.55,3.93.13,21.28-.35,18.99-.39c.85-.57,2.32-1.17,3.27-1.18l11.4-.11,5.48-.4c.52-.04,1.77-.97,1.54-1.32-.79-.9-1.42-1.96-1.66-3.34l-62.81.71-8.54.28c-.66.02-2.02.61-2.71,1.02-5.89.52-11.69.43-17.72,1.3-1.47.21-3.33,1.55-5.14,1.22s-2.81.46-3.49,2.02l-22.65.96-4.95,1.57,10.75-.16,19.9-.6,4.25-.82ZM767.5,783.78l12.05-.38c1.43-.05,3.29-1.14,4.81-.47.87.38,2.39,1.09,3.07.79.59-.26,1.4-1.02,2.21-1.78l-17.03-.13c-1.35-.01-2.41-.27-3.16-1.64-7.83-.68-15.78-1.12-23.53-.19l6.01,1.12-14.92,2.05-20,1.81.02.8,9.73-.11,6.5-.91,34.25-.96ZM1256.79,782.4l1.53-3.1-5.49.83c-.58.09-1.6,1.48-2.06,2l6.02.27ZM990.76,788.04c.95-.02,2.44-.64,3.05-.98l26.6-.74-2.93-1.77-12.94.2-2.26,1.1-36.67.61c-.45,0-1.41.11-1.43.42l-.07,1.74,26.65-.58ZM711.08,786.28l-.29-.47-3.55.14.29.47,3.55-.14ZM577.07,786.8l-.3-.45-2.46.16.3.45,2.46-.16ZM571.91,794.26l3.4-.82,7.93-.53c-1.12-2.47-1.32-2.93-1.57-4.96l-16.71.97c-.62.04-2.01,1.01-1.99,1.63s.53,1.53,1.11,2.48l-3.08,2.28,10.9-1.07ZM643.18,792.29l3.26-1.55-31.86.21-14.78.81c10.31,1.56,20.01.96,30.15.77l13.22-.24ZM1177.67,839.99l34.69-.12c1.14-.94,2.52-1.22,3.9-1.01l14.58.05c.27.25,1.09,1.07,1.33.84l1-.94c1.1-1.04,1.85-2.54,2.57-3.94l1.99-3.84,2.41-4.7,2.23-5.89,2.28-4.68,1.99-4,2.36-4.74,1.82-2.87c1.89-2.98,3.51-5.59,4.65-8.92l1.03-3.03c-1.75.38-2.99.69-3.81,1.18l-3.03,5.35-5.05.78-1.5,5.87-4.69,1.08c-1.38.53-3.5,1.76-5.13,1.76l-17.31.02-25.15-.03-2.36,4.29-2.19,5.82-2.1,6.52c-.73,2.28-1.6,4.03-2.69,5.99l-2,3.57-1.97,2.84-1.06,1.3c-.23.28.73,1.19,1.21,1.46ZM1157.93,800.9l16.83.95,3.48,1c1.97.56,6.19.38,8.18.37.37,0,1.05-1.27.74-1.39l-1.41-.55-3.12-1.24-20.38-1.25c-1.42-.09-2.72-.35-3.94-.94l-26.82-1.16c-5.1-.22-9.67.27-14.63,1.72-4.3,1.26-13.06.07-12.35,1.81l.39.96,25.83-.25c2.6-2.92,6.25,2.49,11.15-1.01l13.92-.05,2.12,1.03ZM419.7,801.32c1.52.05,1.83-.1,1.75-.41l-.29-1.07c-.06-.21-.75.43-.78.53-.61.79-1.12,1.43-.67.94ZM1072.93,805.5l4.12-.98,15.88-1.78,4.43-.82,5.54-.89-34.84.73-12.77.59-5.96.83c-.72.1-2.22-.06-2.46.45s-.1,1.73.06,2.55l12.64-.22,13.36-.47ZM293.58,803.3l-3.02-.11c.34.47,1.09,1.32,1.43,1.11l1.59-.99ZM1061.49,835.84c-.82,1.39-1.83,2.27-2.51,4.27l15.49.55,36.35.14c.64,0,2.02-.28,2.16-.79l.51-1.88,1.69-5.71,1.98-6.66,2.02-6.88,1.77-7.45c.23-.96,1.3-2.75,1.84-3.49l1.84-2.56-27.09,1.16c-.98.41-2.67.99-3.85,1.1l-13.37,1.19-3.83.94c-4.61-.13-2.83,3.06-5.78,8.02l-2.08,3.51-1.09,3.24-2.04,3.99-1.98,3.89-2,3.41ZM1172.7,838.77c1.23-2.54,1.96-5.59,2.79-8.53l1.73-6.15,1.01-4.28,1.65-7.47c1.19-.24,2.91-.53,3.05-1.3l.54-3-8.26-.49c-.66-.04-2.21-.82-2.82-1.07l-26.82-1.09-12.55.1-1.49,3.62c-.72,1.76-1.79,2.72-3.36,3.66-3.08,1.83-3.4,5.68-4.42,8.63l-2.26,6.57c-.75,2.19-1.99,4.3-1.99,6.88-1.26,1.63-1.9,3.11-1.95,5.53l8-.43,30.78-.08,1.84-1.01,14.55-.1ZM1004.4,807.6c.37,0,1.29-.23,1.34-.45l.31-1.36-13.5-.13c-1.6-.02-3.39.16-4.02,1.81l15.87.14ZM698.26,812.15c2.69-2.24,5.55-1.82,7.89-.36l33.02.03c2.29,0,3.75-1.33,4.28-3.51,1.05.04,1.96.92,2.73,2.13,3.96.33,9.12-.92,13.24-1.58l9.98-1.58.03-.93-22.27-.04-2.21,1.13-41.85.74-8.25.43-2.18.97-23.25.55c-1.37.03-2.65.08-3.6,1.67l24.71.03c2.34-1.72,4.99-1.47,7.73.32ZM907.78,810.24c.99-.34,1.12-3.79.1-3.79h-21.61c1.55,1.33,2.95,1.2,4.6,1.76l3.86,1.32c4.09,1.4,8.61.93,13.05.72ZM223.47,814.53l3.77-6.55c-2.14-.09-4.86.43-7.3,1.84l-.08,4.1,3.62.61ZM337.27,811.62c1.95-.91,3.75-1.23,5.74-1.44l1.71-.18c.25-.03-.07-1.25-.17-1.45l-21.27-.43c-1.72-.03-4.78.71-5.32,2.08l-1.44,3.67c2.25,1.06,4.1-.63,5.95-.81l14.79-1.43ZM880.23,809.58l-.25-1.07-6.81.09v.98s7.07,0,7.07,0ZM847.78,811.56c-.82-2.29-3.18-1.47-4.31-1.19l4.31,1.19ZM1009.19,819.78c.73-2.42,1.55-4.47,3.2-6.93l5.52-.12c.63,2.91.27,4.89-1.31,6.78-.21,2.61-.87,4.98-1.82,7.31l-1.9,6.67c-.56,1.95-1.04,3.29-2.62,5.03l9.36.28,2.19,1.14,33.28.12,1.67-4.58,2.12-5.34,2.42-5.64,1.85-4.3,1.58-4.4c.68-1.89,1.66-3.43,1.73-5.2l-27.07-.18-23.55.22c-1.74.02-3.39.37-4.87.97l-1.44.59c-.31.12.03,1.58-.14,1.86l-2.55,4.33-11.64-.07c-.67,0-2.06-.65-2.73-1.08l-25.17-.09-1.4,5.38-1.33,5.52-1.55,5.44-1.26,6.96,22.81-.43c1.06-.02,2.91-.66,3.82-1l19.54-.76c-.96-.55-2.67-1.69-2.82-2.68-.52-3.31,1.22-6.3,2.06-9.07l2.04-6.71ZM265.89,815.23l22.34-.54,10.84-.33.64-2.27-4.28-.07-27.33.94c-1.22.59-2.56.88-3.89,1.08l-9.23,1.44c3.76,1.22,7.34,1.22,10.9-.24ZM802.19,843.13l24.93-.28,15.86-.93,1.25-4.97,1.64-9.32.96-3.3c.36-3.42.59-6.36,1.68-9.77l-9.39-.85-4.82-1.02-15.74.03-9.47.38-3.43.98-7.34-.21c-.52-.01-1.77-1.35-2.05-.97l-1.35,1.81c.57,3.87.15,8.12.14,12.2v4.98c-.01,2.11-.14,5.68-.55,7.61-.14.66-1.37,2.28-1.27,2.68l3.59.63c.44.73,1.86,1.86,2.55,1.56l2.81-1.22ZM888.52,841.25l13.22-.53c1.45-1.55,1.89-4.19,2.04-6.42.18-2.77.79-5.24,1.39-7.81l1.76-7.43,1.5-4.04-35.71-1.27c-1.02-.43-2.63-.97-3.85-1.02l-12.7-.54-1.7,4.75-1.07,5.83c-.14.77-.96,2.22-1.44,2.92-.29,2.76-.88,6.05-1.46,8.79l-1.57,7.46,9.12.47,24.82-.21,5.64-.94ZM528.19,816.16l3.33-1.39-.8-2.03-9.9.13-2.11,1.04-24.67.49,3.59,1.85,30.57-.09ZM766.71,842.48l17.7-.28c.25-3.27.88-5.36,1.35-8.28l1.62-9.96.89-2.15c.3-2.5,1.09-6.18,2.34-9.03l-15.27.35-4.79.89-20.19,1.1c-1.81.1-2.79,4.19-1.67,5.38,1.62,1.72.47,3.46-.11,4.96l-.66,9-.13,5.49c5.06.02,9.74-.18,14.43,1.24,1.24.37,2.91,1.31,4.51,1.29ZM955.61,840.06c-2.27-3.53-1.39-4.24-.5-6.38l1.7-6.34,2.08-7.28.88-3.27-19.66-.56-4.72-.96-20.63-.32-.77,9.28-1.18,5.03c-.95,4.05-1.66,9.66-4.18,11.26l20.2-.72c2.31-1.19,5.41-1.61,7.78.07l18.99.2ZM727.83,841.33c4.55,1.53,10.52.9,10.75-1.39l1.36-13.88.93-3.45.75-6.4-37.06-.14c-1.05,0-2.78.23-3.19.9s-.65,2.24-.91,3.37c-.22.82-2.42.91-3.5,1.33-1.38.53-1.23,3.75-1.78,4.95l-.94,2.07c-.17.37,1.13,1.29,1.13,1.84l.13,12.1,26.11.64c1.08.03,3.24,1.9,4.25.59l1.96-2.53ZM575.62,818.69c.21-.28.47-1.37.17-1.52-.2-.1-1.05-.43-1.33-.42l-8.71.16-22.29.43c-1.34.03-3.93,1.06-5.41,1.46l37.56-.11ZM232.76,820.54c.36,0,1.32-.79,1.53-1.1.65-.94-2.12-2.84-5.64-2.41l-1.3,3.52h5.41ZM671.89,846.75l1.16-4.01,12.32-.23.17-3.79.87-3.33,1.51-9.95c.1-.63,1.26-1.85.98-2.38-.24-.44-1.32-1.45-1.81-1.45l-5.52.04c-1.72,1-2.75,1.12-4.43.3-2.16-1.06-4.87.15-7.16.24l-15.46.59c-2.48.09-4.77-.26-7.44.38-.86.21.12,2.66.62,3.43,1.07,5.94-.81,9.29-.91,11.55l-.43,9.37,13.02-.36,12.51-.39ZM601.07,846.29l38.55.93.51-13.84c.07-1.83.17-3.48,1.03-5l.61-5.62-27.85.59-10.63.34c-1.4.38-2.19,3.58-2.28,5.08l-.74,13.35c-.07,1.22.25,3.09.79,4.17ZM435.43,853.89c.43.01,2.07,1.13,2.18,1.2l35.24.19.57-2.76c1.34-2.08,1.57-4.38-.12-6.32,1.49-2.51,1.87-6,0-8.71l.06-6.11c1.05-2.81,1.57-4.64,2.21-8.21l-13.23.39c-.79.02-2.45.69-3.25,1.09l-20.43.96-5.4.98-8.02.48c1.04.9,1.78,1.95,1.79,2.92l.1,12.28.3,11.42,8,.19ZM495.82,853.14l4.43-1.16,11.35-.7-.1-18.89-.39-9.36-6.52.43h-18.11s-7.26.07-7.26.07l.18,16.62c.02,1.69,1.19,3.61,1.3,5.11l.75,10.3,12.85-.42,1.53-2.01ZM539.79,850.73c2.08-.05,5.43-.14,6.33-1.94l-.02-8.89.75-14.48,1.04-2.26-31.91-.08.24,8.72-.76,9.74c-.19,2.41-1.71,4.61-1.1,9.79l25.43-.59ZM594.09,845.16l.6-12.39c.06-1.21.78-2.65.97-3.92l.81-5.34-21.59-.44-24.1.05c3.02,4.56,2.37,9.13,2.16,14.11l-.52,12.43,10.69-.43.66-4.38,30.33.3ZM343.87,825.44l24.18.24c.38,0,1.47-.32,1.44-.67l-.14-1.36h-32.26c-1.12.38-3.01,1.13-4.25,1.13h-8.31c-.18,0-1.1.81-.92.85l1.1.24,19.18-.42ZM280.97,827.76c8.01.53,15.41-.01,23.17-.64,2.08-.17,3.6-.31,5.01-1.78l-23.36.6-2.21.9-9.76.12c2.04,1.87,4.61.62,7.16.79ZM385.51,852.11c1.36.07,2.59.68,4.01.71l30.79.59.39-6.48.66-16.9c.05-1.26,2.43-2.55,3.47-2.98l-31.5.98-2.17,1-12.95.49-.36,8.89-.22,13.31,7.88.39ZM276.07,855.64l-.5-19.7c1.65-.42,2.07-1.01,2.57-2l1.1-2.18-5.93-1.09-10.16-1.78c-2.02-.35-3.81-1.38-6.01-1.05l-5.98.91-7.24,2.14-5.2,1.37c-.55.14-1.85.39-1.7.81s.65,1.09,1.06,1.55l6.9,7.62,4.08,5.22,4.22,5.01c.63,1.61,1.85,3.32,3.83,3.3l18.97-.13ZM240.35,829.22l-6.39.15c2.41,1.59,4.48.74,6.39-.15ZM314.37,852.86h13.12s.43-7.04.43-7.04c.24-3.94-.01-7.87.6-11.75,1.11-.78,3.34-.45,4.17.53v18.31s12.9-.09,12.9-.09l1.76-1.04,25.45-.05.5-7.52.6-14.48-31.47-.2-32.36.24-9.65.58-4.43,1.34-12.23.13.02,5.38.02,13.46.45,4.97,22.88-.82c-1.86-.93-3.14-.86-5.39-1.24,1.28-1.49,3.47-2.01,5.64-1.91,2.58-.1,4.98-.11,6.99,1.21ZM817.93,851.84l6.11-.31-7.61-.27-11.86.92c3.53,1.11,6.76.78,10.12.43l3.24-.76ZM319.27,863.76l-2.91.09,2.63.43.27-.53ZM924.47,997.98l2.83-1.83,4.16-2.36c2-1.14,4.11-1.42,6.58-.99v4.02s3.95,1.24,3.95,1.24c3.48,1.1,7.31,1.25,11,1.46l2.23,1c5.62-.21,10.24,1.66,14.68,4.77.52.36,1.25,1.33,1.47,1.99.18.54-.8,1.89-1.23,1.63-1.49-1.1-2.69-1.63-4.74-2.26-.44.56-.71.9-.62.79l3.42,2.72,6.74,6.74,7.31,10.67,2.32,4.13,3.84,6.43,5.57,7.84,4.56,6.22,1.94,3.47,5.19,10.47,1.53,3.39,1.96,4.34,2.51,5.64,2,4.04,2.14,4.31,1.91,4.05,2.43,5.26,2.18,3.58,2.31,5.35,2.24,5.27,2.04,4.95,2.04,5.51,2.18,6.93,1.98,6.79,1.06,4.96,1.14,4.23,1.5,8.47.99,3.31.45,8.21.65,12.34.97,4.26.27,10.35.35,25.86-.78,34.5c-.77,1.35-1.12,2.85-1.2,4.51l-1.07,21.46c-.33.63-.99,2.11-.99,2.77v8.22c0,.71.68,2.2.97,2.82.37,4.11.87,8.41,1.61,12.4l1.4,7.56c.2.36,1.89.99,2.55.99l19.39-.05.1-15.69,1.07-2.08.4-10.29.54-9.76.91-4.48,1.32-11.23c.12-.98.61-2.4,1.05-3.31l.82-24.19.63-8.99.83-3.33.62-11.49.19-18.56-.56-12.99.04-18.36.05-18.17v-10.85c0-5.89-1.16-8.74-1.54-12.37l-1.32-12.76c-.16-1.51-.68-2.86-.78-4.51l-1-16.76c-1.26-2.21-1.73-4.56-2.26-7.01l-2.15-5-1.7-3.58-6.89-11.61-2.27-4.21-1.98-4.01-2.23-5.32-1.69-4.09-6.85-13.8-3.23-4.74c-1.76-2.58-3.82-4.39-6.2-6.32l-4.75-3.85-2.65-2.21-6.2-5.64-3.32-3.29c-1.92-1.9-9.13-6.88-10.61-7.42l-5.2-1.92-5.83-2.28-3.98-2.09-2.94-1.91-8.22-1.61c-1.61-.31-2.91-.72-4.57-.82l-18.86-1.13-5.84-1.77c-1.66-.5-3.56.16-4.88.49-3.6-.19-6.91-.29-10.29.98-2.13.8-4.62.86-7.16,1.09-1.25.11-2.68.89-4.01,1.19l-6.7,1.51-5.52,2.12-4.31,2.04-3.84,2.17-4.19,2.23-7.12,4.67-5.29,3.47-5.74,4.01-9.54,7.32c-3.71,2.85-7.2,6.49-10.15,10.11l-7.1,8.7-6.32,8.2-2.97,4.25-2.18,3.22-4.43,6.88-2.05,3.3-2.28,3.71-1.95,3.47-2.21,4.32-2.18,4.32-2.33,4.66-1.98,3.97-2.34,4.69-1.87,4.12-2.24,5.89-2.19,6.96-2.15,7.08-2.22,6.86-1.46,5.04-1.62,5.72-1.95,6.16-1.86,7.46-1.75,6.51-2.2,7.56-1.67,7.87-1.1,4.78-1.92,10.05c-.69,3.62-1.21,7.48-1.5,11.41-.05.66-.77,2.14-1.07,2.77l-1.14,12.32c-.11,1.24-.6,2.82-.91,3.9-1.25,10.43-.68,20.63-.32,31.19l.81,4.47,1.65,19.73c.37.98.94,2.71,1,3.81l.33,6.01.03,16.56-1.63,1.31.02,17.33,1.23,2.09-.24,7.75c-.05,1.57-3.26,3.57-4.76,4.21-1.29.07-.99.34-.09.49l6.35-.66c.57-.06,1.7-1.29,2.1-1l1.81,1.32c1.48,1.08,4.47-.61,6.3-.87l8.2-1.15c.68-.72,2.04-1.88,2.86-1.91l6.05-.26-.15-44.1-.58-13.37c-.35-.8-.94-2.42-1.01-3.28l-.92-12.04c-.1-1.3-.49-2.73-1.04-3.86l-1.41-23.5c-.37-1.21-.88-3.05-1.04-4.43l-1.04-14.51-.78-1.44c-.17-.32.78-1.22.82-1.72.29-3.92.85-9.48,1.67-13.67l1.93-9.75,1.32-5.43c.53-2.17.99-3.93,1.49-6.03l1.39-5.8,1.38-4.5,1.54-4.78,2.29-6.88,2.16-6.48,2.27-6.44,1.67-4.11,2.5-7.27,2.29-5.9,2.02-4.45,2.15-4.36,2.15-4.27,2.22-4.35,2.18-4.28,2.36-4.59,5.78-10.61,2.57-4.51,1.75-3.05,6.01-8.15,4.15-5.03,6.02-6.43,4.15-4.41,2.23-2.09,9.25-9.25c1.52-1.52,2.53-3.03,2.86-5.18l-4.08,3.76c-1.17,1.08-4.84-.91-4.78-2.59,2.83-4.09,6.74-7.04,11-9.25l4.17-2.16c2.41-1.25,4.4-2.33,6.24-4.25l9.77-10.22c2.03-2.12,5.69-.46,5.67-.39l-.34,1.84c.35.17,2.01-.24,2.57-.62l-.64-1.01c.73.93.93.69.54-.37l.6.7ZM931.15,1316.34l25.02.5,29.9.71.19-4.61,10.69-.66,37.94.14c1.59-1.42-.15-3.84-.36-5.22l-1.68-11.06-.91-3.93-.14-16.38.59-9.36.83-3.95.94-11.99.93-4.33.7-6.45-.17-44.03-.51-10.59-.94-4.18-.35-11.42-.5-11.41c-.06-1.29-.79-2.73-.95-3.99l-.79-6.28-1.27-5.05-1.99-8.46-1.8-6.94-2.08-6.12-2.33-6.89-1.82-4.6-2.63-6.04-1.9-3.98-2.33-4.67-1.99-3.99-2.32-4.65-1.98-4.02-2.21-4.78-2.06-4.4-2.03-4.56-2.43-5.71-2.27-4.68-1.88-3.86-10.24-15.82-1.61-3.13-2.16-3.2-2.33-4.21-3.97-6.39c-1.34-2.16-2.81-4.22-4.89-5.95l-3.26-2.7-6.15-4.64c-1.66-1.25-4.06-2.41-6.05-3.03l-5.27-1.63-14.34-.5c-1.37.82-3.13,1.7-4.56,2.11-3.23-.78-5.68,1.25-7.14,3.62-2.32.9-4.17,2.42-5.95,4.32l-4.97,4.22c-3.95,3.36-8.48,1.8-9.68,3.55l-5.07,7.4-7.33,8.02-6.17,6.72-2.98,3.51c-3.06,3.61-6.19,6.84-8.78,10.74l-7.96,12.01-2.33,4.13-2.26,4.12-1.94,3.54-12.11,24.14-2.58,6.73-2.04,4.92-2.32,6.43-1.96,5.59-2.19,6.48-2.15,6.5-1.65,5.27-1.27,4.03-1.68,7.08-1.23,4.7-1.64,5.89-1.51,7.79-1.09,4.13-1.27,6.49c-1.53,7.84-1.96,19.05.42,26.5l1.16,22.09c.05.91.6,2.54.86,3.31l1.2,12.9c.11,1.17.47,2.26,1.19,3.35l1.11,55.46c.7,1.54.95,2.5,1.29,4.4l9.67-.54c.73-.04,1.48,1.67,1.55,2.49.09,1.03-.42,1.79-1.63,2.83.37,1.19,2.48,1.91,4.24,1.79l20.97-1.39c1.08-.32,3.13-1.05,4.4-1.09l13.03-.33,15.51-.69c1.03-.43,2.71-1.09,3.9-1.15l19.04-.91c2.24-.81,4.33-1.13,6.99-1.32,1.83-.29,4.23,1.13,6.04,1.17ZM271.13,1196.22l-1.56-.1c-.34.84-.82,1.71-.5,1.77l1.36.26c.21.04.35-.56.69-1.94ZM270.94,1245.76l2.18,2.9v5.23s-2.97,2.13-2.97,2.13c-1.8.26-4.07,1.24-4.65,2.44.59,1.74.8,2.75,1.17,5.09l8.32-.89.15-8.99c.02-.99-.6-2.85-.94-3.82l-.55-18.6-1.27-15.87-.78-5.87-.62-10.45-4.27,1.71-.48,4.85-3.92,1.56-.37,5.5c-3.95,2.9-.56,6.47-2.79,9.47.92,1.54,1.58,3.88,1.93,6.19,1.02.03,3.38.02,4.32.4,2.34.95,2.07,7.54.99,8.2l-3.98,2.41,2.02,2.22,1.01,4.75,5.5-.56ZM140.9,1215.25c.24-2.44.23-4.13-.08-6.53-1.95,1.76-2.81,4.54.08,6.53ZM141.94,1222.67l-1.14.31c-.14,1.74,1.85,1.54,1.14-.31ZM144.26,1285.66l-3.13,5.15-1.99,3.47-1.52,2.1-1.73,4.09c-1.02,2.41-2.18,3.44-5.21,4.66,1.93,1.4,3.43.47,5.08-.26l5.64-2.5,4.86-1.34-.02-15.86-.95-25.83c-.57-.99-.96-2.17-1.02-3.33l-1.2-23.16c-.6-1.13-.88-2.54-1.04-3.84l-.55-4.58-1.65,2.69-2.02,3.7c.23.11,1.77,1.47,1.38,2l-1.52,2.09c-2.34,3.21.9,5.56-.31,8.12-1.05,2.22-.96,3.95.49,5.98l-1.49,4.43c-.2.61-1.87,1.73-1.48,2.22l1.41,1.78,2.14,2.68,4.56,4.93-2,4.01c-.34.67-1.72,2.15-1.35,2.79l1.61,2.75c-1.6.88-3.29,4.58-1.84,6.06l4.88,5.01ZM219.1,1284.87l-3.56,1.39-2.77-2.89c-.45-1.71-.45-5.09-.25-6.97l3.65-1.75c.36-.17.91-.78,1.13-1.04.15-.17-.99-.39-1.52-.47l-1.12-7.01c-4.56-.85-.13-6.18-3.99-9.12-1.24-.95-1.98-2.55-2.07-4.07-.09-1.34,1.05-2.91,1.97-3.94.11-3.42-2.68-6.07-5.68-7.46l-.32-2.3h-.88s.63,19.3.63,19.3l-.22,9.89-.56,9.79c1.36.4,2.17.74,3.22,1.66l1.36,1.18c.31.27-.97,1.42-1.04,1.88-.53,3.44-.65,8.63-.6,12.25l.06,5.17,10.09-1.32,4.69-1.18c.38-.13.79-1.37.45-1.69l-1.5-1.4c-.81-.76-.21-3.12.29-3.86-.84-1.7-1.11-3.41-1.44-6.02ZM274.31,1280.32c.75.01,2.12.16,2.38.61l1.38,2.36.17-10.12-4.66.84c-.81.15-2.2.96-2.52,1.62-.8,1.64.28,4.63.56,4.64l2.69.05ZM1237.53,1294.83l-.41-5.41c-.05-.64-.31-2.07-.84-2.18l-1.44-.3-.02,5.82v4.3s2.71-2.24,2.71-2.24ZM1235.25,1305.92c-.32.07.42,1.03.73.92l.87-.32c.2-.08-.1-.91-.31-.86l-1.29.27ZM275.5,1307.05c-.32-.17-2.18-.12-2.2.06.17,1.07,2.2,1.07,2.2-.06ZM1236.4,1313.75l1.19-1.91c.36-.58-1.25-1.85-1.51-1.34l-1.45,2.8c-.15.29.45,1.24.73,1.07l1.05-.62ZM273.14,1318.26c.9-1.15,1.14-4.23.55-5.29-.84-.85-3.46-1.01-4.17-.52-.11.83-.1,2.01-.47,2.17l-1.78.79c-.9.4-1.29,3.2-.36,3.53,1.87.53,4.79.53,6.24-.68ZM200.16,1325.75l.36-1.53c.06-.25-.6.17-.79.36l-2.3,2.28c.13.35,1.87,1.09,2.11.63.18-.35.49-1.21.61-1.73ZM759.91,1327.52c1.01-.08,2.73-1.23,3.81-1.87l-5.84.05-1.48,1.52c-2.17.14-4.08.37-5.98,1.04l9.49-.74ZM382.3,1330.39c-1.73-1.88-3.07-.73-4.14.12l4.14-.12ZM386.32,1329.9l-.29-.47-3.55.14.29.47,3.55-.14ZM377.13,1330.43l-.3-.46-3,.15.3.46,3-.15ZM279.93,1335.47c-.99-1.04-1.38-1.24-1.48-1.66l-.62-2.57-2.03,4.73c1.83.22,3.53.05,4.13-.5ZM267.31,1336.38c.97.04,2.27-.53,2.4-1.28.13-.8-.25-2.66-.89-2.53-.7.14-2.07.62-2.64,1l-1.54,1.04c-.34.23.14,1.65.55,1.66l2.12.1Z"/>
        <path class="cls-2" d="M1217.99,753.36l-6.12.02-5-1.62-.28-.5,9.8.8c.55.04,1.51.87,1.6,1.3Z"/>
        <path class="cls-2" d="M1267.11,1335.96v17.28s-580.37,0-580.37,0l.11-1.03,17.19-.2,58.18-.98c1.31-.86,2.36-.96,4.01-.98l69.08-1.05c1.18-.02,2.51-.52,3.43-.97l16.84-.47,30.07-.72,2.26-.91,35.21-.89,21.75-.5c1.23-.66,2.45-.87,3.98-.91l51.28-1.1c1.44-.03,2.8-.4,3.98-.94l24.69-.78,23.83-.36c1.34-.02,3.07-.66,4.25-1.17l30.6-.32,29.86-.42,39.54-.31c1.44-.01,2.78-.37,3.93-1.02l24.93-.46,32.02-.36,40.06-.46c1.14-.01,1.67-.64,3.05-.19,1.77.57,4.43.36,6.25.25Z"/>
        <path class="cls-2" d="M440.27,1066.61l.09,23.52c0,1.84.26,4.63.75,6.35l1.39,4.94c.24.85.46,2.37.91,2.89.75.85,1.8,2.29,1.72,3.56-.1,1.57.77,3.18.91,4.3.56,4.57.57,8.66,1.94,12.97l1.68,11.2,1.01,2.49,1.43,11.27c.42,3.35,1.07,6.31,1.33,9.72l.7,9.12.91,5.47c.24,6.15.84,12.15-.41,18.21l-1.46,4.34c-1.5,1.46-4.1,1.36-6.37,1.08l.46-3.67-.2-16.41-.34-14.42-.74-10.13-1.36-7.14c-.38-1.96-.27-4.44-.76-6.22-1.21-4.37-.31-4.59-2.67-7.84-1.04-1.43-.84-4.85-.93-6.98l-.55-13.46-1.15-3.7-1.22-9.72-.98-3.88-.94-16.84-1.07-2.1.03-11.67-15.2-.95c-1.89-.12-4.01-2.2-6.37-.62-.7,1.04.59,3.56.72,4.81l.99,9.16c2.1-.22,4.52-.51,5.53.6.82.9.8,3.7,1.2,4.74,2.88,2.38,1.77,5.11,2.38,5.33l1.84.68,1.54,3.79.88,2.17c.18.45,1.24.61,1.95.68-.1-3.86.2-6.69,2.14-10.51l.04,6.54c.02,3.83-.95,8.24.8,11.56,1.31,2.49,1.61,4.78,1.53,7.8-.04,1.45.53,3.02.79,4.46l1.52,8.4c.43,2.36,2.45,5.22.85,7.42l-.87,1.2c-.23.31.43,1.06.8,1.49l1.51,14.65,1.05,3.89.71,21.93c.14,4.38-2.52,7.82-6.45,9.3-.8,4.18-7.61,3.02-13.27,1.77l-.7,6.73-1.63-.66-.6-10.74c-.28-.79-1.18-2.58-1.21-3.36l-.35-9.27-1.31-5.34-1.28-19-.8-5.06-1.29-24.15c-1.65-3.98-1.97-8.1-1.15-12.41l-1.19-15.12c-.07-.89-1.09-2.62-1.77-3.58l.57,17.17.85,4.39.92,15.49.19,5.52.34,24.79c-.18,1.97.12,3.8,1.06,5.37l.36,17.36.04,9.09.53,10.36,7.81-.17c.88-.02,2.54.68,3.3,1.12l18.32.93c1.07.05,2.4.7,2.6,1.6.85,3.86-11.66,2.81-18.41,2.6l-12.39-.39c.65,5.17.9,9.55.19,14.38-1.66,1.13-4.41,1.25-5.99.55l-.35-12.76-3.99-.47,1.9-3.35c1.35-2.38.44-6.11.3-8.91l-.51-9.76c-.12-2.27-.45-3.93-.95-6-1.01-4.15.64-7.71-1.29-8.71l-.05,6.11-1.26,2.11-.28,13.82-.61,5.14c-.36,3.07-1.28,6.43-3.33,7.95-.42.31-1.47,1.72-1.03,1.96l2.33,1.29c-1.56,3.51-8.69,4.13-13.64,3.28-3.99-.69-6.82.2-10.52,1.48-2.61.9-6.58.53-9.39-.03-.75-.15-2.38-1.19-3.01-.78-2.29,1.49-1.03,4.59-2.69,6.11-.57.52-2.63.27-3.41-.06l-.57-7.99-2.34-1.16c-1.27-.63,2.67-2.35,2.66-4.51l-.17-31.69-.6-17.35-.86-4.41-.32-14.09-.53-18.95c-.05-1.6-.85-3.03-.94-4.57l-.51-8.89-.47-8.17c-.48-8.37-.62-16.59.37-24.89,2.12-1.95,1.75-4.38.25-6.35l-1.88-4.05-1.5-4.52c-.64-.92-1.38-2.09-1.64-3.05l-1.39-5.1-1.85-6.34-1.47-6.27c-.57-2.44-1.74-4.87-1.58-7.36l3.77-2.3,4.36-2.08,7.06-1.08c1.41-.22,3.93-2.63,12.42-.26,4.58,1.28,8.75-.05,11.97,2.19l15.39,1.49,3.89,1.1c10.82.71,21.47,1.71,31.83-.82l14.69-1.83,4.19-.88,11.64-.07c.7,0,1.44.54,2.02,1.48-.82.55-2.61,1.83-3.6,1.94l-7.81.92-3.91.84-13.4,1.28c-.67.06-2.19.77-2.81.97-12.19,2-24.32,1.44-36.66.5l-3.87-1.12-10.7-1.34c-1.65-.21-3.22,1.19-4.69,1.69-3.11,1.06-7.54,1.19-10.72.19l-3.64-1.15c-1.64-.52-4.17-.31-5.45-.92-3.67-1.76-7.27-1.91-10.1,1.47.39,1.68.85,4.37,1.57,5.81l2.17,4.38,1.95,9.01c.35,1.61.88,3.18.97,4.88l.35,6.26.81,5.1,3.6,3.58-.21,27.36.54,15.45c.06,1.84,2.23,4.2,1.94,6.35,1.79,2.11,2.27,4.51,2.04,7.33.33,3.52.58,7.3-.77,10.54-.74,1.76-1.74,3.84-1.73,5.84l.07,21.68.53,11.77.26,28.54c.02,1.94,3.05,2.58,4.44,2.91l4.46,1.05c2.33.55,5.16.42,7.97.35l-.68-3.85,3.44-1.87,5.81,3c2.34,1.21,5.3,1.29,8.09.52l.51-16.77c-1.04-.26-2.01.23-2.79,1.1-2.44,2.75-10.56,1.54-16.03.55-.05,1.74-.93,2.9-2.32,3.6l-1.3.65c-.1.05-3.4-1.35-3.39-4.47l.02-24.08.44-5.3c.35-.1,1.54-.26,1.67.04l.61,1.42c.56,1.32.87,2.79,1.01,4.32l1,10.83.24,2.59c.05.57,2.29.17,2.73.6l5.46,5.26c.99.96,3.05,1.15,4.64.82l-1.46-20.25-.98-6.3c-.05-.35.13-1.62.43-1.68l1.65-.32.52,6.24c.47,1.81.86,3.51,1,5.46l1.19,16.79c4.56-.53,2.01-6.24,3.46-6.77l1.7-.62c-.74-1.74-1.05-2.94-1.2-4.53l-1.18-12.74-.98-3.41-.9-12.02c-.07-.88-.7-2.55-.98-3.33l-1.19-12.82c-.12-1.27-.37-2.27-1.02-3.39-1.55-19.89-1.5-39.66-.62-59.57l.79-1.43c.16-.29,1.17.38,1.41.75l5.6,8.79c1.77,2.78.49,7.17,1.6,10.33.47,1.33.79,2.53.89,3.96l.93,13.57c.1,1.46.71,2.52.82,4.05l.43,6.08.86,6.13.08-24.38,1.05-1.77.48-14.26c1.79-.79,2.66-1.83,2.48-3.84l2.4-1.03-.56-8.34-22.04-.93c-1.91-.08-3.35-.56-5.12-.87l-7.37-1.27-7.47-3.5c-.48-.23-1.21-.82-1.29-1.26-.11-.54.9-1.5,1.42-1.7l4.5-1.74c3.26-1.26,10.69-.09,15.3,1.06l7.88,1.97,5.11,1.23c2.36.57,4.35.71,6.7,1.56,1.06.08,2.1-1.92,2.42-3.48,1.57-.31,4.05-.06,5.88.31l.84,4.03,3.42.47c1.52,1,2.86,1.23,4.82,1.29l-.08,2.16,20.33.56c.48.01,1.9.07,1.92-.38l.1-2.18c.09-2,.63-3.64.94-5.45l1.07-6.2c.08-.44.65-1.46,1.09-1.42,1.29.12,3.74,5.56,1.97,8.99-.9,1.74-2.6,4.26.09,6.25l1.67-10.25,1.07-5.15c.57-2.73.76-5.31,1.38-7.86l1.81-7.42,2.43-6.68c2.18,1.64.2,3.65-.12,5.07l-1.91,8.58-2.18,10.26c-.75,3.52-.68,7.65-1.88,11.07-.84,2.37-2.16,3.99-2,6.73l.89,15.67c.16,2.84.04,5.67-.39,8.12l-1.38-5.32-1.34-18.12-6.33.03.48,2.62ZM370.86,1049.2l-.09.89.09-.89ZM371.44,1049.93l-.04.32,4.96,2.06c.55.17.84-1.24.17-1.24l-5.08-1.14ZM416.94,1098.61l.27-19.29-2.4.03c-.49,4.08.93,6.33,1.29,10.2l.84,9.06ZM431.15,1180.26l2.21-2.78c.84-9.12.53-18.14.05-27.45-.05-1.01-.6-2.5-.95-3.33l-1.43-15.96c-.28-.49-.85-1.73-.91-2.25l-.85-7.18-1.11-3.89-1.25-8.5c-.13-.86-.66-2.49-.97-3.28l-1.25-15.99c-.59-.08-1.62.53-1.6,1l.44,14.08c.03.96.56,2.48.92,3.32l1,18.47.16,15.83-5.12,5.33.17,5.12.52,12.4-.15,11.79c-.02,1.83-1.14,3.6-.16,5.6l2.85-2.19,7.43-.13ZM400.42,1123.93c.6-1.76.58-3.02.02-4.51-.95,1.46-.95,3.07-.02,4.51ZM401.15,1132.23l-.27.27.27.27.27-.27-.27-.27ZM401.71,1137.59l-.12,2.19.12-2.19Z"/>
        <path class="cls-2" d="M1100.03,1080.49l-.65-.93c1.31-2.08,1.52-4.31,1.45-6.75l-.36-12.39-.27-6.69c-.04-.97-.52-2.29-1.09-3.28l-.19-14.24,1.76-.74,2.84,7.08c.71,1.76,1.84,3.22,1.81,5.53l1.11,4.18.53,10.77.37,18.17.55,12.17.88,4.23,1.04,25.44c.09,2.2-.48,4.05-2.25,5.43-1,3.31-.24,7.05,1.19,10.07l.49,9.87.8,13.05c.28,1.06.86,2.94.9,4.17l.38,10.87.44,9.26.35,13.26c.32.79,1,2.52,1.02,3.43l.21,9.69v17.33s.23,10.05.23,10.05l3.45,1.04c3.19.96,7.33.76,10.61.06l4.33-.92,10.58-1.43c9.83-2.39,20.4-2.3,30.35-.04,6.29,1.43,13.18,1.65,19.74.32l7.31-2.27,6.77-1.82c.06-1-.65-3.14-1.08-4.43l-1.77-8.16-2.14-10.89c-1.85-9.41-1.6-19.04-1.52-28.92,0-.99,1.48-1.56,3.03-1.23l-.05-21.62c0-3.81-1.07-7.95.62-11.48.51-1.06,1.34-2.33,1.25-3.57l-.75-10.2c-.22-.61-.88-2.13-.91-2.79l-.41-8.1-.52-10.37-.92-4.81-.73-8.75-.29-66.27c-.01-3.03-1.09-6.54.27-9.16,1.09-2.11,3.96-.58,5,.54,2.78,3.01,1.15,4.19,2.99,6l.12,16.59c.01,1.52-.27,2.69-1.28,3.97l-.06,78.08,1.31,2.26-.31,11.71c-.02.91-1.38,2.59-.52,3.31.43.36,1.07,1.61.83,1.99l-1.07,1.67,3.29,2.66c.44,1.91,1.02,3.64,1.94,5.33l.06,25.5c-.9,1.22-1.2,2.52-1.2,3.98l.05,27.7c0,1.14,2.33,2.38.88,4.17-2.71,3.34-.1,7.93-2.91,13.09l-.69,4.11c-.05.32-.56,1.36-.82,1.21l-1.36-.76c-1.03-.58-2.27,1.2-3.22,1.64l-4.87,2.22-5.32,2.06c-9.06,2.13-17.92,1.15-27.04.41l-3.93-1-11.75-1.09-8.46,1.05-3.21,1.05-7.3.65-4.26,1.08-15.55.48c-4.02.12-7.59-.75-7.76-2.69-.14-1.68,3.19-.63,3.05-3.06l-.96-17.28c-.31-1.01-.91-2.91-.95-4.14l-.37-12.49-.51-10.88c-.07-1.4-.63-3.23-1.01-4.41l-1.26-23.1c-.09-1.66-.3-3.14-.96-4.48l-1.43-25.65c-1.64-2.58-1.22-6.23-.02-9.37l.72-1.89c.19-.51,1.75.01,2.28.13l1.2.27c.24.05.39-.82.43-1.12.05-2.31-.09-4.16-1.2-5.92l-1.02-15.77c-.09-1.33-.5-2.77-1.02-3.88l-1.32-19.18Z"/>
        <path class="cls-2" d="M630.34,1140.99c-1.68-6.13-.19-8.97-2.91-10.99l-.37-16.53-1.11-11.93-.89-3.87-.18-23.51.61-18.44,1.18-5.43,3.4.38c1.31,1.47,1.54,3.77,1.5,5.88l-.26,17.21.22,26.59.86,5.32,1.36,16.37c.07.83.67,2.55.88,3.32l.62,9.53.38,11.81.19,12.28c.05,3.28-.04,6.12-.53,9.25-1.08,6.92-.16,14.06.08,21.28l.97,29.49c.07,2.08.91,4.23.73,6.86,5.31,1.67,11.22,1.14,16.59-.81,1.68-.61,3.98-.49,6.18-.58l2.22,1.78,25.07-.54,3.62-2.05,5.82-2.29,6.35-2.3,4.82-1.56,4.41-1.36c6.23-1.09,12.49-.94,18.66-.45,3.59.29,6.62.14,10.47-.44.19-3.49-.22-6.16-1.13-9.58l-1.49-12.65-.91-2.18-1.21-13.7c-.12-1.3-.52-2.46-1-3.43l-1.14-14.53c-.08-1.01-.61-2.43-1.01-3.3l-1.18-12.81-.92-2.9-1.55-13.12-.87-3.99-1.59-11.87-1.53-10.93-.94-3.3-1.65-12.96-.9-3.1-.54-13c-.36-8.75-.46-17.05.89-25.59l3,1.55-.59-2.83-1.07-7.17,4.44-1.93,2.09,1.54.05,8.24c-1.68.96-1.53,1.89-1.76,3.51-.94,6.74-1.06,13.16-.57,19.98.39,5.49-.11,10.99,1.22,16.13.87,3.37,1.07,6.61,1.28,10.19l1.2,4.98,1.56,12.3.95,3.33,1.28,11.79.83,3.95,1.28,8.99c.19,1.32.81,2.62.91,3.95l.96,12.51.8,3.95,1.61,13.8c.2,1.69.78,3.11.97,4.9l1.21,11.34,1.07,5.32,1.19,15.6,1.02,4.8,1.92.63c.42.14-.22,1.57-.56,1.84l-2.89,2.37c.35,3-.38,5.83-1.79,6.3-.5.17-1.24-1.04-1.25-1.59l-.07-2.42c-.02-.57-1.47-.87-2.08-.83l-10.05.62c-6.33.39-12.71-.75-19,.69l-4.76,1.63-7.85,2.55-4.78,1.95-4.35,1.91c-1.18.52-2.62,1.67-4.19,1.66l-14.79-.07c-5.81-.03-11.86.9-17.36-.66-1.61-.46-1.94-.66-3.6,0-4.22,1.67-9.8,1.62-14.17,1.18-.84-.09-2.2.96-2.76,1.49-.67-3.64-5.12-3.26-8.71-7.27l5.54-1.67c.82-.25,1.3-1.97,1.25-2.98l-.71-14.56c-.49.02-1.42.12-1.43.43l-.03,1.66c-.03,1.42.21,2.73-1.74,3.49l-.27-15.24.47-15.71c.42-1.13,1.15-3.1,1.12-4.38l-.32-12-1.04-2.09-.09-12.04c-.01-1.58,1.51-2.55,3.37-2.7.07-1.82.2-4.61-.25-6.26Z"/>
        <path class="cls-2" d="M666.48,1162.34l.86,4.99,1.27,20.07.96,5.35.62,12.57c-4.43,4.73-5.98,2.99-9.51,3.01l-14.26.08c-.96,1.47-2.21,2.54-4.11,2.14l.11-37.65.89-1.06c.21-.25-.67-1.09-.69-1.45l-1.07-24.62c-.06-1.39-.86-3.47-1.12-4.53l-.05-45.58c.56-1,.97-2.28.99-3.34l.44-17.38c.1-3.85.6-7.48-2.53-10.76l-1.69,1.01c-.23-.7-.64-2.11-.23-2.51l1.85-1.81-2.34-6.94-1.04-3.09c1.94-.22,5.01-.74,6.72.11,2.74,1.35,5.22,2.79,7.45,4.61,1.47,1.19,2.33,2.78,4.76,2l3.23-1.04c2.66-.86,4.66-2.02,7.34-1.93.18,3.52-3.17,3.61-4.11,5.54-.19.38,1.03.86,1.57,1.21.67.43.54,2.36.6,3.3l.49,7.21.29,8.76.93,1.76c.22.42-.98,1.51-.98,2.06l-.13,12.11,1.17,2.18.13,10.06.34,15.41c.07,2.97.54,6.62-.44,9.31-1.54,4.24-1.84,6.4-.18,11.28.82,2.4.54,5.41.74,8.02l.74,9.58ZM648.16,1204.09l13.49-.04-.8-13.54-.87-4.19-.61-9.78-.54-12.43-.25-13.38-1.02-1.82-.08-63.11,1.1-2.2,1.18-21.53c.26-.31,1.05-.99.8-1.2l-1.05-.89c-.19-.16-.88.87-1.14.91l-7.32,1.27c-2.74,1.91-2.79,5.14-1.02,7.35.71,6.22-1.12,10.19-1.18,14.1l-.64,43.12v3.98s-.03,19.65-.03,19.65l-.07,9.81.9,5.99c1.24,1.3,1.44,3.22-.1,4.53l-.35,13.64-.4,19.75Z"/>
        <path class="cls-2" d="M211.46,699.99l-4.26,3.06c-.95.68-2.17,2.99-2.67,4.04l-2.11,4.46-1.97,4.58-1.86,4.54-2.82,6.97-1.73,4.19-2.21,6.35-2.22,7.03c-.72,2.27-.97,4.86-2.8,6.54-1.29,1.19-4.63.68-5.51-.7-1.48-2.33.11-4.64.7-6.66l2.1-7.11,2.35-7.32,1.81-4.88,1.55-4.93,1.83-4.32,2.21-5.31,2.2-5.15,6.35-12.76,3.47-5.42,2.08-3.86,5.98-8.35,1.42,4.67c.44,1.44-1.23,4.24-1.79,5.62l-2.1,5.14c-.59,1.46-1,3.29-1.35,5.65,1.42-.71,2.13-1.88,3.18-3.32l2.26-3.1,1.97-2.91,3.79-5.87,7.36-11.03,1.94-3.02,2.29-3.1,2.31-3.52c1.8-1.93,3.09-3.67,4.51-5.67l4.76-6.71,10.11-13.66,5.72-7.79,2.6-3.32,6.19-7.94,6.26-7.24,7.61-8.03c5.39-5.69,11-5.51,6.08-9.14l-13.32-9.84-3.09-1.7-3.8-2.31-3.24-1.98-4.67-2.45-3.58-1.88-5.01-2.27-7.05-2.41-4.95-1.03c-2.84-.59-5.21-1.84-8.13-2.12l-2.88-.86-5.75-1.19c-.44-.09-.44-1.76-.12-2.06,4.35-.43,9.49-.37,13.61,1.26l7.35,1.98,7.3,1.98,7.16,2.14,5.88,2.08,5.86,2.26,4.06,1.87,4.73,2.39,3.59,2.1,5.58,3.69,11,7.95,5.44,4.92c.25.22,1.9.28,1.84-.05l-.34-1.63c-.41-1.95-1.27-3.64-1.98-5.38l-1.77-4.29-2.96-6.77-2.43-4.63c.37-.31,2.89-.67,3.28,0l1.59,2.71,2.54,3.98,2.15,3.88,2.26,5.31,2.05,5.45,1.97,5.25,1.69,3.96,7.83,7.91,9.05,9.81c.23,2.96,3.03,4.13,3.21,9.05-3.76-.63-5.56-3.58-7.61-6.22l-2.11-2.73-5.77-6.29c-.54-.59-1.91-2.07-2.46-1.52l-2.25,2.26-2.89-6.17-1.69-3.13c-1.12-2.07-3.31-3.42-5.18-4.91l-9.49-7.62c-.36-.29-1.25-.64-1.56-.73-.42-.12-.93,1.02-.8,1.44.54,1.76,4.31.21,4.31,4.24l3.24,3.19c.86.85,1.39,1.74,1.81,3.01-3.47-.58-4.24-4.91-7.9-4.93-1.76-.01-3.35.8-4.77,2.14-4.19,3.96-8.36,7.78-12.04,12.11l-3.77,4.44-2.82,3.54-5.72,7.04-2.53,3.71-3.78,4.94-4.56,6.26-2.58,3.82-1.9,2.36-13.49,19.01-3.49,5.27-4.9,7.38-4.85,7.24c-1.6,2.39-3.56,5.16-5.61,7.08l-6.42,6Z"/>
        <path class="cls-2" d="M683.76,1217.67l-1.91-7.71-1.94-14.27-.83-5.11-1-30.67-.84-1.04c-.21-.26.82-1.15.83-1.6l.22-15.86-1.11-2.96-1.46-13.62-.92-3.32-1.32-11.8-.85-3.9-.9-13.62-.92-4.27-.69-6.52.02-31.24.41-7.13.95-2.1.88-7.22c-1.66-.36-3.8.5-5.67,1.15l-6.38,2.22-7.04,2.21-6.8,1.26-2.56.99-10.15.85c-.41.03-1.63-.25-1.96-.33s-.22-1.28.07-1.47l3.61-2.27,10.06-1.39,5.1-1.32,5.35-1.49,7.36-2.33,6.52-2.15,7-1.8,11.4-1.75,5.47-.92,18.98-.14,3.64,3.23c1.44-.84,3.48-1.05,5.24-.61l-2.82,2.83-6.03,1.93c-4.77,1.53-10.13.67-13.73,2.36l-22.62.31c.17,1.83-.31,3.71-1.32,4.49,2.9,4.18,1.55,11.22,1.53,16.46l-.03,15.5c0,1.05.53,2.24,1.14,3.17l-.74,1.18c-.25.4,1.04,1.51,1.09,2.09l1.02,12.63c.1,1.22.54,2.46.96,3.4l1.14,13.41.9,3.92,1.3,10.63,3.07-.46c2.12,1.25-.27,2.48-.5,3.45-1.46,6.03-.9,12.37-.5,18.66l1.04,3.4,1.12,13.16c.14,1.6-.99,2.69-2.44,3.18-.19,3.64-.19,8.24.71,11.87.35,1.42.71,2.55.81,4.03l1.19,17.78,1.22,4.3.96,15.88c.07,1.09-1.72,2.2-2.55,2.88-.5.41-1.86,1.85-2.13,1.25l-1.65-3.65ZM701.5,1030.33l4.58-.91,4.51-.8-19.61.65c-2.28.08-4.26.47-6.08,1.81l16.6-.74Z"/>
        <path class="cls-2" d="M484.21,972c2.04-.55,3.47-1.68,5.56.94l-5.62,2.64-5.95,2.31-6.61,2.05c-2.01.62-4.18,1.43-6.42,1.56-8.17.51-16.09.35-24.16-.81l-4.62-1.35-19.83-.12.04,2.81,6.44-.02-.05,1.71-5.72.61-1.33,3.11c-.34.8-2.89.35-3.07-.57-.83-4.43-4.95-1.37-11.53-4.25-2.62-1.15-5.45-1.06-8.61-1.19l.55-2.39-14.03-.26-8.37.75c-5.16.46-11.18,0-16.2-.15l-2.18.38c-.42.07-.36-1.43-.33-2.3l-7.48-1.07c-.11-.51.95-1.69,1.62-1.71l5.94-.23-.3-14.92-.74-19.7-.9-4.73-.56-14.37-.1-23.02.66-7.04,1.28-4.47c.27-.95.72-2.35,1.36-2.71s2.23-.18,3.21.1l-1.93,3.31,1.58,1.23-.05,7.48.08,11.51c.03,4.81-.21,9.51-.11,14.34l.49,24.36c.19,9.65.82,18.91-.89,28.76,6.37,1.25,12.17.5,18.52.49l36.21-.06,4.61-.85v-27.57s-.6-13.93-.6-13.93l-.61-26.07c-.05-1.96-.66-2.76-.06-4.86,1.37-4.8-.84-10.06,2.68-9.92l-.24,8.54c-.04,1.44-.81,2.83-.78,4.39.06,3.04-.67,6.83.18,9.52,1.22,3.84,1.9,7.01,2.07,11.1.47,1.33,1.38,3.57,1.4,5.22l.14,13.15-.48,20.46c-.04,1.57-.73,3.01-.95,4.5l-.92,6.3,10.17-.27c.36,0,1.38-1.03,1.64-1.26s1.08.92,1.47.94l9.83.47,21.1.98c1.27.06,2.24.2,3.52.04l9.66-1.26c1.77-.23,3.13-.7,4.81-1.15l5.5-1.48ZM411.79,982.98l.53-3.59-14.24-.35-3.21.45,4.69,1.12,9.73,1.62,2.5.75Z"/>
        <path class="cls-2" d="M700.07,1187.32c0,.24-1.5,1.57-1.3,1.37.16-.16.88.95.88,1.19l.14,9.59c1.51.5,2.34.95,3.15,1.8l4.15,4.38c2.17,2.29,5.71-1.11,7.46-1.02.32.02.48,1,.24,1.2s-.93.57-1.05.85l-.83,1.75c-.18.38-1.37.38-1.9.33-4.4,2.9-8.94,1.32-12.34-1.96-1.41-1.36-2.27-1.25-2.36-3.87l-.24-7.46-.53-8.22-.91-3.31-1.72-15.86-.88-4.55-.83-18.67,2.69-1.13-.42-8.36-.99-3.85-.71-6.87c-.31-2.99-1.24-5.28-1.7-8.1l-1.45-9.01-.93-3.32-1.43-9.42c-.6-3.98-1.51-9.54-.63-13,.09-.35,1.11-1.08.93-1.24l-.94-.86-1.61-9.17c-1.13-6.44-1.61-13.03-1.56-20.05,2.65,0,3.98-1.5,5.14-3.53,3.92-1.15,8.78-.7,12.73.26l5.03,1.22-1.32-5.95c-.66-.63-2.02-2.16-2.21-2.76,2.64-1.6,4.91,5.16,5.45,9.94l3.24,1.97c.13,1.77.85,3.01,2.49,3.78l.37,11.84-.07,8.72c-.04,5.56-.6,10.4-2.58,15.28-1.08-1.78-1.68-3.32-1.77-5.01l-.39-7.54-.29-18.43c-.54-1.43-1.01-2.89-1.21-4.89l-4.3-2.48c-.82-.47-2.85-1.41-3.79-1.53l-10.86-1.43c-.57-1.47-1.13-.59-1.17.38,1.02.36,2.4,1.59,2.53,3l.76,8.61,1.04,5.39.17,8.12.18,6.54,1.34,4.74,1.89,13.59c.56,4.03.93,8.17,1.14,12.44l.64,12.84c1.04,1.34,1.37,3.13-.57,4.39l.49,9.05c.3.49,1,1.82,1,2.36,0,6.34,0,13.33,1.61,19.26.51,1.87,1,4.05.26,5.67l-.78,1.69c-.17.37.96,1.3.98,1.72l.33,7.92.13,9.64Z"/>
        <path class="cls-2" d="M1008.09,903.3l-.84,2.51.05,18.4c-1.4,2.1-1.9,4.34-1.77,6.89-.23,2.14-1.18,3.65-1.87,5.61l-1.71,4.81-1.3,4.85c-1.19,1.28-4.14,1.16-5.34.35.35-.29,1.4-1.15,1.12-1.22l-1.4-.34-10.28-1.05-1.7-1-1.97.94-7.1,1.61-8.75,2.11-3.33.84-7.16.69-22.13-.62c-1.27-.04-2.83-.51-3.98-.84l-9.74-2.74-5.77-1.9-8.29-1.51c-2.95-.54-4.73-.88-7.67-.03-2.01.58-5.34.54-7.81.24-1.54-.19-3.73-2.56-5.51-.96-.88.79-3.5,1.74-3.99.75-.1-1.66.07-3.78-.47-4.7l-1.36-2.33c-.3-.51,1.16-1.43,2.09-1.71l.17-43.36.64-7.55c.09-1.04,1.23-3.15,1.62-4.25.24-.66,2.44-.82,2.85-.23l1.72,2.43,1.26,1.78c.29.41-1,1.59-1.02,2.16l-.46,12.78-.32,25.28-.65,8.02c-.1,1.2-2.37,3.24-.45,4.84,1.38,1.15,8.63,2.84,12.02,2.92l27.24.7,5.15,3.09c2.19,1.32,4.42,1.33,7.09,1.86l4.25.85,22.68.36,4.02-1.31,8.96-1.36c1.21-1.68,3.27-2.2,5.41-1.95,2.32-2.08,4.79-1.59,7.16-.31l3.63,1.96c.91.49,3.16.95,4.04.86l1.21-3.41,1.57-11.54.84-3.26.35-7.16.44-8.26.05-19.72-.31-3.5c2.27-.64,4.67-.41,6.87,1l-.04,16.63Z"/>
        <path class="cls-2" d="M1161.32,1200.52c1.54,6.06-2.36,15.4-5.91,12.08l-.89-6.11-1.07-3.02-.93-17.76-1.05-2.09-.03-9.27,1.14-2.08.34-7.67-.03-20.32-.28-10.52c-.03-1.03-.5-2.33-1.14-3.3v-20.74c.97-1.27,1.22-2.41,1.27-3.97l.96-29.71c.97-1.82,1.16-3.73,1.17-5.94.03-2.19-.22-4.15-1.15-5.92l-.49-8.68-.22-9.73c-.01-.64.91-1.86,1.42-1.71,1.32.37,2.71,3.81,3.06,7.24.16,1.57,2.49,3.51,3.85,7.22.61,3.13.28,6.94.14,10.16l-.39,8.95c-.98,2.5-2,5.5.04,7.75-.58.55-1.15,1.27-.89,1.56.49.54,1.36,1.41,1.14,1.79l-1.22,2.12c-.86,1.5-.77,4.3-1.28,6.21-.37,1.4-1.61,3.37-1.57,4.83l.36,12.67.47,16.95c.42,1.21,1.02,3.03,1.03,4.47l.16,17.02-.02,20.98.39,17.07c.04,1.74.29,4.25.67,5.74l.95,3.73Z"/>
        <path class="cls-2" d="M1189.21,1192.37l-1.89,3.29-.15,1.14c-.04.33-1.39.6-1.44.27l-.25-1.56-.47-9.3-.74-4.51-.61-13.58-.27-10.5c-.03-1.3,1.44-3.38,1.71-4.62,1-4.5.05-9.14,0-13.73-.03-2.35-.64-3.9-.93-6.11l-.81-6.15c-1.45-1.19-2.32-2.44-2.44-4.41-.61-9.8.19-19.38.71-29.27.11-2.08.71-3.57.91-5.52l.71-6.86.43-9.32.1-20.73-3.59,1.49c-1.34-.78-2.89-1.47-4.2-1.49-3.9-.05-6.62-2.73-6.07-6.77,2.98-.06,7.74,1.85,10.38,3.62l6.35.68c5.28.57,3.92,27.44,2.25,36.97l-1.15,4.17-.47,8.65c-.19,3.43-1.94,5.59-1.35,10.72,2.21,1.41,1.73,3.93,2.61,5.82.67,1.43,2.07,2.52,1.76,4.59-.13.85.81,2.55.88,3.33l.64,6.81.38,11.66.05,27.58-.7,5.72c-.97,2.13-1.17,3.55-1.36,5.96l-.99,11.98Z"/>
        <path class="cls-2" d="M476.24,884.87l1.5-7.33-19.13.04-3.9,1-19.61,1.45c-.51.24-1.8.85-2.38.9l-10.83.88-3.86,1.02-13.45,1.33-3.29.83-12.24,1.59-5.94,1.15c-5.51,1.07-10.94.94-16.54.63l.15-1.42c.04-.38,1.22-.5,1.69-.58l9.23-1.65,9.31-1.49,3.8-.95,14.3-1.66,3.89-.85,15.72-1,2.16-1.06,18.76-1.27c.85-.36,2.4-.96,3.38-1.05,11.17-.95,21.91-1.29,33.04-.63,3.31.19,6.2,1.84,6.38,3.21.26,1.96-3.19.85-4.27,2.2-.48.61-.61,2.38-.4,3.2,1.01,3.88-.37,7.4-.41,11.24l-.2,16.6c-2.01,2.67-1.79,5.97-1.23,9.19-.03,1.99.26,3.72,1,5.42l1.98,4.54c.55,1.26,1.24,4.22,1.27,5.68l.26,12.28c2.33,3.54-.32,10.83,2.66,16.05-.41,1.64-3.83,3.27-5.41,1.42-.58-.67-1.82-2.01-2.03-2.14l-1.19,2.56c-.25.53-2.5.65-2.57.07l-.37-2.8c-.19-1.43.47-3.87,1.24-5.2v-40.65c-.8-1.24-1.03-3.27-1.1-4.79l-1.13-24.53-1.79-1.12c-.46-.29,1.43-1.74,1.55-2.32Z"/>
        <path class="cls-2" d="M94.14,644.25l2.5-3.87,2.41-3.46,12.09-18.88,2.83-4.72c.5-.84,1.56-2.77,2.24-3.47l6.46-6.71c.92-.96,3.79-1.59,5.09-1.49.42.03,1.11,1.51.84,1.84l-1.42,1.79c-.4.5-1.34,1.1-2.26,1.51l-1.39,4.02,3.71-2.95,4.72-4.02,4.94-4.2c1.21-1.03,2.61-1.85,4.25-2.87l-1.62-1.19c-.33-.24-.09-1.4.25-1.63l2.84-1.93,3.31-2.2,3.28-2.01,3.81-2.23,4.01-2.35,4.36-2.22,4.65-2.27,4.57-2.04,4.42-2.08,4.42-1.9,6.77-2.52,5.53-2.06,5.5-2.08,5.74-1.34,7.13-2.21c1.7-.53,4.22-2.51,5.68-.04-2.78.65-4.38,1.65-6.41,2.58l-4.14,1.89-4.85,2.19-3.81,1.17-4.27,1.85-6.52,2.6-4.64,1.89-4.64,2.27-4,2.04-4.26,2.18-4,1.99c-3.39,1.69-6.53,4.22-9.89,6.09l-7.94,4.42c-1.75.97-2.5,1.27-3.58,3.14-.39.69-1.36,2.22-1.96,2.73l-2.96,2.48-3.91,3.27c-2.11,1.77-5.11,4.82-6.95,6.71l-1.05,2.02c-6.33,5.36-11.42,12.07-15.9,19.04l-5.75,8.93-2.36,4.67-2.04,4.63-1.88,4.08c-.75,1.2-4.33,1.48-5.58.81-1.42-2.74,2.46-7.3.84-7.61l-2.24-.43c-4.2-.8.54-2.05,2.99-5.84Z"/>
        <path class="cls-2" d="M1174.97,1211.17c8.07-2.2,21.23-.92,19.46,1.75-1.6,2.41-4.38,1.71-6.73,1.86l-19.33,1.17c-.01-3.77-.31-6.48-1.34-9.74-1.22-3.84-1.08-8.5-1.35-12.92l-.93-4.85-.68-9.19-.36-11.78-.32-22.85-1.13-1.75.03-21.84c.64-.92,1.16-2.29,1.18-3.31l.21-13.98.78-19.64-.05-32.41c0-.87,3.06-1.51,3.52-.78l2.91,4.59-.08,19.46-.45,8.72c-.07,1.41-.79,3.17-1.48,4.35l-1.28,22.42c-.28.49-.98,1.8-.99,2.33l-.17,9.37.16,14.5c.01.93.68,2.33.81,3.32l1.53,11.6c.24,1.85.98,3.03,1.04,4.96l.5,17.85.14,21.19-.09,16.96c1.8.51,3.06-.98,4.5-1.37Z"/>
        <path class="cls-2" d="M1117.48,1017.45c1.77-.49,3.13-1.25,4.79-1.31l27.4-.92,4.96-.96c2.16-.42,3.75.15,5.63,1.47l-4.78,2.47c11.55.64,22.14.78,33.26-.65l4.28-1.26,9.13.11c.59,0,2.44-.43,2.46-1.01l.37-10.85-.54-11.75-23.05-.25c-2.14-.02-4.67-1.08-6.53-1.96l-3.55-1.67-6.33-2.45c-3.94-1.52-8.25-.97-12.39-.82-3.08.11-5.68.68-8.35,1.86l-4.67,2.06c-2.86,1.27-10.58,1.95-10.51-.78l3.93-1.55,5.5-2.16c1.29-.51,2.79-1.12,4.23-1.22l11.44-.81c3.56-.25,6.4.82,9.71,2.11l6.91,1.28,5.94,1.64,5.07,1.26,11.34.52,10.36-.23c.35,0,1.15-1.01,1.37-.9l1.15.56c.81-.34,2.15-.78,2.9-.77s2.08,1.37,2.2,2.14c.08.52-1.5,1.35-2,1.6-.77,1.6-.24,5.12,1.28,6.2,2.07,1.47,2.94,3.25,2.83,5.7l-.29,6.3-1.52,3.45c-2.44,1.02-4.58,2.55-4.74,5.61-2.49,1.25-5.71,1.46-8.77,1.27-1.5-.09-3.2.72-4.47.92-8.92,1.36-17.76,1.26-26.9,1.35-2.27,1.59-5.26,1.73-7.44-.07l-12.73-.22-30.06-.52c-.8-.01-2.21-.58-2.66-1.06s-.59-2.08-.29-2.57l4.13-1.15Z"/>
        <path class="cls-2" d="M139.77,778.46l-1.29-4.81-1.89-5.76-2.03-6.31-2.29-6.64c-.89-2.58-2.21-4.76-1.82-7.75l5.58,6.91,2.27,4.13c1.24-2.14.96-3.71.65-5.92.04-1.93-.29-3.76-1.16-5.29l-1.28-12.58c2.34-.13,2.28,1.89,3.03,3.15,2.59,4.35,1.98,6.17,4.47,5.97-.32-3.45-.91-6.02-1.44-9.14l-2.17-12.85-1.89-11.81-.92-3.29c-.38-4.05-.9-7.7-1.51-11.42l-1.93-11.72-.87-3.95c-.76-3.43-.92-6.98-1.53-10.21l-1.73-9.27-2.26-7.46c-.71-2.34-1.75-4.35-2.04-7.07,4.01-.48,7.06,4.62,7.63,9.24,1.43,1.8,1.94,4.04,2.15,6.49,1.07,2.37,1.63,4.62,1.8,7.41.09,1.52,1.17,3.58,1.3,4.88l1.16,11.5c.09.91.68,2.46,1.06,3.26l1.41,13.84c.35.76.98,2.37,1.04,3.25l.85,13.11c.18,2.8,2.03,6.38,1.84,13.25l-.23,8.39.24,6.88c.05,1.38-.73,3.17-.49,4.68l1.21,7.59.96,3.87.42,6.69c.18,2.92,1.08,6.82-.28,9.54-.7,1.4-1.91,2.58-2.11,4.23-.22,1.84-.91,3.84-1.9,5.23-3.35-1.01-1.24-5.64-4.03-10.24Z"/>
        <path class="cls-2" d="M170.62,767.54c-2.08-1.86-2.81-3.92-3.17-6.63l-1.37-3.84-1.23-7.51-.88-3.35-1.63-11.5c-.15-1.03-.86-2.36-.92-3.37l-.94-14.71-.87-4.82c-.62-3.44-.47-7.02-.59-10.48l-.4-11.68c-.12-3.56-.27-6.69.05-10.34l-.29-3.74.14-28.96.49-12.25c.06-1.44.91-2.96,1.15-4.39l1.63-9.77,1.66-4.7c.55-.12,1.63,1.22,2.09,1.81,2.18,2.83,1.55,4.41.61,7.36-.58,1.82-.69,4.98-1.11,7.19l-1.05,5.49c-1.48,7.78-.87,19.89-.66,28.85l.45,19.21c.56,1.39.98,3.08,1.06,4.77l.92,17.9c.07,1.32.49,2.83.92,3.89l1.1,12.93,1.04,3.33.64,5.7c.32,2.89.83,5.33,1.31,8.08l2.08,11.87c.62,3.53,1.16,7.16,1.07,10.64l-3.3,3.03Z"/>
        <path class="cls-2" d="M1177.35,949.97c.48.22,1.49.66,2.06.71l6.03.62.02,1.51-27,.06-41.54.67c-1.92.03-4.36.62-4.93-1.58,1.27-.5,2.28-1.64,2.24-2.79l-.41-10.65.05-19.99.34-27.59c2.37-1.89,6.82-.58,7.29,2.73.58,4.12.35,8.78.12,13.07-.56,1.08-1.17,2.63-1.24,3.79l-.46,7.48c-.71.66-1.49,1.86-1.51,2.83l-.43,16.36-.22,3.85-.29,8.12,5.33-.53,23.58.22,23.65.46-1.31-1.73c-.32-.42.62-1.62,1.12-1.86,3.96-1.94,8.19-1.33,12.48-1.16l11.88.45,8.06-.94c.3-1.7-.71-3.78-.83-5.24l-1.07-13.7-.97-3.79c-.88-3.44-.67-6.85-1.94-10.19l-1.55-7.93c-.64-.76-1.29-1.88-1.38-2.58-.11-.94,1.09-1.69,2.15-1.59s1.41,1.2,1.8,2.45l1.54,4.95c.81,2.59.42,5.76,1.09,8.58l.92,3.86,1.49,17.79c.94,1.75,1.13,3.72.88,6.11l4.92.6c-2.38,3.15-5.27,3.94-8.75,3.89-1.45-.02-5.29,2.22-11.16,2.23h-11.7s-.33.46-.33.46ZM1177.4,949.21l-2.27-.03,1.65.52.61-.49Z"/>
        <path class="cls-2" d="M674.44,1005.77c1.86,2.68,4.69,1.58,6.98,2.12l10.22,2.42,7.47,2.12,5,1.91c-5.68.27-11.24,0-16.6-1.27l-4.74-1.13c-2.68-.64-4.88-1.23-7.51-1.63l-7.47-1.12c-.86-.13-2.59-.8-3.35-1.07-8.73-1.1-17.43-1.09-26.18-.02-.74.28-2.34.96-3.13,1.08-4.64.69-10.55,2.56-10.17,3.26l1.18,2.14-.64,1c-.16.25.34.76.57,1.12l1.76,6.42,1.78,8.62c.4,1.95,3.05,4.19.03,6.45l-1.17-4.66c-.72-.6-2.08-1.79-2.39-2.71l-2.08-6.25-2.16-6.49-2.55-6.49-1.94-6.82-1.29-5.29c-.35-1.43.13-2.81,1.05-3.86,1.49-1.69,3.34-2.12,5.22-1.46-2.76,2.03-1.91,4.72-.49,6.94,1,1.56,1.04,3.98,1.28,6.48,3.05.28,5.94-1.33,9.02-1.77l8.62-1.23,2.21-.95,37.84-1.01,41.67-.05,7.07-2.22,3.07-2.17,1.95-1.32c.46-.31,2.05.67,2.21,1.38l-3.16,3.64c-1.26,1.45-3.19,2.53-4.7,3.37-2.4,1.32.27,3.71.79,4.99l1.55,13.63c.23,2.06,2.25,3.73-.06,5.37-1.32.93-3.25,1.73-4.78,1.38l-1.04-4.29c-.44-1.8-.86-3.43-.94-5.48-.16-4.21-1.01-8.71.45-12.59.46-.69,1.5-2.07,1.42-2.73l-5.55.28-2.13,1.11-20.02-.07-2.13-1.07h-22.03Z"/>
        <path class="cls-2" d="M210.57,738.96l-4.91,6.13-3.56,1.64c-.95.44-2.92.37-4.01.05l3.36-4.75,2.64-3.69,7.71-10.2,7.83-9.05,8.99-9.89,20.18-20.32,4.81-4.37,4.22-3.84,2.72-2.22c3.28-2.68,6.35-5.52,9.79-8.11l6.03-4.54,12.9-9.39,16.85-11.28,7.2-4.41c.23-.14,1.52-.04,1.81-.02s-.63,1.36-.92,1.51c-1.87.96-4.68,3.25-6.5,4.85l-8.46,7.42-3.53,2.41-3.75,2.75-7.57,6.01-2.74,2.05-8.6,6.57-4.67,3.93-4.07,3.55-6.32,6.19-23.61,24.2-8.61,9.3c-1.12,1.21-2.45,2.86-3.67,3.81-1.37,1.07-2.03,1.8-3.04,3.06l-8.5,10.61Z"/>
        <path class="cls-2" d="M722.57,972.35l-22.33.6-11.36.67-5.36,1.03c-8.08.06-15.8,1.01-23.79-.34l-4.51-1.28c-2.19-.62-3.75-.96-5.91-1.68-3.15-1.05-7.74-1.11-10.99-1.38-.38-.03-1.28-.96-1.58-.77l-1.47.95c-.06-1.04-.09-1.95.29-2.4,1.61-1.95,12.24-2.72,18.22-.74,1.76.58,3.49.94,5.46,1.45l5.3,1.37,17.89.17c.44-1.92.38-3.58.32-5.53l-.26-8.48-2.02-1.57.69-6.08,1.03-4.29c.35-1.44.66-3.78.66-5.35l-.09-31.2-.45-12.11c-.02-.5-.87-1.51-1.09-1.82-.27-.39.67-1.52,1.15-1.53s.81.19,2.07.69l1.3,13.64,1.09,2.19-.1,7.22-1.09,1.7c-.25.39,1.03,1.51,1.04,2.07l.13,9.95-1.08,2.19-.43,12.48-.14,24.83,14.57-.62,21.62-.28c1.88-.02,3.75-.78,5.38-.97l10.38-1.21,3.29-.97c3.46-1.01,7.47-.46,11.2-.28,1.58.08,2.86,2.55,2.1,3.6l-5.31.42c-3.8.3-7.25-.18-10.91.91-6.29,1.87-11.62.68-14.89,2.73Z"/>
        <path class="cls-2" d="M1124.05,1192.55l-1.29,2.42-.14,7.61c0,.4-.9,1.37-1.28,1.49-.47.15-1.36-.91-1.41-1.45l-.57-5.96c-.19-2.01-.84-3.44-.98-5.53-.46-6.53-.55-12.79.21-19.13,2.4-2.08,1.8-4.79,1.72-7.45l-.4-12.14-.47-13.2-1.03-4.73c.21-3.27.19-5.91-.69-8.94l-1.11-3.82-1.25-13.84c-.11-1.24-.43-2.35-1.2-3.39v-35.03c.61-1.31,1.51-3.65,1.28-5.39-.22-.51,2.1-.61,2.21-.03l.96,6.88c1.16,1.9,1.82,3.39,1.84,5.76l1.09,4.69.34,12.31,2.08,2.44.14,31.77.34,8.54-1.62,1.8-.02,13.5c1.42,2.26,2.1,5.55.12,7.93l-.41,9.85-.29,7.13c-.04,1.05,1.02,2.89,1.61,3.8l.23,12.12Z"/>
        <path class="cls-2" d="M219.54,758.89c-.67.52-2.01,1.27-2.65,1.19-1-.12-3.51-2.6-3.72-3.71-.14-.74.87-2.09,1.48-2.62l4.75-4.12,7.05-6.37,4.83-4.25,12.39-9.47,6.06-4.59,17.45-12.22,5.95-3.75,2.77-1.65,3.2-1.73,3.47-2.03c1.61-.94,3.46-1.78,5.28-2.1-.68,1.75-.94,2.59-1.12,4.52l-11.18,7.93-5.03,3.87-5.93,4.73-5.63,4.53-7.86,5.92-5.86,4.76-5.6,4.63-3.56,2.88-10.19,8.73-6.35,4.9Z"/>
        <path class="cls-2" d="M976.77,891.73l15.77.51.06,1.96-4.58,1.3c-1.07.3-1.92.04-3.19-.13-5.99-.82-12.36-.27-18.09-2.01l-12.49-1.83c-1.57-.23-3.57-1.14-5.44-1.05-12.42.56-24.33.12-36.71-.78-1.88-.14-3.27-.49-4.99-.96-3.28-.9-7-1.11-9.7-3.34l-1.95-3.58c-.28-.51.03-2.26.54-2.08l2.84,1.01,15.69,1.54c1.26.12,2.26.78,3.48.86l24.33,1.6c4.98.95,9.51.79,14.65,1.02l17.54.79,3.25,1.23.23,1.71-7.7.31c2.01,1.38,4.39.19,6.46,1.94Z"/>
        <path class="cls-2" d="M1146.18,1215.45c-2.42.72-5.73-6.16-6.05-8.58l-.9-6.77-.91-1.71c-.2-.38,1.32-1.18,1.51-.8l1.13,2.39c2.28-.95.06-3.27-.04-4.63l-1.19-16.69-.95-5.38-.15-28.65c.29-1.26,1.36-3.65,1.39-5.08l.22-12.76c.77-.61,3.03-1.04,3.93-.93.39,1.67.59,2.38,2.4,3.03l-.14,43.25-.28,7.74-.98,3.36-.51,9.58c-.05,1.03.89,2.99,1.29,3.91l.22,10.86-1.74,1.21c-.75.52,3.09,2.69,1.75,6.65Z"/>
        <path class="cls-2" d="M723.66,1178.9l1.05,13.75-2.56,1.2c.02.76-2.13,2.03-2.63,1.37-1.8-2.34-1.95-5.1-2.81-7.7l-1.19-3.58-.67-16.08c-.06-1.35-.41-2.79-.93-3.94l-.46-20.56-.39-17.13-.69-11.32-.93-5.37-.57-8.13-.15-8.17.76,6.05.82,4.37c.01.07-.7.92-.5,1.18l.84,1.11c.25.33,1.12-.47,2.06-1.04l1.39,12.13,1.18,4.15,1.06,3.98c.41,1.55.88,3.15.94,4.87l.6,17.88.63,7.47.9,4.94,1.23,14.45c.22.9.92,2.81,1.02,4.12Z"/>
        <path class="cls-2" d="M375.25,1162.67l-.4-12.5c-.37-.76-.97-2.39-1-3.23l-.37-11.99c-.12-3.94-.58-7.64-1.2-11.45l-1.81-11.08-.81-2.33-.87-4.51-1.11-3.78c-.42-3.62-.88-7.16-1.84-10.67l-2-7.32-1.22-4.59c-.62-2.33-.89-4.11-1.71-6.43-.44-1.23.14-3.27,1.14-3.97,1.06-.74,3.03-.29,4.3.83,2.59,2.29,2.24,6.04,3.15,9.21.78,2.71,1.09,5.07,1.86,7.87l1.11,4.02,1.94,11.21,2.13,11.29,1.53,8.8c.16.92.67,2.41,1.05,3.27l.36,11.25c.19,5.98.58,11.81-.18,17.71-2.72,2.63-.26,6.06-4.04,8.39Z"/>
        <path class="cls-2" d="M1140.64,1099.17l-.04-27.49,1.18-2.1.1-22.75.95-5.26-11.2.59-13.56-.27.12,10.43c.04,3.55-.74,6.88-2.63,9.74l-1.32-3.98-.27-16.35c-.02-.92-1.27-2.96-.52-3.68l9.32-.6,17.66.47c2.68.07,4.78.6,6.83,2.12l-2.36,2.62,1.29,1.96.11,4.86.14,7.15-.05,28.89-.38,19.71c-1.67,2.68-.56,6.09-1.79,5.88-2.92-.51.11-7.29-3.56-11.94Z"/>
        <path class="cls-2" d="M451.43,956.63c.68-.4,2.77-1.08,3.55-.63s1.14,2.66.69,3.39l-5.4,1.39c-1.58.41-2.12.26-3.68-.02-4.05-.72-8.52-.47-12.54-1.72l-4.14-1.29c-.26-.11-.6-1.57-.21-1.72l2.49-.93-.4-11.41-.48-9.79-.44-8.45-.88-3.36-.06-20.97c-1.15-.55-2.21-1.35-2.58-1.99,2.91-3.57,6.28-1.96,9.61-.98l7.07,2.1,10.37,1.18c1.72.2,3.34,1.47,2.58,3.33-4.96.57-10.63,1.05-15.5-.09-2.44-.57-4.36-2.33-7.25-.75l1.23,1.47.24,24.13-.03,7.11-.44,7.55-.83,4.21-.23,5.38c6.36,2.61,12.04,1.6,17.24,2.87Z"/>
        <path class="cls-2" d="M388.9,912.76c-2.06.44-2.99.49-5.08-.1-2.93-.83-6.92-.4-9.87-1.53-2.4-.91-4.28-1.52-6.65-1.44-.14,3.02.02,4.87,1.12,6.91l.32,16.06.4,11.53h-1.82s-1.17-10.22-1.17-10.22c-.2-1.77-1.03-3.07-1.06-4.96l-.25-19.39,1.51-1.01c.32-.21-1.02-.77-1.39-.87l-1.65-.44c-.44-.12-.33-1.51-.12-2,3.44-.09,7.83-.52,11.08.63,2.32.82,4.09,1.18,6.51,1.66l6.57,1.3,4.75-1.66c2.32-1.29,3.4-3.26,6.99-2.36l-1.22,4.09c.58,1.67.9,3.53,1.02,5.49l.65,9.94.08,7.81.08,4.88c2.13,2.69,1.45,5.44.21,8.27l-.43,5.76.41,10.91c-1.41,0-2.36-.96-2.42-2.05l-.52-9.17-1.28-5-.43-15.06-.12-9.89c-.04-3.29-.26-6.4,1.29-9.68l-7.49,1.59Z"/>
        <path class="cls-2" d="M128.02,737.66c0,.25-1.44,1.03-1.5.8l-.44-1.53-1.07-3.71-1.88-9.05c-.69-3.3-1.11-6.61-1.47-10.3l-1-3.32c-.98-3.26-.88-6.58-1.2-10.15l-.87-3.4c-.5-1.96-.66-4.4-1.41-6.27l-2.06-5.14c-.6-1.5-1.12-2.99-1.65-4.64l-1.25-3.88-2.29-6.55-1.8-5.3c-.82-2.43-1.28-4.69-1.22-7.47l3.86,2.23,2.24,3.53,1.9,4.55,2.12,5.44,2.04,5.04c.71,1.74,1.47,2.9,2.73,4.53l.73,5.59c.12.9.7,2.49,1.01,3.27l1.14,10.18.84,4.53,1.26,9.56,1.02,4.25c.61,2.56.55,5.27.48,7.89l-.24,9.34Z"/>
        <path class="cls-2" d="M707.56,952.55c5.55,2.65,10.31-1.77,14.8-1.43-.04,3.33-3.26,3.8-5.59,4.72l-2.7,1.07c-2.3.91-6.48.97-8.8.06-3.03-1.2-5.69-1.66-8.82-1.1l-1.83.33c-.82.15.23,2.82-1.21,3.76-.39.26-1.69-.25-1.45-.41l-.09-22.76-.44-9.98-.58-9.11-1.12-4.28c-.54-2.05-.09-4.49.39-6.09l6.34.84,2.26.97,14.31,1.19c2.46,1.72,4.98.46,4.97,1.18l-.03,1.83c-7.31.96-14.8.64-22.5-.06v14.16c.63,7.73.57,15.33-.24,22.89l-1,1.64c-.21.35.72,1.51,1.05,1.23,3.51-3.03,7.87-2.77,12.27-.67Z"/>
        <path class="cls-2" d="M973.34,928.26l.12-10.05c.02-1.76.53-3.25,1.19-4.88l.45-3.78c1.19-.59,1.8-1.07,2.41-2.16l-19.59-.46c-.93-.02-2.33-.68-3.36-.86l-8.3-1.46c-2.32-.41-4.15-1.05-6.5-1.64l-4.66-1.17c-8.37-2.1-15.64,1.07-22.29-1.61l1.28-1.7,9.3-.5c3.64-.2,6.27-.64,9.96-.04l8.43,1.37c2.05.33,3.57,1.37,5.66,1.88l4.34,1.06c4.56,1.11,9.54.69,14.34.96l9.14.51,3.18,2.13c1.18.79,1.8,1.24,3.36,1.9-.19,3.18-.19,7.34-1.03,10.53-.9,3.42-1.23,7.59-1,10.72-.06.35-.69,1.67-1,1.51l-1.46-.75-3.97-1.52Z"/>
        <path class="cls-2" d="M1180.17,905.46l-1.5-6.35c-.37-.67-1.52-1.8-2.21-2.02s-2.23.81-3,.91l-12.61,1.59c-1.15.14-2.69,1-3.92.98l-14.49-.22-.65,2.59c-.13.53-1.88.11-2.17-.35-.2-.31-.96-1.1-.8-1.39l.97-1.76-3.93-.71c-.3-.05-.77-.97-.67-1.27.57-1.66,3.47-2.83,5.87-2.77l14.01.34c2.36,1.88,5.32,1.35,7.75.06l13.78-1.1c.69-.05,2.19-1.85,2.72-1.45l2.16,1.65c1.39,1.06,1.84,2.28,1.95,4.01l.35,5.49c.11,1.69.81,3.2,1.04,4.88l1.36,9.53.97,1.48-1.24,2.11c-.27.45,1.19,1.61,1.21,2.2l.18,7.68-2.05.19c-.48.04.04-1.89-.16-2.41l-2.97-7.72c-1.57-4.1-.12-8.49-1.93-16.16Z"/>
        <path class="cls-2" d="M630.87,956.83c-.15,2.55-3.15,5.35-4.42,4.42-1.43-1.05-.8-1.2-.49-2.62,1.56-7.27,1.3-14.55,1.4-21.88.3-.51,1.05-1.54,1.06-2.05s-.62-1.34-1.13-2.02l-.06-31.18,1.08-1.79.27-7.28c.06-1.56,1.41-3.47,2.62-3.84,1.7,1.27,2.22,3.13,1.72,4.9l-.25,25.84-1,1.77-.28,27.15-.51,8.59Z"/>
        <path class="cls-2" d="M1172.95,887.96l-.86-3.62-14.45-.5-10.5.44-2.13.9-14.61.99c-1.98.13-3.94-.05-5.95-.68,3.61-4.86,8.62-3.31,12-5.5l30.69.09,4.67,1.07c2.44.56,4,.93,6.27,1.93l6.63,1.27,2.25,1.14c1.81.92,4.11,1.73,4.72,4.08-3.64,1.08-9.01.47-12.2-.97-1.68-.76-3.61-.63-6.54-.63Z"/>
        <path class="cls-2" d="M673.57,891.14c-5.4-1.45-12.74,1.12-18.85-2.97l1.02-1.85c.25-.45,1.83.68,2.33,1.05l24.08.02c.9-.48,2.15-1.04,2.83-1.1l9.95-.87,3.82-.92c11.37-1.58,22.46-1.17,33.96-.62,1.15.06,2.16,1.15,1.88,2.29l-22.51.4-4.76,1.07-9.82,1.1-4.73,1.09-14.22,1.33c-1.98.18-2.74.57-4.99-.03Z"/>
        <path class="cls-2" d="M1159.28,940.24c-2.31.03-4.25,1.35-5.91,1.83-6.37,1.83-12.71.45-19.16.06-2.16-.13-3.47-.2-5.19-1.65l2.55-2.19c4.42-.07,8.76-.25,12.82,1.06,5.82,1.88,8.81-.73,8.33-1.47l-1.44-2.23,5.56-.3,6.05-.07h8.42s5.56.88,5.56.88l10.77.17c1.2.02,2.7,1.09,2.55,1.81l-6.11,1.82-24.79.28Z"/>
        <path class="cls-2" d="M955.64,927.26c-7.91-.54-14.97-.43-22.52.08l-3.88.88c-6.15.78-12.45.71-18.3.07l-6.4-2.03-5.19-1.82c-.35-.12-1.5-.23-1.41-.56l.48-1.61c5.75-.27,11.21-.42,16.66,1.82l13.75-.11,4.86-1.01c5.48-.04,11.08-1.46,16.24.28l5.21,1.76c.55.14.88,1.91.5,2.26Z"/>
        <path class="cls-2" d="M741.15,931.75l-1.13-5.09-1.28-7.41-.92-4c-.57-2.48-.54-6.13-.19-8.73l1.85-3.61c.22-.43.67-1.84.98-1.53l1.27,1.28,2.04,2.07,1.23-1.78.09-14.49c0-1.47.61-3.37,1.48-4.23l6.18,2.22c.88.32,2.35,1.35,3.48,2.19-.16.69-2.08,1.69-2.72,1.39l-2.55-1.22c-2.31-1.1-2.55,2.11-2.75,3.41l-1.21,7.7c-.65,4.14-2.49,7.82-1.77,12.49.19,1.25-.82,3.23-.91,4.37l-.87,11.15c-.13,1.61-1.33,3.26-2.31,3.83Z"/>
        <path class="cls-2" d="M676.79,948.41c-.19,2.31-.21,3.67.1,6.41-.6.67-3.2,1.38-4.47,1.28-.54-1.14-.72-1.95-1.28-2.03l-3.01-.42,3.91-2.37.73-14.53c1.51-1.66,1.58-4.05-.1-5.66l-1.03-18.75,1.13-.41c.35-.13.98,1.02,1.01,1.41.18,2.36,1.44,4.34,2.16,6.34l1.87,5.26,1.67,9.23c.47,2.62,2.04,4.57-.21,7.04l-2.08,2.28-.41,4.9Z"/>
        <path class="cls-2" d="M657.38,883.21l-17.58.97-4.5-.51-.41-1.33c-.13-.41,1.1-.81,1.54-.85l10.71-.89,3.9-.78,14.49-1.34,3.86-.96,11.42-1.47c5.37-.69,11.09-1.21,16.57-.95.98,1.19,1.91,1.7,3.57,2.41l-10.4.18-2.19,1.08-11.4.93-3.43,1.05-13.56,1.43c-.48.23-2.06.99-2.57,1.02Z"/>
        <path class="cls-2" d="M460.35,939.05l-.12,7.72c-1.89-2.16-1.81-4.42-2.53-7.05l-1.44-5.25-1.84-8.2c-.8-3.54-1.36-7.37-1.76-11.15-1.38-1.63-1.3-3.18.23-5.2.85-.57,2.81-.56,3.83.26s1.52,2.65,1.41,4.21c-.16,2.25.8,3.53.93,5.58l.48,7.22,1.09,5.33c.51,2.52,1.74,4.22-.27,6.53Z"/>
        <path class="cls-2" d="M1133.24,922.41l-1.32,5.16-1.52,7.45-2.09-.05-.05-27.83c-2.87-1.27-2.91-5-1.02-7.55.54-.73,2.54-.99,3.38-.68.31,3.11.72,5.5,1.81,7.99l1.05,10.92c.12,1.2.19,2.95-.23,4.59Z"/>
        <path class="cls-2" d="M1109.83,993.05c-2.98,2.06-6.75,2.99-9.25.25l-5.1-1.6c-2.04.66-3.73.66-5.18-.14,1.77-3.42,4.39-3.36,7.21-4.19l5.77-1.7,4.19-1.26c5.24-1.58,11.62-.71,10.67.63-.24.35-.89.94-1.32,1.13l-3.05,1.35c-3.64.43-6.48.95-9.56,2.55l6.46.23c.43.02,1.13,1.38.79,1.61l-1.64,1.14Z"/>
        <path class="cls-2" d="M649.27,931.65c-1.09,6.71.38,17.72-3.8,19.36-.73.29-1.88-.55-2.47-1.11-1.41-1.36.35-2.08.42-3.16l1.3-19.71c.32-.63.94-2.08.96-2.76l.33-10.32,1.85-.04,1.27,7.58c.24,1.43,1.27,3.16,1,4.85l-.86,5.32Z"/>
        <path class="cls-2" d="M726.87,939.7c1.75,2.55.81,6.13,3.29,10.58-.5.43-2.24,1.09-2.96.94-.82-.17-2.31-1.43-2.52-2.3l-1.49-6.14-.94-4-.96-21.1c-.02-.43-.05-1.67.32-1.66h1.59c.69.02.02,4.23,2.48,7.59l1.19,16.09Z"/>
        <path class="cls-2" d="M670.74,908.95c-5.57,1.24-11.18,1.37-16.99.81-2.72-.26-5.92-.16-8.37-.97l-5.09-1.69c-.5-.5,1.2-2.32,2.19-2.28l15.64.73c1.65.08,3.23.66,4.96,1.16,3.92,1.15,8.32-1.53,7.65,2.23Z"/>
        <path class="cls-2" d="M1103.49,1023.23c.86,1.81,2.06,3.24.63,5.22-3.67-.87-4.85-4.33-6.09-7.78-1.16-3.25-2.1-6.38-2.5-9.79-1.54-3.33-1.86-9.68-1.07-11.62.13-.32,1.12.38,1.27.71l2,4.39,1.39,5.79,2.44,9,1.94,4.08Z"/>
        <path class="cls-2" d="M1141.56,1215.48c1.56.71-3.1,5.68-5.94,6.1s-6.2.21-8.82-.43c-.88-.21-2.6-1.4-3.52-1.94-.64-.37-.72-2.4-.28-3.17,2.74-.99,6.39-1.66,9.31-.69,5.33,1.75,6.86-.95,9.26.14Z"/>
        <path class="cls-2" d="M963.49,926.5l-2.51-1c-1.56-.62-4.87-.78-6.31-1.62-3.56-2.08-5.65-2-5.27-3.69.23-1.04,1.5-1.42,2.47-1.64,3.34-.76,5.18.43,7.96,1.52l5.8,2.26c2.11.82,5.08.57,5.82,3.91l-7.96.27Z"/>
        <path class="cls-2" d="M354.15,676.29c1.4,2.92,3.65,5.4,1.09,8.79-2.48-.74-3.52-3.19-4.43-5.49l-1.48-3.73-1.08-3.15-2.49-7.3c-.86-2.51-1.19-5.02-.89-7.76l3.42,6.77,1.94,3.59,2.04,4.41,1.87,3.88Z"/>
        <path class="cls-2" d="M388.31,958.36c.58.36.41,2.33-.21,2.61l-2.78,1.23c-3.19,2.21-6.42,1.66-9.87.52-2.15-.71-3.96-1.47-4.81-3.43-.35-.81-1.57-2.54-.96-3,1.11-.83,4.47-1.43,5.46-.51l3.68,3.4c2.14,1.97,6.42-2.7,9.49-.81Z"/>
        <path class="cls-2" d="M377.45,1064.92l-3.14,2.45-6.88-3.82c-1.46-.81-4.27-1.42-2.87-4.18l8,.03,3.73,2.33c.8.5,1.84,2.66,1.16,3.19Z"/>
        <path class="cls-2" d="M745.19,961.83c-.52.61-2.58.54-3.19.18-.64-.38-.31-1.85-.29-2.78l.17-12.37,3.71-.54.18,9.76c.03,1.65.72,4.23-.58,5.74Z"/>
        <path class="cls-2" d="M903.19,912.47l-2.05,4.19c-2.41-.45-.42-2.55-.29-3.61l1.83-14.79c.14-1.14,2.01-2.6,2.96-2.12.22,2.47.17,5.51-.38,7.75l-2.07,8.57Z"/>
        <path class="cls-2" d="M661.11,955.45c-4.82.76-9.56.49-14.39-.24l-.96-1.62c-.19-.33,1.16-.57,1.58-.65l4.5-.92c4.55-.93,5.64,1.22,9.84.97l-.58,2.47Z"/>
        <path class="cls-2" d="M713.21,1228.4l-5.84-.73-3.35-1.65,3.95-1.54,6.35.1c.85.01,2.38,1.86,2.75,2.87-.71.74-2.64,1.1-3.86.95Z"/>
        <path class="cls-2" d="M349.29,701.82c-.96-.3-3.27-2.04-3.95-3.34-.32-.62,1.02-1.95,1.67-2.13.8-.21,2.14.24,3.08.71l3.66,1.81-2.61.77c-.52.15-.8.76-1.86,2.18Z"/>
        <path class="cls-2" d="M1149.46,740.27l-1.86,3.29c-2,3.54-5.78,5.1-9.47,2.97l4.28-5.96,4.2-6.06c1.38-1.99,3.06-4.53,3.95-6.62l2.16-5.08,1.71-4.67c2-9.23,1.81-18.53,0-27.8l-1.37-3.87-1.38-4.05-2.42-5.62-1.79-4.08-1.81-4.27-1.65-3.29-2.58-6.01-1.92-3.54-2.14-4.32-2.05-4.48-3.06-6.67-2-4.47-2.28-5.96-2.08-5.37-2.09-6.07-2.26-6.9-1.74-5.32c1.01-.11,1.82-.22,1.97.06l.9,1.7,2.29,5.28,2.09,5.51,1.73,4.6c.52,1.38,1.08,2.29,1.79,3.66l1.97,3.78,2.8,7.52,2,4.43,2.17,4.33,2,3.99,2.33,4.64,2.01,4,2.36,4.68,2.28,4.66,2.05,4.55,1.85,3.94,2.46,6.81,2.24,7.32c1.62,9.05,1.39,18.26-.31,27.14l-1.45,4.36c-.53,1.58-.79,3.09-1.46,4.45l-2,4.02-2.3,4.63-2.11,4.17Z"/>
        <path class="cls-2" d="M859.4,779.48l-21.92-.08-4.83-1.97c-1.58-.65-3.52-3.07-4.98-4.59,14.8,1.23,29.16,1.3,43.7-.1,1.17-.52,2.63-.96,3.9-1.07l9.29-.83,4.83-.98,12.28-.75c-2.39,2.06-5.31,2.28-8.26,3.06l-8.26,2.16-8.19,1.93-2.17,1.08-11.71,1.22-3.69.93Z"/>
        <polygon class="cls-2" points="503.91 769.35 504.27 769.35 504.62 769.36 504.27 769.37 503.91 769.37 503.55 769.36 503.91 769.35"/>
        <path class="cls-2" d="M1008.57,1254.85l-1.77-9.26-1.42-6.12c-1.75,2.6-2.23,6.12-.37,8.96l.93,16.73-.02,6.19c-7.6,2.42-2.36,11.93-10.67,11.5v-2.94s-4.9.5-4.9.5l.44-9.4c.06-1.23.55-2.73,1.22-3.86l.53-29.01-.59-19.29c-.41-.93-.99-2.81-1.03-3.83l-.33-8.24-.12-21.13c0-1.2-.91-2.73-1.39-3.97-1.64-4.26,1.85-9.02,1.84-10.99-.02-3.75-.46-7.33-1.35-10.73l-1.08-4.14-1.63-5.28-2.17-6.53-1-3.86-1.32-3.54-2.12-4.97-2.02-4.84-2.21-5.98-2.22-4.79-2.17-4.33-2.07-3.92-7.05-11.32-4.94-7.02-2.02-2.85-4.6-6.38-4.52-5.6-5.35-8.68-1.79-3.43c-.12-.23-.28-1.12-.32-1.38-.06-.38,1.25-.08,1.49.13l4.33,7.4,4.13,5.06,2.97,3.55,4.81,5.41,3.62,4.63c5.79,7.42,10.64,15.27,15.26,23.56l3.47,6.23,2.05,4.29,2.42,5.67,1.97,4.61,1.91,4.53,2.52,6.72,1.51,6.19,1.88,6.73,1.85,2.49c2.77,3.72.83,5.81,3.3,7.94l.06,11.4c.01,2.21,1.69,4.27,2.22,6.15l2.06,7.29,1.07,8.65c.15,1.18.5,2.37,1.15,3.38l.17,20.39c.01,1.39.63,3.99,1.05,5.25l1.62,4.88,1.11,4.14,2.13,7.79,2.07,8.21,1.8,8.02c1.2,5.35,1.75,10.59.83,15.87l-1.4.91c-.31.2-.43-1.28-.53-1.66l-.98-3.95-1.5-7.25-1.33-5.09-1.45-5.84ZM998.74,1204.07l-1.82.13c-.1,2.52.41,4.59,2.33,6.72l-.51-6.85Z"/>
        <path class="cls-2" d="M867.28,1298.17c-.5-.88-1.56-2.64-1.79-3.5l-1.79-6.84-1.63-11.66-.83-3.94-.93-10.93c-.09-1.1-.52-2.3-1.15-3.33-1-11.58-.86-23.2.11-34.82.46-.9,1.06-2.37,1.14-3.26l.79-9.4.98-3.34,1.44-12.64,1-2.23,1.08-15.07c.88-1.43.98-2.93,1.41-4.61l1.52-5.87,2.39-7.38,2.25-5.94,2.08-5.38,2.23-5.9,1.75-4.18,3.27-6.73,2.49-4.58,1.96-3.92,2.32-4.64,2.02-4.03,2.21-4.13,2.25-3.77,2.28-4.24,1.92-3.43,2.09-3.86,2.21-4.34,2.2-4.31,2.22-4.07,2.53-4.62,1.75-3.17,4.01-5.7,2.79-3.6c1.55-2,3.69-4.03,5.63-5.58l5.15-4.11,4.83-1.67,4.93,1.34c.43.12,1.04,1.07.91,1.46-.61,1.78-3.58-.75-6.32,2.68-1.02,1.28-2.65,2.17-3.79,3.17-7.79,6.83-12.54,13.51-17.49,22.54l-2.52,3.36-2.52,4.47-2.13,3.85-1.9,3.39-2.02,4.03-2.35,4.69-1.86,3.84c-.66,2.43-1.39,4.25-2.44,6.4l-6.73,13.83c-.82,1.69-1.03,3.47-2.02,5.02l-1.93,3.01-2.34,5.73-2,4.87-2.25,6-2.2,5.72-2.01,6.21-1.8,7.49c-.69,2.89-1.04,5.89-1.23,9.09l-1.15,4.54-2.11,9.55-1.48,12.25c-.05.45-.77,1.66-.97,2.03l-1.37,14.22-1.09,3.34.02,21.73.92,4.5,1.76,13.1.82,3.97,1.49,12.36,1.63,8.88c.17.9-1.03,2.08-2.6,2.05Z"/>
        <polygon class="cls-2" points="907.03 1074.67 907.4 1074.67 907.75 1074.68 907.4 1074.69 907.03 1074.69 906.68 1074.68 907.03 1074.67"/>
        <rect class="cls-2" x="906.21" y="1076.11" width=".38" height=".38" transform="translate(-495.58 956.16) rotate(-45)"/>
        <path class="cls-2" d="M530.49,541.91c1.56.94.31,3.53-1.1,3.99-1.28.41-2.49.38-3.37-.08s-1.39-2.85-.6-3.46c.96-.73,3.98-1.1,5.07-.45Z"/>
        <path class="cls-2" d="M197.94,541.08l-.81-.29c-.23-.08.1-.98.31-.86l.75.41.29.61,5.76.38-5.74.29-.56-.54Z"/>
        <polygon class="cls-2" points="1154.74 762.5 1151.73 762.64 1151.44 762.18 1154.44 762.03 1154.74 762.5"/>
        <polygon class="cls-2" points="835.43 522.51 832.37 522.72 832.07 522.26 834.57 522.06 835.43 522.51"/>
      </g>
    </g>
  </g>
</svg>