<?xml version="1.0" encoding="UTF-8"?>
<svg id="Livello_2" data-name="Livello 2" xmlns="http://www.w3.org/2000/svg" viewBox="0 0 1344.84 1464.1">
  <defs>
    <style>
      .cls-1, .cls-2 {
        fill: #65342e;
      }

      .cls-2 {
        font-family: Manrope-Bold, Manrope;
        font-size: 421.97px;
        font-weight: 700;
      }

      .cls-3 {
        fill: #fff;
      }
    </style>
  </defs>
  <g id="Livello_1-2" data-name="Livello 1">
    <g>
      <rect class="cls-3" y="13.02" width="1344.84" height="1451.08" rx="81.63" ry="81.63"/>
      <g>
        <path class="cls-1" d="M1177.97,765.26c6.64-.52,11.45,4.86,10.65,11.46-.48,3.97-.02,7.94.46,11.79l.81,6.4c.43,3.41.63,6.64-.04,10.22l-32.57,6.92.96,33.82c5.72-1.9,9.91,5.97,10.06,8.83.08,1.41-2.58,3.24-4.05,3.37l-6.34.54-.64,47.78c2.88.38,5.45.42,9.32.29l2.8,8.91c.47,1.51-1.81,4.77-3.48,5.01-3.24.47-5.72.2-9.12-.19,2.75,2.33,1.75,4.76,1.81,7.68.14,7.51.52,14.93,1.59,22.09l3.32,22.39c1.24,8.35,1.95,16.53,2.39,24.94.3,5.67-1.19,13.99-2.16,19.83-1.35,8.16-2.17,15.95-2.63,24.22-1.2,21.55,3.62,33.76,2.61,51.67-.56,9.93-1.45,19.38-2.74,29.31-1.17,8.99-.67,17.61-1.04,26.15-.25,5.75-2.46,11.39-3.79,16.84-2.51,10.26-2.36,19.43-2.28,29.52,0,1.02-.56,3.18-.73,4.19l-5.28,1.86c-.49.17-2.02-.51-2.45-.8-.53-.37.19-1.87.51-2.6-1.16-7.74-1.63-15.99-.65-23.99-2.25.94-4.32.94-6.77.95-11.96.05-23.25,4.52-31.69,12.41-3.8,3.55-8.77,8.59-6.25,14.19,13.82,6.58,25.22-7.47,32.54,5.37-8.42,2.99-.51,5.19-14.25,9.63-6.64,2.14-12.49,2.35-19.48,1.26-38.03-5.9-32.38,2.85-67.98-2.57l-34.74-5.29c-13.21-2.01-25.89-2.11-39.18-1.64-21.33.75-41.81-.03-62.89-2.08l-24.48-2.38-13-1.35c-15.33-1.59-24.08-1.4-37.91-.81-.24.01-1.35-1.8-1.24-1.63s-.87,1.59-1.11,1.59l-17.59-.31c-11.56-.2-22.29-1.03-33.62-1.83l-9.57-.68c-8.47-.6-16.75-.63-25.32-1.93l-39.35-5.95c-10.49-1.59-20.88-.45-31.41.78-8.96,1.05-21.03.82-29.93.06-18.57-1.59-25.19-2.73-43.31-6.76l-15.03-3.34-12.41-2.59c-3.3-.69-6.75-1.55-10.07-2.04l-27.11-3.99c-13.49-1.98-26.63-1.29-40.03-2.19l-28.49-1.91c-37.85-2.54-80.63-16.91-123.31-21.42l-28.76-3.04-42.36-2.97c-15.43-1.08-30.37-1.1-45.93-1.19l-7.46,3.74c-.23.11-1.47-.05-1.37-.28l.78-1.67.62-1.31c.11-.24-.9-.43-1.31-.49l-14.94-2.35c-.8.53-2.53,1.67-3.45,2.18-.99.55-3.15-1.77-3.49-2.93l-3.06-10.53c-2.5-8.61-4.55-17.72-3.48-26.78l4.15-35.42c1.65-14.1,2.05-27.57,1.54-41.69-.86-23.9-1.27-47.17-.71-71.19l.98-42.35.23-17.74c.23-17.95-.56-35.15-1.55-53.1-.96-17.44-.76-34.3-.51-51.78-6.09.96-11.96.65-18.25-.5l-7.19-1.32c-2.12-.39.5-1.01-.26-8.74-2.03-20.72,1.19-21.25.92-29.75-.03-.9-1.15-3.02-.97-3.91.38-1.93,9.13-3.86,10.98-3.72,6.7.51,16.63-.99,17.05-.34.18.28,1.14-11.65,1.13-13.09l-.06-32.65c-.03-17.62-2.7-34.41-5.43-51.73-6.86-43.56-4.37-76.06-.23-119.53,1.24-13.01,2.29-25.25,2.74-38.12.27-7.76-1.15-15.27.68-23.23.8-3.48-1.05-5.75-3.33-8.38.94-1.1,2.14-1.59,3.97-1.58l1.39-11.88c1.4-11.95-2.4-9.19,1.22-12.62,12.41,9.24,5.62,15.89,7.01,27.24,7.6-1.58,14.02-3.76,19.98-8.15,1.57-1.16,3.2-4.5,4.72-6l-6.51-.46c-5.43-.38-13.46-.38-16.58-4.76-1.74-2.44-1.91-5.56-.27-8.24,7.17,1.25,13.76,1.52,21.06,1.48l24.08-.12c6.05-.03,11.52-.41,17.44-.58,11.46-.33,22.4-2.09,34.14-1.11,14.18,1.18,27.9,1.56,42.14,1.68,22.86.18,35.96,5.86,58.19,4.45,12.63-.81,24.47.42,36.93,2.15s23.99,2.23,36.29,2.82c6.18.3,12.23-1,18.32-1.15,9.7-.24,18.96-.23,28.62-.97,27.21-2.08,30.52,8.77,50.25,5.58,11.71-1.89,23.12-3.09,34.85-1.36,5.61.83,11.24,2.01,16.91,1.97,13.53-.08,26.23.6,39.46,2.66,15.57,2.42,30.79,1.98,46.48,0,16.77-2.12,28.04.88,49.39-1.63,13.13-1.54,25.8-3.16,39.01-2.67,9.98.36,19.55.18,29.44-.55l15.9-1.17,15.47-1.17c10.43-.79,20.49.74,30.81,1.64,15.28,1.33,30.28.76,45.7.48,1.11-.02,2.25,0,3.67-.09,12-.85,23.88-1.1,35.66-.17l4.85.39,13.7,1.08,8.02.73c1.97.18,3.29.23,5.11.26l27.3.45c9.97.16,19.55-.74,29.51-1.63l14.55-1.3c10.06-.9,19.38-1.52,29.42-3.52,6.25-1.25,11.44,3.52,22.75-.32,7.62-2.59,16.01-3.07,24.12-3.21,3.85-.07,4.13,7.13,4.08,9.61-.13,6.56-6.87,3.94-13.62,5.08-21.66,3.66-11.31,5.2-35.01,3.12-.63-.05-2.84.2-2.79.74.9,11.2,9.31,23.66,19.07,29.89,8.83,5.64,18.54,9.15,29.05,10.8.35.05,1.6-.18,1.65-.52s.19-1.48.18-1.83l-.65-28.97c-.1-4.37,3.39-23.77,5.69-21.43,3.99,4.09,2.16,9.13,1.56,14.24-.81,6.88.08,13.87.22,20.91l.3,16.01v1.71c0,.26.41.11,1.04.08l2.45-.09c.48-.02.13,1.9-.31,2.11-2.22,1.08-4.03,4.54-3.69,7.58.52,4.68-.27,9.27-.2,14.03.12,8.68.22,17.13,1.28,25.72,2.35,19.11,4.04,37.71,1.3,56.91-4.19,29.31-5.66,39.16-2.23,69.24,1.03,9.05,2.12,17.9,2.01,27.15-.27,22.45-.59,44.44.6,67.06l.55,10.51,1.17,23.07.61,8.36c-.15.54-.43,1.11-.17,1.13s1.61.14,1.94.1l11.02-1.35c4.82-.59,10.61-.97,14.95-2.65.98-.38-3.67-19.16-1.9-23.49.39-.94-19.88,2.76-22.58-4.23-.56-1.45.18-5.29,1.91-5.24,5.65.15,10.6.33,16.03-.09ZM161.13,745.82l-1.63,12.99c-1.35,10.77.06,12.97-1.48,22.16l22.36-1.09,2.12-39.71c-.11.24-1.73,2.72-2.61,2.85l-18.75,2.79ZM190.6,1017.72c1.16,31.18-.35,45.41-4.74,75.09,8.14-.43,16.49-2.36,21.79,5.82.91,1.41,2.62,3.26,3.27,4.59,3.36,6.96,4.05,14.57,4.71,22.11,19.15-.16,37.65.97,56.5,2.41l29.78,2.27c21.04,1.61,41.34,4.19,62.03,8.16l13.43,2.58c.26.05.77,1.83.87,2.08.55,1.47.59-1.81,2.1-1.46l19.19,4.37c.32.07,1.47,1.71,1.44,2.04s.88-.9,1.3-1.39l20.33,4.07,23.08,3.45c.48.07,1.25.25,1.25.19,0-.07.02,1.04.03,1.31,0,.32,1.44.98,1.46.65s.05-.45.27-1.7c1.56-.08,3.63.27,4.29,1.12l-2.37.85c-.3.11.98.64,1.32.62l.89-.08,1.36-2.3c.23-.38,1.51.22,1.64.63l.75,2.49.55-2.53,13.22.62c-.1,1.37-.35,2.69.2,2.67l2.28-.09c1.45-.51,2.5-.89-.13,0-.65-.8-.77-.93-1.55-2.32l19.18.1c.51,0,.87,1.73.55,1.89-.25.12,1.08.03,1.14-.23l.38-1.7,12.95.13c2.96.03,5.02-1.28,6.85,1.21-.09,2.51.05,1.9.31-.19.72-.48,2.96-1.5,3.63-.98l2.11,1.63c.79-.55,2.64-1.17,4.19-.95l14.46,2c.36.05.65,2.91.79,2.59l.59-1.27.58-1.26,13.33,2.82,29.75,6.94,4.56,1.05c20.84,4.79,41.68,7.53,62.99,6.91l.42,3.14,1.31-2.84c.27-.59,2.35-.4,3.7-.44,3.3-8.51,5.62-17.77,6.96-27.26.21-1.48-1.89-8.87-3.9-10.54l2.86-4.08,3.73-18.59,4.58-23.18c3.35-16.99,2.65-33.84,6.74-50.88,2.14-8.91,3.44-17.78,4.94-26.86,1.85-11.26,2.43-22.23,3.21-33.67,1.11-16.39,2.65-32.02,4.9-48.25l5.01-36.21c-4.55-.09-20.98-7.57-23.76-9.24-10.9-6.55-20.72-14.26-28.62-24.11-6.79-8.47-12.54-17.75-13.33-28.63-.54-7.39-1.28-14.97,1.49-21.5l9.19-21.67-2.54-28.63c-1.52-17.11,19.64-36.26,34.29-43.32,9.26-4.46,19.03-5.42,29.47-6.74l-.77-16.14-1.83-60.87c-.56-18.63-2.93-36.45,1.13-55.1,5.45-25.03-.86-38.35.29-63.23.7-15.07,1.04-29.55.91-44.62-.06-6.34,2.27-16.42-.29-16.18-13.62,1.3-28.42,1.94-41.99.46-10.82-1.17-21.26-2.53-32.12-2.98-7.64-.31-14.98.08-22.58-1.54-10.65-2.27-21.21-1.77-32.04-.56l-14.27,1.59c-12.85,1.43-17.4-8.82-47.1-5.69-8.42.89-16.38-.26-24.52.16l-18.89.99c-23.27,1.22-45.98-5.75-70.81-5.25-9.08.18-17.66.19-26.8-1.15-12.52-1.83-24.64-3.16-37.29-3.39-9.22-.17-18.02-.44-27.13-1.1l-5.53-.4c-14.45-1.05-28.67-1.42-42.49,3.08l-3.67-4.96c-4.59.49-8.95,2.07-13.01,1.84l-9.98-.55-8.52.27c.35,1.61.71,5.05-.23,6.62-6.32,10.58-9.19,12.72-20.93,16.13-2.93.85-6.16.59-8.85.23-1.64,7.99-1.74,16.07-.97,24.16.44,4.61.08,8.95-.28,13.68l-2.94,38.17-2.57,29.24-.78,21.44c-.3,8.18-.28,15.92.02,24.34,22.5.81,44.2.69,66.51-.88l22.64-1.59c-2.94-1.57-4.72-2.54-6.28-4.28l-4.42-4.9.81-1.63c.1-.21-.73-.13-.96-.08l-1.55.29c-2.01-2.02-5.48-5.55-7.56-7.98l-8.44-9.9c-1.37-1.6-3.46-3.25-4.52-5.05l-5.94-10.09c-7.09-12.04-.79-1.6-7.56-8.92l-6.54-7.08c-2.46-2.66-6.65-4.77-5.17-9.79.42-.03,2.7,1.46,3.36,2.22.6.69-.16,1.6-.85,3.38l4.67-.48c3.98,8.23,7.05,3.14,5.43,8.96,1.47.3,4.1.92,4.5,1.14-.52,1.83-.9,3.75-.12,4.01.67.22,2.08.27,3.51.37l2.33,4.59c.41.81,2.3,1.87,2.22,2.77l-.4,4.63,2.74-1.95,1.49,2.91c2.35,2.47,4.64,5.28,6.99,8.12,1.68,2.04,4.28,4.33,5.41,6.34-1.19,1.29-1.54,1.68-1.51,1.65,3.14.3,4.63.41,5.94,2.83.69,1.28,2.84,2.23,3.73,3.21l9.61,10.69-3.68-.48c2.47,3.76,9.43,1.83,6.88,3.64l-1.09.77c11.1-.56,22.13-.45,32.96,2.87.43.58-.38,2.54-1.12,3.32-.56.59-1.66.66-3.3.67,1.63,2.87-3.08,3.49-3.75,5.2-3.2,8.2-2.74,17.86.16,25.97,4.91,13.74-1.43,17.46-.93,27.36.34,6.78,2.58,14.02.12,20.34-6.62,17.02,3.46,18.18-1.81,37.45,7.01.93,14.16,1.63,19.62,6.08,7.39,6.02,11.54,14.59,13.88,23.68,1.5,5.84,3.18,11.63,2.43,17.83-1.44,11.91-14.63,22.87-23.46,31.48-3.77,3.67-7.65,6.52-13.98,4.66-3.43,13.95-3.52,27.63-1.23,41.73,2.62,16.08-2.87,30.28-1.56,45.06.62,6.98.52,13.2-.08,20.25-.22,2.6-.02,5.77-2.65,6.47-2.64.7-5.55-.95-6.07-3.94-.48-2.78-.66-6.39-.21-9.22.95-5.95.09-11.13-.1-17.15-.56-17.46,4.12-27.25,1.46-44.62-2.12-13.83-1.7-27.07,1.33-40.67l-6.19-4.2c-2.18-1.48-1.75-7.16,1.02-8.11,1.44-.49,4.15-.5,5.65-.51-.79-10.3-.31-20.48,1.4-30.88,3.24-19.63-2.98-23.9.47-44.84,2.58-15.67-3.37-15.87.01-31.11l2.59-11.66c-4.7-18.79,4.97-23.25-.31-37.32-1.84-4.91-1.75-10.58-2.34-16l-6.31-7.07c-10.19.15-19.65.55-29.71,1.78-22.66,2.76-44.9,2.63-68.45,1.89,1.07,9.13,2.45,18.17,4,27.43,2.65,15.72,3.72,35.39,3.67,51.5.88-.65,1.99-1.52,2.76-1.73.61-.16,1.94.72,2.78,1.05,6.14,2.4,12.82,2.73,19.52,2.55l24.17-.63c3.37-.09,5.69,2.45,7.56,4.62,10.2,11.84,6.51,23.46,5.06,37.47-.58,5.67-1.15,11.42-1.28,17.09l-.65,28.05c-.15,6.27.33,12.76-2.66,18.53l-4.27,8.26c-12.58,3.07-10.84.84-24.79,4.85-5.25,1.51-27.06,5.51-31.48,1.88,1.24,24.23,2.11,47.82,1.77,71.82l27.68-.23c9.1-.08,17.98.9,26.98,1.9l32.02,3.59,5.3,6.38c.69.83.33,3.86-.32,4.66s-2.92,1.5-4.18,1.37l-27.82-2.89-31.25-2.77c-3.1-.27-6.94-.16-10.18,0l-18.33.89-.34,13.23c-.79,30.98-1.22,61.16-.05,92.71ZM202.99,1102.16c-7.16-4.62-12.03-.72-17.78-3.13-.45,8.13-.53,17.14,2.95,24.53,6.46,2.41,13.58,2.25,20.08,1.59-.46-8.24-1.68-15.8-5.26-22.99ZM235.06,729.65l3.14,4.31.96-2.59c.15-.41,1.21.96,1.55,1.48l5.46,8.37-3.32,1.88c-.68.39,1.96,2.15,2.56,1.6.5-.46,1.45-1.88,1.53-2.62l1.1-10.74c.47-4.59-.89-10.14-1.72-13.99-11.72,3.02-32.06,3.8-42.71,1.44-9.33-2.07-7.08-9.71-10.95-11.28-.17,12.35-.26,23.56-1.19,35.8-1.87,24.49-2.78,48.44-2.31,73.82,19.02-5.44,34.15-.53,54.01-4.72l1.51-13.42.95-50.36c-2.43.27-5.2-5.82-4.17-6.74l1.98-1.75c-.67-.08-1.85.18-4.12.82-1.51-2.68-8.15-13.13-7.4-15.81.11-.39,2-1.18,1.75-1.51-.32-.41-.65-1.13-1.04-1.02l-1.56.42-1.67-.15c-.31-.03-.58-1.47-.28-1.56l1.73-.52c1.27-.39,3.79-.64,4.13.39.34,1.04.33,2.99.23,4.03,1.82,1.16,3.75,3.51,3.85,6.25l-3.98-1.83ZM244.27,577.27l2.09,2.85.04-2.56c0-.42-.99-.36-2.13-.29ZM265.59,599.05c-1.29,2.93-.15,4.1,1.98,4.76l-1.98-4.76ZM297.13,740.46l1.06,13.23c1.92,23.87-4.21,28.17-2.04,50.6,3.91,1.87,7.07-.93,9.53-3.43,6.33-6.44,12.43-12.58,17.92-19.71,2.5-3.24,3.59-7.4,2.52-11.41-1.55-5.78-3-11.65-5.44-17.03-4.06-8.95-18.23-4.76-23.56-12.25ZM510.9,1158.11c-.67-1-3.54-.48-3.68.8.75.47,3.11.01,3.68-.8ZM530.16,1159.27l-3.37-.02,1.47,1.61c.28.31,1.08-.65,1.9-1.58ZM697.7,814.56c-7.59-6.68-5.64-11.63-1.96-19.35,2.96-1.45,2.93-3.56,3.05-6.5l2.47-60.87c-19.73,1.01-37.33,10.17-49.48,25.76-5.91,7.57-7.89,17.6-5.98,26.66l1.79,1.39c.59,2.19,1.53,3.79,2.66,5.92,1.28,2.41,1.46,8.14.3,10.91-4.3,10.24-9.63,19.44-12.85,30.01-3.26,10.69,1.52,21.64,8.99,29.17,6.27,6.32,12.61,11.76,20.4,15.93l3.48-5.15-.65,4.86c1.49-.84,2.15-1.42,3.78-2.98l.29,4.87c.04.64.73,2.92,1.31,2.64l1.96-.97c1.5,1.9,3.8,3.75,6.31,4.51l11.03,3.32,1.09-23.47,2.02-46.65ZM1014.38,755.36c6.91-4.42,6.77-4.64,13.31-9.35l3.58-36.8,4.35-47.3c.9-9.78,2.45-18.94,2.88-28.71.31-7.06-6.57-4.92-2.48-16.05,5.92-3.29,12.36-2.25,18.65-1.89l21.07,1.23c12.64.74,25.38,1.83,37.84,1.91l2.28-4.21c.15.31-.24-.5-.65-1.36l-3.6,2.06-1.69-3.07c-.34-.62,4.31-2.2,4.31-2.21l1.42,1.22c2.17,1.86,3.01,4.91,1.33,7.4,8.83-.24,16.55-.15,26.13.83l2.46-17.73c2.2-15.9,3.45-31.53,1.37-47.64-2.35-18.22-3.58-35.85-2.37-54.19-.01-1.24,0-1.93-.48-1.91-6.9.3-14.46-1.25-21.15-3.74-15.6-5.81-27.02-16.71-32.06-32.94-1.06-3.4-1.15-7.95-1.38-11.55-4.94.85-9.3,1.22-13.9,1.54l-15.57,1.06-28.46,1.77c-21.1,1.31-41.55-.05-62.67-2.11-32.9-3.21-59.92,2.26-89.98-.23-15.47-1.28-29.94-2.59-45.46-.96-12.79,1.34-25.28,2.38-38.19,2l-8.38-.25c-28.59-.84-40.14,7.42-76.34,3.51-.74-.08-1.75.26-1.72.55s.13,1.23.11,1.6l-.78,12.42c-.88,14.05.55,27.78-.4,42.01-.74,11.11-.44,21.59.9,32.7,4.48,37-6.34,44.05-3.24,79.69,1.54,17.67,1.84,34.73,2.28,52.45l.88,35.4,5.5.29c19.76,1.05,22.68,4.68,35.84,17.71,12.57,12.45,22.32,17.79,33.54,31.51l.08-3.21,1.6-.99,3.05,5.31c.2.35-.47,1.83-.81,1.62l-2.01-1.26c.04-.45-.04.42-.13,1.34l2.66,4.82,4.92,8.93c2.35-2.64-3.94-8.31-2.82-9.31,2.36,1.02,3.39,2.91,4.49,5.3l2.72,5.91-1.78,1.66c-.92-1.36-1.05-1.54-1-1.47l.96-1.79c.11-.21-.69-.25-.91-.13l-1.61.95c1.53,8.94,3.67,17.86,2.58,27.15-2.7,22.85-6.89,37.94-19.78,57.08-6.41,9.52-13.7,17.82-22.92,24.81-5.35,4.06-11.68,5.9-18.25,8.96l2.44,1.55c-2.07-1.32,4.39,9.74,2.41,9.79l-6.16-11.75c-9.23,2.09-20.28,2.49-30.7.67-1.79,26.86-7.24,50.05-8.54,77-.99,20.47-2.93,40.2-6.59,60.38l-2.93,16.18c-2.5,13.83-5.3,27.31-5,41.5.11,5.05-.57,9.37-2.23,14.1-2.19,6.27-2.14,13.04-3.58,19.53l-4.19,18.97c-.37,1.66-1.17,3.7-1.47,5.5l-1.96,11.77c-1.19,7.15-5.94,7.24-7.78,13.32l15.92-1.65c16.66-1.73,36.23,4.12,51.28,5.62l61.5,6.15c9.23.92,18.16.58,27.46.07l2.6-.14c.52-.03.48,1.2.89,2.63-.26.4-.19.29.37-.57-.01-.73,1.25-2.65,2.2-2.64l22.76.24,5.82.53c.96.09,1.9-.2,1.97.29l.41,2.66c-.09.08.97-.81,1.2-1.01.07-1.41.06-2.2.4-2.13s1.29.26,1.81.31l15.18,1.47,7.34.69,19.13,2.05c6.99.75,11.34.59,17.54,1.18l13.83,1.32.55,2.02c.07.26.48.16.53-.1l.44-2.14,4.65.69,11.96.14c2.35.03,7.87-.88,8.18.45l.46,1.97,1.05-2.66c.23-.59,2.28.46,3.06.4l7.79-.56c4.56-.33,12.99-1.33,15.43,1.17-4.15-4.24,45.48,3.28,47.86,3.68,13.26,2.23,24.16,3.83,36.81,2.41,8.53-.95,16.61-1.62,26.06-.27,3.98-23.98,31.59-34.74,53.45-33.45l2.94-11.76c1.55-6.2,1.89-12.49,1.93-18.87.06-10.06,1.87-19.75,3.17-29.79,3.26-25.14-1.96-35.5-1.57-54.98.15-7.47.11-14.95,1.15-22.05l3.2-21.84c1.05-7.2.8-14.31-.26-21.44l-2.39-16.02c-2.22-14.87-3.62-29.48-4.51-44.35l-8.08-1.22c-1.27-.19-4.11.25-5.19.29-.02.76-.05,1.98-.04,1.82-18.68,3.14-25.41,4.78-44.13,3.18l-10.34-.88-32.81-.65c-5.33-.11-11.07.05-16.41.72-1.28.16-2.67,3.12-3.03,4.36l-.83-1.9c-.16-.36.43-.8,1.2-1.78-.21-.3-2.82-.25-2.86.52l-.39,6.5c-.06,1.06-1.64,3.14-2.69,3.29s-3.63-.66-3.96-1.2c1.36-3.49,2.19-6.81,1.8-10.01l-3.49,1.59c-.61.28-1.86-1.45-1.57-2.06,1.88-3.85,4.17-2.75,3.62-9.92-1.21-15.84,2.78-14.24.03-29.23.52-.25,2-.31,2.23.13l.99,1.82c1.02-1.16,1.69-3.72.87-5.57-4.44-10.05-1.75-20.74,4.82-29.18-4.56.1-8.29-.78-12.23-2.26-4.93-1.85-10.08-3.41-15.24-4.68-8.62-2.13-14.91-7.9-17.06-16.66l-1.76-7.18-5.04-8.12-2.82-10.49c2.3-.58,6.26,1.34,5.23,3.41l-1.23,2.48c-.42.85,3.45,1.73,2.78,2.96l-.9,1.66,1.82,5.37c-.38-25.27,9.4-53.7,31.31-67.72ZM724.57,806.66l3.49-2.65-.35,6.05c1.43-.52,3.16-1.67,4.57-2.83.78,1.78-.5,5.65-2.41,5.72-.8-.18-2.53-1.51-3.04-.87l-2.18,2.73.24-4.04-6.79,3.02c-3.27,1.45-7.63,2.15-10.96,2.39l-.39,6.85-3.02,62.54c15.16,1.16,31.81-1.38,43.71-10.83,22.38-17.77,39.31-48.83,38.41-77.92-.83-26.82-20.47-34.2-30.4-44.81l-13.09-13.99c-8.14-8.7-14.35-8.58-24.76-10.29-2.83-.46-5.85-.85-8.47.52.84,21.73.07,42.54-1.52,64,12.29,4.46,7.47,9,16.94,14.41ZM1027.98,842.69c-4.23-29.95-3.61-53.94-1.51-82.9-5.34,4.36-9.93,7.98-14.49,12.42-15.09,14.67-22.24,36.15-19.62,56.74,2.6-.04,3.53,2.66,5.1,3.51l14.53,7.82,8.82-4.3c.99,3.23,1.5,5.78,1.33,8.79,1.4.51,4.38-.25,5.84-2.07ZM1028.04,912.5c.4-.51-2.18-.11-2.15.51l.11,1.9c-.19,2.46-.63,5.06.15,7.42l1.89-9.83ZM1030.65,918.01l-1.02,1.37c-.34.46.19,2.58.74,2.5l2.42-.38c.6-.09-1.44-4.43-2.14-3.49ZM1132.52,658.54c-1.9-.07-3.49-.84-4.1-2.19-.86-1.88-.1-3.43,1.13-4.38-1.55-.1-4.59-1.88-3.71-3.07.32-.43,2.36-1,2.05-1.32l-.86-.88c-.24-.24-1.93.59-1.9.27l.31-3.54c-2.12-.75-2.83-2.01-3.52-4.04l-2.34-6.82c-10.1-1.86-21.61.14-33.66-.75l-33.44-2.48c-2.95-.22-6.1-.44-8.21-.39l.64,10.89c.17,2.9.14,5.8-.06,8.83-.38,5.8-2.35,9.18.77,8.47l.67-3.47,3.92,8.44,5.9,11.91-4.42,2.14,1.2-3.79-2.61,1.63c-.4.25-1.2-.8-1.2-1.25,0-.3.67-.98.99-1.07l2.11-.63c.45-.14.1-1.89.02-1.71-1.3.76-2.64,1.81-3.05,1.27-.49-.63-1.42-1.96-1.76-2.57l-3.94-7.09-3.62,44.97-4.6,52.48-1.9,31.14-.29,10.59c-.37,13.35-.44,27.17,2.33,40.2.7,3.28,1.85,5.23,1.55,9.05-.42,5.32,1.38,10.68-1.15,15.81-4.34,8.81-9.36,15.25-.36,25.08,2.26,2.46,2.46,5.21,1.31,8.46l53.19,1.92c19.73.71,38.63.26,58.91,5.02l.52-46.85-23.6-1.54c-10.9-1.39-21.38-.66-31.72,2.74-3.25,1.07-7.04-.2-8.21-3.64-.94-2.76,2-6.25,1.92-8.6-.61-17.71-7.87-30.28-4.89-53.5l4.48-34.86c1.41-10.98,3.11-21.38,3.77-32.54.33-5.47,1.38-11.63,2.91-16.77,5.68-3.97,12.46-3.72,18.89-4.63,13.16-1.86,20.01-2.33,33.24.83-.11-2.28-.14-4.83-.04-7.27.46-10.58-.84-20.71-2.01-31.41-1.62-14.73-2.16-28.79-1.18-43.12-1.66,10.07-13.22,4.61-20.56,8.03l3.93.51c3.71,8.81,2.46,20.95,9.1,24.91-.7,1.43-1.22,3.57-.72,4.17,1.37.55,2.41,1.21,2.38,2-.04.88-1.69,2.42-2.42,2.47l-2.96-5.19.88-2.87ZM1048.41,913.16c-4.9-.85-9.48-.84-14.68.42,2.4,1.74,5.13,2.13,7.22,1.57l7.46-1.99ZM1071.21,913.56c-10.84-.03-10.31-1.54-22.02,1.72,8.3.26,16.53.04,25.08-.36l12.62-.59c-5.05-2.81-10.15-.77-15.68-.78ZM1089.99,916c.4.07,2.33.28,2.17-.08l-.77-1.78c-.16-.36-.84.18-1.12.46-.19.19-.54,1.36-.28,1.41ZM1145.85,718.94c-15.65,2.59-13.73-1.49-32.41,1.41-4.8.74-9.54.51-14.59.68-.28,2.01-.5,3.81-.67,5.57l-3.16,32.87c-.27,2.82.35,6.18.47,8.5-2.78,1.07-2.21,4.45-1.28,7.28,2.09.12.59.64-1.26,1.19-.98,9.93-2.23,19.58-2.71,29.83-.5,10.81,5.78,27.53,6.72,38.95,19.59-2.92,34.02,1.36,53.12.67l-.57-16.56-.69-17.46-.36-7.3-.69-16.68-1.7-41.17-.29-12.19.07-15.59ZM1098.04,917.19c.79-2.66-.97-3.47-2.65-3.27l2.65,3.27ZM1125.1,922.17c-5.21-1.96-10-1.23-15.41-.94,2.99,1.91,6.36,1.45,9.94.82l5.47.12ZM1149.92,921.33c-.96-1.78-1.85-2.38-2.88-2.54l-15.67-2.42c2.62,1.29,4.25,2.4,5.62,4.91l12.93.06Z"/>
        <path class="cls-1" d="M368.75,1207.64l.49-11.22-6.39-4.68c-2.29-1.67-2.19-7.79.13-9.59,3.01-.6,6.31.07,9.84.7l-2.62,3.47c8.86,1.62,17.99,2.15,27.42,2.62,18.31.91,35.8,2.96,53.83,6.51,14.24,2.81,28.05,2.04,42.34,1.56,23.39-.8,20.72,5.68,38.9,5.61,9.8-.04,19.82.05,29.12,2.95,3.19,1,5.13,2.21,8.5,1.02,2.57-.9,5.55-.2,7.19,1.27,8.22,7.39-9.54,20.85-9.6,27.78-.07,7.7,3.12,15.11,3.99,22.69.77,6.63-3.04,12.61-6.98,17.76-1.58,2.07-2.21,4.96-2.24,7.35-.03,1.95-3.58,5.66-5.42,5.28-11.43-2.39-8.82-2.91-15.12-4.56l-5.66-1.48c-2.65-.7-6.53,0-9.6-.58-9.87-1.83-19.34-4.25-29.35-4.76-2.07-.1-4.78.49-6.92.26l-32.94-3.68c-17.55-1.96-34.33-1.08-51.77,1.72-7.22,1.16-14.29,1.8-21.32.63-12.24-2.03-11.99-9.41-22.74-10.34-1.33-1.11-2.86-2.22-4.91-3.41.37-1.54,2.99-4.34,4.77-5.04,6.64-2.59,11.2,5.73,19.38,9.1,11.18,4.6,36.18-2.51,54.32-1.91,12.55.41,24.95.7,37.33,3.03l49.51,9.3c11.07,2.08,21.89,4.02,33.46,3.46,1.34-10.5,10.65-16.55,9.33-22.3-3.55-15.47-7.75-23.69,1.9-37.66.39-.56.95-1.76,1.12-2.12.22-.46-1.12-.91-1.64-1.38-3.08-2.76-6.29-2.98-10.39-3.3l-9.23-.74c-8.74-.7-10.81,3.19-27.04-2.62-6.64-2.38-12.79-4.18-19.82-4.25l-18.36-.17c-1.81-.02-2.36-.18-4.15.1-16.43,2.61-38-3.86-57.55-5.01l-23.3-1.38-19.39-1.59c.07,2.08.52,5.41.35,7.61l-.9,11.44c-.95,12.04-5.99,35.2,2.81,43.33-9.6,1.72-12.21-13.8-12.31-20.37-.17-10.9,1.1-21.57,1.58-32.42Z"/>
        <path class="cls-1" d="M931.43,1234.71c-7.14-1.39-13.81-.51-20.75-1.54l-4.62-.69-18.81.15-20.49-.76c-4.82-.18-9.6-.71-14.54-1.17-10.37-.97-24.76-4.49-33.33-4.95l-18.01-.97-3.24-2.27c-3.09-.47-6.18-.77-8.32-4.07l14.74-.31c36.51-.78,53.4,7.98,89.93,6.96l19.17-.53c22.87-.63,26.98,10.2,45.06,5.92,6.15-1.45,12.26-2.68,18.61-3.81,2.7-.48,5.01.71,5.83,3.31l7.05,1.57c4.43-.49,10.98-.77,13.85,3.59,3.33,5.07,1.47,12.3.34,17.84l-3.66,17.98c-.98,4.79-5.27,8.73-7.34,13.04-1.68,3.5-3.37,7.18-8.06,6.61-3.77-.46-7.97-.99-11.79-1.89l-4.66-1.1c-9.66-2.28-18.42-1.9-28.18-.44l-25.14,3.76c-7.95,1.19-16.06.53-24.16.13l-43.12-2.15-38.92-3.05c-5.77-.45-11.4.12-16.82,1.33-2-1-3.98-5.4-2.76-7.48,8.34-3.76,17.32-2.89,26.28-2.19l37.1,2.93,37.35,1.81c9.47.46,18.83,1.16,28.06-.29l19.23-3c-7.21-6.88-5.09-26.04,3.44-30.96l-.17,9.9c-.04,2.23-1.61,5.55-1.42,7.88.26,3.18,4.04,5.23,7.17,5.18,9.53-.15,18.26-6.01,22.8-14.82-3.43.14-6.78.31-9.95-.16l-10.93-1.63c-1.26-.19-3.12-.31-4.08-.69-1.83-.72-1.51-7.32.81-8.92,4.28-2.95,18.51,1.55,27.15.58,2.17,1.58,4.66,5.74,4.55,8.74-.43,11.91-9.85,21.87-21.38,24.77l28.55,4.14c5.68.82,3.56-3.97,9.65-10.71,3.11-3.44,3.07-7.08,3.71-11.3l2.19-14.52c.38-2.55.1-4.86.1-7.37l-11.07,1.01c-3.45.32-8.08-.32-11.47-1.11l-9.85-2.29c-4.64-7.18-4.97,3.96-20.12,1.01l-15.53-3.02Z"/>
        <path class="cls-1" d="M414.22,1244.67c5.98-7.12,5.27-23.86,6.69-33.49,7.27,9.26,5.95,8.4,6.28,15.88.22,4.91-1.09,9.07-2.18,13.62-.75,3.15-.5,6.63-2.42,9.01-2.07,2.57-5.32,3.05-8.66,3.82-12.17,2.82-12.69-5.94-18.89-19.02-2.03-4.27-1.7-9.18-2.44-13.85-.38-2.44-.95-4.79.03-6.64,3.36-6.38,19.85-1.74,26.31-.06-4.11,9.09-11.29,2.36-19.88,5.11,1.22,4.24-.58,8.85.91,12.31l6.12,14.26,8.14-.96Z"/>
        <path class="cls-1" d="M893.97,1245.44l5.27.19c4.47-1.41,8.64-1.66,12.85-.25l2.42-1.5c4.57,3.38,5.28,8.59,4.87,13.94-.36,4.82-2.16,8.61-4.57,12.85-2.18,3.84-4.9,6.27-8.77,8.34-4,2.14-6.99,3.37-11.54,2.09-9.93-2.8-13.37-21.45-6.9-26.97,3.26,4.34,1.76,15.43,8.82,15.83,8.96.51,16.37-7.27,15.88-15.88-4.03,2.89-2.3-.87-15.47,1.93-.64.14-2.03.04-2.63-.12s-1.32-2.12-1.23-2.82l.98-7.63Z"/>
        <path class="cls-1" d="M467.03,1224.04l4.65,5.63c3.53,4.28,1.58,11.29-1.61,15.47-3.3,4.33-9.12,7.34-14.53,5.59l-8.62-2.79c-.77-14.22-4.44-11.61-5.23-27.43-.12-2.46.45-5.11,1.32-7.34,5.97,4.55,6.31.71,20.36,4.85,1.02.3,3.31.95,3.37,1.82l.29,4.19ZM463.31,1236.97c2.14-4.01,1.78-8.75-2.8-10.4-2.89-1.04-7-.22-9.84,1.03.65,4.37,1.04,9.3,3.48,12.24,2.79,3.37,7.51.22,9.17-2.87Z"/>
        <path class="cls-1" d="M499.53,1234.38c-.07,4.62-.18,12.07,4.66,15.3,3.3,2.2,9.36-.94,11.01-3.92l1.24-8.77,7.43,5.12c.07,6.23-1.57,13.45-7.26,16.49-6.47,3.46-13.82.62-18.43-4.72-9.77-11.31-4.89-35.03-.41-25.26l1.36-2.87c.34-.72,3-.59,3.84-.35,6.42,1.79,13.52,2.74,20.18,2.06,1.58,2.46,1.96,7.2-.18,8.99-5.6.59-16.88-.15-23.45-2.08Z"/>
        <path class="cls-1" d="M802.88,1238.21c4.31-1.95,9.36-2.32,13.86-2.54l6.55-.32c1.55.37,2.15,4.53,2.87,6.12,5.16,6.24,5.44,14.97-.21,21.11-2.37,2.58-5.04,5.52-8.06,6.78l-4.09,1.7c-2.46,1.02-7.41.63-10.14-.94-3.05-1.75-5.55-6.41-5.61-9.77l-.16-10.25c5.41-2.97,3.52,6.65,7.93,9.67,5.99,4.11,11.94.74,14.98-5.05,1.08-2.06,3.69-6.64.21-8.16-5.41-1.82-12.23-.23-18.12-.26-2.13-.77-2.6-6.91,0-8.08Z"/>
        <path class="cls-1" d="M851.66,1248.33c-2.65-.62-2-7.1.24-8.3l20.19.77c-1.93,3.98-.27,5.86.43,9.14,1.37,6.44-.18,14.57-3.5,20.19-2.34,3.97-7.64,4-11.56,4.61-5.17.81-9.72-1.3-11.12-6.67-1.24-4.76-.89-10.05-.63-15.07l.43-2.18c.13-.68,3.06-.96,3.29-.3,1.04,2.99,2.24,8.93,2.99,12.73,2.59,1.85,9.28,1.64,11.86-.85,2.95-2.84,1.66-8.22,1.42-11.71l-7.5-1.06c-1.85-.26-4.36-.79-6.55-1.31Z"/>
        <path class="cls-1" d="M784.63,1210.53c5.3,8.42,5.53,12.5,4.12,23.47l-3.83,29.72-1.47,13.89c-.12,1.12-3.52-.55-3.71-1.69-4.23-25.34,2.8-35.43,1.86-52.24l-.61-10.84c-.03-.61.59-1.91.88-2.31.39-.53,2.39-.57,2.75,0Z"/>
        <path class="cls-1" d="M379.3,1211.12l.41,3.88c-.62-.4-1.12-.73-1.36-.85-.34-.18.16-.96.96-3.02Z"/>
        <path class="cls-1" d="M658.67,580.55l4.35,7.95c.47.86,7.01,7.75,5.05,9.18-.77.57-3.26-.59-3.37-1.54l-.48-4.08-1.72.46c-.54.14-.94-1.17-1.44-1.86l-19.48-27.31-12.72-16.07c-.38-.48-.91-1.42-1.01-1.89s.89-1.07,1.73-1.74l-2.73-1.46-1.06.81c-.3.23-1.09.05-1.2-.3s-.29-1.6-.65-1.99l-17.61-19.05-7.53-8.02-6.01-5.86-11.46-10.86c-3.99-3.78-7.6-7.12-12.05-10.4-1.25-.92-1.76-4.67.12-5.03,2.86-.55,5.75,1.64,7.71,3.58l20.14,19.9,7.2,7.58,8.67,9.1,7.81,8.95c1.06,1.21,2.45,3.53,3.49,4.57,7.32,7.4,5.58,7.42,12.18,15.59l3.95,4.9,5.64,7.84,5.98,8.15c.29.4,1.63,1.42,1.35,1.72l-1.45,1.53,3.44,1.15c.89.3,1.21,2.4,1.18,3.76-1.51,1.83-.81,2.07,1.98.73Z"/>
        <path class="cls-1" d="M500.8,577.09c9.21,2.01,3.2,7.1,10.9,10.62l3.32,6.7c1.12.68,3.14,1.61,3.67,2.54.53.93.09,3.24-.18,4.29.38.16,2.41.5,2.38,1.06l-.17,3.13,1.94-.53c.53-.14,1.01,1.43,1.39,1.94l5.82,7.83c.34.46.95,1.19.71,1.46l-1.58,1.88c5.66.65,3.2.1,7.89,6.53.29.4-.48,1-1.66,2.37-.94-.98-2.22-2.61-3.4-4.23l-21.8-29.83-2.99-4.15-12.37-16.32c-1.86-2.45-3.45-4.8-5.42-7.23l-7.14-8.8-14.4-17.34c-2.6-3.13-4.84-6.44-7.51-9.35l-26.28-28.68c-1.36-1.48-1.79-3.03-2.03-5.38l-1.65,1.56-5.04-5.5c.29-.71,1.19-2.42,2.08-3.98l5.51,5.75,4.28,4.58c2.31,2.48,4.18,5.19,5.8,8.26l2.3-.06c.44,2.56,2.4,4.45,4.24,5.57.98.71,1.43,3.87,1.73,4.96,6.32,2.99,15.88,11.85,18.65,19.54,1.2.24,3.14.87,3.76,1.91.96,1.6.38,2.87-.66,4.72,1.73.07,3.48-.04,4.17.56.69.59.98,2.51,1.05,3.64.35.44,2.06,2.19,2.91,2.42,6.49,1.73,4.16,11,6.4,9.48l1.88-1.28c.12.11.94,2.15,1.34,2.84l4.93,8.44c.4.04,2.46.31,2.66.86l2.56,7.23Z"/>
        <path class="cls-1" d="M615.54,562.52c.32.27-.09,1.73.01,2.14.13.54.59,1.4.89,1.9l1.11-2.97c1.13,1,2.11,1.91,1.93,2.52l-1.06,3.41,3.53-.53,3.4,3.72-.84,1.87c-.25.56,1.45,1.18,2.14,1.31,3.23.6,2.88,1.67,5.4,6.19.29.52-.74,1.69-1.33,1.82s-1.63-.58-2.15-1.16l-15.93-17.75-.35-3.27c-1.85-.27-3.34-.86-4.39-2.05l-6.13-6.96-3.47-3.52-9.99-10.72-16.95-18.89-21.43-24.74-9.44-10.45c-1.52-1.69-2.98-3.68-3.77-4.95l-7.18.29c-.48.02-.43-2.41.03-2.55l1.81-.55c.39-.12,1.92.73,2.17.4l1.79-2.38c6.2,3.76,15.58,13.52,20.18,19.52,5.52,7.21,6.76,6.65,11.73,13.74.03,1.38-.3,3.82.61,4.35l.02-1.37c0-.28.05-1.6.27-1.44.34.24,1.5,1.02,1.78,1.36l4.13,5.04c.76,2.64,3.49,4.02,5.36,6.37l6.79,8.52c.24.3.66,2.2.62,2.59-.05.52,1.27-.15,2.28-.44l2.15,4.24c4.18,2.19,8.48,7.93,11.39,12.02-.58,2.12-.79,2.91-.03.52,3.12,1.37,4.79,3.93,6.08,7.08l2.24-.45c1.46-.29-.54,1.93,4.6,6.23Z"/>
        <path class="cls-1" d="M563.59,569.14c4.74,9.01,11.02,9.26,10.23,15.38-.03.27.69,1.72.84,1.51s-.46.74-.63,1c-.48.77-5.73-6.59-4.69-8.13-4.07.54-4.54-4.23-6.49-6.08-1.2-1.14-2.57-2.44-3.63-3.64l-4.16-4.69-19.05-21.48-6.33-7.19-8.83-9.55-9.5-10.22c-4.59-4.93-8.89-9.51-13.98-14.04-.58-.52-1.41-1.91-1.43-2.61-.02-.84,1.29-2.42,2.21-2.6,4,2.66,7.67,6.92,10.19,11.5l1.87-.64,7.64,9c1.82,2.15,2.93,3.25,5.15,5.15,3.31,2.84,6.24,6.54,9.45,9.69l-1.35,1.93c5.48-.68,15.92,16.73,19.43,20.83l6.77,7.89c1.31,1.52,1.85-1.39,6.27,7.01ZM536.1,536.85l-1.08,2.31,2.98,3.07-1.9-5.38Z"/>
        <path class="cls-1" d="M482.07,639.03c.93,1.75,2.1,3.25,1.14,4.72-8.53-5.77-.82-9.65-6.3-7.13l-7.83-10.89-6.14-8.44c-.28-.38.33-2.33-.1-2.37l-2.13-.21c-1.04-1.42-2.55-3.65-3.85-5.19l-7.72-9.17c-1.68-2-2.8-4.24-3.03-6.31-2.86.56-3.75-2.71-5.35-4.54l-9.95-11.4-6.61-7.7c-7.3-8.5-10.45-11.02-17.57-19.87-4.27-5.31-4.11-3.7-8.32-9.24l-3.42-4.5c-.04-.1-1.53.29-1.57-.12l-.33-3c-3.31-.76-5.45-4.33-7.87-6.98l-5.32-5.83-4.01-4.47,1.05-4.69,5.95,5.53,6.4,8.18c.82,1.05,1.77,1.49,2.7,2.67l7.2,9.18,4.59,4.36c1.82,1.72,3,4.09,4.61,5.67l4.08,4.01,6,6.75,4.48,5.1c2.48,2.82,4.73,5.83,7.03,8.92l2.02.43c.63.14.65,2.53,1.24,3.22l9.58,11.18c1.89,2.2,2.85,4.44,4.95,6.31,3.15,2.8,5.2,5.8,6.25,9.36,3.49.72,5.47,5,5.95,7.95,1.3.69,2.78,1.83,3.92,3.23l5.78,7.11c1.77,2.18,3.73,5.11,4.85,7.54,5.32,9.04,3.19,2.2,7.65,10.63Z"/>
        <path class="cls-1" d="M395.72,628.4c1.07,1.6,4.3,2.77,3.88,5.88l2.56,1.17c.57.26.4,2.12.51,2.74.49.14,2.13.04,2.25.55l.54,2.39,2.46.76c.69.21-.28,2.44-.83,2.91s-1.99-.4-2.63-1.17l-4.4-5.24-5.37-6.54c-3.32-4.04-6.12-8.05-9.64-11.87l-6.43-6.98.98-1.56c.17-.27-.27-.94-.4-1.23-.19-.43-1.07.77-1.67,1.48l-5.17-6.39,1.62-1.89c.33-.38-.88-1.7-1.23-1.33l-1.71,1.79c-.38.39-1.27-1.48-1.65-1.89l-12.92-13.89-6.06-6.79-5.1-5.45-11.76-12.03c-.25-.26.35-1.12.59-.99l2.09,1.13-3.23-4.15v3.31c-2.49-1.49-3.88-4.5-5.09-6.22-1.2-.57-2.7-1.81-4.04-3.19l-12.46-12.93c-1.61-1.67-3.15-3.66-4.27-5.41-.76-.7-2.61-2.05-3.31-2.91l-11.88-14.55c1.21-8.33-1.21.81-9.41-11.39-5.49-8.17-11.05-9.81-12.02-12.43-.17-.46.91-1.44,1.31-1.16s1.23,1.06,1.49,1.47l.88,1.4c.23.37,1.45.42,1.24.05l-1.16-2.05c-.11-.19-1.04-.67-1.25-.72-.31-.08,1.63-.91,1.86-.69l8.91,8.74c2.42,2.38,4.19,5,3.92,7.69,1.2-.19,2.47.09,2.86.7l2.88,4.49c1.97,3.08,4.31,6.22,7.52,8.45.34.24,1.45,1.32,1.23,1.64l-.95,1.39,3.78,5.94c3.98.99,8.27,4.53,9.99,7.89.43.84,2.91,1.52,3,2.31l.46,4.01,2.56-.78c.21-.06,8.86,10.07,12.44,12.99,10.17,8.3,6.24,8.3,12.57,13.49,9.46,7.76,6.3,10.5,14.19,13.14l2.82,5.61,4.34,4.49c.93.96,3.59,1.9,1.5,3.26l6.9,4.17c.18.11,5.46,6.54,5.47,6.49l-.64,3.36,3.49.33,4.11,8.05c3.59.82,5.65,5.35,7.51,8.15ZM359.88,587.89c-.57-1.24-1.25-2.64-1.38-2.25-.11.33-.43.96-.35,1.22l.47,1.57c1.43.11,2.28.05,1.26-.54ZM376.36,605.17c-.19-.33-1.67-.5-1.58-.17s.31,1.48.6,1.64l2.59,1.41-1.62-2.88Z"/>
        <path class="cls-1" d="M281.27,762.79c.14,4.26-1.33,7.32-4.63,8.73-2.92,1.24-6.61.24-8.64-2.64-2.23-3.16-2.18-6.42-3.01-9.93-.46-1.94-2.73-4.63-1.62-7.12.72-1.62,3.9-3.1,6.32-2.68,4.32.76,11.34,6.23,11.59,13.65Z"/>
        <path class="cls-1" d="M661.09,615.94c2.22,2.69,7.07,11.73,11.33,15.6l-1.76,1.93c-.31.34-1.88-.65-2.15-1.04l-7.01-10.22c-.21-.31.91-2.55.59-2.36s-2.24.57-2.47.27l-11.46-14.79-10.18-12.16-7.21-7.8c1.25-1.14,2.21-1.69,2.29-2.24l.35-2.51,10.11,14.35c.12.16-.51,1.11-.63,1.29-.16.23-.1.62.21.63l1.89.05c.47.01.72,1.95,1.18,2.08l2.09.61c.7,1.24,1.53,2.58,2.5,3.75l10.35,12.55Z"/>
        <path class="cls-1" d="M280.9,799.66c.79,1.44,3.84-2.35,4.18-1.16l.45,1.58-5.18,1.09c-1.07-.16-2.8-3.53-2.61-4.75.68-1.05,1.43-1.78,1.2-2.24-.29-.57-1.79-1.33-2.42-1.18-.74.18-1.91.71-2.14.3s-.8-1.6-1.08-2.02l-6.43-9.41,4.07.52c.02-1.27-1.82-3.29-3.01-3.28l-.49,2.14c-.06.28-1.03.05-1.23-.25l-4.79-7.17c-.69-1.04-.97-2.46-.94-3.74-2.34-.49-4.33-3.15-4.14-5.84l-1.65-.71c-.38-.16-.2-1.78.2-1.68l2.03.51c-1.27-2.15-2.59-3.79-1.97-6.82,2.99,3.49,5.72,6.77,8.07,10.46l5.46,8.56c-2.68.88-2.51-.9-4.19-2.59l.24,3.41c.07.95,2.88.14,4.21-.39l6.24,9.16c.21.31.65,1.72.34,1.83l-2.79.99,2.66,3.06c3.48-1.85,8.93,5.95,7.27,8.16l-3.07-1.32,1.52,2.78ZM261.74,765.98l-4.13-.37,1.52,1.7c.31.35,1.34-.36,2.61-1.32Z"/>
        <path class="cls-1" d="M359.41,710.33c1.72.48,4.09,3.1,3.72,5.67l-5.14-4.79,3.32,8.19c-2.56-1.35-3.97-3.95-5.83-6.26-2.64-3.28-5.3-6.34-7.28-9.72,1.9-2.37,1.36-2.59-1.04-1.23l-10.24-12.67c-1.09-1.35-2.68-3.81-3.58-5.15.92-1.56,1.9-2.71,1.39-4.92l-2.17,4.05c-.45-.58-2.03-2.96-2.05-4.07-.02-.84,1.34-2.54.97-3.21-.54-.97-2.11-2.06-3.63-2.38l2.49,4.63c.3.09-1.52.57-1.81.16l-1.26-1.73-3.97-5.44-7.69-10.54,3.55-2.64c-1.69-1.07-2.77.42-3.66,2.34l-3.6-5.11,3.66-.58c.39.09-.51-2.15-1-1.82l-2.74,1.86c.27.52-.47-.91-.67-1.29s.83-1.15,1.05-1.58l1-1.97c.26-.52,1.96.88,2.32,1.4l5.14,7.36c1.23,1.76,2.31,3.67,3.55,5.27l4.57,5.9-5.08-.79,3.62,3.64,2.97-1.28,7.85,10.22c.29.38.97,2.22.51,2.26l-3.06.29c.84,1.44,2.64,3.2,3.66,3.45l1.87-.75c.45-.18,1.26.94,1.87,1.72l-4.28,1.92c6.81-1.13,9.85,3.64,9.69,4.45s-.57,2.17-1.15,4.17l3.17-2.21c2.08,2,2.28,4.23-.17,7.22l5.11.32,1.36,3.87-.31,2.09c-.09.62,1.98.26,3.01-.32ZM324,667.82c-.38-1.71-1.54-2.6-2.33-2.22-.22,1.38,1.58,3.29,2.33,2.22Z"/>
        <path class="cls-1" d="M371.63,508.55l-3.89-2.06,1.51,2.35c.37.57,1.98.34,3.07-.09,1.92.77,3.19,4.62,2.03,7.09l-14.17-12.92c-4.56-4.16-12.61-7.77-11.54-11.38l6.51,3.01c1.41.59,2.6,1.31,3.84,2.42l6.29,5.63c1.94,1.74,6.06.9,6.35,5.94Z"/>
        <path class="cls-1" d="M619.42,650.12l-6.95-11.26.83-1.87c.45-1.01-4.72-2.54-4.07-6.59l-1.15,1.94c-.65,1.1-2.8-5.47-4.02-7l-7.63-9.59c-.33-.42.22-2.31.31-2.84.11-.66-2.24-.7-3.12-.86l-4.33-6.35c-1.3-1.91-3.16-3.96-4.9-5.98l1.09-3.14c2.81,1,3.72,3.78,4.03,6.2l2.97,1.1c.64.24.25,2.16.47,2.82,1.49,1.45,3.3,3.59,4.63,5.44l15.74,22c.87,1.21,1.47,3.23,2.09,4.2l5.79,9.08c.28.44-1.53,2.42-1.8,2.69Z"/>
        <path class="cls-1" d="M241.71,930.14l-1.3,1.89c-.34.49-.03,2.04.55,2.09.71.07,2.33.22,2.15.2-.65-1.65-.89-2.27-1.37-4.37,2.09,1.26,3.43,3.36,4.24,5.39l-5,1.95-3.51-5.55-5.17-8.45-6.15-10.77c.58-.28,2.25-.34,2.51.33.4,1.05,1.12,2.54,1.64,3.4.42.69,2.64-.69,3.46-.49,2.24.8,3.68,5.43,3.83,7.55l-1.39,1.03c-.32.24-.5,1.33-.09,1.29l2.38-.28c.44-.05,1.88-.12,1.65.21l-1.05,1.54c-.52.77-1.32,2.04-1.06,2.73.25.69,2.12.52,3.68.3ZM232.64,920.17c.09.46,1.57-.66,1.38-1.11-.13-.29-.37-.94-.48-1.27-.1-.3-1.36.15-1.29.46l.39,1.91Z"/>
        <path class="cls-1" d="M426.94,667.1c.65.97,3.54,2.85,2.61,3.35l-2.65,1.44c-.43.23-.88-1.56-1.19-1.95l-18.16-22.44c4.93-1.89,7.81,3.59,8.49,7.17,3.69,1.07,8.2,8.39,10.9,12.42Z"/>
        <path class="cls-1" d="M406.25,774.97l4.49,5.64c1.97,2.48,4.55,3.5,4.99,7.39l1.03-1.55c.2-.3,1.12.66,1.04,1.01l-.5,2.17c-.11.47,1.38.17,2.98.32l-2.11,3.65-17.63-22.74c-.86-1.11-1.8-2.84-2.6-4.15.58-.13,2.27-.52,2.51-.08l1.07,1.91,2.21,3.93c.22.39,1.27,1.5,1.57,1.21l1.32-1.25c.41-.38-1.66-1.17-2.18-1.55-.74-1.65-1.7-4.53-1.8-6.23,2.16,3.06,3.31,4.96,5.05,7.1l1.33,1.62c.37.45-1.58,1.12-2.79,1.6Z"/>
        <path class="cls-1" d="M390.62,752.44l-3.75-3.81c-.54,3.54,2.38,5.54,4.48,6.5l.05-2.01c.02-.62,5.15,1.88,3.9,4.38-.95,1.9-.7,2.6-.6,5.36-3.31-2.94-3.16-4.46-7.94-9.91-6.72-7.67-5.82-8.88-13.76-17.11l2.96-3.85c1.75.8,2.93,2.04,4.03,4.06l-4.26-.3c.59,1.43,1.36,3.72,1.94,3.27l3.5-2.74,2.11,8.71c.14.56,1.39,2.25,1.86,2.05l3.15-1.29-.47,2.99c.8-.12,2.7-.21,3.08.42s.2,2.17-.28,3.29Z"/>
        <path class="cls-1" d="M307.72,834.05l2-1.7c.33-.28,1.1.46,1.61,1.09l-3.23,4.21c-2.91-3.27-5.14-6.2-7.63-9.74l-3.95-5.6,3.87-3.41c1.11.58,2.63,3.92,2.68,5.45l-1.48-.21c-.25-.04-1.11-.09-.94.1,5.39,6.09,1.5,5.59,7.06,9.8Z"/>
        <path class="cls-1" d="M309.96,652.21c-1.01-.86-1.91-3.18-2.32-5.08l-1.68,1.14c-2-2.75-1.97-6.04-.37-8.81,2.49,2.8,4.67,5.69,6.6,8.45-1.21.82-2.03,1.17-2.06,1.56l-.16,2.74Z"/>
        <path class="cls-1" d="M419.85,483.52l1.78-1.42c.44-.35,3.45,2.94,4.11,3.77.58.73-.52,2.95-1.33,4.44-2.14-1.25-9.62-5.97-7.09-9.3.3-.4,1.57-1.07,1.7-.59l.82,3.1Z"/>
        <path class="cls-1" d="M495.12,657.22l7.21,8.4-1.94,2.68c-1.07-1.65-1.79-2.67-2.76-3.91l-6.39-8.17c-1.03-1.32-1.76-3.44-1.28-5.14l5.16,6.15Z"/>
        <path class="cls-1" d="M564.83,882.22c-.25-.9,2.56-2.82,2.08-3.6l-2.43-3.97c-1.21-1.98-2.21-3.9-4.15-4.56l4.16,10.3c-2.69-1.3-2.9-3.62-4.23-5.75l-3.69-5.88,4.41-.91-4.29-6.08c-.39-.55-.87-1.97-1.27-1.71l-1.75,1.15c-.4.26.58,1.28.99,1.73l1.19,1.33c.3.33-.48,1.23-.85,1.72l-4.75-6.2c2.7-1.63,3.19-1.8,4.55-4.02,1.4,1.78,3.4,4.57,4.8,7.08l6.81,12.29c1.42,2.55,2.96,4.36,3.29,7.64l-3.23-2.61c-.17,5.62,4.59,6.79,1.56,8.09-1.08-1.46-2.73-4.38-3.2-6.05Z"/>
        <path class="cls-1" d="M428.87,799.92l-3.74,1.83c-.31.15-1.4-1.33-1.18-1.57l1.03-1.11c.33-.35,1.01-.87.85-1.1s-.55-.67-.87-1.02c-.27-.3-.7.56-1.67,1.73-1.34-.31-4-3.11-4.3-4.72-.07-.38,1.44-2.31,1.65-1.99l1.52,2.37,1.41-2.55,5.29,8.12Z"/>
        <path class="cls-1" d="M603.57,724.96c3.53.84,11.49,10.62,10.36,14.55-.46.87-2.77-.44-3.02-1.44-2.15-8.59-1.96-2.57-6.15-9.77l-6.98-12,6.22,5.12-.44,3.54Z"/>
        <path class="cls-1" d="M386.22,979.5c1.29,2.43,3.54,5.52,1.67,8.57l-3.76-7.28c-1.27-2.47-4.22-4.43-2.2-7.62l1.08,3.12c.2.57,1.2,1.02,1.87,1.31l1.32-1.4c.33-.35,2.04.1,2.12.57.11.59-.97,1.66-2.11,2.72Z"/>
        <path class="cls-1" d="M539.97,631.5c-.04.6,4.19.91,3.37,1.85l-1.29,1.47,3.38.21c.74.05,1.15,1.49,1.36,2.53.15.71-1.2,1.45-2.45,1.98l-8.65-11.78c1.17-.43,2.35-.75,2.98-.58.76.2,1.43,2.33,1.37,3.11l-.09,1.21Z"/>
        <path class="cls-1" d="M374.68,956.87c.47-4.19-2.95-3.81-2.66-4.57l.57-1.5c.18-.47,1.81.21,2.01.66l2.59,5.52-5.12,3.25-4.55-8.53,2.1-1.05c-.28,2.78,4.73,9.11,5.06,6.22Z"/>
        <path class="cls-1" d="M341.75,889.14c-1.14,7.59,7.82,5.12,6.49,11.97-2.4-2.27-3.46-3.38-5.54-4.77-1.2-.8-4.89-5.83-1.76-8.89.36-.35.9,1.09.81,1.7Z"/>
        <path class="cls-1" d="M580.42,589.14c1.05.85,1.6,1.37,1.42,1.98-.18.62-2.07,1.48-2.79,1.27-2.11-.63-4.71-4.74-2.98-7.03l-1.37-1.1c-.24-.19.29-1.12.59-1.16,3.79-.51,1.06,2.74,5.13,6.03Z"/>
        <path class="cls-1" d="M590.1,699.32c-1.01.67-2.62,1.26-3.23.76-.86-.71-1.89-2.1-2.52-3.12l-3.23-5.24c1.07-.45,2.94-.62,3.3.06.38.72.99,2.34,1.27,3.12l4.41,4.42Z"/>
        <path class="cls-1" d="M565.21,664.67c1.2,1.6,4.45,3.48,2.75,5.98-.64.95-2.62-.82-3.24-1.78l-4.77-7.33c-1-1.54-1.56-3.3-.97-4.79l2.77,2.12c.57.43-.15,2.64-.15,2.63,1.58.85,2.52,1.71,3.6,3.17Z"/>
        <path class="cls-1" d="M225.97,1014.62c2.1,3.56,3.78,6.76,3.65,11.01l-3.73-8.28c-.48-1.06-2.11-3.72-1.58-4.74.6-1.15,2.23-2.57,3.75-3.71l-2.09,5.72Z"/>
        <path class="cls-1" d="M581.34,689.64l-2.6-3.94-1.56.5c-.09.03-5.87-7.15-4.67-8.86,2.72,1.23,3.7,3.63,5.04,5.94,1.12,1.93,5.44,2.29,3.78,6.36Z"/>
        <path class="cls-1" d="M429.32,671.66c4.49,1.82,6.16,4.85,5.33,9.15l-6.44-6.89,1.11-2.26Z"/>
        <path class="cls-1" d="M366.15,717.28l.56,2.51c.1.46.97.79,1.87,1.47-.94.66-2.4,1.52-3.42,1.85-.92.3-2.49-.93-3.03-1.62l2.27-.94c.38-.15-1.02-1.43-1.01-1.85l.11-2.45c.03-.59,2.51.4,2.65,1.02Z"/>
        <path class="cls-1" d="M546.72,851.15c.41,1.46.38,1.86.82,1.91.69.07,2.29.05,2.83-.19l1.66-.72c.32-.14.85.74,1.35,1.5l-5.72,1.97-4.4-6.3,5.42-2.5,3.1,4.04-5.07.31Z"/>
        <path class="cls-1" d="M301.25,639.49l.98.8c.3.25,1.06,1.29.68,1.4-.41.12-1.68.52-1.88.18l-1.68-2.98.1-5.44c.52-.43,3.43,1.14,3.42,2.11,0,1.11-.84,2.55-1.63,3.93Z"/>
        <path class="cls-1" d="M532.21,826.33c.57.16,3.27,3.15,3.59,3.96l-5.63,1.07c-.71-.25-2.78-2.93-3.39-4.2-.11-.22,1.36-1.36,1.46-1.13l.56,1.36c.21.52.77,1.41,1.1,1.84s1.18-.95,2.31-2.9Z"/>
        <path class="cls-1" d="M440.2,817.83c1.6.38,3.2,4.11,3.24,6.11-3.43,2.76-2.03-11.33-5.19-2.77l-3.21-3.59-.17-7.74c3.32,1.76,1.17,3.1,2.29,7.78.13.53,2.22,0,3.05.21Z"/>
        <path class="cls-1" d="M524.06,948.51l2.55,4.01-4.43,2.96-3.52-5.47,5.13-1.99-3.04,3.2c-.66.69,2,2.88,2.92,3.03l.39-5.74Z"/>
        <path class="cls-1" d="M575.94,892.96c2.2,1.85,2.16,5.86.54,8.55-.89-1.22-1.85-2.65-2.32-3.55-.35-.68.86-1.92,1.24-2.66-.57-.48-1.14-.98-1.4-1.14s-.1-.95-.1-1.29c0-.44,1.7-.19,2.04.1Z"/>
        <path class="cls-1" d="M402.41,1003.73l-2.72,5.1-1.57-3.56c-1.07-.45-2.39-2.19-2.65-3.58,1.51.71,3.38,1.56,4.44,1.2l1.73-.6c.39-.14.97,1.07.77,1.45Z"/>
        <path class="cls-1" d="M368.4,942.16l-3.33.39c.49,1.83.68,3.04.15,3.93-1.42-.7-2.88-3.23-2.27-4.33l2.5-4.46,2.95,4.47Z"/>
        <path class="cls-1" d="M323.52,849.39c-.03-.2.3,1.72.39,2.24.08.48-1.23.3-2.06.41l.21,4.57c-2.53-1.55-3.08-4.34-4.66-6.71-.98-1.47-2.95-3.38-3.47-4.83l4.47.87c.74-.7,1.47-1.59,1.57-1.24l.69,2.36c.14.47-1.1.06-2.5,0,.13.9.86,2.69,1.66,3.3.67.51,1.92-.23,3.69-.97Z"/>
        <path class="cls-1" d="M574.18,889.31l-2.09-.45c-.42-.09-1.65.39-1.47.76l.95,1.95c.68.21,1.51.28,1.39.57l-.94,2.46c-.74-.91-2.14-2.86-2.61-4.03-.62-1.55.68-4.08,1.84-5.5l2.93,4.25Z"/>
        <path class="cls-1" d="M553.05,646.2c.63.73-.83,3.73-1.42,3.08-.73-.81-1.81-2.46-2.4-3.35-.32-.48-2.07-1.36-1.69-1.8l1.84-2.15,3.66,4.21Z"/>
        <path class="cls-1" d="M456.39,848.91l-2.1,5.1c-2.67-2.44-3.65-4.32-2.03-7.16l4.13,2.06Z"/>
        <path class="cls-1" d="M627.36,896.36c1.05-1.83,6.01,7.4,5.72,6.64.27.7-.87,1.99-1.81,2.7-1.8-3.2-3.16-5.98-3.91-9.34Z"/>
        <path class="cls-1" d="M212.88,973.31l3.17,4.5c.34.47.25,2.98-.19,2.62l-1.82-1.51c-.44-.36-1.5,1.17-1.91,1.67-.37.45-1.9-1.62-1.43-1.94l2.13-1.43.04-3.91Z"/>
        <path class="cls-1" d="M601.91,1067.38c2.82,2.64,2.54,6.51,1.99,10.12-1.5-.81-3.2-1.71-3-2.44l1.07-3.86c.22-.81-1.41-2.93-.05-3.83Z"/>
        <path class="cls-1" d="M372.11,727.77c.84-.27,3.1-.06,1.19.73-1.08,2.15-1.31,3.06-1.51,5.27-1.89-1.87-3.72-4.12-5.3-7.03,1.47.2,2.45.55,2.82,1.06l1.21,1.67c.2.28.98-.93,1.59-1.71Z"/>
        <path class="cls-1" d="M480.21,896.76l.13-4.16,1.78,1.48c.53.45.14,2.87-.52,3.02-2.2.52-5.95-.37-6.12-3.65l-.09-1.62c-.02-.31.73-.27,1.14-.31,1.81-.18-.64,3.53,3.69,5.24Z"/>
        <path class="cls-1" d="M677.14,641.49c-.32-.08.91.22,1.94.46l.93,4.53c-3.47-3.42-5.33-6.11-7.72-9.62l-1.02-1.5c-.32-.48,1.17-2.35,1.63-1.97,1.54,1.25,3.54,4.34,4.23,8.1Z"/>
        <path class="cls-1" d="M627.57,890.57c1.14,1.13-.09,4.68-1.29,4.8l-2.69-5.17c-.87-1.67-1.87-4.36-1.37-5.77.13-.38,2.13.48,2.52.42s-.72.96-1.34,1.6l4.18,4.13Z"/>
        <path class="cls-1" d="M487.1,644.79c1.53,1.32,1.99,3.91,1.18,6.11l-4.97-4.83c.58-.73,3.13-1.84,3.79-1.28Z"/>
        <path class="cls-1" d="M581.68,1037.34l-3.48,4.24.98-3.53c.21-.76-.71-2.03-1.66-3.24l-.96,3.59-5.14-6.61c-1.98-2.56-4.13-4.69-4.87-8.18,5.49,3.02,2.39,7.35,10.68,11.06l.77-3.13,3.68,5.81Z"/>
        <path class="cls-1" d="M470.84,878.16l-2.97,3.53-3.77-6.91c-.22-.4.88-2.07,1.1-1.68l1.06,1.9c.32.57.32,2.55.96,2.64l3.62.52Z"/>
        <path class="cls-1" d="M444.41,690.27l2.59,2.55c.5.49-.51,2.13-1.52,3.25l-4.8-6.93c1.77.02,2.98.39,3.74,1.14Z"/>
        <path class="cls-1" d="M540.54,837.07c2.4,1.96,3.52,3.08,4.9,5.32-1.52.69-3.85.09-4.44-1.02-.75-1.4-1.18-3.41-.46-4.29Z"/>
        <path class="cls-1" d="M408.55,1015.55l3.3,3.95-6.68.57c-.32.03-.95-1.36-.98-1.68s.14-1.25.44-1.13,1.31.51,1.56.7l1.17.94c.36.29,2.06-.22,1.73-.54l-1.19-1.15c-.17-.16-.21.06.65-1.66Z"/>
        <path class="cls-1" d="M453.66,702.8c2.07.55,4.23,4.44,2.52,6.96l-3.54-4.57-.81-1.05c-.18-.23,1.46-1.44,1.83-1.35Z"/>
        <path class="cls-1" d="M444.85,834.59c.15.53-1.05-.65-1.35-1.27l-4.12-8.46c.69-.33,3.25,1.12,3.53,2.18l1.94,7.54Z"/>
        <path class="cls-1" d="M245.26,938.9c-.32.19-.98,1.1-.83,1.43l.96,2.22c-1.55-.56-3.46-2.98-3.2-4.08,3.37-1.4,6.41.09,6.86,3.25l-3.79-2.82Z"/>
        <path class="cls-1" d="M349.98,907.49c-.09.36.34,1.31.4,1.68s-.47.72-.85.76-1.39-.96-1.53-1.32l-.95-2.48c-.05-.13,2.79-3.02,3.28-2.42l1.44,1.79c.33.42-1.67,1.46-1.8,1.98Z"/>
        <path class="cls-1" d="M507.02,928.37c.73-.04,2.11-.5,2.7-.61.71-.13,1.26,2.24.61,2.51-1.73.71-5.65,2.02-6.45-1.74l3.14-.16Z"/>
        <path class="cls-1" d="M253.99,950.3l3.37,4.89-5.97-1.55c-1.01-.95-2.5-3.94-3.19-5.49,1.88-.09,1.92,2.05,2.48,3.69l1.3.96c.36.26.82-.68,2.01-2.5Z"/>
        <path class="cls-1" d="M556.05,651.77l1.81,2.13c.41.48-.84,1.66-2.1,2.71l-2-5.34c-.09-.25.61-1.38.8-1.56s1.14-.36,1.17-.1l.3,2.16Z"/>
        <path class="cls-1" d="M313.34,840.82c.58-.16,1.05-1.52,1.44-1.93s2.29.8,2.13,1.35-.82,1.73-1.3,2.03l-2.38,1.48c-.5.31-1.7-1.28-1.78-1.86-.03-.22.14-1.06.14-1.04,0,.02,1.52.04,1.76-.03Z"/>
        <path class="cls-1" d="M557.05,1020.63c.61.15,2.57.06,2.31.61l-1.41,2.95c-.47.99-3.98-2.66-3.1-3.72l1.04-1.26c.25-.3.83.99,1.16,1.42Z"/>
        <path class="cls-1" d="M261.07,961.08l-3.33,4.77c-.88-.96-1.96-3.63-1.05-4.15,1.1-.62,3.81-.99,4.37-.62Z"/>
        <path class="cls-1" d="M554.49,1000.67c-2.8,5.77,1.2,4.22-2.17,6-.54.29-1.49-.66-1.5-1.35-.02-2.23,1.89-4.22,3.67-4.65Z"/>
        <path class="cls-1" d="M324.42,855.79c.07-.17,2.57-.74,2.55-.12-.02.93-.32,2.67-.59,3.37-.3.79-2.97,1.42-3.06.66l1.1-3.92Z"/>
        <path class="cls-1" d="M242.73,1051.75l-1.5,2.22c-.31.46.22,1.22,1.03,2.75.84.51-.13,1.17-1.2,1.16l-2.12-6.81,3.79.68Z"/>
        <path class="cls-1" d="M561.5,1027.24l2.08,5.23-5-3.32-.44-2.27,1.26,1.29c.24.24.74-.19,2.1-.93Z"/>
        <path class="cls-1" d="M624.9,656.54c2.53-.03,4.17,2,3.98,4.67-1.41-.21-2.54-.34-3.08-.95-.59-.65-.99-2.98-.9-3.72Z"/>
        <path class="cls-1" d="M607.92,1081.31l-.07,3.82c-1.52-1.37-2.15-3.25-2.22-5.42l5.01.1c-.3,1-.6,1.95-.55,1.91.05-.04-1.03-.21-2.16-.41Z"/>
        <path class="cls-1" d="M596.58,713.18c-1.8-.91-2.32-2.06-2.58-3.44l-.92-4.85c2.07,2.07,3.57,4.9,3.5,8.29Z"/>
        <path class="cls-1" d="M510.03,936.91c3.13.18,4.65,3.55,3.83,6.3-1.98-2.04-2.79-3.44-3.83-6.3Z"/>
        <path class="cls-1" d="M623.03,753.91c-.03,1.4-.51,3.58-.88,4.58-1.73-1.53-2.23-3.75-1.85-5.48.15-.65,2.74.2,2.73.9Z"/>
        <path class="cls-1" d="M215.26,986.03c1.25,2.13,2.14,4.12,2.21,7.04-2.55-1.72-2.65-3.78-3.41-6.28l-1.83-1.96c-.44-.47.2-2.21.68-2.82l2.35,4.01Z"/>
        <path class="cls-1" d="M617.8,1096.75l.59,4.23c-2.09.19-3.39-1.97-3.83-3.51l3.24-.71Z"/>
        <path class="cls-1" d="M300.61,1035.62l-4.59-5.43c2.83-.69,5.75,1.7,4.59,5.43Z"/>
        <path class="cls-1" d="M381.85,971.19c1.01,1.49,1.61-3.57,2.3-1.93l.97,2.31c-.13-.3-3.93.67-5.43.85-.87.11-2.22-2.91-1.61-3.55.26-.27,1.62-.87,1.83-.56l1.09,1.61.86,1.27Z"/>
        <path class="cls-1" d="M581.64,591.68c1.15.32,2.54,1.71,2.69,2.86.12.95-.47,2.99-1.45,3.49-1.77-1.66-1.87-3.54-1.24-6.34Z"/>
        <path class="cls-1" d="M459.23,864.89c-.17-.78,4.3.65,4.09,1.09l-1.25,2.63c-.09.19-1.99.05-2.83-3.72Z"/>
        <path class="cls-1" d="M337.11,881.73l-1.21,1.18-3.67-7.21,3.29.82c-.52,1.86-.46,3.07,1.59,5.2Z"/>
        <path class="cls-1" d="M333.95,867.53c-3.33,1.52-3.62-1.6-4.25-3.7l-1.97-3.43c-.24-.41,1.83-1.12,1.93-.68.14.58.2,1.58.25,2.37l4.04,5.44Z"/>
        <path class="cls-1" d="M290.39,1015.75l-2.32,3.24c-1.2-1.36-2.36-3.65-2.81-5.29,2.14,1.06,2.82,1.36,5.13,2.05Z"/>
        <path class="cls-1" d="M613.49,1093.04c.58.25.7-3.97,1.45-3.29.31.28,1.38,1.42,1.14,1.68l-2.94,3.23-1.8-2.15c-.45-.53.1-2.54.41-2.46l.64,2.36c.08.31.73.46,1.1.62Z"/>
        <path class="cls-1" d="M403.39,1006.25c.29-.31,2.07.94,1.82,1.29-.26.34-.8,1.13-1.12,1.51l-4.26,2.13c1.13-1.94,2.65-3.95,3.57-4.92Z"/>
        <path class="cls-1" d="M451.07,847l-3.52-5.44c1.41-.03,2.52.18,3.31.79.87.67,1.05,2.15.21,4.65Z"/>
        <path class="cls-1" d="M622.11,648.81c1.73,1.39,2.64,3.64,1.6,5.23-.72.24-2.13-1.12-2.63-2.3-.35-.81.25-2.75,1.04-2.94Z"/>
        <path class="cls-1" d="M597.04,1064.02l1.54,5.5c-2.16.11-3.28-1.95-3.18-5.14-.21.04.99-.22,1.64-.36Z"/>
        <path class="cls-1" d="M219.87,692.16c.1-.33,1.83.96,1.47,1.53l-1.57,2.48c-1.14.68-1.79,1.23-1.94.76l-.83-2.52c-.1-.29,1.4-.09,1.58-.35l1.3-1.9Z"/>
        <path class="cls-1" d="M491.24,906.5l-2.37-1.21c-.37-.19-1.84-.31-1.77.11l.57,3.41c-.67.42-2.48-1.74-1.92-2.6l3.24-4.93,2.24,5.22Z"/>
        <path class="cls-1" d="M421.15,1041.5l1.48,2.57c.28.49-1.44,1.28-1.86,1.69l-1.17,1.17c-.22.22-.88-.43-.87-.68l2.42-4.75Z"/>
        <path class="cls-1" d="M582.21,1039.93c-.09-.57,2.23-.08,2.45.44l1.02,2.39-2.84.45c-.63.1-.97,1.42-1.7,2.8-.72-1-1.84-2.87-2.34-3.94l2.18.55c.41.1,1.73.42,1.67,0l-.44-2.7Z"/>
        <path class="cls-1" d="M325.6,1084l1.96.85c.35.15.16,1.48-.22,1.47l-1.98-.09.18,1.32c.04.31-1.24.72-1.47.51-.86-.77.48-4.52,1.54-4.07Z"/>
        <path class="cls-1" d="M361.67,931.65l.93,3.16c.38-.04-1.44.66-1.7.31l-1.59-2.17c-.36-.49-.2-1.79.08-2.3s2.11.45,2.27.99Z"/>
        <path class="cls-1" d="M337.48,884.9l4.45.2c-.32.56-1.46,1.85-2.14,2.29-.96.61-2.96-1.75-2.3-2.48Z"/>
        <path class="cls-1" d="M525.86,956.24c.76-1.37.77-.98.71.78.21.56-.06,2.31-.58,2.66s-1.26-.09-2.21-.9c-.57-.48.3-1.57,2.08-2.54Z"/>
        <path class="cls-1" d="M225.52,704.81c.22.45-1.6.84-1.86.58-.7-.71-1.65-1.72-1.4-2.23s1.49-1.94,1.74-1.43l1.51,3.08Z"/>
        <path class="cls-1" d="M493.54,909.07l-1.91,3.84c-.45.78-3.24-1.5-2.69-1.89l4.6-1.94Z"/>
        <path class="cls-1" d="M594.38,1060.8c.16-.19-.74.56-.76.92l-.12,1.98c-1.69-1.14-2.89-3.19-2.74-5.13l3.61,2.23Z"/>
        <path class="cls-1" d="M236.46,1046.81l-.88-4.56c.59-.16,2.31.83,2.86,1.58.55.75-.91,2.56-1.99,2.98Z"/>
        <path class="cls-1" d="M633.28,669.75l2.05,1.63c.36.29-.56,1.62-1.03,2.09-2.54-1.25-5.76-8.28-4.36-8.52l1.41-.24c1.72-.3-1.17,2.59,1.93,5.04Z"/>
        <path class="cls-1" d="M564.53,1021.27l-3.51-4.4,3.12.22c.77.05.95,2.66.38,4.18Z"/>
        <path class="cls-1" d="M305.44,1042.25l-4.28.86s.78-1.17,1.16-1.76c.73-1.12,3.09-1.17,3.12.89Z"/>
        <path class="cls-1" d="M427.58,802.63c.43,1.16,1.18,3.75,1.67,5.31-.92-.75-2.11-2.08-2.76-3.14l-.83-1.35c-.2-.33,1.78-1.2,1.92-.82Z"/>
        <path class="cls-1" d="M308.1,829.82c-2.11.43-2.77-1.72-2.98-4.12,1.45.51,2.84,1.82,2.98,4.12Z"/>
        <path class="cls-1" d="M325.48,861.56c1.78,1.18,3.01,2.89,3.21,5.12-2.16-.64-3.26-2.38-3.21-5.12Z"/>
        <path class="cls-1" d="M560.05,1009.33c-1.16-1.11-2.01-2.65-2.42-4.48,1.87.23,3.3,1.53,2.42,4.48Z"/>
        <path class="cls-1" d="M420.44,1033.38l-5.36.59,1.37-1.9c.78-1.07,3-.72,3.99,1.3Z"/>
        <path class="cls-1" d="M618.55,748.1l.8,1.26c.17.26-.89,1.41-1.05,1.15l-2.85-4.78c1.41.06,2.71,1.19,3.1,2.38Z"/>
        <path class="cls-1" d="M221.13,700.95c-1.65,2.12-1.71,1.85-2.14.34l-.45-3.04c-.07-.46,1.35-.08,1.73.21.51.39.76,1.55.86,2.49Z"/>
        <path class="cls-1" d="M539.69,836.24c-1.24-.3-3.13-2.18-3.04-3.39,1.56-.92,3.22,1.08,3.04,3.39Z"/>
        <path class="cls-1" d="M319.4,1075.72c.32-.7,2.76,1.92,2.38,2.31l-1.11,1.14c-.25.26-1.08-.65-1.19-.98l-.47-1.39c-.09-.27.26-.8.39-1.07Z"/>
        <path class="cls-1" d="M529.31,963.97l-1.17.91c-.28.22,0,.26-1.25-1.06l.71-1.83c.16-.43,1.43-.18,2.26-.09.57.06-.29,1.5-.55,2.07Z"/>
        <path class="cls-1" d="M425.77,1054.44c-.34.93-2.58,2.81-3.49,2.31-.55-.31-.12-2.4.47-2.39l3.02.08Z"/>
        <path class="cls-1" d="M475.47,888.62l-1.4-4.16c1.78-.67,3.86,1.74,1.4,4.16Z"/>
        <path class="cls-1" d="M581.49,903.69c.47,1.4.05,3.25-.77,3.82l-.96-3.48c-.08-.3.02-1.16.03-1.51s1.57.76,1.7,1.17Z"/>
        <path class="cls-1" d="M588.92,1052.09c-.43-.11-1.8-.97-1.98-.69l-1.39,2.17-2.1-4.82,2.12,1.7c.46.37,2.09-.74,2.78-1.04s1.29,2.86.57,2.68Z"/>
        <path class="cls-1" d="M500.57,919.04l-1.11,4.36c-.97-.88-2.37-2.11-1.79-2.51.8-.55,2.01-1.32,2.9-1.85Z"/>
        <path class="cls-1" d="M589.53,703.32c-.49-.08-.65-2.07-.28-2.28.52-.3,1.54-.77,1.8-.25l1.02,1.99c.28.54-1.56.7-2.54.54Z"/>
        <path class="cls-1" d="M279.76,1002.39l.29,1.62c.05.26-.51.57-.7.38l-1.17-1.16c-.21-.2-.56-1.11-.6-1.39-.06-.42.54-1.29.85-1.01.38.34,1.27,1.16,1.34,1.55Z"/>
        <path class="cls-1" d="M264.17,975.89c1.76,1.18,2.84,2.75,3.17,4.89-1.73-1.2-2.8-2.75-3.17-4.89Z"/>
        <path class="cls-1" d="M448.62,696.54l1.39,1.68c.21.26-.41,1.52-.69,1.34l-1.93-1.21c-.06-1.44.25-2.46,1.24-1.82Z"/>
        <path class="cls-1" d="M446.79,831.41c1.3.68,2.72,1.69,2.48,2.28s-1.12,1.5-2.02,2.29l-.46-4.58Z"/>
        <path class="cls-1" d="M265.31,969.26c.18.18.45,1.2.24,1.35s-.75.43-.96.29l-1.09-.77-.57-1.1c-.2-.39.65-1.53.96-1.21l1.42,1.44Z"/>
        <path class="cls-1" d="M289.76,1020.75l1.89-.18c.33-.03.64.95.37,1.16l-1.13.88c-.62.6-1.09,1.2-1.26.86l-.92-1.73c-.18-.33.69-.95,1.05-.98Z"/>
        <path class="cls-1" d="M428.02,1042.46c-.4-.13.2-1.41.57-1.62s1.56-.83,1.63-.4l.37,2.14c.07.43-1.96.08-2.58-.12Z"/>
        <path class="cls-1" d="M559.06,1016.68l-.59-3.67,2.5,1.05c.46.19-.65,1.34-1.91,2.63Z"/>
        <path class="cls-1" d="M222.81,1006.37l-1.84-.86c-.49-.23-.26-2.61.24-2.41s1.07,1.49,1.6,3.27Z"/>
        <path class="cls-1" d="M437.4,679.48l1.65,2.88c.18.32-.98,1.47-1.34,1.08l-2.29-2.44,1.98-1.52Z"/>
        <path class="cls-1" d="M536.2,837.92l1.85,2.17c.27.32-.82,1.48-1.08,1.14l-1.43-1.89c.54-1.16.91-1.94.66-1.42Z"/>
        <path class="cls-1" d="M418.61,1038.9l-2.02,4.06c-.63-.91-1.37-2.27-.93-2.54.63-.38,1.62-.89,2.95-1.52Z"/>
        <path class="cls-1" d="M505.28,924.05l-3.54-2.41,2.45-.74c.46-.14.63,1.34,1.08,3.14Z"/>
        <path class="cls-1" d="M507.7,935.14c-.5-.35,1.57-1.87,1.89-1.43s.63,1.04.8,1.6c.27.89-1.19.89-2.69-.16Z"/>
        <path class="cls-1" d="M333.19,871.99c-1.16-.25,2.37-2.84,2.38-1.96v2.09c0,.4-1.69.02-2.38-.12Z"/>
        <path class="cls-1" d="M313.35,836.77c1.56-.44.84,1.01-.15,1.54-1.08-.2-2-.24-1.99-.52s-.02-.95-.06-1.65c-.02-.43.47-.06,2.2.63Z"/>
        <path class="cls-1" d="M312.77,1061.88c.35-.12.62,1.52.84,3.89l-1.49-.67c-.4-.18.05-1.54.65-3.22Z"/>
        <path class="cls-1" d="M396.54,991.83c.59-.21.7,2.71.29,2.43l-3.69-1.18,3.4-1.24Z"/>
        <path class="cls-1" d="M275.98,991.23c.53.81,1.42,2.38,1.01,2.63l-2.35,1.43,1.34-4.06Z"/>
        <path class="cls-1" d="M670.65,600.39l1.12,1.49c.22.3-1.01,1.48-1.18,1.15l-.89-1.82-.62-1.28c-.12-.24-.16-1.1.05-.93.34.27,1.27,1.07,1.51,1.4Z"/>
        <path class="cls-1" d="M495.49,916.24c1.05.6,1.58,3.03.73,3.74-.92-.29-1.2-1.91-.73-3.74Z"/>
        <path class="cls-1" d="M395.17,764.53c-.29-.23.42-1.01.69-1.27.36-.35,1.77-.73,1.67-.23l-.43,2.16c-.1.48-1.5-.3-1.94-.66Z"/>
        <path class="cls-1" d="M519.94,944.05l-.34-1.93c-.08-.43.75-.17,1.07.14l.84.81c.31.3-1.49,1.43-1.57.99Z"/>
        <path class="cls-1" d="M268.78,492.24l-2.95-2.44,2.06-.89c.43-.18.56.7.9,3.32Z"/>
        <path class="cls-1" d="M375.26,960.9c.1-.1,1.18,2.75.85,3.08-.17.16-.93.83-.9.77.05-.09-1.43-2.43-1.2-2.66l1.24-1.19Z"/>
        <path class="cls-1" d="M369.85,947.94c-.15-.26-.41-1.49-.11-1.48.45.01,2.07.01,1.99.45l-.37,1.94c-.08.44-1.28-.53-1.5-.91Z"/>
        <path class="cls-1" d="M615.79,740.26c.61,1.22.09,3.49-.93,3.74-.61-1.24-.1-3.51.93-3.74Z"/>
        <path class="cls-1" d="M439.82,684.6l.97,2.89-2.21-.21c-.45-.04-.07-1.77.3-2.03s1.23-.85.94-.65Z"/>
        <path class="cls-1" d="M541.9,988.72l-2.78-2.82,2.07.22c.57.06.81,1.65.71,2.6Z"/>
        <path class="cls-1" d="M345.8,902.77l-2.38-2.57c1.42-.4,2.41-.47,2.41.09l-.03,2.47Z"/>
        <path class="cls-1" d="M355.84,922.57c-.03.47-.28,2.65-.46,2.45l-1-1.14c-.2-.23-.21-1.5-.24-1.81-.04-.48,1.73.01,1.7.5Z"/>
        <path class="cls-1" d="M457.24,862.16c-.19-.36-.48-2.53-.14-2.39l1.75.71c.34.14.07.46-.21,1.32-.16.47-1.16.8-1.4.36Z"/>
        <path class="cls-1" d="M393.72,998.05l-1.58-2.77c-.12,0,1.51.09,1.95.12.55.03.21,1.01-.37,2.65Z"/>
        <path class="cls-1" d="M554.12,1014.88c-.11.96-.27,2.73-.45,2.54-1.87-1.96-1.1-.58-1.25-2.92-.03-.47,1.76-.12,1.7.38Z"/>
        <path class="cls-1" d="M417.81,1026.49c-1.27.97-2.29,1.68-2.6,1.34l-1.53-1.71,4.13.37Z"/>
        <path class="cls-1" d="M534.82,832.71l-2.23,2.64c-.48-.61-1.27-1.56-.97-1.65l3.2-.98Z"/>
        <path class="cls-1" d="M329.29,1093.66c1.73.68.7,2.72-1.24,3.62l1.24-3.62Z"/>
        <path class="cls-1" d="M325.94,1091.54c-.48.19-.89-2.74-.4-2.61l2.08.56c.68.18-.64,1.63-1.67,2.04Z"/>
        <path class="cls-1" d="M498.43,913.62c.4,1.32.64,1.78.42,1.88s-.83.5-1.01.66c-.26.24-.4-.61-.93-2.37l1.52-.17Z"/>
        <path class="cls-1" d="M431.38,806.56c-.35-1.32-.91-2.76-.44-2.54l2,.91c.42.19-1.08,1.51-1.56,1.64Z"/>
        <path class="cls-1" d="M486.15,900.33l-3.12-3.1c1.7-.31,3.01.73,3.12,3.1Z"/>
        <path class="cls-1" d="M494.76,913.24c.46-.31-.12.09-1.09.75-.36.38-1.01,1.55-1.34,1.3s-1.63-1.22-1.23-1.3l3.66-.75Z"/>
        <path class="cls-1" d="M209,971.18c-.4-.13-.26-2.2.14-2.08l1.54.45c.81.24-.94,1.86-1.68,1.63Z"/>
        <path class="cls-1" d="M311.36,1058.6c-.13-.26-.23-1.41-.26-1.79-.03-.43,1.32-.48,1.51-.08l.8,1.72c.18.39-1.85.53-2.05.14Z"/>
        <path class="cls-1" d="M257.58,957.39c1.73,1.62,2.01,1.79,1.79,1.98-.27.24-.89.99-1.1.77l-1.23-1.28c.34-1.2.74-2.43.54-1.48Z"/>
        <path class="cls-1" d="M206.95,973.83s.92-.25,1.22-.33c.44-.12,1.18.78,1.18,1.24s-1.02,1.67-1.24,1.25l-1.16-2.16Z"/>
        <path class="cls-1" d="M564.38,1047.29c1.13-.07,2.14-.12,2.13.3l-.05,2.54-2.08-2.84Z"/>
        <path class="cls-1" d="M245.17,1060.25c-.31.02-.01-1.51.3-1.5l1.55.05c.31,0,.76,1.31.45,1.32l-2.3.13Z"/>
        <path class="cls-1" d="M396.74,758l1.99,1.6c.2.16-.12,1.31-.33,1.15l-1.8-1.4c.07-.67.22-2.03.15-1.35Z"/>
        <path class="cls-1" d="M473.18,888.65l1.99,1.6c.19.16-.13,1.31-.32,1.15l-1.81-1.4c.07-.67.22-2.03.15-1.35Z"/>
        <path class="cls-1" d="M416.17,782.66c.11-.02-1,.23-1.48.34l-.67-1.86c-.09-.25.11-.71.21-1.13.09-.37.84.92,1.94,2.65Z"/>
        <path class="cls-1" d="M273.24,987.07l-.38-1.89c-.06-.32,1.17-.77,1.29-.46l.49,1.27c.17.45-1.3,1.56-1.39,1.08Z"/>
        <path class="cls-1" d="M230.81,914.39c-.35-.06.17-1.55.52-1.57l1.11-.04c.35-.01.56,1.09.68,1.43.17.51-1.72.26-2.31.17Z"/>
        <path class="cls-1" d="M228.72,1013.73l1.99,1.6c.2.16-.12,1.31-.32,1.15l-1.81-1.4c.07-.67.22-2.03.15-1.35Z"/>
        <path class="cls-1" d="M390.37,991.42l2.13,1.72c.2.16-.27,1.19-.48,1.03l-1.81-1.4c.07-.67.22-2.03.15-1.36Z"/>
        <path class="cls-1" d="M392.84,988.14c.22-.18.12,1.65.35,1.81.34.24-1.14.24-1.94.25-.28,0-.38-.43-.16-.62l1.75-1.45Z"/>
        <path class="cls-1" d="M302.71,1047.64l-.39-1.92c-.06-.31,1.18-.76,1.29-.46l.48,1.26c.17.45-1.29,1.57-1.38,1.11Z"/>
        <path class="cls-1" d="M620.44,882.26c-.26.02.01-.97.17-1.18.24-.33,1.11-.87,1.31-.52s.78,1.54.37,1.57l-1.86.13Z"/>
        <path class="cls-1" d="M634.75,912.16l-.38-1.87c-.06-.31,1.19-.75,1.29-.45.11.32.35.97.48,1.26.19.44-1.29,1.56-1.39,1.06Z"/>
        <path class="cls-1" d="M526.28,706.64c-.06-.3.34-1.2.58-1.39.36-.28,1.82-.17,1.71.28l-.45,1.8c-.11.44-1.74-.24-1.83-.69Z"/>
        <path class="cls-1" d="M878.85,604.64l3.37.08c-.63,1.17,0,2.96,1.13,3.21,1.23.27,2.82.13,4.22,0l-1.54,2.94,2.12-1.37s3.85,4.58,3.63,9.03c2.19,2.62,4.73,5.79,6.49,9.19l12.11,23.42c.82,1.58-.86,5.24-1.04,6.52,5.41,4.72.3,6.42,3.91,8.56l1.47-5.18,5.09,9.32c-1.57.91-3.23,2.19-2.7,2.8l2.09,2.4-.06-2.27c-.01-.42,1.46-1.3,1.63-.92l.62,1.42,4.09,9.45-5.02.3,2.32,3.02c1.09-.59,2.48-1.35,3.37-1.29.74.05,1.66,1.93,1.89,2.64l.83,2.49c.17.52-1.15,1.51-1.5,1.74l-2.86-1.64c3.21,3.1,1.74,8.43,5.13,8.31.45-.01.99-1.64,1.06-2.11.06-.43-.93-.01-2.29.37-.34-1.82-.1-4.37,1.03-5.93l5.06,11c.65,1.41,1.38,3.6,1.78,4.89-1.65,1.05-3.34,2.38-2.77,3.11l1.99,2.59.51-2.68c.07-.38,1.43-.96,1.71-1l2.37,7.44-2.73-2.38c-.63.78-1.66,2-2.26,2.56-.47.44-1.9-1.63-2.13-2.29l-2.87-8.14c-.76-2.15-.39-3.51,1.42-5.42-.08-.17-1.51-.7-1.83-.38l-1.74,1.7-5.65-11.89-3.82-8.14-7.65-15.67-5.39-10.53c-1.72-3.36-3.15-6.58-4.42-10.39,3.4,1.74,4.01,4.66,4.66,8.25l2.16-4.62-2.14-3.24-3.96-2.21-1.86.84-3.06-6.24c-1.12-2.28-2.33-4.43-3.57-6.65l-4.85-8.66-5.2-9.15c-1.71-3.01-3.26-6.22-4.37-9.21ZM883.14,611.37l1.47-.29c.39-.08.66-1.79.29-1.65s-1.33.54-1.45.92l-.31,1.02ZM887.27,612.24c-.92.83-1.78,1.6-1.38,1.93l2.48,2.05-1.1-3.98ZM896.83,625.67l-4.53.34,2.53,2.03c.42.34,1.05-.53,1.99-2.37ZM896.75,633.91c.46.4,1.85,1.08,1.96.57l.33-1.47c.08-.38-1.12-.64-1.47-.47s-1.11,1.12-.82,1.37ZM899.62,641.53l2.36-.42c.28-.05-.21-1.03-.29-1.32-.28-1.05-2.88,1.69-2.07,1.74ZM915.32,671.51c.51-.15,1.84-1.55,1.4-1.62l-1.26-.21c-.33-.05-.46,1.92-.14,1.82Z"/>
        <path class="cls-1" d="M882.22,604.72v-2.74c0-.77-1.69-1.89-2.39-1.59-.92.39-.92,2.88-.98,4.25-6.23-8.39-10.64-18.16-16.61-27.27-1.64-2.5-7.33-11.9-6.44-13.41l1.49-2.5-3.13,2.26-4.68-7.49,5.59,1.8c-1.26-1.83-3.59-2.75-6.31-2.98-.7-1.25-1.77-3.45-2.56-4.59l-4.61-6.62c-1.82-2.62-7.86-11.7-8.6-13.58-.3-.76,1.16-2.24,1.98-3.47-.32-.08-1.44.22-1.74.7l-1.27,1.99c-1.49-2.53-2.53-4.1-3.97-6.1l-10.32-14.4-3.62-5.13c-6.22-8.82-14.92-15.02-21.17-23.48l-3.34-4.51c-1.47-1.99-2.11-4.63-.38-5.97l2.97-2.29c3.78,4.26,7.93,8.78,11.42,13.25l12.97,16.63,13.09,17.95,9.23,13.3,13.47,20.59,7.52,11.54-2.09,4.4c5.54-.1,6.71,3.58,9.08,7.12,1.7,2.53,2.74,4.24,1.8,7.64l1.38-1.26c.26-.24,1.03.64,1.22.97l6.95,12.26c3.55,6.26,5.65,8.23,8.37,14.93l-4.3-2.19ZM799.9,479.55l-.31,3.26c-.04.45,1.74.67,2.19.5-.47-1.18-1.22-2.62-1.88-3.76ZM839.76,538.36c1.24.95,1.64,1.5,1.87,1.05l.71-1.47c.17-.35-1.16-1.36-1.41-1.05l-1.17,1.48ZM848.64,550.19l2.09,2.84.04-2.57c0-.39-.98-.35-2.13-.27ZM868.13,584.37l1.68-1.19c.22-.16.11-.86-.19-.82l-1.95.32c-.27.04.24,1.84.46,1.68ZM874.46,591.23c.17,2.33.21,3.04.59,3.51.3.38,1.87-.52,1.58-.87l-2.17-2.64Z"/>
        <path class="cls-1" d="M1027.45,628.1c-3.4-7.66-11.83-19.52-10.45-23.42.17-.47,1.97.16,2.09.65.31,1.34.84,4.67.99,5.49,1.53-.78,2.61-1.32,1.08-1.04l-2-7.35-4.17.83-7.02-13.19c-.27-.5-.65-1.47-.75-1.87-.14-.54.62-1.3,1.47-2.42-3.7.31-4.74-3.05-6.4-5.98l-6.33-11.17c-1.03-1.81-1.97-4.89-2.96-6.42l-6.04-9.38c-.79-1.23-1.13-3.78-1.23-4.99-1.48-1.4-3.18-3.31-4.26-5.36l-4.19-7.92c-1.91-3.61-5.25-6.78-7.73-10.25l-5.34-7.47-5.07-7.36c1.94-.21,3.62-.92,3.22-3.02l-3.61,2.66-3.74-3.94,4.45-3.93-4.95,2.4c-.71-.24-2.41-2.67-3.45-4.01l-5.48-7.02c-.7-.9-3.06-1.81-3.04-2.86.03-1.33,1.1-4.04,2.2-4.5s3.45,1.09,4.34,2.11l6.72,7.67,8.06,10.83-.19-4.92c-1.42-.88-2.98-1.96-3.77-2.88.78-2.29,7.81,1.08,8.5,2.7,1.19,2.81-4.3,4.4-2.03,7.62l12.62,17.9c2.3,3.26,4.15,6.95,5.91,10.27l-2.19,1.27c-.54.31-.09,1.83.3,2.92l2.27-3.53,3.06,5.17,4.8,8.54,9.52,16.97,3.03,5.48,3.7,6.81,4.45,8.19,14.64,29.2c1.7,3.38,2.92,7.11,4.87,10.29,2.29,3.72,5.34,8.58,3.52,12.84-.43,1-4.22-.15-4.15-1.26l.27-4.35-1.6.25c-.52.08-1.22-1.15-1.47-1.69l-2.47-5.56ZM967.8,518.17c.18.49,1.59-.2,1.6-.71s-.39-2.1-.83-1.84c-.5.28-1.03,1.81-.76,2.55ZM974.29,523.4l-.28,4.05c.23.3,2.62-1.33,2.17-1.97l-1.75-2.49c-.61-1.43-.64-1.27-.14.42ZM995.79,561.11c-1.28,1.15-1.72,1.58-.34.72,1.23-.25,1.94-.4,2.09-.42.1-.02-.58-.85-.74-1.06-.14-.18-.38.09-1.02.77ZM1016.13,598.22c-.21-.24-1.32-1.03-1.47-.76s-.62.98-.38,1.19l1.28,1.08c.24.2.79,1.12.96,1.38s.97-.26,1.61-.56l-2-2.33Z"/>
        <path class="cls-1" d="M819.68,664.53l1.1-2.81-1.55-1.08c-.37-.26,1.21-1.98,1.56-1.71.96.75,2.42,3.38,1.9,4.36-2.2.8,1.7,11.3,4.56,10.64-.81-2.27-1.13-2.79-1.04-4.93l4.16,4.97c-1.63,2.6-1.74,3.43-1.91,6.49-9.03-8.23-2.38-3.82-9.06-13.07-2.57-3.56-4.93-7.48-7.1-10.94,1-1,1.67-1.64,2-2.13.7-1.02-2.15-6.86-3.69-5.98l.77,2.28c.14.41-.79,1.17-1.15,1.5-.83.79-8.48-10.39-9.63-12.19l-3.1-4.87-3.52-5.3c-1.93-2.9-3.5-5.85-5.63-8.61-1.2-1.56-2.91-3.29-3.9-4.82l-7.86-12.12c-1.07-1.64-1.69-2.81-3.1-4.05-5.47-4.82-9.22-10.41-12.46-16.94,1.85.26,2.27.72,3.99,2.25l.07-4.4c5.19.99.15,3.27,3.4,7.84l.92-3.57,4.45,5.85c-1.57,1.17-2.9-.11-4.98-1-.3,1.4,1.39,2.21,2.78,2.74l-.16,2.51c-.05.74,1.5,1.82,2.28,2.26l1.65-4.96,10.16,13.89,5.46,8.13c2.44,3.63,4.58,6.07,6.94,9.68l-4.37.68c-.03,1.44,2.31,1.25,4.49.32,1.92,1.89,3.94,4.87,5.66,7.48l12.76,19.33.19,4.78,1.29-1.36c.24-.25,1.09,1.62.81,1.8l-3.21,2.06,4.07,4.99ZM775.47,595.88l.13,3.29c.8-.8,1.76-1.67,1.44-1.95l-1.57-1.34ZM782.36,605.39c-.83-1.5-1.21-2.3-1.62-2.42l-1.57-.45c.54,1.57,2.15,3.14,3.19,2.87ZM783.45,608.97l.37-1.96c.07-.35-1.33-.49-1.39-.18l-.37,1.94c-.07.35,1.32.57,1.39.2ZM785.25,614.23c.09.47,1.56-.64,1.39-1.09l-.49-1.27c-.11-.3-1.35.15-1.29.47l.38,1.9ZM788.74,619.46l1.67-1.17c.47-.33.15-2.36-.42-2.4s-2.67.03-2.48.51l1.23,3.06ZM791.21,621.42l1.15,1.87,2.67-.79c.4-.12-.16-1.59-.57-1.54l-3.25.46ZM797.46,627.97c-.46-.39-1.58-1.41-1.79-.97-.2.41-1.37,1.14.37,2.5l4.75,3.7c-.59-1.92-1.91-3.51-3.33-5.22ZM803.18,635.97c-.38-.63-.81-1.26-1.01-1.5s-.67.78-.59,1.09l.87,3.45c.14.53,2.46-.15,2.16-.64l-1.43-2.4ZM808.05,642.15l-4.52-1.01,2.07,2.31c.41.46,2-.51,2.46-1.29ZM806.44,644.99l2.09,2.83.04-2.56c0-.43-.98-.36-2.13-.27Z"/>
        <path class="cls-1" d="M1086.78,562.82c.33-2.94-2.24-3.7-3.05-5.17l-5.76-10.32,1.28-4.75-2.14,2.81-1.5-3.89c-2.23-2.51-3.49-5.31-5.21-8.26l-3.47-5.94-4.87-9.37c-4-7.7-4.85-6.99-7.31-13.7l-2.44-6.65c-.57-1.57-.51-3.77.3-4.7,1.07-1.22,4.59-1.77,5.1-.47,1.45,3.65,2.36,6.52,3.9,9.56l9.33,18.36,4.93,10.22c1.01,2.09,3.59,5.46,3.86,7.51.05.38-2.07,1.63-1.74,1.82l1.69.99c2.95,1.72,5.95,5.18,3.93,8.19l-.73,1.09c-.2.29.77,1.27,1.04,1.05l2.04-1.69,7.31,13.18c-.63,1.36-2.71,3.45-4.26,3.92-.89.27-2.36-2.72-2.24-3.78ZM1059.71,500.59l-2.97,1.34c-.35.16-.14.33,1.08,1.89l1.9-3.24ZM1064.24,511.99l-1.64,1.66,1.04,3.52c1.69-1.25,1.84-3.71.6-5.18ZM1065.65,517c-1.85,1.85-.1,4.51,1.9,4.96l-1.9-4.96ZM1071.7,532.86l2.3-.13c.31-.02-.14-1.31-.45-1.32l-1.56-.05c-.31,0-.61,1.52-.3,1.5Z"/>
        <path class="cls-1" d="M1104.98,585.59c.76,1.48.75,3.88.01,4.93-.66.94-3.15,2.72-3.82,1.78-.82-1.14-1.91-2.97-1.54-3.74s2.36-1.65,3.27-2.01c.35-.14.05-1.75-.26-1.56l-2.18,1.34c-.77.48-2.75-.9-2.9-1.78-.19-1.1,0-2.83.15-4.43l-1.88.63c-.72.24-2.83-5.23-5.48-9.33-.64-.99-1.02-3.83-.03-4.34l4.2-2.18c1.41,2.25,1.8,5.28,1.78,8.68l1.82-1.26,6.86,13.27Z"/>
        <path class="cls-1" d="M1007.74,868.21c2.16,2.78,3.91,5.99,3.82,10.27-2.45-1.87-3.48-3.3-5.17-5.43l1.41,6.59c-3.29-3.61-4.58-8.15-6.52-12.89-2.07-5.08-5.2-7.06-3.29-12.4.1-.27-.75-1.37-.84-1.1l-.8,2.33-2.25-4.54,3.99,1.2c-.26-1.15-.37-1.96.36-3.88l3.86,6.81c-1.14.83-2.32,1.76-2.37,2.49s1.17,1.64,2.3,2.46l-1.43,1.62c1.41-.29,3.56-.57,4.35.18,1.09,1.03,1.62,3.99.56,4.65-.75.47-2.16,1.58-1.81,1.96l1.55,1.66c.44.47,1.11-.71,2.29-1.99Z"/>
        <path class="cls-1" d="M949.8,736.42l-.95,5.3,2.15-1.8c.6,1.14,1.51,2.55,1.16,3.04-.43.61-1.19,1.53-1.92,2.41l-.99,1.18c-.92,1.1-7.89-12.55-7.62-16.14-1.25-1.34-3.34-3.58-3.87-5.35l-2.19-7.4,5.69-.04,4.83,11.53c-2.15-1.14-2.79-2.17-4.06-4.06l-.91,1.91c-.24.5,1.1,1.43,1.4,1.96l1.91,3.41,1.44-4.09,3.92,8.15ZM941.38,721.28c-.18-.53-1.11-1.54-1.56-1.83-.34-.22-1.07.92-1,1.32s.44,1.38.69,1.7l1.28,1.61c.27.34,1.27-.78,1.13-1.19l-.54-1.61ZM946.69,735.87c-.66.23-1.68.44-1.51.77l.79,1.48c.14.27,1.23.41,1.58.47.3.05.44-.88.26-1.12l-1.12-1.59Z"/>
        <path class="cls-1" d="M781.52,751.25c.22.36-.3,1.75-.04,2.01l1.74,1.81c.53.55-1.35,1.39-2.42.78s-.79-1.26-.56-2.88l-2.48-1.19c-.59-.28-.06-1.74-.03-2.99l-2.03,1.71-4.14-7.47-3.69-6.66c-1.68-3.03-4.11-5.03-4.66-9.08l6.25.45c.19,1.16.52,1.99.06,2.02l-3.46.24c-.34,1.17,1.95,3.81,3.37,3.92l.2-1.37c.05-.37.37-.82.6-1.14s1.5.86,1.2,1.1l-2.03,1.67c4.87,0,4.4,4.1,6.28,7.26l5.83,9.79Z"/>
        <path class="cls-1" d="M809.97,803.72c-.95.7-3.56,1.39-3.31,2.01l1.2,3.04c-1.87-.32-2.45-2.44-2.71-4.53l-4.71-5.45c-.49-.57-1.24-2.77-.77-3.26l2.35-2.38c.21-.21.36-1.06.09-1.16l-1.64-.62c-.41-.16-.56,1.61-.97,2.92-1.97-1.79-3.34-3.94-4.34-7.67l4.12,3.12c-.84-5.38-2.71-2.24-2.38-7.01.03-.44,1.77.74,2.01,1.16l5.13,9.01,5.92,10.82ZM804.66,800.77c1.46-2.74-1.56-3.85-2.81-3.91l2.81,3.91ZM806.9,801.78c-1.26-1.4-1.37-1.08-.71.52l.78,1.76c.14.31.85-.45,1.13-.67s-.39-.8-1.2-1.61Z"/>
        <path class="cls-1" d="M833.96,850.59l-4.58-5.52c-3.3-.93,7.64,10.48,2.96,8.26-.42-.2-1.62-.79-1.88-1.24l-4.17-7.02c-.76-1.28-.56-2.98.19-4.14-.12-.31-.88-1.13-.68-1.57l.99-2.21c-1.35.86-3.75,1.48-4.67.34-.82-1.02-.8-4.16.45-5.23l-.29-1.29c-.08-.33.32-1.59.54-1.32.37.47,1.09,1.56,1.2,2.07l.64,2.85c.14.63,1.38.53,2.47.72,2.52,1.31,2.81,4.88,1.68,7.54.67-.13,2.93-.89,3.06-.22l.6,2.98c.33.55,1.88,1.23,1.8,1.94l-.31,3.08Z"/>
        <path class="cls-1" d="M767.34,725.32c-1.47.17-5.47.23-6.1-1.09l-2.59-5.44c-.11-.23,1.05-1.26,1.22-1.08l1.66,1.78.77-2.08c.23-.64-1.56-1.55-2.23-1.61-5.14-.43-3.87-.84-6.45-7-.62-.06-1.44.12-1.53-.25l-.4-1.68c-.4-1.68,3.7,2,4.21,1.73l2.62-1.38,5.17,10.33,3.65,7.78Z"/>
        <path class="cls-1" d="M1118.53,1017.56l-.99,6.2c5.35,3.82.74,3.69,3.11,10.28l-3.05-.35c-.79-11.04-2.04-7.12-4.22-14.54-1.77-6.05-3.47-11.46-4.43-17.94,4.38,5.54,2.64,6.71,5.83,14.96.16.42.21,1.69.28,2.15s1.77.5,1.88.05l.41-1.64c.06-.25,1.23.59,1.19.84Z"/>
        <path class="cls-1" d="M838.49,862.5c.56.05,1.97-.69,2.27-.2l1.48,2.35c1.5,2.38,1.45,5.54-.8,7.39-.09-2.93-2.24-3.48-2.89-4.72l-6.52-12.36,1.61-.29c.28-.92,1.5-1.82,2.45-2.02,1.19-.25,4.94,6.07,3.37,7.88-.16.19-1.41.72-1.66.76-.37.06.32,1.19.69,1.23ZM834.39,857.01c.38.26,1.45,1.04,1.5.73l.24-1.45c.05-.32-.67-.12-.97-.03-.2.06-.96.63-.78.75Z"/>
        <path class="cls-1" d="M883.83,766.24c-2.19.58-3.72.96-4.58.94-1.02-.02-1.37-2.99-1.12-3.87l2.88,2.63c-.24-2.18-.58-4.01-1.02-5.7l-2.67,1.35c-2.27,1.15-5.09-5.26-5.17-5.42l-5.54-10.7,3.19-4.74c.04,3.59.15,6.19,1.36,8.2l2.53.14c.51.03,1.45,1.3,1.06,1.64l-2.2,1.91c5.53,4.07,2.33,6.69,7.24,6.17l4.05,7.43Z"/>
        <path class="cls-1" d="M914.45,829.43c.24.81,2.71,1.94,2.66,2.83-.05.93-.4,2.67.05,3.24.54.68,1.66,1.29,3.26,2.34l-3.01.26c-.84.07-1.45-1.36-2.06-2.66l-4.08-8.68c-.16-.33-1.43-1.15-1.7-1.41-.73-.7,1.87-3.13.72-3.2l-1.55-.1-3.21-6.29,2.66,1.07c.4.16.63-.44,1.48-1.48.43.04,1.94,1.86,1.98,2.69l.23,4.32,2.21-.8c.43-.16.36,2.07.43,2.76.06.56-1.84-.98-1.72-.4l1.63,5.5Z"/>
        <path class="cls-1" d="M969.91,792.57l1.55,2.66c.35.6,1.62.3,3.08.27l2.57,4.61-4.66.75c-1.32-1.77-2.82-4.28-3.87-6.56l-4.22-9.09,2.6-.16c-.02-1.71.17-3.37.95-3.96.56.38,1.67,2.02,1.85,2.72s-1.06,1.62-1.74,2.53c-1.33,1.79.78,4.33,1.88,6.23Z"/>
        <path class="cls-1" d="M754.55,699.39l3.66,7.63c-2.92.15-2.44-1.82-3.12-4.17l-3.61,3.44-4.42-8.42c.27-.29,2.33-1.43,2.24-2.13l-.36-2.99c-.11-.88.23-3.11-.56-3.29l-4.12-.91c2.29-2.35,1.67-4.76-.13-7.41,3.86.27,3.35,4.08,4.67,6.67l4.6,9.05c.2.39.33,1.55.17,1.89s-.89.52-1.14.24l-1.78-1.96c.09,1.79.31,3.64.69,6.02l3.19-3.67Z"/>
        <path class="cls-1" d="M865.22,735.75l1.9,8.86c-4.56-1.06-2-4.99-3.71-6.74-2.86-1.04-5.63-6.83-5.55-7.72.09-.95,1.17-2.41,2.19-4.18l1.82,2.57c-.9,1.12-.21,4.49,1.05,4.35l2.72-.31c.72-.08.05,2.38-.43,3.17Z"/>
        <path class="cls-1" d="M755.73,927.58l2.2,5.51-4.38-4.55-1.59,4.52-.16-4.53c-.44-.15-1.87-.37-1.79-.78l.47-2.63c-.35.1-1.32,1.18-1.69.84-1.55-1.39-3.44-3.23-4.32-5.59-.71-1.91,1.97-2.5,1.96-5.92,0-1.9-3.95,1.61-5.15.38-.6-.62-.89-2.85-.56-3.29l2.58,2.2,1.37-3.54c.8-2.05-4.08-2.95-1.15-5.1.4-.29,1.29,1.02,1.54,1.56l3.94,8.6c-2.69,3.99-3.43,6.01.07,9.79,1.3-3.08-2.94-6.89,1.01-8.17,2.85,4.59-.15,12.22,5.65,10.7Z"/>
        <path class="cls-1" d="M906.54,813.76l-.08,1.31c-.02.39-1.66.64-1.78.27s-.4-1.61-.63-1.99l-4.05-6.86-2.2-5.77-2.81-4.43c2.93.39,4.1,2.79,5.25,5.44l2.66,6.14,3.45,1.98-.89,1.92c-.19.4.59,1.29,1.08,2Z"/>
        <path class="cls-1" d="M850.78,713.07c1.13,2.14,1.72,3.5,1.11,6.22l-3.19-4.21c-2.52-3.32-4.71-6.64-6.39-10.63,2.53.66,3.32,2.82,4.36,5.25.95,0,3.11-.56,4.07-.98l1.67,2.45c.35.51-1.34,1.61-1.62,1.91Z"/>
        <path class="cls-1" d="M848.05,873.64c.57.81,1.33,2.39,1.3,3.07s-1.19,1.63-1.68,2.13l2.14,2.71c.59.74.15,2.11-1.57,3.99l-2.62-6.1c-2.27-2.19-5.12-4.79-2.62-7.87,1.22,2.78,2.01,4.55,3.19,6.64,2.06-2.94.09-4.13-1.87-7.03.63-.35,1.5-.71,1.75-.36l1.98,2.82Z"/>
        <path class="cls-1" d="M942.19,881.35l-1.27,1.79c-.23.33-.94-.36-1.16-.7-.29-.46-.02-1.76.33-2.17l2.2-2.52c-1.85.31-3.48.73-4.61.52-1.14-.2-1.55-3.59-2.16-4.55l-1.67-2.62c-.46-.73,3.83-3.7,3.94-3.19l.5,2.26c.11.48-1.06.08-2.34.08,1.28,2.39,3.97,4.04,6.19,4.86.58.67,1.71,2.56,1.77,3.36s-1.08,1.96-1.72,2.87Z"/>
        <path class="cls-1" d="M1012.7,887.93l3.06-2.1,1.63,4.24-2.76-1.26c-.46-.21-1.43.9-2.51,1.61l-4.83-10.02,5.15-1.17c1.33-.3,2.55,4.29,1.16,4.29l-3.5-2.62,2.6,7.03Z"/>
        <path class="cls-1" d="M776.31,976.34c-.51.71-3.95.81-4.29-1.81l3.01,1.32-4.23-6.11c-.19-.27.4-1.96.61-2.21.28-.34-1.83.18-2.19-.08-2.25-1.62-4.48-7.17-3.98-10,.11-.64,2.57-.39,2.57.24v2.81c.01,1.24.09,2.95.21,3.96.11.91,3.17.98,3.51,1.84l1.96,4.94c.12.31,1.24.65,1.56.78s.15-.97.06-1.94c-1.3-1.21-.28-1,.92-.32l.27,6.58Z"/>
        <path class="cls-1" d="M864.3,909.15l2.56,2.39c.24.23,1.09.98.85,1.1l-1.98,1.02c-3.68-8.88-5.01.55-10.13-12.98,2.22-1,5.28-.42,7.18,1.69.74.82-.49,3.31-1.32,4.08l2.21,1.05c.43.2.5,1.19.64,1.64ZM858.84,902.59c-.08-1.14-.15-.35-.28,1.28l1.46.88c.26.16.5-.63.66-.96.13-.28-.04-.3-1.84-1.2Z"/>
        <path class="cls-1" d="M1107.12,592.09c2.18,1.79,3.05,6.46-.14,7.67-2.21.84-4.47-3.01-4.53-5.57l4.67-2.1Z"/>
        <path class="cls-1" d="M899.2,795.08l-2.63-1.25c-.46-.22-1.29.58-2.01,1.11l-3.34-6.51-1.14-2.22c-.26-.51,2.32-1.24,2.42-.68l.53,2.83c2.94,1.12,5.87,3.26,6.17,6.71Z"/>
        <path class="cls-1" d="M1109.33,599.17c1.82,1.62,4.37,9.27,3.35,9.71l-2.62,1.12c-.63.27-1.56-2.42-.9-2.6.22-.06,1.08.14,1.26,0l1.03-.72-3.35-.55c-.76-.12-1.38-6.42,1.24-6.96Z"/>
        <path class="cls-1" d="M921.5,838.58c.28-2.44,4.84,4.65,4.47,7.01-.25,1.6-1.7,3.91-2.68,4.87l-2.98-8.16,3.73,3.01-2.54-6.73Z"/>
        <path class="cls-1" d="M732.13,1013.48c.13.27.36,1.78.06,1.82l-1.49.23-3.22-5.08-1.38-9.13,6.02,12.16Z"/>
        <path class="cls-1" d="M885.15,769.99c2.56,1.02,2.78,4.48.89,6.02l5.69,9.1c-3.66-.87-4.78-2.65-6.35-4.55-1.13-6.08-5.91-7.95-4.01-11.66l2.19,4.82c.12.27.63,1.03.78,1.24.21.32,1.06-.42,1.57-.87-1.26-.7-1.97-3.46-.76-4.11Z"/>
        <path class="cls-1" d="M1102.41,982.27l-1.69,3.8c-.47-.31-2.41-1.31-2.05-1.75l1.81-2.25c-3.02-.38-5.51-2.92-3.86-6.7l5.79,6.91Z"/>
        <path class="cls-1" d="M1033.42,1062.03l1.14-1c.2-.18.36-.37.46-.2.16.27.68,1.6.56,1.9l-2.09,5.36-3.87-10.86,3.87.28-1.31,2.42c-.31.57.75,2.53,1.23,2.1Z"/>
        <path class="cls-1" d="M855.56,724.73l3.28-2.66c-.07-.44.96,1.13.89,1.67-.1.67-1.27,1.43-1.98,1.55l-2.93.49-3.36-5.44,5.07-2.84c-1.13,2.68-1.77,3.76-.96,7.24Z"/>
        <path class="cls-1" d="M1019.39,895.01l-5.04,2.42-1.5-7.13,3.36,2.02,2.16.2c.66.06,1.07,2.06,1.02,2.49Z"/>
        <path class="cls-1" d="M962.43,917.13c.32,7.72,4.99,4.98.86,9.95-3.24-4.82.92-2.74-3.94-7.47l3.08-2.48Z"/>
        <path class="cls-1" d="M813.58,819.7c-.64-.2-1.71-1.05-1.45-1.52l1.55-2.84c.14,0-1.85.14-2.89.22-1.61.12-2.66-4-1.52-5.44l4.84,3.91c1.05.85.46,4.18-.53,5.68Z"/>
        <path class="cls-1" d="M934.75,859.93l-2.41,1.86c-.2,0-1.15-1.03-1.34-.83l-.96,1.01-3.45-5.2c2.06-2.96,3.38,1.91,8.17,3.15Z"/>
        <path class="cls-1" d="M851.73,885.49c-.39.43-.67,2.89-.13,2.88l2.16-.07-.11,4.99c-2.72-1.33-5.03-4.29-4.83-6.47l3.19-3.86c0-.18,1.41.66,1.16.93l-1.44,1.59Z"/>
        <path class="cls-1" d="M835.84,689.75c.28.45,1.78,1.2,2.16,1.56.48.45-.59,1.87-1.12,2.59,2.82,1.32,5.68,4.58,3.06,7.78l-4.45-8.12c-1.26-2.3-2.58-4.08-4.4-6.52-1.6-2.16,4.65-4.48,4.98-3.79.36.75,1.07,3.1.37,3.09l-2.77-.03,2.16,3.44Z"/>
        <path class="cls-1" d="M960.01,767.54l1.68,5.82c-2.15.55-2.91-1.89-2.87-3.83l-2.1-3.58,5.1.1c.23,0,.74,1.61.7,1.83-.04.24-.16.31-.36.26l-2.15-.59Z"/>
        <path class="cls-1" d="M820.86,829.23c.29,1.42.18,3.04-.5,4.5l-3.12-5.9,4.2-2.1c.56-.28,1.3,1.16,1.54,1.83.22.62-1.67,1.51-2.12,1.67Z"/>
        <path class="cls-1" d="M956.29,760.08c1.85,4.05,3.5-1.28,5.33,4.97l-2.66-1.23c-.45-.21-1.73.91-2.38,1.14-1.03-.85-2.25-3.79-1.73-5.03.1-.23.98-.98,1.13-1.18.23-.29-.04-1.29-.42-1.29l-2.25-.02,2.02-2.48-1.29-1.19c-.29-.26-1.26,1.25-1.65,1.36-1.35.38-2.5-2.19-1.91-4.12l3.29,2.77.49-2.52c.1-.52,1.59-.36,1.59.2.01,5.97,5.05,5.18,3.08,6.65l-2.63,1.97Z"/>
        <path class="cls-1" d="M1053.53,984.2c.37.07.45,2.24.11,2.04l-1.88-1.07c-.94-.29-2.65-.14-1.06.76.51,1.73.53,2.94-.23,3.43-1.55-1.75-2.23-4.07-2-6.14l5.06.96Z"/>
        <path class="cls-1" d="M1036.07,941.51c.2-4.35,6.31,7.73,5.39,8.87-2.47-2.2-3.71-3.36-6.06-4.85l2.93-1.74-1.78-.76c-.41-.18-.49-1.07-.47-1.52Z"/>
        <path class="cls-1" d="M1090.94,964.63l1.82-1.36c.44-.33,1.3,1.71.82,2l-4.37,2.69-2.53-3.78c-.16-.24,1.14-1.2,1.3-.96l.73,1.11.82,1.21c.15.22.84-.48,1.41-.91Z"/>
        <path class="cls-1" d="M968.3,780.01l-3.33-.7.69,1.92c.2.56-.91,2.19-1.38,1.82-.81-.63-1.66-2.67-1.32-3.53.42-1.05,2.02-3.26,2.66-3.69l2.67,4.17Z"/>
        <path class="cls-1" d="M732.96,1017.06l5.34,10.08c-3.98.1-4.09-3.06-4.67-7.06-1.22.3-3.01.98-4.57,1.7l-.69-1.45c-.56-1.18,2.38.68,4.59-3.28Z"/>
        <path class="cls-1" d="M761.81,1084.9c1.44,4.44-1.57,1.23.47,5l.68,1.27c.14.25-.52.67-.81.65s-1.21-.81-1.35-1.14l-4.3-10.17c.07-.31,1.05-.99,1.32-.72l1.42,1.44c.39.39,2,1.29,1.68,1.73l-1.47,2.01c.7-.05,2.19-.54,2.35-.07Z"/>
        <path class="cls-1" d="M1043.47,1083.56l2.7-.41c.65-.1.44,2.09-.02,2.59-.48.54-1.32,1.85-1.68,1.55l-2.16-1.77c-.45-.37.58-1.88,1.15-1.97Z"/>
        <path class="cls-1" d="M999.72,990.22l-2.24,1.79-2.85-4.74c-.92-1.53-2.8-3.32-3.34-5.05l-.58-1.86c-.1-.33,1.43-.21,1.74-.36s.02,1.37.05,1.6c1.03,1.12,2.15,2.38,3.1,3.55l4.12,5.07Z"/>
        <path class="cls-1" d="M842.97,695.23c-4.6-.04-4.05-7.76-6.79-6.96-.37.11.27-.83.46-1.22.16-.34,1.52.31,1.75.68l4.58,7.5Z"/>
        <path class="cls-1" d="M739.04,896.2c1.83,2.53,2.68,4.19,3.97,7.45l-5.19-2.89,1.71-1.21c-.39-.87-.59-1.22-.49-3.36Z"/>
        <path class="cls-1" d="M952.74,745.19c1.04.42,2.15,3.62,1.62,4.22-2.23.03-2.37.07-4.65.74-.05.45.19-1.83.26-2.47.98.09,1.63.38,1.76.04l1-2.53Z"/>
        <path class="cls-1" d="M1107.99,995.3l1.63,5.61c-5.19-1.83-3.68-11.07-2.33-7.74.18.43.38,1.01.7,2.13Z"/>
        <path class="cls-1" d="M924.98,1041.7c1.1-.47,2.02,3.65,1.34,4.12l-5.72-2.26,4.37-1.86Z"/>
        <path class="cls-1" d="M929.74,852.06c-.02.23-1.77-.37-1.92.07l-1,3.07-2.41-3.85c2.45-.9,4.21-2.12,5.33.7Z"/>
        <path class="cls-1" d="M779.4,988.78l4.83,3.85c1.18.42.2.58-1.11.65-1.08-.13-3.11-.08-3.25-.94-.19-1.19-.41-2.96-.47-3.56Z"/>
        <path class="cls-1" d="M1114.52,1002.14c.92,2.83,1.45,4.94,1.26,7.68-.84,1.67-5.65-12.13-1.26-7.68Z"/>
        <path class="cls-1" d="M819.58,820.88l-2.26,1.78-1.3-6.9c1.25.75,2.55,2.9,3.55,5.12Z"/>
        <path class="cls-1" d="M738.24,1039.72c3.4.61,3.97,4.79,2.47,6.43-1.35-2.53-1.73-3.33-2.47-6.43Z"/>
        <polygon class="cls-1" points="1003.61 995.02 1003.31 1001.22 1000.64 1001.06 1003.61 995.02"/>
        <path class="cls-1" d="M903.01,999.03l.91.99c.2.22.8,1.14.51,1.14-.43.01-1.82.08-1.99-.3l-2.1-4.53,2.75-.23c.58-.05.1,1.78-.08,2.92Z"/>
        <path class="cls-1" d="M1042.12,966.01c3.04.32,3.35,2.81,2.11,5.73-1.25-1.03-2.29-3.93-2.11-5.73Z"/>
        <path class="cls-1" d="M972.32,938.59c-.84,2.38.25,4.47,2.11,6.66-3.62.5-3.58-2.48-4.44-5.7.29-.17,1.27-.57,2.33-.95Z"/>
        <path class="cls-1" d="M918.36,1033.25c-.28.13-1.97-.17-1.96-.4s.03-.92,0-1.2c-.04-.36.91-.05,2.01.08.16-.03.37-1.64-.06-1.79l-3.04-1.1,3.55-1.25c1.22,1.8,1.37,4.79-.49,5.66Z"/>
        <path class="cls-1" d="M1051.66,981.29l-5.01-1.91c.43-.36,2.34-1.34,3.32-1.69s1.8,2.43,1.68,3.6Z"/>
        <path class="cls-1" d="M910.72,655.39c2.52.69,3.49,2.4,4.39,5.07l-1.32.56c-.39.16-1.54-.98-1.68-1.41l-1.39-4.23Z"/>
        <path class="cls-1" d="M874.71,926.03c.12.56-.06,2.24-.17,2.81-.11.56-2.06-.77-2.34-1.27-.21-.36-.42-1.66-.4-2.07s.61-1.17,1.02-1.09c.55.11,1.78,1.08,1.9,1.63Z"/>
        <path class="cls-1" d="M760.52,939.13c1.11,2.46,1.67,4.56,1.79,6.92-2.23-1.94-3.05-4.53-1.79-6.92Z"/>
        <path class="cls-1" d="M749.89,1050.79c-.11,2.32-1.63,3.82-3.5,5.27.11-2.04.57-4.34,3.5-5.27Z"/>
        <path class="cls-1" d="M757.99,577.22l5.02-1.02c-1.28,1.71-2.61,2.55-4.87,3.76l-.16-2.73Z"/>
        <path class="cls-1" d="M952,896.01l3.01,2.65c-1.88.65-3.73,1.11-4.94.71-1.7-.57-3.72-2.83-2.61-4.82l3.44,3.69c.13.16.83.15.86-.08l.24-2.15Z"/>
        <path class="cls-1" d="M944.13,887.51l2.56,1.28c.66.33.19,2.49-.35,3.15l-3.42-4c-.61.21.48-.17,1.2-.42Z"/>
        <path class="cls-1" d="M1091.04,961.28l-4.89-5.61c2.77-.72,5.46,2.37,4.89,5.61Z"/>
        <path class="cls-1" d="M1138.21,1121.14l.34,1.61c.09.45-.75,1.57-1.15,1.37s-1.44-.98-1.57-1.42l-.67-2.23c-.13-.42.86-1.05,1.29-.98.58.09,1.62,1.04,1.75,1.65Z"/>
        <path class="cls-1" d="M1099.8,977.62l-2.83-6.02c2.46.57,5.46,2.28,2.83,6.02Z"/>
        <polygon class="cls-1" points="1108.99 987.12 1109.51 990.9 1104 987.51 1108.99 987.12"/>
        <path class="cls-1" d="M956.37,1103.33c-.53,1.03-2.16,2.88-2.91,2.48s-1.84-1.56-3.03-2.92l5.93.44Z"/>
        <path class="cls-1" d="M964.85,773.11c4.25-.53-2.08,2.81-2.54,5.35-1.93-1.43-.13-5.02,2.54-5.35Z"/>
        <path class="cls-1" d="M1023.45,1037.57l-2.17,2.57c-.44.52-1.64-.86-1.96-1.44s.26-2.34.86-2.15l3.27,1.03Z"/>
        <path class="cls-1" d="M803.86,1041.1l3.36,6.25c-2.59-.63-4.75-3.48-3.36-6.25Z"/>
        <path class="cls-1" d="M750.73,1061.92c.33,1.13.4,3.54.06,5.47l-2.31-6c.4.06,2.14.16,2.25.53Z"/>
        <path class="cls-1" d="M961.94,1119.29c.7-.2,2.62.33,2.65,1.06l.13,2.98c-2.22-.9-3.85-2.73-2.78-4.04Z"/>
        <path class="cls-1" d="M846.92,704.1l-4.06-3.25c1.05-.73,2.54-.97,3.04-.42.69.78,1.14,2.7,1.02,3.67Z"/>
        <path class="cls-1" d="M1124.54,1064.38c.88.33,2.98,2.22,3.6,3.28-1.62,1.06-4.81-.4-3.6-3.28Z"/>
        <path class="cls-1" d="M1122.69,1043.18c.83.64-.08,3.08-.94,4.01l-1.23-4.01c.13-.15.87-.95.85-.98-.03-.03,1.01.73,1.32.97Z"/>
        <path class="cls-1" d="M809.69,805.24c3.42.79,3.66,3.43,2.76,5.95l-2.76-5.95Z"/>
        <path class="cls-1" d="M1016.88,903.52c-.3-.52.05-2.77.62-2.74l1.92.13c.57.04.46,2.03.15,2.5-.39.6-2.33.72-2.69.1Z"/>
        <path class="cls-1" d="M739.04,1032.53l-2.31,4.96c-.7-1.34-1.45-2.89-.83-3.23l3.14-1.73Z"/>
        <path class="cls-1" d="M983.07,957.88c.52.84.32,3.89-.41,4.77-2.56-.49-1.37-3.44.41-4.77Z"/>
        <path class="cls-1" d="M1012.51,1018.86c-.81.02-1.34.02-1.92-.05-.69-.08-1.96-2.65-1.31-2.9.89-.33,1.84.76,3.23,2.95Z"/>
        <path class="cls-1" d="M716,984.12c3.65,1.15,2.17,4.39,1.73,6.21l-1.73-6.21Z"/>
        <polygon class="cls-1" points="1093.27 970.08 1094.52 974.98 1090.74 971.09 1093.27 970.08"/>
        <path class="cls-1" d="M875.63,937.26c.36-.95,2.71,2.37,1.96,2.83l-1.38.84c-.33.2-1.46-1.37-1.31-1.75l.73-1.93Z"/>
        <path class="cls-1" d="M960.46,912.24c.31-.42,1.44.75,1.44,1.28-.01.7-1.24,2.67-1.6,2.13-.53-.81-.48-2.55.16-3.42Z"/>
        <path class="cls-1" d="M969.42,930.08c-1.27.67-1.64.85-1.9,1.02-.36.25.3,1.3.55,1.84.51.4,1.41.85,1.11,1.07l-1.72,1.27c-1.09.81.19-3.08-2.33-5.42.04-.04,1.88-.47,3.01-.72,1.21.28,1.99.68,1.28.94Z"/>
        <path class="cls-1" d="M788.87,1002.94c.73.52,1.9,2.04,1.46,2.47l-2.19,2.12.73-4.58Z"/>
        <path class="cls-1" d="M741.66,1033.95l2.72,5.12c-3.6-.2-3.33-2.81-2.72-5.12Z"/>
        <path class="cls-1" d="M1013.15,1023.46c-1.33-.73-1.03-5.63,6.07,3.35l-6.07-3.35Z"/>
        <path class="cls-1" d="M828.84,681.84c-.26-.49,1.75-1.76,2.02-1.29l1.06,1.83c.28.48-.73,2.33-1.14,1.95-.52-.48-1.62-1.87-1.95-2.49Z"/>
        <path class="cls-1" d="M768.73,1099.17c.81.68,1.89,2.94,1.48,3.36l-3.6-2.57c-.14-.22,1.73-1.12,2.12-.79Z"/>
        <path class="cls-1" d="M766.06,948.77c.25.3.48,1.56.58,2.02.08.39-1.32.5-1.5.16l-.67-1.28-.65-1.24c-.16-.31.76-1.47.98-1.2l1.26,1.54Z"/>
        <path class="cls-1" d="M933.85,1060.56c.44-.05.85,1.24.62,1.6s-1.19.68-1.52.41l-2.09-1.68,2.99-.32Z"/>
        <path class="cls-1" d="M1041.63,952.93c-.19-.15,1.34.33,1.81.66s.33,1.83-.21,2.03l-3.45,1.25c-.3.11-1.62-.13-1.61-.44l.08-1.47c.03-.47.9-.18,1.8-.05l1.58.21c.27.04.11-.63-.01-2.2Z"/>
        <path class="cls-1" d="M921.46,1038.64l.93,1.87c.2.39-.73.77-1.16.86s-1.58-.97-1.57-1.43l.06-2.13c.01-.48,1.3.41,1.73.84Z"/>
        <path class="cls-1" d="M1028.6,1053.42l2.51,1c.26.1.06.2-.19.46l-1.95,1.64c-.3.25-.99-1.03-1.12-1.4-.17-.5.25-1.9.75-1.71Z"/>
        <path class="cls-1" d="M721.83,1005.55c2.56.97,3.05,3.46,2.11,5.53l-2.11-5.53Z"/>
        <path class="cls-1" d="M728.04,1014.99c-1.67,1.06-3.38-1.19-3.12-3.2,1.23.49,2.83,2.03,3.12,3.2Z"/>
        <path class="cls-1" d="M882.17,954.29c-.31-.23.43-1.98.82-1.9l1.94.36c.5.09-.61,1.59-.91,2.02s-1.23-.02-1.84-.48Z"/>
        <path class="cls-1" d="M746.52,1044.5l2.03,3.72-2.69-.17c-.72-.05-.07-1.6.66-3.55Z"/>
        <path class="cls-1" d="M735.14,1032.47c-.67-.95-1.66-3.24-2.03-4.57l2.12.72c.46.16.21,1.35-.09,3.85Z"/>
        <path class="cls-1" d="M961.27,1118.8c-1.71-1.33-2.34-2.23-2.88-3.94l2.47,1.14c.6.28.53,1.68.41,2.8Z"/>
        <path class="cls-1" d="M989.37,972.59l-1.05,3.46-1.81-3.72,1.9-1.13c.34-.2,1.07,1,.96,1.38Z"/>
        <path class="cls-1" d="M869.96,923.49l.05-1.96c0-.37,1-.32,1.35-.18s1.61.98,1.31,1.21l-1.93,1.47-1.91,1.46c-.4.31-1.19-1.06-1.78-1.89l2.91-.12Z"/>
        <path class="cls-1" d="M974.91,803.48c.08.35-.8,2.09-.99,1.77l-.94-1.55c-.15-.24-.05-1.71-.06-2.07.02.68,1.34-1.21,1.99,1.86Z"/>
        <path class="cls-1" d="M937.52,1072.35l-.08-2.18c-.01-.41,1.56.17,1.61.58l.22,1.87c.07.55-1.74.27-1.76-.27Z"/>
        <path class="cls-1" d="M712.03,985.07l.81.96c.15.18-.02.88-.25.85l-1.65-.27c-.3-.05-1.19-1.15-1.05-1.43l.5-1.02c.21-.43,1.33.55,1.64.92Z"/>
        <path class="cls-1" d="M1006.96,1001.59l1.04,2.63c.17.44-1.05,1.67-1.23,1.23l-1.13-2.63c-.27-.6.99-1.64,1.32-1.24Z"/>
        <path class="cls-1" d="M1036.04,1069.64c.27.27.77,1,.97,1.34s-.7,1.65-.92,1.34l-1.19-1.62-.79-1.08c-.17-.24.29-1.62.5-1.42l1.44,1.45Z"/>
        <path class="cls-1" d="M1085.48,961.73l-2.46-4.02c1.78.58,2.71,1.63,2.46,4.02Z"/>
        <path class="cls-1" d="M720.17,996.21l.23,5.3c-1.2-1.45-2.84-3.08-.23-5.3Z"/>
        <path class="cls-1" d="M898.99,988.39c.8-.11,2.51-.15,2.77.26s-.25,1.26-.7,1.4l-1.7.52c-.35.11-.72-.11-1.19-.31-.32-.14.4-1.81.83-1.87Z"/>
        <path class="cls-1" d="M788.03,998.53l-2.38,1.97c-.52.43-1.41-.59-2.29-1.97h4.67Z"/>
        <path class="cls-1" d="M949.35,889.84l3.09,4.52c-1.88-.26-3.79-1.45-3.09-4.52Z"/>
        <path class="cls-1" d="M1023.88,1048.29l.35-2.34c.06-.4.48-.2.76.1l1.31,1.43c.38.42-2.5,1.36-2.41.81Z"/>
        <path class="cls-1" d="M778.98,980.91l-.34-2.5c-.06-.46,1.88-.06,1.93.4l.2,1.71c.05.44-.68.33-1.79.39Z"/>
        <path class="cls-1" d="M888.09,959.06c.2.69.17,2.17-.24,2.77-.48.71-2.34.03-2.72-.73l2.96-2.04Z"/>
        <path class="cls-1" d="M881.17,943.75l1.6,1.48c.28.25-.85,1.42-1.13,1.16l-1.41-1.28c-.3-.27-.42-1.56-.52-2.31-.05-.39.57.13,1.45.94Z"/>
        <path class="cls-1" d="M907.56,1006.48l1.16,1.71c.18.27-.44,1.08-.76,1.08-.49,0-1.61-.54-1.73-1.01l-.45-1.67c-.09-.34,1.61-.37,1.78-.11Z"/>
        <path class="cls-1" d="M1126.78,1059.67l-2.17-2.78c.77-.17,2.05-.45,2.06-.18l.11,2.96Z"/>
        <path class="cls-1" d="M974.76,948.27l2.63,1.28c.4.19-.26,1.51-.7,1.56-.58.07-1.49-.53-2.1-1.01l.16-1.83Z"/>
        <path class="cls-1" d="M1040.11,1069.25c-1.16.32-2.11.44-2.28.01l-.92-2.32,3.2,2.31Z"/>
        <path class="cls-1" d="M931.83,863.04l1.6,1.41c.27.24.22,1.29-.13,1.22s-1.37-.36-1.66-.59l-1.18-.96c-.34-.28,1-1.41,1.37-1.08Z"/>
        <path class="cls-1" d="M754.68,1064.24c.87.38,1.44.51,1.42.81-.02.34-.11,1.17-.18,1.47-.1.45-.7.09-2.45-.54-.08.11.11-.16,1.22-1.73Z"/>
        <path class="cls-1" d="M1049.23,1093.8c1.11.11,1.19,3.04,0,3.29-.83-.04-.86-2.57,0-3.29Z"/>
        <path class="cls-1" d="M770.14,1111.18l2.16,3.27c-.97.04-2.55.23-2.5-.27l.34-3Z"/>
        <path class="cls-1" d="M945.28,882.57c.12.03.59,1.94.13,1.8l-2.49-.76c-.76-1.36-.77-1.4,2.37-1.04Z"/>
        <path class="cls-1" d="M1133.73,1105.01c.93-.04.99,3.03,0,3.24-.99-.06-1.05-2.62,0-3.24Z"/>
        <path class="cls-1" d="M1027.25,1049.21c.28-.29,1.08-1.01,1.36-1.27s1.01.25,1.3.5c.38.34-.32,1.49-.73,1.77l-2.92,1.99c.1.18-.62-1.28-.87-1.81-.22-.45,1.04-.79,1.87-1.2Z"/>
        <path class="cls-1" d="M1130.2,1090.68c-.22.19-.4-1.62-.5-1.9-.16-.42,1.2-.33,1.86-.21.31.06.66.35.43.55l-1.79,1.56Z"/>
        <path class="cls-1" d="M1131.71,1081.08c-.6.87-1.32,2.63-1.66,2.28l-1.98-2.05,3.64-.23Z"/>
        <path class="cls-1" d="M746.62,692.33c-.03.41-2.01.62-2.12.13l-.61-2.84,2.72,2.71Z"/>
        <path class="cls-1" d="M1010.38,1010.02c-2.05-.08-3.74-.77-4.97-2.05,2.05.11,3.72.79,4.97,2.05Z"/>
        <path class="cls-1" d="M992.61,975.24c-.63.91-1.81,1.71-1.59.77l.49-2.12c.17-.73,1.49.79,1.1,1.35Z"/>
        <path class="cls-1" d="M739.66,682.25s.93-.25,1.22-.33c.44-.12,1.18.78,1.18,1.24s-1.01,1.67-1.23,1.27l-1.17-2.18Z"/>
        <path class="cls-1" d="M971.84,1135.15c-.37-.14-.26-1.94.13-1.87l1.73.29c.52.09-1.37,1.76-1.86,1.58Z"/>
        <path class="cls-1" d="M762.89,1081.95c1.14,2.06,1.51,3.27.94,3.91-1.16-1.34-1.38-2.85-.94-3.91Z"/>
        <path class="cls-1" d="M842.36,1114.95l-3.18,1.38.84-2.32c.19-.51,1.29.19,2.34.94Z"/>
        <path class="cls-1" d="M855.91,726.22c.4.1,1.95,1.12,1.67,1.52l-1.51,2.16-.16-3.69Z"/>
        <path class="cls-1" d="M783.88,986.27l1.11,3.82c-1.67-.08-2.01-1.46-1.11-3.82Z"/>
        <path class="cls-1" d="M866.67,917.43l-3.09-2.54c1-.17,2.42-.45,2.52-.02l.57,2.55Z"/>
        <path class="cls-1" d="M827.28,1096.98c-.29.04.17-1.85-.04-2.05-.33-.3.82.25,1.22.44s1.57,1.25,1.12,1.31l-2.3.31Z"/>
        <path class="cls-1" d="M755.64,1070.47c-.27-.14-.06-1.4.23-1.35l1.96.32c.44.07.09,2.18-.3,1.98l-1.89-.95Z"/>
        <path class="cls-1" d="M1095.05,969.22c-.14-.22-.04-1.33.21-1.23l1.63.63c.37.14-.23,1.28-.42,1.65-.18.35-1.21-.73-1.42-1.06Z"/>
        <path class="cls-1" d="M756.57,938.46c.68,1.41.66,1.82-.85.89-1.4,1.28-1.23-2.89-.7-2.38l1.55,1.49Z"/>
        <path class="cls-1" d="M897.13,981.84l-1.92-2.38s1.49-.07,2.06-.09.3,1.24-.14,2.48Z"/>
        <path class="cls-1" d="M911.12,1014.73c-.02-.44-.08-1.3.16-1.22l1.58.56c.34.12.11,1.69-.2,1.52l-1.54-.87Z"/>
        <path class="cls-1" d="M914.49,1024.27c-.79.31,1.11-3.19,1.29-2,.31,2.07-.08,1.53-1.29,2Z"/>
        <path class="cls-1" d="M1038.55,1078.34c.02-.92.25-2.31.55-2.03l1.29,1.18c.4.36-1.85,1.39-1.83.86Z"/>
        <path class="cls-1" d="M1042.63,1078.44c-.13-.19-.14-1.23.09-1.14l1.51.62c.33.14-.21,1.12-.32,1.52-.09.34-1.07-.7-1.28-1Z"/>
        <path class="cls-1" d="M1046.07,962.28l-2.4-2.17c-.43-.35,1.66-1.18,1.79-.58l.61,2.76Z"/>
        <path class="cls-1" d="M1045.26,975.92c-.41.17-.97-2.59-.56-2.42l1.93.82c.54.23-.74,1.32-1.37,1.59Z"/>
        <path class="cls-1" d="M801.97,1032.19c-.09-.25,0-.99.27-1,.43-.01,1.84-.11,1.71.26l-.58,1.67c-.13.37-1.27-.56-1.4-.93Z"/>
        <path class="cls-1" d="M1055.98,999.8l-.38-1.88c-.06-.31,1.17-.76,1.29-.46l.49,1.27c.17.45-1.3,1.53-1.39,1.07Z"/>
        <path class="cls-1" d="M807.25,1040.12c1.13-.07,2.13-.12,2.13.31l-.05,2.54-2.08-2.85Z"/>
        <path class="cls-1" d="M1082.44,956.05l-2.19-2.2c.97-.11,2.55-.36,2.48.14l-.29,2.07Z"/>
        <path class="cls-1" d="M814.48,1064.09s2.45-1.85,2.31-.94c-.11.7-.09,2.35-.43,2.13l-1.87-1.19Z"/>
        <path class="cls-1" d="M798.52,1028.43l-2.46-2.83c.29-.11,1.66-.37,1.78.08l.68,2.74Z"/>
        <path class="cls-1" d="M814.53,822.88l-.14-1.91c-.03-.39,1.18,0,1.26.4l.41,2.03c.08.41-.82-.09-1.53-.52Z"/>
        <path class="cls-1" d="M820.78,1072c1.14-.08,2.14-.14,2.13.3l-.05,2.53-2.09-2.83Z"/>
        <path class="cls-1" d="M793.36,1012.75l.4,3.87c-.62-.4-1.11-.73-1.36-.85-.34-.17.16-.96.96-3.02Z"/>
        <path class="cls-1" d="M996.27,984.7l-.39-1.91c-.06-.32,1.18-.76,1.29-.47l.48,1.27c.17.45-1.29,1.58-1.38,1.11Z"/>
        <path class="cls-1" d="M993.83,850.08l-.26-2.06c-.05-.38,3.03.6,2.08,1.25-.6.41-1.76,1.23-1.82.81Z"/>
        <path class="cls-1" d="M866.47,920.96l-.39-1.91c-.06-.31,1.18-.75,1.29-.46l.49,1.27c.17.45-1.29,1.57-1.39,1.1Z"/>
        <path class="cls-1" d="M870.94,932.59c1.15-.09,2.14-.14,2.13.27l-.04,2.55-2.09-2.82Z"/>
        <path class="cls-1" d="M956.66,914.46l-1.59-3.55c.52.06.92.11,1.26.13.41.02.36,1.28.33,3.43Z"/>
        <path class="cls-1" d="M771.68,1109.6c-.18-.17.14-.95.26-1.16.17-.32,1.49,0,1.49.37v1.59c-.01.38-1.47-.54-1.75-.8Z"/>
        <path class="cls-1" d="M916.71,828.9l1.99,1.6c.19.16-.12,1.31-.32,1.15l-1.81-1.4c.07-.67.22-2.03.15-1.35Z"/>
        <path class="cls-1" d="M704.44,980.66c-.28.04-.51-1.29-.45-1.57.1-.41,1.13-.8,1.37-.45.17.24.55.71.75.92.3.31-1.24,1.04-1.67,1.1Z"/>
        <path class="cls-1" d="M1061.31,785.49c1.6-3.33,11.33,1.81,12,13.61.06,1.1-.6,3.31-1.17,4.1-.67.92-3.08,1.87-4.31,1.5-5.19-1.55-10.32-5.43-9.64-11.33.25-2.14,2.13-5.8,3.13-7.88Z"/>
        <path class="cls-1" d="M1068.33,707.92l5.2.55-1.65,5.52c-3.82-1.75-6.25-5.66-4.97-6.74l2.32-1.96c-4.83-2.42-8.85-8.25-7.72-14.04.63-3.25-1.41-7.19-4.35-8.3,1.45,3.25,2.64,5.65,3.14,8.14-4.29-.97-4.96-6.71-4.17-9.21.13-.42,1.29-1.08,1.34-1.45l.39-2.88c4.25,7.48,5.36,9.19,6.11,18.4l2.03-2c.35.53,1.96,2.87,1.38,3.26l-2.89,1.97c.98-.11,3.33-.3,3.77.43l3.16,7.03-3.09,1.28Z"/>
        <path class="cls-1" d="M1085.03,744.27l-.47-5.44-3.89,2.31-3.45-10.89,2.66.03c.5,0,.11-1.69-.21-2.08-.31-.4-1.31-.45-1.81-.29l-2.22.7c-1.74.55,0-5.11-1.03-5.44l-1.79-.58c-.49-.16-1.04-1.71-.56-1.88l2.53-.89c-1.78-.48-3.7-.68-3.99-1.76-.48-1.82.52-4.28,2-3.88,2.75.74,4.69,1.93,4.11,4.21l-1.26,4.98,2.63.23c.61.05-.09,2.29-.23,2.77,1.13-.11,2.5-.46,2.97.11,2.46,3.04-.19,4.3.16,7.89.45,4.69,4.06-1.61,7.2,10.65-.36.96-3.26.18-3.34-.75Z"/>
        <path class="cls-1" d="M1142.79,687.04c.24.1-1.41.4-1.63-.03l-.94-1.88c-.22-.44-1.22-.91-1.32-1.39l-.47-2.23-2.49-6.72c2.21-.82,2.91-.86,1.92.66,2.13,2.4,3.74,5.02,3.57,7.87l1.35,3.72Z"/>
        <path class="cls-1" d="M1138.09,668.76c1.42.36,1.36,3.12.57,3.88-.99.94-4,.65-4.82-.79-.63-1.11,2.25-3.59,4.25-3.08Z"/>
        <path class="cls-1" d="M1086.03,751.03l-2.8-4.78c1.01-.36,2.79-.07,3.29.66.85,1.24.98,1.84-.5,4.13Z"/>
        <path class="cls-1" d="M721.83,875.2c3.18,1.26,4.09,3.96,2.59,6.87-1.12-2.3-1.99-4.66-2.59-6.87Z"/>
        <path class="cls-1" d="M733.67,810.83c-.03,1.5-.24,3.32-.66,5.2-1.88-1.34-1.87-3.32.66-5.2Z"/>
        <path class="cls-1" d="M726.82,872.01l2.26,5.26c-1.51-.51-2.13-1.78-3.1-3.35l-.86-1.39c-.25-.4,1.48-1.02,1.69-.53Z"/>
        <path class="cls-1" d="M731.72,880.72l-3.42,2.13.84-2.22c.18-.47,1.66-.14,2.58.09Z"/>
        <path class="cls-1" d="M737.4,809.58c-.18-.28.58.89,1,1.55.33.51-.63,1.75-1.11,2.43l.11-3.98Z"/>
        <path class="cls-1" d="M1097.83,795.84c7.51,2.76,5.96,2.76,7.22,9.82l-5.7-3.53-1.52-6.29ZM1100.8,800.9c.09.39,1.4.2,1.43-.2.02-.36,0-.95-.05-1.2-.08-.38-1.13-.29-1.52-.31-.26-.02-.01,1.06.14,1.71Z"/>
        <path class="cls-1" d="M1106.01,822.34c-.97-1.98-1.48-4.64-2.01-7.13.06-.49.41-2.21-.02-2.39l-2.83-1.25,4.57-1.07c.35,4.12,1.34,6.85.28,11.84Z"/>
        <path class="cls-1" d="M1099.55,781.32c1.55,1.36,2.04,5.52.83,7.23l-3.05-6.94-1.57.71c-.39.18-1.12-.68-1.05-1.11s.92-1.17,1.35-1.09c.65.13,2.98.74,3.49,1.19Z"/>
        <path class="cls-1" d="M1098.04,789.04c.13.29-.07,1.51-.11,1.83s-1.74.21-1.76-.11l-.44-6.85,2.3,5.13Z"/>
        <path class="cls-1" d="M1105.59,825.85c.04.46.03,1.78-.26,1.83l-2.34.39.35-1.8c.1-.52,2.2-.97,2.24-.42Z"/>
        <path class="cls-1" d="M1101.03,794.83c-.13-.68-.19-1.68.18-1.92s1.59-.24,1.7.17l.48,1.76c.12.43-2.28.41-2.36-.02Z"/>
        <path class="cls-1" d="M1105.22,830.83c1.06.5.14,2.69-1.42,3.49-.43-.88.15-2.17,1.42-3.49Z"/>
      </g>
      <text class="cls-2" transform="translate(552.67 362.89)"><tspan x="0" y="0">7</tspan></text>
    </g>
  </g>
</svg>