<?xml version="1.0" encoding="UTF-8"?>
<svg id="Livello_2" data-name="Livello 2" xmlns="http://www.w3.org/2000/svg" viewBox="0 0 1344.84 1464.1">
  <defs>
    <style>
      .cls-1 {
        fill: #fff;
      }

      .cls-2, .cls-3 {
        fill: #194795;
      }

      .cls-3 {
        font-family: Manrope-Bold, Manrope;
        font-size: 421.97px;
        font-weight: 700;
      }
    </style>
  </defs>
  <g id="Livello_1-2" data-name="Livello 1">
    <g>
      <rect class="cls-1" y="13.02" width="1344.84" height="1451.08" rx="81.63" ry="81.63"/>
      <text class="cls-3" transform="translate(487.6 362.89)"><tspan x="0" y="0">11</tspan></text>
      <g>
        <path class="cls-2" d="M983.84,526.8c7.34,1.14,9.69,4.24,15.59,5.48v-4.06c-.49,1.13-3.48-1.82-7.85-3.96-1.07-.53-4.29-1.68-3.88-2.76,2.83-7.45,6.3-14.04,10.88-19.88h-2.55l-10.65,18.49c-3.55-1.58-13.39-4.44-16.39-5.1l-9.2-2.03c-6.72-1.48-9.87-6.37-15.41-4.5-.83.28-1.09,3.13-.23,3.43l7.65,2.6,2.17.75c.46.16-.36,1.83-.61,2.24l-11.86,19.1-12.05-2.88c-1.08-1.64-2.24-2.33-4.24-1.73l-4.26-2.78c-3.8.03-6.64-.2-10.62-2.23,1.49-3.81,4.27-8.73,5.95-11.36.24-.37-.55-2.71-.88-2.42-.33.3-1.58,1.15-1.85,1.68l-5.97,11.59-9.73-4.11c-4.95-2.09-10.44-4.21-14.96-7.14-3.62-2.35-6.58-4.12-10.95-5.35-2.7-.76-5.65-2.78-8.26.53,16.26,4.4,8.58,4.02,20.81,9.87,10.68,5.12,12.52,4.58,21.96,9.36l-9,20.65-12-4.25-22.01-7.44c2.46-4.2,7.68-10.82,11.66-8.23l-.23-4.86c-3.1.24-5.38,1.77-7.44,4.12l-6.76,7.73c-3.82-1.5-8.4-3.15-11.7-4.12-.91-.27-3.3,1.44-2.92,2.12.3.54,1.32,1.71,2.04,1.92l10.46,3.09-9.23,15.18c-4.4-2.22-9.17-3.54-13.37-6.2l-4.13-2.62-15-6.17c-2.21-.91-5.6-2.61-5.38-4.82,8.72-7.33,16.71-11.86,26.08-17.32l19.87-11.59c2.82-1.64,5.59-3.06,7.55-5.19h-7.66c-12.27,8.9-23.51,13.87-36.75,23.02l-13.1,9.04c-1.31.9-5.44-.14-6.6-1.4-2.42-2.62-6.94-4.82-11.13-5.78-2.97-.68-5.69-4.43-8.25-5.78l-7.36-3.87-16.1-8.54-6.93-3.9c-1.39,1.12-.61,5,1.78,6.31l12.53,6.83c4.25,2.32,7.57,5.53,11.73,7.86l6.66,3.72c4.35,2.43,8.29,4.68,12.83,7.01.57.29,1.6,1.2,1.84,1.74.27.59-3.41,4.98-6.65,4.41-1.4-.25-3.1-2.85-4.25-3.32l-9.48-3.85-4.17,2.44-9.1,2.88c-4.5,1.43-8.25,2.14-12.91,2.82-12.5,1.82-6.76,3.05-21.51,3.12l-13.56.06c-4.1.02-8.52.31-12.75.61l-9.25.66c-1.43.1-3.68.57-5.3.43-9.52-.8-17.08-4.28-23.77-10.79-2.18-2.12-5.35-3.74-7.98-5.53-10.49-7.13-15.7-13.89-20.95-25.63,1.11-.41,3.45-.84,4.54-.58,1.05.24,1.82,2.17,2.59,3.44l3.89,6.45c2.36-.2,4.03.32,5.49,1.76l6.14,6.05c3.89,3.84,9.36,6.02,14.17,8.77,9.57,5.47,19.99,6.7,31.05,8.24,14.1,1.96,19.68.79,33.43-2.19l12.43-2.69,15.88.15c-2.75-.03,13.07-1.23,13.34-4.59.06-.77-1.02-2.54-1.85-2.66-9.65-1.34-20.67-7.6-28.02-13.72-3.92-3.27-8.23-5.07-10.34-10.71-.16-.02-.33-.04-.5-.04-.35,0-.71.03-1.06.04-2.71,3.77,2.63,8.94,4.88,10.74l7.61,6.09c4.21,3.36,8.41,5.85,13.78,9.18l-19.82,1.3-11.04,2.62c-9.88,2.34-15.63,3.77-25.91,2.2l-8.27-1.26c-8.08-1.23-16.39-2.3-23.51-6.48-4.05-2.38-8.9-4.28-12.48-7.1-5.65-4.45-18.83-16.35-16.52-16.49-14.78.36-16.18,1.08-14.69,1.3,5.89,10.65,9.1,16.59,17.76,24.33,4.56,4.08,9.78,7.11,14.68,10.85,15.96,12.19,24.55,11.65,44.7,9.81,10.45-.95,21.18,1.18,31.39-.76l22.06-4.19c4.72-.9,17.28-8.96,25.22.29-23.13,14.56-42.74,31.56-64.42,46.83l-15.04,10.6-9.77,7.35c-6.9,5.19-13.77,10.05-20.87,14.91l-11.6,7.94-1.4-7.33c-5.61,4.16-5.93-.87-15.36-3.22,3.3-3.51,3.14-7.83,1.46-11.96-1.45-3.57-5.26-5.28-9.39-6.44-4.55-1.28-8.2-1.2-11.04,2.27-2.73,3.34-2.75,7.81.05,11.47,2.35,3.06,5.33,4.75,9.38,6.31-2.08,3.71-4.01,8.52-7.51,10.91-2.7,1.84-14.17-1.32-12.39,2.95.4.96,2.13,1.98,3.2,2.08l10.14.95c4.09-4.09,7.19-8.56,10.68-13.92,1.85,4.74,4,10.62,2.92,15.39-9.4,10.65-6.55,8.05-19.04,16.64-1.03-4.54,11.92-17.18,12.3-22.01-4.26,4.64-7.2,9.21-10.46,14.32l-7.39,11.57c-8.22,4.93-16.95,8.81-24.57,14.65l-13.62,10.44c-4.89,3.75-9.59,6.61-15.48,9.85l-1.38-24.04c-.66-11.51-.26-22.74-.27-34.52,0-3.28-.93-7.27-1.42-10.55-4.99-4.36-10.22-8.35-16.86-10.16-3.44-.93-9.47,1.82-10.13,5.42-2.53,13.83.5,32.43-.61,41.85l-2,16.94c-.45,3.79-.32,7.1-1.04,10.87-8.48-.42-15.39-2.43-23.4-3.51l-29.42-3.99-13.87-2.94c-11.39-2.41-21.92-5.1-33.09-7.91l-27.34-6.89c-11.01-2.77-21.89-5.36-33.16-7.37-8.1-1.44-15.43-3.65-23.24-5.95l-13.96-4.12c-3.71-1.1-7.39-2.96-11-2.45-.18,1.24.06,3.28.87,3.5l2.97.81,21.38,6.64,5.23,12.49-8.8,4.79-13.85,7.91c-.97.55-3.71.83-4.31.9,1.41,3.66-5.89,5.15-2.97,7.93l22.62-15.51c2.61-1.79,5.54-3.33,8.64-4.12l5.66,10.86c3.09,5.93,6.15,11.3,9.95,17.1l-9.1,6.74-5.38,4.07-11.16,8.47c-3.82-6.39-6.23-11.12-10.24-16.62,2.09,6.3,5.1,10.93,7.97,16.7-3.56,6.24-7.1,6.15-9.36,11.65,5.07-.15,6.71-2.95,9.41-5.63l5.49-5.44c7.07-7,15-11.85,23.4-18.32l10.74,16.12c3.25,4.88,6.4,9.67,8.85,14.76-.57,1.14-1.04,1.94-.68,1.8.24-.09,2.07.17,2.2.39l3.46,5.88c9.97,16.95,21.23,32.64,33.18,48.28l7.13,9.33c.49.64,1.41,2.22.94,2.75l-2.25,2.58,4.3-1.58,11.28,14.22,9.56,12.05-3.92,4.43,5.14-3.25,4.97,5.77c6.93,8.05,13.33,14.92,21.59,23.15l-12.45,8.66-26.1,18.21c-5.27-6.11-10.01-11.65-14.28-18.06-2.56-3.84-1.77-10.49-2.18-15.01l23.77-19.53c-2.56.54-4.51,1.81-6.34,3.2l-17.75,13.5c-1.07-4.21-1.43-7.19-2.13-10.93-1.51-8.11-5.35-15.61-9.46-23.12l14.15-10.72c-2.78-.85-4.03,1.1-5.89,2.46l-9.28,6.75c-3.08-2.43-5.74-6.31-8.55-9.68-5.76-6.9-12.2-12.31-19.17-18.93l12.69-8.29c2.29-1.5,4.13-2.96,5.72-5.46-8.71,2.8-17.74,14.81-23.58,9.55l-12.16-10.93c-3.22-2.9-5.86-5.44-7.77-9.47l-3.68-7.76,12.8-9.46c-2.98,1-5.43,2.09-7.93,3.52l-6,3.41-3.23-5.54c-3.51-6.03-6.56-11.71-10.52-17.96-.49,5.97,9.14,15.48,11.13,24.57-.8,1.18-3.17,3-4.32,2.56l-11.59-4.47c-20.85-8.05-8.54-8.43-24.15-13.41.31.85.38,1.8.42,2.66.02.5.01.99,0,1.49,3.5,1.92,6.69,3.62,9.24,7.06l-9.27-4.92c0,.08,0,.16,0,.24,0,.54.04,1.09.06,1.63.23.79.41,1.61.41,2.41,5.07,2.55,8.68,5.59,12.8,8.68l9.04,6.77c-4.46,3.62-10.61,3.35-12.69,9.36-.27.79,2.31,1,3.02.5l8.56-5.93c3.53-2.45,4.9-1.46,8.31.26,5.98,3.02,12.37,5.93,17.52,10.57l13.79,12.44-16.57,10.86-18.05,12.25-3.06-4.77c-1.02-1.59-2.17-3.03-3.44-4.04,1.17,6.11,6.3,7.39,4.97,10.34-1.8,3.99-1.92-.49-5.81,10.71-.15.42,1.74,1.34,2.03,1.01.29-.34,1.04-1.17,1.3-1.59l4.31-6.95,3.33,2.53-1.59-4.34c-.26-.72,1.5-2.34,2.57-3.07l31.7-21.62c3.33,4.64,6.02,8.17,8.72,12.44l12.81,20.26c-.06.44-.13,1.53-.16,1.9-.03.38,1.77.7,2.04,1.06,4.57,6.13,11.34,26.97,11.07,35.36l-5.86,4.76,6-2.82c.73,6.47-.41,13.25-.58,19.97l-.58,23.96c-.06,2.6-2.53,7.43-5.45,5.88-7.2-9.31-13.54-19.02-19.89-28.6,3.43-2.76,6.36-4.79,8.27-8.55-3.78,1.67-5.82,3.92-9.48,6.86l-21.05-33.05c3.23-2.08,5.53-3.58,8-6.62l-8.9,4.6-15.41-25.13c-1.03,3.08,1.45,4.49,2.59,6.51l9.57,17.04c.48.85,1.33,2.64,1.06,3.42-.98,2.75-3.9,2.5-6.07,5.82l7.37-4.2,21.52,32.92-12.64,11.16-14.83,13.23-7.89,6.91-8.58-14.1c.05,4.67,2.82,7.58,4.9,10.94l1.84,2.97c.45.72-.91,2.68-1.55,3.32l-8.98,9.02c-3.05,3.06-4.74,7.34-4.77,11.24,4.37-.16,3.12-3.65,4.36-5.83,3.18-5.59,8.06-10.54,13.13-14.58,5.34,9.88,10.34,17.41,16.61,26.31-1.66,1.51-3.45,2.96-5.23,4.44l-10.62,8.82-20.83,16.51c-4.91-3.71-8.13-17.2-13.55-15.72l9.04,14.06c.64,1,2.12,2.9,2.28,3.23-2.62,2.84-4.07,4.79-5.89,7.83-1.76.06-4.75-.41-6.55-.96v3.41c2.33.04,4.93.71,7.5,1.65l18.89,6.85c4.34,1.57,10.4,2,18.4,6.07l-5.02,4.51c-.82.74-2.86.26-4.64-.68l-.24,4.87-25.14-8.87c-3.55-1.25-6.83-2.52-9.76-4.18v3.41c10.7,3.16,21.41,6.6,32.3,11.29l-22.99,21.67c-2.15-2.68-4.63-6.18-6.6-9.32l-2.71-.66v3.41c.56.32,1.88,1.21,2.37,1.76l8.11,9.06c1.81,2.02,1.77,5.46,5.59,6.2l-5.02-7.95c3.21-.48,3.78-2.14,5.1-4.75,2.95-5.82,8.44-9.82,13.32-14.11,1.09-.96,3.3-3.67,4.67-3.89,8.36-1.34,12.97,10.7,16.94,12.67l-6.24-9.58,26.42,5.88-13.06,10.74-6.15-5.9c1.11,3.05,2.56,4.74,4.4,7.37l-15.76,11.95-15.21,10.77c-3.96,2.81-7.62,6.82-10.89,11.36l11-7.68,2.07,1.03c.22.11.13-.42,0-.66-.12-.25-1.08-1.91-.68-2.21l27.58-21.17c2.1-1.61,3.48-1.61,5.41-1.39-.18.14-.32-2.62.38-3.21l12.41-10.34,8.66,2.2,20.26,4.5c4.72,1.05,9.82,1.61,13.2,5.97l-26.82,22.45c-1.89,1.58-4.13,3.17-6.22,4.64-3-4.1-4.78-6.85-8.38-9.3,1.3,4.46,4.34,6.31,7.89,10.05l-8.12,7.14c-5.38,4.73-11.03,8.82-16.98,12.67l-5.18,3.35c3.44.44,7.27-.57,9.94-2.87l21.33-18.46,12.76,14.81,9.95,11.42-9.26,8.28c-.46.41-2.45,1.55-2.62.99l-1.01-3.18c-2,2.67-3.66,4.97-6.06,7.28-10.44-2.63-19.62-5.67-29.45-9.1-3.87-1.35-6.4-2.98-9.1-6.54l-.7,2.87-13.9-5.15c-8.09-2.99-15.29-7.17-23.07-10.97-2.73-1.33-6.92-1.24-8.34,1.56l-1.55,3.06v4.26c5.37,1.92,10.73,4.21,16.22,6.65l17.1,7.62c17.8,7.93,36.26,12.04,54.95,17.28l19.9,5.59,62.51,12.5,14.26,4.38c6.28,1.93,13.1,3.42,17.93,5.6l-3.36,21.36-1.34,22.04c-.89,14.68-3.27,28.57-4.22,43.28-.73,11.33-.88,22.3-.82,33.54l.15,27.38c.01,2.66.01,5.36-.29,7.99-10.32-4.56-18.66-6.29-28.38-9.39l-8.91-2.84-72.35-20.52c-13.14-3.73-63.13-22.31-73.3-28.92-3.44-2.24-6.41-2.71-10.04-1.15v10.22c1.2.47,2.61,1.06,4.08,1.73l16.26,7.41,13.5,6.11c1.77.8,4.23,1.51,6.35,2.3,19.98,7.54,39.48,14.85,60.01,20.8l32.29,9.36,9.11,2.68,16.34,4.6c3.23.91,6.34,1.32,9.71,2.3l11.7,3.41c16.12,4.7,10.21,8.26,19.1,3.95,4.2-2.04,8.67-3.92,12.63-6.87,6.23-4.64,12.01-9.75,18.61-13.76,2.24-1.36,4.34-2.11,6.34-3.81,13-11.05,24.68-22.62,36.87-34.61l27.88-27.42c10.5-10.32,21.54-19.15,32.99-28.37l19.38-15.6,32.19-27.43,40.35-32.04,41.27-35.19,5.99-5.2,25.87-21.71,33-28.3,22.25-19.43,18.43-16.51,27.44-24.29c5.58-4.94,10.26-9.6,17.56-13.39.99,4.35.5,7.77.19,11.82l-1.62,21.55c-2.12,1.39-3.55,2.76-4.98,4.48-5.38,6.53-12.15,11.1-18.65,16.42-7.63,6.25-15.68,15.88-22.62,20.85-6.23,4.47-11.46,9.17-16.77,14.7-5.31,5.52-11.87,9.67-17.56,14.73l-11.26,10.02c-4.17,3.71-3.75,10.8-5.35,15.83-4.09-.23-8.55.48-12.25,2.18l.71,5.18-8.32,6.08c-4.03,2.94-7.88,5.42-11.66,8.73-1.95,1.71-4.12,3.45-6.13,5.01l-7.65,5.94-10.27,8.45-20.41,18.02-9.08,7.95-19.62,17.65-9.85,7.23c-2.19,1.61-3.89,3.17-6.28,4.93l.08,4.46c-2.66,1.66-4.98,5.1-4.26,8.69,1.2,5.96.97,11.49.66,17.72l-.79,16.1c-.49,10.1.52,19.29.48,31.13l-.08,25.47-.3,10.75.34,17.45,1.33,13.86-.07,8.6c-.02,2.48-.65,5.96.13,8.1,1.17,3.21,1.44,4.88.52,8.51l5.04,2.85c.81.46,2.4,2.07,3.17,2.83l19.04,4.67c12.24,3.01,13.97,1.91,22.73,3.61l22.95,4.45c5.36,1.04,10.78,2.9,16.18,4.53l12.81,3.85,45.61,14.01,10.07,3.03c13.25,3.98,26.22,7.04,39.68,10.45l14.87,3.77c14.9,3.78,27.71,2.88,46.73,7.72,4.83,1.23,8.54,3.94,14.19,2.13.17-3.6.55-7.19,1.05-10.76-11.41-3.29-21.35-6.31-32.57-6.93-7.52-.42-14.45-1.14-21.71-3.14-2.15-.59-5.01-.92-7.06-1.65-8.11-2.9-16.12-3.74-24.37-6.22l-44.36-13.36c-5.16-1.56-10.07-2.97-15.1-4.6l-27.67-8.97c-9-2.92-17.55-5.39-26.89-7.14l-15.63-2.93-14.66-1.79-22.31-4.78c-3.26-.7-5.56-1.02-9.25-.39-3.44-12.94-.06-17.89-2.41-30.84-1.32-7.28-1.64-14.32-1.46-21.75l.34-14.57-.02-39.98c0-17.48-.16-34.42,1.59-52.28,16.53,6.31,26.46,5.69,42.07,10.3,8.61,3.64,17.41,4.97,26.58,6.66l22.35,4.12c6.43,1.18,12.47,1.75,19.14,2.24,4.79.35,11.38-.86,11.38-6.84,0-3.52-3.47-7.53-1.11-11.14l-.44-28.83c-.07-4.82-.7-9.58-.3-14.42,1.31-15.75,2.38-31.02,2.53-46.89.06-6.2-1.02-27.41,4.82-29.73,12.28,2.61,22.47-2.56,33.18-2.7,23.65-.3,19.95-7.17,43.1-3.43,4.85.78,10.18,2.98,13.84-1.99.14-2.82-.62-7.48-.28-10.41.73-6.36.63-11.81.87-18.11l.65-17.05,1.66-23.88.7-16.14,3.04-29.61c.07-.72-.54-2.75.11-2.77.65-.02,2.73.06,3.51.4,8.39,3.62,19,5.93,28.3,8.03l15.28,3.45v-8.95c-4.6-.65-9.05-2.12-14.02-3.14l-13.42-2.76-18.07-5.19,19.63-15.12c4.47-3.44,9.61-5.79,14.31-8.86,4.15-2.71,6.93-7.5,11.58-8.87v-10.68c-2.47-1.42-3.67.26-5.78,1.71-3.38,2.32-6.77,4.4-9.65,7.3-8.72,8.8-14.15,10.91-24.42,19l-17.75,13.98c-2.04.87-6.28-.04-8.47,2.54-2.02,2.38-5.7,3.63-7.99,5.61l-7.29,6.3-31.24,28.28-4.82,4.49-17.44,15.74-14.72,12.65-25.24,22.45c-1.11.42-2.32.95-2.8,1.45-9.81,10.24-16.47,13.88-27.57,23.48l-4.53,3.92-5.03,4.39-9.25,7.79-25.92,22.54-5.02,4.52-13.2,10.58-14.97,12.12-11.08,8.56-23.75,19.06-27.14,23.65-36.48,29.91c-3.81,3.12-7.05,6.65-10.48,10.12l-16.43,16.63-13.75,14.36c-13.41,14-27.54,26.45-43.48,37.41l-6.43,4.43c-2.53-12.64-.08-21.09.09-33.39.1-7.31-1.14-14.56-.19-21.77.33-2.48.39-4.69.53-7.21.54-10.25,1.38-20.24,2.5-30.49,1.01-9.22,2.4-18.04,2.46-27.31.04-6,1.27-11.39,2.03-17.24l1.66-12.79,9.06,1.13c4.85,5.11,11.72,4.78,16.46,0l14-14.12c5.91-5.97,12.02-11.11,18.49-16.46l11.15-9.23c8.21-6.79,16.65-12.8,25.41-18.87,7.46-5.17,14.72-9.81,21.46-15.94,3.14-2.85,6.9-5.81,10.06-8.17,2.81,1.55,4.8,2.57,7.63,2.59l-5.41-3.85c9.57-7.46,18.06-14.98,26.82-23.09l27.79-25.75,11.11-10.24c2.23-2.06,16.57-15.61,18.35-14.47,5.45,3.48,10.58,9.42,11.84,6.67l-11.4-9.32,12.43-11.31c18.46-16.81,34.08-35.88,53.37-52.09l32.84-27.61c6.24-5.25,11.18-11.36,16.84-17.2l8.41-8.68c7.26-7.49,14.95-13.79,23.12-20.36,9.28-7.46,18.12-14.69,27.92-21.48l32.16-22.29,15.69-13.99,17.71-12.93c3.57-2.6,6.27-6.1,9.73-8.14v-11.44l-5.05-.96-5.96,4.9-7.43,6.15c-1.94,1.61-4.48,4.56-7.14,5.09l-22.2-8.92,7.4-28.06,19.71,5.06c.52.13,1.24-1.38.87-1.59-.26-.15-1.32-.88-1.65-.97l-17.62-4.71c-.89-5.21,2.44-5.86,1.49-10.56l-4.2,10.2-24.47-7.82c1-4.26,2.16-8.46,3.64-12.89,7.14-21.26-1.88-12.96,19.9-32.27l16.09,3.51-5.1,18.55c-1.12,4.08-3.99,7.55-2.58,12.48l9.64-30.58,24.67,6.62v-1.92l-24.04-6.79,4.35-21.06,19.69,3.22v-2.15l-17.25-2.94c2.08-2.94,4.21-4.43,6.97-6.21l10.28-6.62v-4.07l-17.71,12.29c.82-6.6,3.99-21.78,12.47-22.06l4.06-.13c-.15-2.47-.06-3.95,1.18-4.71v-4.04l-6.37,4.09c-2.41-2.1-1.07-6.7,1.77-8.38l4.6,2.11v-6.32l-4.13-1.66-14.48-5.1c-3.21-1.13-5.83-2.22-8.71-4.07l12.58-24.74c2.28.82,4.7,1.51,5.95.1.35-1.26-2.02-2.54-4.51-3.48l7.43-19.19c2.09.02,4.22.28,5.87.67v-3.26l-4.42-1.36,4.42-10.18v-2.03l-1.44.46c-.28.09-.09,1.85-.27,2.17l-4.13,7.58c-6.17.83-11.23-1.44-15.68-4.61-.9-.64-3.36-.98-3.4-1.87-.04-.89.49-2.98.94-3.91l8.39-17.21ZM345.09,760.19l-11.71-9,11.29,4.85,9.47,3.7c-2.85,3.65-6.32,2.55-9.05.45ZM368.01,773.42c-10.36-7.34-11.32-4.51-15.48-9.13l4.81-3.02c5.89,3.78,17.8,11.66,19.51,18.43l-8.85-6.27ZM837.49,1163.96l.59,33.96.05,11.46-45.22-7.97c-13-2.29-13.08-5.25-34.87-8.61l-10.89-1.68c-3.47-.54-7.11-1.5-10.58-3.17,6.61-5.13,11.65-9.2,17.37-14.18l21.92-19.08c14.12-12.29,27.27-24.69,42.61-35.56l22.09-15.67-3.06,60.5ZM935.12,1031.76c.44,2.85-.52,4.61-.67,7.37l-.96,17.1c-.19,3.28-1.3,4.89.2,8.57-14.45,1.2-18.21-3.36-31.5,1.7-5.4,2.06-10.37,1.95-15.62,2.71l-22.87,3.29c1.67-2.48,3.15-3.98,5.03-5.33,7.2-5.15,12.37-11.86,19.26-17.3l15.68-12.4c6.29-4.97,11.13-11.57,17.46-16.49l14.85-11.55c2.58,11.1-2.95,8.72-.84,22.33ZM942.1,541.4c.9.03,2.89.5,3.87.85l24.22,8.68-8.3,18.36c-.72,1.59-16.47-4.27-17.5-4.6l-12.38-3.96,7.54-16.68c.4-.89,1.64-2.67,2.54-2.64ZM569.86,935.42c-.76-9.26-1.26-19.27,1.68-28.18l3.92-11.86,16.43,11.23,19.28,11.38-11.68,35.42c-10.17-6.28-18.31-13.17-27.22-20.9,1.58,5.32,6.61,8.54,11.01,11.56l6.53,4.49,9.23,6.3-4.65,16.18-13.12,10.64-11.92-8.63c.45-15.8,1.83-21.26.48-37.65ZM947.44,603.82c-.52,2.9-1.91,5.81-3.68,8.68-9.47-2.88-18.15-6.58-26.76-11.43-.31-1.91.78-5.31,2.24-6.04l28.2,8.79ZM931.21,595.76c-4.25-.78-9.55-1.03-11.43-4.31-2.5-4.37,12.08,4.07,11.43,4.31ZM915.46,591.19l-27.44-10.35,1.68-6.41c4.83,2.04,8.02,3.7,12.34,5.74l14.24,6.73c.82.39,1.94,1.6,2.34,2.08.51.62-2.11,2.59-3.15,2.2ZM889.45,583.59l27.31,10.28-2.37,6.1-13.6-5.68c-1.64-1.47-3.44-2.27-5.55-3.28l-9.69-4.64.69-2.51c.18-.64,2.51-.52,3.19-.26ZM901.41,598.65l11.79,5.1-12.42,30.28-29.96-9.91,13.13-33.87,17.46,8.41ZM903.41,727.92l-21.56,19.27c-2.98-.84-6.15-1.93-8.93-3.15l26.23-24.2c2.49.53,5.36,1.49,7.98,2.9-.64,1.91-2.27,3.87-3.73,5.17ZM903.76,731.82l-6.01,19.72-12.4-3.2c6.26-6.25,11.29-10.74,18.4-16.51ZM583.75,860.72l-4.66,15.02-6.95,22.78-.13-44.15,11.73,6.34ZM572.18,817.97l22.41,11.59-10.39,29.67-11.65-8.5-.14-6.86-.22-25.9ZM585.27,861.85c5.52,3.37,8.6,6.83,14.21,8.25l-13.6-9.54,10.28-30.31c13.84,5.62,26.19,11.8,38.16,19.14l-11.38,34.08-16.71-8.77c4.92,4.68,10.46,6.93,16.25,10.23l-10.64,31.6c-11.19-5.87-21.42-12.29-31.68-19.42-1.22-.85-2.7-2.76-4.1-4.27l9.21-31ZM808.8,780.27c-5.48,20.94-3.2,14.26-18.39,29.31-14.05-4.75-26.97-11.3-39.53-18.64l8.95-28.06,48.97,17.39ZM760.64,760.95c1.99-7.38,4.36-14.52,7.17-21.79,16.85,5.25,32.16,10.94,48.72,18.29l-7.11,21.27-25.03-9.25-23.74-8.52ZM810.7,781.03l7.31,3.29-10.98,9.47c1-4.93,2.11-8.26,3.68-12.76ZM811.22,779.11l6.7-20.7,18.96,9.73-16.83,14.58-8.82-3.61ZM818.91,756.02l8.34-23.76,34.39,11.13c-.09,1.72-.86,5.16-2,6.1l-20.54,16.84-20.19-10.31ZM828.18,730.54l12.3-33.17,32.62,12.34-10.5,31.64-34.42-10.81ZM839.86,694.64l-26.41-9.89-20.68-7.68,14.54-32.52,46.83,15.26-14.27,34.83ZM839.01,696.58l-12.56,33.27-12.39-3.91-36.58-12.66,14.29-34.38,47.23,17.69ZM825.74,731.98l-8.37,23.4c-16.33-7.49-31.8-13.07-48.68-18.95l8.19-21.13,48.86,16.68ZM767.14,735.97c-10.02-3.86-18.69-7.78-28.18-12.04-1.87-.84-4.07-1.95-5.74-3.46l5.69-17.13,36.31,11.17-8.09,21.47ZM747.11,730.11l19.08,8.48-7.3,21.66-34.63-13.75,7.93-23.08,14.92,6.69ZM758.35,762.21l-8.86,27.83-34.82-16.24,8.88-25.44,34.8,13.84ZM748.87,792.34l-6.53,21.72-36.25-15.43,7.84-22.58,18.67,8.45,16.29,7.85ZM714.45,769.44c-.44,1.26-1.01,2.53-1.58,2.95s-2.57-.03-3.25-.36c-12.96-6.26-25.54-11.82-39.25-16.16-1.08-.34-2.17-.79-2.71-1.24s-.47-2.56-.21-3.29l8.31-23.25,16.6,6.51,29.66,13.01-7.57,21.82ZM712.24,775.51l-7.82,22.29-33.63-13.28-12.42-4.25,7.55-23.44c18.25,5.17,29.69,11.14,46.32,18.69ZM624.49,884.56l11.35-34.41,42.91,23.53-11.56,36.56-42.7-25.68ZM662,921.39c-5.06,4.54-8.72,8.06-13.37,13.91l-35.39-17.57,10.55-31.74,14.55,8.2,27.68,17.47c.44,3.49-1.33,7.2-4.01,9.73ZM680.25,874.42l22.09,12.45-33.5,26.08c2.73-14.21,7.52-25.48,11.41-38.54ZM679.36,871.82l-42.95-23.35,9.9-29.32,43.64,20.3-10.59,32.37ZM679.64,832.7l-32.68-15.3,10.96-35.35,31.75,12.04,14,5.56-12.95,38.13c-3.78-1.52-7.23-3.29-11.07-5.08ZM656.88,779.63l-10.9-3.5-17.07-4.92-10.01-2.79,8.19-21.56c12.5,2.24,24.43,5.38,37.08,9.29l-7.28,23.48ZM656.36,781.43l-10.99,35.28-38.18-16.86,10.91-29.37,38.26,10.96ZM616.3,805.47l28.42,12.78-9.82,29.39c-12.69-7.3-24.8-13.39-38.12-18.92l9.76-26.69c3.44,1.11,6.64,2.04,9.76,3.44ZM612.78,918.93l33.84,17.49c-3.6,5.13-7.72,8.16-12.66,11.58l-22.18,12.96-7.4-3.85c-1.51-.98-3.39-3.04-2.76-4.91l11.16-33.27ZM609.49,962.03l-12.25,7.04,3.04-13.12,9.21,6.08ZM610.75,964.81l.92,1.63c.14.24,1.19-.1,1.14-.37l-.48-2.31,5.46,3.69-21.9,14.85c-4.87-10.67,8.22-12.63,14.86-17.49ZM614.77,962.8l10.26-5.63c5.5-3.02,10.34-6.31,16.25-9.97-5.67,7.6-13.13,13-21,18.54-1.23.87-4.85-1.72-5.51-2.94ZM647,945.99l-2.48-2.39c1.1-1.28,3.38-3.7,5.27-5.22,2.01.2,5.62,2.07,7.58,3.51-2.38,14.25-5.37,12.69-14.49,21.28l-10.91,10.28-10.11-5.59c9.1-7.1,16.93-13.8,25.13-21.88ZM650.93,936.53l11.46-11.02-3.45,14.17c-2.94-.94-4.32-1.52-8.01-3.15ZM671.46,915.7l12.63,8.76-18.45,18.05c-1.01.99-5.19-1.04-5.16-2.42,3.46-11.59,2.51-14.9,10.98-24.39ZM673.69,914.48l6.24-5.28,25.81-20.06,11.42,6.9-31.7,27.3-11.77-8.85ZM704.01,885.84l-23.24-12.91,10.64-32.72,37.07,18.43-2.4,8.71c-7.14,6.67-14.11,12.62-22.07,18.48ZM712.54,848.63l-20.26-9.62,1.54-6.94,11.42-31.82,36.35,16.06-12.36,40.63-16.69-8.31ZM731.13,856.45l11.91-39.14c8.22,3.73,14.92,7.43,22.85,12.36l-30.33,28.32c-.83.77-2.05,1.2-2.69,1.17-.64-.03-1.95-2.05-1.74-2.71ZM743.98,814.97l6.33-21.68c12.44,6.77,24.05,12.69,37.48,18.02l-19.47,16.99-24.34-13.33ZM790.56,813.35c2.27-.26,6.09,1.11,7.65,2.46-2.14,13.53-5.21,10.65-15.24,20.98l-11.5-6.51,19.09-16.92ZM793.89,811.17l7.68-7.33c-.63,3.44-1.21,5.56-2.36,9.48l-5.32-2.15ZM821.7,785.56l10.61,3.83-26.15,26.11c-.95.95-4.72-.6-5.1-1.67,3.28-17.5,7.85-16.05,20.63-28.27ZM824.59,783.34l15.47-13.62,9.83,4.58-15.5,13.29c-3.05-.71-5.96-2.03-9.8-4.25ZM852.5,776.27l-4.49,16.99c-3.88-1.04-6.62-2.21-10.57-4.22l15.06-12.77ZM849.27,771.9l-6.6-3.91c5.19-4.92,9.2-8.27,15.64-12.35-1.79,5.92-2.6,20.07-9.04,16.26ZM861.44,753.3l9.05-7.41,9.29,3.23-22.4,18.99c.87-5.34,2.06-9.94,4.05-14.81ZM875.9,736.6c-1.62,2.83-10.47,8.63-10.66,5.02l-.15-2.8,9.77-28.72,20.94,8.4-19.89,18.1ZM873.94,707.57l-32.55-12.15,14.35-35.09,31.88,8.43-13.68,38.8ZM856.74,658.52l12.93-32.31,30.08,9.92-11.31,30.62-31.69-8.23ZM901.43,636.94l29.6,10.96-8.82,26.21-32.09-6.95,11.3-30.22ZM882.99,584.79l-13.94-8.13c5.74.82,9.89,2.81,15.41,5.19-.13.84-.94,2.64-1.47,2.94ZM882.17,589.33l-13.01,34.23-18.2-5.82-26.69-8.81c5.97-13.75,12.24-25.84,19.29-38.9l16.78,6.65c7.94,3.15,14.72,7.35,21.83,12.65ZM868.18,625.74l-13.02,32.01-24.72-7.56-22.13-7.41,14.87-32.23,45,15.18ZM806.72,642.25c-13.57-4.75-26.42-8.79-41.1-12.28l15.11-34.09,40.91,14.04-14.92,32.34ZM805.77,643.88l-14.54,32.61-37.32-15.51,10.68-28.72c14.25,3.09,26.96,7.09,41.19,11.62ZM782.5,675.08l7.87,3.24-14.38,34.4-36.4-11.44,13.32-38.36,29.59,12.17ZM737.88,700.85l-20.74-6.22c-8.89-2.67-16.92-4.95-25.89-8.72l9.19-23.43,7.84-18.37c4.53,4.35,9.36,7.12,15.45,8.91,9.39,2.75,18.38,5.62,27.81,9.05l-13.67,38.79ZM700.3,691.56l36.81,11.5-5.46,16.67c-3.02-.19-5.87-1.31-9-2.5-9.35-3.57-18.91-6.18-28.53-8.8l-10.4-2.84,6.33-17.45,10.25,3.43ZM702.42,713.32c9.49,2.55,18.21,5.37,28.17,9.39l-7.84,22.9-46.3-19.88,6.09-17.77,19.89,5.35ZM674.87,725.21l-30.66-10.35-5.17-1.74,6.07-18.31,13.43,5.31c7.26,2.87,14.26,5.01,22.2,7.42l-5.88,17.68ZM651.16,719.49l22.72,7.74-9.25,26.84c-12.92-3.81-23.73-6.64-36.66-9.35l10.22-29.34,12.97,4.12ZM626.22,744.22c-15.42-2.17-22.41-4.94-36.61-10.69l14.35-31.88c11.75,3.74,18.97,8.65,32.55,13.09l-10.29,29.48ZM625.13,746.35l-8.16,22.03-32.7-9.07c-1.48-.41-4.98.9-5.24,1.6,1.08,3.59,4.68.22,6.64.77l30.8,8.67-10.55,28.48c-4.12-.78-7.55-2.02-11.63-3.46l-14.75-5.2c-.39-.14-1.66.12-1.99.19-.46.09.71,1.54,1.43,1.76,7.65,2.28,17.44,5.73,26.02,9l-10.02,26.95-22.42-12.17c-.11-7.48.23-13.98-.36-21.07l-1.23-14.71c5.51-15.33,11.44-29.82,17.77-44.97,12.12,5.33,22.94,9.26,36.38,11.21ZM574.41,765.56c-1.35,3.3-2.26,5.89-3.89,8.69l.39-19.77c.18-9.01-1.7-17.18.47-26.36l15.64,6.57-12.6,30.87ZM592.98,975.61l-.45,5.96c-.11,1.51-2.17,3.95-3.92,4.38-1.42.35-3.96-1.53-4.66-3.03l9.03-7.32ZM600.96,981.56l19.33-13.04,10.16,6.23-26.36,20.57c-3.15.37-6.17-3.63-8.42-4.8-1.4-.74-3.05-1.53-4.47-2.67l9.75-6.29ZM602.07,996.7l-11.9,8.14,4.98-12.3,6.92,4.16ZM605.23,998.67l13.99,8.32,14.51,8.32-9.7,29.78c-14.26-7.13-27.38-14.27-41.21-22.64,1.35-3.82,2.86-7.62,4.42-10.77l17.99-13.01ZM606.5,997.62l16.96-13.15c3.28-2.54,5.96-4.92,9.64-8.11l12.76,6.34c-.95,4.42-2.33,8.24-4.21,12.2l-7.24,18.7-27.91-15.97ZM634.8,975.08l16.27-14.27-4.78,20.28-11.49-6.01ZM655.22,956.76l11.75-10.83,38.51,19.98-.54,6.18c-3.55,12-5.73,23.23-7.92,37.07-6.91-2.99-12.79-8.18-19.52-11.72l-29.1-15.3,6.83-25.38ZM668.25,944.38l18.29-17.49,23.34,17.83-3.43,19.74-38.19-20.08ZM688.06,925.65l30.28-25.99c-1.98,15.04-4.42,28.22-8.05,42.95l-22.23-16.96ZM707.72,887.94l10.59-8.81c2.07-1.72,3.82-3.48,6.2-5.67l-1.91,9.25c-.88,4.25-2.06,7.71-3.67,12.18l-11.21-6.94ZM729.1,869.72c.8-2.34,4.81-5.33,6.91-6.72l10.3,5.73-22.87,21.36c1.64-7.55,3.27-13.36,5.65-20.37ZM737.55,861.36l6.82-6.93,10.6-9.94,14.4-12.93,11.47,6.74-32.68,29.04-10.62-5.98ZM775.74,847.47l8.05-7.07c2.02.21,5.5,2.38,7.23,4.14l-11.82,41.86-27.77-17.32,24.31-21.62ZM785.96,838.63c3.01-3.21,4.62-4.67,8.23-6.96l-2.15,9.53-6.08-2.57ZM797.44,827.85l9.59-8.78,29.94,10.31-8.64,30.5c-6.53-2.14-12.52-5.13-18.57-8.69l-16.13-8.19c1.08-5.54,2.24-10.25,3.81-15.15ZM809.24,817.08l26.16-26.3,11.73,4.82-9.38,31.43c-10.07-2.97-19.13-5.84-28.51-9.95ZM848.68,796.26l30.63,13.31-11.93,29.51-27.98-11.12,9.28-31.69ZM849.54,794.13l4.98-17.44,31.22,13.97-5.51,16.46-30.69-12.99ZM855.17,774.43l27.98-24.27,13.88,3.7-10.42,34.64-31.44-14.07ZM898.65,754.31l22.91,5.94-14.85,34.4-18.48-5.32,10.42-35.02ZM899.42,751.83l6.45-20.44c.85-2.71,4.03-5.72,6.71-7.25l17.88,6.28-7.93,27.32-23.11-5.92ZM907.75,720.39l-6.79-2.46,10.42-9.71-3.64,12.17ZM897.93,716.71l-22.43-8.75,13.88-38.65,32.27,6.91c-2.68,7.75-4.51,16.45-8.1,24.3-3.98,6.37-10.86,10.09-15.61,16.19ZM923.17,676.59l13.57,2.67-19.45,17.65,5.87-20.32ZM927.64,675.52c-.67-.1-2.17-.74-2.71-1.13-.67-.49-.35-2.65-.04-3.57l7.57-22.14,19.57,7.36c-2.92,10.55-3.48,14.37-13.34,21.08l-11.05-1.59ZM933.54,646.56l1.92-8.82-4.05,7.84-28.9-10.86,12.39-30.38c9.57,4.94,18.17,8.68,27.94,11.95l-2.96,10.27,4.61-9.22c5.87.22,11.22,4.54,19.33,6.48l-10.92,30.25-19.37-7.52ZM947.25,613.95c-1.12-2.96.4-7.09,2.72-9.53l18.45,6.65c-1.31,3.76-2.31,6.06-4.08,9.35l-17.09-6.47ZM949.44,598.84c-12.04-3.02-14.7-8.61-27.01-13.05l8.13-21.95,22.11,6.81c2.4.74,4.68,1.18,7.77,1.89l-5.73,13.92-5.27,12.38ZM908.54,530.1l30.73,9.93-3.74,8.11-5.3,11.26-4.32-1.9-16.97-4.08c-3.31-.79-6.46-1.55-9.65-2.94l9.25-20.38ZM898.22,553.19l17.24,5.09c4.46,1.32,8.48,2.85,13.19,4.55l-7.04,18.88c-.17.46-1.27,1.84-1.72,1.84-.46,0-1.57-.19-2.08-.44l-13.62-6.63-12.9-5.87,6.94-17.41ZM860.67,541.37c2.3.1,4.7,1.2,6.72,1.85l29.07,9.27-6.18,15.66c-2.9,1.74-6.64-1.4-9.64-2.24-6.03-1.68-11.25-2.87-16.48-5.36-1.86-.88-4.51-2.49-6.07-2.9l-6.33-1.68c2.85-5.27,5.54-9.65,8.91-14.6ZM850.24,560.35l16.37,5.62c6.97,2.39,13.44,4.33,20.25,7.47,1.01,1.73-.18,5.52-2.19,6.43l-37.35-15.97c.13-1.15,1.96-3.88,2.92-3.55ZM804.94,541.07c2.86.68,5.56,2.55,8.23,3.66,4.5,1.86,9.51,3.05,13.83,5.08l19.88,9.37c-.11.59-1.21,2.63-2.17,4.01l-17.89-7.12c-4.59-1.83-8.99-3.9-13.06-6.59-.96-.63-2.2-1.59-2.95-1.8-.9-.24-2.24,1.27-3.65,2.77l-8.88-4.76c1-2.4,4.21-5.21,6.64-4.63ZM663.38,668.6c3.84,1.94,8.25-3.17,10.77-5.79l-1.82-7.54c-1.57-1.03-3.52-2.32-4.25-3.43-.71-1.07-.14-3.61.33-5.87l-6.96-3.54c5.91-4.62,11.48-8.69,17.54-12.66,7.58-4.98,14.35-10.41,21.71-15.71l24.27-17.46,17.01-13.57c4.42-3.53,8.53-7.55,13.33-10.45,9.94-6.01,13.44-8.99,23.46-15.11,4.48-2.74,8.75-6.03,13.28-9.16l23.54,11.19c3.62,1.72,8,2.28,11.62,3.78l14.46,5.99-19.2,38.69-16.25-5.63-23.9-8.38c5.78-13.39,13.25-23.7,19.91-36.4-8.38,7.79-12.17,18.43-17.66,27.89l-4.55,7.85-10.55-4.62c-2.26-.99-4.55-1.92-7.15-.07l16.68,7.11-15.32,34c-7.89-2.01-14.95-4.2-22.61-6.83-.77-.26-2.48.34-2.73,1.07-.48,1.38.82,2.28,2.26,2.61l22.35,5.09-10.8,28.51c-12.93-5.14-18.84-6.41-31.67-11.47-3.66-1.44-10.02-4-9.82-8.68.28-6.51,7.85-11.1,6.19-18.2-7.27,13.28-12.65,26.35-17.96,39.64l-9.5,23.79c-5.19-1.65-15.05-7.93-18.05-8.75-.7-.19-1.75,1.42-2.42,2.59l19.61,7.98-6.72,17.87c-12.45-3.09-24.11-6.94-34.87-13.14l6.86-2.37c1.77-.61,4.57-.34,6.96.04.52.48.12-2.79-.75-2.91-2.79-.41-7.81.67-12.26,1.39,3.42-10.05,6.78-18.3,11.05-27.35l8.78,2.2-4.98,2.69c-.67.44.04,2.78.78,3.15ZM657.33,631.48c.66.24,2.03,1.29,2.13,1.87.03.16-1.8,8.76-6.3,9.51-2.02-4.62-3.31-8.8-4.47-14.45l8.63,3.08ZM639.54,620.48c-2.96-.7-6.95-3.58-6.79-7.38.17-4.02,5.32-4.88,8.79-3.79,2.53.8,6.82,3.42,7.14,6.97.38,4.19-6.43,4.84-9.14,4.2ZM572.21,702.22l17.65-12.68,12.98-9.88c4.68-3.56,9.2-6.15,14.95-7.86-1.53,6.26-10.58,15.86-8.86,20.7l4.64-9.05c4.32-8.42,5.7-12.84,12.89-17.79,2.85-1.96,5.67-4.89,9.04-6.46,2.66-1.24,6.67,5.46,3.92,6.5-1.98.75-3.66.89-4.44,1.78-1.09,1.25-1.01,5.18.54,5.74,3.21-1.22,6.06-2.93,8.74-4.9,5.46-4.03-2.72-8.61-1.44-11.72,1.14-2.77,4.8-5.7,8.33-6.65,1.03,3.28,1.61,6.39,2.01,9.98l2.29,2.63-9.9,25.06-5.57,3.51,3.06,3.54-5.87,18-19.02-7.66c-4.28-1.72-8.78-4.29-12.3-6.66,1.62-2.78,2.21-3.82,2.04-6.02l-4.1,5.54c-.83,1.12-1.17,3.3-1.68,4.39l-14.17,30.62-17.34-7.66-1.7-21.1,3.3-1.91ZM568.99,976.24l10.68,6.52c-.9,3.15-9.55,4.4-6.93,8.87l9.14-6.97c.9.47,2.98,1.95,4.02,2.8l-17.08,12.84.17-24.05ZM570.41,1002.04l18.51-12.99c2.08.54,4.67,2.54,5.13,3.99l-6.5,12.95c-1.27,2.53-12.98,10.02-13.51,9.86l-4.37-1.35,2.35,2.98c.51.64-1.99,2.05-3.21,2.33l-.42-16.51c0-.35,1.65-1.01,2.01-1.27ZM568.81,1026.04l6.19-6.27,5.44,3.1-11.25,33.98c-2.16-11.32,1.59-20.49-.39-30.81ZM495.52,692.86l20.28,2.86,17.77,2.95c2.03.34,2.5,2.47,2.57,4.42.53,15.36-.07,19.99-.21,34.21l-.08,8.15-21.33-24.58-19.29-20.67c-2.59-2.77-4.97-4.98-8.77-5.2.91,4.78,3.77,7.16,6.91,9.84,7.24,6.2,14.12,12.83,20.86,19.74,4.17,4.27,7.61,8.89,11.41,13.24l9.31,10.66c2.11,2.41-1.79,37.36-2.74,43.86-5.63-4.86-9.8-9.39-14.44-14.38l-14.72-15.81,18.38-11.88c.69-.45,1.32-2.36.79-2.64-3.75-1.94-5.78,2.94-11.91,7.05l-8.97,6.01-17.33-19.52c-1.78-2.01-3.23-4-5.28-6.63l12.04-7.03c.38-.22,1.29-2.11,1-2.36l-1.62-1.37-13.19,9.01-21.72-27.83,10.51-6.64c.41-.26,1.17-1.07,1.42-1.44.25-.37-.39-1.5-.81-1.63-3-.97-7.88,4.77-13.37,6.86l-12.65-20.7c19.95,5.86,35.86,8.74,55.19,11.46ZM521.21,791.12c-.47-.67-2.23-.03-3.05.55l-23.9,16.74-8.84-10c-4.24-4.8-7.91-9.35-11.63-15.13l9.86-9.46-11.24,6.93-14.96-17.28-7.73-9.19,9.42-7.31c-4.55.12-6.88,2.86-10.75,5.35-8.46-10.6-16.17-20.95-22.9-32.36l27-13.95,13.23,16.96c3.08,3.95,5.54,7.54,8.75,12.12l-13.88,9.23c-.31.21-.68,1.62-.36,1.56.48-.08,2-.36,2.45-.65l7.54-4.9c1.64-1.06,5.17-4.22,6.87-2.85l22.35,25.32c-4.12,2.32-7.38,4.16-9.76,6.75,4.85-.65,6.85-3.41,10.62-6.18l15.31,16.06,16.58,17.12-.06,45.92c0,1.03-2.31,1.12-2.32.52l-.04-3.19c-.01-.81-1.94-.67-3.46-.52-3.74-3.2-7.65-6.66-10.92-10.22-6.17-6.7-12.22-12.19-19.52-18.97,7.56-5.91,16.56-11.39,24.69-16.06.64-.36,1.07-2.39.68-2.94ZM437.23,680.71c3.09,8.72,7.32,14.89,13.63,22.57-3.47,2.44-7.33,4.78-11.36,6.9l-15.36,8.09-19.09-33.15,11.17-6.49c5.83-3.39,15.11-.82,21,2.08ZM356.62,661.93l11.17,3.38c-1.67,2.92-4.67,4.51-7.95,4.89l-3.23-8.27ZM361.24,672.67l10.91-7.19,43.78,10.04c-3.89,3.26-7.37,5.25-11.92,7.44l-5.87-8.96c-.49-.74-2.61-1.46-3.1-.85-.5.61-.64,2.66-.18,3.37l5.84,8.98-23.93,15.73c-7.16-8.3-11.41-18.03-15.54-28.56ZM398.14,736.5c.71-2.21,3.19-3.56,5.2-4.3l1.61-.6c.46-.17.49-2.03.02-1.9-5.43,1.48-4.85,4.47-8.68,3.29l-18.6-29.96,20.89-13.83c.81-.54,2.72-1.53,3.48-1.18s1.86,1.61,2.4,2.5l17.28,28.7-8.51,5.08c-1.16.69-2.5,1.82-3.74,2.82,2.74.17,4.04-1.21,6.03-2.12l7.64-3.5,10.79,16.22,12.56,16.14c-4.95,3.82-10.11,5.53-15.08,8.83l-11.38,7.56c-8.32-10.83-15.13-22.07-21.87-33.77ZM449.16,809.21c-1.62-1.95-3.17-4.24-4.14-6.58l12.55-9.2c-1.13-.61-2.23-.15-3.25.62l-10.5,7.95-16.83-21.66c-2.31-2.97-3.91-5.49-6.28-9l7.78-4.57c4.69-2.75,9.27-5.3,13.77-8.41l4.53-3.14,11.67,13.25,11.87,14.12-5.7,5.13c2.65-.67,4.01-1.79,5.95-3.46.74.71,2.38,2.29,2.99,3.27,5.08,8.09,10.85,15.15,18.46,22.57l-26.05,19.32-16.81-20.21ZM489.83,855.35c-7.82-7.82-14.99-15.32-22.54-24.5l25.89-18.88,21.67,21.07,8.66,8.38-29.01,18.32c-1.83-1.13-3.4-2.71-4.67-4.39ZM438.04,873.63l12.86,16.08-13.13,9.8-.05-13.94c-.01-4.12-.1-7.32.32-11.94ZM435.38,943.07l1.52-12,1.31-19.12c.61-8.94-6.19-6.95,13.71-20.86l19.81,24.24,6.45,8.01c-6.59,5.32-13.88,7.99-19.57,14.41,7.49-3.85,13.56-8.15,20.82-12.73,7.72,6.58,14.29,12.88,20.93,21.29l-16.88,11.56-21.9,15.43c-3.26-3.11-6.35-6.43-9.41-9.99l-10.85-12.62,17.69-12.94c-7.81,1.65-11.76,7.76-18.08,11.29-1.75-.19-5.81-3.84-5.54-5.98ZM439.91,952.48l19.6,22.66c-8.87,6.58-18.06,12.11-25.63,20.01,8.43-4.89,15.23-10.69,22.98-16.31.38-1,3.41-2.87,4.29-2.11l25.03,25.8-28.9,20.15-15.67-3.75c-5.85-1.44-23.85-3.62-25.38-9.67l7.02-5.3c3.27-2.47,6.99-4.06,9.16-8.28l-17.6,12.1c.62-3.89,2.08-6.3,3.23-9.45l10.92-30.06c3.03-8.34-1.59-9.19,10.95-15.79ZM477.43,1037.01c3.19-.66,5.77.86,8.13,2.02,1.35-.35,4.62-2.25,5.9-1.54,1.28.71,3.62,4.15,2.47,5.09-3.51,2.87-7,5.39-10.45,7.84-10.37-5.09-19.95-10.26-30.82-13.49l-8.39-2.49c9.86-7.33,10.7-10.23,23.02-5.18l-2.52,3.18c10.41-.38,8.09,5.52,12.65,4.57ZM468.18,1030.44c2.05-.15,19.52,2.31,18.12,4.25l-1.91,2.63c-8.64-6.42-7.38-3.29-16.21-6.88ZM480.42,1052.69l-14.52,11.41c-6.2-5.91-12.23-11.5-17.84-17.87l-7.77-8.83c8.63.08,15.93,2.97,23.28,6.71l16.85,8.58ZM389.09,1006.49l-17.36-4.21,20.66-16.62c.61-.49,3.38-.39,3.32.26l-.3,2.99c-.2,2.02-2.3,3.73-4.13,3.73.84,9.24-5.41,6.56-2.19,13.86ZM391.98,1004.4c2.08-5.12,4.07-9.49,7.42-14.51l5.17,8.18,4.88,6.64c-2,1.97-2.52,2.55-3.31,5.75l-16.63-4.09,2.47-1.97ZM405.52,994.91l-4.84-7.01,5.34-10.6c1.73-3.44,6.7-6.23,9.88-8.48l9.55-6.76c-2.1,12.65-5.76,15.58-8.74,26.77-.65,2.46-1.55,5.51-2.83,7.29l-3.7,5.16-4.65-6.36ZM432.64,925.39c-.03,4.99.05,8.07-1.32,13.46l-7.1-8.61c-3.12-3.78-4.18-8.08-1.87-12.69l.02-3.66,10.42-8.54,1.02,12.29c.16,1.92-1.16,5.68-1.17,7.75ZM433.42,902.57c-2.01,1.98-5.8,4.71-8.1,6.32l-1.91,1.34c-.51.36-1.12-1.93-1.09-2.66l.68-21.15.84-21.44c.07-1.66,3.44-4.05,5.06-4.47,5.23,4.83,4.29,11.38,4.21,17.5l-.21,14.42c-.04,2.97.35,6.03.51,10.14ZM422.25,850.51c2.59,2.07,4.18,4.91,4.94,7.47.41,1.37-3.64,3.49-3.83,2.31-.61-3.85-.89-6.1-1.11-9.78ZM388.67,789.54c-2.3.95-6.31-4.14-6.29-6.95l7.3,4.88c-.27.99-.52,1.88-1,2.07ZM416.91,836.12c-1.57-2.58-2.11-7.21-3.33-10.06l5.39-5.29-6.22,2.45c-2.93-2.76-3.7-7.27-5.97-11.25-4.87-8.54-20.21-21.09-16.13-21.45,4.83-.43,25.07,22.89,28.78,27.78l-.2,2.06c-.04.36,1.81.6,1.97.93l2.88,5.56c3.79,7.33,5.58,14.55,6.34,22.85.23,2.49,2.92,5.31-.79,7.36l-12.72-20.95ZM420.69,929.62l10.03,12.42c-.95,5.68-2,11.74-4.87,17.02-1.12,2.07-14.75,11.85-18.06,13.5,3.15-7.55,6.53-13.78,8.18-21.52l2.82-13.26,1.89-8.16ZM417.78,925.26c-.27,6.1-1.93,11.8-3.25,17.89-2.17,10.02-5.46,19.03-10.46,28.02-2.16,3.88-2.95,7.43-8.09,9.54-1.43-2.04-3.1-4.63-4.71-7.17l-15.99-25.22,38.59-28.29,3.91,5.23ZM357.16,920.53l27.52-24.87,7.65-6.85,12.57,18.48,7.72,11.47-28.61,20.99-9.63,7.12-17.2-26.34ZM330.81,988.98c1.63-2.96,3.22-4.95,5.97-6.99,3,4.01,4.76,6.59,7.4,11.15-5.89-1.07-8.33-2.16-13.37-4.16ZM363.78,999.91l-6.04-1.99c-14.55-4.8-9.17-3.9-19.91-17.76l18.53-16.59c2.75-2.47,5.41-4.74,8.29-6.91l9.55-7.19,20.34,32.41c-2.4,2.21-4.62,4.24-6.97,6.03l-15.52,11.79c-2.9,2.2-4.7,1.39-8.27.21ZM363.58,1015.44c-1.27-.39-2.72-3.45-2.21-4.33.59-1,2.05-2.44,3.03-3.45,3.21-3.33,5.13-2.95,8.98-2.01l33.62,8.21-11.02,9.05c-10.7-2.14-22.87-4.56-32.41-7.46ZM398.18,1023.33l11.3-8.88,9.35,1.98c4.1,4.58,7.17,8.1,11.16,14.01-9.34-.93-22.24-4.14-31.8-7.11ZM435.36,1032.08c-4.18-3.66-7.66-8.73-11.45-13.84,6.77,1.29,12.74,2.08,19.02,3.96l6.97,2.08c.48,3.2-1,4.88-3.5,6.74-2.96,2.2-7.07,4.54-11.04,1.06ZM405.27,1066.71c10.97-9.81,21.25-18.59,32.69-27.25l8.27,8.66,17.45,17.21-35.3,27.1-23.11-25.73ZM414.49,1108.33l13.22-12.8,4.52,5.74,11.3,14.16-29.04-7.1ZM525.1,1068.83l.32,18.34c.09,5.18-1.12,10.18-.87,15.46l1.52,32.54c-8.84-1.83-16.63-4.32-25.03-7.4-4.69-1.72-9.55-2.36-14.43-3.45-12.8-2.86-24.94-5.56-37.91-7.72l-19.27-22.62,21.09-16.71,14.38-10.65c3.98,5.01,7.76,9.83,12.14,14.68.6.66,16.2,15.14,16.66,9.39-5.45-3.93-11.6-7.14-15.77-12.23l-10.9-13.28,15.52-11.89c5.6,2.25,10.21,4.07,15.51,5.78l15.68,5.07-2.89,1.69c1.02,1.11,3.99.58,5.49-.99l7.68-8.07.05-2.03c0-.43,1.6-.51,2.38-.53l-1.35,14.61ZM525.64,1048.87c-7.9,6.41-5.53,1.96-10.32,11.1-4.29-.12-8.57-2.13-12.54-3.4-5.76-1.84-10.86-2.47-17.11-5.52l13.47-9.89c6.53,3.87,12.09,1.53,17.45-2.6l10.38-7.99-1.33,18.31ZM506.54,1037.57c.41-.04.34-1.96.66-2.2l8.89-6.51c3.54-2.59,5.91-5,10.19-5.91-.76,1.74-1.52,2.49-2.6,3.3l-7.35,5.51c-3.51,2.63-6.48,6.88-11.08,7.26-.41-2.87.44-1.37,1.28-1.45ZM527.5,1004.46l-.94,12.44c-7.84,7.73-16.23,14.66-25.93,19.45-6.19-.11-11.17-4.42-16.53-6.23-7.97-2.7-15.63-3.37-24.21-6.96l27.37-19.56,9.06,7.72c.52.45,2.06.86,2.65.86.59,0,.16-2.03-.37-2.5l-8.69-7.64,24.09-18.11c2.69-2.03,6.12-3.55,9.13-5.05.33-.58.73-1.78.6-2.32-.16-.68-2.45-.42-3.02.02l-32.17,24.34c-3.34-3.19-6-6.06-9.09-9.18l-9.27-9.38-7.57-7.64,20.47-14.7,18.23-12.17c8.8,9.15,16.99,16.79,26.63,25,0,10.38.34,21.07-.45,31.61ZM527.71,968.37c-8.64-6.98-15.79-13.22-23.9-21.78,8.1-5.57,15.44-9.58,24.52-14.3,2.2,10.02,1.01,19.36-.19,29.11.2,2.26.4,3.53-.43,6.97ZM531.85,916.59c-6.62,8.02.04,11.41-6.02,14.74l-22.93,13.52c-6.47-7.86-13.37-14.31-21.23-21.15,10.39-7.13,20.27-13.62,30.84-19.47,4.15-2.3,9.54-3.89,10.33-9.43l-9.8,6.01-32.59,21.28-26.66-32.35,15.59-11.61c7.4-5.51,15.28-10.06,23.3-15.08l15.48,16.06c8.38,8.7,16.77,16.92,23.92,26.76l-.23,10.7ZM531.89,899.59l-18.35-19.37-17.95-18.68c10.22-6.6,19.97-12.35,30.43-18.04l6.38,7.1c-.66,7.05-1.53,13.64-.73,20.36,1.15,9.7,3.17,18.6.23,28.62ZM561.63,897.48c-.43,2.4-4.63,4.78-1.72,7.71l.82-3.52-1.26,27.26c-.6,12.96,1.61,25.28,1.1,38.38l-1.38,34.95c-.15,3.78-.08,7.9.03,11.73.72,25.81,2.26,15.6-.33,44.45l-2.69,29.9c-.4,4.5-.27,9.1-.77,13.3-1,8.52-2.48,16.08-2.1,25.36.18,4.44-.63,8.98-1.04,13.18-8.2-4.08-8.63,2.23-12.67.97-5.3-1.65-4.06-12.82-4.39-18.87l-1.45-26.5,1.56-15.21c.85-8.28.64-16.05.87-24.29l.55-20.03c.41-14.71,1.45-28.68,1.96-43.37l1.1-31.58c.42-12.07.97-23.62.56-35.72l-.33-9.93c-.33-9.89.64-19.39,1.74-29.31.82-7.31-1.23-14.72-.97-22.04l1.05-29.28.4-24.43.7-16.99,3.11-32.5,6.6,4.6c3.71-3.34-5.39-5.37-6.21-9.5l1.36-31.45c.47-10.84-1.62-20.94-.85-31.75l2.76-38.86c.59-8.34-1.19-16.31.7-24.83,7.95,10.16,4.79,23.43,5.32,32.62l1.44,25.27.63,13.72,1.35,9.98.06,6.17.6,20.75.98,12.7.97,37.6c.11,4.1.89,7.85.96,11.82.15,8.76.01,17.18-.47,26.05-.21,3.87,1.91,8.61-.16,12.09l-2.15,3.64c-.51.85,1.95,3.17,1.96,4.29l.2,25.86c.07,8.74,1.04,17.09-.49,25.6ZM576.38,1120.19l-14,12.94.03-12.61c.03-15.95,1.51-12.23,2.6-27.63,5.62,2.44,10.37,4.55,15.35,6.35l14.5,5.26-18.48,15.68ZM611.43,1091.44l-5.62,4.11c-2.71,1.98-4.9,3.88-7.8,6.47-9.64-2.14-23.43-7.53-32.91-11.8l1.47-14.79c.59-5.96-.45-11.75,1.85-17.25l-.25,10.69c1.36-3.05,2.07-5.42,3.21-9.23l22.94,11.1c9.1,4.4,17.47,8.33,26.64,13.21-3.41,2.79-6.03,4.93-9.54,7.49ZM623.08,1082.91l-36.41-17.66-15.1-7.7c2.65-11.99,6.17-22.98,10.39-33.83l21.21,12.05,20.37,11.01c-2.68,7.8-5.38,16.18-6.19,23.63,1.46,0,2.71-.35,3.87-.97.95-.51-.32-2.88-.28-3.86.19-5.98,2.02-11.3,4.36-17.95l25.44,12.57c-8.68,9.55-17.99,14.2-27.66,22.7ZM670,1045.66l-6.48,5.53-10.54,8.33-27.38-13.57,9.75-29.69,41.95,21.8c-2.04,2.57-4.64,5.33-7.3,7.6ZM695.12,1022.17l-4.93,4.6c-3.64,3.39-7.03,6.7-11.72,9.39l-42.48-21.6c1.91-5.2,3.49-9.2,5.3-13.65l6.87-16.94c9.43,4.96,19.3,9.36,28.26,15.1l18.71,11.99c2.25,1.44,4.98,2.84,7.43,3.94l-7.43,7.16ZM726.37,993.05l-7.23,6.48c-3.67,3.29-9.22,10.12-14.82,14.48l-2.6-2.4c-.64-.59.92-2.41,1.3-3.32l.89-2.13c.18-.43-1.52-.36-2.89-.47-2.07-8.26,4.35-28.81,6.68-37.93l28.93,16.18-10.26,9.11ZM744.85,976.35l-6.96,6.22-30.02-16.75,3.52-19.78,20,11.79,20.35,11.64c-2.31,2.42-4.4,4.66-6.88,6.87ZM761.18,959.45c-2.35,2.39-4.24,4.54-7.01,8.5-9.11-4.15-17.76-9.12-26.08-14.22l-16.15-9.9,7.11-32.79,2.04-12.57,43.9,27.49c2.08,1.3,3.68,1.72,2.97,4.73l-6.79,28.77ZM799.52,922.22c-3.55,3.85-6.9,7.27-10.65,10.84l-6.1,5.79-10.7,9.65-6.59,6.21c-.17-3.75.06-5.84.88-9.4l3.61-15.62c.08-.33,2.58.07,2.35.32-.3.34,1.76-.52,1.45-.83l-2.9-2.97c2.05-12.01,6.66-20.86,8.76-32.97-5.85,11.34-5.44,19.85-10.66,32.69l-14.19-8.46-32.89-20.98,27.83-26.1,28.9,17.97c11.12,7.82,21.89,14.98,34.01,21.87-4.41,4.12-9.24,7.79-13.11,12ZM811.5,906.95c-10.32-5.54-18.97-11.15-29.16-18.06,3.79-14.18,7.72-21.65,10.73-37.2.31-1.6-3.09-5.09.49-6.14l15.59,8c6.06,3.11,11.43,6.22,18.35,8.56-.8,3.69-1.1,8.12-2.5,11.69l-5.64,14.43c-2.48,6.35-4.43,12.04-7.87,18.71ZM968.45,776.54c.51.19,1.74,1.41,1.99,1.78.33.49-.71,1.63-1.28,1.99-7.64,4.81-13.58,10.52-20.2,16.49-6.36,5.73-13.38,10.69-20.39,15.47l-7.15,4.88-26.08,18.8c-2.4,1.73-4.45,4.24-6.72,6.09l-15.56,12.68c-8.71,7.1-19.46,20.1-28.12,27.98l-11.06,10.07-11.01,9.56c-2.24,1.95-4.59,3.49-7.53,5.39,2.22-8.81,4.5-16.64,7.84-24.69,1.01-2.43,2.59-5.07,3.22-7.56l3.11-12.27c8.44,2.21,14.99,8.51,18.82,9.48.46.12.19-2.21-.28-2.57-9.13-7.02-18.63-7.87-17.51-11.76l8.18-28.43,27.84,11.18c-.57,3.03-.78,4.94-.44,7.77l3.65-6.99c3.78,1.32,7.63,2.47,10.99,1.51.78-.22.37-2.75-.39-2.94-4.89-1.22-1.76,2.97-10.57-1.23l11.2-28.92,12.9,5.36c1.09.45,4.2-.92,4.48-2.01.52-1.98-2.71-5.8-4.34-5.08l.25,4.74-12.49-5.08,5.57-16.85,18.57,5.54-6.06,21.27c-1.33,4.66-2.33,8.55-4.93,12.66.47.45,2.06,1.32,2.54.95.6-.47,1.72-1.92,1.91-2.74,2.46-10.3,5.17-20.66,8.37-30.78,4.11-2.63,8.65,3.94,11.18,1.51-3.3-2.91-5.63-3.46-10.22-4.88l13.96-32.9c.44-1.04,3.32-.4,4.32-.09l21.98,6.91c-1.52,9.69-5.89,17.57-4.19,27.76l5.69-26.88,17.92,6.78ZM957.77,738.71l-7.97,28.04-25.5-8.26,6.16-20.06,2.24-7.52,25.06,7.8ZM930.84,727.92l-16.34-5.76c7.76-7.83,14.88-14.93,24.11-21.93-2.09,9.78-4.8,18.81-7.77,27.69ZM910.57,721.12c-1.25-3.3,3.36-16.11,5.15-17.78l23.09-21.56c1.27-1.19,3.9-1.57,5.4-.69l-3.79,13.36-29.86,26.66ZM944.09,690.86l1.95-9.04c2.53.1,3.83.3,6.93,1.52l-8.88,7.52ZM947.79,678.93c-1.36-6.57,9.29-15.41,15.13-19.2l12.35,3.9-14.75,13.38c-3.58,3.24-8.12,5.37-12.73,1.93ZM972.96,685l-13.85-3.27,17.95-15.4c.24,6.85-1.86,11.96-4.09,18.67ZM979.47,659.2c-.18.73-2.36,2.43-3.09,2.21l-11.25-3.45c5.35-5.59,10.97-9.68,17.96-13.77l-3.63,15.02ZM981.36,640.76c-7.29,4.97-13.6,9.81-19.89,15.6-2.02-.06-4.92-.9-6.32-1.97l10.73-29.95c8.13,2.44,14.11,5.23,21.31,9.04-1.08,3.25-3,5.35-5.83,7.28ZM992.11,620.79c-.85,3.5-1.81,5.91-3.72,9.32l-17.38-7.96c-.72-.33-2.57-.82-3.71-1.22.86-3.49,1.84-6.27,3.74-9.2l21.07,9.06ZM977.59,592.09l-7.51,15.14-8.73-3.34-9.8-3.75c1.44-4.82,2.95-9.16,4.86-13.66l5.62-13.19c5.62,1.44,10.65,3.44,16,5.8l4.63,2.04c-1.63,3.85-3.26,7.3-5.07,10.96ZM992.05,558.81l-7.7,19.56-20.91-7.82,8.48-19.05,20.12,7.32ZM973.88,543.36c-.73,1.49-2.02,5.07-4.21,4.15l-14.94-6.26c-7.33-3.08-5.67-1.8-9.95-2.83-3.55-.86,10.13-19.9,11.72-22.44,8.89,2.78,16.79,5.71,25.89,10.13l-8.52,17.25Z"/>
        <path class="cls-2" d="M362.63,858.51c-.73,1.11-1.77,2.74-3.03,3.69-8.67,6.51-16.85,13-24.51,20.54l11.72,20.2c-3.99-1.54-4.51-5.58-6.49-8.5l-6.67-9.81-7.01,10.65c-.85-1.74-.85-4.26,0-5.65l5.11-8.28-6.42-9.45c-1.12-1.64-2.3-3.18-3.56-4.19v-4.26c.82.6,2.27,1.92,2.85,2.82l8.99,13.9,7.46-5.81c7.22-5.63,14.05-11.56,21.57-15.84Z"/>
        <path class="cls-2" d="M343.13,806.43c-1.65-1.31-2.86-3.23-4.28-5.25l-13.66-19.4c-1.17-1.66-1.73-3.22-3.43-3.47v-4.26c3.88,4.96,20.53,28.02,21.37,32.38Z"/>
        <path class="cls-2" d="M538.85,542.24c-2.27,3.16-4.03,6.5-5.78,10.82,4.5,2.64,11.47,1.37,13.26,3.65.52.67-.12,3.23-.76,3.86l-4.95,4.85c-.65.63-2.16,1.83-2.84,1.53s-1.72-1.41-2.04-2.08.88-2.13,1.51-2.72l2.25-2.1c-3.74-.95-7.44-1.93-10.69-3.24-2.24-6.35,7.31-15.19,4.9-16.95-.27-.2-13.8-7.71-16.64-7.62.81,6.04,6.44,10.68,5.42,16.04l-12.28,5.27c-.69.3-2.74-.27-3.07-.77-2.16-3.2,8.03-6.14,10.75-7.3l-3.84-10.75c-2.3.95-5.4,2.44-7.08,1.5-.68-.38-1.61-2.14-2.15-2.65-.54-.5-2.71.44-3.49.21-5.4-1.6-9.23-9.21-6.56-13.97,2.27-4.05,7.76-4.64,11.74-4.5,10.39.35,10.37,11.43,11.07,11.49l2.07.15-1.11-2.87c-1.25-3.21,7.7-2.55,11.35-3.29l6.45-1.32c1.34,2.17,2.24,15.02.16,13.54-.44-.31-1.24-.93-1.89-1.49-2.13-1.86-2.2-3.27-.87-7l-11.92,3.58c3.29,2.25,5.71,3.79,8.64,4.95l9.17,3.62c4.65,1.84,23.82,2.36,30.66,2.62.76,5.85-3.21,10.77-8.36,13.77l-1.08-3.28c-.46-1.38,5.58-3.63,3.45-6.21-2.74-.29-5.99-.77-8.44-.84l-17.01-.51ZM511.72,528.91c.48-2.08.54-4.61-.34-6.16-1.29-2.26-8.73-5.38-11.71-1.18-1.28,1.81-1.44,5.26.23,6.71,2.87,2.48,6.77,1.28,8.37-1.84l3.46,2.47Z"/>
        <path class="cls-2" d="M355.48,639.34c-2.77-.74,8.86-19.16-3.13-20.4l-5.89,9.44c2.88-.89,6.27-.92,7.08,3.22l-11.25,3.62c-.9.29-3.54-.78-3.74-1.64-.82-3.46,9.74-12.89,7.86-15.55-.57-.81-1.95-1.81-3.18-2.76,5.55-2.32,1.09-17.02.45-22.98l-5.06,3.31c-3.58-2.69-6.69-6.22-8.03-10.84-.33-1.13,3.69-1.91,4.23-.84.93,1.82,2.86,4.68,4.48,5.15.61.18,2.23-1.38,2.14-2.01s-.68-2.19-1.27-2.72c-4.35-3.97-6.99-11.18-3.4-16.78,2.24-3.49,7.03-3.63,10.57-3.18,8.19,1.04,11.55,10.33,8.87,14.34l-4.79,7.18c.42,1,2.3,2.75,3.28,2.71s2.46-1.07,3.52-1.86l5.74-4.26,3.23,3.11c.45.43.7,2.49.17,2.84-4.31,2.85-4.47-.08-11.07,5.96l-8.23-3.59c.06,7.69.62,14.47,1.91,21.16,2.08.65,12.17,6.65,12.23,7.57l.7,11.29,4.69.81c.93.16,1.21,2.19,1.42,3.71-3.51,1.53-9.79,4.99-13.52,4ZM349.58,575.89l1.64,4.66c2.87-2.18,3.09-6.06.15-9.2-2.6-2.78-9.42-4.02-11.8.02-1.73,2.95,1.4,9.08,4.36,10.03,2.82.91,3.47-2.58,5.65-5.51Z"/>
        <path class="cls-2" d="M857.67,863.47c.23-4,2.34-7.98,4.9-11.23-.32,4.16-1.17,8.29-4.9,11.23Z"/>
      </g>
    </g>
  </g>
</svg>