<?xml version="1.0" encoding="UTF-8"?>
<svg id="Livello_2" data-name="Livello 2" xmlns="http://www.w3.org/2000/svg" viewBox="0 0 1344.84 1461.11">
  <defs>
    <style>
      .cls-1, .cls-2 {
        fill: #1c3462;
      }

      .cls-3 {
        fill: #fff;
      }

      .cls-2 {
        font-family: Manrope-Bold, Manrope;
        font-size: 419.11px;
        font-weight: 700;
      }
    </style>
  </defs>
  <g id="Livello_1-2" data-name="Livello 1">
    <g>
      <path class="cls-3" d="M81.63,9.9h1181.57c45.05,0,81.63,36.58,81.63,81.63v1287.94c0,45.05-36.58,81.63-81.63,81.63H81.63C36.58,1461.11,0,1424.53,0,1379.48V91.54C0,46.48,36.58,9.9,81.63,9.9Z"/>
      <text class="cls-2" transform="translate(547.63 360.44)"><tspan x="0" y="0">2</tspan></text>
      <g>
        <path class="cls-1" d="M726.12,641.58c.13,2.31.42,4.67-.35,5.61-.77.95-3.55,1.09-4.94,1.16l-31.3,1.48c-10.6.5-20.93.12-31.39-1.59-1.18-.19-3.61,1.06-4.54.45-.93-.61-3.05-2.44-3.39-3.65-3.43-12.47-4.56-25.15-5.52-38.38l-11.36-.92c-1.24,1.98-2.05,4.35-4.38,4.11s-3.58-1.87-4.77-4.62l-28.45-1.43c-8.56-.43-17.43,1.09-25.7-4.77,7.52-1.72,15.29-1.18,23.07-2.17l-7.25-9.71c-3.36.06-7.35.04-9.88-3.43-2.97-4.08-7.09-8.71-9.16-13.35-2.89-6.46,2.93-13.53,2.33-19.63-.62-6.29-6.43-13.42-2.02-19.75,1.98-2.84,4.77-5.71,5.53-9.23,1.03-4.72,4.47-6.29,8.05-8.36,4.67-2.69,9.01-6.14,13.96-8.19,2.12-.88,5.35-1.25,6.23-2.7,3.85-6.4-1.34-7.84-.08-14.16,5.91,4.3,13.01-6.48,19.14,3.07,5.24,8.16-.83,21.24,16.64,23.47,6.41.82,9.27,4.51,13.24,8.35,7.88,7.62,9.01,17.67,1.65,26.78-1.85,2.29-.4,8.5.42,11.45,5.76,20.69-8.09,22.1-15.69,36.72l12.08,1.36c2.8,1.15,3.67,7,4.11,9.99l4.52,30.67c10.09,1.03,19.21.54,29.35.48l31.32-.19c-1.27-12.64-3.43-23.69-.33-35.61,5.52,3.69,6.11,9.7,6.47,15.24l.99,15.42c12.1-2.97,23.48-2.05,35.93-2.03l25.92.06c1.1,1.56,1.14,4.71.24,6.44-1.05,2-3.72,3.13-6.51,3.07l-39.39-.74c-5.21-.1-10.39,2.47-14.81-.75ZM602.81,597.12l24.3.77c2.53-5.86,4.52-11.06,8.53-15.53,15.17-16.9,8.37-11.78,7.26-32.82-.41-7.76,7.54-13.27,5.39-17.33-1.42-2.67-6.81-9.11-11.16-9.38-6.16-.37-9.34-3.29-13.68-6.94-9.99-8.4-5.5-6.42-8.43-21.61l-6.4,3.72c.24,4.33.76,7.99-1.65,11.09-1.73,2.22-5.12,3.63-8.49,4.71-5.82,1.88-10.42,5.17-16.9,6.77l-5,11.65-3.29.67c-2.2.45-2.63,8.2.81,14.07,1.9,3.24,3,6.94,1.83,10.6-4.54,14.23-4.41,10.72,4.51,22.32,11.38-2.25,11.93,9.83,22.38,17.22Z"/>
        <path class="cls-1" d="M73.98,1378.38c2.84-8.08,8.72-13.85,14.18-20.1,15.35-17.59,28.34-37.16,36.5-59.18,6.86-18.53,9.69-37.2,12.7-56.71,2.14-13.85,3.94-28.62,11.74-40.26,4.12-6.14,4.08-10.34,4.28-16.81.2-6.67,2.62-13.98,3.53-20.72,1.88-13.96-4.31-24.99,3.88-23.71l.74-56.48c.38-29.27,4.49-57.63,4.89-87.03.22-16.06,1.3-31.51,2.43-47.48.42-5.84.88-11.17.87-17.1-.02-16.77.78-32.83,1.62-49.57l2.21-44.16c.6-12.09,3.79-23.26,5.08-35.32l5.47-50.78c1.13-10.5,1.9-20.32,3.37-30.67l2.95-20.68-2.6-30.13c-.2-2.35.56-5.78.76-8.12,7.08-6,9.45,33.55,9.62,36.71.33,6.3-.84,12.86-2.13,19.02-.92,4.41-.68,8.55-1.22,13.01l-3.98,32.9c-1.99,16.43-2.61,32.5-5.59,48.89-3.45,18.96-4.09,36.92-5.16,56.21-1.21,22-1.11,43.16-2.41,65.19l-2.74,46.56c-1.61,27.36-1.31,54.01-3.91,81.52-1.95,20.67-.95,40.27-1.85,60.71l-1.46,33.01c-.34,7.65-.44,14.07-1.61,22.74,5.29-1.15,10.66-2.85,15.94-4.59,13.54-4.47,27.07-4.22,41.3-6.29,40.56-5.89,80.5-10.28,121.16-14.58l25.87-2.73c63.93-6.75,127.98-4.79,192.38-5.02l-2.85-6.97-2.65-21.76-.6-25.61c-.36-15.29-.52-42.5,1.72-57.08,2.09-13.59-3.19-45.01.55-66.88.36-2.08.56-4.46.78-7.01,9.59-.6,18.8-1.91,28.38-3.43,11.08-1.76,21.78.24,32.99-.03l75.95-1.84c5.98-.15,13.36.12,16.38,6.52,2.13,4.52,2.02,11.05,1.93,16.24-.31,17.21,1.6,33.53,2.73,50.74l2.67,40.44c.51,7.75.57,15.11,2.1,22.67,1.75,8.62,2.11,17.12,3.47,25.75l4.11,26.29c.39,2.49.28,4.65-.48,7.53l56.19,4.76,80.75,7.33,76.91,7.3,88.95,5.77,58.45,3.21c.86-11.59-.14-22.4-.44-33.74-.33-12.95-.13-25.09-1.46-38.07-3.23-31.53-4.16-62.32-5.46-94.05-.91-22.15-3.35-43.19-3.13-65.3.18-18.64-1.7-35.99-3.19-54.53-1.44-17.91-1.18-35.52-1.23-53.45l-.13-45.86c-.07-24.19-3.01-47.29-8.76-70.82-3.21-13.14-4.53-25.61-5.22-38.84l-1.61-30.78c-.32-6.01-.95-12.01-2.11-17.87-3.98,1.01-7.18,1.46-11.09.99-4.58-.55-8.71.75-13.19,1.46l-20.93,3.33c.47,4.31.8,8.07.42,12.42l-6.1,70.19-2.12,37.17-5.48,78.99-4.81,92.72c-1.46,28.07-3.63,55.32-2.9,83.36l.41,15.89c.04,1.61-.54,4.12-1.55,5.3-.83.97-3.34,1.86-4.71.99-2.71-1.71-5.31-6.39-5.01-10.49.31-4.28-.35-8.19-.2-12.49l3.34-92.54,5.83-103.22,4.44-58.71,10.37-118.14c-4.92-1.66-9.41-1.33-14.07-.69-2.73-.7-4.44-5.74-4.25-8.56l2.15-32.97-50.22.18c-19.91.07-38.62.35-58.33,2.58-17.97,2.04-35.72,2.43-53.86,2.46-11.63.02-22.36-.68-34.68.53,1.64,10.15,2.78,20.05,5.81,29.87,1.62,5.25,2.4,10.62,1.24,16.1-4.15,19.65-2.54,38.49-2.52,58.35.03,26.45-3,52.01-.26,78.35,1.09,10.52,3.9,20.47,2.4,30.98-.32,2.23-4.65,1.85-6,.97-1.36-.88-3.62-3.38-3.97-5.49-2.34-14.02-5.12-27.72-4.82-42.04l1.5-73.48c.26-12.7-.32-24.28,1.02-36.8,4.08-37.93,1.95-23.43-2.28-56.71-.56-4.41-.6-7.97.72-12.42l3.84,3.1c12.26-.78,23.91-.61,36.29-.57,23.21.08,45.46-1.14,68.36-4.14,10.82-1.42,21.01-1.24,31.74-1.21l24.39.08c13.11.04,25.9-.17,38.9-.67l5.04,1.55c.68,2.27,3.12,6.74,2.98,9.38l-1.71,33.28c19.99-3.03,47.63-8.1,66.12-2.97,12.6,3.5,7.07,57.71,12.98,80.98,6.74,26.53,10.21,52.85,10.75,80.27l.41,20.8-.19,39.18c-.06,13.41-.13,26.58,1.15,40.07,1.83,19.36,3.47,37.61,3.38,57.05-.05,11.4.65,22.4,1.28,33.81l2.94,53.57,5.22,80.33,1.84,59.52c.05,1.62,10.71,8.67,2.81,26.67-4.95,11.3-9.48,22.62-17.45,32.1l-44.85,53.35c-2.16,2.57-4.57,6.28-5.79,9.02,1.76,4.98-1.61,7.64-3.79,11.09-4.84,7.69-4.58,17.88-6.68,26.6-2.65,10.99,1.18,18.38-3.91,20.19-2.13.76-4.28-1.3-5.92-3.58-2.81-3.9-2.22-9.92-2.95-14.92-1.33,8.62-19.12,7.58-23.43,8.46-8.63,1.75-16.37,4.78-24.5,7.55l-5.88,2c-16.14,5.49-14.72,3.67-26.88-3.31-25.36,6.04-18.5-6.81-31.52-1.69-2.85,1.12-7.77-.15-10.92.24l-18.19,2.26c-3.49.43-9.63,3.15-12.65,4.61-6.89,3.32-13.22-1.59-18.64-.53-10.16,2-18.24,1.95-27.73,1.5-7.42-.35-14.69,1.92-21.46-2.5-5.7.84-14.24,5.22-21.22,2.63-21.33,12.06-21.98,6.08-32.38,5.45-5.88-.36-11.78,2.89-17.69-1.12-11.99,2.87-11.57,5.46-24.08,2.4-6.61,2.57-13.03,4.86-19.81,3.18-6.71-1.66-11.6-5.68-13.52-12.64-9.52,3.44-22.51,6.32-28.42-3.23-2.67-4.3-2.29-8.73.18-13.42,1.82-3.46,2.53-7.22,3.92-11.12l4.6-12.97-2.33-5.51c-11.29,19.03-14.97,31.17-27.46,50.44-2.58,3.97-7.38,3-10.83.65-3.6-2.45-1.92-7.03.06-10.61l19.17-34.79,19.3-36.8c5.4-10.29,11.01-19.74,15.7-30.42,7.66-17.48,18.11-32.63,30.66-46.91,8.09-9.2,14.69-18.66,21.67-28.56l9.68-13.73c-64.65-3.76-127.85-4.92-191.73-4.44l-2.1.02c-.25,0-.47.73-.22.78l1.7.34c2.38.48,6.01,2.7,7.47,4.82l-.84,3.62c5,1.7,9.18,4.47,12.42,8.87l8.2-13.56c2.78-1.29,5.4,1.28,6.65,3.45,1,1.75,1.09,5.42-.09,7.73l-7.64,14.91-23.38,42.39c-4.52,8.19-8.6,15.91-13.59,23.78l-25.89,40.83-16.63,30.39-7.29,12.64c-1.15,2-4.85,2.63-6.61,2.1-1.77-.53-5.63-2.21-5.56-4.47.13-4.33,2.46-8.64,3.98-12.33l-5.69,3.27c-.36,7.08-14.87,12.22-21.49,12.87l-7.83.77c-10.58,1.03-21.57-2.85-22.51-14.51l-.46-1.73-11.15,4.98,6.07,6.28c2.12,2.19,4.78,7.87,1.33,10.22-6.54,4.44-14.57,2-21.72,1.45l-11.03,3.57c-4.49,1.45-21.16,5.3-25.33,1.27-10.39,12.22-5.29,9.21-17.5,15.28-4.91,2.44-8.04,4.18-14.11,2.74-3.93-.93-8.52,4.73-11.75,5.43s-7.25-2.77-7.65-5.82l-11.64,6.66c-5.86,3.35-14.16.66-16.07-4.93-.13-.38-.33-1.64-.35-1.9,0-.09-14.6,8.04-21.51-4.32l1.82-6.17.41-1.41c.11-.37-.67-1.36-.93-1.08l-1.5,1.63c.11,1.06.98,2.52.51,3.29-5.24,8.7-34.63,24.26-41.06,7.73-10.36,5.39-14.17,2.18-20.27,6.67-3.86,2.84-6.74,4.48-12.01,3.76-3.86-.53-7.2-2.74-9.87-7.3l-5.9,6.95c-1.61,1.89-5.34,3.2-7.57,4.69-6.16,4.1-13.79,5.02-19.65-.22l-1.49-10.94c-4.33-4.96-4.65-10.21.44-15.17l-2.01-8.63c.03-1.38-.12-3.32-.68-1.46l-9.78,12.32c-6.01,7.57-12.62,14.61-17.84,22.66-2.38,3.67-4.46,6.3-8.67,5.13-3.29-.92-7.43-3.89-5.77-8.64ZM572.72,1146.61l40.2.75c36.72.69,72.79,1.39,109.31,4.11-1.52-1.84-2.73-3.9-3.06-6.32l-6.69-48.5c-1.72-12.44-2.87-24.09-3.44-36.58l-1.74-38.48c-.89-10.05-1.35-19.68-1.67-29.73l-.74-23.41-39.38.39c-15.7.16-31.03,1.83-46.88.98-25.46-1.37-26.39,1.98-49.5,3.35,0,14.37-.18,17.38.99,31.6,1.17,14.34.88,28,.19,42.3l-2.02,41.95c1.67,11.96.87,23.54,1.87,35.51.62,7.35,3.06,14.74,2.55,22.09ZM412.66,1164.41c18.57-4.29,36.43-4.66,54.78-2.9,8.49-3.52,17.44-3.79,26.42-2.61,3.2.42,6.69.72,9.31-1.47-47.96.61-95.14.24-142.36,5.36l-35.46,3.84c1.78.88,5.12,1.96,6.86,2.18,14.75-4.59,28.83-3.47,43.81-4.44,12.24-.79,23.84-4.06,36.64.05ZM733.8,1189.5c-4.03-6.92-3.04-12.62,2.25-17.03,3.32-2.39,7.8-2.82,11.8-4,4.91-1.45,8.98-4.34,14.38-1.48,2.03,1.08,5.14,1.01,7.5-1.13l-46.64-4.23,3.43,5.12c-2.75,9.67-9.03,17.33-14.96,25.1l-11.95,15.65c-.38.5-.6,1.64-.55,2.22.05.57,2.47.72,3.05-.09,6.72-9.37,19.48-19.06,31.69-20.11ZM525.97,1165.76c-4.62-3.74-9.87-2.24-14.69-2.03,5.27,1.01,9.77,1.74,14.69,2.03ZM810.43,1173.04l7.96-2.94-41.46-3.61c3.64,3.19,8.08.67,11.56,2.68,10.92,6.32,10.35-6.29,21.93,3.87ZM449.46,1182.73c-2.73-6.23-1.75-10.26,2.67-13.44-9.79-1.55-18.75-1.15-28.65.75,4.94,2.8,6.6,6.68,5.91,12.86,6.71.76,13.51.86,20.07-.17ZM486.44,1182.61l.83-8.84-5.98-1.24c-4.66-.97-9.64-2.63-13.65.02,1.4,9.06,11.69,12.56,18.8,10.06ZM383.09,1182.99c.06-3.61.84-7.34,3.24-10.33-4.79-2.61-10.01.09-13.59,2.69,3.96,2.45,6.87,4.56,10.35,7.64ZM305.84,1172.69c-3.21-.43-6.92-.19-9.57,1.79,3.58,1.38,6.3-.44,9.57-1.79ZM419.69,1181.71c2,.53,4.2-.02,4.83-1.74,1.17-3.2-4.68-6.34-7.02-7.45-1.23-.58-4.56,1.37-4.62,2.83-.12,2.85,3.96,5.62,6.81,6.37ZM523.99,1172.88c-4.79-.8-8.58-.52-13.71.3l3.51,3.52c3.53-1.15,6.49-2.17,10.2-3.82ZM453.9,1176.88c-.81,1.6,2.07,3.89,3.49,3.83,1.38-.06,3.98-.76,4.76-1.77s-.08-4.27-.85-5.35c-2.28-.32-6.2.91-7.41,3.29ZM538.2,1178.31c1.27-3-6.95-6.53-8.48-4.36-2.12,3-4.27,5.81-7.17,7.14,5.22.02,13.27,2.81,15.64-2.78ZM507.7,1176.89c-4.06-2.17-6.01-3.18-8.82-1.34,2.64,3.03,6.25,2.99,8.82,1.34ZM780.34,1187.18c1.08-5.6,3.36-8.79,7.79-12.48-11.95-2.65-4.29,7.42-17.49,16.15,3.02-.57,7.14-1.93,9.7-3.67ZM407.5,1185.64c1.38-6.24-9.07-12.87-13.96-9.59-1.75,1.17-5.67,4.2-3.6,6.66,3.84,4.55,12.09,4.2,17.56,2.94ZM353.26,1184.73l12-5.23c-8.22-3.23-15.56-4.53-24-3.65-4.53,3.18,7.33,3.6,12,8.88ZM755.78,1186.11c2.7-1.25,5.65-2.16,6.53-3.62l4.09-6.76c-5.29,2.17-9.38,5.81-10.63,10.37ZM805.1,1176.08c-13.96.48-7.48,5.96-15.21,13.51,10.74-2.18,7.16-4.59,15.21-13.51ZM319.51,1183.16c1.98.76,4.62.6,5.96-.52,1.12-.93.46-4.09-.48-6.05-6.84.68-15.29.43-21.24,5.43,5.63,1.82,10.7-.79,15.76,1.14ZM295.2,1185.83c.12-1.15-.36-4.8-1.67-5.46-5.76-2.92-14.66-4.18-20.16,1.04l5.77,6.04,16.07-1.61ZM883.56,1184.04c1.34-1.12.85-6.01-1.24-6.19-3.44-.28-7.19,1.97-10.31,3.71,1.12,7.62-2.49,12.4-9.66,15.6,8.71,2.63,12.35-5.75,21.21-13.11ZM832.97,1178.19c-6.46,2.78-13.96,4.71-17.4,12.51,2.5.11,18.8-7.21,17.4-12.51ZM751.83,1178.8c-2,.98-4.87,4.92-4.93,7.14-.01.44,1.39,1.36,1.82,1.48,1.52.43.5-4.39,3.11-8.62ZM803.12,1191.85c.99,1.47,4.49,1.54,5.77.67,1.04-.7.28-3.76.86-4.96,1.36-2.82,3.08-5.65,4.62-8.29-6.57,2.99-1.71,4.02-11.26,12.58ZM843.97,1197.83l10.65-3.56c-.32-6.17,3.12-10.76,7.23-15.22-18.38.17-10.22,8.27-19.6,14.84-.82.58-1.67,1.88-1.45,2.6.22.73,2.24,1.64,3.17,1.33ZM259.61,1190.78l-.08-7.15c-5.5-1.47-10.8-1.03-15.32,2.76-1.66,1.39,1.1,6.37,3.73,6.01l11.66-1.62ZM879.94,1200.23c4.99-2.64,12.08-2.39,16.62-5.68,2.93-3.93,5.57-8.02,9.25-11.85-5.6,1.58-12.56,3.3-16.62,7.64l-9.25,9.89ZM927.71,1195.23l4.6-5.31c.93-1.08,2.18-2.61,1.98-3.59-.17-.84-1.55-2.76-2.37-3.11-4.29-1.84-12.06-.66-14.47,3.78-2.81,5.18-6.29,10.08-11.81,11.51-1.06.27-1.99,3.18-1.16,3.6,3.94,2.02,18.79-4.61,23.23-6.88ZM509.28,1187.49l-7.51-2.1-6.32-2.01c2.78,4.61,8.88,6.1,13.84,4.11ZM236.9,1191.86c-.94-3.23-4.28-6.98-8.8-6.37-4.87.66-10.35,2.54-14.64,4.5l5.13,10.04c6.13-4.25,19.56-3.89,18.31-8.17ZM272.59,1189.29l-4.49-3.27c-.88.46-2.33,2.68-1.69,3.43,1.42,1.67,4.82,1.18,6.18-.15ZM960.45,1196.98l3.12-8.11c-6.07-5.52-32.22,6.71-30.47,13.55,1.17,4.59,24.48-5.57,27.35-5.43ZM516.14,1190.66c20.33,3.85,21.59-2.99,18.77-2.37-.27.06-1.64.56-1.96.57l-17.46.3c-.58,0-2.21.85-2.62,1.1s.81,1.3,1.27,1.13l2-.73ZM819.25,1197.24c5.64-1.2,9.53-2.8,14.08-4.77,1.39-6.71-1.7-.35-9.75,2-1.49.44-3.21,1.68-4.33,2.78ZM1006.91,1193.07c8.2-6.56-18.53-2.3-20.95,1.11.21,5.7-1.97,10.03-7.25,14.75,21.18-1.56,11.52-2.5,28.2-15.86ZM199.66,1198.8c-.67-2.71-.88-4.88-.9-7.49-5.95-.75-11.9,1.06-16.82,4.21,6.74.18,12.67.77,17.72,3.28ZM319.53,1209.73c6.08,1.61,11.83.2,17.69-2.02-1.49-7.15,2.68-10.73,6.2-17.06-4.63.67-8.14,1.75-12.3,2.93,3.91,8.35-5.72,12.25-11.59,16.15ZM1070.51,1191.29l-8.24-.87c.95,2.48,1.26,3.4,1.76,6l6.48-5.13ZM478.97,1192.06c-4.72-.46-8.66-1.52-10.66,2.77,4.04-.57,7.6-1.54,10.66-2.77ZM1084.17,1205.52c2.07,1.81,2.7,2.88,3.56,4.8l7.27-17.42-10.97-1.15c3,11.72-7.26,18.1-12.91,22.4,6.46-.73,11.27-1.88,13.05-8.64ZM364.98,1201.74l1.47-9.47-10.27.28c.55,5.72-.96,9.11-3.91,13.75l12.71-4.56ZM211.12,1198.3c-.85-2.01-2.1-4.12-2.85-4.74-1.04.11-2.96,1.71-3.05,2.76-.09,1.12,1.33,2.81,2.29,3.26.84.39,4.02-.32,3.61-1.28ZM1037.53,1193.85c-5.33-1.4-7.9,2.52-9.45,6.79-2.1,5.79-8.43,8.97-12.44,12.75,18.73,2.34,4.57-6.7,21.89-19.54ZM1036.88,1213.45c8.86-3.11,20.25-7.64,19.94-20.57l-7.11,1.62c-1.37,6.36-4.46,11.78-9.16,16.18-.84.78-3.55.65-3.68,2.77ZM325.9,1194.21c-5.48-.81-12.23,3.81-12.05,11.01,1.51.06,16.31-6.31,12.05-11.01ZM389.8,1196.2l-10.77-1.62-4.24,8.68c-.46.94-1.19,2.17-.82,2.75s1.52,1.99,2.03,1.54c7.91-7.05,5.81-4.05,13.8-11.35ZM439.93,1208.95c-.34-6.55,2.38-9.15,6.36-13.82l-13.37,1.71c.25,7.27-2.64,10.76-8.63,13.8l15.64-1.68ZM499.63,1233.44l-3.14,9.21c-.8,2.34,1.84,6.57,1.9,9.85,4.22-6.74,9.47-13.05,13.43-20.28l20.33-37.18c-3.89,2.15-7.68,2.87-13.26,2.2,1.11,19.96.81,10.27-3.34,20.37-2.23,5.42,3.06,9.73-15.92,15.82ZM343.23,1203.72c3.86-1.41,5.59-4.03,6.78-6.91-3.07,1.4-5.41,3.78-6.78,6.91ZM1076.89,1196.62c-5.4,3.2-10.65,6.69-13.48,13.49,4.62-1.62,13.52-7.35,13.48-13.49ZM283.74,1211.45c8.79-.68,19.78-4.53,17.84-14.3l-11.68,2.4c-2.14.44-5.65,2.3-5.76,4.41l-.39,7.48ZM413.2,1207.93c6.16-.66,13.03-3.09,14.23-10.49-7.09.58-14.09,2.16-20.14,5.02,2.83,1.31,4.3,2.43,5.91,5.48ZM460.71,1197.42c-5.68-.22-13.13,3.79-14.45,9.84l14.45-9.84ZM470.38,1204.78l13.45-6.14-7.36,1.7c-2.74.63-5.39,1.59-6.09,4.44ZM737.12,1199.07c-9.85,2.27-19.81,8.96-22.12,19.92,7.77,1.1,28.64-12.48,22.12-19.92ZM260.68,1208.36l-3.73-2.3c-.67-.42-.1-2.63-.11-3.78,0-1.02-1.66-2.68-2.67-2.61-.87.06-3.02,1.02-3.77,1.67l4.42,6.61c.63.94,2.24,2.4,3.19,2.38,1.09-.03,3.37-1.44,2.68-1.96ZM275.91,1210.15c1.39-2.52,1.58-7.02.3-9.01-2.01-3.12-9.71-.77-9.16,2.42.4,2.32,1.65,5,2.63,6.21.98,1.21,5.47,1.76,6.23.37ZM737.77,1223.83l1.62,4.83c31.46-12.04,19.95-14.55,30.71-23.73,1.54-1.31-1.36-4.96-3.22-5.09-4.62-.33-9.14.78-12.89,3.22,2.51,10.98-4.72,15.55-12.23,21.29l-3.99-.52ZM770.06,1226.41l6.38-2.67c.84-9.4,6.93-14.67,13.36-22.56-17.3,6.25-10.51,11.66-16.41,15.4-1.96,1.24-3.65,2.82-4.46,4.65-.61,1.38.26,4.47,1.12,5.18ZM499.87,1207.38c3.65-.28,7.89.61,9.91-4.65-5.51-.47-21.15-.38-21.87,5.57l11.96-.92ZM194.5,1204.24c-6.66-1.71-13.14-2.3-19.61.46,6.84-.83,16.9,1.23,19.61-.46ZM243.19,1217.6c3.27-4.46-3.67-.67,1.7-13.16-4.28-.84-7.5,4.51-7.75,8.06l6.05,5.1ZM805.53,1218.21c2.25-3.57,6.38-2.95,9.97-2.48l-.64-11.69c-7.8,5.17-17.17,13.11-14.46,20.97,1.78-.96,3.33-1.77,4.27-2.34.81-.49.34-3.64.86-4.46ZM961.42,1207.09c-.03-.69-1.64-2.75-2.33-2.5l-11.57,4.14c0,2.82,13.99.3,13.9-1.65ZM742.92,1215.4c3.25-2.38,6.45-5.16,5.66-9.12-5.15,4-8.98,8.64-12.24,13.94l6.58-4.82ZM855.33,1217.63l12.56-10.56c-3.13-1.2-8.06-.38-10.94.91.84,3.16.19,5.66-1.62,9.65ZM201.45,1225.53c2.44,2.16,6.72.79,8.4-1.52-3.08-4.99-1.57-9.76-.64-15.47-8.32,11.61-6.99,4.35-7.76,16.99ZM214.63,1221.28c5.61-1.82,8.11-7.05,5.39-12.01-4.77,1.64-7.47,7.14-5.39,12.01ZM785.44,1218.24c4.16-2.77,6.57-5.04,7.57-8.75-3.66,2.55-6.06,5.76-7.57,8.75ZM702.91,1230.98c-4.55-7.08-4.41-10.36-5.41-20.32-14.57,16.21-27.28,35.2-35.29,56.6,2.11-1.39,4.84-2.17,7.4-2.72,1.65-7.33,4.36-15.13,9.43-20.59,7.01-7.55,7.71,2.46,23.86-12.98ZM864.3,1236.95c3.72-1.19,8.26-3.05,10.7-5.08,2.34-7.18,4.9-13.1,9.37-19.45-1.79-2.46-8.59-3.33-9.74.38-1.75,5.65-4.08,9.69-8.24,13.47l-7.26,6.59,5.16,4.09ZM919.61,1227.98l8.27-14.98c-3.52.17-8.04.53-11.41,1.39-1.6.41-2.8,4.83-1.86,6.22l4.99,7.37ZM841.95,1219.65c3.99.65,7.42-1.85,6.47-6.3-2.46,1.76-4.44,3.62-6.47,6.3ZM481.6,1220.73c8.05.18,16.65-.88,23.5-5.67-7.75,2.81-15.09,4.11-23.5,5.67ZM969.17,1225.9c1.59-1.22,2.53-4.24,1.16-5.45l-5.77-5.12c-7.16,3.21-23.33,20.24-20.31,28.37,22.42-6.42,14.87-10.11,24.93-17.8ZM370.94,1239.74c.83-6.34,3.75-11.08,8.61-14.45-3.53-1.67-3.13-4.07-1.78-8.54-1.43-.18-4.63.53-6.35,1.37-2.03,1.01-1.53,4.16-2.26,6.2-2.21,6.21-7.36,11.42-11.69,15.89-.54,5.45,10.87.94,13.46-.47ZM389.12,1217.68l-8.45-1.29,1.64,6.24,6.81-4.96ZM1029.76,1256.36l1.01,10.29c2.02-3.81,4.02-8.32,6.39-11.97,1.9-2.92,6.26-1.37,7.95.74,1.42,1.76,1.86,3.94,1.88,7.15l19.58-22.7c6.35-7.36,13.03-13.84,17.41-23.39-3.96,4.01-9.4,4.82-15.5,5.62l.59,4.62c-2.4,5.97-7.06,10.38-11.65,14.36l-.21,5.27-8.59.58-18.88,9.43ZM943.07,1226.02c1.84-1.98,4.54-6.06,3.05-7.39-1.21-1.08-4.48-1.69-5.6-1.13-.98.49-1.08,3.17-1.74,4.31-5.44,9.38-14.77,11.18-13.39,15.08,6.7-3.07,12.82-5.62,17.69-10.88ZM183.17,1222.58c-.95-5.01-.99-.43-12.79-3.57-3.34-.89-6.32,2.24-6.36,5.62,6.69.51,13.17-.25,19.15-2.05ZM434.67,1229.11c3.41.19,8.25-6.3,6.42-9.5-5.95-1.96-13.42-1.52-19.73.84v7.91s13.31.75,13.31.75ZM451.51,1229.99c1.41-1.22,2.95-5.12,1.58-6.2l-6.42-5.06c1.35,6.35-1.38,10.62-5.19,14.33.08.99,1.14,3.26,1.7,4.12l8.33-7.2ZM896.81,1225.86l4.68-7.19c-2.18.5-5.16,2.42-6.32,3.95-.09.54,1.06,2.43,1.65,3.25ZM793.64,1227.08l-1.16-6.28-9.22,7.53c3.6,2.21,6.41-.15,10.38-1.25ZM258.24,1245.06c5.23-.66,10.5-2.59,13.4-6.08l14.67-17.66c-6.29-.2-10.87,2.49-16.63,3.32-.18,13.4-5.59,12.48-11.43,20.42ZM327.63,1232.26l11.2-10.8c-6.45-.64-13.66-1.23-18.94,2.11l-3.06,9.14c3.48.42,7.65.13,10.8-.45ZM494.23,1226.25c5.07.62,10.42-.95,14.18-4.52l-14.18,4.52ZM992.32,1221.68c-.72-.71-15.37-.58-16.36,10.32l-9.56,8.21c5.9,10.24,33.4-11.1,25.92-18.52ZM286.12,1236.76c5.83,3.35,3.7-7.66,15.82-14.18-15.75,2.86-5.23,8.71-15.82,14.18ZM340.17,1241.62c2.51-.25,7.16-1.45,9.18-4.06-1.34-5.7-.07-10.7,4.38-15.5-13.54,4.56,1.85,4.34-13.56,19.57ZM729.75,1223.18l-.9-.99-11.87,3.55c5.24,4.41,12.51-2.85,12.77-2.56ZM1053.87,1222.09l-9.18,1.05-.04,6.66,9.22-7.71ZM404.1,1233.36c5.04-1.39,11.3-3.27,11.38-9.99-10.14.51-5.28,4.19-11.38,9.99ZM838.28,1236.02c3.17-1.05,8.22-3.01,11.27-4.97,1.16-2.41,2.02-5.91,2.36-8.45-6.18,6.88-19.06,9.72-13.63,13.42ZM1017.58,1223.38c-5.42-4.01-22.62,14.15-24.66,19.8,9.5-3.5,18.84-9.65,24.66-19.8ZM1037.58,1223.66c-5.21-3.3-25.43,15.72-27.1,23.16,6.46-.71,34.84-18.25,27.1-23.16ZM263.37,1227.24c-3.33-3.9-15.57,9.25-16.23,14.7,7.36-2.27,13.56-7.58,16.23-14.7ZM303.74,1230.14c4.64,2.44,7.94-.4,8.26-4.36l-8.26,4.36ZM913.68,1233.94c-1.94-1.85-3.87-2.53-3.75-3.45l.47-3.71c-3.62,1.52-4.55,4.29-4.24,9.18,1.84.3,5.35-.64,7.52-2.02ZM1047.53,1239.25c6.12-3.06,10.08-7.13,13.33-12.33-5.41,3.4-11.59,6.39-13.33,12.33ZM183.89,1229.8l-17.25,2.19c.53,3.26,14.9.33,17.25-2.19ZM227.49,1245.31c5.23-2.02,8.48-4.01,12.6-6.52l2.46-6.56c-3.18.45-5.81.4-8.25,1.14-4.35,1.32-7.56,7.2-6.81,11.94ZM221.82,1247.76c-1.68-5.72-.61-8.83.71-13.93-2.29-1.17-7.37-.04-9.06,2.1.53,6.23.07,12.26-5.16,16.62,4.97-1.27,9.26-2.83,13.52-4.79ZM161.74,1240.62c-4.44-1.56-6.68-3.23-9.32-7.31l-2.44,18.43c2.51-5.24,6.1-9.09,11.76-11.12ZM471.12,1234.6c-3.97-.52-10.05-1.72-11.14-.19-.36.5-.24,1.93.35,2.03l2.99.49,7.8-2.33ZM682.48,1279.31c2.27,3.34,19.38-4.24,22.74-8.44,1.51-11.51,7.64-20.5,16.03-27.98.94-.83,2.13-2.17,2.21-3.1.08-.93-1.08-3.18-1.85-3.73-13.46-9.6-34.87,19.87-38.64,31.04,4.31-3.05,19.29-8.96,21.14-3.4.32.95-1.69,2.93-2.74,3.22-4.18,1.16-22.05,7.76-18.89,12.4ZM397.31,1236.14c-5.46-1.71-13.24.96-13.82,7.81l13.82-7.81ZM427.54,1235.89c-5.78-.94-11.17.26-16.09,4.56l16.09-4.56ZM745.47,1267.42l11.8-7.35c3.6-7.02,7.57-12.77,13.51-18.12.84-.76.98-2.92.76-3.94s-2.62-3.38-3.47-2.72l-6.94,5.45c-1.94,8.82-7.59,14.8-14.46,20.33-.89,1.39-1.44,4.72-1.2,6.35ZM1029.79,1249.11l12.99-6.17c-1.29-3-1.9-5.09-1.98-7.61-4.72,5.41-11.11,9.83-18.31,13.57,1.52,1.18,4.61,1.5,7.31.21ZM198.33,1250.16c6.41,0,11.25-6.38,10.08-13.03-4.81,2.5-11.14,6.24-10.08,13.03ZM193.94,1253.77c-4.14-7.09-2.76-10.73,1.63-16.22-3.08.44-5.67,1.24-7.96,2.23,1.33,5.74,1.51,9.13-.35,14.18,2.19.22,4.57.15,6.68-.2ZM794.21,1239.31c-1.46-.2-4.73-1.51-5.23-.38s.06,4.22.52,5.23l4.71-4.86ZM937.7,1244.83l-.79-6.18-9.81,3.96c3.51,1.31,7.3,2.05,10.6,2.22ZM788.11,1273.98c3.35-1.98,9.09-3.76,10.24-7.11,3.06-10.27,6.09-18.94,14.18-26.73-12.14-4.48-1.08,6.22-19.57,20.87-4.2,3.33-8.3,7.09-4.85,12.97ZM750.6,1240.78c-9.93,6.26-19.49,13.73-24.21,25.61,18.33-11.58,12.14-7.28,24.21-25.61ZM782.56,1241.4c-4.65,2.39-6.6,7.66-7.52,12.39,3.39-3.06,11.08-9.41,7.52-12.39ZM175.32,1248.42c.1-2.23.07-4.47-.25-6.56-1.29.12-3.84,2.06-3.23,2.72l3.48,3.84ZM318.25,1245.29c.7-.06,2.23-1.14,2.46-1.73s-.65-2.01-1.27-1.87l-2.52.57c-.58.13-1.9.86-2.4,1.21s-.45,2.18.16,2.13l3.58-.31ZM816.33,1272.52c1.88-2.94,3.12-14.94,7.54-11.86.31.21-.03-1.2-.32-1.43l-1.49-1.2,10.84-13.55c-3.88-1.03-8.25-1.79-12.29-2.33-.08,5.04,1.23,9.98-1.18,13.89-8.6,13.98-16.92,14.84-13.31,20.48,2.16-3.7,6.79-2.74,10.21-3.99ZM413.27,1249.08c8.21-.42,14.72-2.77,21.61-5.58-5.86-.72-10.59,1.28-15.48,3.77l-6.13,1.8ZM844.2,1277.98c6.3-2.28,10.85-4.69,15.92-7.65,4.05-9.32,9.97-17.25,18.46-22.83.64-.42,1.59-1.17,1.59-1.7s-.63-1.95-1.14-1.83c-6.93,1.6-12.79,3.41-15.77,10.7-3.77,9.21-15.04,15.35-19.06,23.31ZM489.93,1253.62c2.15.75,2.69-4.54,1.95-6.17-1.11-2.44-4.38-1.16-7.01-.66-15.2,2.92-23.56-6.64-34.42,3.63,7.72.09,14.35-3.31,21.54-2.48,6.22.72,11.59,3.48,17.93,5.67ZM826.87,1276.02c4.14-1.02,9.91-2.28,12.24-5.89,5.99-9.3,11.93-17.87,20.77-24.87-9.24,3.13-15.33-.17-18.43,2-4.93,3.46,5.11,16.63-14.58,28.76ZM998.43,1248.1c2.24,1.77,2.8,2.56,3.53,2.4.95-.21,2.22-1.08,2.1-1.83l-.56-3.4-5.06,2.84ZM172.49,1255.33l-3.44-6.15c-.67,1.22-1.22,3.82-.79,5.01.37,1.04,3.04,1.26,4.24,1.14ZM808.36,1259.94c3.35-3.05,5.79-6.53,5.61-10.64-2.54,3.7-4.73,6.64-5.61,10.64ZM165.37,1258.81c-2.62-2.16-3.99-5.02-5.01-8.53-3.2,2.8-6.14,7.23-6.12,11.48,4.39-1.45,7.52-2.31,11.14-2.95ZM419.2,1256.52c4.42,3.4,18.02,0,18.47-6.39-6.78,3.07-15.92,2.27-18.47,6.39ZM358.89,1259.75c-.2-2.13-.61-7.65-2.83-8.35-3.72-1.17-7.22-.15-11.29.39l.98,7.11,13.14.85ZM375.19,1258.25c1.02-.45,1.6-2.99,1.19-4-.55-1.33-2.45-2.03-4.09-2.19l-9-.9,2.42,11.32,9.49-4.23ZM339.57,1261.15l-.73-8.39c-3.1-2.07-7.96-.41-8.38,2.99l-1.14,9.4,10.25-3.99ZM949.46,1253.99l-5.3-2.32c-1.13-.5-3.87,1.51-3.88,2.81-.1,10.44-.95,5.09-.99,11.9,0,.47,9.58-9.97,10.17-12.4ZM907.99,1285.18c4.1-1.57,7.24-3.17,10.63-5.02.42-10.28,5.16-18.47,11.87-26.64-14.26,1.68-1.44,7.1-21.76,24.22-2.07,1.74-3.03,5.89-.74,7.44ZM971.04,1265.52c1.43-3.52,1.72-6.21,1.39-8.99-7.9-.95-8.26-4.47-13.91-2.91,10.33,2.61,4.55,4.57,12.52,11.9ZM481.69,1256.49c-.47-1.84-16.75-2.76-16.67-.93l16.67.93ZM900.43,1276.03c2.09-8.67,6.46-15.37,12.79-21.58l-8.82,1.13c2.1,12.63-11,18.3-19.48,23.88-3.41,10.57,11.78-2.02,15.5-3.43ZM997.48,1257.83c-2.87-.51-5.99-1.65-8.58-3.63-5.93,6.76-8.82,15.6-8.67,24.59,8.15-4.95,18.45-9.92,17.24-20.96ZM825.68,1268.15c4.45-3.31,8.47-7.27,8.12-13.43-3.61,4.01-6.21,8.31-8.12,13.43ZM244.92,1257.89c2.64,2,4.04,3.19,4.8,2.52.93-.83,1.67-3.21,1.45-4.51-2.34.55-4.53,1.27-6.25,1.99ZM279,1267.12l-2.72-10.99-12.84,1.24c-5.87.57-10.57,9.79-6.38,14.39,7.39-2.08,15.04-4.35,21.94-4.65ZM304.07,1266.93l4.89-6.02c-.5-1.86-4.16-4.77-6.32-4.61-2.82.2-6.78,1.09-7.08,4.2,1.91-.13,4.64.21,6.22,1.31,1.17.81,1.8,3.5,2.28,5.13ZM887.59,1269.93c5.78-2.59,10.84-6.63,10.42-13.34-3.91,4.03-7.15,8.24-10.42,13.34ZM781.84,1257.7l-15.28,10.41c7.16.35,15.6-5.98,15.28-10.41ZM1009.09,1281.88l7.69-5.83c5.7-4.32,8.78-11.48,6.76-17.95-3.17.61-7.28.88-10.63,1.11-4.72,1.96-12.88,20.77-7.44,22.94.61.24,3.04.17,3.62-.27ZM288.7,1268.26l-.66-10.02c-3.13,2.65-2.15,7.92.66,10.02ZM488.88,1266.74c.67-.3,1.77-2.27,1.58-2.97-.15-.55-1.36-1.68-1.92-1.83-11,.42-23.88,1.92-34.79-3.14-3.48,1.27-7.15,2.96-11.16,4.92,5.02,7.05,20.77-8.31,38,6.72l8.3-3.71ZM926.76,1273c5.77-2.95,6.67-8.09,7.69-13.22-3.39,4.32-5.88,8.74-7.69,13.22ZM244.18,1277.09c1.67-.98,3.22-1.71,4.02-2.54.69-.71.72-3.58.43-4.68-1.19-4.42-5.98-9-11.1-8.38-3.12.37-7.58,3.86-9.79,5.94.03,5.56.03,10.64-2.42,15.82,17.03,1.36,13.2-2.82,18.86-6.16ZM966.39,1271.45c-3.41-4.53-8.3-3.62-7.01-11.09-4.43,3.29-1.69,7.17.07,10.55-1.03,3.02-2.56,6.57-2.59,10.26.33.1,11.65-6.91,9.54-9.71ZM181.56,1270.36l8.54-7.61c-2.81-.03-6.98.48-8.82,1.75l-2.28,6.08,2.57-.21ZM208.98,1277.89c2.62-5.47,5.99-9.76,10.19-13.92-12.4-6.35-33.19,12.69-39.15,22.39,9.79-4.18,18.82-7.9,28.97-8.47ZM433.39,1262.68c-2.56.19-5.79.72-5.95,2.19-.48,4.2-1.02,7.37-1.91,11.62,9.35-3.25,2.9-6.32,7.87-13.81ZM420.62,1270.53l-.15-5.4c-13.47.79-25.9.94-39.14-1.11-4.32,3.17-15.93,9.5-10.34,14.99,15.83-5.97,32.71-11.41,49.63-8.48ZM866.33,1281.69l11.62-6.11,4.36-11.42-14.02,9.62c-2.54,1.74-4.63,5.27-1.97,7.91ZM344.42,1286c10.24-2.13-4.04-7.17,13.87-19.73l-7.82-.39c-3.88-.2-5.65,1.07-6.79,4.85-1.98,6.54-8.71,11.85-15.86,10.1-3.3-.81-5.68-2.93-8.27.01-1.89,2.16-3.26,5.29-2.08,7.93.97,2.18,5.54,4.18,8.26,3.16,6.34-2.37,11.93-4.53,18.69-5.94ZM737.94,1269.53c-2.5-2.26-5.86,1.2-7.54,3.48,3.08-.32,4.94-1.04,7.54-3.48ZM940.94,1275.48c-2.36-2.64-1.88-4.17-2.64-7.38-1.13,7.69-8.35,10.13-12.85,16.47,5.96-2.46,11.24-6.01,15.49-9.09ZM163.16,1279.66c4.82.31,9.56-4.22,8.68-9.18-6.23,3.36-11.3,4.07-17.27,2.39-2.23-.19-3.84,6.08-2.34,7.42,3.87-.67,7.11-.88,10.94-.64ZM650.24,1304.48c2.11-.93,4.27-2.51,5.07-4.34,3.81-8.75,8.51-16.11,15.37-22.78l-1.47-7.13c-14.08,6.65-13.34,7.56-19.22,20.61l.25,13.64ZM1024.98,1277.18c3.95-2,5.8-3.31,8.05-5.5-4.09.25-6.42,2.71-8.05,5.5ZM216.56,1280.78c5.02-.65,5-5.21,4.63-8.12-2.97,1.66-5.03,5.15-4.63,8.12ZM472.42,1277.04c-9.63-.19-17.17-.87-25.56-3.21l-7.53,3.76c11.51,3.45,23.31,3.89,33.09-.55ZM471.22,1296.34l12.63-21.73c-4.96-.02-2.56,10.37-18.52,10.92,3.42,4.57,5.88,6.72,5.89,10.81ZM780.72,1277.84c-.07-1.54-3.51-3.85-5.35-3.46-1.16.24-.68,3.96.19,4.79s3.96-.19,5.16-1.32ZM356.76,1285.88c2.3-.77,5.29-2.13,5.68-3.8.5-2.15.61-5.87.42-7.57l-6.1,11.37ZM983.34,1284.65c5.85,3.31,11.89,3.02,17.24,1.21-2.39-3.54-3.42-7.15-3.43-10.91-2.4,2.41-5.69,4.52-9.04,5.67l-4.77,4.03ZM969.7,1282.66c2.35-.45,4.73-.9,4.58-1.92l-.68-4.68-3.89,6.61ZM274.72,1280.84c2.73-1.35,7.58-.31,8.13-4.57-8.18,4.41-15.02,6.85-23.75,3.66.64,2.06,2.08,5.03,3.81,6.76l11.82-5.85ZM310.17,1287.27c.41-4.29.89-6.04,2.86-9.5l-8.69,6.31c1.96,1.45,3.67,2.34,5.83,3.19ZM857.86,1283.78c.7-.43.66-3.12.5-4.63l-10.47,5.23c2.86,1.26,7.57.43,9.97-.6ZM145.91,1306.07c-7.56-4.94-2.55-16.52,2.05-20.86l-2.36-5.62c-4.71,18.32-10.23,34.36-18.97,50.31l12-5.55c-3.53-2.19-3.86-6.79-1.14-10.03,2.35-2.8,5.36-5.27,8.42-8.24ZM721.38,1308.8c2.7-1.95,3.43-4.16,4.3-6.73,2.79-8.15,6.67-15.03,12.08-22.06-4.16-4.48-19.59,27.7-16.38,28.79ZM257.62,1316.74l10-2.97c4.98-15.95,23.4-19.48,35.75-28.91-3.09-4.77-7.21-3.57-11.79-2.81-9.52,1.58-8.86,11.74-11.91,6.86-1.16,4.85-3.63,8.54-7.17,12.1l-6.93,6.97c-2.77,2.79-6.05,4.03-7.96,8.76ZM688.33,1309.61c11.5-7.65,22.23-16.08,32.31-26.32l-7.06-.89c-4.99,7.85-11.44,14.19-18.85,19.88-2.61,2-4.86,3.83-6.4,7.34ZM1010.38,1299.16c3.47-2.09,8.01-3.04,12.43-4.34l6.74-11.65-14.96,6.05-4.22,9.94ZM756.43,1305.08c5.16-5.35,8.88-10.84,11.04-17.84l-7.35-3.14c-6.34,9.44-11.71,19.12-12.97,30.59l9.28-9.61ZM941.35,1289.01l-1.41-4.94-8,4.92,9.41.02ZM209.18,1285.36c-5.71-1.3-13.14,1.86-18.61,4.56-3.07,1.52-6.8.82-7.92,4.63,2.99,2.96,35.56-7.13,26.53-9.19ZM245.81,1289.23c.57,4,4.44,4.3,6.87,2.36,1.55-1.23,2.7-5.09.25-5.93-2.48-.85-7.42,1.52-7.12,3.56ZM382.66,1290.44c10.58.92,19.73-1.84,29.62-3.79-3.09-2.7-6.74-1.41-10.42-.72-6.67,1.26-14.03.05-19.21,4.51ZM684.47,1300.52l6.88-11.83c-4.06-.66-7.78-1.61-12.27-3.29-4.13,3.37-16.72,19.17-16.62,23.92,11.42-3.82,16.73.26,22-8.8ZM459.25,1298.48c2.43-.02,6.32-1.64,7.3-3.23,4.91-7.93-31.72-11.51-40-3.54-.88,3.68,3.35,7.03,7.22,6.99l25.48-.23ZM776.22,1295.78c-1.45-4.34.21-6.33-.13-10.23-4.61,9.54-7.24,17.91-15.57,24.72,6.92,5.31,13.15-9.43,15.7-14.49ZM261.71,1304.2c5.59-5.19,10.78-10.43,15.58-16.53-8.5,2.29-14.33,7.52-15.58,16.53ZM729.84,1312.43c3.6-.77,6.65-1.04,10.24-.94l8.86-24.03c-4.2,7.72-8.87,14.79-16.22,20.7-1.16.93-2.55,3.26-2.89,4.27ZM817.01,1300.5l6.16-7.69c.9-1.13,1.03-4.33.68-5.4-3.71,4.15-12.01,7.48-6.84,13.09ZM148.87,1303.02c7.5-2,13.94-6.78,16.48-14.5l-11.01.65c-3.54,3.43-6.61,8.2-5.46,13.85ZM840.65,1288.44c-2.77-.03-12.89,12.38-11.64,17.2,5.99-1.78,20.49-17.09,11.64-17.2ZM969.35,1313.76c8.47-4.94,13.51-21.23,7.33-24.3-3.94-1.95-14.78,6.92-15.95,11.05l-3.02,10.68c4.38-.81,9.16-1.94,11.64,2.56ZM795.16,1295.54c0,1.23,3.62,2.16,4.87,1.59.98-.45,2.31-2.1,2.24-3.3-.06-1.08-1.39-2.38-2.92-4.25l-4.19,5.97ZM296.51,1302.54c6.95.5,9.86-4.81,10.97-10.94l-6.19,4.45-.88-1.36c-.16-.26-1.29.16-1.16.43l.92,1.96-3.67,5.46ZM408.64,1302.47c4.99-2.07,6.15-5.5,6.51-10.82l-12.23,3.35c3.12,2.92,4.79,4.79,5.72,7.47ZM867.94,1297.5l2.09-4.18-6.77-2.03c-2.54,1.51-5.06,3.05-7.06,4.54,5.67.18,7.95-1.74,11.74,1.67ZM996.62,1306.5c-.45-5.31.46-9.3,1.74-13.91-4.26.56-8.3.23-12.95-.69.92,7.58.08,15.15-6.59,19.64,3.19,3.26,5.85,1.87,8.54.32l9.27-5.34ZM215.1,1313.86l-10.63,7.42c-1.46,1.02-2.69,1.89-3.42,2.73s.69,4.8,1.81,4.61c9.8-3.8,19.4-9.49,28.29-15.67-2.42-7.19-1.71-13.02,1.49-19.95-14.69,8.42-15.21,7.94-26.69,19.96,8.78-3.65,15.33-9.42,23.22-15.21-2.52,7.33-8.23,12.04-14.06,16.11ZM320.31,1305.42c9.09-2.82,16.05-5.39,24.65-3.22l2.19-9.08c-11.85,6.35-18.75,3-26.85,12.3ZM893.94,1312.75c5.47-3.79,19.51-10.15,14.16-17.49-1.78-2.45-3.85-1.52-6.82-1.16l-6.39.57c3.67,6.43,4.08,11.8-.95,18.09ZM318.78,1296.75l-3.45-2.45c-.94-.67-3.52,6.06-6.42,8.59,4.45.16,7.28-3.37,9.87-6.14ZM243.57,1298.23c.14-1.24-2.57-2.96-3.52-2.52-2.77,2.94-4.84,8.54-3.72,12.47,4.3-1.27,6.82-6.25,7.24-9.95ZM363.24,1305.25c4.96-2.91,8.7-5.24,11.57-9.14-5.43,1.13-9.36,5.35-11.57,9.14ZM689.98,1328.61c7.1.79,8.53-3.93,10.91-8.37l.4,3.19,10.58-7.88,4.93-19.16-21.76,17.27c2.17,1.29,3.86,2.94,4.45,5.25l-6.97-.86-2.55,10.56ZM941.75,1320.14c5.71-2.77,7.35-6.13,7.4-11.15.04-4.11,3.86-7.8,3.15-12.28-3.39-.68-11.04,1.27-11.54,5.22-.57,4.51.23,8.96-2.55,12.9.62,1.58,2.56,4.3,3.55,5.32ZM184.76,1301.29l-6.58-3.62c-.91-.5-3.2-.11-3.45.81-.26.96.6,2.97,1.42,3.54,2.95,2.06,7.22,3.24,8.61-.73ZM925.12,1311.82c1.19-4.41,3.37-7.99,6-11.97.76-1.16-3.11-2.87-4.54-2.54-6.04,1.38-10.24,5.96-12.19,11.22,4.25.07,7.43,1.18,10.73,3.29ZM403.05,1303.31c-3.18-6.04-8.81-5.91-13.16-3.79-5.35,1.67-10.45,3.96-15.67,7.27,9.35,1.57,19.31-.54,28.83-3.49ZM425.28,1300.65c-1.21-2.43-2.73-3.09-3.42-1.81l-2.06,3.81,5.48-1.99ZM465.12,1307.44c2.11-2.38,4.2-5.57,5.18-9.82l-9.97,5.09,4.79,4.72ZM881.7,1307.65c2.67,1.22,6.8,1.42,8.07-.55,1.93-3,2.02-7.48-2.01-8.14l-6.06,8.68ZM1017.82,1312.28l2.76-10.47-9.81,3.07,7.05,7.4ZM173.36,1325.79c.11-6.21,1.82-11.62,5.15-16.22-3.46-1.8-6.19-3.88-8.59-6.61l-3.41,10.68c2.09,4.83,2.37,9.19.26,13.85,1.68.35,5.95-.04,6.58-1.7ZM862.53,1308.76c1.37-.49,2.26-5.1.56-4.9l-5.83.69-7.36,8.54c7.78,3.62,2.93-5.32,12.63-4.33ZM180.17,1324.31c22.93-6.9,10.56-4.35,22.8-18.56-13.39,4.56-18.43,1.56-22.8,18.56ZM815.68,1310.63c1.51.67,3.88,1.23,4.83.46.96-.77.88-3.03.82-5.5l-5.65,5.04ZM342.94,1307.33c-9.95-1.46-25.05,6.33-31.63,15.08,12.05-2.41,22.66-7.89,31.63-15.08ZM453.52,1312.43c2.03,1.16,6.76-1.27,7.28-3.58-11.68-1.86-24.41-3.93-35.85.48,10.64-1,18.94-2.39,28.57,3.1ZM296.03,1317.57c6.53.93,8.27-3.93,10.26-9.5l-10.26,9.5ZM295.8,1309.03c-15.73.03-14.88,10.18-16.11,9.91l-3.88-.86c-2.32-.51-2.3,12.3,20-9.05ZM151.43,1318.21l3.19-8.42c-5.35,1.59-10.42,5.2-12.4,10.59,2.31,1.95,8,1.03,9.21-2.16ZM254.1,1311.05l-5.67-1.32-4.31,7.43c4.42-2.08,6.37-3.52,9.98-6.11ZM386.71,1319.2c6.52-.51,12.17-3.06,13.87-8.79l-16.25,3.02c.14,1.54,1.17,4.62,2.38,5.77ZM379.65,1322.69c2.04-1.67.64-6.28-.79-7.64-2.63-2.5-17.42-2.15-16.71,5.85,5.68-1.42,11.29,1.01,17.5,1.79ZM799.48,1313.85c-4.76.5-8.85,2.54-12.3,5.28,4.99,1.5,9.31-1.13,12.3-5.28ZM909.25,1327.77c4.09-5.09,7.67-9.26,13.41-11.92-3.22-1.22-8.73-1.71-11.29.87-1.55,3.13-1.84,7.73-2.11,11.05ZM1003.81,1326.56c1.34-2.14-1.08-6.58,2.12-6.76,1.43-.08,3.41-.55,4.23-1.35l-10.25-3.92c-12.4,8.38-7.72,7.49-13.63,21.87-3.91,9.5,12.86-2.39,17.55-9.84ZM334.83,1331.85c5.17-4.3,9.71-9.07,12.65-16.22-6.31,3.44-13.42,6.39-17.06,12.22-.88,1.55,3,5.16,4.41,3.99ZM957.14,1319.29c3.82,1.99,5.87-.44,8.16-2.53-3.15.06-6.43.58-8.16,2.53ZM452.83,1318.49c-3.92-.78-6.16-1.06-9.88-.12,1.52,1.37,3.41,2.71,4.75,3.01,1.89.42,4.6-.75,5.13-2.89ZM732.1,1327.41c3.88-1.53,7.16-5.23,9.12-8.88-4.39-2.67-7.75.43-11.51,2.83-1.68,1.07.4,6.84,2.4,6.05ZM236.57,1322.01c.88-.58,0-3.69-.99-4s-3.05.55-4.05,1.38c-6.15,5.09-12.48,8.25-19.92,11.92,8.82-1.09,17.73-4.58,24.97-9.29ZM162.9,1326.75l.61-8.63-4.22,4.04c-.53.51-.21,3.13.51,3.4l3.11,1.19ZM271.43,1324.59l-2.9-4.31c-4.74,2.97-25.28,2.28-23.63,5.55,3.91,7.76,19.89.58,26.53-1.23ZM437.91,1322.32l-8.12-1.28c-3.98-.63-8.94-.18-12.73.5l5.67,2,15.18-1.23ZM903.61,1331.49l-.6-11.26c-5.22,1.72-7.34,6.98-7.67,12.11,3.47.08,6.73-.2,8.27-.85ZM978.55,1338.1c-.02-6.1.82-10.45,4.33-17.09-12.92,3.09-16.68,8.7-23.43,20.71-.86,1.53,1.12,4.65,2.34,5.42,5.41,3.43,14.57-4.58,16.76-9.04ZM296.76,1326.44c1.15.02,2.89-.15,3.6-.44s1.18-2.03,1.12-2.53l-11.23,2.45c2.2.72,3.79.45,6.51.51ZM441.22,1327.63c-12.43,2.73-21.64,3.14-31.47-4.34-1.93.3-4.59,2.63-4.9,4.2-2.1,10.8,38.72,5.44,36.37.14ZM661.31,1345.01l7.41-19.73c-4.08.15-8.45-1.07-12.24-2.53-5.25,3.75-10.51,9.92-13.7,15.84-1.74,3.24,1.65,7.82,4.69,9.01,3.39,1.33,12.24,1.52,13.84-2.59ZM709.23,1348.5c-.17-11.98,6.25-15.1,2.17-22.67-8.96,4.5-21.55,24.12-16.36,33.69,5.05-3.36,9.89-7.22,14.19-11.03ZM856.88,1325.71l-6.82,3.52c-.08.24,1.85,2.23,2.88,2.62,2.11.79,4.39-5.58,3.94-6.14ZM158.41,1337.47c1.05-1.22,2.62-4.05,1.97-5.01s-2.7-2.08-3.84-3.11l-3.19-2.88c-.64-.58-3.14.72-3.76,1.09,4.23,2.81,6.56,5.53,8.82,9.91ZM196.29,1330.92c-.08-1.34-1.29-3.78-2.32-4.42l-11.97,4.53c4.47,3.74,9.88,2.06,14.29-.11ZM677.85,1325.78c-3.77,4.49-6.06,8.87-7.98,14.69,3.36-4.17,14.31-10.61,7.98-14.69ZM931.09,1328.65c-1.44-1.49-3.4-3.14-4-2.47l-2.28,2.52-2.06,2.27c-.35.39.14,1.39.63,2.49l7.72-4.81ZM934.72,1346.44c6.77-1.9,13-4.58,18.99-7.87l7.71-12.59c-6.29,4.84-12.81,4.03-19.57,6.24-4.64,1.52-7.11,9.63-7.13,14.22ZM800.65,1334.13c2.17-1.54,3.53-5.12,3.22-7.43-6,1.73-8.34,7.12-10.23,12.41l7-4.98ZM807.27,1343.7l11.2-6.77c3.43-2.07,6.18-4.8,6.78-9.86l-10.11,1.1c-2.51.27-9.69,10.57-7.86,15.52ZM314.87,1328.08l-6.48-.31c-.58-.03-1.31,2.16-.83,2.51,2.68,1.94,4.15.38,7.31-2.2ZM739.22,1357.06l20.13-12.3c1.06-5.41,3-10.44,6.22-16.34-3.22,1.68-6.81,2.77-11.13,3.37-4.08,14.84-20.12,17.8-15.21,25.27ZM769.32,1353.37l15.56-8.45c1.05-6.32,3.54-11.1,6.12-17.2-15.5,8.2-10.15,10.94-24.56,20.05-.82.52-.73,3.28-.2,4.12.45.72,2.16,1.98,3.08,1.48ZM880.43,1337.34c.85-3.56-.68-6.83-4.16-9.32-5.34,2.72-11.7,6.61-15.09,11.98-2.32,3.68,1.57,6,3.86,7.35,4.1,2.41,14.04-4.38,15.39-10.01ZM242.82,1331.87c-.69-1.72-2.89-3.68-3.97-3.28-.95.35-3.06,1.6-3.89,2.56.11,1.03,2.72,2.49,3.84,2.63s3.72-1.04,4.01-1.91ZM811.8,1353.34l18.67-10.5,2.55-14.41c-10.16,14.01-7.8,12.09-23.66,21.05.21.96,1.39,2.78,2.44,3.85ZM998.56,1340.44c5.41-.22,9.77-3.65,13.43-7.4l-1.71-4.71c-8.57,11.31-2.4-.05-11.72,12.11ZM153.95,1341.12c-.51-5.7-6.31-11.16-12.1-10.61-9.87.93-17.9,9.64-17.97,19.41,9.56-5.97,20.15-11.75,30.07-8.8ZM295.08,1345.88c4.5-3.1,6.64-7.02,3.33-13.5-.74-1.45-5.59.08-5.33,1.55,1.37,3.67,2.22,7.63,2.01,11.94ZM169.82,1341.04l9.57-5.07c-1.49-2.52-4.29-3.18-7.21-2.81l-6.94.88-2.83,8.24c2.77-.1,5.51-.23,7.41-1.24ZM256.83,1362.25l7.26-10.98c2.13-3.23,3.05-6.05,3.07-10.38l2.99,1.61,7.76-9.13c-5.69.5-9.34,3.42-14.22,5.77-7.65,3.69-23.59,19.03-20.49,26.34,3.94.15,11.41.14,13.63-3.23ZM391.56,1341.14c-2.14-3.68-4.41-6.03-7.38-8.77l-11.61,3.33c1.05,8.74,11.24,5.37,18.99,5.44ZM207.98,1349.27l23.78-14.01c-9.27-1.58-16.8,2.11-24.76,5.09l2.13,6.37-1.15,2.55ZM319.18,1339.57c.84-.41,2.17-2.11,1.74-2.8-.59-.95-1.51-2.6-2.23-2.23l-3.09,1.55c-.79.4-1.9,1.95-2.19,2.77s.93,3.1,1.7,2.71l4.07-2.01ZM688.57,1334.94c-.82-.49-2.76-1.06-3.29-.52l-1.87,1.91c-1.81,1.85-3.42,3.13-4.82,5.42l9.99-6.82ZM717.91,1357.96c4.87-3.6,9.95-6.06,14.13-10.12,2.11-3.44,3.37-8.62,4.84-12.28-2.13-2.77-11.26,2.99-11.24,2.96l-9.32,12.69c-.79,1.47.82,5.12,1.6,6.75ZM290.11,1348.43c.73-4.79-.02-9.12-2.82-13.19-6.15,4.74-12.7,10.58-15.73,18.29-4.53,11.5-10.98,14.06-8.45,16.91,2.47,2.79,24.15-3.21,27-22ZM366.1,1343.55l-3.91-6.99c-7.48-2.9-15.7-1.14-22.67,2.54-2.24,1.18-5.05,6.82-1.89,7.61,9.29,2.33,19.47-.57,28.47-3.16ZM202.58,1370.42c9.92.28,32.58-8.18,35.9-20.91,2.76,1.01,3.26.24,4.46-1.16l9.97-11.54-12.55,2.92-.84,8.9-1.09-8.7-15.11,6.79c-10.84,4.87-18.94,13.86-23.73,23.89l1.8,1.6c.29.26.81-1.81,1.18-1.8ZM849.65,1346.17c1.7-.91,3.38-2.19,4.19-3.09.68-.77.51-3.82-.39-4.31-1.8-.98-5.7-1.77-7.68-2.09l-7.45,8.12c-1.19,1.29.23,5.27,1.75,6.49l9.58-5.11ZM904.95,1338.16l-15.37-.28c-.73,1.68-2.27,4.18-3.29,5.6-.51.7,1.1,3.02,1.96,2.83,3.56-.8,15.46-3.86,16.71-8.15ZM183.61,1348.04l10.84-8.53c-5.44.4-10.5,1.25-16.26,3.83,1.07,1.96,3.29,4.14,5.42,4.69ZM689.76,1362.31c-3.78-6.73-2.13-13.32-.17-20.98-6.1,4.66-13.32,8.88-20.44,13.14-1.38.83-1.73,4.64-1.22,6.14,1.82,5.34,15.87,6.02,21.84,1.7ZM801,1346.36l-.64-5.01c-2.38,5.35-8.27,3.48-8.8,8.84l9.44-3.83ZM929.34,1347.67l.17-6.56-15.82,8.17c5.47,1.64,10.9.13,15.65-1.6ZM185.61,1365.32c9.21-1.95,24.96-14.26,16.47-22.31-3.15,0-22.55,15.88-17.11,15.55l1.46-.09-.83,6.84ZM959.04,1351.75l-5.59-8.19c-5.01,3.28-10.66,6.15-16.26,8.67,3.28,5.37,17.73,1.17,21.85-.48ZM329.4,1344.26c-19.96,4.35-9.78,10-18.79,19.63,5.33-3.66,22.96-9.77,18.79-19.63ZM299.62,1365.53c-.03-8.24,4.38-12.88,9.5-18.53-.85-.29-3.65-1.17-4.61-.48-1.88,1.34-14.3,16.7-13.97,22.05l9.08-3.04ZM651.51,1354.5c-5.64-1.69-9.76-3.35-12.77-7.68-1.05,1.75-1.86,6.53.69,7.85,3.78,1.96,8.67.97,12.07-.17ZM861.65,1351.61c-1.98-2.09-3.19-3.14-4.13-3.64l-11.29,7.53c5.8.21,10.04-1.28,15.43-3.89ZM173.79,1369.04c-3.51-4.79,3.28-13.51,5.6-16.75-.93-1.99-5.04-5.09-7.74-3.62-11.89,6.46-17.93,27.17-7.7,25.14,3.57-.71,7.04-2.63,9.83-4.78ZM834.2,1353.29c.72-.96-1.4-4.57-2.43-4.04l-10.24,6.19c4.09.92,9.39-.04,12.67-2.15ZM806.18,1355.48l-2.1-3.48c-2.72.79-4.78,1.42-7.5,3.76,3.95.21,6.1.01,9.6-.28ZM762.53,1356.92c-.09-1.03-.85-2.56-1.55-3.1-.58-.45-2.82-.4-3.59.05l-14.15,8.34c6.67,1.17,13.68-1.92,19.29-5.3ZM133.86,1368.74c5.36-2.44,12.13-4.99,15.52-11.7-6.9.36-10.72,5.82-15.52,11.7ZM712.16,1359.45l-1.27-2.5c-.5-.99-6.87,2.16-8.91,6.2.87.48,11.07-1.96,10.19-3.7ZM733.15,1358.97c-.13-.54-.56-2.2-1.09-2.01l-2.58.93c-.94.34-2.64,1.26-3.05,2.04-.41.78.22,2.94.42,3.07,2.06-3.74,6.84-1.81,6.31-4.03Z"/>
        <path class="cls-1" d="M1206.13,666.73c7.77.06,11.27,6.99,11.42,14.26.56,27.55-2.59,52.33-1.74,80.15.37,12.1.31,23.49.11,35.44l-.32,19.14c-2.09,1.07-5.88.78-7.83-.83-3.06-2.53-4.03-7.17-5.29-11.54-8.55,6.74-18.89,13.68-26.73,21.65-1.48,2.93-.27,9.7-6.5,9.98l-1.47,8.33c-5.04,2.54-10.19.57-12.67-5.17-3.22-7.47,1.23-38.06-.37-54.4-2.07-21.11-3.45-41.5-4.34-62.58-1.65-39.03-5.96-28.6-7.16-33.45l-1.44-5.83c-2.23-8.99,7.76-21.12,12.54-27.87,3.85-5.43,7.68-10.7,12.44-15.65l18.7-19.42c11.69-12.14,21.78-21.55,19.83-39.18-4.84,9.02-22.12,30.7-28.65,37.14-15.43,15.22-31.51,29.18-45.36,46.07-5.28,6.44-11.24,13.06-12.12,21.48-1.74,16.68,9.45,32.62,6.78,34.92-7.84,6.77-23.74-32.42-17.84-48.81,3.14-8.72,9.49-17.31,15.81-23.84,7.73-7.99,14.51-15.64,22.67-23,16.22-14.61,35-33.41,46.26-51.98l1.85-.52c.54-.15.07-2.24.48-3.09,5.15-10.55,11.1-24.64,10.43-37.6,12.05,1.05,6.65,11.86,19.63,31.23,5.18,7.72,9.37,15.75,14.26,23.59l21.63,34.75c6.22,9.99,8.51,22.03,5.93,33.49-1.13,5-5.86,8.73-8.6,12.66-3.18,4.57-7.76,6.53-12.87,6.71l-.51,4.29c-.11.93-2.14.61-3.33.59.8.96,2.11,2.22,1.69,2.75-6.11,7.68-.91-10.79-2.26-20.35l-1.48-10.48-3.02-15.68-5.63-21.7c-.11-.43,1.1-2.11,1.51-2.14-3.95.27-8.12-22.5-7.67-27.49.18-2.01-.97-4.28-1.64-6.7l-10-16.64-5.61,16.5,2.36,11.3,1.55-2.64c3.31.75,2.48,4.28,2.84,7.14,3.97,31.19-5.7,42.12-11.54,66.34.23-.96-.21,16.2-5.25,14.69-.63-.19-1.53-1.72-1.7-2.61-1.56-8.28,1.45-16.8,4.5-24.42,5.06-12.62,12.14-37.82,9.77-51.74-2.22,4.6-3.87,9.63-6.75,13.91-9.87,14.66-34.18,34.23-49.03,56.03-.31.45-2.78.56-2.48.84,2.76,2.55-5.79,10.95-5.81,19.13,8.51.5,12.85,5.68,13.97,14.34,1.64-.69,2.93-3.06,3.7-4.75l36.87-20.59c.99-.55,4.1-.59,4.6-1.49.5-.89.65-2.48.93-4.68ZM1252.06,649.59c5.19-7.96,11.4-8.21-1.06-29.21l-23.07-35.82,14.11,52.38c1.33,4.94,4.75,20.07,2.35,24.42l7.67-11.77ZM1202.88,709.42l1.6,2.24.46-5.85-10.36,5.98c2.47,1.08,7.35-3.7,8.3-2.37ZM1200.09,794.24c1.19-.68,3.01-1.41,2.92-2.27l-.25-2.54-14.08,11.34,11.4-6.54Z"/>
        <path class="cls-1" d="M1170.51,1093.76c-.06-6.4,2.83-12.27,4.04-18.21,3.24-15.94,3.19-31.41,3.87-47.73l3.12-74.28c.18-4.34.8-7.9-.31-11.63-1.68,3.98-4.02,2.67-6.6,1.27-9.4-5.09,19.82-23.59,24.34-28.33,22.11-23.22,25.51-54.9,28.64-58.42.72-.82,3.52-.25,4.22.63.68.86,1.19,2.93,1.06,4.03l-.38,3.35c-.09.82,2.27.62,3.3.46.77-.12,1.38-1.61,1.07-2.36l-7.55-18.45c.28,8.18-3.54,13.56-7.9,19.11-10.07,12.8-22.79,20.97-37.61,27.36-15.45,6.66-25.91,18.94-30.42,34.91-1.11,3.92-9.55,25.51-2.92,27.41,1.84.53,3.41-.83,6.05-3.04,1,1.95,1.7,5.32,2.05,8.04.29,2.26,3.18.68-1.34,8.93-2.38,4.33-25.37-12.51-18.62-35.58,7.99-27.33,14.03-46.73,43.82-58.46,13.33-5.25,23.8-13.41,32.56-24.49,2.99-3.78,5.8-7.41,6.5-12.59,4.44-.41,5.2,3.6,6.76,7.42l2.48-9.25c5.78,1.56,6.28,7.05,8.19,11.58,5.9,13.99,11.42,28.41,20.82,40.27l17.61,22.21c6.58,8.3,12.38,17.42,13.35,28.32,1.3,14.67-7.05,27.33-18.63,35.29-4.03,2.77-7.46,5.82-12.39,6.47-3,.4-6.32-.74-7.38-3.13-1.16-2.6.02-5.6,1.8-8.13l-3.48-.62c-.99-.18-1.95-2.99-1.05-3.88,7.56-7.45,14.06-17.22,13.65-28.27-.14-3.83.45-8.63-.53-12.31-2.48-9.31-14.47-39.25-20.5-43.82l-8.03,47.48c-1,5.89-6.43,25.81-14.97,24.03-3.1,3.35-1.2,10.14.48,14.15,7.11,16.91,5.02,56.43,4.01,75.43-.65,12.25.09,23.46,2.73,35.25.52,2.31.53,6.53,0,8.48-2.52,2.1-5.73,1.22-8.25-.41-1.8-1.16-3.81-3.85-4.39-6.78l-3.27-16.72-9.39,14.69c-5.45,8.53-6.17,15.05-9.02,16.88-.77.5-3.16-.05-3.39-.99l-1.31-5.53-3.64,19.89c-5.94,1.2-13.19-3.23-13.25-9.9ZM1202.29,952.73l-2.34-2.49c.64-1.11,3.12-2.93,4.97-2.76,1.57.15,4.01,2.07,5.08,2.94,10.37-5.01,14.14-12.9,16.08-24.93l8.55-53.03c.21-1.3-4.22-.7-4.62.7-4.21,14.8-10.58,28.43-19.9,40.48-9.77,12.64-15.56,11.74-25.03,22.68,5.32,1.49,8.05,4.93,8.39,10.09l1.3,19.67c2.05-1.55,8.45-12.35,7.5-13.36ZM1277.53,946c2.9-3.59,4.33-10.62,3.06-14.74-2.4-7.81-7.32-14.08-12.96-19.55,5.66,13.49,5,33.46-3.39,45.19,4.34-2.89,9.34-6.02,13.28-10.9Z"/>
        <path class="cls-1" d="M123.85,855.27c-3.69-16.23-2.58-32.73-1.08-49.13.89-9.69-.46-19.28-.37-29.3.05-5.86,1.36-11.46-.47-17.42.7-.38,3.33-.96,4.29-.81.96.15,1.72,1.77,2.4,3l3.73,6.75,1.44-2.63c.4-.73,2.46-.6,4.21-.61l-1.94-38.44c-.29-5.79-.22-11.31.46-16.97.31-2.56.4-4.9-1.36-6.75-3.35,14.95-8.76,27.89-13.55,41.79-2.5,7.27-5.1,13.97-8.28,21.03-1.84-3.01-1.61-7.95-.15-9.83,3.51-4.52-.27-7.96.57-11.93,2.94-13.83,9.79-26.02,13.45-39.22l3.16-11.4c1.88-6.77,4.91-13.41,3.5-20.79-.56,3.12-.93,6.92-2.11,10.05l-9.83,26.06c-5.7,15.11-24.26,30.49-24.4,48.88-.03,4.51-.17,10.18,5.74,11.46l.25,6.6c-4.6,1.23-10.09-1.8-12.06-6.88-5.13-13.25-2-29.54,5.44-41.55l7.48-12.08c2.74-4.43,6.89-8.75,8.28-13.79,2.84-10.32,8.06-19.45,10.35-29.89,1.38-6.28,1.59-12.51,3.35-18.63,2.16-7.48-4.18-16.84-4.02-25.82,5.91-.8,9.99,2.17,12.28,7.21,4.81,10.54,8.43,21.35,14,31.6l21.71,39.95c4.96,9.12,10.26,17.48,11.83,27.9,1.72,11.43,1.29,22.87-6.36,31.96-1.49,1.77-5.32.59-6.56-.67-1.24-1.27-2.9-5.48-1.95-7.44,5.39-11.18,8-23.44,1.63-35.23l-28.9-53.5c-2.49,6.04,2.71,9.8,3.97,14.67,1.42,5.51,4.1,10.43,6.36,15.78l4.33,10.27c2.57,6.1,4.22,13.16,4.97,19.32.47,3.83,2.43,10.55-.19,14.73-1.18,1.88,1,6.56-4.64,6.91l1.18-9.1c1.95-15.02-4.75-29.88-12.87-43.6-2.33,16.93-1.27,33.04-.89,49.5.14,6.37-.13,11.94-.36,18.13-.13,3.64,7.04,8.38,10.09,5.99,1.6-1.26,1.74-6.78,5.21-4.66,2.44,1.49,4.08,7.13,3.81,10.58-1.82,23.48-1.5,46.5.63,69.87l3.37,37.11c.13,1.42-.35,4.36-1.49,4.61-1.14.25-4.12-.29-5.1-1.15-3.5-3.1-3.15-8.57-3.57-13.55-3.88.89-2.21,5.6-3.72,8.21-1.87,3.23-8.2,3.6-11.1,4.27-1.61,2-3.04,5.26-6.21,5-2.67-.22-6.39-1.57-5.63-5.18.8-3.8,1.03-7.73.12-11.74l-4.42-19.47ZM151.42,843.28c1.88-1.54,1.37-4.42.37-5.92l-2.18,3.74c-.41.71,1.05,2.81,1.81,2.18Z"/>
        <path class="cls-1" d="M77.31,984.47c-2.66-14.02-2.58-27.87-2.19-41.79.03-1.16-.91-3.83.05-4.07l4.37-1.12c-5.17-2.63,4.69-22.41,6.64-27.91s2.91-11.29,3.2-17.33c-4.19,8.74-7.38,16.93-12.07,25.06-11.43,19.8-8.54,8.16-10.5,35.86-.08,1.1,1.26,3.44.64,4.28-.8,1.07-3.27,1.82-4.76,1.35-12.5-3.9-2.62-20.67-8.67-31.13l2.48-.97c.35-.14.71-.94.37-1.11l-1.45-.72,2.19-1.2c.57-.31.52-2.03.72-2.63,4.62-2.78,11.88-16.65,13.88-22.21l6.18-17.13c3.04-8.44,4.01-16.42,4.67-25.26l.52-6.93c2.96-1.16,10.31-1.44,12.45,2.54,11.47,21.31,17.65,40.58,34.28,59.1,21.44,23.87,7.03,44.1-6.26,64.59-.85,1.31-3.73,3.47-5.51,2.98-1.41-.39-2.75-1.8-5.23-3.5l4.05,33.71c1.48,12.31,4.55,24.71,7.44,36.49-1.6,2.59-6.8,2.92-8.88.42-2.49-3-2.85-7.2-4.29-11.72l-7.31,20.33c-.72,2.01-4.49,2.76-5.44,1.52-1.46-1.89-.81-6.18-.65-8.2-2.88.33-5.93.91-7.76-.28-4.22-2.77-5.56-17.46-5.8-23.1-.38-8.8-3.09-17.14-4.74-25.61-.76-3.9-1.74-5.77-5.83-7.74-2.26-1.1-.38-5.3,3.22-6.55ZM101.94,886.31l-3.54-6.92c-2.41,1.96-1.65,3.14-.92,4.81.88,2.03,2.5,3.01,4.46,2.11ZM125.19,947.51c8.38-14.9,3.98-21.62-3.71-32.28l-15.05-20.89c1.14,4.82,2.41,8.82,4.03,13.02l11.18,29.08c1.37,3.55,1.47,7.3,3.56,11.09ZM106.21,949.67c2.7-1.1,7.69,3.44,7.43,5.97-.58,5.81-2.56,10.64.23,16.53-1.55-5.76,4.04-8.67,4.64-12.47,1.74-10.97-3.26-22.35-7.29-32.39-1.77-4.41-2.43-9.07-5.25-12.89-1,6.16,4.38,24.33-1.92,27.25-.79.37-2.83-.79-3.14-1.6-.31-.82.25-2.39.34-3.66.83-11.73-2.66-22.62-6.41-33.39l-7.1,18.05c-1.38,3.52-2.52,6.16-3.67,9.73l-2.33,7.22c5.02,1.8,4.1,6.41,5.01,11.73,2.03-2.13,3.85-5.23,6.04-5.37,1.01-.07,2.89,2.9,3.74,2.37l3.58-2.2c1.51-.92,4.74.86,4.82,2.73.17,4.09-5.9,7.16-5.78,9.7.06,1.29,2.15,4.14,2.91,4.07,1.34-3.89-.62-9.46,4.13-11.39Z"/>
        <path class="cls-1" d="M333.42,1034.83c-2.2-8.93-1.04-17.82-.47-26.7l2.93-45.22.1-16.88c.17-29.28,1.6-57.91.13-87.25-.68-13.48-1.28-26.36.47-39.97,4.71-36.45,2.8-65.5-.95-101.33-1.44-13.74.14-45.88-3.27-54.58-.64-1.63-2.47-6.48-.32-6.45,8.29.17,12.43,7.78,12.89,15.02l3.64,56.74c2.25,35.09,3.93,69.64-.9,104.63l2.38,66.97c.47,13.22-.8,26-1.05,39.13l-.49,25.35-2.71,42.98c-.58,9.26-.42,17.72-.4,27.14,0,3.63-10.79,5.28-11.99.42Z"/>
        <path class="cls-1" d="M508.14,830.61c.07,6.16,2.54,15.63-1.6,17.09-2.05.72-5,.37-7.01-.35l-3.57-1.28c-.9-.32.7-3.26.51-4.35-1.15-6.69-1.02-14.87-1.04-21.91l-.11-31.71c-.06-16.61.5-32.92,1.89-49.49.83-9.84,1.13-18.83,1.62-28.68l1.9-38.68c.32-6.58.23-12.92,1.17-19.68-7.04,1.27-13.85,2.37-19.89,0l-3.21-1.26c-.69-.27-1.6,2.39-2.44,2.52-2.6.41-5.98-3.27-6.54-6.51-.81-4.66-6.68-45.47.17-45.32,4.02,3.8,3.59,9.6,4.05,14.73l2.63,29.55c5.14,1.77,27.11-.18,28.57-2.18,3.42-4.69-9.35-37.69-.77-47.29,6.98,9.51,2.59,10.97,6.07,26.21,1.73,7.58,2.81,14.33,4.22,22.52l23.8-1.7c9.19-.66,17.29-.05,27.06,1.48l-4.5-29.41c-.86-5.65-.49-11.21,2.79-16.02,4.36,4.63,3.74,9.71,4.71,14.77l5.8,30.47c.4,2.11-.37,5.19-1.66,6.42-4.25,4.06-17.52-2.04-32.34.07-8.12,1.16-15.7,1.21-24.5.48-2.84,7.53-3.5,15.74-3.95,24.02l-1.21,22.23-.97,29.03-2.32,44.85.69,59.37Z"/>
        <path class="cls-1" d="M620.78,746.65l5.01,31.99c-2.66,1.19-4.86,1.31-6.8-.12-1.42-1.05-3.42-3.53-3.8-5.69l-4.3-24.61c-2.87-16.44-3.92-33.07-3.76-49.86l.26-26.74-20.22.48c-2.84.07-6.22-.44-7.73-3.17-.94-1.7-1.29-4.69.28-7.21l28.23-1.4c.48-16.6,2.26-23.9,4.3-39.95,13.89-2.2,4.26,30.93,5.76,40.41,9.14,1.56,32.19-3.64,31.01,9.19-.71,1.14-3.72,3.02-5.08,2.93-8.58-.55-17.27-.84-26.28-.48l-.16,21.72c-.13,17.71.47,34.55,3.28,52.49Z"/>
        <path class="cls-1" d="M219.62,659c-11.65.77-22.28,0-33.42,2.33-2.81.59-6.58-1.43-7.35-3.81l20.52-2.86,32.18-3.72c6.61-.76,12.84.45,19.82-.13,9.92-.84,23.14-2.38,32.42-3.69.93-.13,1.82-2.17,2.3-2.49.6-.39,2.07.89,2.81.99,12.66,1.71,24.8,1.22,37.6-.1,1.78-.18,3.58,1.5,4.04,3.01,1.49,4.9-21.59,4.6-22.92,4.32-25.8-5.34-18.03,2.16-41.98,1.86-4.63,1.57-9,2.24-13.76,2.01-10.86-.52-20.97,1.54-32.27,2.29Z"/>
        <path class="cls-1" d="M466.06,604.34l-63.17-4.3c-10.42-.71-19.57-3.54-30.31-2.79-8.67.6-26.93-3.18-22.92-5.11,1.1-.53,28.58-.23,31.21-.03l48.74,3.64,31.27,1.93c1.19.07,3.47,1.06,4.33,1.7,1.07.79,1.46,2.63.84,4.96Z"/>
        <path class="cls-1" d="M347.94,603.41c-.36,6.57-.9,11.59-1.65,17.27-1.3,9.77.29,22.81-2.88,24.82-8.56,5.44-5.65-22.04-5.31-25.67.55-5.84,1.06-26.76,6.17-26.58,5.36.19.72,8.26,7.66,6.54l9.88-2.45c.88-.22,3.05,1.55,2.98,2.39-.19,2.35-13.05,6.59-16.84,3.68Z"/>
        <path class="cls-1" d="M625.66,572.86c-6.21-2.79-5.3-9.3-2.52-14.04,2.77-4.73,2.83-11.02,2.79-16.32l-4.54-3.9c1.89-1.42,5.07-1.89,6.77-.96,10.56,5.8,5.02,27.19-2.49,35.23Z"/>
        <path class="cls-1" d="M597.41,550.9c-2.52,4.14,8.02,12.17,2.25,13.82-4.12,1.17-5.4-4.05-6.93-6.24-3.63-5.22-3.57-9.16-.92-14.33,2.72-5.31,4.42-11.25,10.75-14.71,2.18,4.26,0,9.23-3.28,11.7-.01,2.97-.04,6.74-1.88,9.77Z"/>
      </g>
    </g>
  </g>
</svg>